<svg width="306" height="180" viewBox="0 0 306 180" fill="none" xmlns="http://www.w3.org/2000/svg">
<path d="M35.7204 65.8067C35.745 59.2592 43.3488 54.4202 52.8212 55.1269C55.0968 55.2966 57.325 55.8053 59.2586 56.6302C61.1041 57.417 62.8276 58.5857 63.3403 60.0553C63.8265 61.4485 62.7918 63.013 60.7337 63.5395C57.8056 64.2887 55.0673 62.0349 57.0642 58.3365C57.7952 56.9829 58.8112 55.6998 60.1042 54.5494C67.3976 48.0605 79.384 49.3985 83.0302 54.3184C83.5245 54.9853 83.9235 55.6934 84.5917 56.2948C85.8778 57.4526 87.9261 57.7984 89.9856 57.5739C94.2997 57.1033 99.2836 54.0699 100.715 50.0623C101.74 47.1951 101.222 44.8176 109 45.3421C109.513 45.3768 109.51 44.8383 109 44.804C106.852 44.6591 104.397 44.5557 102.573 45.4831C100.643 46.4638 100.453 48.1415 100.013 49.6125C98.2329 55.5591 88.9403 58.9621 85.3577 56.2316C83.9728 55.1759 83.9437 53.9366 81.8498 52.4115C76.9557 48.8462 66.6155 48.2529 59.7903 54.1164C58.4044 55.3071 57.3041 56.6433 56.5254 58.0602C55.8678 59.2568 55.5305 60.5929 55.9618 61.8535C56.3594 63.0158 57.661 64.0479 59.5528 64.0675C61.571 64.0885 63.3114 62.9296 63.8546 61.6921C64.8634 59.3937 61.7485 56.4593 56.0967 55.2163C51.6545 54.2393 46.5416 54.5849 42.5813 56.2803C37.5681 58.4262 34.8274 62.4269 35.3355 65.8067C35.3595 65.9686 35.7196 65.9764 35.7204 65.8067Z" fill="#FF6E53"/>
<path d="M144.256 29.7383L130.308 46.4457L106.135 45.2358L116.351 30.3575L144.256 29.7383Z" fill="#FF6E53"/>
<path d="M106.782 44.981L116.629 30.6391L143.512 30.0425L130.068 46.1465L106.782 44.981Z" fill="#EDC757"/>
<path d="M143.512 30.0425L142.985 30.0543L123.32 38.0488L116.887 30.6334L116.629 30.6391L116.483 30.8525L122.881 38.2273L106.981 44.6914L106.782 44.981L107.207 45.0023L123.139 38.5251L129.736 46.1298L130.068 46.1465L130.204 45.9837L123.578 38.3466L143.259 30.3456L143.512 30.0425Z" fill="#FF6E53"/>
<path d="M96.8936 46.8103C95.5148 46.9769 94.0916 49.6295 94.9963 50.3471C95.9008 51.0648 100.512 49.6809 100.512 49.6809C100.512 49.6809 98.2725 46.6438 96.8936 46.8103Z" fill="#65CEFE"/>
<path d="M105.441 47.8924C106.635 48.3847 106.518 51.2027 105.285 51.6497C104.053 52.0967 100.512 49.6803 100.512 49.6803C100.512 49.6803 104.248 47.4 105.441 47.8924Z" fill="#65CEFE"/>
<path d="M101.451 49.1753L99.812 48.9741L99.547 49.9455L101.186 50.1467L101.451 49.1753Z" fill="#65CEFE"/>
<path d="M93.5393 53.529C92.5938 53.0769 89.4247 54.0463 89.3139 54.8215C89.2029 55.5968 93.0955 56.6296 93.0955 56.6296C93.0955 56.6296 94.4847 53.981 93.5393 53.529Z" fill="#65CEFE"/>
<path d="M97.5301 57.5551C97.7855 58.3149 95.2261 59.8995 94.1176 59.668C93.0091 59.4366 93.0958 56.6294 93.0958 56.6294C93.0958 56.6294 97.2745 56.7955 97.5301 57.5551Z" fill="#65CEFE"/>
<path d="M94.0989 56.7049L93.3281 55.9365L92.3158 56.3933L93.0866 57.1617L94.0989 56.7049Z" fill="#65CEFE"/>
<path d="M255.1 60.4734L257.913 61.1938L260.117 59.7594L263.185 60.7166L264.83 58.7034L268.371 59.6831L270.227 57.9546L273.863 58.5237L273.542 59.4469L270.823 59.0215L268.865 60.8454L265.461 59.9036L263.789 61.9504L260.403 60.8942L258.251 62.2948L255.644 61.6272L254.517 62.7453L253.346 62.2146L255.1 60.4734Z" fill="#65CEFE"/>
<path d="M0.120117 174.179C0.120117 174.179 59.6562 168.47 98.5068 165.683C145.554 162.308 193.649 162.86 218.386 165.413C243.122 167.966 305.88 175.324 305.88 175.324C305.88 175.324 256.724 181.729 216.85 179.547C176.977 177.365 112.201 181.729 82.4064 178.708C52.6116 175.686 0.120117 174.179 0.120117 174.179Z" fill="#93DDA9"/>
<path d="M31.5524 46.1339L33.416 43.8459L31.6624 41.5192C31.4626 41.2542 31.8026 40.9505 32.2378 41.0055L36.058 41.4872L38.8153 39.6494C39.1295 39.4403 39.6651 39.5632 39.7216 39.8577L40.219 42.4435L43.6769 43.6346C44.0706 43.7702 44.0616 44.1499 43.6616 44.277L40.1487 45.3935L39.5284 47.9672C39.4578 48.2605 38.9165 48.3719 38.6126 48.156L35.9442 46.2601L32.1029 46.6597C31.6656 46.7053 31.3401 46.3946 31.5524 46.1339Z" fill="#EDC757"/>
<path d="M185.097 12.1242L186.96 9.83621L185.207 7.50943C185.007 7.24453 185.347 6.94083 185.782 6.99564L189.602 7.47739L192.36 5.63969C192.674 5.43045 193.21 5.55344 193.266 5.84798L193.764 8.43377L197.222 9.62492C197.615 9.76056 197.606 10.1401 197.206 10.2674L193.693 11.3838L193.073 13.9576C193.002 14.2508 192.461 14.3622 192.157 14.1462L189.489 12.2505L185.647 12.65C185.21 12.6956 184.885 12.3848 185.097 12.1242Z" fill="#EDC757"/>
<path d="M135.631 58.5349C137.699 60.082 137.506 62.4602 135.199 63.8468C132.892 65.2333 129.346 65.1031 127.278 63.556C125.21 62.0088 125.404 59.6306 127.71 58.2441C130.017 56.8575 133.564 56.9878 135.631 58.5349Z" fill="#EDC757"/>
<path d="M129.815 62.8315C130.92 63.6586 132.817 63.7283 134.05 62.9869C135.283 62.2457 135.387 60.9742 134.281 60.147L129.815 62.8315Z" fill="#EFEFEF"/>
<path d="M217.71 78.3717C217.561 76.9255 219.187 75.6718 221.343 75.5713C223.5 75.471 225.369 76.562 225.519 78.0082C225.668 79.4543 224.042 80.7081 221.886 80.8084C219.729 80.9088 217.86 79.8177 217.71 78.3717Z" fill="#EDC757"/>
<path d="M224.347 85.7832C224.113 85.0217 223.972 84.2065 223.585 83.4728C223.252 82.8416 221.784 83.0343 221.858 83.7122C221.949 84.5422 222.336 85.3837 222.595 86.1966C222.7 86.5259 223.349 86.6788 223.779 86.5776C224.305 86.4539 224.448 86.1141 224.347 85.7832Z" fill="#EDC757"/>
<path d="M231.053 82.532C229.756 82.019 228.626 81.3834 227.429 80.777C226.494 80.3032 225.486 81.1187 226.255 81.6819C227.359 82.4907 228.809 83.1227 230.209 83.6762C230.652 83.8514 231.268 83.6802 231.484 83.3874C231.727 83.0589 231.497 82.7075 231.053 82.532Z" fill="#EDC757"/>
<path d="M228.597 77.8333C228.304 77.9915 228.245 78.2183 228.426 78.4388C228.865 78.9726 229.978 78.9461 230.769 78.9281C231.594 78.9093 232.419 78.7968 233.2 78.6183C234.353 78.3542 233.728 77.1538 232.57 77.4188C230.306 77.9369 229.45 77.3744 228.597 77.8333Z" fill="#EDC757"/>
<path d="M227.351 72.7296C226.212 73.8473 225.281 74.2247 225.426 74.8399C225.511 75.1996 225.935 75.3713 226.452 75.2926C227.064 75.1996 227.398 74.7645 227.764 74.459C228.116 74.1661 228.461 73.8727 228.775 73.5608C229.06 73.2777 229.1 72.9114 228.683 72.6677C228.333 72.4633 227.64 72.4457 227.351 72.7296Z" fill="#EDC757"/>
<path d="M222.913 72.536C222.549 71.8585 222.469 71.6121 221.997 71.2974C221.586 71.0238 220.72 71.1983 220.662 71.6013C220.595 72.0715 220.742 72.2462 221.125 72.958C221.298 73.281 221.848 73.4611 222.333 73.3469C222.815 73.2334 223.088 72.8602 222.913 72.536Z" fill="#EDC757"/>
<path d="M218.12 74.1752C216.478 73.3385 216.144 73.1028 215.499 73.1485C215.121 73.1753 214.696 73.4188 214.779 73.7036C214.932 74.2325 215.391 74.3762 216.901 75.1149C217.306 75.3131 217.862 75.323 218.211 75.054C218.524 74.8127 218.521 74.3796 218.12 74.1752Z" fill="#EDC757"/>
<path d="M211.525 78.0099C210.878 78.2401 211.138 78.9906 211.838 79.0519C212.51 79.1107 212.77 79.0384 216.029 78.6392C216.533 78.5775 216.947 78.3309 216.909 77.9611C216.876 77.6473 216.405 77.3096 215.898 77.3711C212.513 77.7808 212.174 77.779 211.525 78.0099Z" fill="#EDC757"/>
<path d="M216.632 81.5865C214.845 82.7463 214.584 82.5415 213.878 83.2506C213.555 83.5748 214.088 84.0917 214.649 84.0226C215.37 83.9339 215.564 83.8523 216.504 83.3528C217.05 83.0628 217.571 82.7517 218.073 82.4276C218.445 82.1875 218.345 81.7367 217.98 81.5236C217.562 81.2802 217.004 81.345 216.632 81.5865Z" fill="#EDC757"/>
<path d="M58.5693 29.0755L58.077 26.5972L55.3174 26.6045L54.7047 24.1705L52.0347 23.9048L51.225 22.1172L50.1758 22.3728L51.2586 24.7637L53.7889 25.0156L54.4263 27.5476L57.1405 27.5403L57.5867 29.7862L58.5693 29.0755Z" fill="#EDC757"/>
<path d="M81.7262 27.019L78.0243 27.3143L77.9963 29.1651L74.3591 29.5416L73.925 31.3283L71.2485 31.8461L71.6149 32.5533L75.1945 31.861L75.6058 30.1677L79.3895 29.776L79.4172 27.9557L82.7717 27.6882L81.7262 27.019Z" fill="#C9EDF9"/>
<path d="M265.004 28.7188L261.302 29.0139L261.274 30.8647L257.636 31.2412L257.202 33.028L254.526 33.5457L254.892 34.2529L258.472 33.5606L258.883 31.8672L262.667 31.4756L262.695 29.6552L266.049 29.3878L265.004 28.7188Z" fill="#C9EDF9"/>
<path d="M219.219 50.9619L215.837 52.0148L216.669 53.7797L213.387 54.8963L213.803 56.6851L211.5 57.7357L212.176 58.3314L215.257 56.9264L214.863 55.2313L218.277 54.0696L217.459 52.3338L220.523 51.3797L219.219 50.9619Z" fill="#6577FF"/>
<path d="M181.842 60.7865C181.842 60.7865 182.92 59.9766 184.802 60.0985C186.481 60.2072 187.508 61.1768 187.358 62.2188C187.184 63.4249 185.402 64.7499 181.131 65.725C177.216 64.2196 175.845 62.6906 176.018 61.4845C176.168 60.4426 177.454 59.6227 179.132 59.7314C181.015 59.8533 181.842 60.7865 181.842 60.7865Z" fill="#FF6E53"/>
<path d="M167.898 60.3644C169.503 60.6476 170.814 60.8206 172.115 60.9495C172.544 60.9922 173.269 61.1509 173.621 60.9336C173.804 60.8206 173.862 60.667 173.718 60.5194C173.455 60.249 172.789 60.279 172.356 60.2359C171.039 60.1047 169.557 59.9143 168.077 59.6637C167.799 59.6166 167.511 59.7753 167.465 59.9541C167.413 60.1575 167.621 60.3154 167.898 60.3644Z" fill="#FF6E53"/>
<path d="M189.386 64.8275C190.015 64.8973 190.645 64.9593 191.275 65.0227C191.878 65.0832 192.574 65.2258 193.177 65.1451C193.621 65.0855 193.743 64.7142 193.323 64.5629C192.78 64.3674 192.062 64.367 191.457 64.3075C190.827 64.2455 190.196 64.1822 189.565 64.1267C188.89 64.0673 188.71 64.7524 189.386 64.8275Z" fill="#FF6E53"/>
<path d="M172.469 66.4839C173.46 65.6739 174.485 65.4974 175.297 65.2307C175.732 65.0881 175.602 64.6759 175.109 64.6777C173.757 64.6834 172.458 65.363 171.65 66.0374C171.225 66.3923 172.037 66.8371 172.469 66.4839Z" fill="#FF6E53"/>
<path d="M179.228 69.4519C179.302 69.0129 179.497 68.5964 179.829 68.2136C180.032 67.9796 180.94 67.3609 180.229 67.1552C179.56 66.9617 179.011 67.6916 178.771 67.9992C178.45 68.4116 178.25 68.8694 178.179 69.3317C178.109 69.7864 179.151 69.91 179.228 69.4519Z" fill="#FF6E53"/>
<path d="M185.172 67.3376C185.483 67.5439 185.795 67.7501 186.106 67.9563C186.417 68.1621 186.696 68.4438 187.172 68.4277C187.439 68.4188 187.58 68.2546 187.586 68.0944C187.597 67.8037 187.076 67.5778 186.791 67.3912C186.478 67.1863 186.165 66.9814 185.851 66.7765C185.643 66.6403 185.265 66.6875 185.094 66.8291C184.895 66.9927 184.964 67.1999 185.172 67.3376Z" fill="#FF6E53"/>
<path d="M178.097 57.7549C177.249 55.4598 177.278 55.4516 177.048 55.2465C176.813 55.036 176.278 55.108 176.215 55.3769C176.154 55.6428 176.171 55.5998 177.076 58.0123C177.148 58.2042 177.525 58.29 177.778 58.2261C178.081 58.1497 178.168 57.9475 178.097 57.7549Z" fill="#FF6E53"/>
<path d="M183.849 58.3179C184.14 57.9807 184.374 57.6267 184.552 57.2556C184.716 56.9109 185.039 56.3972 184.605 56.1011C184.512 56.0376 184.315 56.0187 184.197 56.0565C183.703 56.2146 183.687 56.7051 183.533 57.0228C183.365 57.3691 183.141 57.7036 182.888 58.0255C182.754 58.1946 182.902 58.4185 183.15 58.4942C183.431 58.5795 183.705 58.4839 183.849 58.3179Z" fill="#FF6E53"/>
<path d="M191.879 59.5002C192.011 59.3453 191.849 59.1697 191.651 59.0922C191.243 58.9326 190.609 59.1567 190.211 59.2638C189.749 59.3884 189.308 59.543 188.881 59.7157C188.635 59.8155 188.605 60.068 188.763 60.2145C188.949 60.386 189.255 60.3876 189.507 60.2934C191.154 59.6791 191.555 59.8826 191.879 59.5002Z" fill="#FF6E53"/>
<path d="M96.9575 19.484L106.288 20.2371L102.306 15.3921L96.9575 19.484Z" fill="#6577FF"/>
<path d="M180.565 40.8499L174.801 40.7664L172.66 37.0986L174.091 36.7227L175.859 39.7504L181.814 39.8365L183.211 44.2082L187.18 43.938L187.208 44.9724L181.996 45.3273L180.565 40.8499Z" fill="#6577FF"/>
<path d="M61.78 76.9643L56.016 76.8808L53.8745 73.2129L55.3061 72.8369L57.0738 75.8648L63.0288 75.9509L64.426 80.3225L68.3953 80.0523L68.4229 81.087L63.2111 81.4417L61.78 76.9643Z" fill="#65CEFE"/>
<path d="M115.204 89.9318C113.454 92.0245 114.217 96.1622 115.673 97.4942C117.129 98.8264 120.592 99.2441 120.592 99.2441L125.674 100.382C125.674 100.382 129.331 96.9049 130.342 94.7672C130.732 93.9404 130.799 93.4031 130.342 91.6495C129.751 89.3832 128.878 88.2105 125.191 87.9376C121.611 87.6726 117.32 87.4011 115.204 89.9318Z" fill="#031322"/>
<path d="M131.419 95.5119C131.243 96.2728 130.46 96.8266 129.67 96.7489C128.881 96.6711 128.384 95.9914 128.561 95.2305C128.737 94.4698 129.52 93.9159 130.31 93.9936C131.099 94.0713 131.596 94.7512 131.419 95.5119Z" fill="#F7A491"/>
<path d="M110.44 147.462C109.933 148.124 107.521 149.268 107.521 149.268C109.583 150.915 116.198 154.41 116.198 154.41C116.198 154.41 117.036 153.829 116.659 153.295C116.282 152.761 114.449 149.46 115.28 148.374C115.496 148.092 117.087 145.985 118.477 144.815C116.62 144.396 114.823 143.795 113.096 143.254C112.01 144.754 110.607 147.243 110.44 147.462Z" fill="#F7A491"/>
<path d="M110.011 147.853C110.011 147.853 114.87 151.322 115.809 151.692C116.574 151.993 117.58 155.673 116.481 155.783C115.382 155.892 107.182 150.28 106.942 149.516C106.702 148.752 110.011 147.853 110.011 147.853Z" fill="#063E70"/>
<path d="M133.993 139.594C133.4 140.233 130.842 141.273 130.842 141.273C132.681 143.002 138.814 146.766 138.814 146.766C138.814 146.766 139.726 146.221 139.421 145.673C139.115 145.124 137.726 141.756 138.698 140.708C138.951 140.435 140.818 138.401 142.359 137.293C140.563 136.797 138.85 136.122 137.199 135.51C135.918 136.961 134.189 139.383 133.993 139.594Z" fill="#F7A491"/>
<path d="M133.034 140.247C133.034 140.247 137.842 143.692 138.778 144.064C139.541 144.367 140.52 148.049 139.42 148.156C138.321 148.263 129.746 143.029 129.512 142.265C129.278 141.5 133.034 140.247 133.034 140.247Z" fill="#063E70"/>
<path d="M130.697 118.817C130.697 118.817 147.809 123.749 149.082 127.484C149.771 129.504 141.067 140.192 141.067 140.192L134.276 138.294C134.276 138.294 135.693 134.364 137.478 131.775C138.306 130.574 138.863 129.871 138.863 129.871C137.465 129.084 121.376 125.827 121.376 125.827L124.254 119.44L130.697 118.817Z" fill="#063E70"/>
<path d="M110.576 118.817C110.576 118.817 109.198 120.279 111.723 124.186C113.378 126.747 118.616 134.236 118.484 134.387C114.779 138.592 109.898 144.843 109.898 144.843L117.94 147.475C118.058 147.611 128.155 138.369 128.548 135.573C128.849 133.432 126.16 119.297 126.16 119.297L110.576 118.817Z" fill="#064C91"/>
<path d="M102.728 92.5664C101.171 91.3643 97.9748 87.2739 96.8943 85.883C96.9259 85.7497 97.0593 84.9698 96.2145 83.7857C95.6176 82.9492 95.5422 81.2856 94.8292 81.6172C94.1161 81.9489 95.0416 83.4352 94.4101 83.3235C93.7786 83.2118 91.5449 80.1917 90.8986 80.4922C90.2524 80.7928 92.6327 83.5526 92.0679 83.4528C91.5028 83.3529 89.7292 80.679 88.8156 81.1038C87.9021 81.5287 91.3186 84.1213 90.8284 84.3493C90.3383 84.5773 88.2448 82.9054 87.5097 83.2474C86.7744 83.5894 90.5229 85.439 90.1905 85.3803C89.8582 85.3215 87.4879 84.8222 87.354 85.1366C87.2027 85.4921 93.0563 87.2056 93.5712 87.969C94.5172 90.014 96.1712 93.735 98.5139 95.676C101.38 98.0506 107.693 103.308 107.693 103.308L113.441 100.396C113.441 100.396 104.575 93.9919 102.728 92.5664Z" fill="#F7A491"/>
<path d="M94.128 84.0942C93.8956 84.2765 93.7447 84.4934 93.6384 84.7212C93.6366 84.7611 93.2154 85.4817 93.9312 86.2266C93.7408 85.6951 93.5323 85.1052 94.128 84.0942Z" fill="#F48C7F"/>
<path d="M136.042 90.4371C136.975 88.9694 138.149 84.4127 138.542 82.8646C138.451 82.7442 137.969 82.0301 138.232 80.7278C138.419 79.8078 137.731 78.2095 138.561 78.3765C139.391 78.5436 139.188 80.1502 139.738 79.9125C140.288 79.6747 141.035 76.3366 141.787 76.4879C142.539 76.6393 141.533 79.7604 142.025 79.5478C142.517 79.3351 142.985 76.4221 144.048 76.6361C145.111 76.8501 143.043 80.0277 143.614 80.1426C144.184 80.2575 145.413 78.2311 146.268 78.4033C147.124 78.5757 144.401 81.1157 144.691 80.9906C144.98 80.8655 147.007 79.8971 147.278 80.1682C147.584 80.4749 142.797 83.3237 142.655 84.157C142.688 86.2994 142.812 90.1837 141.469 92.5178C139.825 95.3735 135.765 101.69 135.765 101.69L129.422 100.116C129.422 100.116 134.935 92.1777 136.042 90.4371Z" fill="#F7A491"/>
<path d="M140.358 80.7881C140.662 80.913 140.905 81.0882 141.11 81.2826C141.13 81.3202 141.859 81.9179 141.518 82.7756C141.457 82.2304 141.386 81.6256 140.358 80.7881Z" fill="#F48C7F"/>
<path d="M110.583 97.5979C110.583 97.5979 104.441 101.206 104.485 101.291C104.812 101.933 111.127 104.753 111.127 106.464C111.127 108.403 109.121 121.566 109.121 121.566C109.121 121.566 114.658 122.79 121.429 122.105C128.2 121.421 132.858 119.304 132.858 119.304C132.858 119.304 132.443 115.724 132.443 112.415C132.443 109.107 133.195 106.259 133.195 106.259L138.357 98.4891L131.936 96.1133C131.936 96.1133 127.487 101.843 126.312 101.843C122.972 101.843 119.172 101.455 119.172 101.455L110.583 97.5979Z" fill="#93DDA9"/>
<path d="M125.843 98.9558C125.843 98.9558 125.083 102.56 126.695 103.536C128.396 104.565 120.537 104.282 119.982 102.581C119.683 101.662 120.756 97.6045 120.756 97.6045L125.843 98.9558Z" fill="#F7A491"/>
<path d="M120.756 97.6045L125.843 98.9557C125.843 98.9557 125.657 99.8391 125.664 100.849C124.42 100.968 123.006 100.794 121.478 100.211C121.038 100.042 120.638 99.8572 120.275 99.6577C120.502 98.5652 120.756 97.6045 120.756 97.6045Z" fill="#F48C7F"/>
<path d="M122.689 89.9821C122.689 89.9821 120.287 90.3958 118.875 91.9185C117.463 93.4416 116.683 97.8441 121.725 99.7699C126.767 101.696 130.436 98.7131 130.34 95.8922C130.245 93.0712 128.32 89.4648 122.689 89.9821Z" fill="#F7A491"/>
<path d="M122.689 89.9821C122.689 89.9821 120.287 90.3958 118.875 91.9185C117.463 93.4416 116.683 97.8441 121.725 99.7699C126.767 101.696 130.436 98.7131 130.34 95.8922C130.245 93.0712 128.32 89.4648 122.689 89.9821Z" fill="#F7A491"/>
<path d="M119.017 95.8403C119.415 96.5646 119.129 97.2941 118.378 97.4696C117.626 97.645 116.694 97.2001 116.295 96.4757C115.896 95.7513 116.183 95.0218 116.934 94.8463C117.686 94.6709 118.619 95.1159 119.017 95.8403Z" fill="#F7A491"/>
<path d="M52.4092 112.241C52.4092 112.241 50.7519 114.185 47.0587 113.835C43.3655 113.486 43.3654 113.486 43.3654 113.486C43.3654 113.486 37.4647 115.103 36.0758 111.741C36.0758 111.741 32.2015 110.266 32.6918 107.534C32.9431 106.133 34.8559 104.577 34.8559 104.577C34.8559 104.577 36.4 100.254 40.1699 99.4196C40.1699 99.4196 43.1029 97.5721 46.1299 97.9291C47.602 98.1026 47.1316 98.3567 48.3501 98.3529C50.4488 98.346 51.9855 99.0594 52.1476 100.492C52.2893 101.745 53.0563 102.676 54.1991 103.677C57.4218 106.498 57.0854 109.57 52.4092 112.241Z" fill="#031322"/>
<path d="M67.0276 105.825C67.0276 105.825 65.7893 105.429 64.6629 104.03C63.9403 103.132 61.7922 101.981 62.6863 101.795C63.5804 101.609 64.9508 103.127 65.2072 102.692C65.4639 102.258 62.9058 98.9715 63.716 98.803C64.5262 98.6343 66.6471 101.831 66.8767 101.442C67.1062 101.053 64.711 98.2599 65.8563 98.0214C67.0019 97.783 68.2388 101.459 68.8534 101.331C69.468 101.203 68.5729 98.3986 69.4948 98.2067C70.4167 98.0148 70.2869 101.675 70.6182 101.57C70.7969 101.513 71.6154 99.7399 72.116 99.8728C72.6821 100.023 71.1538 103.662 71.8322 104.464C72.5107 105.266 77.5392 115.017 76.0854 116.484C74.6317 117.95 61.1857 120.954 58.4909 120.419C55.7963 119.883 54.2525 118.097 54.9007 116.999C55.5488 115.901 68.2785 113.434 68.482 113.089C68.6855 112.744 67.0276 105.825 67.0276 105.825Z" fill="#F7A491"/>
<path d="M66.4053 103.044C66.7947 103.033 67.1776 103.092 67.5463 103.182C67.6 103.208 68.821 103.447 69.3465 104.352C68.7667 103.889 68.121 103.377 66.4053 103.044Z" fill="#F48C7F"/>
<path d="M37.0567 103.564C37.0567 103.564 38.4239 103.49 40.2185 102.45C41.3698 101.784 43.9876 101.22 43.2506 100.833C42.5135 100.446 40.4281 101.538 40.4188 101.07C40.4094 100.603 44.5424 98.1417 43.8746 97.7909C43.2066 97.4401 39.5299 99.9217 39.5215 99.5036C39.5132 99.0852 43.2327 97.0462 42.2883 96.55C41.3439 96.0541 38.2391 99.1951 37.7324 98.9288C37.2257 98.6627 39.2607 96.7127 38.5006 96.3134C37.7405 95.9143 35.9125 99.0545 35.9074 98.8084C35.9026 98.5623 35.9946 96.7828 35.4561 96.7877C34.8471 96.7931 34.3463 100.559 33.287 101.147C32.2277 101.735 22.3585 109.649 22.9397 111.367C23.5211 113.084 34.4963 119.098 37.2985 119.24C40.1009 119.383 42.4905 118.081 42.4668 116.901C42.4433 115.719 31.8534 110.378 31.846 110.007C31.8388 109.636 37.0567 103.564 37.0567 103.564Z" fill="#F7A491"/>
<path d="M39.1123 101.115C38.7543 101.011 38.3653 100.975 37.9725 100.972C37.9087 100.983 36.6405 100.915 35.6699 101.636C36.4571 101.342 37.3318 101.017 39.1123 101.115Z" fill="#F48C7F"/>
<path d="M32.6596 142.308C29.8419 141.222 30.3879 140.708 29.4256 140.798C28.4633 140.888 20.0654 145.68 20.0654 145.68C20.0654 145.68 20.8489 146.147 21.88 146.051C22.9111 145.954 27.9444 144.637 30.456 144.749C31.1193 144.779 32.6292 145.295 34.5896 146.039C35.3515 145.205 36.1337 144.393 37.2485 143.643C35.1231 143.082 33.4044 142.595 32.6596 142.308Z" fill="#F7A491"/>
<path d="M27.259 151.491C25.9187 151.616 22.7101 151.087 22.7101 151.087C21.2987 153.011 19.5991 158.18 19.5991 158.18C19.5991 158.18 21.0042 158.261 21.6306 157.778C22.2571 157.296 26.4189 154.556 28.6182 154.351C29.191 154.298 31.1614 154.31 33.8183 154.328C33.4058 153.192 33.2131 152.052 33.0681 150.91C30.0649 151.224 27.7024 151.449 27.259 151.491Z" fill="#F7A491"/>
<path d="M25.6612 151.457C25.6612 151.457 23.5868 155.817 23.6315 156.48C23.668 157.02 18.7706 159.766 17.9024 159.326C17.034 158.887 20.2274 151.375 21.2242 150.791C22.2207 150.207 25.6612 151.457 25.6612 151.457Z" fill="#063E70"/>
<path d="M31.5727 141.848C31.5727 141.848 26.4464 144.609 26.0581 145.237C25.6486 145.901 19.3821 147.235 18.9714 146.629C18.5606 146.023 26.5364 140.195 27.9102 139.919C29.2838 139.643 31.5727 141.848 31.5727 141.848Z" fill="#063E70"/>
<path d="M57.2094 134.658L45.2917 133.882L52.2257 147.34C52.2257 147.34 44.2471 144.129 38.3332 142.568C37.2184 143.318 34.5153 145.695 33.7534 146.529C39.2158 148.603 49.0149 151.962 52.9382 152.021C58.2698 152.102 60.6453 151.222 61.1106 148.864C61.5992 146.389 57.2094 134.658 57.2094 134.658Z" fill="#E74A60"/>
<path d="M57.3791 134.98L43.6245 132.961C43.6245 132.961 38.7648 137.129 39.1951 138.497C39.6254 139.866 47.3002 148.126 47.3499 148.863C47.3984 149.581 37.642 149.193 31.5723 149.828C31.7174 150.97 32.1669 153.367 32.5795 154.503C40.1262 154.556 53.2139 154.664 55.5612 153.476C58.7348 151.869 54.3546 140.243 54.3546 140.243L57.3791 134.98Z" fill="#FF6E53"/>
<path d="M62.8837 113.861L66.3227 120.18C66.3227 120.18 59.0246 121.668 57.7504 122.296C56.4763 122.925 58.2831 132.574 57.6157 135.586C57.03 138.229 36.7592 137.12 36.7592 137.12C36.7592 137.12 37.8061 126.595 36.8156 122.517C36.0715 119.454 28.5869 116.522 28.5869 116.522L35.5488 112.018C35.5488 112.018 41.0343 115.027 43.5942 115.774C46.2738 116.555 50.8343 116.451 53.1789 116.109C55.6871 115.743 62.8837 113.861 62.8837 113.861Z" fill="#65CEFE"/>
<path d="M51.2433 112.749C51.2433 112.749 50.4868 116.445 52.0912 117.445C53.7851 118.5 45.9606 118.21 45.4081 116.466C45.1096 115.524 46.1786 111.364 46.1786 111.364L51.2433 112.749Z" fill="#F7A491"/>
<path d="M46.1784 111.364L51.2432 112.749C51.2432 112.749 51.0579 113.655 51.0653 114.691C49.8265 114.813 48.4189 114.634 46.8971 114.036C46.4587 113.863 46.0605 113.674 45.6997 113.469C45.9253 112.349 46.1784 111.364 46.1784 111.364Z" fill="#F48C7F"/>
<path d="M48.1024 103.551C48.1024 103.551 45.7101 103.975 44.3043 105.536C42.8984 107.098 42.1221 111.611 47.1424 113.585C52.163 115.559 55.8158 112.502 55.7208 109.61C55.6258 106.718 53.709 103.021 48.1024 103.551Z" fill="#F7A491"/>
<path d="M52.1564 103.98C52.1564 103.98 51.1725 107.574 44.525 108.444C37.8772 109.313 39.0989 110.648 39.0989 110.648C39.0989 110.648 37.7811 108.244 41.2594 106.479C44.7376 104.713 45.8706 104.182 47.1797 103.517C48.4887 102.853 52.1564 103.98 52.1564 103.98Z" fill="#031322"/>
<path d="M44.446 109.556C44.8429 110.299 44.5579 111.046 43.8095 111.226C43.061 111.406 42.1328 110.95 41.7361 110.207C41.3393 109.465 41.6244 108.717 42.3726 108.537C43.1208 108.357 44.0492 108.814 44.446 109.556Z" fill="#F7A491"/>
<path d="M291.877 103.559C292.4 102.196 294.936 100.207 294.563 99.9502C294.233 99.7231 292.628 100.946 292.455 100.948C292.133 100.953 294.196 98.053 293.355 97.9846C292.514 97.9161 291.73 100.378 291.169 100.333C290.608 100.287 291.586 97.0448 290.541 96.9599C289.495 96.8748 289.919 99.6886 289.527 99.9448C289.134 100.201 289.147 97.1304 288.408 97.0702C287.669 97.0101 287.958 100.258 287.52 100.544C287.082 100.831 286.797 99.2851 285.982 99.2187C285.166 99.1524 286.27 100.592 286.368 101.484C286.521 102.877 287.301 103.492 287.301 103.492C287.301 103.492 287.14 103.894 286.896 104.493L290.912 105.198C291.255 104.351 291.776 103.824 291.877 103.559Z" fill="#F7A491"/>
<path d="M288.291 101.115C288.609 101.199 288.884 101.339 289.131 101.5C289.16 101.533 290.01 102.019 289.947 102.87C289.73 102.36 289.487 101.795 288.291 101.115Z" fill="#F48C7F"/>
<path d="M244.2 100.817C243.822 99.4319 241.503 97.3275 241.902 97.0891C242.256 96.8783 243.727 98.1744 243.9 98.1851C244.22 98.2051 242.468 95.2142 243.314 95.186C244.161 95.1577 244.683 97.6507 245.247 97.6319C245.812 97.6132 245.179 94.3327 246.23 94.2977C247.282 94.2626 246.562 97.0491 246.926 97.3232C247.29 97.5974 247.602 94.5339 248.346 94.5091C249.09 94.4843 248.458 97.7101 248.864 98.0166C249.271 98.323 249.719 96.7948 250.539 96.7675C251.36 96.7401 250.106 98.1231 249.914 99.0091C249.615 100.39 248.772 100.967 248.772 100.967C248.772 100.967 248.89 101.376 249.07 101.985L244.989 102.497C244.737 101.636 244.273 101.085 244.2 100.817Z" fill="#F7A491"/>
<path d="M248.035 98.5493C247.709 98.6187 247.42 98.7445 247.156 98.8939C247.124 98.9258 246.225 99.37 246.198 100.222C246.468 99.7234 246.77 99.1709 248.035 98.5493Z" fill="#F48C7F"/>
<path d="M233.636 147.302C234.133 150.242 250.17 157.749 250.669 158.083C251.168 158.418 251.074 163.807 251.951 163.807C252.828 163.807 256.861 157.28 256.16 156.809C255.458 156.339 254.084 156.562 253.251 156.004C252.418 155.445 246.43 148.466 241.245 147.511C240.936 147.454 242.463 147.243 242.463 147.243C240.397 145.888 238.716 144.962 236.121 144.066C234.447 145.393 233.533 146.687 233.636 147.302Z" fill="#F7A491"/>
<path d="M289.478 140.5C288.835 140.5 288.061 142.641 288.061 142.641C288.061 142.641 276.106 145.285 273.742 146.87C273.611 146.958 272.804 146.248 272.624 146.121C270.252 147.596 269.48 149.474 268.525 151.531C269.431 151.98 270.427 152.488 271.169 152.575C276.183 153.163 290.471 144.93 290.997 144.93C291.523 144.93 298.655 146.302 298.655 145.126C298.655 143.949 290.12 140.5 289.478 140.5Z" fill="#F7A491"/>
<path d="M288.194 142.303C288.307 142.379 294.036 144.821 294.445 145.403C294.854 145.985 299.241 146.035 299.501 145.662C299.654 145.441 299.745 145.155 297.616 143.726C295.866 142.552 291.338 140.822 289.779 140.243C289.491 140.136 289.127 140.22 289 140.424C288.623 141.026 287.966 142.149 288.194 142.303Z" fill="#063E70"/>
<path d="M253.777 156.307C253.696 156.4 251.708 160.372 251.15 160.895C250.846 161.181 251.172 164.418 251.776 164.492C252.133 164.536 252.569 164.524 254.094 162.781C255.348 161.35 256.704 157.975 257.148 156.818C257.23 156.603 257.017 156.389 256.69 156.357C255.727 156.265 253.941 156.12 253.777 156.307Z" fill="#063E70"/>
<path d="M273.855 146.349C271.17 144.437 267.889 133.82 267.889 133.82L250.525 133.415C250.525 133.415 239.993 139.874 234.706 144.066C236.81 145.28 239.879 146.552 242.576 147.529L256.335 141.636C256.335 141.636 263.117 149.561 268.328 152.148C269.775 150.252 271.483 147.824 273.855 146.349Z" fill="#93DDA9"/>
<path d="M263.605 104.889C263.605 104.889 266.257 104.134 269.371 104.819C272.484 105.505 276.3 109.739 281.154 110.108C286.007 110.477 291.044 110.318 292.418 112.902C293.791 115.485 288.663 116.539 288.663 117.488C288.663 118.437 289.854 118.964 289.304 120.862C288.755 122.76 287.564 123.234 284.633 123.234C281.703 123.234 280.014 124.236 279.21 125.396C278.406 126.555 276.758 127.135 273.736 126.186C270.714 125.237 270.602 124.957 266.481 125.642C262.36 126.326 255.798 122.131 253.874 117.861C251.951 113.591 254.962 111.9 255.42 110.055C255.878 108.21 256.278 103.36 263.605 104.889Z" fill="#031322"/>
<path d="M260.287 116.38C260.287 116.38 257.328 115.627 252.764 111.35C251.666 110.32 249.166 101.351 249.166 101.351L244.248 101.707C244.248 101.707 244.599 111.599 246.339 113.619C248.079 115.639 256.163 122.154 256.163 122.154L260.287 116.38Z" fill="#E6A748"/>
<path d="M291.319 105.146C291.319 105.146 287.761 113.558 286.967 114.234C286.246 114.848 271.08 122.467 271.08 123.512C271.08 124.556 270.417 136.623 269.913 136.96C269.41 137.298 265.477 136.592 259.799 135.486C254.121 134.381 249.284 134.445 248.552 134.445C247.819 134.445 253.326 125.301 260.287 116.38C260.289 116.377 265.136 116.893 266.876 116.893C268.616 116.893 279.872 111.802 280.712 111.238C281.553 110.674 286.406 103.905 286.891 103.905C287.99 103.905 291.319 105.146 291.319 105.146Z" fill="#EDC757"/>
<path d="M261.156 114.294C261.156 114.294 261.997 117.518 260.638 118.43C259.203 119.392 266.052 118.969 266.453 117.427C266.67 116.594 265.532 112.969 265.532 112.969L261.156 114.294Z" fill="#F7A491"/>
<path d="M265.532 112.969L261.156 114.294C261.156 114.294 261.362 115.084 261.406 115.993C262.498 116.073 263.724 115.886 265.03 115.328C265.406 115.167 265.746 114.992 266.053 114.805C265.801 113.828 265.532 112.969 265.532 112.969Z" fill="#F48C7F"/>
<path d="M263.469 106.156C263.469 106.156 265.588 106.476 266.896 107.815C268.204 109.154 269.102 113.096 264.793 114.936C260.485 116.776 257.134 114.173 257.078 111.635C257.022 109.096 258.526 105.812 263.469 106.156Z" fill="#F7A491"/>
<path d="M266.964 111.345C266.652 112.005 266.938 112.654 267.603 112.796C268.268 112.938 269.06 112.518 269.373 111.858C269.685 111.198 269.399 110.548 268.734 110.406C268.069 110.265 267.277 110.685 266.964 111.345Z" fill="#F7A491"/>
<path d="M205.728 148.809C205.076 148.437 204.983 149.022 201.725 149.022C198.466 149.022 184.873 147.003 184.873 147.003L191.51 143.283C191.01 142.867 190.453 142.484 189.751 142.183C187.318 141.119 184.743 140.296 181.904 139.856C178.141 141.986 174.325 144.293 173.235 145.462C171.208 147.635 170.834 148.767 175.023 150.361C179.213 151.955 198.932 150.988 200.98 151.678C203.028 152.369 205.589 154.999 206.287 155.398C206.985 155.796 208.056 155.663 208.056 155.663C208.056 155.663 206.38 149.181 205.728 148.809Z" fill="#F48C7F"/>
<path d="M219.798 106.74C219.798 106.74 220.332 108.01 217.753 108.457C215.175 108.904 213.574 104.24 212.107 103.318C210.64 102.397 206.195 102.145 203.883 103.986C202.612 104.997 202.215 105.438 202.114 105.629C202.032 105.786 202.149 105.776 202.149 105.776L202.846 106.446C202.846 106.446 205.083 105.748 205.928 107.023C206.773 108.298 204.283 110.384 206.417 112.116C208.551 113.847 212.463 112.623 212.463 112.623C215.708 113.744 219.442 112.032 220.643 110.412C221.843 108.792 219.798 106.74 219.798 106.74Z" fill="#E74A60"/>
<path d="M191.51 143.283L200.421 138.289L190.459 135.208C190.459 135.208 185.1 137.416 180.788 139.856C183.627 140.297 191.01 142.868 191.51 143.283Z" fill="#063E70"/>
<path d="M192.172 143.99C189.85 142.802 187.459 141.419 184.408 140.986C179.368 143.699 173.112 147.365 173.311 148.761C173.644 151.087 190.428 158.823 191.72 159.772C193.012 160.722 192.709 164.234 192.581 164.814C192.453 165.394 193.527 165.846 193.527 165.846C193.527 165.846 198.388 161.455 199.654 159.537C199.654 159.537 196.799 158.757 196.012 158.179C195.224 157.6 184.195 149.434 184.427 148.379C184.552 147.806 189.475 146.803 194.256 145.87C193.802 145.172 193.197 144.521 192.172 143.99Z" fill="#F7A491"/>
<path d="M192.991 134.803L190.595 137.792C190.595 137.792 187.739 139.177 184.374 140.987C187.426 141.419 193.802 146.109 194.256 146.807C198.284 146.021 202.211 144.349 203.081 143.963C204.981 143.121 205.151 136.896 205.151 136.896L192.991 134.803Z" fill="#064C91"/>
<path d="M196.417 158.415C196.417 158.512 193.668 162.435 192.852 162.784C192.036 163.133 192.258 166.008 192.892 166.094C193.267 166.145 194.371 165.885 196.131 164.36C197.576 163.108 199.109 160.474 199.844 159.479C200.34 158.806 196.417 158.361 196.417 158.415Z" fill="#063E70"/>
<path d="M202.403 148.993C202.505 149.071 203.905 153.142 204.159 153.707C204.416 154.277 207.083 156.486 207.68 156.338C208.033 156.25 208.641 155.663 208.44 153.841C208.275 152.344 206.724 149.714 206.262 148.667C205.949 147.959 202.346 148.95 202.403 148.993Z" fill="#063E70"/>
<path d="M221.178 116.854C221.178 116.854 220.551 116.255 220.648 115.018C220.709 114.225 219.92 112.877 220.675 112.995C221.43 113.113 221.431 114.495 221.892 114.275C222.353 114.055 222.641 111.175 223.325 111.282C224.009 111.39 223.468 114.092 223.881 113.895C224.293 113.699 224.381 111.19 225.348 111.342C226.316 111.494 224.838 114.276 225.357 114.357C225.876 114.439 226.739 112.667 227.517 112.79C228.296 112.912 226.166 115.167 226.408 115.052C226.651 114.936 228.341 114.047 228.612 114.271C228.918 114.524 225.498 116.532 225.466 117.25C225.435 117.968 222.759 125.821 220.785 126.403C218.811 126.986 207.325 125.341 205.752 124.254C204.179 123.168 202.716 120.242 203.881 119.687C205.046 119.131 217.19 122.257 217.555 122.083C217.921 121.909 221.178 116.854 221.178 116.854Z" fill="#F7A491"/>
<path d="M183.446 111.56C182.646 110.3 183.426 102.853 183.426 102.853C183.426 102.853 184.225 102.304 184.783 101.058C185.14 100.259 186.634 99.0891 185.824 99.0483C185.013 99.0075 184.283 100.376 183.942 100.062C183.601 99.7474 184.837 96.8332 184.102 96.7962C183.368 96.7592 182.477 99.5499 182.172 99.2686C181.868 98.9873 183.105 96.4841 182.067 96.4318C181.029 96.3794 181.023 99.4454 180.466 99.4173C179.909 99.3892 179.872 97.0557 179.036 97.0138C178.2 96.9716 179.349 99.8616 179.038 99.8174C178.87 99.7935 177.674 98.4842 177.287 98.6494C176.85 98.8365 178.198 100.626 178.83 102.26C178.918 102.486 179.091 102.614 179.194 103.32C178.788 105.718 177.504 111.898 178.218 113.498C179.092 115.459 186.375 122.673 186.375 122.673L190.124 117.699C190.124 117.699 184.387 113.041 183.446 111.56Z" fill="#F7A491"/>
<path d="M183.026 100.484C182.693 100.522 182.385 100.614 182.099 100.73C182.06 100.757 181.094 101.093 180.905 101.874C181.265 101.437 181.667 100.954 183.026 100.484Z" fill="#F48C7F"/>
<path d="M185.098 113.238C185.098 113.238 184.185 113.411 179.934 117.174L187.917 124.201L190.917 117.67L185.098 113.238Z" fill="#4054E7"/>
<path d="M196.589 117.763C196.589 117.763 191.646 117.502 190.289 117.192C188.931 116.883 184.827 134.341 185.425 135.957C186.286 138.281 207.718 138.973 207.718 138.973C207.718 138.973 208.687 139.25 207.102 136.096C205.517 132.943 204.441 126.193 204.441 124.921C204.441 124.673 210.795 126.294 210.795 126.294L213.379 120.992C213.379 120.992 205.508 118.443 202.75 118.086C201.981 117.986 196.589 117.763 196.589 117.763Z" fill="#6577FF"/>
<path d="M196.155 113.195L196.425 115.07L198.925 117.953C198.925 117.953 193.996 121.954 192.474 120.998C192.134 120.785 191.276 116.549 191.276 116.549L196.155 113.195Z" fill="#F7A491"/>
<path d="M196.425 115.07L196.947 115.71C195.41 116.635 193.439 117.467 191.576 117.946C191.402 117.169 191.276 116.549 191.276 116.549L196.155 113.195L196.425 115.07Z" fill="#F48C7F"/>
<path d="M191.079 107.039C191.079 107.039 189.776 107.831 189.297 108.279C186.447 110.942 188.755 116.194 190.243 116.631C192.496 117.292 195.428 116.403 198.732 114.9C202.036 113.398 203.08 110.963 200.055 108.847C197.03 106.731 191.079 107.039 191.079 107.039Z" fill="#F7A491"/>
<path d="M202.042 106.57L201.142 105.992C197.612 105.992 194.798 104.565 190.837 106C188.223 106.947 189.297 108.279 189.297 108.279C198.979 108.279 195.486 113.397 196.672 115.433C197.859 117.47 205.261 113.066 202.042 106.57Z" fill="#E74A60"/>
<path d="M195.27 112.333C195.27 112.333 195.406 110.653 196.942 110.986C198.477 111.319 197.281 113.849 196.006 113.761C194.731 113.672 195.27 112.333 195.27 112.333Z" fill="#F7A491"/>
<path d="M202.295 105.303C202.295 105.303 200.837 105.91 200.248 105.859C199.66 105.809 201.149 107.088 201.938 107.221C202.727 107.354 202.449 106.844 202.616 106.669C202.782 106.495 203.538 106.502 203.538 106.502C203.538 106.502 202.984 105.359 202.295 105.303Z" fill="#EDC757"/>
<path d="M138.07 12.3697L138.898 10.4278L136.577 9.07883L137.734 6.94613L134.602 6.02071L135.752 3.56998L133.024 2.47916L133.556 0L134.955 0.135038L134.558 1.98876L137.436 3.13967L136.33 5.49524L139.515 6.43631L138.238 8.78997L140.504 10.1071L139.738 11.907L141.496 12.5633L140.808 13.3917L138.07 12.3697Z" fill="#6577FF"/>
<path d="M226.425 30.6438C225.958 28.5126 222.082 27.4774 219.293 28.1382C216.211 28.8687 214.264 31.0961 214.667 33.2531C215.102 35.5879 217.856 37.0047 221.031 36.5873C224.122 36.1812 225.305 34.0135 223.674 32.3551C222.504 31.1661 220.524 31.0119 219.778 31.5399C219.197 31.9516 219.534 32.6519 220.431 32.6188C220.791 32.6055 221.087 32.4135 221.194 32.2055C222.016 32.2639 223.096 33.0356 223.024 34.1003C222.932 35.4602 220.614 35.9711 218.914 35.6631C216.75 35.2711 215.795 33.7332 215.948 32.3369C216.108 30.8706 217.623 29.4559 219.704 28.9571C222.063 28.3923 224.695 29.2329 225.556 30.8045C225.76 31.1755 226.509 31.0253 226.425 30.6438Z" fill="#C9EDF9"/>
<path d="M266.332 82.7563C266.03 84.936 268.832 86.9283 271.941 87.292C275.16 87.6687 278.029 86.2657 279.136 84.2822C281.321 80.3692 274.919 77.2829 271.447 79.6505C268.206 81.8606 269.231 85.1446 272.73 85.1456C274.05 85.1461 276.174 84.4058 275.331 83.3357C275.142 83.096 274.611 83.1132 274.415 83.3357C273.991 83.8194 274.025 83.8366 273.824 83.9447C273.509 84.1141 273.071 84.1705 272.678 84.1661C269.115 84.1254 271.484 78.6737 275.683 79.9943C277.989 80.7194 278.669 82.4733 277.869 84.0039C277.099 85.4778 275.032 86.6197 272.641 86.5172C269.785 86.3947 267.39 84.6384 267.205 82.7563C267.168 82.3768 266.384 82.3829 266.332 82.7563Z" fill="#C9EDF9"/>
<path d="M224.676 174.264C224.766 174.105 224.937 173.529 225.969 173.457C226.863 173.394 227.544 173.772 227.932 173.92C227.699 173.727 227.257 173.406 227.094 172.95C226.659 171.735 229.046 171.203 229.829 172.225C230.137 172.626 230.088 172.936 230.088 173.457C230.157 173.329 230.339 172.915 230.78 172.582C232.068 171.609 233.992 172.596 233.323 173.581C232.978 174.091 232.193 174.316 231.736 174.481C232.211 174.434 232.479 174.386 233.013 174.424C235.776 174.623 234.536 177.538 231.282 175.947C231.278 175.945 231.27 175.948 231.264 175.948C231.571 176.215 231.999 176.528 232.126 176.99C232.471 178.241 229.783 178.739 229.205 177.374C229.025 176.947 229.135 176.412 229.136 176.373C228.985 176.645 228.79 177.08 228.26 177.405C226.894 178.241 224.978 177.091 226.05 176.093C226.53 175.646 227.246 175.496 227.458 175.392C226.82 175.469 226.206 175.523 225.588 175.353C224.752 175.122 224.734 174.673 224.676 174.627C224.676 174.506 224.676 174.385 224.676 174.264ZM229.409 175.569C229.953 175.581 230.366 175.261 230.389 174.956C230.423 174.535 229.945 174.242 229.411 174.242C228.854 174.243 228.427 174.506 228.41 174.902C228.394 175.27 228.864 175.582 229.409 175.569Z" fill="#EEFBFF"/>
<path d="M244.684 176.202C244.894 176.406 245.123 176.593 245.114 176.873C245.105 177.161 244.788 177.366 244.408 177.408C243.909 177.464 243.531 177.221 243.436 176.928C243.378 176.75 243.393 176.54 243.393 176.483C243.188 176.729 242.938 177.191 242.248 177.134C241.903 177.105 241.65 176.974 241.543 176.748C241.424 176.496 241.558 176.258 241.889 176.079C242.037 175.999 242.204 175.935 242.364 175.863C242.288 175.867 242.208 175.867 242.13 175.875C241.807 175.907 241.503 175.876 241.23 175.751C240.472 175.406 241.045 174.388 242.42 174.879C242.501 174.908 242.577 174.941 242.639 174.965C242.416 174.707 242.024 174.384 242.348 174.027C242.491 173.868 242.701 173.782 242.978 173.762C243.26 173.741 243.493 173.799 243.681 173.938C243.969 174.153 243.939 174.391 243.963 174.686C244.141 174.451 244.256 174.218 244.684 174.083C245.037 173.972 245.457 174.067 245.677 174.259C245.919 174.47 245.88 174.755 245.653 174.957C245.462 175.126 245.215 175.21 244.952 175.309C245.07 175.303 245.163 175.303 245.253 175.293C245.503 175.269 245.741 175.295 245.968 175.362C246.185 175.426 246.336 175.533 246.41 175.687C246.693 176.462 245.42 176.52 244.684 176.202ZM243.012 175.569C243.012 175.773 243.263 175.941 243.566 175.941C243.852 175.94 244.113 175.766 244.114 175.575C244.116 175.375 243.864 175.202 243.572 175.202C243.259 175.201 243.012 175.363 243.012 175.569Z" fill="#EEFBFF"/>
<path d="M261.259 175.037C261.186 174.884 261.035 174.777 260.818 174.713C260.59 174.645 260.352 174.619 260.103 174.644C260.012 174.653 259.92 174.654 259.802 174.659C260.064 174.56 260.312 174.477 260.503 174.307C260.729 174.106 260.768 173.821 260.526 173.61C260.306 173.418 259.886 173.323 259.534 173.434C259.106 173.568 258.991 173.802 258.813 174.037C258.788 173.741 258.818 173.503 258.53 173.289C258.343 173.149 258.109 173.092 257.828 173.113C257.55 173.133 257.341 173.218 257.197 173.377C256.874 173.735 257.266 174.057 257.489 174.316C257.427 174.292 257.35 174.258 257.27 174.23C255.895 173.738 255.322 174.757 256.079 175.102C256.352 175.226 256.656 175.258 256.979 175.226C257.058 175.218 257.138 175.217 257.213 175.214C257.054 175.285 256.886 175.349 256.738 175.43C256.408 175.608 256.273 175.847 256.393 176.099C256.499 176.324 256.753 176.456 257.098 176.484C257.788 176.542 258.038 176.079 258.242 175.834C258.242 175.891 258.227 176.1 258.285 176.278C258.381 176.571 258.758 176.814 259.258 176.759C259.638 176.717 259.954 176.512 259.964 176.224C259.973 175.943 259.744 175.757 259.534 175.552C260.27 175.87 261.542 175.813 261.259 175.037ZM258.416 175.291C258.113 175.292 257.861 175.123 257.861 174.919C257.862 174.714 258.108 174.552 258.421 174.552C258.714 174.552 258.965 174.725 258.964 174.925C258.963 175.117 258.702 175.291 258.416 175.291Z" fill="#EEFBFF"/>
<path d="M281.901 174.409C281.827 174.255 281.676 174.148 281.46 174.084C281.231 174.017 280.993 173.991 280.744 174.016C280.653 174.025 280.561 174.025 280.443 174.031C280.706 173.932 280.954 173.848 281.144 173.679C281.37 173.477 281.41 173.193 281.168 172.981C280.947 172.789 280.528 172.694 280.175 172.805C279.747 172.94 279.632 173.173 279.454 173.408C279.43 173.113 279.46 172.875 279.172 172.66C278.984 172.521 278.751 172.463 278.469 172.484C278.192 172.504 277.982 172.59 277.838 172.749C277.515 173.107 277.907 173.429 278.13 173.688C278.069 173.663 277.992 173.63 277.911 173.601C276.536 173.11 275.963 174.128 276.721 174.474C276.994 174.598 277.298 174.629 277.621 174.597C277.699 174.59 277.779 174.589 277.855 174.585C277.695 174.657 277.528 174.721 277.38 174.801C277.049 174.98 276.915 175.218 277.034 175.47C277.141 175.696 277.394 175.827 277.739 175.856C278.43 175.913 278.679 175.451 278.884 175.205C278.884 175.263 278.869 175.472 278.927 175.65C279.022 175.943 279.4 176.186 279.899 176.131C280.279 176.088 280.596 175.883 280.606 175.595C280.615 175.315 280.385 175.128 280.175 174.924C280.911 175.242 282.184 175.184 281.901 174.409ZM279.057 174.663C278.754 174.663 278.503 174.495 278.503 174.291C278.503 174.086 278.75 173.923 279.063 173.924C279.355 173.924 279.607 174.097 279.605 174.297C279.604 174.488 279.343 174.663 279.057 174.663Z" fill="#EEFBFF"/>
<path d="M249.418 172.542C248.919 172.585 248.414 172.639 247.936 172.459C247.579 172.325 247.387 172.122 247.373 171.843C247.35 171.383 247.848 171.082 248.391 171.063C249.117 171.039 249.635 171.346 249.783 171.398C249.46 171.078 249.156 170.845 249.161 170.473C249.166 170.096 249.525 169.821 250.059 169.746C250.431 169.694 250.765 169.757 251.04 169.929C251.491 170.209 251.438 170.573 251.462 170.985C251.464 171.015 251.448 171.045 251.43 171.069C251.748 170.641 251.92 170.27 252.583 170.138C252.938 170.067 253.269 170.113 253.56 170.26C253.872 170.417 254.025 170.633 254.007 170.895C253.978 171.329 253.347 171.657 252.75 171.821C252.738 171.824 252.729 171.831 252.719 171.823C253.004 171.812 253.289 171.787 253.573 171.791C254.231 171.801 254.797 172.08 254.813 172.512C254.819 172.668 254.788 172.815 254.667 172.948C254.472 173.163 254.189 173.289 253.811 173.307C253.296 173.331 252.863 173.188 252.456 172.998C252.445 172.993 252.435 172.989 252.409 172.993C252.684 173.236 252.963 173.451 253.022 173.825C253.144 174.599 251.562 174.969 250.958 174.281C250.683 173.967 250.722 173.702 250.722 173.322C250.515 173.679 250.302 174.02 249.775 174.189C248.758 174.513 247.659 173.725 248.442 173.029C248.709 172.791 249.053 172.678 249.421 172.553C249.42 172.549 249.419 172.546 249.418 172.542ZM250.948 171.667C250.548 171.652 250.187 171.902 250.198 172.177C250.207 172.426 250.544 172.678 250.983 172.664C251.322 172.653 251.712 172.442 251.686 172.138C251.665 171.879 251.338 171.661 250.948 171.667Z" fill="#EEFBFF"/>
<path d="M93.3645 172.798C93.3063 172.844 93.2878 173.292 92.4521 173.523C91.8344 173.694 91.2198 173.64 90.582 173.563C90.7938 173.667 91.5097 173.817 91.9896 174.263C93.0618 175.262 91.1458 176.412 89.7803 175.576C89.2499 175.251 89.0552 174.815 88.9041 174.544C88.9056 174.583 89.0155 175.118 88.8348 175.545C88.2568 176.91 85.5694 176.412 85.9142 175.161C86.0414 174.699 86.4692 174.386 86.7769 174.119C86.771 174.119 86.7623 174.116 86.7584 174.118C83.5041 175.709 82.2641 172.794 85.0279 172.595C85.5615 172.557 85.8291 172.605 86.3042 172.652C85.8474 172.487 85.0629 172.261 84.7174 171.752C84.0489 170.766 85.973 169.78 87.2608 170.752C87.7024 171.086 87.884 171.499 87.9524 171.628C87.9524 171.107 87.9034 170.797 88.211 170.396C88.995 169.374 91.3811 169.906 90.9466 171.121C90.7832 171.577 90.3419 171.898 90.1082 172.09C90.4969 171.942 91.1774 171.565 92.0711 171.628C93.1035 171.7 93.2741 172.276 93.3645 172.435C93.3645 172.556 93.3645 172.677 93.3645 172.798ZM89.6308 173.073C89.6139 172.676 89.1859 172.414 88.629 172.413C88.0952 172.412 87.6178 172.706 87.651 173.127C87.6749 173.432 88.0875 173.752 88.6317 173.739C89.177 173.753 89.6465 173.441 89.6308 173.073Z" fill="#EEFBFF"/>
<path d="M152.366 174.628C152.307 174.674 152.289 175.122 151.453 175.353C150.836 175.524 150.221 175.469 149.583 175.393C149.795 175.496 150.511 175.646 150.991 176.093C152.063 177.092 150.147 178.242 148.781 177.405C148.251 177.08 148.056 176.645 147.905 176.374C147.907 176.413 148.017 176.948 147.836 177.375C147.258 178.74 144.571 178.242 144.915 176.99C145.042 176.528 145.47 176.215 145.778 175.949C145.772 175.948 145.763 175.946 145.759 175.948C142.505 177.538 141.265 174.624 144.029 174.425C144.563 174.386 144.83 174.435 145.305 174.481C144.849 174.316 144.064 174.091 143.718 173.582C143.05 172.596 144.974 171.61 146.262 172.582C146.703 172.915 146.885 173.329 146.954 173.457C146.954 172.937 146.905 172.627 147.212 172.225C147.996 171.203 150.382 171.736 149.948 172.95C149.785 173.406 149.343 173.728 149.109 173.92C149.498 173.772 150.179 173.395 151.072 173.457C152.105 173.53 152.275 174.106 152.366 174.265C152.366 174.386 152.366 174.507 152.366 174.628ZM148.632 174.902C148.615 174.506 148.187 174.243 147.63 174.243C147.096 174.242 146.619 174.535 146.652 174.957C146.676 175.261 147.089 175.581 147.633 175.569C148.178 175.582 148.648 175.27 148.632 174.902Z" fill="#EEFBFF"/>
<path d="M124.52 176.052C124.462 176.098 124.443 176.546 123.607 176.777C122.99 176.948 122.375 176.893 121.737 176.817C121.949 176.92 122.665 177.07 123.145 177.517C124.217 178.515 122.301 179.666 120.936 178.829C120.405 178.504 120.211 178.069 120.06 177.797C120.061 177.836 120.171 178.372 119.99 178.798C119.412 180.163 116.725 179.665 117.069 178.414C117.197 177.952 117.625 177.639 117.932 177.372C117.926 177.372 117.918 177.37 117.914 177.372C114.659 178.962 113.419 176.048 116.183 175.849C116.717 175.81 116.985 175.859 117.46 175.905C117.003 175.74 116.218 175.515 115.873 175.005C115.204 174.02 117.128 173.034 118.416 174.006C118.858 174.339 119.039 174.753 119.108 174.881C119.108 174.361 119.059 174.051 119.366 173.649C120.15 172.627 122.536 173.159 122.102 174.374C121.939 174.83 121.497 175.152 121.263 175.344C121.652 175.196 122.333 174.819 123.226 174.881C124.259 174.954 124.429 175.529 124.52 175.689C124.52 175.81 124.52 175.93 124.52 176.052ZM120.786 176.326C120.769 175.93 120.341 175.667 119.784 175.666C119.25 175.666 118.773 175.959 118.806 176.381C118.83 176.685 119.243 177.005 119.787 176.993C120.332 177.006 120.802 176.694 120.786 176.326Z" fill="#EEFBFF"/>
<path d="M125.581 171.906C125.655 171.752 125.806 171.646 126.023 171.581C126.251 171.514 126.489 171.488 126.738 171.513C126.829 171.522 126.921 171.522 127.039 171.528C126.776 171.429 126.529 171.345 126.338 171.176C126.112 170.974 126.072 170.69 126.314 170.478C126.535 170.286 126.954 170.192 127.307 170.303C127.735 170.437 127.85 170.671 128.028 170.905C128.053 170.61 128.023 170.372 128.31 170.157C128.498 170.018 128.731 169.961 129.013 169.981C129.29 170.001 129.5 170.087 129.644 170.246C129.967 170.604 129.575 170.926 129.352 171.185C129.414 171.16 129.491 171.127 129.571 171.098C130.946 170.607 131.519 171.625 130.761 171.971C130.489 172.095 130.185 172.126 129.862 172.094C129.783 172.087 129.703 172.086 129.627 172.082C129.787 172.154 129.954 172.218 130.103 172.298C130.433 172.477 130.567 172.715 130.448 172.967C130.341 173.193 130.088 173.324 129.743 173.353C129.053 173.411 128.803 172.948 128.599 172.702C128.599 172.76 128.614 172.969 128.555 173.147C128.46 173.44 128.082 173.683 127.583 173.628C127.203 173.586 126.886 173.38 126.877 173.092C126.868 172.812 127.097 172.625 127.307 172.421C126.571 172.739 125.298 172.681 125.581 171.906ZM128.419 171.421C128.127 171.421 127.875 171.594 127.877 171.794C127.878 171.986 128.139 172.16 128.425 172.16C128.728 172.161 128.979 171.992 128.979 171.788C128.979 171.582 128.732 171.421 128.419 171.421Z" fill="#EEFBFF"/>
<path d="M57.8158 171.906C57.8891 171.752 58.04 171.646 58.2569 171.581C58.485 171.514 58.7232 171.488 58.9725 171.513C59.0628 171.522 59.1553 171.522 59.2733 171.528C59.0105 171.429 58.7627 171.345 58.5725 171.176C58.3458 170.974 58.3065 170.69 58.5488 170.478C58.769 170.286 59.1887 170.192 59.5415 170.303C59.9693 170.437 60.0844 170.671 60.2622 170.905C60.2866 170.61 60.2566 170.372 60.5447 170.157C60.7322 170.018 60.9656 169.961 61.2475 169.981C61.5249 170.001 61.7344 170.087 61.8781 170.246C62.2014 170.604 61.8099 170.926 61.5866 171.185C61.6481 171.16 61.7249 171.127 61.805 171.098C63.1801 170.607 63.753 171.625 62.9956 171.971C62.7226 172.095 62.4187 172.126 62.0958 172.094C62.0175 172.087 61.9374 172.086 61.8616 172.082C62.0211 172.154 62.1887 172.218 62.3368 172.298C62.667 172.477 62.8017 172.715 62.6824 172.967C62.5755 173.193 62.3225 173.324 61.9771 173.353C61.287 173.411 61.037 172.948 60.8327 172.702C60.8327 172.76 60.8476 172.969 60.7894 173.147C60.6942 173.44 60.3165 173.683 59.8172 173.628C59.4371 173.586 59.1203 173.38 59.1108 173.092C59.1016 172.812 59.3311 172.625 59.5411 172.421C58.8053 172.739 57.5326 172.681 57.8158 171.906ZM60.6538 171.421C60.361 171.421 60.1094 171.594 60.111 171.794C60.1126 171.986 60.3732 172.16 60.6592 172.16C60.9625 172.161 61.2136 171.992 61.2134 171.788C61.2134 171.582 60.9666 171.421 60.6538 171.421Z" fill="#EEFBFF"/>
<path d="M35.4027 173.057C35.476 172.904 35.6269 172.797 35.8437 172.733C36.0718 172.665 36.3099 172.639 36.5594 172.664C36.6499 172.673 36.7422 172.674 36.8604 172.68C36.5975 172.58 36.3498 172.497 36.1594 172.327C35.9329 172.126 35.8934 171.841 36.1355 171.63C36.3557 171.438 36.7755 171.343 37.1282 171.454C37.556 171.588 37.6711 171.822 37.849 172.057C37.8736 171.761 37.8434 171.523 38.1315 171.309C38.3188 171.169 38.5523 171.112 38.8341 171.132C39.1114 171.153 39.321 171.238 39.4647 171.397C39.7878 171.755 39.3963 172.077 39.1732 172.336C39.2346 172.312 39.3115 172.278 39.3916 172.25C40.7667 171.758 41.3396 172.777 40.5824 173.122C40.3094 173.247 40.0055 173.278 39.6826 173.246C39.6041 173.238 39.5241 173.238 39.4483 173.234C39.6078 173.306 39.7754 173.37 39.9234 173.45C40.2537 173.629 40.3882 173.867 40.2691 174.119C40.1623 174.344 39.9092 174.476 39.5638 174.504C38.8736 174.562 38.6238 174.099 38.4194 173.854C38.4194 173.911 38.4341 174.12 38.3763 174.299C38.2811 174.591 37.9034 174.834 37.4041 174.779C37.024 174.737 36.7072 174.532 36.6979 174.243C36.6885 173.963 36.9181 173.777 37.128 173.572C36.392 173.89 35.1195 173.833 35.4027 173.057ZM38.2405 172.572C37.9479 172.572 37.6961 172.745 37.6977 172.945C37.6992 173.137 37.96 173.311 38.2459 173.311C38.5492 173.312 38.8003 173.143 38.8003 172.939C38.8001 172.734 38.5534 172.572 38.2405 172.572Z" fill="#EEFBFF"/>
<path d="M77.2912 172.174C77.6592 172.299 78.0031 172.412 78.27 172.65C79.0538 173.347 77.955 174.134 76.9375 173.81C76.4104 173.641 76.1976 173.3 75.9907 172.943C75.9907 173.323 76.0293 173.588 75.7543 173.902C75.1501 174.59 73.5683 174.221 73.6906 173.446C73.7499 173.072 74.0286 172.857 74.3036 172.614C74.2779 172.61 74.267 172.614 74.2569 172.619C73.8492 172.809 73.4171 172.953 72.9018 172.928C72.5243 172.91 72.2412 172.784 72.0458 172.569C71.9244 172.436 71.8938 172.289 71.8996 172.134C71.9157 171.7 72.4819 171.422 73.1394 171.412C73.4237 171.408 73.7091 171.433 73.9941 171.444C73.9837 171.452 73.9742 171.445 73.9627 171.442C73.3661 171.279 72.7351 170.951 72.7058 170.516C72.6881 170.254 72.8413 170.037 73.1529 169.881C73.4444 169.734 73.7747 169.688 74.1305 169.759C74.7934 169.891 74.9647 170.262 75.2835 170.69C75.265 170.666 75.2492 170.636 75.251 170.606C75.2749 170.195 75.2219 169.831 75.6727 169.55C75.9486 169.378 76.2827 169.315 76.6541 169.367C77.1875 169.442 77.5471 169.717 77.5523 170.094C77.5575 170.466 77.2527 170.699 76.93 171.019C77.0782 170.967 77.5965 170.66 78.3223 170.684C78.8652 170.703 79.3631 171.004 79.3401 171.464C79.3263 171.743 79.1337 171.946 78.7772 172.08C78.2989 172.26 77.7937 172.206 77.2951 172.163C77.2935 172.167 77.2922 172.17 77.2912 172.174ZM75.026 171.759C75.0008 172.063 75.3908 172.274 75.7291 172.285C76.1683 172.3 76.5054 172.047 76.5149 171.798C76.5253 171.523 76.165 171.273 75.7645 171.288C75.375 171.282 75.0474 171.5 75.026 171.759Z" fill="#EEFBFF"/>
<path d="M172.837 175.305C173.205 175.43 173.549 175.543 173.815 175.781C174.599 176.477 173.5 177.265 172.483 176.94C171.956 176.772 171.743 176.431 171.536 176.074C171.536 176.454 171.575 176.719 171.3 177.033C170.695 177.721 169.113 177.351 169.236 176.577C169.295 176.203 169.574 175.988 169.849 175.745C169.823 175.741 169.812 175.745 169.802 175.75C169.394 175.94 168.962 176.083 168.447 176.059C168.069 176.041 167.786 175.915 167.591 175.7C167.469 175.567 167.439 175.42 167.445 175.264C167.461 174.831 168.027 174.553 168.684 174.543C168.969 174.539 169.254 174.563 169.539 174.575C169.529 174.583 169.519 174.576 169.507 174.573C168.911 174.409 168.28 174.081 168.251 173.647C168.233 173.385 168.386 173.168 168.698 173.012C168.989 172.865 169.319 172.819 169.675 172.89C170.338 173.022 170.51 173.393 170.828 173.821C170.81 173.797 170.794 173.767 170.795 173.737C170.82 173.325 170.767 172.962 171.217 172.681C171.493 172.509 171.827 172.446 172.199 172.498C172.732 172.573 173.092 172.848 173.097 173.225C173.102 173.597 172.797 173.829 172.475 174.15C172.623 174.098 173.141 173.791 173.867 173.815C174.41 173.833 174.908 174.135 174.885 174.595C174.871 174.874 174.679 175.077 174.322 175.211C173.844 175.39 173.338 175.337 172.84 175.294C172.839 175.297 172.838 175.301 172.837 175.305ZM170.571 174.889C170.546 175.194 170.936 175.404 171.274 175.416C171.714 175.43 172.051 175.178 172.06 174.929C172.071 174.654 171.71 174.404 171.31 174.419C170.92 174.413 170.593 174.631 170.571 174.889Z" fill="#EEFBFF"/>
</svg>
