<svg width="26" height="30" viewBox="0 0 26 30" fill="none" xmlns="http://www.w3.org/2000/svg">
<path d="M25.1051 23.379C24.6515 24.4272 24.1145 25.3918 23.4922 26.279C22.6441 27.4882 21.9497 28.3251 21.4145 28.7901C20.5849 29.553 19.6961 29.9436 18.7443 29.9659C18.061 29.9659 17.2369 29.7715 16.2777 29.3771C15.3153 28.9844 14.4309 28.7901 13.6222 28.7901C12.7741 28.7901 11.8645 28.9844 10.8916 29.3771C9.91714 29.7715 9.13217 29.977 8.53199 29.9975C7.61926 30.0361 6.70948 29.6343 5.80134 28.7901C5.22173 28.2844 4.49678 27.4177 3.62826 26.1901C2.69645 24.879 1.93038 23.3587 1.3302 21.6254C0.687446 19.7532 0.365234 17.9403 0.365234 16.1852C0.365234 14.1747 0.799668 12.4407 1.66982 10.9876C2.35369 9.82042 3.26347 8.8997 4.40214 8.22382C5.54081 7.54791 6.77113 7.20346 8.09609 7.18142C8.82107 7.18142 9.77176 7.40569 10.9532 7.84642C12.1313 8.28861 12.8878 8.51287 13.2194 8.51287C13.4674 8.51287 14.3077 8.25065 15.7323 7.7279C17.0795 7.24311 18.2165 7.04236 19.1479 7.12143C21.6719 7.32513 23.5682 8.32009 24.8292 10.1126C22.5719 11.4804 21.4553 13.396 21.4775 15.8535C21.4979 17.7677 22.1923 19.3607 23.5571 20.6254C24.1754 21.2125 24.8663 21.6661 25.6348 21.9884C25.4682 22.4717 25.2921 22.9346 25.1051 23.379ZM19.3165 0.600169C19.3165 2.10051 18.7683 3.50137 17.6758 4.798C16.3573 6.33942 14.7625 7.23014 13.0332 7.08959C13.0111 6.9096 12.9983 6.72015 12.9983 6.52108C12.9983 5.08077 13.6253 3.53933 14.7388 2.279C15.2947 1.64087 16.0018 1.11028 16.8591 0.687018C17.7147 0.270068 18.5239 0.0394862 19.285 0C19.3072 0.200572 19.3165 0.401156 19.3165 0.600149V0.600169Z" fill="black"/>
</svg>
