<svg width="210" height="162" viewBox="0 0 210 162" fill="none" xmlns="http://www.w3.org/2000/svg">
<path d="M34.1677 114.696L28.5229 114.787L25.6627 114.822C24.7051 114.822 23.7433 114.822 22.7857 114.842H22.5967V114.696V110.986V110.808H22.8109L28.5019 110.828C30.3961 110.828 32.2819 110.866 34.1929 110.883H34.3063V110.97C34.3063 111.599 34.2685 112.227 34.2517 112.846L34.1677 114.696ZM34.1677 114.696L34.1089 112.823C34.1089 112.205 34.0585 111.595 34.0501 110.986L34.1677 111.074C32.2693 111.093 30.3877 111.126 28.4767 111.129L22.7857 111.132L22.9957 110.97L22.9705 114.696L22.7857 114.554C23.7223 114.554 24.6589 114.554 25.5997 114.57L28.4263 114.605L34.1677 114.696Z" fill="#EBEBEB"/>
<path d="M27.8168 119.362L22.172 119.452L19.3118 119.488C18.3542 119.488 17.3924 119.488 16.4348 119.507H16.25V119.362V115.652V115.49H16.46L22.151 115.512C24.0494 115.512 25.931 115.548 27.842 115.564H27.9596V115.668C27.9596 116.297 27.926 116.925 27.905 117.544L27.8168 119.362ZM27.8168 119.362L27.758 117.489C27.758 116.87 27.7118 116.261 27.7034 115.652L27.8168 115.739C25.9184 115.759 24.0368 115.791 22.1258 115.794L16.4348 115.814L16.6448 115.652L16.6196 119.362L16.4348 119.219C17.3714 119.219 18.308 119.219 19.2488 119.235L22.0754 119.271L27.8168 119.362Z" fill="#EBEBEB"/>
<path d="M40.5138 115.652H29.1318V119.362H40.5138V115.652Z" fill="#EBEBEB"/>
<path d="M180.113 63.8279L174.473 63.9187L171.608 63.9543C170.651 63.9705 169.693 63.9543 168.731 63.9737H168.547V63.8279L168.521 60.1181V59.9399H168.731L174.422 59.9594C176.321 59.9594 178.202 59.9983 180.113 60.0145H180.231V60.1019C180.231 60.7305 180.193 61.3558 180.172 61.9779L180.113 63.8279ZM180.113 63.8279L180.055 61.9552C180.055 61.3364 180.008 60.7273 180 60.1181L180.113 60.2056C178.219 60.2218 176.333 60.2575 174.422 60.2607L168.731 60.2801L168.941 60.1181L168.92 63.8279L168.731 63.6854C169.672 63.6854 170.605 63.6854 171.545 63.6854L174.376 63.721L180.113 63.8279Z" fill="#EBEBEB"/>
<path d="M173.763 64.7935H162.381V68.5033H173.763V64.7935Z" fill="#EBEBEB"/>
<path d="M186.48 68.503L180.839 68.5937L177.975 68.6294C177.017 68.6456 176.055 68.6294 175.098 68.6488H174.913V68.503L174.871 64.7997V64.6377H175.081L180.772 64.6571C182.671 64.6571 184.552 64.696 186.463 64.7122H186.581V64.7997C186.581 65.4283 186.547 66.0536 186.526 66.6757L186.48 68.503ZM186.48 68.503L186.421 66.6303C186.4 66.0115 186.375 65.4023 186.367 64.7932L186.48 64.8807C184.582 64.8969 182.7 64.9325 180.789 64.9358L175.098 64.9552L175.308 64.7932L175.287 68.503L175.098 68.3605C176.034 68.3605 176.971 68.3605 177.912 68.3605L180.738 68.3961L186.48 68.503Z" fill="#EBEBEB"/>
<path d="M187.215 115.652H175.833V119.362H187.215V115.652Z" fill="#EBEBEB"/>
<path d="M187.215 18.941L181.574 19.0317L178.71 19.0673C177.752 19.0673 176.795 19.0673 175.833 19.0868H175.648V18.941L175.623 15.2279V15.0659H175.833L181.524 15.0854C183.422 15.0854 185.304 15.1242 187.215 15.1404H187.32V15.2279C187.32 15.8565 187.282 16.4818 187.265 17.1006L187.215 18.941ZM187.215 18.941L187.156 17.0682C187.156 16.4494 187.11 15.837 187.102 15.2312L187.215 15.3186C185.321 15.3186 183.435 15.3705 181.524 15.3737L175.833 15.3932L176.043 15.2312V18.941L175.854 18.7984C176.795 18.7984 177.727 18.7984 178.668 18.7984L181.499 18.834L187.215 18.941Z" fill="#EBEBEB"/>
<path d="M193.566 19.9097H182.184V23.6195H193.566V19.9097Z" fill="#EBEBEB"/>
<path d="M27.8172 18.9446L22.1724 19.0353L19.3206 19.0709C18.363 19.0709 17.4012 19.0709 16.4436 19.0904H16.2588V18.9446V15.2348V15.0728H16.4688L22.1598 15.0954C24.0582 15.0954 25.9398 15.1311 27.8508 15.1473H27.9684V15.2283C27.9684 15.8568 27.9348 16.4854 27.9138 17.1042L27.8172 18.9446ZM27.8172 18.9446L27.7584 17.0718C27.7206 16.453 27.7206 15.8439 27.7206 15.2283L27.834 15.319C25.9356 15.3352 24.054 15.3676 22.143 15.3708L16.452 15.3903L16.662 15.2283L16.6368 18.9381L16.4352 18.7923C17.3718 18.7923 18.3084 18.7923 19.2492 18.7923L22.0758 18.8312L27.8172 18.9446Z" fill="#EBEBEB"/>
<path d="M50.0099 69.9126H38.6279V73.6224H50.0099V69.9126Z" fill="#EBEBEB"/>
<path d="M95.3361 100.515H83.9541V104.224H95.3361V100.515Z" fill="#EBEBEB"/>
<path d="M84.7096 28.0809L90.3544 27.9935L93.2146 27.9546C94.1722 27.9546 95.134 27.9546 96.0916 27.9546H96.2806V28.1004V31.8134V31.9754H96.0706L90.3796 31.9528C88.4854 31.9528 86.5996 31.9171 84.6886 31.9009H84.5752V31.8134C84.5752 31.1816 84.613 30.5563 84.6298 29.9375L84.7096 28.0809ZM84.7096 28.0809L84.7684 29.9569C84.7684 30.5725 84.8188 31.1849 84.8272 31.794L84.7096 31.7033C86.608 31.7033 88.4896 31.6514 90.4006 31.6514L96.0916 31.632L95.8816 31.794L95.9068 28.0809L96.0916 28.2268C95.155 28.2268 94.2184 28.2267 93.2776 28.2073L90.451 28.1879L84.7096 28.0809Z" fill="#EBEBEB"/>
<path d="M91.0608 23.4026L96.7056 23.3281L99.5658 23.2925C100.523 23.2925 101.485 23.2925 102.443 23.2925H102.628V23.4383V27.1513V27.3133H102.418L96.7266 27.2939C94.8282 27.2939 92.9466 27.2582 91.0356 27.242H90.918V27.1546C90.918 26.5066 90.9516 25.8974 90.9726 25.2786L91.0608 23.4026ZM91.0608 23.4026L91.1406 25.2721C91.1616 25.8877 91.1868 26.5001 91.1952 27.1092L91.0818 27.0185C92.9802 27.0185 94.8618 26.9666 96.7728 26.9666L102.464 26.9472L102.254 27.1092L102.279 23.3962L102.464 23.542C101.527 23.542 100.591 23.542 99.6498 23.5225L96.8232 23.4869L91.0608 23.4026Z" fill="#EBEBEB"/>
<path d="M38.7783 66.7666V55.0864H23.6373V66.7666H38.7783Z" fill="#DBDBDB"/>
<path d="M36.4307 64.9553V56.8975H25.9853V64.9553H36.4307Z" fill="#F6F6F6"/>
<path d="M36.4356 56.8945H25.9902V64.9524L36.4356 56.8945Z" fill="#EBEBEB"/>
<path d="M22.1632 66.7632H23.6416L23.6416 55.083H22.1632V66.7632Z" fill="#C7C7C7"/>
<path d="M57.5195 66.7666V55.0864H42.3785V66.7666H57.5195Z" fill="#DBDBDB"/>
<path d="M55.1719 64.9553V56.8975H44.7265V64.9553H55.1719Z" fill="#F6F6F6"/>
<path d="M52.1099 56.8945H44.7305V62.5872L52.1099 56.8945Z" fill="#EBEBEB"/>
<path d="M40.9044 66.7632H42.3828V55.083H40.9044V66.7632Z" fill="#C7C7C7"/>
<path d="M57.5234 84.8232V69.5596H23.642V84.8232H57.5234Z" fill="#DBDBDB"/>
<path d="M55.0498 82.9344V71.4453H26.116V82.9344H55.0498Z" fill="#F6F6F6"/>
<path d="M45.0834 71.4482H26.1162V78.978L45.0834 71.4482Z" fill="#EBEBEB"/>
<path d="M22.1632 84.8232H23.6416L23.6416 69.5596H22.1632L22.1632 84.8232Z" fill="#C7C7C7"/>
<path d="M57.5234 52.3617V26.2246H23.642V52.3617H57.5234Z" fill="#DBDBDB"/>
<path d="M55.0493 28.1328H26.1113V50.4532H55.0493V28.1328Z" fill="#F6F6F6"/>
<path d="M26.1113 44.2032C30.5129 40.8271 42.9743 31.2627 46.9811 28.1328H26.1113V44.2032Z" fill="#EBEBEB"/>
<path d="M22.1632 52.3613H23.6416L23.6416 26.2242H22.1632L22.1632 52.3613Z" fill="#C7C7C7"/>
<path d="M16.4346 147.342L38.577 147.265L60.7152 147.235L105 147.184L149.285 147.235L171.423 147.265L193.565 147.342L171.423 147.423L149.285 147.453L105 147.504L60.7152 147.453L38.577 147.423L16.4346 147.342Z" fill="#263238"/>
<path d="M173.394 17.3662H36.9189V97.4072H173.394V17.3662Z" fill="#F6F6F6"/>
<path d="M173.393 97.4073L36.9185 97.4527H36.8597V97.4073L36.8135 17.3793V17.2983H36.9185L173.393 17.3437H173.46V17.3793L173.393 97.4073ZM173.393 97.4073L173.351 17.3793L173.393 17.4117L36.9185 17.4474L37.0235 17.3664L36.9773 97.3944L36.9185 97.349L173.393 97.4073Z" fill="#263238"/>
<path d="M173.394 17.3047H36.9189V20.2045H173.394V17.3047Z" fill="#455A64"/>
<path d="M40.1778 18.7564C40.1736 18.8799 40.1226 18.9998 40.031 19.1012C39.9395 19.2025 39.8114 19.281 39.6626 19.3268C39.5138 19.3726 39.3509 19.3837 39.194 19.3588C39.0372 19.3339 38.8932 19.2741 38.7799 19.1867C38.6667 19.0994 38.5891 18.9883 38.5568 18.8673C38.5246 18.7462 38.539 18.6206 38.5984 18.5058C38.6577 18.391 38.7594 18.2922 38.8908 18.2216C39.0223 18.151 39.1776 18.1116 39.3378 18.1084C39.5605 18.1084 39.7742 18.1767 39.9317 18.2982C40.0893 18.4197 40.1778 18.5845 40.1778 18.7564Z" fill="#C7C7C7"/>
<path d="M43.5169 18.7564C43.5169 18.8846 43.4677 19.0098 43.3754 19.1164C43.283 19.223 43.1519 19.306 42.9984 19.3551C42.8449 19.4041 42.676 19.417 42.513 19.3919C42.3501 19.3669 42.2004 19.3052 42.0829 19.2146C41.9655 19.124 41.8855 19.0085 41.8531 18.8828C41.8206 18.7571 41.8373 18.6268 41.9009 18.5084C41.9644 18.39 42.0721 18.2888 42.2102 18.2176C42.3484 18.1464 42.5108 18.1084 42.6769 18.1084C42.8997 18.1084 43.1134 18.1767 43.2709 18.2982C43.4284 18.4197 43.5169 18.5845 43.5169 18.7564Z" fill="#F6F6F6"/>
<path d="M46.8516 18.7564C46.8475 18.8808 46.7958 19.0014 46.7032 19.1032C46.6105 19.205 46.481 19.2835 46.3308 19.3287C46.1805 19.374 46.0164 19.384 45.8588 19.3576C45.7012 19.3311 45.5573 19.2694 45.445 19.1801C45.3327 19.0908 45.2571 18.9779 45.2277 18.8556C45.1982 18.7333 45.2162 18.607 45.2794 18.4926C45.3426 18.3781 45.4482 18.2806 45.5829 18.2123C45.7177 18.1439 45.8755 18.1078 46.0368 18.1084C46.146 18.1084 46.254 18.1252 46.3545 18.158C46.4551 18.1908 46.546 18.2389 46.622 18.2993C46.698 18.3598 46.7575 18.4314 46.797 18.5099C46.8364 18.5884 46.855 18.6722 46.8516 18.7564Z" fill="#ECAB5A"/>
<path d="M131.952 60.6787H161.47V38.8022H131.952V60.6787Z" fill="#455A64"/>
<path d="M141.691 53.1846H161.469L151.578 45.522L141.691 53.1846Z" fill="#263238"/>
<path d="M131.952 53.1913H149.491L140.722 48.2017L131.952 53.1913Z" fill="#37474F"/>
<path d="M161.47 53.1846H131.952V60.6787H161.47V53.1846Z" fill="#37474F"/>
<path d="M140.238 44.213C140.238 44.5975 140.09 44.9734 139.814 45.2931C139.537 45.6128 139.143 45.8619 138.683 46.0091C138.222 46.1562 137.715 46.1947 137.227 46.1197C136.738 46.0447 136.289 45.8595 135.936 45.5877C135.584 45.3158 135.344 44.9694 135.247 44.5923C135.149 44.2152 135.199 43.8243 135.39 43.4691C135.581 43.1139 135.904 42.8103 136.318 42.5967C136.733 42.3831 137.22 42.269 137.718 42.269C138.387 42.269 139.028 42.4739 139.5 42.8384C139.973 43.203 140.238 43.6975 140.238 44.213Z" fill="#F6F6F6"/>
<path d="M115.773 38.9772C116.58 38.9286 117.386 38.9026 118.197 38.8832C119.007 38.8638 119.81 38.8573 120.62 38.854C121.431 38.8508 122.233 38.854 123.044 38.8832C123.854 38.9124 124.656 38.9253 125.467 38.9772C124.656 39.029 123.85 39.0517 123.044 39.0711C122.237 39.0906 121.427 39.097 120.62 39.097C119.814 39.097 119.003 39.097 118.197 39.0711C117.39 39.0452 116.58 39.0258 115.773 38.9772Z" fill="#C7C7C7"/>
<path d="M93.2402 38.9773C94.9202 38.9287 96.6002 38.9028 98.2802 38.8833L103.32 38.8574L108.36 38.8833C110.04 38.9028 111.72 38.9255 113.4 38.9773C111.72 39.0291 110.04 39.0518 108.36 39.0713L103.32 39.0972L98.2802 39.0713C96.6002 39.0518 94.9202 39.0259 93.2402 38.9773Z" fill="#C7C7C7"/>
<path d="M78.54 38.9771C79.527 38.9285 80.5182 38.9026 81.5094 38.8831C82.5006 38.8637 83.4876 38.8669 84.4788 38.8572C85.47 38.8475 86.457 38.8572 87.444 38.8831C88.431 38.9091 89.4264 38.9253 90.4134 38.9771C89.4264 39.0289 88.4352 39.0516 87.444 39.0711C86.4528 39.0905 85.4658 39.0711 84.4788 39.097C83.4918 39.1229 82.4964 39.097 81.5094 39.0711C80.5224 39.0451 79.5144 39.0257 78.54 38.9771Z" fill="#C7C7C7"/>
<path d="M58.6035 38.9771C59.9433 38.9285 61.2831 38.9026 62.6229 38.8831C63.9627 38.8637 65.3025 38.8669 66.6423 38.8572C67.9821 38.8475 69.3219 38.8572 70.6617 38.8831C72.0015 38.9091 73.3413 38.9253 74.6853 38.9771C73.3413 39.0289 72.0015 39.0516 70.6617 39.0711C69.3219 39.0905 67.9821 39.0711 66.6423 39.097C65.3025 39.1229 63.9627 39.097 62.6229 39.0711C61.2831 39.0451 59.9433 39.0257 58.6035 38.9771Z" fill="#C7C7C7"/>
<path d="M118.101 42.0777C118.714 42.0259 119.327 42.0032 119.94 41.9838C120.553 41.9643 121.171 41.9579 121.784 41.9546C122.397 41.9514 123.01 41.9546 123.624 41.9838C124.237 42.0129 124.854 42.0259 125.467 42.0777C124.854 42.1263 124.237 42.1523 123.624 42.1717C123.01 42.1911 122.397 42.1944 121.784 42.1976C121.171 42.2009 120.553 42.1976 119.94 42.1685C119.327 42.1393 118.714 42.1199 118.101 42.0777Z" fill="#C7C7C7"/>
<path d="M102.568 42.0779C103.669 42.0261 104.769 42.0034 105.87 41.984C106.97 41.9645 108.07 41.9645 109.171 41.9548C110.271 41.9451 111.372 41.9548 112.472 41.984C113.572 42.0131 114.673 42.0261 115.773 42.0779C114.673 42.1265 113.572 42.1525 112.472 42.1719C111.372 42.1913 110.271 42.1881 109.171 42.1978C108.07 42.2075 106.97 42.1978 105.87 42.1687C104.769 42.1395 103.669 42.1201 102.568 42.0779Z" fill="#C7C7C7"/>
<path d="M83.9541 42.0779C85.2603 42.0261 86.5707 42.0034 87.8769 41.984C89.1831 41.9645 90.4935 41.9645 91.7997 41.9548C93.1059 41.9451 94.4163 41.9548 95.7267 41.984C97.0371 42.0131 98.3391 42.0261 99.6495 42.0779C98.3391 42.1265 97.0329 42.1525 95.7267 42.1719C94.4205 42.1913 93.1101 42.1881 91.7997 42.1978C90.4893 42.2075 89.1873 42.1978 87.8769 42.1687C86.5665 42.1395 85.2603 42.1201 83.9541 42.0779Z" fill="#C7C7C7"/>
<path d="M58.6035 42.0777C60.4557 42.0259 62.3121 42.0032 64.1643 41.9837L69.7293 41.9546L75.2901 41.9837C77.1465 42.0032 78.9987 42.0259 80.8551 42.0777C78.9987 42.1263 77.1465 42.1522 75.2901 42.1717L69.7293 42.1976L64.1643 42.1684C62.3121 42.149 60.4557 42.1198 58.6035 42.0777Z" fill="#C7C7C7"/>
<path d="M117.261 45.1783C117.945 45.1265 118.63 45.1038 119.315 45.0844C119.999 45.0649 120.68 45.0585 121.364 45.0552C122.049 45.052 122.733 45.0552 123.414 45.0844C124.094 45.1135 124.783 45.1265 125.468 45.1783C124.783 45.2269 124.098 45.2496 123.414 45.2691C122.729 45.2885 122.049 45.295 121.364 45.2982C120.68 45.3015 119.995 45.2982 119.315 45.2691C118.634 45.2399 117.945 45.2269 117.261 45.1783Z" fill="#C7C7C7"/>
<path d="M105.929 45.1783C106.647 45.1265 107.365 45.1038 108.083 45.0844C108.802 45.0649 109.52 45.0585 110.242 45.0552C110.965 45.052 111.679 45.0552 112.397 45.0844C113.115 45.1135 113.833 45.1265 114.556 45.1783C113.833 45.2269 113.115 45.2496 112.397 45.2691C111.679 45.2885 110.96 45.295 110.242 45.2982C109.524 45.3015 108.802 45.2982 108.083 45.2691C107.365 45.2399 106.647 45.2269 105.929 45.1783Z" fill="#C7C7C7"/>
<path d="M88.541 45.1785C89.843 45.1267 91.1492 45.104 92.4512 45.0846C93.7532 45.0651 95.0636 45.0651 96.3656 45.0554C97.6676 45.0457 98.9738 45.0554 100.28 45.0846C101.586 45.1137 102.888 45.1267 104.194 45.1785C102.888 45.2271 101.582 45.2498 100.28 45.2692C98.978 45.2887 97.6718 45.2887 96.3656 45.2984C95.0594 45.3081 93.7574 45.2984 92.4512 45.2692C91.145 45.2401 89.843 45.2271 88.541 45.1785Z" fill="#C7C7C7"/>
<path d="M74.8818 45.1785C75.8772 45.1267 76.8684 45.104 77.8596 45.0846C78.8508 45.0651 79.8462 45.0651 80.8374 45.0554C81.8286 45.0457 82.824 45.0554 83.8152 45.0846C84.8064 45.1137 85.8018 45.1267 86.793 45.1785C85.8018 45.2271 84.8064 45.2498 83.8152 45.2692C82.824 45.2887 81.8286 45.2887 80.8374 45.2984C79.8462 45.3081 78.855 45.2984 77.8596 45.2692C76.8642 45.2401 75.8772 45.2271 74.8818 45.1785Z" fill="#C7C7C7"/>
<path d="M48.5479 45.1783C50.5051 45.1265 52.4665 45.1038 54.4279 45.0843L60.3079 45.0552L66.1879 45.0843C68.1451 45.1038 70.1065 45.1265 72.0679 45.1783C70.1107 45.2269 68.1493 45.2496 66.1879 45.269L60.3079 45.2982L54.4279 45.269C52.4665 45.2496 50.5051 45.2269 48.5479 45.1783Z" fill="#C7C7C7"/>
<path d="M82.3203 48.2762C83.1603 48.2276 84.0003 48.2049 84.8403 48.1854C85.6803 48.166 86.5203 48.1595 87.3603 48.1563C88.2003 48.153 89.0403 48.1563 89.8803 48.1854C90.7203 48.2146 91.5603 48.2276 92.4003 48.2762C91.5603 48.328 90.7203 48.3507 89.8803 48.3701C89.0403 48.3896 88.2003 48.396 87.3603 48.3993C86.5203 48.4025 85.6803 48.3993 84.8403 48.3701C84.0003 48.341 83.1603 48.328 82.3203 48.2762Z" fill="#C7C7C7"/>
<path d="M65.0332 48.2759C66.2932 48.2273 67.5532 48.2046 68.7838 48.1851C70.0144 48.1657 71.3038 48.1657 72.5386 48.156C73.7734 48.1463 75.0376 48.156 76.2892 48.1851C77.5408 48.2143 78.8092 48.2273 80.0398 48.2759C78.7798 48.3277 77.5198 48.3504 76.2892 48.3698C75.0586 48.3893 73.7692 48.3893 72.5386 48.399C71.308 48.4087 70.0186 48.399 68.7838 48.3698C67.549 48.3407 66.2848 48.3277 65.0332 48.2759Z" fill="#C7C7C7"/>
<path d="M48.5479 48.2759C49.7365 48.2273 50.9209 48.2046 52.1095 48.1851C53.2981 48.1657 54.4825 48.1657 55.6711 48.156C56.8597 48.1463 58.0441 48.156 59.2285 48.1851C60.4129 48.2143 61.6057 48.2273 62.7901 48.2759C61.6057 48.3277 60.4171 48.3504 59.2285 48.3698C58.0399 48.3893 56.8555 48.3893 55.6711 48.399C54.4867 48.4087 53.2939 48.399 52.1095 48.3698C50.9251 48.3407 49.7365 48.3277 48.5479 48.2759Z" fill="#C7C7C7"/>
<path d="M115.773 54.4772C116.58 54.4253 117.386 54.4026 118.197 54.3832C119.007 54.3638 119.81 54.3573 120.62 54.354C121.431 54.3508 122.233 54.354 123.044 54.3832C123.854 54.4124 124.656 54.4253 125.467 54.4772C124.656 54.529 123.85 54.5517 123.044 54.5711C122.237 54.5906 121.427 54.597 120.62 54.597C119.814 54.597 119.003 54.597 118.197 54.5711C117.39 54.5452 116.58 54.5258 115.773 54.4772Z" fill="#C7C7C7"/>
<path d="M96.4287 54.4773C97.8483 54.4255 99.2637 54.4028 100.683 54.3833C102.103 54.3639 103.518 54.3833 104.938 54.3574C106.358 54.3315 107.773 54.3574 109.193 54.3833C110.612 54.4093 112.028 54.4255 113.447 54.4773C112.028 54.5291 110.608 54.5518 109.193 54.5713C107.777 54.5907 106.353 54.5713 104.938 54.5972C103.523 54.6231 102.099 54.5972 100.683 54.5713C99.2679 54.5453 97.8609 54.5259 96.4287 54.4773Z" fill="#C7C7C7"/>
<path d="M79.2715 54.4773C80.4685 54.4255 81.6613 54.4028 82.8583 54.3833C84.0553 54.3639 85.2481 54.3833 86.4409 54.3574C87.6337 54.3315 88.8349 54.3574 90.0277 54.3833C91.2205 54.4093 92.4175 54.4255 93.6145 54.4773C92.4175 54.5291 91.2247 54.5518 90.0277 54.5713C88.8307 54.5907 87.6379 54.5713 86.4409 54.5972C85.2439 54.6231 84.0511 54.5972 82.8583 54.5713C81.6655 54.5453 80.4685 54.5259 79.2715 54.4773Z" fill="#C7C7C7"/>
<path d="M68.25 54.4772C68.9514 54.4253 69.6528 54.4026 70.35 54.3832C71.0472 54.3638 71.7528 54.3573 72.45 54.354C73.1472 54.3508 73.8528 54.354 74.55 54.3832C75.2472 54.4124 75.9528 54.4253 76.65 54.4772C75.9486 54.529 75.2472 54.5517 74.55 54.5711C73.8528 54.5906 73.1472 54.597 72.45 54.597C71.7528 54.597 71.0514 54.597 70.35 54.5711C69.6486 54.5452 68.9514 54.5258 68.25 54.4772Z" fill="#C7C7C7"/>
<path d="M48.5479 54.4773C49.9717 54.4255 51.3997 54.4028 52.8235 54.3833C54.2473 54.3639 55.6753 54.3833 57.0991 54.3574C58.5229 54.3315 59.9509 54.3574 61.3789 54.3833C62.8069 54.4093 64.2265 54.4255 65.6545 54.4773C64.2265 54.5291 62.8027 54.5518 61.3789 54.5713C59.9551 54.5907 58.5271 54.5713 57.0991 54.5972C55.6711 54.6231 54.2515 54.5972 52.8235 54.5713C51.3955 54.5453 49.9801 54.5259 48.5479 54.4773Z" fill="#C7C7C7"/>
<path d="M117.685 57.5782C118.336 57.5264 118.982 57.5037 119.629 57.4843C120.276 57.4648 120.927 57.4584 121.574 57.4551C122.221 57.4519 122.872 57.4551 123.523 57.4843C124.174 57.5134 124.816 57.5264 125.467 57.5782C124.816 57.6268 124.169 57.6528 123.523 57.6722C122.876 57.6916 122.225 57.6949 121.574 57.6981C120.923 57.7014 120.28 57.6981 119.629 57.669C118.978 57.6398 118.336 57.6268 117.685 57.5782Z" fill="#C7C7C7"/>
<path d="M102.304 57.5779C103.354 57.5261 104.404 57.5034 105.458 57.484C106.512 57.4645 107.558 57.4645 108.616 57.4548C109.675 57.4451 110.716 57.4548 111.775 57.484C112.833 57.5131 113.875 57.5261 114.933 57.5779C113.879 57.6265 112.833 57.6525 111.775 57.6719C110.716 57.6913 109.675 57.6881 108.616 57.6978C107.558 57.7075 106.516 57.6978 105.458 57.6687C104.4 57.6395 103.354 57.6265 102.304 57.5779Z" fill="#C7C7C7"/>
<path d="M87.0078 57.5779C88.104 57.5261 89.2044 57.5034 90.3006 57.484C91.3968 57.4645 92.4972 57.4645 93.5976 57.4548C94.698 57.4451 95.79 57.4548 96.8904 57.484C97.9908 57.5131 99.087 57.5261 100.183 57.5779C99.087 57.6265 97.9866 57.6525 96.8904 57.6719C95.7942 57.6913 94.6938 57.6881 93.5976 57.6978C92.5014 57.7075 91.401 57.6978 90.3006 57.6687C89.2002 57.6395 88.104 57.6265 87.0078 57.5779Z" fill="#C7C7C7"/>
<path d="M75.4365 57.5782C76.1883 57.5264 76.9401 57.5037 77.6961 57.4843C78.4521 57.4648 79.1997 57.4584 79.9515 57.4551C80.7033 57.4519 81.4551 57.4551 82.2069 57.4843C82.9587 57.5134 83.7105 57.5264 84.4665 57.5782C83.7105 57.6268 82.9587 57.6528 82.2069 57.6722C81.4551 57.6916 80.7033 57.6949 79.9515 57.6981C79.1997 57.7014 78.4479 57.6981 77.6961 57.669C76.9443 57.6398 76.1883 57.6268 75.4365 57.5782Z" fill="#C7C7C7"/>
<path d="M60.3037 57.5779C61.3789 57.5261 62.4541 57.5034 63.5293 57.484C64.6045 57.4645 65.6839 57.4645 66.7591 57.4548C67.8343 57.4451 68.9095 57.4548 69.9889 57.484C71.0683 57.5131 72.1393 57.5261 73.2145 57.5779C72.1393 57.6265 71.0641 57.6525 69.9889 57.6719C68.9137 57.6913 67.8343 57.6881 66.7591 57.6978C65.6839 57.7075 64.6045 57.6978 63.5293 57.6687C62.4541 57.6395 61.3789 57.6265 60.3037 57.5779Z" fill="#C7C7C7"/>
<path d="M48.5479 57.5782C49.3879 57.5264 50.2279 57.5037 51.0679 57.4843C51.9079 57.4648 52.7479 57.4584 53.5879 57.4551C54.4279 57.4519 55.2679 57.4551 56.1079 57.4843C56.9479 57.5134 57.7879 57.5264 58.6279 57.5782C57.7879 57.6268 56.9479 57.6528 56.1079 57.6722C55.2679 57.6916 54.4279 57.6949 53.5879 57.6981C52.7479 57.7014 51.9079 57.6981 51.0679 57.669C50.2279 57.6398 49.3879 57.6268 48.5479 57.5782Z" fill="#C7C7C7"/>
<path d="M89.6455 60.6785C90.5779 60.6267 91.5061 60.604 92.4385 60.5846C93.3709 60.5651 94.2991 60.5651 95.2315 60.5554C96.1639 60.5457 97.0921 60.5554 98.0245 60.5846C98.9569 60.6137 99.8851 60.6267 100.818 60.6785C99.8851 60.7271 98.9569 60.7498 98.0245 60.7692C97.0921 60.7887 96.1639 60.7887 95.2315 60.7984C94.2991 60.8081 93.3709 60.7984 92.4385 60.7692C91.5061 60.7401 90.5779 60.7271 89.6455 60.6785Z" fill="#C7C7C7"/>
<path d="M80.8379 60.6788C81.4091 60.627 81.9803 60.6043 82.5557 60.5849C83.1311 60.5654 83.6981 60.5589 84.2693 60.5557C84.8405 60.5525 85.4117 60.5557 85.9829 60.5849C86.5541 60.614 87.1295 60.627 87.7007 60.6788C87.1295 60.7274 86.5583 60.7501 85.9829 60.7695C85.4075 60.789 84.8405 60.7955 84.2693 60.7987C83.6981 60.8019 83.1269 60.7987 82.5557 60.7695C81.9845 60.7404 81.4091 60.7274 80.8379 60.6788Z" fill="#C7C7C7"/>
<path d="M67.1211 60.6785C68.0577 60.6267 68.9901 60.604 69.9267 60.5846C70.8633 60.5651 71.7999 60.5651 72.7365 60.5554C73.6731 60.5457 74.6097 60.5554 75.5463 60.5846C76.4829 60.6137 77.4195 60.6267 78.3561 60.6785C77.4195 60.7271 76.4829 60.7498 75.5463 60.7692C74.6097 60.7887 73.6731 60.7887 72.7365 60.7984C71.7999 60.8081 70.8633 60.7984 69.9267 60.7692C68.9901 60.7401 68.0409 60.7271 67.1211 60.6785Z" fill="#C7C7C7"/>
<path d="M48.5479 60.6785C49.8961 60.6267 51.2443 60.604 52.5925 60.5846C53.9407 60.5651 55.2889 60.5651 56.6371 60.5554C57.9853 60.5457 59.3335 60.5554 60.6817 60.5846C62.0299 60.6137 63.3781 60.6267 64.7263 60.6785C63.3781 60.7271 62.0299 60.7498 60.6817 60.7692C59.3335 60.7887 57.9853 60.7887 56.6371 60.7984C55.2889 60.8081 53.9407 60.7984 52.5925 60.7692C51.2443 60.7401 49.8961 60.7271 48.5479 60.6785Z" fill="#C7C7C7"/>
<path d="M153.481 63.7762C154.149 63.7276 154.813 63.7049 155.481 63.6854C156.148 63.666 156.808 63.6595 157.476 63.6563C158.143 63.653 158.807 63.6563 159.471 63.6854C160.134 63.7146 160.802 63.7276 161.47 63.7762C160.802 63.828 160.138 63.8507 159.471 63.8701C158.803 63.8896 158.139 63.896 157.476 63.8993C156.812 63.9025 156.144 63.8993 155.481 63.8701C154.817 63.841 154.141 63.828 153.481 63.7762Z" fill="#C7C7C7"/>
<path d="M137.714 63.7764C138.869 63.7278 140.024 63.7051 141.179 63.6856C142.334 63.6662 143.489 63.6662 144.644 63.6565C145.799 63.6468 146.958 63.6565 148.113 63.6856C149.268 63.7148 150.423 63.7278 151.578 63.7764C150.423 63.8282 149.268 63.8509 148.113 63.8703C146.958 63.8898 145.799 63.8898 144.644 63.8995C143.489 63.9092 142.334 63.8995 141.179 63.8703C140.024 63.8412 138.869 63.8282 137.714 63.7764Z" fill="#C7C7C7"/>
<path d="M118.101 63.7764C119.524 63.7278 120.948 63.7051 122.372 63.6856C123.796 63.6662 125.22 63.6662 126.643 63.6565C128.067 63.6468 129.491 63.6565 130.915 63.6856C132.339 63.7148 133.762 63.7278 135.186 63.7764C133.762 63.8282 132.339 63.8509 130.915 63.8703C129.491 63.8898 128.067 63.8898 126.643 63.8995C125.22 63.9092 123.796 63.8995 122.372 63.8703C120.948 63.8412 119.524 63.8282 118.101 63.7764Z" fill="#C7C7C7"/>
<path d="M103.661 63.7764C104.669 63.7278 105.681 63.7051 106.689 63.6856C107.697 63.6662 108.71 63.6662 109.718 63.6565C110.726 63.6468 111.738 63.6565 112.746 63.6856C113.754 63.7148 114.762 63.7278 115.774 63.7764C114.762 63.8282 113.754 63.8509 112.746 63.8703C111.738 63.8898 110.726 63.8898 109.718 63.8995C108.71 63.9092 107.697 63.8995 106.689 63.8703C105.681 63.8412 104.669 63.8282 103.661 63.7764Z" fill="#C7C7C7"/>
<path d="M86.7939 63.7764C87.9615 63.7278 89.1333 63.7051 90.3009 63.6856C91.4685 63.6662 92.6362 63.6662 93.808 63.6565C94.9798 63.6468 96.1431 63.6565 97.3107 63.6856C98.4783 63.7148 99.6501 63.7278 100.818 63.7764C99.6501 63.8282 98.4783 63.8509 97.3107 63.8703C96.1431 63.8898 94.9756 63.8898 93.808 63.8995C92.6404 63.9092 91.4685 63.8995 90.3009 63.8703C89.1333 63.8412 87.9615 63.8282 86.7939 63.7764Z" fill="#C7C7C7"/>
<path d="M71.0977 63.7764C72.2107 63.7278 73.3237 63.7051 74.4367 63.6856C75.5497 63.6662 76.6669 63.6662 77.7967 63.6565C78.9265 63.6468 80.0269 63.6565 81.1567 63.6856C82.2865 63.7148 83.3827 63.7278 84.5167 63.7764C83.3995 63.8282 82.2865 63.8509 81.1567 63.8703C80.0269 63.8898 78.9265 63.8898 77.7967 63.8995C76.6669 63.9092 75.5707 63.8995 74.4367 63.8703C73.3027 63.8412 72.2107 63.8282 71.0977 63.7764Z" fill="#C7C7C7"/>
<path d="M48.6533 63.7761C50.3333 63.7275 52.0133 63.7048 53.7269 63.6854L58.7963 63.6562L63.8657 63.6854C65.5457 63.7048 67.2467 63.7275 68.9351 63.7761C67.2551 63.828 65.5751 63.8507 63.8657 63.8701L58.7963 63.8993L53.7269 63.8701C52.0343 63.8507 50.3459 63.828 48.6533 63.7761Z" fill="#C7C7C7"/>
<path d="M147.421 66.877C148.593 66.8284 149.76 66.8025 150.932 66.783C152.104 66.7636 153.271 66.7668 154.439 66.7571C155.607 66.7474 156.783 66.7571 157.95 66.783C159.118 66.809 160.29 66.8284 161.461 66.877C160.29 66.9288 159.122 66.9515 157.95 66.971C156.779 66.9904 155.611 66.9904 154.439 67.0001C153.267 67.0098 152.1 67.0001 150.932 66.971C149.764 66.9418 148.601 66.9288 147.421 66.877Z" fill="#C7C7C7"/>
<path d="M134.115 66.877C135.052 66.8284 135.993 66.8025 136.933 66.783C137.874 66.7636 138.811 66.7668 139.747 66.7571C140.684 66.7474 141.625 66.7571 142.566 66.783C143.506 66.809 144.443 66.8284 145.38 66.877C144.443 66.9288 143.502 66.9515 142.566 66.971C141.629 66.9904 140.688 66.9904 139.747 67.0001C138.807 67.0098 137.87 67.0001 136.933 66.971C135.997 66.9418 135.052 66.9288 134.115 66.877Z" fill="#C7C7C7"/>
<path d="M123.207 66.8768C123.875 66.8282 124.543 66.8023 125.21 66.7828C125.878 66.7634 126.55 66.7601 127.218 66.7569C127.886 66.7537 128.554 66.7569 129.221 66.7828C129.889 66.8087 130.561 66.8282 131.229 66.8768C130.561 66.9286 129.889 66.9513 129.221 66.9707C128.554 66.9902 127.886 66.9967 127.218 66.9999C126.55 67.0031 125.882 66.9999 125.21 66.9707C124.538 66.9416 123.875 66.9286 123.207 66.8768Z" fill="#C7C7C7"/>
<path d="M109.717 66.877C110.624 66.8284 111.535 66.8025 112.443 66.783C113.35 66.7636 114.261 66.7668 115.168 66.7571C116.076 66.7474 116.987 66.7571 117.894 66.783C118.801 66.809 119.709 66.8284 120.62 66.877C119.709 66.9288 118.801 66.9515 117.894 66.971C116.987 66.9904 116.076 66.9904 115.168 67.0001C114.261 67.0098 113.35 67.0001 112.443 66.971C111.535 66.9418 110.624 66.9288 109.717 66.877Z" fill="#C7C7C7"/>
<path d="M91.7998 66.877C93.0598 66.8284 94.3198 66.8025 95.5798 66.783C96.8398 66.7636 98.0998 66.7668 99.3598 66.7571C100.62 66.7474 101.88 66.7571 103.14 66.783C104.4 66.809 105.66 66.8284 106.92 66.877C105.66 66.9288 104.4 66.9515 103.14 66.971C101.88 66.9904 100.62 66.9904 99.3598 67.0001C98.0998 67.0098 96.8398 67.0001 95.5798 66.971C94.3198 66.9418 93.0598 66.9288 91.7998 66.877Z" fill="#C7C7C7"/>
<path d="M75.6006 66.877C76.7724 66.8284 77.94 66.8025 79.1118 66.783C80.2836 66.7636 81.4512 66.7668 82.6188 66.7571C83.7864 66.7474 84.9582 66.7571 86.13 66.783C87.3018 66.809 88.4694 66.8284 89.637 66.877C88.4694 66.9288 87.2976 66.9515 86.13 66.971C84.9624 66.9904 83.7906 66.9904 82.6188 67.0001C81.447 67.0098 80.2794 67.0001 79.1118 66.971C77.9442 66.9418 76.7808 66.9288 75.6006 66.877Z" fill="#C7C7C7"/>
<path d="M61.9551 66.877C62.9379 66.8284 63.9207 66.8025 64.8951 66.783C65.8695 66.7636 66.8607 66.7668 67.8351 66.7571C68.8095 66.7474 69.8007 66.7571 70.7751 66.783C71.7495 66.809 72.7449 66.8284 73.7151 66.877C72.7323 66.9288 71.7453 66.9515 70.7751 66.971C69.8049 66.9904 68.8053 66.9904 67.8351 67.0001C66.8649 67.0098 65.8653 67.0001 64.8951 66.971C63.9249 66.9418 62.9379 66.9288 61.9551 66.877Z" fill="#C7C7C7"/>
<path d="M48.6533 66.877C49.5395 66.8284 50.4257 66.8025 51.3119 66.783C52.1981 66.7636 53.0801 66.7668 53.9663 66.7571C54.8525 66.7474 55.7387 66.7571 56.6249 66.783C57.5111 66.809 58.3931 66.8284 59.2793 66.877C58.3931 66.9288 57.5069 66.9515 56.6249 66.971C55.7429 66.9904 54.8525 66.9904 53.9663 67.0001C53.0801 67.0098 52.1981 67.0001 51.3119 66.971C50.4257 66.9418 49.5605 66.9288 48.6533 66.877Z" fill="#C7C7C7"/>
<path d="M129.923 69.9841C130.931 69.9323 131.935 69.9096 132.943 69.8901C133.951 69.8707 134.954 69.8739 135.962 69.861C136.97 69.848 137.974 69.861 138.982 69.8901C139.99 69.9193 140.994 69.9323 141.998 69.9841C140.994 70.0359 139.986 70.0586 138.982 70.0781C137.978 70.0975 136.966 70.0781 135.962 70.104C134.959 70.1299 133.951 70.104 132.943 70.0781C131.935 70.0521 130.931 70.0262 129.923 69.9841Z" fill="#C7C7C7"/>
<path d="M114.556 69.9841C115.656 69.9323 116.756 69.9096 117.861 69.8901C118.966 69.8707 120.066 69.8739 121.166 69.861C122.267 69.848 123.371 69.861 124.476 69.8901C125.581 69.9193 126.681 69.9323 127.781 69.9841C126.681 70.0359 125.576 70.0586 124.476 70.0781C123.376 70.0975 122.271 70.0781 121.166 70.104C120.062 70.1299 118.961 70.104 117.861 70.0781C116.761 70.0521 115.656 70.0262 114.556 69.9841Z" fill="#C7C7C7"/>
<path d="M102.964 69.984C103.716 69.9322 104.467 69.9095 105.219 69.89C105.971 69.8706 106.719 69.8641 107.47 69.8609C108.222 69.8576 108.97 69.8609 109.722 69.89C110.473 69.9192 111.225 69.9322 111.973 69.984C111.225 70.0358 110.473 70.0585 109.722 70.078C108.97 70.0974 108.222 70.1039 107.47 70.1039C106.719 70.1039 105.967 70.1039 105.219 70.078C104.472 70.052 103.716 70.0261 102.964 69.984Z" fill="#C7C7C7"/>
<path d="M89.2334 69.9841C90.1994 69.9323 91.1654 69.9096 92.1314 69.8901C93.0974 69.8707 94.0592 69.8739 95.0252 69.861C95.9912 69.848 96.9572 69.861 97.9232 69.8901C98.8892 69.9193 99.851 69.9323 100.817 69.9841C99.851 70.0359 98.885 70.0586 97.9232 70.0781C96.9614 70.0975 95.9912 70.0781 95.0252 70.104C94.0592 70.1299 93.0974 70.104 92.1314 70.0781C91.1654 70.0521 90.1994 70.0262 89.2334 69.9841Z" fill="#C7C7C7"/>
<path d="M80.8379 69.984C82.8174 69.8198 84.814 69.8198 86.7935 69.984C85.805 70.0707 84.8105 70.1108 83.8157 70.1038C82.8209 70.1092 81.8266 70.0691 80.8379 69.984Z" fill="#C7C7C7"/>
<path d="M66.0156 69.9841C67.0194 69.9323 68.0274 69.9096 69.0354 69.8901C70.0434 69.8707 71.0472 69.8739 72.0552 69.861C73.0632 69.848 74.067 69.861 75.075 69.8901C76.083 69.9193 77.0868 69.9323 78.0948 69.9841C77.0868 70.0359 76.0788 70.0586 75.075 70.0781C74.0712 70.0975 73.059 70.0781 72.0552 70.104C71.0514 70.1299 70.0392 70.104 69.0354 70.0781C68.0316 70.0521 67.0194 70.0262 66.0156 69.9841Z" fill="#C7C7C7"/>
<path d="M48.6533 69.9841C49.8881 69.9323 51.1187 69.9096 52.3493 69.8901C53.5799 69.8707 54.8105 69.8739 56.0453 69.861C57.2801 69.848 58.5065 69.861 59.7371 69.8901C60.9677 69.9193 62.2025 69.9323 63.4331 69.9841C62.2025 70.0359 60.9677 70.0586 59.7371 70.0781C58.5065 70.0975 57.2759 70.0781 56.0453 70.104C54.8147 70.1299 53.5799 70.104 52.3493 70.0781C51.1187 70.0521 49.8881 70.0262 48.6533 69.9841Z" fill="#C7C7C7"/>
<path d="M141.998 76.1788C143.623 76.1269 145.245 76.1043 146.866 76.0848L151.734 76.0557L156.601 76.0848C158.223 76.1043 159.844 76.1269 161.469 76.1788C159.844 76.2274 158.223 76.2501 156.601 76.2695L151.734 76.2987L146.866 76.2695C145.245 76.2501 143.64 76.2274 141.998 76.1788Z" fill="#C7C7C7"/>
<path d="M118.101 76.1788C119.902 76.1269 121.708 76.1043 123.51 76.0848L128.924 76.0557L134.338 76.0848C136.14 76.1043 137.946 76.1269 139.747 76.1788C137.946 76.2274 136.14 76.2501 134.338 76.2695L128.924 76.2987L123.51 76.2695C121.708 76.2501 119.902 76.2274 118.101 76.1788Z" fill="#C7C7C7"/>
<path d="M101.338 76.179C102.543 76.1272 103.744 76.1045 104.946 76.0851C106.147 76.0656 107.352 76.0656 108.558 76.0559C109.763 76.0462 110.96 76.0559 112.165 76.0851C113.371 76.1142 114.568 76.1272 115.773 76.179C114.568 76.2276 113.367 76.2503 112.165 76.2697C110.964 76.2892 109.759 76.2892 108.558 76.2989C107.356 76.3086 106.151 76.2989 104.946 76.2697C103.74 76.2406 102.543 76.2276 101.338 76.179Z" fill="#C7C7C7"/>
<path d="M89.6455 76.1788C90.4057 76.127 91.1617 76.1043 91.9219 76.0849C92.6821 76.0654 93.4381 76.0589 94.1983 76.0557C94.9585 76.0525 95.7145 76.0557 96.4705 76.0849C97.2265 76.114 97.9909 76.127 98.7469 76.1788C97.9909 76.2274 97.2307 76.2501 96.4705 76.2695C95.7103 76.289 94.9543 76.2955 94.1983 76.2987C93.4423 76.3019 92.6779 76.2987 91.9219 76.2695C91.1659 76.2404 90.4057 76.2274 89.6455 76.1788Z" fill="#C7C7C7"/>
<path d="M69.7207 76.179C71.1865 76.1272 72.6607 76.1045 74.1223 76.0851C75.5839 76.0656 77.0623 76.0656 78.5239 76.0559C79.9855 76.0462 81.4639 76.0559 82.9255 76.0851C84.3871 76.1142 85.8655 76.1272 87.3271 76.179C85.8613 76.2276 84.3871 76.2503 82.9255 76.2697C81.4639 76.2892 79.9855 76.2892 78.5239 76.2989C77.0623 76.3086 75.5839 76.2989 74.1223 76.2697C72.6607 76.2406 71.1949 76.2276 69.7207 76.179Z" fill="#C7C7C7"/>
<path d="M57.54 76.1788C58.38 76.127 59.262 76.1043 60.123 76.0849C60.984 76.0654 61.845 76.0589 62.706 76.0557C63.567 76.0525 64.428 76.0557 65.2932 76.0849C66.1584 76.114 67.0152 76.127 67.8762 76.1788C67.0362 76.2274 66.1542 76.2501 65.2932 76.2695C64.4322 76.289 63.567 76.2955 62.706 76.2987C61.845 76.3019 60.984 76.2987 60.123 76.2695C59.262 76.2404 58.38 76.2274 57.54 76.1788Z" fill="#C7C7C7"/>
<path d="M48.6533 76.1788C49.1867 76.127 49.7201 76.1043 50.2535 76.0849C50.7869 76.0654 51.3203 76.0589 51.8537 76.0557C52.3871 76.0525 52.9205 76.0557 53.4497 76.0849C53.9789 76.114 54.5165 76.127 55.0499 76.1788C54.5165 76.2274 53.9831 76.2501 53.4497 76.2695C52.9163 76.289 52.3871 76.2955 51.8537 76.2987C51.3203 76.3019 50.7869 76.2987 50.2535 76.2695C49.7201 76.2404 49.1867 76.2274 48.6533 76.1788Z" fill="#C7C7C7"/>
<path d="M135.605 79.2764C136.626 79.2278 137.651 79.2051 138.671 79.1856C139.692 79.1662 140.717 79.1662 141.742 79.1565C142.766 79.1468 143.787 79.1565 144.812 79.1856C145.837 79.2148 146.857 79.2278 147.878 79.2764C146.857 79.3282 145.832 79.3509 144.812 79.3703C143.791 79.3898 142.766 79.3898 141.742 79.3995C140.717 79.4092 139.696 79.3995 138.671 79.3703C137.647 79.3412 136.626 79.3282 135.605 79.2764Z" fill="#C7C7C7"/>
<path d="M123.594 79.2762C124.354 79.2276 125.114 79.2049 125.874 79.1854C126.635 79.166 127.395 79.1595 128.155 79.1563C128.915 79.153 129.675 79.1563 130.436 79.1854C131.196 79.2146 131.956 79.2276 132.716 79.2762C131.956 79.328 131.196 79.3507 130.436 79.3701C129.675 79.3896 128.915 79.396 128.155 79.3993C127.395 79.4025 126.635 79.3993 125.874 79.3701C125.114 79.341 124.354 79.328 123.594 79.2762Z" fill="#C7C7C7"/>
<path d="M112.208 79.2762C112.905 79.2276 113.607 79.2049 114.308 79.1854C115.009 79.166 115.711 79.1595 116.408 79.1563C117.105 79.153 117.811 79.1563 118.508 79.1854C119.205 79.2146 119.911 79.2276 120.608 79.2762C119.907 79.328 119.205 79.3507 118.508 79.3701C117.811 79.3896 117.105 79.396 116.408 79.3993C115.711 79.4025 115.005 79.3993 114.308 79.3701C113.611 79.341 112.905 79.328 112.208 79.2762Z" fill="#C7C7C7"/>
<path d="M98.0371 79.2764C99.0325 79.2278 100.028 79.2051 101.023 79.1856C102.019 79.1662 103.018 79.1662 104.014 79.1565C105.009 79.1468 106.005 79.1565 107 79.1856C107.995 79.2148 108.991 79.2278 109.99 79.2764C108.991 79.3282 107.995 79.3509 107 79.3703C106.005 79.3898 105.009 79.3898 104.014 79.3995C103.018 79.4092 102.019 79.3995 101.023 79.3703C100.028 79.3412 99.0325 79.3282 98.0371 79.2764Z" fill="#C7C7C7"/>
<path d="M88.541 79.2762C89.1542 79.2276 89.7632 79.2049 90.3764 79.1854C90.9896 79.166 91.5986 79.1595 92.2118 79.1563C92.825 79.153 93.4382 79.1563 94.0472 79.1854C94.6562 79.2146 95.2736 79.2276 95.8826 79.2762C95.2736 79.328 94.6604 79.3507 94.0472 79.3701C93.434 79.3896 92.825 79.396 92.2118 79.3993C91.5986 79.4025 90.9896 79.3993 90.3764 79.3701C89.7632 79.341 89.1542 79.328 88.541 79.2762Z" fill="#C7C7C7"/>
<path d="M74.8818 79.2764C75.8016 79.2278 76.7172 79.2051 77.6328 79.1856C78.5484 79.1662 79.4682 79.1662 80.3838 79.1565C81.2994 79.1468 82.215 79.1565 83.1306 79.1856C84.0462 79.2148 84.966 79.2278 85.8816 79.2764C84.966 79.3282 84.0504 79.3509 83.1306 79.3703C82.2108 79.3898 81.2994 79.3898 80.3838 79.3995C79.4682 79.4092 78.5484 79.3995 77.6328 79.3703C76.7172 79.3412 75.8016 79.3282 74.8818 79.2764Z" fill="#C7C7C7"/>
<path d="M63.7988 79.2762C64.5464 79.2276 65.294 79.2049 66.0416 79.1854C66.7892 79.166 67.5368 79.1595 68.2844 79.1563C69.032 79.153 69.7796 79.1563 70.5272 79.1854C71.2748 79.2146 72.0182 79.2276 72.7658 79.2762C72.0182 79.328 71.2706 79.3507 70.5272 79.3701C69.7838 79.3896 69.032 79.396 68.2844 79.3993C67.5368 79.4025 66.7892 79.3993 66.0416 79.3701C65.294 79.341 64.5464 79.328 63.7988 79.2762Z" fill="#C7C7C7"/>
<path d="M48.6533 79.2764C49.6865 79.2278 50.7155 79.2051 51.7445 79.1856C52.7735 79.1662 53.8067 79.1662 54.8399 79.1565C55.8731 79.1468 56.8979 79.1565 57.9311 79.1856C58.9643 79.2148 59.9933 79.2278 61.0223 79.2764C59.9933 79.3282 58.9601 79.3509 57.9311 79.3703C56.9021 79.3898 55.8689 79.3898 54.8399 79.3995C53.8109 79.4092 52.7777 79.3995 51.7445 79.3703C50.7113 79.3412 49.6865 79.3282 48.6533 79.2764Z" fill="#C7C7C7"/>
<path d="M94.8915 32.614H93.3627L93.0519 33.262C93.0256 33.3123 92.9803 33.3553 92.9219 33.3853C92.8634 33.4154 92.7945 33.4311 92.7243 33.4305C92.6853 33.4354 92.6456 33.4354 92.6067 33.4305C92.5586 33.4179 92.5145 33.3975 92.4774 33.3708C92.4403 33.344 92.411 33.3114 92.3916 33.2753C92.3721 33.2391 92.3628 33.2001 92.3644 33.1609C92.366 33.1218 92.3785 33.0833 92.4009 33.0481L93.7953 30.184C93.824 30.1342 93.8708 30.0918 93.9301 30.0621C93.9893 30.0324 94.0585 30.0166 94.1292 30.0166C94.1999 30.0166 94.269 30.0324 94.3283 30.0621C94.3875 30.0918 94.4344 30.1342 94.4631 30.184L95.8533 33.0481C95.8837 33.1157 95.8794 33.1897 95.8411 33.2548C95.8028 33.32 95.7334 33.3713 95.6475 33.3981C95.6072 33.4034 95.566 33.4034 95.5257 33.3981C95.4564 33.3988 95.3886 33.383 95.3315 33.3528C95.2744 33.3227 95.2307 33.2796 95.2065 33.2296L94.8915 32.614ZM94.6353 32.0761L94.1229 31.0296L93.6147 32.0761H94.6353Z" fill="#C7C7C7"/>
<path d="M99.6285 33.0125C99.6516 33.0778 99.642 33.1474 99.6015 33.2075C99.561 33.2675 99.4927 33.3136 99.4101 33.3365C99.364 33.3399 99.3176 33.3399 99.2715 33.3365C99.1857 33.3368 99.1014 33.3189 99.0279 33.2846C98.9432 33.2413 98.8739 33.1822 98.8263 33.1129C98.7237 32.9291 98.6777 32.7295 98.6919 32.5297C98.6935 32.4564 98.6672 32.3843 98.6163 32.3223C98.5686 32.2641 98.5039 32.2153 98.4273 32.1798C98.319 32.126 98.1997 32.0866 98.0745 32.0631H97.3311V33.1194C97.3305 33.1547 97.321 33.1896 97.303 33.2221C97.2849 33.2545 97.2588 33.2839 97.226 33.3086C97.1933 33.3333 97.1545 33.3527 97.112 33.3658C97.0695 33.379 97.0241 33.3855 96.9783 33.3851C96.8869 33.3851 96.7994 33.3571 96.7348 33.3073C96.6702 33.2574 96.6339 33.1899 96.6339 33.1194V30.2811C96.6328 30.2459 96.6409 30.2108 96.6577 30.178C96.6746 30.1452 96.6998 30.1153 96.732 30.0902C96.7641 30.0651 96.8025 30.0453 96.8448 30.0319C96.8872 30.0185 96.9325 30.0118 96.9783 30.0122H98.1081C98.2858 30.0122 98.4618 30.0393 98.626 30.092C98.7901 30.1447 98.9391 30.2219 99.0644 30.3191C99.1897 30.4164 99.2888 30.5318 99.3561 30.6588C99.4233 30.7857 99.4574 30.9216 99.4563 31.0587C99.456 31.2114 99.4118 31.3621 99.3268 31.4999C99.2418 31.6378 99.1182 31.7593 98.9649 31.8558C99.049 31.9063 99.1227 31.9664 99.1833 32.034C99.3204 32.1886 99.3937 32.3716 99.3933 32.5589C99.386 32.6554 99.3945 32.7523 99.4185 32.8472C99.468 32.8599 99.5129 32.8815 99.5495 32.9102C99.586 32.939 99.6131 32.974 99.6285 33.0125ZM98.7465 31.0685C98.747 31.0025 98.7308 30.9371 98.6985 30.876C98.6663 30.8149 98.6189 30.7593 98.5588 30.7124C98.4987 30.6655 98.4273 30.6281 98.3485 30.6025C98.2697 30.5769 98.1852 30.5635 98.0997 30.563H97.3227V31.5642H98.0997C98.1853 31.5642 98.2701 31.5511 98.3492 31.5256C98.4282 31.5001 98.4999 31.4628 98.56 31.4158C98.6202 31.3687 98.6677 31.313 98.6997 31.2517C98.7317 31.1904 98.7476 31.1248 98.7465 31.0587V31.0685Z" fill="#C7C7C7"/>
<path d="M103.219 30.5533H102.22V33.1453C102.21 33.2111 102.17 33.272 102.106 33.3161C102.042 33.3603 101.959 33.3848 101.873 33.3848C101.787 33.3848 101.704 33.3603 101.641 33.3161C101.577 33.272 101.536 33.2111 101.527 33.1453V30.5533H100.531C100.438 30.5525 100.35 30.5234 100.284 30.4725C100.219 30.4215 100.183 30.3528 100.183 30.2811C100.182 30.2457 100.191 30.2105 100.208 30.1777C100.225 30.1449 100.251 30.1151 100.283 30.09C100.316 30.065 100.355 30.0452 100.397 30.0318C100.44 30.0185 100.485 30.0118 100.531 30.0122H103.219C103.265 30.0122 103.31 30.0192 103.353 30.0327C103.395 30.0462 103.433 30.066 103.466 30.091C103.498 30.116 103.524 30.1456 103.541 30.1782C103.559 30.2109 103.568 30.2458 103.568 30.2811C103.567 30.3525 103.53 30.4208 103.465 30.4716C103.4 30.5223 103.312 30.5516 103.219 30.5533Z" fill="#C7C7C7"/>
<path d="M104.651 30.2811C104.65 30.2459 104.658 30.2108 104.675 30.178C104.692 30.1452 104.717 30.1153 104.75 30.0902C104.782 30.0651 104.82 30.0453 104.862 30.0319C104.905 30.0185 104.95 30.0118 104.996 30.0122C105.089 30.0122 105.178 30.0405 105.244 30.0908C105.31 30.1411 105.348 30.2095 105.349 30.2811V33.1485C105.348 33.1839 105.339 33.2188 105.321 33.2512C105.303 33.2837 105.276 33.3131 105.244 33.3378C105.211 33.3624 105.172 33.3819 105.13 33.395C105.087 33.4081 105.042 33.4147 104.996 33.4142C104.95 33.4147 104.905 33.4081 104.863 33.3949C104.821 33.3817 104.783 33.3621 104.751 33.3374C104.719 33.3126 104.694 33.2832 104.677 33.2507C104.659 33.2183 104.651 33.1836 104.651 33.1485V30.2811Z" fill="#C7C7C7"/>
<path d="M106.332 31.6647C106.345 31.1977 106.595 30.7532 107.027 30.4262C107.46 30.0993 108.041 29.9158 108.646 29.9151C109.172 29.9131 109.683 30.0465 110.099 30.2941C110.171 30.3409 110.218 30.4069 110.23 30.479C110.241 30.5511 110.217 30.6239 110.162 30.6829C110.104 30.7409 110.019 30.779 109.925 30.7893C109.831 30.7996 109.735 30.7812 109.658 30.738C109.372 30.5595 109.014 30.4643 108.646 30.4691C108.225 30.4719 107.82 30.5968 107.512 30.819C107.367 30.9294 107.251 31.061 107.172 31.2062C107.092 31.3513 107.051 31.5072 107.05 31.6647C107.05 31.8223 107.091 31.9784 107.17 32.1237C107.249 32.2689 107.366 32.4004 107.512 32.5103C107.82 32.7326 108.225 32.8575 108.646 32.8602C109.014 32.8657 109.372 32.7717 109.658 32.5945C109.736 32.5533 109.83 32.5357 109.923 32.5453C110.017 32.5549 110.102 32.5909 110.162 32.6464C110.218 32.7051 110.243 32.7781 110.231 32.8505C110.22 32.9228 110.172 32.9889 110.099 33.0352C109.684 33.2842 109.172 33.4177 108.646 33.4143C108.04 33.416 107.457 33.2334 107.024 32.9059C106.59 32.5784 106.342 32.1325 106.332 31.6647Z" fill="#C7C7C7"/>
<path d="M111.385 33.1485V30.2811C111.385 30.2098 111.421 30.1414 111.487 30.091C111.552 30.0405 111.641 30.0122 111.733 30.0122C111.826 30.0122 111.915 30.0404 111.981 30.0908C112.047 30.1411 112.085 30.2095 112.086 30.2811V32.8731H113.791C113.837 32.8731 113.882 32.8801 113.925 32.8936C113.967 32.9071 114.005 32.9269 114.038 32.9519C114.07 32.9769 114.096 33.0065 114.113 33.0391C114.131 33.0718 114.14 33.1067 114.14 33.142C114.14 33.1774 114.131 33.2123 114.113 33.245C114.096 33.2776 114.07 33.3072 114.038 33.3322C114.005 33.3572 113.967 33.377 113.925 33.3905C113.882 33.404 113.837 33.411 113.791 33.411H111.721C111.632 33.4093 111.547 33.381 111.484 33.3321C111.421 33.2831 111.386 33.2173 111.385 33.1485Z" fill="#C7C7C7"/>
<path d="M114.934 33.1485V30.2811C114.933 30.2459 114.941 30.2108 114.958 30.178C114.974 30.1452 115 30.1153 115.032 30.0902C115.064 30.0651 115.102 30.0453 115.145 30.0319C115.187 30.0185 115.232 30.0118 115.278 30.0122H117.34C117.432 30.0131 117.52 30.0418 117.584 30.0921C117.649 30.1425 117.685 30.2104 117.685 30.2811C117.684 30.352 117.647 30.4198 117.583 30.4705C117.519 30.5211 117.432 30.5508 117.34 30.5533H115.631V31.4281H117.101C117.187 31.4354 117.267 31.4671 117.325 31.517C117.383 31.5669 117.415 31.6316 117.415 31.6986C117.415 31.7657 117.383 31.8304 117.325 31.8803C117.267 31.9302 117.187 31.9619 117.101 31.9692H115.631V32.8634H117.34C117.433 32.8634 117.521 32.8918 117.587 32.9422C117.652 32.9926 117.689 33.061 117.689 33.1323C117.689 33.2037 117.652 33.2721 117.587 33.3225C117.521 33.3729 117.433 33.4013 117.34 33.4013H115.278C115.19 33.4013 115.104 33.3751 115.04 33.3281C114.976 33.281 114.938 33.2167 114.934 33.1485Z" fill="#C7C7C7"/>
<path d="M123.207 32.1863L127.991 32.128L132.77 32.0956L142.334 32.0664L151.897 32.0956L156.677 32.128L161.461 32.1863L156.677 32.2478L151.897 32.2802L142.334 32.3094L132.77 32.2802L127.991 32.2478L123.207 32.1863Z" fill="#C7C7C7"/>
<path d="M48.54 32.1863L53.3238 32.128L58.1034 32.0956L67.6668 32.0664L77.2302 32.0956L82.0098 32.128L86.7936 32.1863L82.0098 32.2478L77.2302 32.2802L67.6668 32.3094L58.1034 32.2802L53.3238 32.2478L48.54 32.1863Z" fill="#C7C7C7"/>
<path d="M55.9484 36.6768H48.9512V42.0746H55.9484V36.6768Z" fill="#EBEBEB"/>
<path d="M173.394 20.208H36.9189V26.0238H173.394V20.208Z" fill="#ECAB5A"/>
<path d="M123.141 84.9072H88.541V92.437H123.141V84.9072Z" fill="#EBEBEB"/>
<path d="M122.3 84.2593H87.7002V91.789H122.3V84.2593Z" fill="#ECAB5A"/>
<path d="M96.4749 88.2447H95.8827V89.045C95.8827 89.0991 95.8548 89.1511 95.8052 89.1893C95.7556 89.2276 95.6883 89.2491 95.6181 89.2491C95.5479 89.2491 95.4806 89.2276 95.431 89.1893C95.3814 89.1511 95.3535 89.0991 95.3535 89.045V86.8645C95.3535 86.8378 95.3604 86.8114 95.3737 86.7869C95.3871 86.7623 95.4066 86.74 95.4313 86.7213C95.4559 86.7026 95.4851 86.6878 95.5172 86.6779C95.5493 86.668 95.5836 86.6632 95.6181 86.6636H96.4581C96.7299 86.6636 96.9906 86.7469 97.1828 86.8952C97.3749 87.0434 97.4829 87.2445 97.4829 87.4542C97.4829 87.6638 97.3749 87.8649 97.1828 88.0132C96.9906 88.1614 96.7299 88.2447 96.4581 88.2447H96.4749ZM95.8827 87.8332H96.4749C96.5394 87.8337 96.6035 87.8243 96.6633 87.8056C96.7231 87.787 96.7776 87.7594 96.8236 87.7245C96.8696 87.6896 96.9063 87.648 96.9315 87.6022C96.9567 87.5564 96.97 87.5072 96.9705 87.4574C96.9711 87.4069 96.9587 87.3569 96.934 87.3101C96.9093 87.2633 96.8729 87.2208 96.8269 87.185C96.7808 87.1491 96.726 87.1207 96.6655 87.1012C96.6051 87.0818 96.5404 87.0718 96.4749 87.0718H95.8827V87.8332Z" fill="#F6F6F6"/>
<path d="M99.5403 89.2492C99.3583 89.2492 99.1781 89.2215 99.0099 89.1678C98.8417 89.1141 98.689 89.0353 98.5602 88.936C98.4315 88.8367 98.3295 88.7189 98.2598 88.5892C98.1902 88.4594 98.1543 88.3204 98.1543 88.18V86.8646C98.1543 86.8379 98.1612 86.8115 98.1745 86.7869C98.1879 86.7623 98.2074 86.7401 98.232 86.7214C98.2567 86.7027 98.2859 86.6879 98.318 86.678C98.35 86.6681 98.3844 86.6632 98.4189 86.6637C98.4536 86.6632 98.4882 86.6681 98.5205 86.678C98.5528 86.6878 98.5823 86.7025 98.6072 86.7212C98.6322 86.7398 98.6522 86.7621 98.666 86.7867C98.6798 86.8113 98.6872 86.8378 98.6877 86.8646V88.18C98.6877 88.3544 98.7775 88.5217 98.9374 88.6451C99.0973 88.7684 99.3142 88.8377 99.5403 88.8377C99.7664 88.8377 99.9833 88.7684 100.143 88.6451C100.303 88.5217 100.393 88.3544 100.393 88.18V86.8646C100.393 86.8376 100.4 86.811 100.413 86.7862C100.427 86.7614 100.447 86.7389 100.472 86.7202C100.497 86.7014 100.527 86.6868 100.559 86.6771C100.592 86.6674 100.627 86.6628 100.662 86.6637C100.696 86.6632 100.73 86.6681 100.762 86.6781C100.794 86.688 100.823 86.7028 100.847 86.7215C100.871 86.7403 100.891 86.7626 100.903 86.7872C100.916 86.8117 100.923 86.8381 100.922 86.8646V88.18C100.922 88.463 100.777 88.7345 100.518 88.9349C100.259 89.1353 99.9072 89.2483 99.5403 89.2492Z" fill="#F6F6F6"/>
<path d="M102.061 89.045V86.8645C102.061 86.8112 102.088 86.7601 102.137 86.7224C102.186 86.6847 102.252 86.6636 102.321 86.6636H103.001C103.17 86.6639 103.335 86.7002 103.478 86.7686C103.622 86.8369 103.738 86.9346 103.814 87.0508C103.889 87.1669 103.922 87.297 103.907 87.4266C103.893 87.5561 103.832 87.6801 103.732 87.7846C103.879 87.8565 104 87.9555 104.084 88.0726C104.168 88.1897 104.214 88.3213 104.215 88.4553C104.215 88.6653 104.107 88.8667 103.915 89.0155C103.723 89.1642 103.463 89.2482 103.19 89.2491H102.321C102.251 89.2482 102.185 89.2264 102.137 89.1882C102.088 89.15 102.061 89.0985 102.061 89.045ZM102.59 87.6647H103.01C103.111 87.663 103.208 87.6304 103.279 87.574C103.35 87.5176 103.389 87.4419 103.388 87.3634C103.388 87.2861 103.348 87.2119 103.277 87.1572C103.206 87.1025 103.11 87.0718 103.01 87.0718H102.59V87.6647ZM102.59 88.8376H103.19C103.322 88.8376 103.448 88.7973 103.541 88.7256C103.634 88.6539 103.686 88.5567 103.686 88.4553C103.686 88.3539 103.634 88.2567 103.541 88.185C103.448 88.1133 103.322 88.073 103.19 88.073H102.59V88.8376Z" fill="#F6F6F6"/>
<path d="M104.883 89.045V86.8645C104.883 86.8112 104.91 86.7601 104.959 86.7224C105.008 86.6848 105.074 86.6636 105.143 86.6636C105.178 86.6632 105.212 86.668 105.245 86.6779C105.277 86.6878 105.307 86.7024 105.332 86.7211C105.357 86.7397 105.376 86.762 105.39 86.7866C105.404 86.8112 105.411 86.8377 105.412 86.8645V88.8376H106.71C106.775 88.8439 106.835 88.8683 106.878 88.9062C106.921 88.9441 106.945 88.9929 106.945 89.0434C106.945 89.0939 106.921 89.1427 106.878 89.1806C106.835 89.2184 106.775 89.2428 106.71 89.2491H105.143C105.074 89.2483 105.008 89.2264 104.959 89.1882C104.91 89.15 104.883 89.0986 104.883 89.045Z" fill="#F6F6F6"/>
<path d="M107.634 86.8645C107.633 86.838 107.64 86.8117 107.652 86.7871C107.665 86.7625 107.685 86.7402 107.709 86.7215C107.733 86.7027 107.762 86.6879 107.794 86.678C107.826 86.6681 107.86 86.6632 107.894 86.6636C107.929 86.6632 107.963 86.668 107.996 86.6779C108.028 86.6878 108.058 86.7024 108.083 86.7211C108.108 86.7397 108.127 86.762 108.141 86.7866C108.155 86.8112 108.162 86.8377 108.163 86.8645V89.045C108.162 89.0994 108.133 89.1513 108.083 89.1895C108.033 89.2277 107.965 89.2491 107.894 89.2491C107.86 89.2491 107.825 89.2438 107.794 89.2335C107.762 89.2232 107.733 89.2081 107.709 89.1891C107.684 89.1701 107.665 89.1476 107.652 89.1229C107.64 89.0981 107.633 89.0716 107.634 89.045V86.8645Z" fill="#F6F6F6"/>
<path d="M108.953 88.6044C108.995 88.566 109.055 88.5419 109.12 88.5371C109.185 88.5322 109.25 88.5471 109.301 88.5785C109.559 88.7466 109.88 88.8465 110.217 88.8636C110.429 88.867 110.638 88.8194 110.813 88.7275C110.874 88.7 110.924 88.6612 110.96 88.6148C110.996 88.5684 111.016 88.5158 111.019 88.4618C111.021 88.4195 111.006 88.3778 110.977 88.3419C110.94 88.2982 110.891 88.2608 110.834 88.2318C110.631 88.1447 110.409 88.0865 110.179 88.0601C109.966 88.0315 109.759 87.9825 109.562 87.9143C109.379 87.8545 109.224 87.7541 109.117 87.6259C109.043 87.5358 109.003 87.4313 109.003 87.3246C109.008 87.2173 109.045 87.1123 109.112 87.0183C109.179 86.9242 109.274 86.8438 109.39 86.7835C109.636 86.6523 109.93 86.5843 110.23 86.5891C110.607 86.6048 110.97 86.7075 111.271 86.8839C111.325 86.9122 111.362 86.9555 111.374 87.0046C111.387 87.0536 111.374 87.1046 111.338 87.1464C111.321 87.1674 111.298 87.1855 111.272 87.1997C111.245 87.2139 111.215 87.2238 111.183 87.229C111.152 87.2341 111.119 87.2343 111.087 87.2296C111.055 87.2249 111.025 87.2153 110.998 87.2015C110.779 87.0639 110.511 86.9814 110.23 86.9649C110.038 86.9621 109.849 87.0063 109.692 87.0913C109.64 87.116 109.596 87.1501 109.564 87.1907C109.533 87.2314 109.515 87.2773 109.511 87.3246C109.508 87.361 109.52 87.3973 109.545 87.4283C109.579 87.4664 109.624 87.4985 109.675 87.5222C109.858 87.6073 110.06 87.6634 110.272 87.6875C110.5 87.7179 110.722 87.769 110.935 87.8397C111.128 87.9071 111.293 88.0135 111.414 88.1475C111.491 88.2451 111.53 88.3574 111.527 88.4715C111.522 88.5861 111.481 88.698 111.408 88.7977C111.335 88.8975 111.232 88.9823 111.107 89.045C110.848 89.1857 110.538 89.2594 110.221 89.2556C109.772 89.2371 109.342 89.1076 108.995 88.8863C108.941 88.8531 108.906 88.8049 108.898 88.752C108.89 88.6992 108.91 88.6461 108.953 88.6044Z" fill="#F6F6F6"/>
<path d="M112.25 89.0451V86.8646C112.25 86.8379 112.257 86.8115 112.27 86.7869C112.284 86.7623 112.303 86.7401 112.328 86.7214C112.352 86.7027 112.382 86.6879 112.414 86.678C112.446 86.6681 112.48 86.6633 112.515 86.6637C112.549 86.6633 112.584 86.6681 112.616 86.678C112.648 86.6878 112.678 86.7025 112.703 86.7212C112.728 86.7398 112.748 86.7621 112.762 86.7867C112.775 86.8113 112.783 86.8378 112.783 86.8646V87.7523H114.043V86.8646C114.043 86.8378 114.049 86.8112 114.062 86.7864C114.076 86.7616 114.095 86.7391 114.12 86.7203C114.145 86.7016 114.174 86.6869 114.206 86.6771C114.239 86.6674 114.273 86.6628 114.308 86.6637C114.343 86.6633 114.377 86.6681 114.41 86.678C114.442 86.6878 114.471 86.7025 114.496 86.7212C114.521 86.7398 114.541 86.7621 114.555 86.7867C114.569 86.8113 114.576 86.8378 114.577 86.8646V89.0451C114.576 89.0995 114.547 89.1514 114.497 89.1896C114.446 89.2278 114.379 89.2492 114.308 89.2492C114.273 89.2496 114.238 89.2447 114.206 89.2346C114.174 89.2244 114.144 89.2094 114.12 89.1904C114.095 89.1714 114.075 89.1487 114.062 89.1237C114.049 89.0987 114.043 89.072 114.043 89.0451V88.1573H112.783V89.0451C112.782 89.0995 112.753 89.1514 112.703 89.1896C112.653 89.2278 112.585 89.2492 112.515 89.2492C112.48 89.2492 112.445 89.2439 112.413 89.2337C112.381 89.2234 112.352 89.2084 112.327 89.1894C112.303 89.1705 112.283 89.148 112.27 89.1232C112.257 89.0984 112.25 89.0719 112.25 89.0451Z" fill="#F6F6F6"/>
<path d="M109.7 95.781L111.477 99.0955L109.7 99.6625L107.915 96.3253L104.979 98.0846V88.7534L113.447 95.3501L109.7 95.781Z" fill="#263238"/>
<path d="M105 87.736C104.854 87.4329 104.854 87.0995 105 86.7964C105.146 87.0995 105.146 87.4329 105 87.736Z" fill="#263238"/>
<path d="M103.954 88.0695C103.581 87.932 103.283 87.6966 103.114 87.4053C103.483 87.5476 103.779 87.7816 103.954 88.0695Z" fill="#263238"/>
<path d="M103.518 88.8764C103.126 88.9886 102.695 88.9886 102.304 88.8764C102.696 88.7684 103.125 88.7684 103.518 88.8764Z" fill="#263238"/>
<path d="M103.954 89.6865C103.779 89.9744 103.483 90.2084 103.114 90.3507C103.283 90.0594 103.581 89.824 103.954 89.6865Z" fill="#263238"/>
<path d="M106.482 88.8764C106.875 88.7684 107.304 88.7684 107.696 88.8764C107.305 88.9886 106.874 88.9886 106.482 88.8764Z" fill="#263238"/>
<path d="M106.046 88.0695C106.221 87.7816 106.517 87.5476 106.886 87.4053C106.717 87.6966 106.419 87.932 106.046 88.0695Z" fill="#263238"/>
<path d="M77.8092 84.9885C78.5239 84.6896 79.1131 84.2394 79.5074 83.6909C79.9018 83.1425 80.0847 82.5185 80.0349 81.8925C79.985 81.2665 79.7044 80.6646 79.226 80.1575C78.7476 79.6503 78.0914 79.2592 77.3346 79.0301C78.7836 78.2784 79.7202 77.0181 79.1616 75.6119C78.582 74.1571 76.7298 73.4541 74.8566 73.6679V73.6873C76.5912 73.6355 78.3426 74.3353 78.855 75.6735C79.275 76.8269 78.687 77.7795 77.679 78.4923C77.9969 78.0574 78.1957 77.5767 78.2628 77.0801C78.33 76.5835 78.2643 76.0816 78.0696 75.6054C77.831 75.0816 77.3971 74.6239 76.8226 74.2896C76.248 73.9552 75.5582 73.7593 74.8398 73.7262C74.9406 72.4561 74.4702 71.0727 73.1598 70.2367C72.6173 69.8832 71.9532 69.6591 71.2484 69.5918C70.5436 69.5244 69.8287 69.6168 69.1908 69.8577C69.0994 69.2451 68.7772 68.6666 68.264 68.1939C67.7507 67.7212 67.0691 67.3749 66.3034 67.198C65.5376 67.0211 64.7215 67.0213 63.9559 67.1986C63.1903 67.3759 62.509 67.7225 61.9962 68.1955C61.8721 67.7625 61.6089 67.3605 61.2306 67.0265C60.8524 66.6926 60.3713 66.4373 59.8317 66.2844C59.2921 66.1314 58.7113 66.0856 58.1428 66.1512C57.5742 66.2168 57.0362 66.3917 56.5782 66.6598C56.4018 66.3472 56.1131 66.08 55.7462 65.89C55.3792 65.6999 54.9494 65.5949 54.5076 65.5873C53.466 65.5485 52.5462 65.9923 51.7986 66.5205C51.4214 66.315 50.9834 66.186 50.5247 66.1452C50.066 66.1045 49.6014 66.1533 49.1736 66.2872C48.6304 66.4765 48.1918 66.8083 47.9358 67.2236C47.6797 67.6388 47.6227 68.1106 47.775 68.5552C46.137 68.701 44.3856 69.0347 43.2558 70.0197C42.3276 70.8329 41.9202 72.0447 42.567 73.0296C41.8871 73.1618 41.2513 73.4038 40.7014 73.7394C40.1516 74.0751 39.7003 74.4969 39.3772 74.9769C39.0542 75.457 38.8667 75.9845 38.8272 76.5245C38.7878 77.0645 38.8971 77.6049 39.1482 78.1099C38.6249 78.3543 38.1941 78.7006 37.8992 79.1141C37.6043 79.5276 37.4557 79.9936 37.4682 80.4654C37.453 81.1151 37.6432 81.7579 38.0226 82.3381C37.5781 82.5835 37.2446 82.9303 37.0691 83.3296C36.8935 83.7289 36.8847 84.1607 37.044 84.564C37.2109 84.9349 37.4825 85.2726 37.8391 85.5528C38.1957 85.8329 38.6285 86.0485 39.1062 86.184C39.2707 86.3796 39.3768 86.6009 39.417 86.832C39.5197 87.4031 39.8035 87.9457 40.243 88.412C40.6826 88.8782 41.2644 89.2537 41.937 89.505C41.8732 89.8399 41.9024 90.1815 42.0227 90.507C42.143 90.8326 42.3517 91.1347 42.6349 91.3933C42.9181 91.6518 43.2693 91.861 43.6653 92.0069C44.0612 92.1529 44.4929 92.2322 44.9316 92.2396C45.0765 92.9354 45.5705 93.5593 46.3069 93.9765C47.0434 94.3936 47.963 94.5704 48.867 94.4687C49.0367 95.0147 49.3566 95.5262 49.8052 95.9684C50.2538 96.4107 50.8205 96.7732 51.4668 97.0315C52.4748 97.4236 53.8188 97.5273 54.6924 96.9343C54.978 97.5823 56.049 97.7994 56.8806 97.6212C57.1948 97.5476 57.4976 97.4476 57.7836 97.3231C58.1208 97.1283 58.4986 96.9793 58.9008 96.8825C59.3208 96.8371 59.703 97.038 60.0726 97.1255C60.3466 97.1872 60.6281 97.2274 60.9126 97.2454C61.9575 97.292 62.992 97.0635 63.8466 96.5973C64.7012 96.1311 65.3253 95.4548 65.6166 94.6793C67.0572 95.0033 68.4516 94.3391 69.3714 93.4935C69.6628 93.2148 69.9215 92.9166 70.1442 92.6025C70.3225 92.3097 70.6166 92.068 70.9842 91.9123C71.2278 91.8184 71.5008 91.7665 71.7444 91.6726C72.5844 91.3486 72.9414 90.7265 73.2144 90.0785C77.091 90.8334 79.4808 87.5189 77.8092 84.9885ZM37.5438 84.8362C37.2978 84.4394 37.2174 83.9936 37.3137 83.5601C37.41 83.1266 37.6782 82.7268 38.0814 82.4159L38.157 82.5099C38.157 82.5099 37.9806 82.7658 37.9092 82.8987C37.7867 83.1437 37.7117 83.4014 37.6866 83.6633C37.63 84.2096 37.7849 84.7565 38.1318 85.2347C38.2903 85.4445 38.4822 85.6383 38.703 85.8114L38.7786 85.8762C38.2486 85.6259 37.8206 85.2654 37.5438 84.8362ZM49.9254 66.6922C49.4021 66.8074 48.9377 67.0444 48.5956 67.3709C48.2536 67.6974 48.0506 68.0974 48.0144 68.5163H47.9262C47.8254 67.6415 48.048 66.825 49.2618 66.433C49.6375 66.3152 50.0467 66.2757 50.4484 66.3183C50.8501 66.361 51.2303 66.4843 51.5508 66.676C51.0166 66.5666 50.4533 66.5756 49.9254 66.7019V66.6922ZM73.248 89.9424C73.248 89.9424 73.248 89.923 73.248 89.91C74.4927 89.8941 75.6804 89.5044 76.5587 88.8238C77.437 88.1432 77.9369 87.2253 77.952 86.265C78.12 88.3905 76.6626 90.2988 73.248 89.9424Z" fill="#263238"/>
<path d="M58.7 105.948C62.354 117.936 69.8426 132.266 73.0136 134.586C77.0204 137.518 103.514 141.241 104.833 141.345C108.092 141.585 114.438 125.035 110.965 124.662C105.677 124.095 86.4536 123.366 85.2944 122.459C84.1352 121.552 75.9284 113.656 67.5284 104.775C61.7408 98.632 56.432 98.5121 58.7 105.948Z" fill="#E2AF86"/>
<path d="M103.035 140.519C103.384 140.655 108.373 142.563 111.456 143.24C113.754 143.742 120.423 145.055 121.393 143.159C122.057 141.863 118.252 140.736 115.585 139.893C114.182 139.446 112.447 138.322 112.855 137.625C113.569 136.407 117.185 137.625 119.575 138.669C124.174 140.707 130.314 144.381 133.103 142.573C134.157 141.892 132.918 140.661 131.108 139.456C134.048 140.856 137.164 142.003 138.37 141.277C139.067 140.865 139.096 140.305 138.702 139.657C139.605 139.877 140.382 139.832 140.953 139.375C141.898 138.604 141.427 137.476 140.382 136.32C140.557 136.303 140.724 136.254 140.87 136.177C141.016 136.101 141.137 135.998 141.222 135.879C143.217 133.507 133.107 126.762 129.625 126.139C119.377 124.306 108.592 124.701 108.592 124.701C104.581 127.205 103.027 140.512 103.035 140.519Z" fill="#E2AF86"/>
<path d="M118.021 133.187C120.459 133.47 122.792 134.152 124.862 135.186C127.466 136.482 129.201 138.037 131.389 139.586C131.401 139.594 131.408 139.605 131.409 139.617C131.409 139.63 131.404 139.642 131.393 139.651C131.383 139.66 131.368 139.665 131.352 139.666C131.336 139.666 131.321 139.662 131.309 139.654C130.268 138.918 125.946 136.151 124.833 135.526C122.82 134.367 120.49 133.578 118.021 133.219C118.021 133.216 118.021 133.184 118.021 133.187Z" fill="#263238"/>
<path d="M119.919 129.827C122.611 130.384 125.379 130.948 127.899 131.917C130.638 132.979 132.788 134.723 134.905 136.401C136.173 137.41 137.414 138.438 138.626 139.485C138.676 139.527 138.601 139.599 138.546 139.557C136.399 137.829 134.187 136.147 131.91 134.512C129.809 132.989 127.338 131.802 124.64 131.019C123.094 130.572 121.511 130.219 119.932 129.866C119.881 129.859 119.89 129.82 119.919 129.827Z" fill="#263238"/>
<path d="M122.77 126.885C125.387 127.29 127.672 127.633 129.994 128.706C133.069 130.122 136.042 132.519 137.088 133.371C138.239 134.311 139.352 135.276 140.448 136.258C140.494 136.3 140.402 136.359 140.356 136.32C137.855 134.165 135.177 132.137 132.338 130.248C131.002 129.335 129.492 128.586 127.861 128.028C126.209 127.537 124.506 127.155 122.77 126.888C122.77 126.888 122.762 126.885 122.77 126.885Z" fill="#263238"/>
<path d="M106.487 123.697L98.5069 143.568C98.5069 143.568 76.4947 138.818 72.4669 135.493C68.4391 132.169 60.9001 114.945 58.6447 106.596C56.3893 98.2464 61.8871 98.4279 66.9649 103.68C72.0427 108.932 84.6679 121.655 85.3693 121.931C86.0707 122.206 106.487 123.697 106.487 123.697Z" fill="#ECAB5A"/>
<path d="M95.945 134.528C96.848 132.309 97.7762 130.096 98.5742 127.851C99.0278 126.574 99.4898 125.301 99.9266 124.021C99.9266 123.972 99.8384 123.943 99.8174 123.992C98.7926 126.188 97.7762 128.395 96.8774 130.631C95.9786 132.866 95.0798 135.073 94.2272 137.305C93.7484 138.575 93.3158 139.852 92.9336 141.144C92.9336 141.17 92.9798 141.186 92.9924 141.161C94.118 138.996 95.0378 136.764 95.945 134.528Z" fill="#263238"/>
<path opacity="0.1" d="M87.4025 140.885L86.4281 140.626C84.5927 140.13 82.7237 139.596 80.9681 139.051L80.2961 138.841L79.2503 138.517C79.0739 138.462 78.9059 138.4 78.7337 138.345L78.5531 138.283L78.0239 138.099C77.3225 137.852 76.6589 137.609 76.0415 137.36L75.6215 137.188C74.6556 136.807 73.7436 136.35 72.8999 135.824L72.6773 135.665C72.6017 135.614 72.5345 135.559 72.4715 135.51C68.4311 132.186 60.9005 114.962 58.6619 106.609L58.5863 106.321V106.259C58.4351 105.611 58.3007 104.837 58.1873 103.991C57.8555 99.831 60.4049 99.1312 63.5717 100.955C71.5265 113.919 83.7191 135.377 87.4025 140.885Z" fill="#0C0C0C"/>
<path d="M18.5938 147.342H72.0262L61.375 99.5327H21.4162L18.5938 147.342Z" fill="#DBDBDB"/>
<path d="M18.5938 147.342H23.2767L25.9059 99.5327H21.4162L18.5938 147.342Z" fill="#A6A6A6"/>
<path d="M78.0947 147.342H22.9991C22.7555 146.497 31.4243 109.256 50.0009 98.7748C54.1253 96.4485 61.4375 97.9421 63.4703 100.204C73.6973 111.57 78.0947 147.342 78.0947 147.342Z" fill="#EBEBEB"/>
<path d="M48.7836 99.0532C48.7836 99.0532 53.6472 115.535 54.147 116.957C54.6468 118.38 56.4486 147.342 56.4486 147.342H22.5C22.5 147.342 30.1398 110.406 48.7836 99.0532Z" fill="#ECAB5A"/>
<path d="M63.4707 100.204C63.4707 100.204 65.6001 112.84 65.8521 113.572C66.1041 114.304 73.0803 147.342 73.0803 147.342H78.3681C78.3681 147.342 73.7439 109.156 63.4707 100.204Z" fill="#ECAB5A"/>
<path d="M59.4847 106.994C56.1709 107.182 51.4711 102.744 49.9423 99.4258C49.8373 99.1957 52.7017 90.9694 53.0461 89.2943C53.1175 88.9508 66.1417 93.529 66.1417 93.529C66.1417 93.529 64.0711 96.8759 63.4873 99.7919C63.4453 100.045 62.6893 106.813 59.4847 106.994Z" fill="#E2AF86"/>
<path d="M66.1416 93.5321C66.1416 93.5321 64.071 96.8758 63.4914 99.7918C63.4914 99.821 63.4914 99.9538 63.4368 100.161C61.11 99.821 54.8436 98.3014 52.416 91.4909C52.7226 90.5189 52.962 89.6992 53.046 89.2877C53.1174 88.9508 66.1416 93.5321 66.1416 93.5321Z" fill="#263238"/>
<path d="M54.5124 76.4865C52.0344 79.9371 51.6144 91.0146 54.3612 93.9501C58.3428 98.2074 66.327 99.8663 71.388 95.9135C76.2894 92.0871 76.5078 77.6431 73.3032 74.8535C68.5824 70.7549 58.179 71.3899 54.5124 76.4865Z" fill="#E2AF86"/>
<path d="M66.2297 85.7338C66.2297 85.7078 66.1499 85.7694 66.1499 85.7986C66.1499 86.5438 65.9525 87.3991 65.0621 87.613C65.0327 87.613 65.0327 87.6583 65.0621 87.6551C66.1415 87.5806 66.3599 86.4433 66.2297 85.7338Z" fill="#263238"/>
<path d="M65.4155 84.9237C63.8657 84.7746 63.5927 87.1755 65.0291 87.3148C66.4655 87.4541 66.7133 85.05 65.4155 84.9237Z" fill="#263238"/>
<path d="M71.7069 86.184C71.7069 86.1581 71.7783 86.2261 71.7699 86.2553C71.6565 86.9972 71.6859 87.8753 72.5301 88.1669C72.5553 88.1669 72.5511 88.2155 72.5301 88.209C71.4675 88.0049 71.4423 86.8579 71.7069 86.184Z" fill="#263238"/>
<path d="M72.6606 85.4517C74.2188 85.4517 74.0676 87.872 72.6228 87.859C71.178 87.8461 71.346 85.4388 72.6606 85.4517Z" fill="#263238"/>
<path d="M64.3779 84.2398C64.8025 84.2868 65.2302 84.316 65.6589 84.3273C66.1027 84.4059 66.5677 84.3695 66.9819 84.2236C67.1003 84.1586 67.1876 84.0652 67.2301 83.958C67.2727 83.8508 67.2681 83.7357 67.2171 83.6307C66.9609 83.1868 66.3771 83.0378 65.7807 82.9827C65.1938 82.9161 64.5956 83.0188 64.1007 83.2711C63.9919 83.3337 63.9089 83.4193 63.8616 83.5174C63.8143 83.6156 63.8047 83.7222 63.834 83.8245C63.8632 83.9267 63.9301 84.0203 64.0266 84.094C64.1231 84.1677 64.245 84.2183 64.3779 84.2398Z" fill="#263238"/>
<path d="M73.9961 84.3241C73.5761 84.2399 73.1981 84.107 72.7865 84.0001C72.3403 83.9283 71.9372 83.745 71.6399 83.4785C71.5661 83.3815 71.5364 83.2683 71.5554 83.1568C71.5744 83.0453 71.6411 82.9419 71.7449 82.8629C72.2153 82.5389 72.8327 82.5972 73.3955 82.7365C73.9721 82.8622 74.4666 83.15 74.7815 83.5433C74.8435 83.6356 74.87 83.7396 74.8578 83.8432C74.8455 83.9467 74.7951 84.0453 74.7125 84.1275C74.6299 84.2096 74.5185 84.2718 74.3916 84.3066C74.2646 84.3415 74.1274 84.3475 73.9961 84.3241Z" fill="#263238"/>
<path d="M64.1512 92.4666C64.3612 92.6545 64.5712 92.9105 64.9114 92.9558C65.2709 92.9752 65.6316 92.9354 65.9698 92.8392C65.977 92.8365 65.9852 92.8359 65.993 92.8374C66.0007 92.839 66.0075 92.8427 66.012 92.8478C66.0166 92.8528 66.0187 92.859 66.0178 92.8652C66.017 92.8713 66.0134 92.8771 66.0076 92.8813C65.8546 93.0176 65.6568 93.1196 65.4351 93.1766C65.2134 93.2336 64.9759 93.2435 64.7476 93.2053C64.5551 93.1528 64.3872 93.0573 64.2653 92.9309C64.1434 92.8045 64.0729 92.6531 64.063 92.4958C64.0462 92.4472 64.1218 92.4374 64.1512 92.4666Z" fill="#263238"/>
<path d="M65.415 90.3086C65.6263 90.6191 65.9187 90.8924 66.2735 91.1115C66.6284 91.3307 67.0382 91.4908 67.4772 91.5819C67.8594 91.6666 68.2555 91.7081 68.6532 91.7051C68.7299 91.7116 68.8074 91.7116 68.8842 91.7051H69.0984C69.15 91.7007 69.1985 91.6835 69.2364 91.656C69.2743 91.6285 69.2995 91.5923 69.3084 91.5528C69.3124 91.5269 69.3124 91.5008 69.3084 91.475V91.407C69.3924 90.8367 69.4176 89.9619 69.4176 89.9619C69.678 90.0851 71.0052 90.6585 71.0178 90.3572C71.1102 87.8689 71.211 85.1019 70.5978 82.6104C70.5933 82.5945 70.5819 82.5802 70.5655 82.57C70.549 82.5598 70.5286 82.5542 70.5075 82.5542C70.4864 82.5542 70.4659 82.5598 70.4495 82.57C70.433 82.5802 70.4216 82.5945 70.4172 82.6104C70.2072 84.9983 70.5474 87.4023 70.3836 89.8032C69.9125 89.5928 69.4047 89.4357 68.8758 89.3366C68.7708 89.3528 68.8758 91.0279 68.8002 91.2806C68.8027 91.2891 68.8027 91.298 68.8002 91.3065C67.5402 91.3454 66.633 90.9825 65.499 90.2633C65.4486 90.1985 65.3646 90.2438 65.415 90.3086Z" fill="#263238"/>
<path d="M76.0207 79.4318C75.7897 78.5246 75.2731 78.2783 75.2731 78.2783C75.2731 78.2783 75.4957 77.261 74.5045 75.8159C73.4713 74.3028 72.0811 73.9594 72.0811 73.9594C72.0811 73.9594 71.0857 72.8384 68.4313 72.1547C67.8181 71.9992 65.9113 71.7594 65.2981 71.8631C64.5799 71.9862 63.9163 71.6428 63.1981 71.5391C62.545 71.4564 61.8773 71.4729 61.2325 71.5877C60.6918 71.6824 60.1743 71.8432 59.6995 72.064C59.4252 72.1996 59.1628 72.3489 58.9141 72.5111C58.536 72.7371 58.0772 72.8683 57.5995 72.887C57.0417 72.9416 56.5046 73.085 56.0224 73.3081C55.5402 73.5312 55.1233 73.8291 54.7981 74.183C54.4022 74.6172 54.1329 75.1124 54.0085 75.6345C53.8405 76.2825 52.8409 76.4769 52.3747 76.9953C52.0168 77.4005 51.8317 77.8817 51.8452 78.3719C51.8588 78.8621 52.0703 79.3368 52.4503 79.7298C51.7987 80.0076 51.2863 80.4456 50.9948 80.9741C50.7033 81.5025 50.6494 82.091 50.8417 82.6458C51.1483 83.5304 52.1017 84.0131 53.0635 84.3339C53.2441 84.3942 53.4328 84.4388 53.6263 84.4667C55.6633 84.9592 58.0699 83.5206 57.6877 81.6252C58.8706 81.4978 59.9752 81.0955 60.8545 80.4718C61.8037 79.8238 62.2741 78.8324 62.4925 77.8442C63.0746 78.1958 63.7576 78.4345 64.4841 78.5403C65.2107 78.6461 65.9595 78.6158 66.6677 78.452C67.3759 78.2882 68.0228 77.9956 68.554 77.599C69.0853 77.2023 69.4854 76.713 69.7207 76.1723C70.3423 76.856 72.2785 78.1163 73.3117 77.9964C73.2823 80.2482 75.0967 81.2948 75.6259 81.3434C75.7393 81.3725 76.3021 80.475 76.0207 79.4318ZM55.8607 84.0974C56.5621 83.7086 57.1585 83.1092 57.6583 81.7548C57.6933 82.2368 57.5435 82.716 57.2275 83.1326C56.9115 83.5492 56.4434 83.8848 55.8817 84.0974H55.8607ZM65.5207 78.3204C66.3451 78.2367 67.132 78.0033 67.8168 77.6395C68.5017 77.2757 69.0649 76.7917 69.4603 76.2274C69.1642 76.841 68.6324 77.3702 67.9359 77.7442C67.2393 78.1183 66.4113 78.3193 65.5627 78.3204H65.5207Z" fill="#263238"/>
<path d="M55.2306 85.4582C55.2306 85.4582 52.9584 81.5314 50.7072 82.0919C48.456 82.6524 49.5648 88.0211 51.7824 89.0611C52.0553 89.2098 52.3643 89.3143 52.691 89.3685C53.0176 89.4226 53.355 89.4252 53.683 89.3762C54.011 89.3272 54.3228 89.2275 54.5995 89.0832C54.8763 88.9388 55.1124 88.7528 55.2936 88.5362L55.2306 85.4582Z" fill="#E2AF86"/>
<path d="M51.0724 83.6245C51.0346 83.6245 51.0178 83.6569 51.0472 83.6731C52.5928 84.4442 53.1766 85.7726 53.4874 87.1075C53.1052 86.5567 52.492 86.1938 51.547 86.5275C51.4966 86.547 51.547 86.6053 51.5764 86.6053C51.8893 86.5764 52.2061 86.6233 52.483 86.7394C52.7599 86.8555 52.9832 87.035 53.122 87.2533C53.3506 87.6193 53.5294 88.0026 53.6554 88.397C53.7016 88.5234 53.9914 88.504 53.9662 88.3614C53.9662 88.3614 53.9662 88.3387 53.9662 88.329C54.4114 86.6831 53.3404 84.13 51.0724 83.6245Z" fill="#263238"/>
<path d="M63.4208 100.171L59.939 105.579L50.5898 97.1255L48.0908 100.022C48.0908 100.022 56.5832 112.25 56.6756 111.718L60.17 106.761L64.496 110.484L64.727 101.59L63.4208 100.171Z" fill="#EBEBEB"/>
<path d="M64.9322 106.091C64.9028 104.62 64.9322 103.139 64.8188 101.671C64.8188 101.619 64.7096 101.593 64.6886 101.655C64.214 103.051 64.3526 108.67 64.2686 110.011V109.995C64.088 109.836 60.2618 106.716 60.2198 106.755C59.4806 107.532 56.9186 111.142 56.738 111.472C55.3982 109.528 49.661 101.856 48.044 100.006C48.0346 99.9955 48.0206 99.9882 48.0046 99.9853C47.9886 99.9824 47.9718 99.984 47.9573 99.99C47.9429 99.996 47.9317 100.006 47.926 100.018C47.9204 100.03 47.9205 100.043 47.9264 100.054C49.0898 102.092 56.486 112.214 56.5994 112.192C57.937 110.495 59.1581 108.745 60.2576 106.949C60.896 107.623 64.7348 111.126 64.76 110.908C64.9262 109.306 64.9837 107.698 64.9322 106.091Z" fill="#263238"/>
<path d="M102.934 147.504H72.5339C69.9425 147.504 73.6931 141.808 83.1599 139.621C92.6267 137.434 105.92 145.369 102.934 147.504Z" fill="#37474F"/>
<path d="M91.0059 147.504C91.0327 146.857 91.174 146.214 91.4259 145.596C91.6732 144.971 92.0173 144.372 92.4507 143.811C92.8898 143.246 93.4395 142.736 94.0803 142.301C94.696 141.863 95.4069 141.512 96.1803 141.264C96.0123 141.361 95.8401 141.452 95.6721 141.543L95.4159 141.679L95.1807 141.834L94.7103 142.139L94.2903 142.463C93.7239 142.916 93.2278 143.418 92.8119 143.96C92.3934 144.502 92.0337 145.07 91.7367 145.658C91.4365 146.259 91.1922 146.876 91.0059 147.504Z" fill="#263238"/>
<path d="M94.6055 142.083C95.505 142.307 96.38 142.585 97.2221 142.916C98.0735 143.24 98.8908 143.615 99.6665 144.037C100.447 144.457 101.153 144.954 101.766 145.515C102.073 145.801 102.338 146.113 102.556 146.445C102.767 146.776 102.89 147.136 102.917 147.504C102.808 147.159 102.625 146.831 102.375 146.532C102.134 146.231 101.852 145.949 101.535 145.693C100.885 145.183 100.175 144.721 99.4145 144.313C98.6627 143.891 97.8647 143.519 97.0625 143.146C96.6425 142.962 96.2519 142.787 95.8403 142.615C95.4287 142.443 95.0213 142.255 94.6055 142.083Z" fill="#263238"/>
<path d="M42.2692 103.832C32.3404 114.622 17.9554 133.935 24.583 137.376C35.503 143.03 65.47 144.546 72.3244 144.676C75.2644 144.734 79.3132 129.561 77.125 127.799C74.9368 126.036 43.5502 126.982 43.1512 125.531C42.9202 124.701 46.759 117.058 48.7036 107.886C50.9464 97.2973 45.0706 100.793 42.2692 103.832Z" fill="#E2AF86"/>
<path d="M71.8619 126.956C71.8619 126.956 80.8121 126.244 86.6963 125.984C89.9807 125.842 95.6339 125.984 98.1077 126.736C101.804 127.854 116.348 134.35 114.383 137.104C112.602 139.596 101.027 132.792 101.027 132.792C101.027 132.792 113.496 138.86 110.636 141.559C107.776 144.258 96.0245 135.228 96.0245 135.228C96.0245 135.228 108.654 141.685 105.138 144.109C102.48 145.939 91.2365 138.222 91.2365 138.222C91.2365 138.222 102.06 143.837 99.4097 145.8C96.5075 147.981 85.5497 141.358 85.5497 141.358C77.7713 145.509 71.8703 145.029 67.7207 144.303C66.7169 144.141 71.8619 126.956 71.8619 126.956Z" fill="#E2AF86"/>
<path d="M96.8897 130.484C98.3891 131.158 99.9095 131.829 101.325 132.603C102.74 133.378 104.122 134.188 105.437 135.056C108.667 137.191 110.254 138.918 110.141 138.821C107.465 136.495 102.455 133.666 101.035 132.895C99.6155 132.124 98.2631 131.298 96.8351 130.526C96.8141 130.507 96.8519 130.468 96.8897 130.484Z" fill="#263238"/>
<path d="M93.1817 134.376C95.0465 135.299 96.9407 136.161 98.7551 137.149C100.569 138.137 103.026 139.569 104.736 140.645C104.866 140.726 104.769 140.907 104.631 140.83C102.867 139.809 100.263 138.429 98.4821 137.424C96.7013 136.42 94.9709 135.361 93.1481 134.408C93.1187 134.395 93.1523 134.363 93.1817 134.376Z" fill="#263238"/>
<path d="M89.2213 137.276C92.1613 138.572 94.7905 140.286 97.3189 142.016C97.4449 142.103 97.3189 142.126 97.1761 142.045C94.5217 140.425 92.4511 139.148 89.1583 137.353C89.1079 137.328 89.1583 137.25 89.2213 137.276Z" fill="#263238"/>
<path d="M104.051 129.149C105.849 129.933 107.593 130.787 109.276 131.709C110.116 132.176 110.935 132.662 111.72 133.183C112.522 133.697 113.253 134.273 113.904 134.9C114.24 135.223 114.504 135.587 114.686 135.976C114.779 136.184 114.816 136.405 114.795 136.624C114.772 136.848 114.667 137.063 114.492 137.243C114.327 137.424 114.11 137.574 113.858 137.68C113.599 137.785 113.311 137.839 113.018 137.839C112.478 137.826 111.945 137.74 111.443 137.586C110.477 137.292 109.532 136.957 108.612 136.585C107.688 136.232 106.777 135.863 105.849 135.519L106.059 135.254C107.242 135.966 108.337 136.761 109.331 137.628C109.831 138.065 110.274 138.538 110.654 139.041C111.068 139.552 111.275 140.147 111.246 140.749C111.203 141.056 111.045 141.348 110.792 141.588C110.538 141.828 110.2 142.005 109.818 142.1C109.059 142.222 108.27 142.158 107.562 141.915C106.19 141.458 104.887 140.885 103.677 140.208L103.732 140.162C104.167 140.529 104.556 140.926 104.895 141.348C104.534 140.939 104.125 140.556 103.673 140.204L103.459 140.029L103.724 140.159C104.95 140.797 106.261 141.332 107.634 141.756C108.296 141.974 109.031 142.026 109.734 141.905C110.061 141.82 110.348 141.663 110.561 141.453C110.775 141.244 110.904 140.991 110.935 140.726C110.939 140.176 110.733 139.637 110.343 139.177C109.968 138.692 109.534 138.236 109.045 137.816C108.061 136.97 106.979 136.196 105.811 135.503L104.337 134.615L106.017 135.237C106.949 135.585 107.873 135.939 108.789 136.3C109.692 136.672 110.62 137.006 111.569 137.301C112.024 137.447 112.509 137.529 113.001 137.544C113.231 137.546 113.458 137.504 113.661 137.422C113.865 137.341 114.04 137.222 114.17 137.076C114.3 136.93 114.382 136.762 114.408 136.586C114.434 136.41 114.404 136.232 114.32 136.067C114.155 135.706 113.917 135.367 113.615 135.062C112.991 134.438 112.288 133.864 111.515 133.348C110.75 132.82 109.944 132.328 109.125 131.848C107.52 130.896 105.798 129.995 104.051 129.149Z" fill="#263238"/>
<path d="M71.8746 126.052L63.4746 145.629C63.4746 145.629 25.1664 141.867 22.3146 136.527C19.4628 131.188 30.9036 115.014 40.3746 105.07C49.6944 95.2919 50.484 101.901 48.7494 109.068C47.0148 116.235 43.7556 124.578 44.3058 125.142C44.856 125.706 71.8746 126.052 71.8746 126.052Z" fill="#ECAB5A"/>
<path d="M58.8008 142.842C59.099 142.281 59.3846 141.718 59.6702 141.154C60.2302 140.007 60.7986 138.86 61.3754 137.713C62.4968 135.445 63.5342 133.128 64.538 130.815C65.105 129.503 65.7392 128.197 66.218 126.866C66.2241 126.852 66.2231 126.838 66.2153 126.825C66.2074 126.812 66.1933 126.802 66.176 126.798C66.1587 126.793 66.1397 126.794 66.1232 126.8C66.1067 126.806 66.0939 126.817 66.0878 126.83C65.4368 127.948 64.895 129.098 64.3112 130.248C63.7274 131.398 63.1226 132.516 62.5598 133.676C61.4468 135.96 60.3842 138.254 59.351 140.561C59.0654 141.209 58.742 141.857 58.511 142.505C58.3808 142.829 58.217 143.172 58.091 143.509C57.965 143.846 57.8768 144.193 57.7424 144.53C57.739 144.537 57.7396 144.545 57.7439 144.552C57.7483 144.559 57.756 144.565 57.7655 144.567C57.775 144.57 57.7854 144.569 57.7944 144.566C57.8035 144.563 57.8104 144.557 57.8138 144.549C58.1162 143.976 58.4816 143.419 58.8008 142.842Z" fill="#263238"/>
<path d="M64.134 144.284L63.5418 145.651V145.693H63.4788C59.8626 145.437 56.2632 145.084 52.6764 144.659C49.0896 144.235 45.5154 143.723 41.9664 143.117C38.4136 142.53 34.9078 141.784 31.4664 140.885C29.7377 140.432 28.0534 139.884 26.4264 139.245C25.6143 138.921 24.8388 138.545 24.108 138.121C23.3543 137.714 22.7461 137.167 22.3398 136.53C22.8154 137.122 23.4624 137.621 24.2298 137.988C24.9863 138.36 25.7798 138.685 26.6028 138.96C28.2512 139.521 29.9428 140.002 31.668 140.402C35.1162 141.222 38.6316 141.88 42.168 142.476C45.7044 143.072 49.2534 143.61 52.8108 144.112C56.3682 144.614 59.9508 145.103 63.5166 145.56L63.4368 145.599L64.134 144.284Z" fill="#263238"/>
<path d="M71.5475 126.813L71.8204 126.036L71.8625 126.084C68.0825 126.159 64.3025 126.195 60.5225 126.165C56.7425 126.136 52.9625 126.078 49.1824 125.922C48.2332 125.877 47.2841 125.829 46.3349 125.757C45.8561 125.722 45.3857 125.683 44.8943 125.615C44.7654 125.599 44.6378 125.577 44.5121 125.55C44.4377 125.535 44.3647 125.517 44.2937 125.495C44.2403 125.476 44.1884 125.454 44.1382 125.43C44.0877 125.405 44.0448 125.372 44.0123 125.333C43.9887 125.31 43.969 125.285 43.9535 125.258C43.951 125.245 43.951 125.232 43.9535 125.219C43.9157 125.092 43.9072 124.96 43.9282 124.831C43.9282 124.737 43.9283 124.633 43.9703 124.542C44.2643 123.068 44.7011 121.655 45.1421 120.23C46.0241 117.388 47.0153 114.566 48.0821 111.764L45.7762 120.34C45.415 121.766 44.995 123.201 44.7556 124.617C44.7556 124.707 44.7557 124.788 44.7221 124.873C44.7264 124.924 44.7264 124.976 44.7221 125.028C44.7148 125.011 44.7049 124.995 44.6927 124.98C44.6717 124.95 44.6129 124.921 44.6297 124.928L44.7473 124.954C44.8495 124.975 44.9533 124.993 45.0581 125.006C45.478 125.064 45.9695 125.1 46.4315 125.132C47.3639 125.197 48.3047 125.242 49.2497 125.281C51.1313 125.359 53.0185 125.424 54.9113 125.475L60.577 125.644C64.357 125.748 68.137 125.877 71.917 126.016H71.9842V126.059L71.5475 126.813Z" fill="#263238"/>
<path d="M48.67 113.53C48.4559 114.037 48.1744 114.525 47.83 114.988C47.5032 115.46 47.0949 115.896 46.6162 116.284C46.9102 115.798 47.221 115.331 47.5528 114.871C47.8854 114.405 48.2587 113.957 48.67 113.53Z" fill="#263238"/>
<path d="M107.865 145.078H104.803V146.62H107.865V145.078Z" fill="#455A64"/>
<path d="M111.833 144.977H108.771V146.519H111.833V144.977Z" fill="#455A64"/>
<path d="M115.802 144.874H112.74V146.416H115.802V144.874Z" fill="#455A64"/>
<path d="M119.771 144.773H116.709V146.315H119.771V144.773Z" fill="#455A64"/>
<path d="M123.741 144.669H120.679V146.212H123.741V144.669Z" fill="#455A64"/>
<path d="M127.709 144.569H124.647V146.111H127.709V144.569Z" fill="#455A64"/>
<path d="M131.678 144.465H128.616V146.007H131.678V144.465Z" fill="#455A64"/>
<path d="M135.647 144.365H132.585V145.907H135.647V144.365Z" fill="#455A64"/>
<path d="M139.616 144.261H136.555V145.803H139.616V144.261Z" fill="#455A64"/>
<path d="M140.364 147.504H104.055V145.631L140.364 144.847V147.504Z" fill="#37474F"/>
<path d="M169.932 138.513H109.989L119.519 104.085H179.466L169.932 138.513Z" fill="#455A64"/>
<path d="M172.15 138.513H112.203L121.737 104.085H181.684L172.15 138.513Z" fill="#37474F"/>
<path d="M152.124 119.306C151.94 120.088 151.415 120.798 150.635 121.318C149.856 121.838 148.869 122.137 147.84 122.164C147.374 122.175 146.911 122.105 146.485 121.958C146.06 121.812 145.683 121.593 145.382 121.318C145.082 121.043 144.866 120.719 144.752 120.371C144.637 120.022 144.625 119.658 144.719 119.306C144.903 118.522 145.43 117.81 146.212 117.29C146.994 116.769 147.983 116.471 149.016 116.445C149.481 116.435 149.943 116.506 150.368 116.653C150.793 116.8 151.169 117.02 151.468 117.295C151.767 117.57 151.981 117.894 152.095 118.243C152.208 118.591 152.218 118.955 152.124 119.306Z" fill="#263238"/>
<path d="M155.198 147.504H125.714V145.738L155.198 145.003V147.504Z" fill="#455A64"/>
<path d="M163.211 147.504H147.382L137.848 128.21H153.677L163.211 147.504Z" fill="#455A64"/>
<path d="M165.82 147.504H149.99L140.456 128.21H156.286L165.82 147.504Z" fill="#263238"/>
<path d="M175.052 121.675C180.537 125.816 181.457 132.224 180.302 137.839C180.272 137.966 180.016 137.933 180.016 137.813C180.016 136.517 180.066 135.267 180.062 134.006C180.033 133.948 180.008 133.893 179.974 133.835C178.546 133.031 177.227 132.124 176.412 130.883C175.497 129.493 175.152 127.925 174.434 126.473C174.371 126.334 174.564 126.376 174.69 126.447C178.025 128.346 179.088 130.387 180.045 133.119C180.025 131.691 179.831 130.267 179.466 128.868C178.743 126.276 177.32 123.71 174.905 121.785C174.886 121.77 174.875 121.75 174.876 121.729C174.876 121.708 174.887 121.688 174.907 121.673C174.926 121.659 174.952 121.651 174.98 121.651C175.007 121.651 175.033 121.66 175.052 121.675Z" fill="#263238"/>
<path d="M174.018 122.148C173.078 122.174 172.485 123.337 171.75 123.674C171.673 123.723 171.584 123.758 171.488 123.779C171.392 123.799 171.291 123.803 171.193 123.791C171.094 123.779 171 123.751 170.917 123.709C170.834 123.667 170.763 123.612 170.709 123.548C169.978 122.763 170.978 121.795 171.918 121.254C171.246 121.467 170.688 121.843 169.965 121.95C169.873 121.974 169.775 121.981 169.678 121.973C169.581 121.965 169.487 121.94 169.404 121.901C169.32 121.863 169.248 121.811 169.193 121.749C169.138 121.687 169.1 121.616 169.083 121.542C168.764 120.473 170.503 119.996 171.696 119.974C171.116 119.65 169.457 118.82 170.339 118.406C171.221 117.991 173.178 119.193 173.813 119.591C174.745 120.175 175.858 121.049 175.913 121.96C175.955 123.036 174.745 122.381 174.018 122.148Z" fill="#ECAB5A"/>
<path opacity="0.1" d="M174.018 122.148C173.078 122.174 172.485 123.337 171.75 123.674C171.673 123.723 171.584 123.758 171.488 123.779C171.392 123.799 171.291 123.803 171.193 123.791C171.094 123.779 171 123.751 170.917 123.709C170.834 123.667 170.763 123.612 170.709 123.548C169.978 122.763 170.978 121.795 171.918 121.254C171.246 121.467 170.688 121.843 169.965 121.95C169.873 121.974 169.775 121.981 169.678 121.973C169.581 121.965 169.487 121.94 169.404 121.901C169.32 121.863 169.248 121.811 169.193 121.749C169.138 121.687 169.1 121.616 169.083 121.542C168.764 120.473 170.503 119.996 171.696 119.974C171.116 119.65 169.457 118.82 170.339 118.406C171.221 117.991 173.178 119.193 173.813 119.591C174.745 120.175 175.858 121.049 175.913 121.96C175.955 123.036 174.745 122.381 174.018 122.148Z" fill="#0C0C0C"/>
<path d="M174.3 122.336C173.095 121.915 170.776 122.524 170.579 122.171C170.18 121.455 172.032 120.962 173.032 120.875C172.112 120.684 170.348 120.376 170.403 119.692C170.47 118.856 173.107 119.576 174.443 120.366C176.123 121.361 176.123 122.31 175.837 122.514C175.447 122.767 174.493 122.407 174.3 122.336Z" fill="#ECAB5A"/>
<path d="M187.542 121.263C181.856 125.242 180.621 131.631 181.499 137.263C181.524 137.392 181.78 137.363 181.788 137.263C181.851 135.967 181.86 134.716 181.927 133.456L182.024 133.287C183.494 132.529 184.854 131.667 185.728 130.442C186.711 129.078 187.152 127.526 187.92 126.094C187.992 125.958 187.799 125.994 187.668 126.059C184.241 127.86 183.078 129.869 181.986 132.568C182.079 131.143 182.343 129.727 182.775 128.34C183.615 125.77 185.178 123.246 187.681 121.396C187.704 121.382 187.719 121.362 187.722 121.339C187.725 121.317 187.716 121.294 187.698 121.276C187.68 121.259 187.653 121.248 187.624 121.245C187.595 121.243 187.565 121.249 187.542 121.263Z" fill="#263238"/>
<path d="M188.551 121.779C189.491 121.831 190.025 123.01 190.743 123.37C190.817 123.421 190.904 123.46 190.999 123.483C191.094 123.506 191.194 123.514 191.293 123.505C191.392 123.496 191.488 123.471 191.573 123.431C191.659 123.392 191.732 123.339 191.789 123.276C192.557 122.511 191.604 121.516 190.693 120.946C191.352 121.179 191.894 121.571 192.612 121.698C192.704 121.724 192.801 121.735 192.899 121.729C192.996 121.724 193.091 121.702 193.177 121.666C193.263 121.63 193.337 121.58 193.395 121.519C193.454 121.459 193.495 121.389 193.515 121.315C193.885 120.256 192.171 119.731 190.995 119.673C191.591 119.381 193.288 118.584 192.427 118.147C191.566 117.709 189.554 118.85 188.899 119.229C187.937 119.786 186.799 120.625 186.698 121.536C186.572 122.598 187.811 121.98 188.551 121.779Z" fill="#ECAB5A"/>
<path opacity="0.1" d="M188.551 121.779C189.491 121.831 190.025 123.01 190.743 123.37C190.817 123.421 190.904 123.46 190.999 123.483C191.094 123.506 191.194 123.514 191.293 123.505C191.392 123.496 191.488 123.471 191.573 123.431C191.659 123.392 191.732 123.339 191.789 123.276C192.557 122.511 191.604 121.516 190.693 120.946C191.352 121.179 191.894 121.571 192.612 121.698C192.704 121.724 192.801 121.735 192.899 121.729C192.996 121.724 193.091 121.702 193.177 121.666C193.263 121.63 193.337 121.58 193.395 121.519C193.454 121.459 193.495 121.389 193.515 121.315C193.885 120.256 192.171 119.731 190.995 119.673C191.591 119.381 193.288 118.584 192.427 118.147C191.566 117.709 189.554 118.85 188.899 119.229C187.937 119.786 186.799 120.625 186.698 121.536C186.572 122.598 187.811 121.98 188.551 121.779Z" fill="#0C0C0C"/>
<path d="M188.269 121.947C189.495 121.561 191.78 122.239 191.994 121.892C192.414 121.186 190.604 120.641 189.608 120.515C190.537 120.35 192.313 120.097 192.296 119.41C192.271 118.574 189.596 119.212 188.222 119.964C186.492 120.91 186.454 121.869 186.723 122.07C187.093 122.346 188.063 122.012 188.269 121.947Z" fill="#ECAB5A"/>
<path d="M181.729 131.771C181.345 133.899 180.755 136.002 179.965 138.063C179.948 138.099 179.916 138.128 179.873 138.147C179.83 138.166 179.78 138.172 179.731 138.164C179.683 138.157 179.64 138.136 179.61 138.106C179.579 138.077 179.564 138.039 179.566 138.001C179.94 136.057 180.62 134.159 180.994 132.221C181.396 130.259 181.537 128.27 181.414 126.285C181.175 123.02 180.024 119.546 177.26 116.99C177.202 116.928 177.328 116.844 177.391 116.899C182.922 121.876 182.044 127.977 182.04 128.524C182.821 126.464 183.628 124.102 186.593 122.005C186.719 121.915 186.82 121.957 186.799 122.109C186.269 125.932 184.892 127.925 182.019 129.969C181.956 130.572 181.859 131.178 181.729 131.771Z" fill="#263238"/>
<path d="M177.24 117.56C176.244 117.236 174.871 118.208 173.88 118.267C173.768 118.284 173.653 118.284 173.541 118.266C173.429 118.249 173.324 118.214 173.23 118.163C173.137 118.113 173.057 118.048 172.997 117.974C172.937 117.899 172.897 117.816 172.88 117.729C172.636 116.634 174.308 116.018 175.635 115.82C174.795 115.778 173.976 115.953 173.153 115.781C173.041 115.769 172.935 115.739 172.839 115.693C172.744 115.646 172.663 115.584 172.601 115.512C172.54 115.439 172.499 115.357 172.482 115.271C172.465 115.185 172.472 115.097 172.502 115.014C172.872 113.782 174.984 113.964 176.24 114.404C175.841 113.857 174.669 112.337 175.854 112.25C177.038 112.162 178.285 114.171 178.684 114.842C179.272 115.814 179.856 117.149 179.302 118.111C178.659 119.232 177.836 118.075 177.24 117.56Z" fill="#ECAB5A"/>
<path opacity="0.1" d="M177.24 117.56C176.244 117.236 174.871 118.208 173.88 118.267C173.768 118.284 173.653 118.284 173.541 118.266C173.429 118.249 173.324 118.214 173.23 118.163C173.137 118.113 173.057 118.048 172.997 117.974C172.937 117.899 172.897 117.816 172.88 117.729C172.636 116.634 174.308 116.018 175.635 115.82C174.795 115.778 173.976 115.953 173.153 115.781C173.041 115.769 172.935 115.739 172.839 115.693C172.744 115.646 172.663 115.584 172.601 115.512C172.54 115.439 172.499 115.357 172.482 115.271C172.465 115.185 172.472 115.097 172.502 115.014C172.872 113.782 174.984 113.964 176.24 114.404C175.841 113.857 174.669 112.337 175.854 112.25C177.038 112.162 178.285 114.171 178.684 114.842C179.272 115.814 179.856 117.149 179.302 118.111C178.659 119.232 177.836 118.075 177.24 117.56Z" fill="#0C0C0C"/>
<path d="M177.396 117.855C176.421 116.948 173.616 116.679 173.641 116.235C173.695 115.338 175.938 115.545 177.039 115.837C176.199 115.279 174.577 114.275 175.081 113.585C175.695 112.742 177.967 114.515 178.836 115.853C179.932 117.541 179.294 118.532 178.878 118.623C178.311 118.749 177.555 118.004 177.396 117.855Z" fill="#ECAB5A"/>
<path d="M185.367 132.921L187.807 147.303H172.96C173.267 146.03 176.03 132.905 176.03 132.905L185.367 132.921Z" fill="#ECAB5A"/>
</svg>
