<svg width="210" height="162" viewBox="0 0 210 162" fill="none" xmlns="http://www.w3.org/2000/svg">
<g clip-path="url(#clip0_136_2036)">
<path opacity="0.1" d="M192.967 76.2762C186.331 47.2203 151.16 48.2588 131.597 40.2619C104.375 27.3995 79.5746 -2.93015 49.1032 0.229198C-8.83805 6.23646 -9.02387 92.4409 15.3156 122.545C57.0843 174.206 119.747 157.214 168.543 127.146C194.948 110.874 194.425 87.2479 192.967 76.2762Z" fill="#F6F6F6"/>
<path opacity="0.1" d="M192.967 76.2762C186.331 47.2203 151.16 48.2588 131.597 40.2619C104.375 27.3995 79.5746 -2.93015 49.1032 0.229198C-8.83805 6.23646 -9.02387 92.4409 15.3156 122.545C57.0843 174.206 119.747 157.214 168.543 127.146C194.948 110.874 194.425 87.2479 192.967 76.2762Z" fill="#EA4735"/>
<path d="M35.9486 139.472L154.323 139.472C157.23 139.472 159.587 136.557 159.587 132.962V25.7674C159.587 22.172 157.23 19.2573 154.323 19.2573L35.9486 19.2573C33.0416 19.2573 30.6851 22.172 30.6851 25.7674V132.962C30.6851 136.557 33.0416 139.472 35.9486 139.472Z" fill="#F6F6F6"/>
<path d="M30.5098 132.962V25.7673C30.5098 22.058 32.9497 19.04 35.9488 19.04H154.324C157.323 19.04 159.763 22.0578 159.763 25.7673V132.962C159.763 136.671 157.323 139.689 154.324 139.689H35.9488C32.9497 139.689 30.5098 136.671 30.5098 132.962ZM35.9488 19.474C33.1433 19.474 30.8608 22.297 30.8608 25.767V132.962C30.8608 136.432 33.1435 139.255 35.9488 139.255H154.324C157.129 139.255 159.412 136.432 159.412 132.962V25.7673C159.412 22.2973 157.129 19.4743 154.324 19.4743L35.9488 19.474Z" fill="#292A2E"/>
<path d="M30.6855 25.7665V32.3173H159.587V25.7665C159.587 22.1711 157.23 19.2563 154.323 19.2563H35.9491C33.0422 19.2563 30.6855 22.1711 30.6855 25.7665Z" fill="#292A2E"/>
<path d="M101.298 73.0766C98.7841 73.7554 96.5601 71.1406 95.4277 68.6425C94.0953 65.7031 93.5463 62.2753 91.8778 59.5598C90.4124 57.1749 88.1717 55.5681 85.7834 55.1031C84.6996 54.8921 83.546 54.8672 82.4739 55.1908C81.967 55.3439 81.4753 55.5585 80.9972 55.8163C78.9339 56.9295 77.2667 58.9395 75.9711 61.179C74.4393 63.8274 73.3801 66.883 72.6557 70.0022C71.8261 73.5736 71.4298 77.3048 71.4136 81.0181C71.3963 84.9597 71.8132 88.9173 72.6841 92.7102C73.5898 96.6541 74.9961 100.436 76.9061 103.791C78.9349 107.356 81.509 110.406 84.4698 112.771C86.1078 114.079 87.856 115.175 89.6684 116.062C91.8256 117.119 94.15 117.613 96.4614 117.737C101.538 118.009 106.693 116.545 111.286 113.905C112.419 113.253 113.52 112.521 114.581 111.707C114.918 111.449 114.609 110.789 114.27 111.048C109.961 114.352 104.953 116.387 99.8994 116.89C97.5198 117.126 95.1 117.024 92.7605 116.409C90.7393 115.877 88.8285 114.901 87.0036 113.716C83.8591 111.673 81.0434 108.912 78.7629 105.54C76.6664 102.44 75.0486 98.8548 73.9415 95.0565C72.8685 91.376 72.2549 87.4979 72.0814 83.5932C71.9174 79.8974 72.1341 76.1683 72.7721 72.5503C73.3413 69.3239 74.2377 66.1567 75.5929 63.3021C76.7205 60.9268 78.2011 58.715 80.0901 57.2672C80.9487 56.6092 81.8289 56.1226 82.8254 55.8724C85.1512 55.2885 87.7012 56.1684 89.6009 57.861C90.5886 58.7409 91.3905 59.8779 92.0083 61.1709C92.699 62.616 93.1781 64.1912 93.6834 65.7435C94.1734 67.2491 94.6801 68.7768 95.448 70.1039C96.1658 71.3448 97.0762 72.4657 98.1738 73.1849C99.1911 73.8518 100.329 74.1179 101.462 73.8121C101.849 73.7074 101.685 72.9721 101.298 73.0766H101.298Z" fill="#EA4735"/>
<path d="M162.691 72.0663C162.691 72.0663 160.188 68.3192 160.695 61.5401C161.087 56.2912 164.24 60.6952 164.24 60.6952C164.24 60.6952 164.552 56.9194 166.637 57.9175C168.722 58.9156 169.19 63.1168 169.19 63.1168" fill="#0C0C0C"/>
<path d="M177.699 61.6294C177.699 61.6294 188.124 66.1997 180.804 82.9908L179.842 82.7904L177.89 82.3837" fill="#0C0C0C"/>
<path d="M162.005 100.108C162.053 100.1 162.59 111.112 172.933 110.152C180.093 109.488 182.646 100.092 182.81 100.092C182.038 99.8895 181.084 99.5814 180.705 99.4759C179.445 99.1248 177.873 97.8392 177.509 95.1311C177.3 93.5703 177.655 85.5849 177.546 84.0059L166.555 87.0401C166.708 90.3754 167.783 98.1076 164.016 99.4762C163.389 99.7024 162.714 99.9106 162.005 100.108L162.005 100.108Z" fill="#FF9E85"/>
<path opacity="0.22" d="M166.401 96.3159C166.556 95.7015 166.649 95.1668 166.731 94.2061C166.878 92.488 166.8 90.9084 166.659 89.2989C168.88 88.9333 171.011 87.7783 172.734 86.0073C172.938 86.9396 174.06 91.0129 173.749 91.8989C173.162 93.5735 170.402 96.3162 166.4 96.3162L166.401 96.3159Z" fill="#0C0C0C"/>
<path d="M167.46 92.7081C171.768 93.483 177.451 91.6739 178.888 84.6136L180.184 78.243C181.621 71.1828 179.787 64.5259 174.412 62.8531C169.038 61.18 163.856 65.6532 162.419 72.7135L161.845 75.5339C161.727 76.1146 161.564 77.1717 161.457 78.4879C161.244 81.1141 160.927 85.1096 161.82 88.1385C162.663 90.9981 164.707 92.2131 167.46 92.7081Z" fill="#FF9E85"/>
<path d="M164.628 76.9386C164.661 76.5277 164.418 76.162 164.086 76.1218C163.753 76.0815 163.458 76.3819 163.425 76.7927C163.393 77.2036 163.635 77.5693 163.968 77.6095C164.3 77.6498 164.595 77.3494 164.628 76.9386Z" fill="#0A0A0A"/>
<path d="M167.366 83.1103C167.488 83.1251 167.601 83.0241 167.626 82.8726C167.653 82.7109 167.569 82.5528 167.438 82.5198L166.177 82.2004L167.211 79.1479C167.262 78.9956 167.204 78.8204 167.081 78.7566C166.958 78.693 166.816 78.7645 166.765 78.9168L165.617 82.3049C165.589 82.3876 165.593 82.4811 165.627 82.5602C165.661 82.6392 165.721 82.6954 165.792 82.7135L167.341 83.1055C167.35 83.1075 167.358 83.1091 167.366 83.1101V83.1103Z" fill="#0A0A0A"/>
<path d="M167.382 86.514C169.562 86.7784 170.341 85.227 170.376 85.1541C170.444 85.0122 170.407 84.8289 170.292 84.744C170.179 84.6596 170.031 84.7054 169.962 84.8457C169.929 84.9118 169.136 86.4319 166.765 85.7861C166.632 85.7492 166.505 85.8527 166.476 86.0139C166.448 86.1751 166.53 86.3347 166.66 86.3701C166.916 86.4397 167.157 86.4865 167.382 86.5137L167.382 86.514Z" fill="#0A0A0A"/>
<path d="M170.141 74.8835C170.066 75.098 170.691 75.5086 171.584 75.9235C172.477 76.3384 173.289 76.6583 173.373 76.3862C173.48 76.0428 172.863 75.1286 171.97 74.7136C171.078 74.2987 170.259 74.5461 170.141 74.8835Z" fill="#0A0A0A"/>
<path d="M170.621 78.1436C170.654 77.7328 170.411 77.3671 170.079 77.3269C169.747 77.2866 169.451 77.587 169.418 77.9978C169.386 78.4087 169.629 78.7743 169.961 78.8146C170.293 78.8549 170.589 78.5545 170.621 78.1436Z" fill="#0A0A0A"/>
<path d="M162.823 74.1536C162.825 74.3875 163.532 74.4488 164.483 74.3801C165.435 74.3115 166.283 74.1961 166.271 73.905C166.256 73.5373 165.491 72.9979 164.539 73.0665C163.587 73.1351 162.821 73.7857 162.823 74.1536Z" fill="#0A0A0A"/>
<path d="M178.116 86.6608C179.75 87.1692 181.513 85.4201 181.924 83.4C182.336 81.3798 181.238 79.8534 179.605 79.3452L178.488 80.4369L176.712 86.224L178.116 86.661V86.6608Z" fill="#FF9E85"/>
<path d="M177.624 83.0162C177.345 82.9661 177.15 82.648 177.189 82.3025C177.443 80.0711 178.14 72.5397 176.153 71.3982C174.596 70.5041 170.075 72.2057 166.567 70.256C165.032 69.403 163.411 69.4455 163.075 70.3391C162.942 70.693 162.97 65.0531 166.269 61.7384C168.895 59.0992 175.631 60.12 178.412 62.0583C186.111 67.4254 179.858 79.8858 179.858 79.8858L178.971 82.7576C178.885 83.035 178.656 83.2015 178.418 83.1588L177.624 83.0159V83.0162Z" fill="#0C0C0C"/>
<path d="M171.943 63.4592C172.741 61.3614 172.454 59.1172 171.302 58.4466C170.149 57.776 168.568 58.9329 167.77 61.0307C166.972 63.1285 167.259 65.3727 168.412 66.0434C169.564 66.714 171.145 65.557 171.943 63.4592Z" fill="#0C0C0C"/>
<path d="M173.266 107.129C180.274 106.72 180.569 99.3634 180.569 99.3634C180.569 99.3634 184.041 99.641 186.349 100.027C190.128 100.659 192.621 102.244 194.605 104.698C196.45 106.98 197.574 109.45 196.385 125.217C195.524 136.634 196.13 161.745 196.13 161.745H153.838C153.838 161.745 151.302 128.831 150.948 123.692C150.273 113.881 149.726 105.335 151.372 103.298C154.758 99.1105 161.403 99.3634 164.313 99.3639C164.361 99.3639 163.723 107.685 173.266 107.129Z" fill="#EA4735"/>
<path d="M161.68 142.578L155.528 138.344C154.962 137.955 154.239 138.241 153.968 138.989C153.728 139.652 153.982 140.434 154.495 140.787L155.815 141.695L150.607 141.195C150.028 141.127 149.284 141.501 149.265 142.308C149.215 142.96 149.54 143.547 150.022 143.745C150.02 143.752 150.018 143.758 150.018 143.765C150.017 143.771 150.019 143.775 150.019 143.781L149.128 143.676C148.44 143.595 147.839 144.305 147.915 145.204C147.97 145.862 148.425 146.361 148.958 146.424L149.337 146.468C149.341 146.483 149.347 146.496 149.355 146.507C148.83 146.594 148.407 147.139 148.39 147.834C148.372 148.57 148.857 149.18 149.451 149.25L150.393 149.361C150.366 149.381 150.345 149.415 150.342 149.458C150.341 149.483 150.346 149.506 150.356 149.527C149.921 149.758 149.622 150.321 149.689 150.983C149.756 151.627 150.207 152.107 150.729 152.168L158.681 153.104C160.957 153.372 163.136 151.905 164.191 149.396C165.115 147.197 164.457 144.488 162.706 143.284L161.681 142.578H161.68Z" fill="#FF9E85"/>
<g opacity="0.2">
<path d="M155.175 144.271C155.169 144.34 155.12 144.39 155.064 144.385L150.112 143.902C150.056 143.896 150.013 143.835 150.018 143.765C150.018 143.699 150.072 143.643 150.128 143.648L155.081 144.131C155.137 144.137 155.179 144.198 155.175 144.268V144.271H155.175Z" fill="#0C0C0C"/>
<path d="M155.063 146.979C155.057 147.047 155.008 147.098 154.952 147.092L149.426 146.553C149.369 146.548 149.327 146.487 149.331 146.416C149.336 146.352 149.385 146.294 149.442 146.3L154.969 146.839C155.025 146.845 155.067 146.906 155.063 146.976V146.979H155.063Z" fill="#0C0C0C"/>
<path d="M154.955 149.911C154.95 149.98 154.901 150.031 154.845 150.025L150.436 149.595C150.38 149.59 150.338 149.529 150.342 149.458C150.348 149.388 150.396 149.336 150.453 149.342L154.861 149.772C154.918 149.777 154.96 149.838 154.956 149.908L154.955 149.911Z" fill="#0C0C0C"/>
</g>
<path d="M158.187 156.23L196.591 161.562C196.87 161.6 197.149 161.618 197.426 161.618C199.536 161.618 201.568 160.546 203.032 158.627C204.689 156.454 205.427 153.447 205.027 150.503L196.837 109.926C196.131 104.734 192.156 101.234 187.957 102.106C183.759 102.98 180.928 107.897 181.635 113.09L187.915 142.641L160.009 139.197L158.187 156.23L158.187 156.23Z" fill="#EA4735"/>
<path d="M192.921 143.528C192.971 143.528 193.015 143.483 193.023 143.42C193.031 143.351 192.992 143.286 192.936 143.276L188.149 142.389C188.091 142.378 188.041 142.427 188.032 142.496C188.024 142.565 188.063 142.63 188.119 142.64L192.906 143.527C192.911 143.528 192.916 143.528 192.921 143.528Z" fill="#0C0C0C"/>
<path d="M195.523 161.745C195.573 161.745 195.617 161.698 195.624 161.634C195.632 161.565 195.592 161.501 195.536 161.492L158.402 156.133L160.202 139.354L187.915 142.641C187.948 142.645 187.98 142.632 188.003 142.603C188.025 142.574 188.036 142.533 188.03 142.493L185.032 125.221C185.022 125.151 184.97 125.103 184.913 125.116C184.857 125.128 184.819 125.194 184.829 125.263L187.805 142.366L160.125 139.084C160.098 139.08 160.07 139.09 160.048 139.111C160.026 139.132 160.012 139.163 160.009 139.197L158.187 156.23C158.181 156.299 158.221 156.361 158.276 156.37L195.509 161.744C195.514 161.745 195.518 161.745 195.523 161.745V161.745Z" fill="#0C0C0C"/>
<path d="M116.581 74.1252C116.38 73.3803 115.714 72.9893 115.115 73.2804C114.554 73.5535 114.297 74.3647 114.488 75.0725L114.965 76.8371L111.394 72.1224C111.004 71.5895 110.25 71.244 109.796 71.8242C109.404 72.263 109.325 72.9677 109.572 73.5156C109.567 73.5199 109.561 73.5224 109.557 73.528C109.554 73.5318 109.552 73.5369 109.549 73.541L109.53 73.513C109.069 72.8825 108.244 72.9021 107.807 73.6183C107.483 74.1504 107.544 74.9055 107.906 75.3997L108.102 75.676C108.097 75.6903 108.094 75.7055 108.094 75.7208C107.662 75.3494 107.119 75.4663 106.728 75.9532C106.302 76.482 106.33 77.3525 106.734 77.9057C106.703 77.8978 106.716 77.9715 106.691 78.0005C106.675 78.0178 106.668 78.0396 106.663 78.0625C106.227 77.8752 105.713 78.0279 105.4 78.5425C105.076 79.0746 105.137 79.83 105.498 80.3239L110.857 87.6501C112.391 89.7468 114.8 90.4828 116.946 89.5106L120.325 87.9804L116.581 74.125L116.581 74.1252Z" fill="#FF9E85"/>
<path opacity="0.2" d="M107.072 82.5426C107.274 82.807 107.539 82.9669 107.827 83.0007C107.864 83.0051 107.902 83.0073 107.94 83.0076C108.272 83.0089 108.581 82.8454 108.811 82.5474C109.097 82.1765 109.182 81.6406 109.078 81.1476C109.246 81.2867 109.437 81.3757 109.641 81.3998C109.68 81.4044 109.718 81.4067 109.757 81.407C110.099 81.4082 110.418 81.2397 110.655 80.9328C110.956 80.5431 111.04 79.9766 110.923 79.4611C111.083 79.5839 111.26 79.6647 111.451 79.6871C111.489 79.6916 111.528 79.6939 111.567 79.6942C111.909 79.6955 112.228 79.5269 112.465 79.22C112.91 78.6429 112.892 77.6751 112.425 77.0629L110.049 73.8995C110.011 73.8484 109.946 73.8448 109.904 73.8929C109.862 73.9407 109.86 74.021 109.898 74.0726L112.275 77.2368C112.668 77.7529 112.687 78.5639 112.316 79.0446C112.118 79.3006 111.852 79.441 111.568 79.44C111.282 79.4389 111.017 79.2973 110.822 79.0408C110.805 79.0179 110.67 78.8484 110.616 78.7779L108.301 75.6471C108.263 75.5949 108.199 75.5899 108.156 75.6366C108.114 75.6832 108.11 75.7638 108.148 75.8161L110.465 78.9498C110.859 79.4659 110.877 80.2766 110.506 80.7576C110.309 81.0137 110.043 81.154 109.758 81.153C109.473 81.153 109.208 81.0104 109.013 80.7551L106.863 77.9346C106.825 77.8828 106.76 77.8792 106.718 77.926C106.676 77.9733 106.673 78.0536 106.711 78.1055L108.623 80.6275C109.003 81.1255 109.021 81.9083 108.662 82.3723C108.472 82.6191 108.215 82.7546 107.94 82.7539C107.666 82.7529 107.41 82.6161 107.222 82.37L107.072 82.5431L107.072 82.5426Z" fill="#0C0C0C"/>
<path d="M111.559 75.0333C111.327 75.0333 111.095 74.9263 110.915 74.7112C110.272 73.9411 109.515 73.1563 109.295 73.0315C108.368 72.5189 106.965 72.2657 106.502 72.2113C105.993 72.1516 105.62 71.5933 105.668 70.9643C105.717 70.3353 106.169 69.8739 106.677 69.9334C106.757 69.9428 108.659 70.1731 110.05 70.9429C110.704 71.3047 111.863 72.6608 112.202 73.0676C112.569 73.5071 112.578 74.2314 112.223 74.6852C112.042 74.9169 111.8 75.0333 111.559 75.0333H111.559Z" fill="#FF9E85"/>
<path d="M101.111 74.8793L101.401 71.541L121.746 73.9079L121.457 77.246L101.111 74.8793Z" fill="#EA4735"/>
<path opacity="0.5" d="M101.111 74.8793L101.401 71.541L121.746 73.9079L121.457 77.246L101.111 74.8793Z" fill="#F6F6F6"/>
<path d="M123.695 77.5348L123.985 74.1968L121.747 73.9077L121.457 77.2458L123.695 77.5348Z" fill="#262626"/>
<path d="M101.111 74.8793C101.111 74.8793 100.439 74.2926 99.8377 73.7648C99.3611 73.3461 98.9294 72.9647 98.9144 72.9423C98.8988 72.9195 99.404 72.6317 99.9631 72.323C100.642 71.9478 101.401 71.541 101.401 71.541L101.111 74.8793Z" fill="#EA4735"/>
<path opacity="0.9" d="M101.111 74.8793C101.111 74.8793 100.439 74.2926 99.8377 73.7648C99.3611 73.3461 98.9294 72.9647 98.9144 72.9423C98.8988 72.9195 99.404 72.6317 99.9631 72.323C100.642 71.9478 101.401 71.541 101.401 71.541L101.111 74.8793Z" fill="#F6F6F6"/>
<path d="M99.8377 73.765C99.3611 73.3463 98.9294 72.9649 98.9144 72.9426C98.8988 72.9197 99.404 72.6319 99.9631 72.3232L99.8377 73.765Z" fill="#262626"/>
<path d="M101.207 73.8403L121.548 76.1467L121.535 76.299L101.194 73.9929L101.207 73.8403Z" fill="#F6F6F6"/>
<path d="M101.32 72.5347L121.661 74.8408L121.648 74.9934L101.308 72.687L101.32 72.5347Z" fill="#F6F6F6"/>
<path d="M115.121 77.494L114.488 75.0729C114.297 74.3654 114.554 73.5541 115.116 73.2808C115.714 72.9895 116.38 73.3805 116.582 74.1257L117.687 78.2183" fill="#FF9E85"/>
<path d="M129.508 129.234C126.734 129.234 124.101 127.374 122.728 124.235L107.394 87.9784L120.131 79.4146L133.343 108.429L155.966 100.284L159.587 119.052L131.626 128.866C130.923 129.115 130.211 129.234 129.508 129.234H129.508Z" fill="#EA4735"/>
<path d="M150.838 122.206C150.787 122.206 150.742 122.158 150.736 122.094L150.121 115.607C150.114 115.537 150.155 115.474 150.211 115.466C150.266 115.458 150.318 115.508 150.325 115.577L150.94 122.064C150.947 122.133 150.906 122.197 150.85 122.205C150.846 122.206 150.842 122.206 150.838 122.206Z" fill="#0C0C0C"/>
<path d="M55.6887 38.917H38.6082C37.3279 38.917 36.29 40.2007 36.29 41.7842V128.424C36.29 130.008 37.3279 131.291 38.6082 131.291H55.6887C56.969 131.291 58.0069 130.008 58.0069 128.424V41.7842C58.0069 40.2007 56.969 38.917 55.6887 38.917Z" fill="#292A2E"/>
<path d="M35.9011 156.862C35.9696 156.862 36.0352 156.815 36.0672 156.734L40.9355 144.384C40.9801 144.27 40.9421 144.134 40.8506 144.078C40.7589 144.023 40.6485 144.07 40.6037 144.183L35.7355 156.533C35.6909 156.647 35.7289 156.783 35.8204 156.839C35.8465 156.854 35.874 156.862 35.9011 156.862Z" fill="#292A2E"/>
<path d="M27.672 156.145C27.754 156.145 27.8287 156.077 27.8504 155.975L33.4838 129.373C33.5097 129.251 33.4507 129.127 33.352 129.095C33.2529 129.063 33.1524 129.136 33.1267 129.258L27.4934 155.859C27.4675 155.981 27.5265 156.106 27.6252 156.138C27.6408 156.143 27.6566 156.145 27.672 156.145Z" fill="#292A2E"/>
<path d="M16.9261 157.323C16.9501 157.323 16.9746 157.317 16.998 157.304C17.092 157.255 17.1355 157.121 17.0959 157.005L11.2724 140.042C11.2325 139.926 11.124 139.872 11.0305 139.921C10.9365 139.97 10.893 140.104 10.9326 140.22L16.7561 157.183C16.7859 157.27 16.8541 157.323 16.9261 157.323Z" fill="#292A2E"/>
<path d="M27.463 161.253C27.4778 161.253 27.493 161.251 27.508 161.246C27.6069 161.216 27.6669 161.092 27.6423 160.969L20.8753 127.487C20.8505 127.365 20.7501 127.291 20.6515 127.321C20.5526 127.352 20.4926 127.476 20.5173 127.598L27.2842 161.08C27.3052 161.184 27.3804 161.253 27.463 161.253Z" fill="#292A2E"/>
<path d="M25.0629 134.348C26.8989 129.574 25.7008 124.124 22.3871 122.174C19.0733 120.224 14.8986 122.513 13.0626 127.287C11.2266 132.061 12.4246 137.511 15.7384 139.461C19.0522 141.411 23.2269 139.121 25.0629 134.348Z" fill="#0CBC8B"/>
<path opacity="0.4" d="M25.0629 134.348C26.8989 129.574 25.7008 124.124 22.3871 122.174C19.0733 120.224 14.8986 122.513 13.0626 127.287C11.2266 132.061 12.4246 137.511 15.7384 139.461C19.0522 141.411 23.2269 139.121 25.0629 134.348Z" fill="#F6F6F6"/>
<path d="M13.6742 145.369C14.6318 142.428 13.7929 139.239 11.8003 138.246C9.80777 137.254 7.41618 138.833 6.45855 141.774C5.50092 144.715 6.33988 147.904 8.33243 148.896C10.325 149.889 12.7166 148.309 13.6742 145.369Z" fill="#0CBC8B"/>
<path d="M37.1537 141.595C40.1135 140.485 41.6197 135.942 40.5179 131.45C39.4161 126.957 36.1236 124.215 33.1638 125.325C30.2041 126.435 28.6979 130.978 29.7996 135.471C30.9014 139.963 34.194 142.705 37.1537 141.595Z" fill="#0CBC8B"/>
<path d="M42.2439 151.156C43.8961 150.814 44.9198 148.205 44.5303 145.329C44.1408 142.453 42.4857 140.398 40.8334 140.741C39.1812 141.083 38.1575 143.692 38.547 146.568C38.9365 149.444 40.5916 151.499 42.2439 151.156Z" fill="#0CBC8B"/>
<path d="M11.4949 161.567H40.2393V152.707H11.4949V161.567Z" fill="#292A2E"/>
<path opacity="0.3" d="M11.4949 161.567H40.2393V152.707H11.4949V161.567Z" fill="#F6F6F6"/>
<path d="M25.1186 150.481C26.2869 146.893 25.2543 142.999 22.8123 141.782C20.3703 140.566 17.4437 142.488 16.2754 146.076C15.1072 149.663 16.1398 153.558 18.5817 154.774C21.0237 155.991 23.9504 154.068 25.1186 150.481Z" fill="#0CBC8B"/>
<path d="M31.4984 153.885C33.9305 153.885 35.9022 151.446 35.9022 148.438C35.9022 145.43 33.9305 142.992 31.4984 142.992C29.0663 142.992 27.0947 145.43 27.0947 148.438C27.0947 151.446 29.0663 153.885 31.4984 153.885Z" fill="#0CBC8B"/>
<path opacity="0.68" d="M13.6742 145.369C14.6318 142.428 13.7929 139.239 11.8003 138.246C9.80777 137.254 7.41618 138.833 6.45855 141.774C5.50092 144.715 6.33988 147.904 8.33243 148.896C10.325 149.889 12.7166 148.309 13.6742 145.369Z" fill="#F6F6F6"/>
<path opacity="0.68" d="M37.1537 141.595C40.1135 140.485 41.6197 135.942 40.5179 131.45C39.4161 126.957 36.1236 124.215 33.1638 125.325C30.2041 126.435 28.6979 130.978 29.7996 135.471C30.9014 139.963 34.194 142.705 37.1537 141.595Z" fill="#F6F6F6"/>
<path opacity="0.68" d="M42.2439 151.156C43.8961 150.814 44.9198 148.205 44.5303 145.329C44.1408 142.453 42.4857 140.398 40.8334 140.741C39.1812 141.083 38.1575 143.692 38.547 146.568C38.9365 149.444 40.5916 151.499 42.2439 151.156Z" fill="#F6F6F6"/>
<path opacity="0.68" d="M25.1186 150.481C26.2869 146.893 25.2543 142.999 22.8123 141.782C20.3703 140.566 17.4437 142.488 16.2754 146.076C15.1072 149.663 16.1398 153.558 18.5817 154.774C21.0237 155.991 23.9504 154.068 25.1186 150.481Z" fill="#F6F6F6"/>
<path opacity="0.4" d="M31.4984 153.885C33.9305 153.885 35.9022 151.446 35.9022 148.438C35.9022 145.43 33.9305 142.992 31.4984 142.992C29.0663 142.992 27.0947 145.43 27.0947 148.438C27.0947 151.446 29.0663 153.885 31.4984 153.885Z" fill="#F6F6F6"/>
<path d="M17.3535 143.853C20.696 145.008 22.4551 141.63 22.4551 141.63L22.4532 141.625C20.6703 140.968 18.6935 141.892 17.3535 143.853Z" fill="#292A2E"/>
<path d="M38.4658 145.237C40.1139 144.488 41.4282 142.988 42.3067 141.05C41.8397 140.755 41.3359 140.637 40.834 140.742C39.4424 141.029 38.4973 142.926 38.466 145.237H38.4658Z" fill="#292A2E"/>
<path d="M30.7129 143.079C32.0751 144.545 33.6697 145.472 35.3067 145.702C34.5427 144.082 33.1234 142.993 31.4991 142.993C31.2296 142.993 30.9676 143.022 30.7129 143.079Z" fill="#292A2E"/>
<path d="M0.205551 162H209.794C209.908 162 210 161.886 210 161.745C210 161.605 209.908 161.491 209.794 161.491H0.205551C0.0920867 161.491 0 161.605 0 161.745C0 161.886 0.0920867 162 0.205551 162Z" fill="#292A2E"/>
<path d="M44.0109 59.2041H40.3312C39.8231 59.2041 39.4111 59.7136 39.4111 60.342V64.8933C39.4111 65.5218 39.8231 66.0313 40.3312 66.0313H44.0109C44.5191 66.0313 44.931 65.5218 44.931 64.8933V60.342C44.931 59.7136 44.5191 59.2041 44.0109 59.2041Z" fill="#292A2E"/>
<path d="M44.0114 66.1583H40.3314C39.7674 66.1583 39.3086 65.5909 39.3086 64.8932V60.3417C39.3086 59.6441 39.7674 59.0767 40.3314 59.0767H44.0114C44.5754 59.0767 45.0342 59.6441 45.0342 60.3417V64.8932C45.0342 65.5909 44.5754 66.1583 44.0114 66.1583ZM40.3314 59.3311C39.8808 59.3311 39.5141 59.7844 39.5141 60.342V64.8935C39.5141 65.4508 39.8806 65.9043 40.3314 65.9043H44.0114C44.462 65.9043 44.8287 65.451 44.8287 64.8935V60.342C44.8287 59.7847 44.4622 59.3311 44.0114 59.3311H40.3314Z" fill="#F6F6F6"/>
<path d="M54.0785 62.4932C54.0785 60.6079 52.8428 59.0796 51.3185 59.0796C49.7943 59.0796 48.5586 60.6079 48.5586 62.4932C48.5586 64.3784 49.7943 65.9067 51.3185 65.9067C52.8428 65.9067 54.0785 64.3784 54.0785 62.4932Z" fill="#292A2E"/>
<path d="M51.3188 66.034C49.7403 66.034 48.4561 64.4456 48.4561 62.4933C48.4561 60.5411 49.7403 58.9526 51.3188 58.9526C52.8972 58.9526 54.1815 60.5411 54.1815 62.4933C54.1815 64.4456 52.8972 66.034 51.3188 66.034ZM51.3188 59.2069C49.8536 59.2069 48.6616 60.6812 48.6616 62.4933C48.6616 64.3055 49.8536 65.7798 51.3188 65.7798C52.7839 65.7798 53.9759 64.3055 53.9759 62.4933C53.9759 60.6812 52.7839 59.2069 51.3188 59.2069Z" fill="#F6F6F6"/>
<path d="M40.107 43.5342L40.0244 52.701L42.2875 50.1302L45.2 50.1946L40.107 43.5342Z" fill="#292A2E"/>
<path d="M40.0247 52.8281C40.0105 52.8281 39.9963 52.8246 39.9827 52.8172C39.9453 52.7966 39.9215 52.7503 39.9219 52.6998L40.0045 43.5329C40.0049 43.481 40.0308 43.4348 40.0699 43.4159C40.1085 43.3971 40.1531 43.4093 40.1819 43.447L45.2748 50.1073C45.3032 50.1445 45.3108 50.1991 45.2942 50.2459C45.2773 50.2927 45.2417 50.326 45.1984 50.3217L42.327 50.2581L40.0941 52.7943C40.0748 52.8162 40.0497 52.8281 40.0247 52.8281ZM40.2072 43.8499L40.1301 52.4087L42.2185 50.0367C42.2378 50.0146 42.2639 50.0041 42.2898 50.0031L44.9577 50.0621L40.2074 43.8497L40.2072 43.8499Z" fill="#F6F6F6"/>
<path d="M49.319 43.5342L49.2363 52.701L51.4996 50.1302L54.4119 50.1946L49.319 43.5342Z" fill="#F6F6F6"/>
<path d="M49.2366 52.8281C49.2224 52.8281 49.2082 52.8246 49.1946 52.8172C49.1572 52.7966 49.1334 52.7503 49.1338 52.6998L49.2164 43.5329C49.2168 43.481 49.2427 43.4348 49.2818 43.4159C49.3204 43.3971 49.365 43.4093 49.3938 43.447L54.4867 50.1073C54.5151 50.1445 54.5227 50.1991 54.5061 50.2459C54.4894 50.2927 54.4549 50.326 54.4103 50.3217L51.5389 50.2581L49.306 52.7943C49.2867 52.8162 49.2616 52.8281 49.2366 52.8281ZM49.4191 43.8499L49.342 52.4087L51.4302 50.0367C51.4497 50.0146 51.4771 50.0041 51.5015 50.0031L54.1694 50.0621L49.4191 43.8499Z" fill="#292A2E"/>
<path d="M40.2211 72.5103L39.8057 79.1851L41.106 80.092L43.9502 78.698L44.0893 76.8231L40.2211 72.5103Z" fill="#292A2E"/>
<path d="M41.1063 80.2195C41.0888 80.2195 41.0714 80.2141 41.0557 80.2032L39.7554 79.2966C39.7207 79.2724 39.7003 79.2254 39.7034 79.1761L40.1188 72.5012C40.1219 72.4529 40.1468 72.411 40.1832 72.3929C40.2196 72.3749 40.2609 72.384 40.2903 72.4166L44.1585 76.7294C44.1826 76.7563 44.1949 76.7955 44.192 76.8354L44.0529 78.7103C44.0492 78.7581 44.0243 78.7993 43.9883 78.8169L41.1439 80.2108C41.1318 80.2167 41.1189 80.2197 41.1061 80.2197L41.1063 80.2195ZM39.9135 79.1146L41.1139 79.9518L43.8541 78.6089L43.9826 76.875L40.308 72.7781L39.9135 79.1146Z" fill="#F6F6F6"/>
<path d="M41.463 76.5195C41.4221 76.5195 41.3834 76.489 41.3674 76.4392L40.1254 72.5573C40.1045 72.492 40.1304 72.4182 40.1832 72.3923C40.236 72.3664 40.2956 72.3984 40.3166 72.4637L41.5585 76.3456C41.5795 76.411 41.5536 76.4847 41.5008 76.5106C41.4882 76.5167 41.4755 76.5195 41.463 76.5195Z" fill="#F6F6F6"/>
<path d="M41.653 77.834C42.0346 77.834 42.344 77.4513 42.344 76.9792C42.344 76.5072 42.0346 76.1245 41.653 76.1245C41.2713 76.1245 40.9619 76.5072 40.9619 76.9792C40.9619 77.4513 41.2713 77.834 41.653 77.834Z" fill="#292A2E"/>
<path d="M41.6532 77.961C41.2156 77.961 40.8594 77.5207 40.8594 76.9791C40.8594 76.4376 41.2154 75.9976 41.6532 75.9976C42.091 75.9976 42.4468 76.4379 42.4468 76.9791C42.4468 77.5204 42.0908 77.961 41.6532 77.961ZM41.6532 76.2518C41.3289 76.2518 41.0649 76.5782 41.0649 76.9791C41.0649 77.3801 41.3289 77.7068 41.6532 77.7068C41.9776 77.7068 42.2413 77.3803 42.2413 76.9791C42.2413 76.578 41.9774 76.2518 41.6532 76.2518Z" fill="#F6F6F6"/>
<path d="M40.434 80.3276L44.5037 78.3329C44.6519 78.2602 44.8196 78.3466 44.8825 78.5279L45.1783 79.3816C45.2439 79.5707 45.1697 79.7894 45.0145 79.8641L40.9306 81.8283C40.7824 81.8997 40.6151 81.8123 40.553 81.631L40.2714 80.8078C40.207 80.6197 40.2804 80.4031 40.434 80.3278V80.3276Z" fill="#F6F6F6"/>
<path d="M49.9935 73.5107L49.6016 79.8066L50.8281 80.6618L53.5109 79.3469L53.6421 77.5787L49.9935 73.5107Z" fill="#292A2E"/>
<path d="M50.8284 80.7889C50.8109 80.7889 50.7937 80.7836 50.7779 80.7727L49.5513 79.9174C49.5166 79.8933 49.4962 79.8462 49.4993 79.7969L49.8913 73.5011C49.8944 73.4528 49.9193 73.4109 49.9557 73.3928C49.992 73.375 50.0334 73.3839 50.0627 73.4165L53.7113 77.4842C53.7353 77.5111 53.7477 77.5503 53.7448 77.5902L53.6134 79.3586C53.6097 79.4064 53.5849 79.4476 53.5489 79.4651L50.866 80.7798C50.8539 80.7856 50.841 80.7887 50.8282 80.7887L50.8284 80.7889ZM49.7094 79.7357L50.836 80.5212L53.4145 79.2577L53.5351 77.6304L50.08 73.7782L49.7092 79.7357H49.7094Z" fill="#F6F6F6"/>
<path d="M51.1647 77.2995C51.1238 77.2995 51.0852 77.269 51.0691 77.2191L49.8979 73.5577C49.8769 73.4923 49.9028 73.4186 49.9557 73.3927C50.0083 73.367 50.0681 73.3988 50.0891 73.4641L51.2603 77.1256C51.2813 77.1909 51.2554 77.2646 51.2025 77.2906C51.19 77.2967 51.1772 77.2995 51.1647 77.2995Z" fill="#F6F6F6"/>
<path d="M51.3442 78.5318C51.7042 78.5318 51.996 78.1708 51.996 77.7256C51.996 77.2804 51.7042 76.9194 51.3442 76.9194C50.9842 76.9194 50.6924 77.2804 50.6924 77.7256C50.6924 78.1708 50.9842 78.5318 51.3442 78.5318Z" fill="#292A2E"/>
<path d="M51.3444 78.6591C50.9284 78.6591 50.5898 78.2403 50.5898 77.7258C50.5898 77.2112 50.9284 76.7925 51.3444 76.7925C51.7605 76.7925 52.099 77.2112 52.099 77.7258C52.099 78.2403 51.7605 78.6591 51.3444 78.6591ZM51.3444 77.0467C51.0416 77.0467 50.7954 77.3513 50.7954 77.7258C50.7954 78.1003 51.0416 78.4048 51.3444 78.4048C51.6472 78.4048 51.8934 78.1003 51.8934 77.7258C51.8934 77.3513 51.6472 77.0467 51.3444 77.0467Z" fill="#F6F6F6"/>
<path d="M50.1939 80.8838L54.0323 79.0022C54.1721 78.9338 54.3304 79.0152 54.3896 79.186L54.6685 79.9912C54.7304 80.1697 54.6603 80.3758 54.5141 80.4463L50.6623 82.2991C50.5225 82.3665 50.3647 82.2839 50.3061 82.113L50.0405 81.3366C49.9799 81.1591 50.0492 80.9547 50.1939 80.8838Z" fill="#F6F6F6"/>
<path d="M52.6467 74.1236C52.59 74.1236 52.5439 74.0666 52.5439 73.9965V71.5436C52.5439 71.4735 52.59 71.4165 52.6467 71.4165C52.7035 71.4165 52.7495 71.4735 52.7495 71.5436V73.9965C52.7495 74.0666 52.7035 74.1236 52.6467 74.1236Z" fill="#F6F6F6"/>
<path d="M53.6387 72.8973H51.6555C51.5988 72.8973 51.5527 72.8404 51.5527 72.7702C51.5527 72.7 51.5988 72.6431 51.6555 72.6431H53.6387C53.6954 72.6431 53.7414 72.7 53.7414 72.7702C53.7414 72.8404 53.6954 72.8973 53.6387 72.8973Z" fill="#F6F6F6"/>
<path d="M40.2958 95.5749C40.1647 95.5749 40.0319 95.5338 39.9104 95.4473C39.7308 95.3194 39.6023 95.1127 39.5485 94.8654C39.4946 94.618 39.522 94.3595 39.6253 94.1375L41.7061 89.6661C41.7345 89.6053 41.7972 89.5847 41.8465 89.6193L43.0124 90.4494C43.036 90.4661 43.0533 90.4938 43.0603 90.5266C43.0673 90.5592 43.0638 90.5938 43.05 90.623L40.9692 95.0944C40.826 95.4023 40.5645 95.5749 40.2958 95.5749ZM40.013 95.2269C40.2852 95.4209 40.6344 95.3044 40.7912 94.9676L42.8208 90.6065L41.833 89.9033L39.8033 94.2646C39.7275 94.4278 39.7074 94.6178 39.747 94.7995C39.7865 94.9813 39.881 95.1328 40.013 95.2269Z" fill="#F6F6F6"/>
<path d="M43.6367 89.8125L41.9789 88.6323C41.7311 88.456 41.4147 88.5614 41.2721 88.8678L41.272 88.868C41.1294 89.1744 41.2146 89.5658 41.4624 89.7422L43.1202 90.9224C43.368 91.0987 43.6844 90.9933 43.827 90.6869L43.8271 90.6867C43.9697 90.3802 43.8845 89.9889 43.6367 89.8125Z" fill="#F6F6F6"/>
<path d="M43.4905 87.7552C43.7632 87.9494 43.8572 88.3809 43.7002 88.7183L43.0437 90.1291L42.0551 89.4254L42.7117 88.0145C42.8686 87.6772 43.2177 87.5611 43.4905 87.7552Z" fill="#F6F6F6"/>
<path d="M51.5921 95.097C50.7997 95.097 50.0544 94.7161 49.4928 94.0241C49.4527 93.9745 49.4525 93.8942 49.4928 93.8444C49.5329 93.7948 49.5979 93.7945 49.6381 93.8444C50.7198 95.1768 52.4766 95.1732 53.5545 93.835C54.632 92.4969 54.6287 90.3243 53.5469 88.9913C52.4651 87.6584 50.7082 87.6624 49.6305 89.0007C49.5907 89.0506 49.5257 89.0511 49.4852 89.0007C49.4451 88.9512 49.4449 88.8708 49.4852 88.821C50.6429 87.3838 52.53 87.3795 53.6922 88.8111C54.8542 90.2429 54.8577 92.577 53.7002 94.0142C53.1395 94.7103 52.3931 95.0949 51.5985 95.0967H51.5925L51.5921 95.097Z" fill="#F6F6F6"/>
<path d="M50.685 89.3631C50.679 89.3631 50.6729 89.3626 50.6667 89.3611L49.4285 89.0863C49.4011 89.0802 49.3771 89.0608 49.3615 89.0324C49.3458 89.0041 49.3403 88.9691 49.3458 88.9355L49.5849 87.4955C49.5962 87.4269 49.6496 87.3826 49.7062 87.3966C49.7619 87.4109 49.7976 87.478 49.7861 87.5466L49.5683 88.859L50.7029 89.1107C50.7588 89.1231 50.796 89.1892 50.7859 89.2584C50.7771 89.3199 50.7337 89.3631 50.6848 89.3631H50.685Z" fill="#F6F6F6"/>
<path d="M53.483 107.73H48.5344C48.4777 107.73 48.4316 107.673 48.4316 107.602V101.482C48.4316 101.412 48.4777 101.355 48.5344 101.355H53.483C53.5398 101.355 53.5858 101.412 53.5858 101.482V107.602C53.5858 107.673 53.5398 107.73 53.483 107.73ZM48.6372 107.475H53.3803V101.609H48.6372V107.475Z" fill="#F6F6F6"/>
<path d="M53.8176 103.684H51.1525C50.5316 103.684 50.0283 104.306 50.0283 105.074V108.37C50.0283 109.138 50.5316 109.761 51.1525 109.761H53.8176C54.4385 109.761 54.9418 109.138 54.9418 108.37V105.074C54.9418 104.306 54.4385 103.684 53.8176 103.684Z" fill="#292A2E"/>
<path d="M53.8181 109.888H51.1527C50.4762 109.888 49.9258 109.207 49.9258 108.37V105.074C49.9258 104.237 50.4762 103.556 51.1527 103.556H53.8181C54.4946 103.556 55.0448 104.237 55.0448 105.074V108.37C55.0448 109.207 54.4946 109.888 53.8181 109.888ZM51.1527 103.811C50.5895 103.811 50.1313 104.377 50.1313 105.074V108.371C50.1313 109.067 50.5895 109.634 51.1527 109.634H53.8181C54.3813 109.634 54.8393 109.067 54.8393 108.371V105.074C54.8393 104.377 54.3811 103.811 53.8181 103.811H51.1527Z" fill="#F6F6F6"/>
<path d="M43.4413 104.824C43.4413 103.382 42.4963 102.213 41.3305 102.213C40.1648 102.213 39.2197 103.382 39.2197 104.824C39.2197 106.266 40.1648 107.435 41.3305 107.435C42.4963 107.435 43.4413 106.266 43.4413 104.824Z" fill="#292A2E"/>
<path d="M41.3308 107.562C40.1102 107.562 39.1172 106.334 39.1172 104.824C39.1172 103.315 40.1102 102.086 41.3308 102.086C42.5513 102.086 43.5443 103.315 43.5443 104.824C43.5443 106.334 42.5513 107.562 41.3308 107.562ZM41.3308 102.341C40.2235 102.341 39.3227 103.455 39.3227 104.825C39.3227 106.194 40.2235 107.308 41.3308 107.308C42.4381 107.308 43.3388 106.194 43.3388 104.825C43.3388 103.455 42.4381 102.341 41.3308 102.341Z" fill="#F6F6F6"/>
<path d="M42.4321 107.051L42.2549 107.18L43.6662 110.15L43.8434 110.021L42.4321 107.051Z" fill="#F6F6F6"/>
<path d="M54.7677 124.403H49.2529V117.582H54.7677V124.403ZM49.4585 124.149H54.5621V117.836H49.4585V124.149Z" fill="#F6F6F6"/>
<path d="M49.3557 117.836C49.299 117.836 49.2529 117.779 49.2529 117.709V115.719C49.2529 115.649 49.299 115.592 49.3557 115.592C49.4124 115.592 49.4585 115.649 49.4585 115.719V117.709C49.4585 117.779 49.4124 117.836 49.3557 117.836Z" fill="#F6F6F6"/>
<path d="M49.3384 117.836H47.7297C47.673 117.836 47.627 117.779 47.627 117.709C47.627 117.639 47.673 117.582 47.7297 117.582H49.3384C49.3951 117.582 49.4411 117.639 49.4411 117.709C49.4411 117.779 49.3951 117.836 49.3384 117.836Z" fill="#F6F6F6"/>
<path d="M41.1857 124.856H41.6203L43.0063 116.801H45.0308L45.0982 116.381H40.6209L40.5469 116.801H42.5619L41.1857 124.856Z" fill="#F6F6F6"/>
<path d="M138.55 157.903L130.058 125.615C129.752 124.451 128.875 123.664 127.885 123.664H93.2867C91.7339 123.664 90.6334 125.538 91.1138 127.364L99.6061 159.652C99.9122 160.816 100.789 161.604 101.779 161.604H136.377C137.93 161.604 139.031 159.73 138.55 157.903Z" fill="#292A2E"/>
<path d="M154.286 158.74H131.126C130.549 158.74 130.081 159.318 130.081 160.032V160.065C130.081 160.779 130.549 161.358 131.126 161.358H154.286C154.863 161.358 155.331 160.779 155.331 160.065V160.032C155.331 159.318 154.863 158.74 154.286 158.74Z" fill="#292A2E"/>
<path d="M114.335 148.451C116.339 148.451 117.964 146.442 117.964 143.963C117.964 141.484 116.339 139.475 114.335 139.475C112.331 139.475 110.706 141.484 110.706 143.963C110.706 146.442 112.331 148.451 114.335 148.451Z" fill="#F6F6F6"/>
</g>
<defs>
<clipPath id="clip0_136_2036">
<rect width="210" height="162" fill="white"/>
</clipPath>
</defs>
</svg>
