<svg width="350" height="271" viewBox="0 0 350 271" fill="none" xmlns="http://www.w3.org/2000/svg">
<path d="M173.378 271C261.621 271 333.156 267.456 333.156 263.084C333.156 258.712 261.621 255.168 173.378 255.168C85.1354 255.168 13.6006 258.712 13.6006 263.084C13.6006 267.456 85.1354 271 173.378 271Z" fill="#F5F5F5"/>
<path d="M163.815 200.334H4.69716C2.10136 200.33 0 198.544 0 196.341V6.53843C0.0222497 4.34972 2.11784 2.58406 4.69716 2.58057H163.815C166.414 2.58057 168.521 4.3679 168.521 6.5734V196.341C168.521 198.547 166.414 200.334 163.815 200.334ZM4.69716 2.72042C2.21508 2.72462 0.206016 4.43223 0.206016 6.53843V196.341C0.206016 198.447 2.21508 200.155 4.69716 200.159H163.815C166.298 200.156 168.31 198.448 168.315 196.341V6.53843C168.31 4.43153 166.298 2.72392 163.815 2.72042H4.69716Z" fill="#E6E6E6"/>
<path d="M342.068 200.334H182.942C180.345 200.33 178.24 198.545 178.236 196.341V6.53843C178.264 4.34832 180.361 2.58406 182.942 2.58057H342.068C344.644 2.58826 346.735 4.35251 346.757 6.53843V196.341C346.757 198.541 344.661 200.326 342.068 200.334ZM182.942 2.72042C180.459 2.72462 178.446 4.43153 178.442 6.53843V196.341C178.446 198.448 180.459 200.155 182.942 200.159H342.068C344.551 200.156 346.563 198.448 346.568 196.341V6.53843C346.563 4.43153 344.551 2.72392 342.068 2.72042H182.942Z" fill="#E6E6E6"/>
<path d="M138.561 99.5893L137.434 181.805C133.448 209.153 76.3114 230.866 76.3114 230.866C76.3114 230.866 19.1758 209.153 15.1899 181.805L13.9941 99.5893L75.0605 82.5327L138.561 99.5893Z" fill="#F5F5F5"/>
<path d="M130.597 104.794L129.614 178.595C126.138 202.446 76.3073 221.383 76.3073 221.383C76.3073 221.383 26.477 202.446 23.0003 178.595L21.957 104.794L75.2154 89.918L130.597 104.794Z" fill="#E0E0E0"/>
<path d="M127.096 109.452L126.174 177.2C122.915 199.56 76.1997 217.313 76.1997 217.313C76.1997 217.313 29.4844 199.56 26.2252 177.2L25.2471 109.452L75.1762 95.5063L127.096 109.452Z" stroke="white" stroke-width="3" stroke-miterlimit="10" stroke-linecap="round" stroke-linejoin="round"/>
<path d="M330.221 71.8486H220.303V235.506H330.221V71.8486Z" fill="#F5F5F5"/>
<path d="M322.238 78.2803H228.423V235.505H322.238V78.2803Z" fill="#E0E0E0"/>
<path d="M231.046 236.207C230.882 236.207 230.717 236.179 230.568 236.123C230.419 236.074 230.288 235.997 230.172 235.899C230.049 235.801 229.958 235.683 229.9 235.556C229.843 235.43 229.81 235.298 229.81 235.158C229.81 234.885 229.941 234.613 230.172 234.416C230.452 234.172 230.881 234.067 231.285 234.13C231.359 234.144 231.442 234.165 231.515 234.186C231.59 234.214 231.664 234.249 231.73 234.284C231.796 234.326 231.861 234.368 231.919 234.416C231.976 234.465 232.026 234.515 232.067 234.577C232.118 234.633 232.15 234.689 232.183 234.759C232.216 234.822 232.241 234.885 232.258 234.955C232.274 235.018 232.282 235.087 232.282 235.158C232.282 235.297 232.249 235.43 232.183 235.556C232.126 235.682 232.035 235.801 231.92 235.898C231.681 236.095 231.376 236.207 231.046 236.207Z" fill="white"/>
<path d="M229.81 209.397C229.81 208.816 230.362 208.348 231.046 208.348C231.73 208.348 232.282 208.816 232.282 209.397C232.282 209.976 231.73 210.446 231.046 210.446C230.362 210.446 229.81 209.976 229.81 209.397ZM229.81 183.643C229.81 183.062 230.362 182.594 231.046 182.594C231.73 182.594 232.282 183.062 232.282 183.643C232.282 184.215 231.73 184.691 231.046 184.691C230.362 184.691 229.81 184.215 229.81 183.643ZM229.81 157.881C229.81 157.301 230.362 156.832 231.046 156.832C231.73 156.832 232.282 157.301 232.282 157.881C232.282 158.461 231.73 158.93 231.046 158.93C230.362 158.93 229.81 158.461 229.81 157.881ZM229.81 132.12C229.81 131.547 230.362 131.071 231.046 131.071C231.73 131.071 232.282 131.547 232.282 132.12C232.282 132.701 231.73 133.169 231.046 133.169C230.362 133.169 229.81 132.701 229.81 132.12ZM229.81 106.366C229.81 105.786 230.362 105.317 231.046 105.317C231.73 105.317 232.282 105.786 232.282 106.366C232.282 106.947 231.73 107.415 231.046 107.415C230.362 107.415 229.81 106.947 229.81 106.366Z" fill="white"/>
<path d="M231.046 81.654C230.717 81.654 230.395 81.5421 230.172 81.3456C230.114 81.2966 230.057 81.2477 230.016 81.1848C229.974 81.1295 229.933 81.0729 229.9 81.0099C229.867 80.94 229.843 80.8771 229.834 80.8071C229.818 80.7442 229.81 80.6743 229.81 80.6051C229.81 80.3323 229.941 80.0596 230.172 79.8638C230.222 79.8149 230.288 79.7729 230.353 79.731C230.419 79.696 230.494 79.661 230.568 79.6401C230.643 79.6121 230.724 79.5911 230.798 79.5771C230.963 79.5492 231.12 79.5492 231.285 79.5771C231.359 79.5911 231.442 79.6121 231.515 79.6401C231.59 79.661 231.664 79.696 231.73 79.731C231.796 79.7722 231.861 79.8149 231.919 79.8638C232.149 80.0596 232.281 80.3323 232.281 80.6051C232.281 80.675 232.273 80.7449 232.257 80.8071C232.241 80.8771 232.215 80.94 232.182 81.0099C232.149 81.0729 232.117 81.1295 232.067 81.1848C232.025 81.2477 231.976 81.2966 231.918 81.3456C231.689 81.5421 231.368 81.654 231.046 81.654Z" fill="white"/>
<path d="M288.649 80.6051C288.649 80.0247 289.201 79.5562 289.885 79.5562C290.569 79.5562 291.121 80.0247 291.121 80.6051C291.121 81.1848 290.569 81.654 289.885 81.654C289.201 81.654 288.649 81.1854 288.649 80.6051ZM259.23 80.6051C259.23 80.0247 259.782 79.5562 260.466 79.5562C261.15 79.5562 261.702 80.0247 261.702 80.6051C261.702 81.1848 261.15 81.654 260.466 81.654C259.782 81.654 259.23 81.1854 259.23 80.6051Z" fill="white"/>
<path d="M319.304 81.654C319.22 81.654 319.146 81.647 319.065 81.633C318.982 81.619 318.908 81.598 318.834 81.577C318.76 81.5491 318.686 81.5141 318.62 81.4791C318.554 81.4372 318.488 81.3952 318.43 81.3456C318.2 81.1498 318.068 80.8841 318.068 80.6051C318.068 80.3323 318.2 80.0596 318.43 79.8638C318.488 79.8149 318.554 79.7729 318.62 79.738C318.686 79.696 318.76 79.661 318.834 79.6401C318.908 79.6121 318.982 79.5911 319.065 79.5771C319.22 79.5492 319.386 79.5492 319.551 79.5771C319.625 79.5911 319.699 79.6121 319.782 79.6401C319.856 79.661 319.922 79.696 319.988 79.738C320.062 79.7729 320.119 79.8149 320.176 79.8638C320.407 80.0596 320.54 80.3323 320.54 80.6051C320.54 80.8848 320.408 81.1505 320.176 81.3456C320.119 81.3945 320.061 81.4365 319.988 81.4791C319.922 81.5141 319.856 81.5491 319.782 81.577C319.698 81.598 319.625 81.619 319.551 81.633C319.468 81.647 319.386 81.654 319.304 81.654Z" fill="white"/>
<path d="M318.068 209.397C318.068 208.816 318.62 208.348 319.304 208.348C319.988 208.348 320.54 208.816 320.54 209.397C320.54 209.976 319.988 210.446 319.304 210.446C318.62 210.446 318.068 209.976 318.068 209.397ZM318.068 183.643C318.068 183.062 318.62 182.594 319.304 182.594C319.988 182.594 320.54 183.062 320.54 183.643C320.54 184.215 319.988 184.691 319.304 184.691C318.62 184.691 318.068 184.215 318.068 183.643ZM318.068 157.881C318.068 157.301 318.62 156.832 319.304 156.832C319.988 156.832 320.54 157.301 320.54 157.881C320.54 158.461 319.988 158.93 319.304 158.93C318.62 158.93 318.068 158.461 318.068 157.881ZM318.068 132.12C318.068 131.54 318.62 131.071 319.304 131.071C319.988 131.071 320.54 131.54 320.54 132.12C320.54 132.701 319.988 133.169 319.304 133.169C318.62 133.169 318.068 132.701 318.068 132.12ZM318.068 106.366C318.068 105.786 318.62 105.317 319.304 105.317C319.988 105.317 320.54 105.786 320.54 106.366C320.54 106.947 319.988 107.415 319.304 107.415C318.62 107.415 318.068 106.947 318.068 106.366Z" fill="white"/>
<path d="M319.304 236.207C318.974 236.207 318.661 236.095 318.43 235.899C318.2 235.703 318.068 235.437 318.068 235.158C318.068 234.878 318.2 234.613 318.43 234.416C318.487 234.368 318.553 234.325 318.619 234.284C318.685 234.249 318.759 234.213 318.833 234.185C318.908 234.165 318.982 234.143 319.064 234.129C319.22 234.101 319.386 234.101 319.55 234.129C319.625 234.144 319.706 234.165 319.781 234.185C319.855 234.213 319.921 234.249 319.987 234.284C320.061 234.325 320.118 234.368 320.176 234.416C320.407 234.612 320.539 234.878 320.539 235.158C320.539 235.437 320.416 235.703 320.176 235.899C319.946 236.095 319.633 236.207 319.304 236.207Z" fill="white"/>
<path d="M45.6491 235.772H11.6895V235.947H45.6491V235.772Z" fill="#E0E0E0"/>
<path d="M114.87 234.374H80.8117V234.549H114.87V234.374Z" fill="#E0E0E0"/>
<path d="M159.188 234.374H150.948V234.549H159.188V234.374Z" fill="#E0E0E0"/>
<path d="M76.8238 240.346H38.7109V240.521H76.8238V240.346Z" fill="#E0E0E0"/>
<path d="M208.649 235.682H190.849V235.856H208.649V235.682Z" fill="#E0E0E0"/>
<path d="M238.999 235.682H215.983V235.856H238.999V235.682Z" fill="#E0E0E0"/>
<path d="M350 238.64H298.546V238.814H350V238.64Z" fill="#E0E0E0"/>
<path d="M159.708 22.8045H121.747L123.817 2.72705H161.778L159.708 22.8045Z" fill="#EBEBEB"/>
<path d="M160.477 0L159.439 10.4848L158.401 23.0822H121.889L123.965 0H160.477Z" fill="#FAFAFA"/>
<path d="M156.985 2.72994L159.055 22.806H121.096L119.027 2.72994H122.254L123.378 1.22021H133.605L135.069 2.72994H156.985Z" fill="#E0E0E0"/>
<path d="M218.543 27.2876H178.151V61.563H218.543V27.2876Z" fill="#EBEBEB"/>
<path d="M219.572 27.2876H218.543V61.563H219.572V27.2876Z" fill="#E0E0E0"/>
<path d="M214.808 30.4575H181.879V58.4003H214.808V30.4575Z" fill="#F5F5F5"/>
<path d="M182.188 30.4575H181.886V58.4003H182.188V30.4575Z" fill="#E0E0E0"/>
<path d="M198.653 48.4689C202.199 48.4689 205.073 45.3616 205.073 41.5286C205.073 37.6956 202.199 34.5884 198.653 34.5884C195.107 34.5884 192.233 37.6956 192.233 41.5286C192.233 45.3616 195.107 48.4689 198.653 48.4689Z" fill="#E0E0E0"/>
<path d="M195.297 51.9736H202.064V46.2319H195.297V51.9736Z" fill="#E0E0E0"/>
<path d="M186.065 58.4002H210.854V56.4451C210.854 52.7221 207.298 49.7041 202.911 49.7041H194.008C189.621 49.7041 186.064 52.7221 186.064 56.4451L186.065 58.4002Z" fill="#E0E0E0"/>
<path d="M185.443 46.7378C185.443 47.8818 187.884 48.8091 187.884 48.8091C187.884 48.8091 190.325 47.8818 190.325 46.7378C190.325 46.1952 189.427 45.8889 188.85 46.0281C188.209 46.1826 187.884 46.8175 187.884 46.8175C187.884 46.8175 187.281 46.1393 186.674 45.9756C186.06 45.8099 185.443 46.1623 185.443 46.7378Z" fill="#E0E0E0"/>
<path d="M207.376 41.6424C207.376 43.1444 210.582 44.3625 210.582 44.3625C210.582 44.3625 213.788 43.1444 213.788 41.6424C213.788 40.9305 212.608 40.5277 211.851 40.711C211.011 40.9137 210.582 41.7473 210.582 41.7473C210.582 41.7473 209.79 40.8571 208.993 40.6417C208.187 40.4243 207.376 40.8872 207.376 41.6424Z" fill="#E0E0E0"/>
<path d="M136.882 212.776C137.259 214.796 138.982 216.539 139.117 218.581C139.221 220.177 138.337 221.685 137.905 223.241C137.472 224.797 137.677 226.737 139.291 227.561C140.41 228.133 141.897 227.957 143.009 227.376C144.121 226.795 144.921 225.873 145.61 224.931C148.128 221.489 149.524 217.463 149.605 213.412C149.638 211.694 149.4 209.878 148.21 208.487C144.505 204.163 135.943 207.741 136.882 212.776Z" fill="#F5F5F5"/>
<path d="M133.858 207.428C134.2 207.762 134.682 207.977 135.185 208.087C135.812 208.224 136.555 208.182 137.005 207.787C137.432 207.412 137.479 206.832 137.418 206.312C137.342 205.675 137.13 205.033 136.67 204.525C136.21 204.017 135.471 203.664 134.719 203.717C133.966 203.769 133.258 204.293 133.22 204.932C133.179 205.619 133.315 206.897 133.858 207.428Z" fill="#F5F5F5"/>
<path d="M140.673 203.223C140.26 202.748 139.664 202.525 139.07 202.627C138.488 202.728 137.951 203.187 137.883 203.706C137.862 203.86 137.852 204.036 137.856 204.216C137.861 204.479 137.886 204.765 137.96 205.032C138.043 205.325 138.186 205.59 138.383 205.755C138.662 205.99 139.027 206.137 139.41 206.199C139.887 206.275 140.439 206.213 140.783 205.911C141.143 205.592 141.235 205.124 141.217 204.688C141.196 204.17 141.037 203.642 140.673 203.223Z" fill="#F5F5F5"/>
<path d="M144.49 203.046C144.082 202.552 143.555 202.423 143.047 202.583C142.561 202.735 142.125 203.182 142.026 203.641C141.994 203.791 141.973 203.95 141.965 204.102C141.954 204.344 141.959 204.604 142.026 204.847C142.099 205.108 142.248 205.343 142.449 205.483C142.695 205.655 142.993 205.753 143.304 205.776C143.693 205.804 144.126 205.719 144.406 205.47C144.739 205.173 144.882 204.761 144.902 204.357C144.925 203.902 144.804 203.425 144.49 203.046Z" fill="#F5F5F5"/>
<path d="M147.891 203.719C147.488 203.207 147.029 203.172 146.608 203.391C146.218 203.593 145.879 204.029 145.754 204.43C145.709 204.576 145.676 204.719 145.66 204.842C145.632 205.062 145.618 205.296 145.678 205.516C145.74 205.746 145.891 205.953 146.101 206.065C146.31 206.177 146.545 206.223 146.785 206.207C147.084 206.187 147.398 206.079 147.616 205.883C147.923 205.607 148.111 205.251 148.172 204.88C148.237 204.483 148.157 204.056 147.891 203.719Z" fill="#F5F5F5"/>
<path d="M148.56 206.548C148.518 206.715 148.494 206.89 148.538 207.057C148.584 207.224 148.709 207.383 148.896 207.447C149.216 207.558 149.567 207.366 149.802 207.152C150.038 206.936 150.234 206.682 150.322 206.398C150.411 206.113 150.381 205.795 150.196 205.546C149.446 204.532 148.687 206.049 148.56 206.548Z" fill="#F5F5F5"/>
<path d="M149.227 259.479C149.78 257.825 150.099 256.018 149.369 254.414C147.097 249.428 137.74 251.02 137.124 256.091L149.227 259.479Z" fill="#F5F5F5"/>
<path d="M135.819 250.264C136.048 250.66 136.449 250.973 136.902 251.189C137.466 251.458 138.197 251.58 138.751 251.296C139.278 251.027 139.499 250.476 139.597 249.96C139.716 249.328 139.705 248.661 139.414 248.07C139.124 247.479 138.516 246.977 137.773 246.864C137.03 246.751 136.187 247.102 135.956 247.712C135.709 248.367 135.454 249.632 135.819 250.264Z" fill="#F5F5F5"/>
<path d="M143.678 247.685C143.423 247.135 142.914 246.789 142.309 246.759C141.716 246.73 141.059 247.056 140.835 247.543C140.769 247.687 140.706 247.856 140.655 248.03C140.58 248.286 140.518 248.567 140.509 248.841C140.5 249.142 140.559 249.429 140.698 249.632C140.898 249.92 141.204 250.142 141.557 250.284C141.995 250.462 142.548 250.523 142.971 250.304C143.415 250.075 143.647 249.643 143.761 249.217C143.896 248.714 143.903 248.17 143.678 247.685Z" fill="#F5F5F5"/>
<path d="M147.42 248.345C147.174 247.779 146.705 247.54 146.166 247.584C145.65 247.626 145.094 247.962 144.859 248.385C144.782 248.523 144.713 248.672 144.661 248.817C144.577 249.049 144.503 249.3 144.495 249.551C144.486 249.819 144.559 250.079 144.711 250.258C144.897 250.477 145.155 250.637 145.449 250.727C145.816 250.839 146.26 250.851 146.606 250.671C147.018 250.456 147.28 250.088 147.421 249.703C147.582 249.267 147.61 248.779 147.42 248.345Z" fill="#F5F5F5"/>
<path d="M150.504 249.736C150.269 249.153 149.837 249.019 149.364 249.139C148.926 249.249 148.465 249.597 148.224 249.958C148.136 250.088 148.062 250.219 148.008 250.335C147.913 250.542 147.829 250.764 147.821 250.99C147.813 251.226 147.895 251.46 148.064 251.613C148.232 251.767 148.446 251.862 148.683 251.899C148.977 251.945 149.315 251.909 149.584 251.768C149.963 251.568 150.254 251.264 150.424 250.92C150.607 250.55 150.659 250.12 150.504 249.736Z" fill="#F5F5F5"/>
<path d="M150.296 252.616C150.204 252.769 150.127 252.932 150.12 253.104C150.113 253.275 150.186 253.455 150.347 253.559C150.623 253.735 151.021 253.626 151.312 253.47C151.606 253.313 151.873 253.111 152.044 252.855C152.216 252.599 152.283 252.285 152.18 252.004C151.761 250.86 150.568 252.161 150.296 252.616Z" fill="#F5F5F5"/>
<path d="M116.744 229.796C117.042 231.826 115.954 233.905 116.491 235.899C116.912 237.458 118.253 238.698 119.177 240.092C120.101 241.485 120.536 243.398 119.255 244.57C118.366 245.382 116.88 245.562 115.622 245.265C114.364 244.968 113.294 244.27 112.325 243.527C108.782 240.811 106.126 237.27 104.728 233.398C104.135 231.754 103.77 229.953 104.462 228.337C106.609 223.311 116.003 224.737 116.744 229.796Z" fill="#F5F5F5"/>
<path d="M117.905 223.947C117.686 224.348 117.293 224.667 116.846 224.892C116.288 225.171 115.561 225.305 115 225.032C114.467 224.771 114.232 224.225 114.121 223.711C113.986 223.081 113.98 222.414 114.256 221.818C114.533 221.223 115.127 220.71 115.867 220.584C116.607 220.457 117.46 220.794 117.705 221.4C117.968 222.049 118.254 223.309 117.905 223.947Z" fill="#F5F5F5"/>
<path d="M109.983 221.508C110.225 220.954 110.725 220.6 111.329 220.559C111.921 220.519 112.586 220.833 112.822 221.316C112.892 221.459 112.959 221.626 113.015 221.799C113.096 222.054 113.165 222.335 113.181 222.607C113.197 222.909 113.145 223.196 113.01 223.401C112.818 223.693 112.516 223.92 112.168 224.069C111.734 224.254 111.184 224.325 110.755 224.114C110.305 223.893 110.063 223.465 109.939 223.042C109.791 222.541 109.771 221.997 109.983 221.508Z" fill="#F5F5F5"/>
<path d="M106.258 222.235C106.491 221.665 106.954 221.417 107.494 221.451C108.01 221.483 108.575 221.81 108.82 222.228C108.9 222.365 108.973 222.513 109.029 222.657C109.119 222.887 109.199 223.137 109.213 223.387C109.229 223.656 109.162 223.916 109.015 224.097C108.834 224.321 108.581 224.485 108.288 224.58C107.925 224.698 107.48 224.718 107.129 224.545C106.712 224.338 106.441 223.975 106.291 223.592C106.119 223.159 106.08 222.672 106.258 222.235Z" fill="#F5F5F5"/>
<path d="M103.211 223.681C103.431 223.093 103.86 222.952 104.336 223.063C104.776 223.166 105.245 223.505 105.496 223.862C105.586 223.991 105.665 224.12 105.721 224.235C105.82 224.44 105.91 224.661 105.924 224.887C105.938 225.123 105.862 225.357 105.697 225.514C105.533 225.671 105.321 225.77 105.085 225.811C104.792 225.862 104.454 225.832 104.181 225.696C103.797 225.503 103.499 225.204 103.319 224.863C103.127 224.496 103.065 224.067 103.211 223.681Z" fill="#F5F5F5"/>
<path d="M103.49 226.556C103.585 226.707 103.666 226.869 103.677 227.04C103.688 227.211 103.619 227.393 103.461 227.499C103.19 227.68 102.789 227.578 102.494 227.427C102.197 227.276 101.925 227.078 101.748 226.825C101.57 226.572 101.495 226.26 101.591 225.977C101.981 224.827 103.205 226.106 103.49 226.556Z" fill="#F5F5F5"/>
<path d="M96.5199 61.9187C91.2319 62.5452 86.3287 59.4034 85.5904 54.9162C84.852 50.4283 88.5545 46.2676 93.8425 45.6411C99.1314 45.0146 104.035 48.1564 104.773 52.6443C105.511 57.1322 101.809 61.2929 96.5199 61.9187ZM94.5545 49.9668C92.0766 50.2605 90.3419 52.21 90.688 54.3127C91.0341 56.4155 93.3308 57.8874 95.8096 57.5937C98.2875 57.3 100.023 55.3505 99.6769 53.2478C99.3308 51.1451 97.0325 49.6731 94.5545 49.9668Z" fill="#E0E0E0"/>
<path d="M92.8801 29.2891L89.2392 29.7202L92.5066 49.5897L96.1475 49.1585L92.8801 29.2891Z" fill="#E0E0E0"/>
<path d="M95.8828 26.7303L89.0483 27.5396L89.5564 30.629L96.3908 29.8198L95.8828 26.7303Z" fill="#E0E0E0"/>
<path d="M96.5421 30.698L90.1157 31.459L90.6237 34.5485L97.0501 33.7875L96.5421 30.698Z" fill="#E0E0E0"/>
<path d="M97.4741 36.2958L91.8647 36.96L92.3728 40.0495L97.9822 39.3853L97.4741 36.2958Z" fill="#E0E0E0"/>
<path d="M88.8892 131.625C96.4848 124.891 95.6217 113.73 86.9614 106.696C78.3011 99.6612 65.1231 99.4171 57.5275 106.15C49.9319 112.884 50.795 124.045 59.4553 131.079C68.1156 138.114 81.2936 138.358 88.8892 131.625Z" fill="#5C81F5"/>
<g opacity="0.8">
<path d="M88.8892 131.625C96.4848 124.891 95.6217 113.73 86.9614 106.696C78.3011 99.6612 65.1231 99.4171 57.5275 106.15C49.9319 112.884 50.795 124.045 59.4553 131.079C68.1156 138.114 81.2936 138.358 88.8892 131.625Z" fill="white"/>
</g>
<path d="M63.5235 107.827C63.2713 107.827 63.0233 107.729 62.861 107.545C62.5898 107.234 62.6665 106.797 63.0315 106.567C65.6471 104.919 68.9417 104.048 72.5594 104.048C72.5635 104.048 72.5676 104.048 72.5717 104.048C73.0266 104.049 73.3949 104.361 73.3949 104.748C73.3949 105.134 73.0258 105.446 72.5709 105.446C72.5709 105.446 72.5635 105.446 72.5594 105.446C69.2977 105.446 66.3434 106.222 64.0138 107.689C63.8671 107.783 63.6949 107.827 63.5235 107.827Z" fill="#5C81F5"/>
<path d="M67.4215 131.884C67.2905 131.884 67.1578 131.858 67.0334 131.801C61.925 129.48 58.3503 125.355 57.2271 120.485C56.2151 116.1 57.4207 111.76 60.534 108.575C60.8241 108.28 61.3441 108.238 61.6943 108.484C62.0445 108.73 62.0923 109.171 61.8023 109.468C59.0062 112.328 57.9283 116.245 58.8447 120.215C59.8723 124.673 63.1414 128.445 67.8113 130.567C68.2126 130.749 68.3643 131.174 68.1492 131.514C68 131.751 67.7157 131.884 67.4215 131.884Z" fill="#5C81F5"/>
<path d="M75.6696 133.708C73.8921 133.708 72.0668 133.463 70.2407 132.963C69.808 132.845 69.5699 132.452 69.7083 132.084C69.8484 131.717 70.314 131.513 70.7458 131.633C75.8138 133.017 80.8769 132.247 84.6288 129.516C88.4541 126.732 90.2324 122.393 89.3861 117.91C89.3136 117.528 89.6202 117.17 90.0693 117.108C90.5159 117.045 90.9411 117.306 91.0136 117.688C91.9514 122.655 89.9654 127.473 85.7017 130.577C82.8661 132.642 79.3729 133.708 75.6696 133.708Z" fill="#5C81F5"/>
<path d="M89.53 116.134C89.1814 116.134 88.8583 115.945 88.7454 115.648C87.2267 111.644 83.6602 108.273 79.2061 106.631C78.7883 106.477 78.5971 106.065 78.7784 105.71C78.9589 105.357 79.4426 105.193 79.8621 105.348C84.7446 107.148 88.6523 110.839 90.3145 115.221C90.4537 115.588 90.2156 115.982 89.7821 116.1C89.6981 116.123 89.614 116.134 89.53 116.134Z" fill="#5C81F5"/>
<path d="M76.541 105.842C76.4784 105.842 76.4141 105.836 76.3506 105.823C75.1112 105.574 73.8389 105.448 72.5698 105.446C72.1149 105.446 71.7458 105.132 71.7466 104.746C71.7474 104.36 72.1158 104.048 72.5706 104.048C73.9666 104.049 75.3675 104.188 76.7305 104.462C77.173 104.551 77.4475 104.928 77.342 105.304C77.253 105.625 76.9143 105.842 76.541 105.842Z" fill="#5C81F5"/>
<path d="M62.0075 122.55C61.6721 122.55 61.3565 122.374 61.2345 122.092C59.6869 118.521 60.2135 114.754 62.6791 111.757C65.0408 108.885 68.8027 107.237 72.998 107.237H73.0005C73.4562 107.237 73.8245 107.551 73.8245 107.937C73.8245 108.323 73.4553 108.636 73.0005 108.636H72.998C69.3482 108.636 66.08 110.065 64.0297 112.557C61.8773 115.175 61.4224 118.474 62.7804 121.609C62.937 121.972 62.7186 122.374 62.2909 122.507C62.1978 122.536 62.1014 122.55 62.0075 122.55Z" fill="#5C81F5"/>
<path d="M75.0784 130.533C75.076 130.533 75.0727 130.533 75.0702 130.533C70.2857 130.491 65.4385 128.166 62.72 124.609C62.4719 124.285 62.5807 123.852 62.9631 123.642C63.3446 123.432 63.8547 123.525 64.1027 123.848C66.5288 127.023 70.8403 129.097 75.0867 129.134C75.5424 129.138 75.9074 129.454 75.9025 129.84C75.8975 130.225 75.53 130.533 75.0784 130.533Z" fill="#5C81F5"/>
<path d="M78.1545 130.23C77.7854 130.23 77.4491 130.017 77.3552 129.7C77.2456 129.325 77.5142 128.945 77.9559 128.852C84.6399 127.44 86.3704 122.482 85.8216 118.666C85.1055 113.687 80.4702 108.643 72.9976 108.636C72.5419 108.636 72.1735 108.322 72.1743 107.936C72.1751 107.55 72.5435 107.237 72.9984 107.237H72.9992C81.4294 107.245 86.6531 112.908 87.4574 118.497C88.288 124.268 84.7141 128.866 78.3531 130.21C78.288 130.224 78.2205 130.23 78.1545 130.23Z" fill="#5C81F5"/>
<path d="M69.6328 112.498C69.3213 112.498 69.0238 112.348 68.8846 112.093C68.6934 111.743 68.873 111.327 69.2859 111.164C70.5154 110.682 71.9023 110.426 73.295 110.426C73.7507 110.426 74.119 110.739 74.119 111.125C74.119 111.511 73.7507 111.824 73.295 111.824C72.1396 111.824 70.9925 112.035 69.9781 112.433C69.866 112.477 69.7482 112.498 69.6328 112.498Z" fill="#5C81F5"/>
<path d="M74.9244 127.276C70.776 127.276 66.9499 125.13 65.1139 121.747C63.4056 118.6 63.9058 115.303 66.4522 112.929C66.7587 112.643 67.2804 112.622 67.6158 112.882C67.952 113.142 67.9767 113.584 67.6701 113.87C65.5844 115.816 65.1881 118.542 66.6112 121.163C68.2157 124.119 71.6059 125.969 75.1872 125.874C78.0987 125.798 80.5198 124.448 81.6627 122.263C82.959 119.785 82.3755 116.858 80.1399 114.625C79.8448 114.331 79.8869 113.889 80.2338 113.639C80.5816 113.39 81.1015 113.424 81.3949 113.72C84.0451 116.366 84.7241 119.857 83.1683 122.83C81.7616 125.518 78.7958 127.179 75.2375 127.272C75.1337 127.274 75.029 127.276 74.9244 127.276Z" fill="#5C81F5"/>
<path d="M78.4003 113.113C78.2479 113.113 78.0954 113.077 77.9578 113.003C76.5346 112.233 74.9219 111.825 73.2952 111.824C72.8395 111.824 72.4712 111.511 72.4712 111.125C72.4712 110.739 72.8404 110.426 73.2952 110.426C75.2367 110.426 77.156 110.91 78.8445 111.824C79.2285 112.032 79.3406 112.464 79.0958 112.79C78.9393 112.999 78.6723 113.113 78.4003 113.113Z" fill="#5C81F5"/>
<path d="M74.5139 124.121C72.6119 124.121 70.7735 123.398 69.4764 122.09C67.8464 120.445 67.469 118.262 68.4949 116.393C69.4484 114.655 71.3783 113.616 73.6577 113.615C74.1126 113.615 74.4817 113.927 74.4817 114.314C74.4817 114.7 74.1134 115.013 73.6577 115.013C72.0367 115.014 70.6655 115.75 69.9898 116.982C69.2382 118.353 69.5258 119.966 70.7388 121.19C71.9791 122.441 73.8645 122.983 75.6643 122.602C77.1929 122.28 78.2988 121.33 78.621 120.061C78.7166 119.684 79.1501 119.445 79.6008 119.525C80.0458 119.606 80.3285 119.978 80.2329 120.356C79.7747 122.158 78.2164 123.505 76.0623 123.96C75.5464 124.067 75.0281 124.121 74.5139 124.121Z" fill="#5C81F5"/>
<path d="M79.2846 118.584C78.9335 118.584 78.6089 118.392 78.4984 118.094C77.8408 116.311 75.8054 115.015 73.6562 115.013C73.2005 115.013 72.8322 114.699 72.833 114.313C72.8338 113.927 73.2022 113.615 73.6571 113.615C76.5067 113.618 79.2047 115.326 80.0707 117.676C80.2067 118.045 79.9644 118.437 79.531 118.553C79.4494 118.573 79.3662 118.584 79.2846 118.584Z" fill="#5C81F5"/>
<path d="M74.7115 121.212C74.2673 121.212 73.9006 120.911 73.8882 120.532C73.8759 120.146 74.2352 119.824 74.69 119.814C75.4399 119.797 75.552 119.342 75.552 119.072C75.552 118.659 75.2347 118.037 74.3621 118.018C74.1239 118.024 73.8866 118.109 73.7201 118.264C73.552 118.42 73.4713 118.631 73.4894 118.874C73.5166 119.26 73.1713 119.591 72.7164 119.615C72.2632 119.641 71.8726 119.345 71.8437 118.959C71.7992 118.337 72.0333 117.756 72.5046 117.32C72.9727 116.886 73.6328 116.637 74.3612 116.621C76.2211 116.662 77.2001 117.915 77.2001 119.072C77.2001 120.299 76.1865 121.179 74.7354 121.213C74.7263 121.212 74.7189 121.212 74.7115 121.212Z" fill="#5C81F5"/>
<path d="M95.9478 118.885C96.9524 128.626 88.462 136.52 76.9829 136.52C76.6862 136.52 76.3887 136.514 76.0912 136.5C87.0183 136.024 94.9507 128.318 93.9783 118.885C93.0067 109.459 83.4847 101.753 72.4596 101.277C72.7546 101.263 73.0504 101.256 73.3471 101.256C84.8271 101.256 94.9441 109.151 95.9478 118.885Z" fill="#5C81F5"/>
<g opacity="0.4">
<path d="M95.9478 118.885C96.9524 128.626 88.462 136.52 76.9829 136.52C76.6862 136.52 76.3887 136.514 76.0912 136.5C87.0183 136.024 94.9507 128.318 93.9783 118.885C93.0067 109.459 83.4847 101.753 72.4596 101.277C72.7546 101.263 73.0504 101.256 73.3471 101.256C84.8271 101.256 94.9441 109.151 95.9478 118.885Z" fill="white"/>
</g>
<path d="M112.74 32.9369C112.762 33.1467 112.8 33.3565 112.846 33.5593C113.15 34.9089 114 36.1256 115.166 37.0346C116.51 38.0835 118.283 38.7339 120.17 38.7339H189.795C193.322 38.7339 195.99 36.4682 196.051 33.5593C196.056 33.3565 196.051 33.1467 196.028 32.9369C195.864 31.3426 194.947 29.8881 193.604 28.8462C192.26 27.7973 190.487 27.147 188.599 27.147H118.974C115.201 27.147 112.411 29.7413 112.74 32.9369Z" fill="#5C81F5"/>
<path opacity="0.8" d="M112.74 32.9369C112.762 33.1467 112.8 33.3565 112.846 33.5593C113.15 34.9089 114 36.1256 115.166 37.0346C116.51 38.0835 118.283 38.7339 120.17 38.7339H189.795C193.322 38.7339 195.99 36.4682 196.051 33.5593C196.056 33.3565 196.051 33.1467 196.028 32.9369C195.864 31.3426 194.947 29.8881 193.604 28.8462C192.26 27.7973 190.487 27.147 188.599 27.147H118.974C115.201 27.147 112.411 29.7413 112.74 32.9369Z" fill="white"/>
<path d="M196.049 33.5578C196.049 33.7466 196.032 33.9354 195.999 34.1172C195.785 32.6068 194.887 31.2362 193.601 30.2433C192.258 29.1944 190.486 28.544 188.599 28.544L114.557 28.6419C115.67 27.7119 117.219 27.1455 118.974 27.1455H188.599C190.486 27.1455 192.258 27.7958 193.601 28.8447C194.944 29.8866 195.867 31.3411 196.032 32.9355C196.049 33.1452 196.057 33.355 196.049 33.5578Z" fill="#5C81F5"/>
<path opacity="0.5" d="M196.049 33.5578C196.049 33.7466 196.032 33.9354 195.999 34.1172C195.785 32.6068 194.887 31.2362 193.601 30.2433C192.258 29.1944 190.486 28.544 188.599 28.544L114.557 28.6419C115.67 27.7119 117.219 27.1455 118.974 27.1455H188.599C190.486 27.1455 192.258 27.7958 193.601 28.8447C194.944 29.8866 195.867 31.3411 196.032 32.9355C196.049 33.1452 196.057 33.355 196.049 33.5578Z" fill="white"/>
<path d="M184.06 29.9409L184.352 32.7674L187.453 31.7863L188.189 33.1813L185.02 34.0736L187.295 36.4448L185.875 37.3378L183.657 34.8736L181.977 37.3378L180.417 36.4448L182.174 34.0736L178.85 33.1813L179.298 31.7947L182.629 32.7401L182.341 29.9409H184.06Z" fill="#5C81F5"/>
<path d="M165.018 29.9409L165.31 32.7674L168.411 31.7863L169.147 33.1813L165.978 34.0736L168.253 36.4448L166.833 37.3378L164.615 34.8736L162.935 37.3378L161.375 36.4448L163.132 34.0736L159.808 33.1813L160.256 31.7947L163.587 32.7401L163.299 29.9409H165.018Z" fill="#5C81F5"/>
<path d="M145.976 29.9409L146.268 32.7674L149.369 31.7863L150.106 33.1813L146.936 34.0736L149.212 36.4448L147.792 37.3378L145.573 34.8736L143.893 37.3378L142.333 36.4448L144.09 34.0736L140.767 33.1813L141.214 31.7947L144.546 32.7401L144.257 29.9409H145.976Z" fill="#5C81F5"/>
<path d="M126.935 29.9409L127.227 32.7674L130.327 31.7863L131.064 33.1813L127.895 34.0736L130.17 36.4448L128.75 37.3378L126.532 34.8736L124.852 37.3378L123.292 36.4448L125.049 34.0736L121.725 33.1813L122.173 31.7947L125.504 32.7401L125.216 29.9409H126.935Z" fill="#5C81F5"/>
<path d="M173.085 24.4062H169.841V25.1055H173.085V24.4062Z" fill="#5C81F5"/>
<path d="M187.044 24.4062H176.452V25.1055H187.044V24.4062Z" fill="#5C81F5"/>
<path opacity="0.8" d="M295.168 50.4903L291.796 83.1952C291.694 84.1811 291.173 85.0762 290.387 85.7475C289.48 86.5517 288.208 87.0551 286.849 87.0551H260.091C259.102 87.0551 258.215 86.7894 257.521 86.3279C256.439 85.6356 255.807 84.4888 255.941 83.1952L259.313 50.4903C259.533 48.3576 261.746 46.6304 264.259 46.6304H291.017C293.53 46.6304 295.388 48.3576 295.168 50.4903Z" fill="#5C81F5"/>
<path opacity="0.8" d="M295.168 50.4903L291.796 83.1952C291.694 84.1811 291.173 85.0762 290.387 85.7475C289.48 86.5517 288.208 87.0551 286.849 87.0551H260.091C259.102 87.0551 258.215 86.7894 257.521 86.3279C256.439 85.6356 255.807 84.4888 255.941 83.1952L259.313 50.4903C259.533 48.3576 261.746 46.6304 264.259 46.6304H291.017C293.53 46.6304 295.388 48.3576 295.168 50.4903Z" fill="white"/>
<path d="M261.783 55.757C261.759 55.757 261.734 55.7563 261.71 55.7542C261.256 55.7206 260.922 55.3815 260.961 54.9969L261.27 52.0061C261.307 51.6446 261.663 51.3677 262.09 51.3677H265.811C266.267 51.3677 266.635 51.6809 266.635 52.0669C266.635 52.4529 266.267 52.7662 265.811 52.7662H262.845L262.603 55.1186C262.565 55.4829 262.206 55.757 261.783 55.757Z" fill="#5C81F5"/>
<path d="M291.746 55.757C291.722 55.757 291.697 55.7563 291.673 55.7542C291.219 55.7206 290.885 55.3815 290.924 54.9969L291.154 52.7662H288.333C287.877 52.7662 287.509 52.4529 287.509 52.0669C287.509 51.6809 287.877 51.3677 288.333 51.3677H292.053C292.284 51.3677 292.505 51.4502 292.661 51.5942C292.817 51.739 292.894 51.932 292.874 52.1278L292.566 55.1186C292.528 55.4829 292.168 55.757 291.746 55.757Z" fill="#5C81F5"/>
<path d="M263.177 78.3275H259.455C259.224 78.3275 259.004 78.245 258.848 78.1003C258.692 77.9562 258.615 77.7625 258.634 77.5667L258.943 74.576C258.984 74.1914 259.39 73.9026 259.836 73.9403C260.29 73.9739 260.624 74.313 260.585 74.6976L260.355 76.9283H263.177C263.632 76.9283 264.001 77.2416 264.001 77.6276C264.001 78.0143 263.631 78.3275 263.177 78.3275Z" fill="#5C81F5"/>
<path d="M289.418 78.3273H285.698C285.242 78.3273 284.874 78.0141 284.874 77.6281C284.874 77.2421 285.242 76.9288 285.698 76.9288H288.663L288.906 74.5765C288.946 74.1919 289.361 73.9031 289.798 73.9408C290.252 73.9744 290.587 74.3135 290.547 74.6981L290.239 77.6889C290.202 78.0497 289.845 78.3273 289.418 78.3273Z" fill="#5C81F5"/>
<path d="M286.573 67.0548C288.433 60.9331 285.24 54.942 279.442 53.6731C273.643 52.4042 267.434 56.3382 265.574 62.4598C263.714 68.5814 266.906 74.5726 272.705 75.8414C278.503 77.1103 284.712 73.1764 286.573 67.0548Z" fill="white"/>
<path d="M279.311 82.1558H268.64L269.573 73.0996H280.245L279.311 82.1558Z" fill="white"/>
<path d="M291.796 83.1951C291.694 84.1811 291.173 85.0761 290.387 85.7474C289.48 86.5516 288.208 87.055 286.849 87.055H260.091C259.102 87.055 258.215 86.7893 257.521 86.3278C256.439 85.6355 255.807 84.4887 255.941 83.1951C255.941 83.1951 268.238 79.8945 269.754 79.8945C271.262 79.8945 279.256 79.8945 279.256 79.8945L291.796 83.1951Z" fill="white"/>
<path d="M296.676 60.0358L295.43 72.8823L296.251 72.9396L297.496 60.0931L296.676 60.0358Z" fill="#5C81F5"/>
<path d="M297.546 54.1641L297.302 56.6875L298.122 56.7448L298.367 54.2214L297.546 54.1641Z" fill="#5C81F5"/>
<path d="M268.87 132.183H265.625V132.882H268.87V132.183Z" fill="#5C81F5"/>
<path d="M282.829 132.183H272.236V132.882H282.829V132.183Z" fill="#5C81F5"/>
<path d="M302.205 120.245L300.15 140.177C299.965 141.974 298.098 143.43 295.981 143.43C293.864 143.43 292.298 141.974 292.483 140.177L294.538 120.245C295.202 113.808 289.571 108.567 281.984 108.567H273.581C265.995 108.567 259.283 113.808 258.619 120.245L257.78 128.384H250.113L250.952 120.245C251.985 110.218 262.44 102.062 274.251 102.062H282.654C294.467 102.062 303.239 110.218 302.205 120.245Z" fill="#5C81F5"/>
<g opacity="0.5">
<path d="M302.205 120.245L300.15 140.177C299.965 141.974 298.098 143.43 295.981 143.43C293.864 143.43 292.298 141.974 292.483 140.177L294.538 120.245C295.202 113.808 289.571 108.567 281.984 108.567H273.581C265.995 108.567 259.283 113.808 258.619 120.245L257.78 128.384H250.113L250.952 120.245C251.985 110.218 262.44 102.062 274.251 102.062H282.654C294.467 102.062 303.239 110.218 302.205 120.245Z" fill="white"/>
</g>
<path d="M302.76 139.447L298.756 178.282C298.503 180.74 295.955 182.728 293.058 182.728H247.292C244.401 182.728 242.258 180.74 242.512 178.282L246.516 139.447C246.679 137.86 247.808 136.465 249.362 135.681C250.211 135.251 251.191 135.001 252.213 135.001H297.979C298.971 135.001 299.871 135.236 300.618 135.637C302.059 136.418 302.927 137.832 302.76 139.447Z" fill="#5C81F5"/>
<path d="M255.165 156.41L267.055 171.944L306.273 138.664C306.618 138.372 306.143 137.917 305.759 138.172L268.384 163.031L261.326 153.374L255.165 156.41Z" fill="white"/>
<path d="M67.8632 81.3009H38.0799C35.2838 81.3009 32.8182 79.3772 32.5735 77.0039L29.9678 51.7309C29.7231 49.3583 31.7915 47.4346 34.5883 47.4346H64.3716C67.1685 47.4346 69.6332 49.3583 69.878 51.7309L72.4837 77.0039C72.7284 79.3772 70.66 81.3009 67.8632 81.3009Z" fill="#5C81F5"/>
<path opacity="0.8" d="M67.8632 81.3009H38.0799C35.2838 81.3009 32.8182 79.3772 32.5735 77.0039L29.9678 51.7309C29.7231 49.3583 31.7915 47.4346 34.5883 47.4346H64.3716C67.1685 47.4346 69.6332 49.3583 69.878 51.7309L72.4837 77.0039C72.7284 79.3772 70.66 81.3009 67.8632 81.3009Z" fill="white"/>
<path d="M32.5884 66.9131C32.5884 66.9131 43.1685 54.4039 50.974 54.7248C58.7796 55.0451 71.7215 66.618 71.7215 66.618C71.7215 66.618 52.6255 75.1253 32.5884 66.9131Z" fill="white"/>
<path d="M32.9239 67.1165L32.2539 66.7089C32.6849 66.1984 42.783 54.3682 50.6766 54.3682C50.783 54.3682 50.8884 54.3703 50.9939 54.3745C58.8736 54.6982 71.4867 65.8998 72.0199 66.3767L71.4224 66.8578C71.2939 66.7431 58.5044 55.3828 50.9535 55.0723C50.8612 55.0688 50.7665 55.0667 50.6725 55.0667C43.2016 55.0681 33.0269 66.9949 32.9239 67.1165Z" fill="#263238"/>
<path d="M31.488 67.3528C29.8918 67.3528 27.8193 66.8494 27.0851 64.9327C27.015 64.7488 27.1337 64.5516 27.3496 64.4921C27.5655 64.4341 27.7987 64.5334 27.8688 64.7166C28.8148 67.1906 32.3541 66.5969 32.5041 66.5704C32.7225 66.5333 32.945 66.6522 32.9911 66.8417C33.0381 67.0305 32.8947 67.2158 32.6714 67.2549C32.3409 67.3137 31.933 67.3528 31.488 67.3528Z" fill="#263238"/>
<path d="M37.7744 61.9825C37.6871 61.9825 37.5981 61.9588 37.5231 61.9105C37.3995 61.8294 34.4757 59.9106 33.7291 57.9624C33.6591 57.7792 33.7777 57.582 33.9936 57.5219C34.2095 57.4625 34.4427 57.5639 34.5128 57.7464C35.1795 59.4861 37.9961 61.3364 38.0249 61.3553C38.2054 61.4728 38.2392 61.6923 38.1008 61.8455C38.02 61.9357 37.898 61.9825 37.7744 61.9825Z" fill="#263238"/>
<path d="M43.8315 57.2209C43.829 57.2209 43.8257 57.2209 43.8224 57.2209C43.595 57.2167 43.4145 57.0573 43.4194 56.8636C43.431 56.4154 42.1207 53.4882 41.6271 52.3862C41.4203 51.9247 41.2728 51.5939 41.2414 51.5051C41.1755 51.3205 41.2983 51.1254 41.5159 51.0688C41.7384 51.0128 41.9641 51.1177 42.0301 51.3023C42.0597 51.3862 42.2015 51.7002 42.3968 52.1379C43.5455 54.7036 44.255 56.3923 44.2427 56.879C44.2386 57.0692 44.0548 57.2209 43.8315 57.2209Z" fill="#263238"/>
<path d="M50.9731 55.0746C50.7621 55.0746 50.5816 54.9375 50.5635 54.7557L49.9834 49.1238C49.9636 48.9315 50.1317 48.7616 50.3575 48.7448C50.5899 48.7203 50.7844 48.87 50.8041 49.063L51.3843 54.6949C51.4041 54.8872 51.2359 55.0571 51.0101 55.0739C50.997 55.0739 50.9854 55.0746 50.9731 55.0746Z" fill="#263238"/>
<path d="M72.9559 66.9721C72.2884 66.9721 71.7964 66.8917 71.7527 66.884C71.5294 66.8462 71.386 66.6623 71.4297 66.4728C71.475 66.2833 71.6876 66.1582 71.9142 66.198C71.934 66.2008 73.9258 66.5253 75.1627 65.7868C75.6876 65.4729 75.9967 65.019 76.1063 64.4002C76.14 64.2086 76.3527 64.0799 76.5743 64.1065C76.7985 64.1352 76.9542 64.3128 76.9204 64.5044C76.7779 65.3127 76.3452 65.9372 75.6341 66.3609C74.8026 66.8567 73.7536 66.9721 72.9559 66.9721Z" fill="#263238"/>
<path d="M65.5577 61.6107C65.444 61.6107 65.3311 61.5708 65.2495 61.4925C65.0979 61.3485 65.1143 61.1275 65.2841 60.9988C65.3088 60.9807 67.7208 59.1486 68.0249 57.4305C68.0587 57.2389 68.2705 57.1102 68.493 57.1368C68.718 57.1654 68.8729 57.3438 68.8391 57.5347C68.4913 59.5045 65.9384 61.4408 65.8304 61.5226C65.7522 61.5813 65.6549 61.6107 65.5577 61.6107Z" fill="#263238"/>
<path d="M58.5926 57.5479C58.5695 57.5479 58.5464 57.5465 58.5234 57.543C58.2992 57.5108 58.1476 57.3304 58.1855 57.1395C58.1946 57.0947 59.0903 52.5984 59.2527 51.6782C59.2864 51.4866 59.4991 51.3572 59.7207 51.3845C59.9457 51.4132 60.1006 51.5915 60.0668 51.7824C59.9037 52.7082 59.0071 57.2108 58.998 57.2563C58.9642 57.4269 58.7895 57.5479 58.5926 57.5479Z" fill="#263238"/>
<path d="M58.8385 68.371C62.2513 65.3456 61.8635 60.3309 57.9724 57.1703C54.0814 54.0097 48.1605 53.9001 44.7477 56.9254C41.3349 59.9508 41.7227 64.9655 45.6138 68.1261C49.5048 71.2867 55.4258 71.3963 58.8385 68.371Z" fill="#5C81F5"/>
<path opacity="0.3" d="M55.6493 62.6464C55.6642 62.4715 55.6625 62.2967 55.6436 62.1149C55.4515 60.2548 53.5166 58.7514 51.3246 58.7514C49.1409 58.7514 47.5158 60.2548 47.7078 62.1149C47.7268 62.2967 47.7614 62.4715 47.8199 62.6464H42.4553C42.0037 58.2689 45.8166 54.7236 50.9752 54.7236C56.1256 54.7236 60.6778 58.2689 61.1285 62.6464H55.6493Z" fill="black"/>
<path opacity="0.7" d="M55.6437 62.1145C55.6626 62.2963 55.6643 62.4711 55.6494 62.6459C55.5102 64.2542 53.9964 65.4779 52.0186 65.4779C50.0491 65.4779 48.2831 64.2542 47.8208 62.6459C47.7615 62.4711 47.7269 62.2963 47.7088 62.1145C47.5168 60.2544 49.1418 58.751 51.3256 58.751C53.5168 58.751 55.4517 60.2544 55.6437 62.1145Z" fill="black"/>
<path opacity="0.7" d="M57.7977 58.8141C57.9534 60.3287 56.6333 61.5559 54.8492 61.5559C53.0642 61.5559 51.4911 60.328 51.3354 58.8141C51.1788 57.2995 52.4989 56.0723 54.2839 56.0723C56.0679 56.0716 57.6411 57.2995 57.7977 58.8141Z" fill="white"/>
<path d="M45.0363 44.2944H41.7912V44.9937H45.0363V44.2944Z" fill="#5C81F5"/>
<path d="M58.9946 44.2944H48.4029V44.9937H58.9946V44.2944Z" fill="#5C81F5"/>
<path d="M194.785 95.5274L195.07 95.8148L195.449 96.1841C195.721 96.4288 195.984 96.6875 196.28 96.9267C196.847 97.4316 197.466 97.9175 198.092 98.4189C199.345 99.3979 200.659 100.32 202.027 101.18C203.418 102.056 204.881 102.865 206.352 103.661C207.151 104.037 207.85 104.436 208.626 104.798L210.416 105.637C210.676 105.735 210.968 105.75 211.239 105.679C211.813 105.533 215.128 102.749 216.183 101.719C218.52 99.4433 222.068 96.4547 223.975 93.9072L226.15 96.4043C224.802 99.5231 223.012 102.491 220.819 105.243C219.638 106.728 218.225 108.071 216.62 109.235C215.652 109.927 214.56 110.482 213.385 110.88C211.899 111.385 210.266 111.489 208.708 111.177C208.303 111.095 207.909 110.983 207.526 110.844L206.786 110.569L205.452 110.053C204.551 109.714 203.688 109.314 202.814 108.94C201.066 108.15 199.371 107.279 197.737 106.331C196.089 105.37 194.508 104.33 193.002 103.214C192.217 102.635 191.516 102.046 190.8 101.408C190.443 101.096 190.086 100.762 189.738 100.422L189.222 99.8923C189.038 99.6937 188.899 99.5468 188.64 99.2468L194.785 95.5274Z" fill="#FFB573"/>
<path d="M223.677 94.2912L227.503 87.3545L231.153 92.9039C231.153 92.9039 228.757 96.4079 226.152 96.403L223.677 94.2912Z" fill="#FFB573"/>
<path d="M231.806 84.4751L235.665 88.6826L231.153 92.8971L227.503 87.3547L231.806 84.4751Z" fill="#FFB573"/>
<path d="M230.464 94.8138H236.534C236.89 94.8138 237.187 94.5831 237.218 94.2824L238.492 81.927C238.528 81.5865 238.211 81.2935 237.808 81.2935H231.738C231.382 81.2935 231.086 81.5242 231.054 81.8249L229.78 94.1803C229.746 94.5208 230.061 94.8138 230.464 94.8138Z" fill="#5C81F5"/>
<path opacity="0.3" d="M230.525 93.5751H236.608L237.747 82.5322H231.664L230.525 93.5751Z" fill="white"/>
<path d="M230.133 92.0124L231.215 91.5411C231.762 91.3027 232.268 91.002 232.718 90.6467L232.917 90.0349C232.681 89.7006 232.211 89.5398 231.768 89.6426L230.87 89.8496L226.417 90.137L226.306 91.7285L227.606 93.4396L228.058 93.4543C229.08 93.4886 229.971 92.869 230.133 92.0124Z" fill="#FFB573"/>
<path d="M187.029 88.7482C190.117 88.2727 211.914 104.311 211.914 104.311L205.452 112.352C205.452 112.352 181.617 98.2694 182.35 94.8668C183.109 91.3257 182.523 89.4467 187.029 88.7482Z" fill="#263238"/>
<path opacity="0.2" d="M189.776 93.9062L189.539 102.325C192.017 103.955 200.947 109.766 200.947 109.766L189.776 93.9062Z" fill="black"/>
<path d="M172.497 255.42L179.809 256.033L182.126 241.649L174.813 241.037L172.497 255.42Z" fill="#FFB573"/>
<path d="M100.533 171.018L98.6587 177.06L114.477 182.845L117.752 176.715L100.533 171.018Z" fill="#FFB573"/>
<path d="M185.038 257.278C185.667 257.343 186.303 257.223 186.841 256.941C187.084 256.764 187.209 256.498 187.176 256.229C187.172 256.062 187.066 255.91 186.897 255.827C186.01 255.38 183.024 256.58 182.691 256.716C182.626 256.746 182.586 256.804 182.59 256.867C182.601 256.929 182.656 256.978 182.728 256.99C183.487 257.145 184.26 257.242 185.038 257.278ZM186.368 256.024C186.481 256.019 186.593 256.041 186.692 256.085C186.762 256.118 186.807 256.181 186.808 256.248C186.827 256.426 186.747 256.601 186.589 256.72C186.134 257.047 184.918 257.073 183.294 256.804C184.266 256.394 185.314 256.129 186.392 256.02L186.368 256.024Z" fill="#5C81F5"/>
<path d="M182.767 257.002L182.831 256.989C183.724 256.678 185.507 255.371 185.392 254.66C185.344 254.498 185.238 254.282 184.755 254.226C184.407 254.174 184.049 254.249 183.771 254.434C182.825 255.059 182.597 256.743 182.583 256.811C182.569 256.861 182.585 256.914 182.625 256.953C182.661 256.987 182.713 257.005 182.767 257.002ZM184.584 254.514L184.688 254.491C185.006 254.533 185.019 254.637 185.022 254.673C185.097 255.104 183.879 256.132 182.966 256.549C183.053 255.839 183.404 255.172 183.968 254.644C184.152 254.534 184.377 254.486 184.6 254.51L184.584 254.514Z" fill="#5C81F5"/>
<path d="M179.447 253.53L172.824 253.763C172.527 253.766 172.282 253.959 172.255 254.209L170.675 262.013C170.638 262.573 171.142 263.051 171.8 263.082C171.846 263.084 171.892 263.084 171.937 263.082C174.812 262.956 176.196 262.775 179.839 262.67C182.072 262.606 188.939 263.292 191.952 262.703C194.965 262.115 194.433 259.551 193.116 259.567C188.879 259.636 183.993 257.295 181.542 254.555C181.178 254.321 179.903 253.507 179.447 253.53Z" fill="#263238"/>
<path d="M102.02 177.855L105.381 173.007C105.54 172.795 105.482 172.515 105.248 172.36L98.3785 167C97.8453 166.671 97.0979 166.77 96.709 167.223C96.6818 167.254 96.657 167.286 96.6348 167.321C95.2009 169.438 94.629 170.523 92.7567 173.177C91.6096 174.803 87.2042 179.326 86.1527 181.794C85.1012 184.262 87.9277 185.272 88.6265 184.326C90.8565 181.267 95.8247 179.054 99.8668 178.792C100.298 178.66 101.796 178.193 102.02 177.855Z" fill="#263238"/>
<path opacity="0.2" d="M182.126 241.649L180.931 249.064L173.619 248.457L174.804 241.043L182.126 241.649Z" fill="black"/>
<path opacity="0.2" d="M122.613 178.207L119.235 184.677L109.055 180.862L111.652 174.696L122.613 178.207Z" fill="black"/>
<path d="M191.694 96.1586C195.874 102.183 190.766 107.271 186.502 125.284L158.957 125.346C159.403 115.639 159.356 107.791 154.473 88.6953C154.021 86.9569 155.314 85.236 157.363 84.8521C157.629 84.8025 157.9 84.7766 158.172 84.7759C160.451 84.778 163.31 84.8451 166.215 85.0961C170.803 85.4122 175.361 85.9968 179.854 86.8464C183.679 87.6268 184.608 88.0583 187.028 88.7477C188.441 89.1575 190.148 92.428 191.694 96.1586Z" fill="#263238"/>
<path d="M187.521 126.5C187.521 126.5 202.987 164.45 202.613 182.697C202.401 193.151 201.473 212.631 197.756 226.332C194.722 237.512 182.365 244.652 182.365 244.652L172.452 244.154C172.452 244.154 167.103 227.093 168.033 220.303C169.884 206.789 175.379 196.633 174.717 184.223C173.659 163.898 166.576 126.174 166.576 126.174L187.521 126.5Z" fill="#5C81F5"/>
<path d="M170.485 246.344L184.45 247.046L185.726 243.484L170.118 242.259L170.485 246.344Z" fill="#263238"/>
<path opacity="0.2" d="M172.252 203.166C172.27 203.148 172.283 203.096 172.329 203.1C181.106 203.829 187.181 193.082 185.726 178.404L181.067 140.997L172.252 203.166Z" fill="black"/>
<path d="M180.585 126.181C180.585 126.181 192.876 192.913 167.312 200.425C153.825 204.761 142.474 200.06 129.036 195.013C121.267 192.095 111.56 184.202 111.56 184.202L115.291 175.58C115.291 175.58 124.113 173.149 135.865 174.696C148.97 176.422 149.52 179.567 154.178 177.199C163.966 156.662 147.123 140.433 158.571 126.149L180.585 126.181Z" fill="#5C81F5"/>
<path d="M116.02 173.945L111.033 185.124L114.709 187.508L120.635 174.204L116.02 173.945Z" fill="#263238"/>
<path d="M113.963 113.644C112.716 115.206 106.406 114.149 106.406 114.149L105.067 107.513L112.815 110.149L113.963 113.644Z" fill="#FFB573"/>
<path d="M106.618 107.167L107.828 114.062L103.167 114.655C102.651 114.692 102.182 114.4 102.069 113.969L100.289 109.031C100.226 108.793 100.397 108.556 100.674 108.494L106.618 107.167Z" fill="#FFB573"/>
<path d="M104.542 110.298L107.201 110.697L109.708 109.092L108.738 108.505C108.08 108.107 107.619 107.518 107.441 106.849C107.25 106.13 107.122 105.354 107.101 104.717L107.093 104.478C107.027 104.045 106.63 103.702 106.122 103.638L105.463 104.052C105.046 104.816 105.344 105.699 105.292 106.294L105.187 107.452L104.122 107.843L104.542 110.298Z" fill="#FFB573"/>
<path d="M155.804 87.3813L140.214 105.583L111.56 110.357V114.345C111.56 114.345 138.474 116.039 144.512 113.048C150.55 110.057 160.708 91.9553 160.708 91.9553L155.804 87.3813Z" fill="#FFB573"/>
<path d="M155.62 52.4104C149.08 50.5469 141.489 53.995 138.493 59.2682C135.498 64.5414 136.55 71.0096 139.919 76.1185C140.935 77.6589 142.15 79.112 142.976 80.7322C143.803 82.3524 144.217 84.2146 143.545 85.8859C142.873 87.5571 142.179 88.6284 139.739 88.3578C139.739 88.3578 139.71 87.2117 140.67 87.3508C140.67 87.3508 138.697 88.2823 137.922 87.6725C138.814 88.8508 141.21 88.4193 141.979 87.1802C143.13 85.3243 141.014 82.8154 138.543 82.8384C136.072 82.8615 134.063 84.9789 134.142 87.0753C134.222 89.1717 136.039 91.036 138.294 91.894C136.958 92.1177 135.49 91.452 134.967 90.385C136.087 92.8758 139.749 93.9764 142.838 93.4883C145.926 93.0002 148.543 91.3157 150.962 89.6158C154.225 87.3236 157.63 84.4258 157.528 80.8329C157.452 78.1568 155.425 75.8548 153.72 73.6011C152.017 71.3474 150.522 68.5873 151.604 66.0728C152.522 63.94 155.007 62.6533 157.204 61.3576C158.785 60.4248 161.997 58.3465 161.619 56.3851C161.264 54.5467 157.472 52.9384 155.62 52.4104Z" fill="#263238"/>
<path d="M140.877 114.658L136.561 104.961L137.551 105.03C139.185 105.145 140.745 104.443 141.545 103.229C144.826 98.2498 153.355 85.6106 155.753 84.9826C159.173 84.1225 162.692 86.4441 164.019 89.8705C164.994 92.397 154.971 103.217 150.32 109.373C146.201 114.824 140.877 114.658 140.877 114.658Z" fill="#263238"/>
<path d="M98.7561 181.041C98.7561 181.041 98.7528 181.09 98.7503 181.118C98.8706 181.393 99.15 181.595 99.4887 181.652C99.6931 181.708 99.9172 181.666 100.075 181.542C100.772 181.01 100.327 178.752 100.285 178.527C100.276 178.467 100.222 178.42 100.153 178.408C100.087 178.397 100.019 178.418 99.9757 178.462C99.4261 179.134 98.5336 180.329 98.7561 181.041ZM100.026 178.933C100.178 179.83 100.242 181.045 99.8587 181.327C99.7845 181.38 99.6824 181.394 99.5917 181.363C99.3676 181.326 99.1805 181.196 99.0956 181.016C98.9489 180.638 99.258 179.869 100.024 178.955L100.026 178.933Z" fill="#5C81F5"/>
<path d="M100.01 178.82C100.23 179.574 101.065 180.863 101.805 181.012C102.085 181.058 102.366 180.937 102.485 180.717C102.615 180.514 102.632 180.274 102.531 180.061C102.195 179.196 100.248 178.482 100.167 178.449C100.116 178.419 100.049 178.416 99.9941 178.441C99.948 178.475 99.9233 178.526 99.9266 178.577C99.9488 178.66 99.9768 178.741 100.01 178.82ZM102.25 180.186C102.29 180.312 102.265 180.445 102.184 180.554C102.073 180.717 101.966 180.719 101.884 180.707C101.378 180.619 100.61 179.565 100.363 178.831C100.997 179.1 102.025 179.614 102.228 180.143C102.231 180.159 102.239 180.174 102.25 180.186Z" fill="#5C81F5"/>
<path d="M158.855 124.16L158.093 126.433C157.99 126.61 158.233 126.791 158.58 126.787L187.007 126.755C187.278 126.769 187.502 126.64 187.52 126.5L187.787 124.223C187.797 124.069 187.567 123.932 187.27 123.938L159.338 123.967C159.149 123.954 158.964 124.027 158.855 124.16Z" fill="#5C81F5"/>
<path opacity="0.5" d="M158.855 124.16L158.093 126.433C157.99 126.61 158.233 126.791 158.58 126.787L187.007 126.755C187.278 126.769 187.502 126.64 187.52 126.5L187.787 124.223C187.797 124.069 187.567 123.932 187.27 123.938L159.338 123.967C159.149 123.954 158.964 124.027 158.855 124.16Z" fill="white"/>
<path d="M164.282 126.998L163.456 126.999C163.299 126.991 163.172 126.928 163.186 126.845L163.557 123.886C163.563 123.802 163.708 123.732 163.874 123.734L164.699 123.726C164.856 123.734 164.984 123.797 164.969 123.887L164.598 126.839C164.584 126.922 164.438 126.999 164.282 126.998Z" fill="#5C81F5"/>
<path d="M184.806 126.994L183.98 126.995C183.823 126.987 183.696 126.925 183.71 126.841L184.08 123.889C184.087 123.798 184.232 123.728 184.389 123.73L185.214 123.729C185.371 123.737 185.499 123.8 185.485 123.883L185.114 126.834C185.107 126.925 184.97 126.995 184.806 126.994Z" fill="#5C81F5"/>
<path d="M175.407 126.979L174.581 126.979C174.424 126.972 174.297 126.909 174.311 126.826L174.682 123.874C174.688 123.783 174.833 123.714 174.99 123.715L175.816 123.714C175.972 123.722 176.1 123.784 176.086 123.868L175.715 126.819C175.708 126.91 175.572 126.98 175.407 126.979Z" fill="#5C81F5"/>
<path d="M167.5 72.3701C168.373 76.1755 169.23 83.0557 166.188 85.1304C166.188 85.1304 167.401 89.0372 175.551 90.077C184.551 91.2301 179.827 86.8807 179.827 86.8807C174.931 85.2339 175.05 82.2277 175.895 79.4607L167.5 72.3701Z" fill="#FFB573"/>
<path d="M166.216 85.0974C170.803 85.4044 174.641 85.768 179.13 86.6218L185.296 88.1756C186.395 90.0524 184.599 93.9061 179.436 94.6368C179.436 94.6368 166.439 96.1591 162.606 84.8037L166.216 85.0974Z" fill="#FFB573"/>
<path opacity="0.2" d="M170.922 75.2676L175.888 79.4611C175.679 80.11 175.541 80.7736 175.477 81.4435C173.603 80.9778 170.588 79.2226 170.384 77.5451C170.377 76.7626 170.56 75.9871 170.922 75.2676Z" fill="black"/>
<path d="M162 67.5557C164.203 73.4736 164.984 76.0203 169.501 78.3489C176.249 81.8473 184.366 78.2622 184.257 71.91C184.193 66.1907 180.608 57.4785 172.947 56.5471C167.5 55.8569 162.425 59.0435 161.612 63.6649C161.382 64.9698 161.514 66.3019 162 67.5557Z" fill="#FFB573"/>
<path d="M178.632 66.6323C179.414 67.6756 180.361 68.6217 181.448 69.4441C180.93 69.9084 180.199 70.1573 179.447 70.1252L178.632 66.6323Z" fill="#ED893E"/>
<path d="M177.849 73.2874C178.131 73.2629 178.41 73.2182 178.684 73.1545C178.772 73.1364 178.827 73.0615 178.806 72.986C178.805 72.9832 178.804 72.9811 178.803 72.9783C178.778 72.9021 178.688 72.8553 178.597 72.8699C177.15 73.2105 175.599 72.9399 174.429 72.142C174.358 72.0861 174.247 72.0903 174.181 72.1504C174.115 72.2112 174.12 72.3049 174.191 72.3609C175.215 73.0727 176.533 73.407 177.849 73.2874Z" fill="#263238"/>
<path d="M159.602 55.7428C157.78 56.7253 156.587 58.4986 156.515 60.3293C156.501 60.6775 156.529 61.0377 156.706 61.3516C156.883 61.6663 157.237 61.9271 157.648 61.946C158.276 61.9754 158.739 61.474 159.083 61.0272C159.615 60.3377 160.145 59.6482 160.677 58.958C161.198 58.2818 162.063 57.4966 162.346 56.7246C162.861 55.319 160.577 55.2176 159.602 55.7428Z" fill="#5C81F5"/>
<path d="M160.385 57.1378C156.004 61.4292 154.05 73.3112 166.866 76.6236C169.009 75.1859 165.548 72.5658 164.08 69.2492C163.119 67.0793 168.002 63.0291 169.909 61.3705C171.817 59.7118 173.565 57.3084 176.258 57.693C176.963 57.7937 177.713 57.9923 178.364 57.742C180.498 56.9217 179.462 55.8386 178.389 55.0805C176.812 53.9659 174.593 53.461 172.581 53.2757C168.12 52.8653 163.356 54.2274 160.385 57.1378Z" fill="#263238"/>
<path d="M174.618 55.6994C179.763 59.3412 172.946 59.4328 169.368 61.7397C165.911 63.955 168.335 67.5863 162.494 69.268C157.721 70.4533 156.62 69.7414 155.298 68.9575C155.298 68.9575 160.707 68.3799 161.502 63.2249C161.911 60.5747 168.731 51.4737 174.618 55.6994Z" fill="#263238"/>
<path d="M161.223 72.5263C162.028 73.5137 163.259 74.192 164.649 74.415C166.496 74.6898 167.207 73.2549 166.569 71.8564C165.972 70.6005 164.297 68.9404 162.513 69.2992C161.23 69.5782 160.457 70.6872 160.787 71.776C160.869 72.0487 161.018 72.3039 161.223 72.5263Z" fill="#FFB573"/>
<path d="M173.732 56.0681C174.729 58.2198 177.605 57.9373 179.735 60.1875C181.042 61.563 183.612 57.2723 180.115 55.5696C176.618 53.8661 172.167 52.697 173.732 56.0681Z" fill="#263238"/>
<path d="M170.704 65.1576C170.852 65.1723 170.995 65.1024 171.054 64.9863C171.731 63.7087 173.76 63.3892 173.778 63.3878C173.967 63.3577 174.092 63.2032 174.056 63.043C174.021 62.8829 173.839 62.7773 173.65 62.8074C173.548 62.8192 171.236 63.2192 170.416 64.7583C170.336 64.9052 170.411 65.08 170.584 65.1485L170.585 65.1492L170.704 65.1576Z" fill="#263238"/>
<path d="M181.414 62.586C181.537 62.593 181.654 62.5419 181.72 62.4545C181.828 62.321 181.788 62.1377 181.631 62.0461C181.629 62.0454 181.627 62.044 181.626 62.0433C180.699 61.5021 179.52 61.3748 178.463 61.7021C178.285 61.7664 178.203 61.9412 178.279 62.0923C178.355 62.2433 178.561 62.3133 178.739 62.2482C179.578 61.9958 180.51 62.1049 181.236 62.5419C181.291 62.5664 181.352 62.5811 181.414 62.586Z" fill="#263238"/>
<path d="M215.291 100.865L210.471 103.194L205.452 112.352C205.452 112.352 210.298 114.969 214.117 112.851C217.935 110.732 215.291 100.865 215.291 100.865Z" fill="#5C81F5"/>
<path opacity="0.5" d="M215.291 100.865L210.471 103.194L205.452 112.352C205.452 112.352 210.298 114.969 214.117 112.851C217.935 110.732 215.291 100.865 215.291 100.865Z" fill="white"/>
<path d="M130.848 103.696L136.561 105.066L141.975 114.572C141.975 114.572 137.62 117.986 132.914 114.723C129.381 112.273 130.848 103.696 130.848 103.696Z" fill="#5C81F5"/>
<g opacity="0.5">
<path d="M130.848 103.696L136.561 105.066L141.975 114.572C141.975 114.572 137.62 117.986 132.914 114.723C129.381 112.273 130.848 103.696 130.848 103.696Z" fill="white"/>
</g>
<path d="M181.082 64.9561C181.478 64.8931 181.89 65.2707 181.997 65.7882C182.104 66.3057 181.865 66.7812 181.47 66.8371C181.074 66.8931 180.662 66.5224 180.555 66.005C180.439 65.5015 180.687 65.019 181.082 64.9561Z" fill="#263238"/>
<path d="M182.302 64.4458L180.909 65.0262C181.75 65.5297 182.302 64.4458 182.302 64.4458Z" fill="#263238"/>
<path d="M174.183 66.1543C174.579 66.0914 174.991 66.469 175.098 66.9864C175.205 67.5039 174.966 67.9794 174.571 68.0354C174.175 68.0913 173.763 67.7207 173.656 67.2032C173.541 66.6997 173.788 66.2173 174.183 66.1543Z" fill="#263238"/>
<path d="M175.403 65.644L174.01 66.2244C174.851 66.7279 175.403 65.644 175.403 65.644Z" fill="#263238"/>
<path d="M139.314 92.9122C138.528 92.9122 137.756 92.7954 137.045 92.5486C134.492 91.6633 133.303 89.4067 133.783 86.3572C133.813 86.1656 134.024 86.0307 134.246 86.0572C134.471 86.0831 134.63 86.2586 134.6 86.4502C134.174 89.1592 135.178 91.1458 137.358 91.901C139.714 92.7185 142.847 91.901 144.488 90.0417C146.552 87.7033 145.884 84.3895 142.654 80.9505C134.217 71.9649 134.781 67.1861 135.973 63.4128C137.705 57.9305 142.775 51.6476 157.112 52.8559C157.338 52.8748 157.503 53.0461 157.48 53.2384C157.458 53.4307 157.266 53.5678 157.029 53.5517C143.278 52.3895 138.417 58.3732 136.769 63.5939C135.576 67.3679 135.099 71.783 143.298 80.5148C148.243 85.781 146.238 89.2249 145.147 90.4612C143.782 92.0066 141.496 92.9115 139.314 92.9122Z" fill="#263238"/>
</svg>
