<svg width="322" height="250" viewBox="0 0 322 250" fill="none" xmlns="http://www.w3.org/2000/svg">
<g clip-path="url(#clip0_389_12998)">
<path d="M64.4571 250C99.7797 250 128.414 247.571 128.414 244.574C128.414 241.577 99.7797 239.147 64.4571 239.147C29.1346 239.147 0.5 241.577 0.5 244.574C0.5 247.571 29.1346 250 64.4571 250Z" fill="#E6E6E6"/>
<path d="M49.3877 55.8597C60.5182 50.5709 74.3813 53.9219 87.9202 56.2475C88.0462 53.4311 89.5733 50.0035 87.9736 48.0386C86.0302 45.6514 86.2091 43.1432 87.3786 40.6206C90.3691 34.1698 86.0845 27.3058 81.7583 21.5984C80.7832 20.3149 79.5509 19.3064 78.1614 18.6549C76.7719 18.0034 75.2645 17.7272 73.7615 17.8487L65.7476 18.4882C63.7975 18.6438 61.9365 19.4611 60.4135 20.8306C58.8906 22.2 57.7783 24.0565 57.2256 26.1515C55.312 29.0588 54.2878 31.9581 54.9327 34.8424C52.0665 37.0305 51.5849 39.6719 52.8729 42.6495C53.965 44.5244 53.9534 46.3494 52.8232 48.1238C51.3389 50.3862 50.2021 52.9087 49.4593 55.5881L49.3877 55.8597Z" fill="#2F2E41"/>
<path d="M313.894 216.189H87.0411C85.0237 216.189 83.089 215.293 81.6625 213.7C80.236 212.106 79.4346 209.945 79.4346 207.691C161.669 197.014 242.357 197.014 321.5 207.691C321.5 209.945 320.699 212.106 319.272 213.7C317.846 215.293 315.911 216.189 313.894 216.189Z" fill="#2F2E41"/>
<path d="M321.5 208.191L79.4346 207.691L107.489 154.956L107.623 154.706V38.4841C107.623 37.0735 107.872 35.6766 108.355 34.3732C108.838 33.0699 109.547 31.8857 110.439 30.8882C111.332 29.8907 112.392 29.0994 113.559 28.5596C114.726 28.0198 115.976 27.7421 117.239 27.7422H282.354C283.616 27.7421 284.867 28.0198 286.033 28.5596C287.2 29.0994 288.26 29.8907 289.153 30.8882C290.046 31.8857 290.754 33.0699 291.237 34.3732C291.721 35.6766 291.969 37.0735 291.969 38.4841V155.506L321.5 208.191Z" fill="#3F3D56"/>
<path d="M117.02 35.2402C116.189 35.2413 115.393 35.6103 114.806 36.2662C114.219 36.9222 113.889 37.8116 113.888 38.7392V144.709C113.889 145.637 114.219 146.526 114.806 147.182C115.393 147.838 116.189 148.207 117.02 148.208H283.915C284.746 148.207 285.542 147.838 286.129 147.182C286.716 146.526 287.046 145.637 287.047 144.709V38.7392C287.046 37.8116 286.716 36.9222 286.129 36.2663C285.542 35.6103 284.746 35.2413 283.915 35.2402H117.02Z" fill="white"/>
<path d="M117.718 162.204C117.462 162.205 117.211 162.287 116.995 162.442C116.779 162.596 116.606 162.817 116.499 163.077L107.854 184.071C107.76 184.299 107.719 184.551 107.735 184.802C107.75 185.052 107.822 185.295 107.943 185.507C108.065 185.718 108.232 185.893 108.43 186.013C108.627 186.134 108.849 186.197 109.074 186.197H290.862C291.091 186.197 291.316 186.132 291.516 186.007C291.716 185.883 291.884 185.703 292.004 185.486C292.125 185.269 292.193 185.02 292.203 184.765C292.214 184.51 292.165 184.256 292.063 184.027L282.667 163.033C282.556 162.783 282.385 162.573 282.172 162.427C281.96 162.28 281.716 162.203 281.466 162.204H117.718Z" fill="#2F2E41"/>
<path d="M199.796 33.4904C200.908 33.4904 201.809 32.4833 201.809 31.2411C201.809 29.9988 200.908 28.9917 199.796 28.9917C198.684 28.9917 197.782 29.9988 197.782 31.2411C197.782 32.4833 198.684 33.4904 199.796 33.4904Z" fill="white"/>
<path d="M181.928 190.196C181.633 190.197 181.346 190.306 181.112 190.506C180.877 190.707 180.709 190.988 180.632 191.306L178.463 200.303C178.41 200.526 178.403 200.759 178.443 200.984C178.482 201.21 178.568 201.423 178.694 201.605C178.819 201.788 178.98 201.936 179.165 202.038C179.35 202.14 179.553 202.193 179.759 202.193H220.997C221.211 202.193 221.422 202.136 221.612 202.026C221.802 201.917 221.966 201.758 222.09 201.563C222.214 201.368 222.295 201.143 222.325 200.907C222.356 200.67 222.335 200.429 222.265 200.203L219.477 191.205C219.386 190.911 219.215 190.655 218.987 190.474C218.76 190.294 218.488 190.196 218.209 190.196H181.928Z" fill="#2F2E41"/>
<path d="M291.969 152.957V154.956H107.489L107.628 154.706V152.957H291.969Z" fill="#2F2E41"/>
<path d="M285.5 65C302.069 65 315.5 51.5685 315.5 35C315.5 18.4315 302.069 5 285.5 5C268.931 5 255.5 18.4315 255.5 35C255.5 51.5685 268.931 65 285.5 65Z" fill="#5C81F5"/>
<path d="M298.241 49.489H272.29C271.815 49.4885 271.36 49.2777 271.025 48.9028C270.689 48.528 270.5 48.0197 270.5 47.4896V29.9945C270.501 29.4644 270.689 28.9562 271.025 28.5814C271.36 28.2065 271.815 27.9957 272.29 27.9951H298.241C298.716 27.9957 299.171 28.2065 299.506 28.5814C299.842 28.9562 300.031 29.4644 300.031 29.9945V47.4896C300.031 48.0197 299.842 48.528 299.506 48.9028C299.171 49.2777 298.716 49.4885 298.241 49.489ZM272.29 29.9946V47.4896H298.243L298.241 29.9945L272.29 29.9946Z" fill="white"/>
<path d="M293.32 29.9949H277.212V21.9972C277.212 16.2044 280.599 12 285.266 12C289.933 12 293.32 16.2044 293.32 21.9972L293.32 29.9949ZM279.002 27.9955H291.53V21.9972C291.53 17.2883 288.954 13.9994 285.266 13.9994C281.578 13.9994 279.002 17.2883 279.002 21.9972L279.002 27.9955Z" fill="white"/>
<path d="M285.265 40.2415C286.254 40.2415 287.055 39.3464 287.055 38.2421C287.055 37.1379 286.254 36.2427 285.265 36.2427C284.277 36.2427 283.476 37.1379 283.476 38.2421C283.476 39.3464 284.277 40.2415 285.265 40.2415Z" fill="white"/>
<path d="M264.958 112.264H135.975C135.342 112.263 134.735 111.982 134.287 111.482C133.84 110.981 133.588 110.303 133.587 109.596V73.8525C133.588 73.145 133.84 72.4668 134.287 71.9666C134.735 71.4663 135.342 71.1849 135.975 71.1841H264.958C265.592 71.1849 266.199 71.4663 266.646 71.9666C267.094 72.4668 267.346 73.145 267.347 73.8525V109.596C267.346 110.303 267.094 110.981 266.646 111.482C266.199 111.982 265.592 112.263 264.958 112.264ZM135.975 72.2514C135.596 72.2519 135.231 72.4207 134.963 72.7209C134.694 73.021 134.543 73.428 134.542 73.8525V109.596C134.543 110.02 134.694 110.427 134.963 110.727C135.231 111.028 135.596 111.196 135.975 111.197H264.958C265.338 111.196 265.703 111.028 265.971 110.727C266.24 110.427 266.391 110.02 266.391 109.596V73.8525C266.391 73.428 266.24 73.021 265.971 72.7209C265.703 72.4207 265.338 72.2519 264.958 72.2514L135.975 72.2514Z" fill="#E6E6E6"/>
<path d="M156.017 101.222C161.39 101.222 165.747 96.3556 165.747 90.3525C165.747 84.3494 161.39 79.4829 156.017 79.4829C150.643 79.4829 146.287 84.3494 146.287 90.3525C146.287 96.3556 150.643 101.222 156.017 101.222Z" fill="#E6E6E6"/>
<path d="M178.488 83.1064C178.275 83.1061 178.064 83.1526 177.867 83.2435C177.67 83.3344 177.491 83.4678 177.34 83.636C177.189 83.8043 177.07 84.0041 176.988 84.2241C176.906 84.4441 176.864 84.6799 176.864 84.918C176.864 85.1562 176.906 85.392 176.988 85.612C177.07 85.8319 177.189 86.0318 177.34 86.2C177.491 86.3683 177.67 86.5017 177.867 86.5925C178.064 86.6834 178.275 86.73 178.488 86.7296H254.937C255.367 86.7296 255.779 86.5388 256.083 86.199C256.387 85.8593 256.558 85.3985 256.558 84.918C256.558 84.4376 256.387 83.9768 256.083 83.637C255.779 83.2973 255.367 83.1064 254.937 83.1064H178.488Z" fill="#E6E6E6"/>
<path d="M178.488 93.9756C178.058 93.9756 177.645 94.1664 177.341 94.5062C177.037 94.8459 176.866 95.3067 176.866 95.7872C176.866 96.2677 177.037 96.7284 177.341 97.0682C177.645 97.4079 178.058 97.5988 178.488 97.5988H211.384C211.814 97.5988 212.226 97.4079 212.53 97.0682C212.834 96.7284 213.005 96.2677 213.005 95.7872C213.005 95.3067 212.834 94.8459 212.53 94.5062C212.226 94.1664 211.814 93.9756 211.384 93.9756H178.488Z" fill="#E6E6E6"/>
<path d="M107.172 94.7085L83.3282 108.87L83.0264 97.0688C90.8087 95.6174 98.2128 93.0905 105.059 88.9766L107.553 82.0939C107.824 81.3439 108.266 80.6858 108.834 80.1841C109.402 79.6823 110.078 79.3543 110.794 79.2322C111.51 79.11 112.242 79.198 112.918 79.4874C113.594 79.7768 114.192 80.2577 114.651 80.8829C115.324 81.7976 115.66 82.9638 115.592 84.1451C115.524 85.3264 115.056 86.4345 114.284 87.245L107.172 94.7085Z" fill="#FFB8B8"/>
<path d="M48.9121 176.471C48.7381 175.758 48.7012 175.013 48.8037 174.283C48.9062 173.553 49.1458 172.856 49.5068 172.237L54.7446 163.257C55.9834 161.133 57.8843 159.599 60.0785 158.952C62.2727 158.305 64.6036 158.592 66.6191 159.757C64.4179 163.943 64.7247 167.615 67.3794 170.806C63.2584 173.054 59.4496 175.955 56.0711 179.419C55.4543 179.888 54.746 180.187 54.0051 180.289C53.2642 180.391 52.5123 180.293 51.8119 180.005C51.1114 179.717 50.4829 179.245 49.9785 178.631C49.4741 178.016 49.1084 177.276 48.9121 176.471Z" fill="#2F2E41"/>
<path d="M108.257 164.73C107.465 166.205 106.346 167.429 105.008 168.282C103.671 169.136 102.159 169.591 100.619 169.604L65.8225 169.898L64.3135 160.12L79.7061 155.063L66.728 143.936L80.9133 125.392L106.678 152.219C108.184 153.787 109.163 155.885 109.45 158.162C109.738 160.439 109.316 162.758 108.257 164.73Z" fill="#2F2E41"/>
<path d="M60.3903 231.601H52.2413C44.9246 175.573 37.4769 119.388 59.4849 98.4175L85.441 103.138L82.1211 127.752L67.6339 146.296L60.3903 231.601Z" fill="#2F2E41"/>
<path d="M67.5538 244.293C66.9158 244.488 66.2483 244.529 65.595 244.414C64.9418 244.3 64.3176 244.032 63.7636 243.629L54.9155 242.3C53.0142 240.917 51.6408 238.793 51.0618 236.342C50.4828 233.891 50.7394 231.287 51.782 229.035C55.529 231.494 58.8161 231.151 61.6725 228.185C63.6907 232.738 67.0161 232.46 70.1919 236.295C70.6124 236.984 70.8795 237.776 70.9708 238.603C71.0622 239.431 70.9752 240.271 70.7171 241.054C70.459 241.836 70.0372 242.538 69.487 243.102C68.9367 243.665 68.2739 244.074 67.5538 244.293Z" fill="#2F2E41"/>
<path d="M79.706 60.9911L64.6152 56.945C67.1216 51.2137 67.328 44.8364 66.1243 38.0632L76.386 37.7261C76.7076 46.1487 77.6804 54.0176 79.706 60.9911Z" fill="#FFB8B8"/>
<path d="M83.8539 113.29C72.8684 121.653 65.1063 113.576 59.183 101.115C60.0061 93.4898 58.6733 84.3648 56.205 74.4497C55.1073 70.0764 55.5171 65.4023 57.3536 61.3501C59.1901 57.298 62.3197 54.1622 66.1247 52.562L79.1028 58.6312C90.1227 68.6659 92.2917 79.5356 88.1573 90.9998L83.8539 113.29Z" fill="#5C81F5"/>
<path d="M52.2407 69.4208L40.1681 76.5014L61.597 90.6627L64.5787 98.8792C64.7777 99.4276 64.8747 100.016 64.8637 100.607C64.8526 101.199 64.7339 101.782 64.5146 102.32C64.2953 102.859 63.9801 103.342 63.5883 103.74C63.1964 104.139 62.736 104.443 62.2353 104.636C61.666 104.856 61.0591 104.925 60.4619 104.838C59.8648 104.752 59.2937 104.512 58.7934 104.138C58.293 103.763 57.877 103.265 57.578 102.681C57.2789 102.097 57.1049 101.444 57.0695 100.772L56.768 95.046L29.532 85.0052C28.6144 84.6669 27.7777 84.0997 27.0853 83.3467C26.3929 82.5937 25.863 81.6745 25.5356 80.6588C25.0585 79.1782 25.0343 77.5627 25.4666 76.0651C25.8989 74.5675 26.7635 73.2723 27.925 72.3821L49.8262 55.5967L52.2407 69.4208Z" fill="#FFB8B8"/>
<path d="M64.3137 70.7696C59.2786 68.3045 54.7001 70.9823 48.9211 73.1298L48.0156 55.2596C53.754 51.8428 59.2252 50.9216 64.3137 53.5737L64.3137 70.7696Z" fill="#5C81F5"/>
<path d="M70.337 46.578C75.6583 46.578 79.9719 41.759 79.9719 35.8144C79.9719 29.8698 75.6583 25.0508 70.337 25.0508C65.0158 25.0508 60.7021 29.8698 60.7021 35.8144C60.7021 41.759 65.0158 46.578 70.337 46.578Z" fill="#FFB8B8"/>
<path d="M81.8631 34.4561C72.3238 35.4999 65.0548 33.757 60.4092 28.7944V24.7979H81.0536L81.8631 34.4561Z" fill="#2F2E41"/>
</g>
<defs>
<clipPath id="clip0_389_12998">
<rect width="321" height="249.5" fill="white" transform="translate(0.5 0.5)"/>
</clipPath>
</defs>
</svg>
