<svg width="350" height="330" viewBox="0 0 350 330" fill="none" xmlns="http://www.w3.org/2000/svg">
<ellipse cx="175" cy="165" rx="175" ry="164.636" transform="rotate(-180 175 165)" fill="url(#paint0_linear_454_9266)"/>
<path d="M254.423 282.925C284.565 282.925 309 269.305 309 252.505C309 235.705 284.565 222.085 254.423 222.085C224.281 222.085 199.846 235.705 199.846 252.505C199.846 269.305 224.281 282.925 254.423 282.925Z" fill="#E7D2B8"/>
<path d="M208.483 262.38C250.323 262.38 284.241 243.476 284.241 220.156C284.241 196.836 250.323 177.931 208.483 177.931C166.643 177.931 132.725 196.836 132.725 220.156C132.725 243.476 166.643 262.38 208.483 262.38Z" fill="#E0E0E0"/>
<path d="M123.193 284.001C165.033 284.001 198.951 265.096 198.951 241.776C198.951 218.456 165.033 199.551 123.193 199.551C81.3526 199.551 47.4346 218.456 47.4346 241.776C47.4346 265.096 81.3526 284.001 123.193 284.001Z" fill="#E7D2B8"/>
<path d="M168.895 64.3301C157.553 65.6988 151.001 68.508 145.639 82.8109C139.807 98.3683 137.801 103.598 137.801 103.598C137.801 103.598 149.776 118.261 163.044 114.23L171.137 91.8971L168.895 64.3301Z" fill="#455A64"/>
<path d="M245.197 107.988C244.295 107.457 242.93 107.804 241.428 108.482C242.204 107.806 242.741 107.189 242.775 106.745C242.877 105.416 242.038 104.671 239.282 105.768C236.526 106.865 229.651 109.939 224.267 109.745C223.299 109.711 221.352 109.884 220.574 109.229C219.503 108.328 221.181 106.958 221.878 106.373C222.548 105.813 223.178 105.211 223.766 104.573C224.423 103.859 225.037 103.082 225.358 102.179C225.68 101.276 225.674 100.224 225.144 99.4174C224.859 98.9835 224.384 98.6296 223.897 98.9574C221.957 100.26 219.971 101.496 218.024 102.788C216.178 104.014 214.2 105.211 212.605 106.735C210.769 108.488 209.574 110.012 206.911 112.438C205.05 114.134 201.65 116.432 198.324 118.577C197.254 119.26 196.061 120.017 194.68 120.895C191.139 123.146 181.307 129.196 181.307 129.196C181.307 129.196 167.795 116.96 160.481 111.274C149.963 103.097 143.169 103.412 139.18 102.946L141.331 125.356C141.331 125.356 153.904 135.397 162.446 142.277C171.45 149.528 176.961 153.376 179.332 153.404C183.772 153.455 192.039 146.402 205.051 134.036L205.052 134.037C206.685 132.476 209.391 130.126 211.25 128.503C213.24 126.765 215.842 125.161 220.529 125.318C222.365 125.38 224.43 125.313 225.642 125.295C227.107 125.274 229.764 124.852 231.191 124.526C234.207 123.837 234.223 124.055 238.652 121.381C239.199 121.051 241.417 119.545 241.314 118.931C241.228 118.413 240.807 118.133 240.267 118.076C239.497 117.995 238.865 118.362 237.301 118.695C239.009 117.862 241.451 116.61 242.827 114.723C243.035 114.439 243.26 113.981 243.273 113.635C243.285 113.31 243.167 112.378 242.649 112.155C242.649 112.155 243.544 111.334 244.333 110.638C244.978 110.069 246.336 108.659 245.197 107.988Z" fill="#FFBDA7"/>
<path d="M228.834 120.599C230.306 120.714 231.778 120.593 233.233 120.333C234.67 120.018 236.111 119.549 237.304 118.694C235.913 119.163 234.546 119.57 233.124 119.823C231.716 120.135 230.274 120.282 228.834 120.599ZM215.175 114.925C214.162 115.298 213.223 115.905 212.49 116.677C212.123 117.063 211.78 117.509 211.552 117.987C211.433 118.236 211.354 118.5 211.302 118.769C211.241 119.083 211.309 119.308 211.337 119.617C211.35 119.768 211.523 119.838 211.594 119.682C212.365 118.012 213.644 116.404 215.458 115.746C217.652 114.949 219.809 115.495 221.943 116.146C222.061 116.182 222.023 115.964 221.972 115.923C220.159 114.447 217.366 114.117 215.175 114.925ZM234.304 111.78C236.661 111.014 238.888 110.075 240.97 108.759C240.991 108.746 240.968 108.687 240.942 108.696C238.842 109.532 236.737 110.405 234.588 111.122C232.348 111.871 230.022 112.668 227.69 113.092C227.67 113.095 227.686 113.141 227.708 113.138C229.957 112.785 232.133 112.485 234.304 111.78ZM242.032 112.116C241.666 112.093 241.297 112.139 240.948 112.245C240.606 112.349 240.32 112.533 240.007 112.691C239.763 112.815 239.519 112.938 239.274 113.061C238.484 113.461 237.627 113.757 236.796 114.074C235.949 114.398 235.097 114.711 234.236 114.999C231.995 115.748 229.669 116.545 227.338 116.968C227.318 116.972 227.334 117.017 227.355 117.014C229.604 116.66 231.781 116.36 233.952 115.655C234.976 115.322 235.988 114.953 236.976 114.531C237.763 114.195 238.534 113.826 239.283 113.418C239.525 113.287 239.756 113.173 239.989 113.024C240.246 112.86 240.507 112.702 240.782 112.567C241.193 112.364 241.635 112.21 242.095 112.17C242.113 112.143 242.066 112.118 242.032 112.116Z" fill="#F0997A"/>
<path d="M234.685 74.8694C229.867 73.523 221.937 71.1544 214.596 69.2338C208.802 67.7179 201.825 66.4224 201.825 66.4224C201.825 66.4224 194.501 74.8141 198.105 85.3654C214.25 88.2934 223.828 94.8571 223.828 94.8571L234.685 74.8694Z" fill="#5C81F5"/>
<path opacity="0.2" d="M234.685 74.8694C229.867 73.523 221.937 71.1544 214.596 69.2338C208.802 67.7179 201.825 66.4224 201.825 66.4224C201.825 66.4224 194.501 74.8141 198.105 85.3654C214.25 88.2934 223.828 94.8571 223.828 94.8571L234.685 74.8694Z" fill="black"/>
<path d="M215.069 222.258C215.058 223.412 215.667 225.224 217.086 225.99C221.503 228.37 227.903 228.845 233.181 227.27C239.242 225.462 241.992 222.407 243.169 218.406C244.348 214.405 244.039 209.94 242.343 204.599C241.242 201.13 242 196.433 242.45 192.914C243.216 186.921 242.627 183.322 240.618 180.569C238.304 177.398 234.04 176.112 230.632 177.35L231.829 218.482L215.069 222.258Z" fill="black"/>
<path d="M222.541 204.003C222.584 209.398 221.294 211.346 218.849 214.547C216.701 217.358 211.109 221.789 218.268 225.188C223.844 227.835 237.7 227.549 241.398 218.64C244.269 211.723 239.941 205.245 241.01 196.176C241.727 190.089 241.172 179.466 233.852 177.839C229.853 176.95 228.551 177.023 222.282 180.119C217.923 182.273 217.562 183.242 217.732 183.808L218.799 183.336C222.43 182.667 225.518 184.352 227.127 186.781C229.651 190.592 229.962 196.234 227.247 199.947L222.541 204.003Z" fill="#263238"/>
<path d="M228.256 186.286C224.763 180.193 220.045 180.603 220.045 180.603L197.205 191.83C197.205 191.83 206.487 175.697 209.252 166.032C212.018 156.368 211.017 143.722 209.411 137.309H153.993C153.993 137.309 144.896 192.16 143.921 212.069C143.364 223.465 146.618 231.999 152.598 235.547C162.254 241.276 170.321 241.492 187.329 231.614C204.537 221.62 228.57 205.567 228.57 205.567C228.57 205.567 233.772 195.905 228.256 186.286Z" fill="#455A64"/>
<path d="M171.747 226.307C168.66 234.111 159.186 236.337 152.604 235.552C162.257 241.276 170.324 241.49 187.328 231.614C204.535 221.62 228.568 205.567 228.568 205.567C228.568 205.567 233.771 195.906 228.255 186.287C224.762 180.193 220.045 180.604 220.045 180.604L197.204 191.831C197.204 191.831 204.943 178.376 208.392 168.68C205.041 169.063 201.135 167.733 197.819 167.086C193.302 166.205 188.786 165.324 184.269 164.443C178.397 163.297 170.465 163.437 164.593 162.292C166.126 174.427 176.066 180.014 176.066 180.014C176.066 180.014 174.407 206.219 172.661 222.515C172.513 223.904 172.198 225.165 171.747 226.307Z" fill="#37474F"/>
<path opacity="0.15" d="M196.141 205.433C202.898 197.074 221.596 185.634 225.707 183.024C222.867 180.403 220.118 180.597 220.053 180.603V180.603C220.052 180.603 220.048 180.603 220.047 180.603L208.626 186.217L197.206 191.831C197.206 191.831 186.167 214.887 177.185 218.396C177.183 218.395 188.325 215.101 196.141 205.433Z" fill="black"/>
<path d="M273.913 222.912C273.462 221.072 273.016 219.226 272.796 217.348C272.495 214.794 272.299 212.235 272.215 209.665C272.082 205.626 272.586 201.333 270.032 197.834C267.718 194.663 263.453 193.378 260.046 194.615L261.242 235.747C259.159 236.217 257.076 236.686 254.993 237.155C253.306 237.535 251.618 237.916 249.931 238.296C247.5 238.844 245.803 240.173 246.056 242.86C246.185 244.228 247.117 245.44 248.291 246.217C249.465 246.994 250.864 247.389 252.257 247.668C255.099 248.236 257.844 248.064 260.701 247.659C263.344 247.284 266.552 246.301 268.798 244.859C271.331 243.234 272.772 241.065 273.876 238.336C274.494 236.809 274.982 235.224 275.192 233.597C275.55 230.83 275.099 228.024 274.484 225.3C274.304 224.502 274.107 223.707 273.913 222.912Z" fill="#263238"/>
<path d="M251.956 221.276C251.414 222.315 251.911 224.64 251.927 225.819C251.941 226.907 251.956 228.003 251.733 229.068C251.281 231.226 249.914 233.037 248.647 234.814C247.427 236.523 245.641 238.798 245.877 240.991C246.046 242.563 247.353 243.837 248.828 244.523C253.058 246.49 259.054 245.847 263.403 244.543C266.925 243.487 270.247 241.244 271.652 237.952C272.049 237.023 272.284 236.036 272.449 235.044C273.166 230.717 272.556 226.281 271.543 222.01C270.806 218.903 270.749 216.007 270.711 212.857C270.639 206.812 271.155 196.856 263.266 195.103C259.268 194.215 257.966 194.287 251.697 197.384C247.338 199.537 246.977 200.507 247.147 201.073L248.214 200.601C251.845 199.931 254.933 201.616 256.542 204.045C259.067 207.856 259.377 213.498 256.662 217.211C255.599 218.127 254.537 219.043 253.473 219.959C253.067 220.309 252.213 220.793 251.956 221.276Z" fill="#37474F"/>
<path d="M258.505 203.289C254.56 196.031 247.033 198.487 247.033 198.487L223.11 207.644C223.11 207.644 227.563 191.684 228.567 181.705C230.441 163.086 230.56 160.73 228.567 144.741L201.473 148.13L159.198 144.741C160.128 170.304 179.668 177.346 179.668 177.346C179.668 177.346 178.074 208.531 178.129 224.642C178.172 236.722 180.168 246.351 185.653 250.578C194.939 257.732 204.517 259.09 221.525 249.212C238.732 239.219 259.55 222.277 259.55 222.277C259.55 222.277 264.16 213.695 258.505 203.289Z" fill="#455A64"/>
<path d="M223.812 216.279C226.447 207.534 253.517 198.718 253.517 198.718C250.211 197.455 247.035 198.489 247.033 198.489L223.112 207.645C223.112 207.645 219.42 224.022 216.363 233.008C216.363 233.008 220.263 228.055 223.812 216.279Z" fill="#37474F"/>
<path d="M154.323 94.9707C154.089 74.0615 163.519 67.1497 168.894 64.3301L188.225 62.3945C193.512 63.1532 207.714 67.1699 221.522 73.376C225.731 75.2682 228.255 79.352 229.883 92.1592C231.205 102.562 229.516 109.032 230.057 123.488C230.51 135.603 230.791 147.189 230.791 162.291C216.566 168.607 168.955 168.461 151 150.361C152.229 142.926 153.05 138.332 153.667 123.112C154.285 107.891 154.396 101.543 154.323 94.9707Z" fill="#263238"/>
<path d="M166.75 25.3219C168.759 20.215 172.034 19.2913 172.034 19.2913C173.294 13.8574 180.878 5.57464 196.241 5.2065C201.134 5.08927 206.098 5.73295 210.396 8.08142C214.845 10.512 219.795 14.3293 225.226 13.3944C225.116 15.3493 222.968 16.5001 221.106 17.2767C222.695 17.9413 223.743 19.649 223.586 21.3135C223.428 22.978 222.075 24.4737 220.388 24.8485C221.563 25.7506 221.872 27.3628 221.762 28.8084C221.562 31.4153 219.871 34.1782 217.195 34.5739C217.972 34.4589 216.619 41.0287 216.271 41.6529C215.01 43.9043 212.232 45.7644 210.157 47.2594C203.114 52.3312 194.516 55.8453 186.035 57.9504C183.482 58.5843 181.303 59.234 178.638 58.8561C176.376 53.5917 173.096 49.9656 171.477 46.4552C168.47 39.9399 163.78 32.8699 166.75 25.3219Z" fill="#37474F"/>
<path d="M172.121 52.0112C175.591 54.4724 178.938 52.2232 178.938 52.2232L178.832 64.2635C176.031 75.0261 196.723 80.0046 203.967 68.6789L203.885 64.2127C203.885 64.2127 206.765 64.0865 209.958 63.4279C214.968 62.3944 218.363 58.3233 219.067 52.9505C219.94 46.2919 219.602 37.3588 217.246 25.4455C216.767 23.0238 216.381 21.6804 215.086 20.2288C211.23 15.9052 208.537 22.9185 203.671 23.2986C196.312 23.8736 181.715 16.0531 184.056 27.7954C185.434 35.9863 184.742 38.7798 184.397 39.944C184.052 41.1081 183.292 42.2842 182.543 42.3559C180.421 42.559 180.489 39.779 179.138 38.2728C177.159 36.0647 171.882 35.1694 169.46 39.8469C167.307 44.0084 169.025 49.815 172.121 52.0112Z" fill="#FFA8A7"/>
<path d="M202.17 32.873C207.604 32.8932 212.397 44.3488 212.397 44.3488L204.131 46.8668L202.17 32.873Z" fill="#F28F8F"/>
<path d="M215.286 31.3341L210.761 30.034C211.088 28.8049 212.367 28.0992 213.617 28.4584C214.866 28.8176 215.614 30.1049 215.286 31.3341Z" fill="#263238"/>
<path d="M196.984 30.9455L192.758 32.9751C192.128 31.861 192.565 30.5027 193.733 29.9419C194.898 29.3818 196.355 29.8314 196.984 30.9455Z" fill="#263238"/>
<path d="M182.381 53.4641C186.2 60.231 190.468 62.6773 203.884 64.2126L203.966 67.5646C203.966 67.5646 194.464 66.3848 188.624 63.6712C183.375 61.2331 183.452 57.483 182.381 53.4641Z" fill="#F28F8F"/>
<path d="M214.96 37.0401C214.865 38.2274 213.86 36.8146 212.63 36.7235C211.401 36.6324 210.411 37.8966 210.506 36.7093C210.601 35.522 211.675 34.6334 212.905 34.7253C214.135 34.8164 215.055 35.8528 214.96 37.0401Z" fill="#263238"/>
<path d="M199.153 37.3015C199.483 38.4492 198.039 37.4509 196.85 37.769C195.662 38.0871 195.177 39.6007 194.848 38.453C194.518 37.3052 195.215 36.1172 196.404 35.7991C197.594 35.481 198.824 36.1538 199.153 37.3015Z" fill="#263238"/>
<path d="M204.898 50.1649C204.203 50.0118 203.481 50.0999 202.771 50.0604C202.146 50.026 201.544 49.9237 200.947 49.7445C199.819 49.4055 198.971 48.7551 198.112 47.9971C197.887 47.7978 197.716 48.1338 197.784 48.3257C198.232 49.5742 199.711 50.3949 200.934 50.7817C201.589 50.9885 202.296 51.0923 202.982 51.1215C203.632 51.1491 204.536 51.1976 205.059 50.7742C205.26 50.6137 205.144 50.2194 204.898 50.1649Z" fill="#B16668"/>
<path d="M292.612 251.553C292.296 250.202 292.02 248.842 291.784 247.476C291.112 243.584 290.283 236.881 290.283 236.881C290.283 236.881 290.341 229.742 290.386 226.76C290.486 220.234 290.462 213.678 290.307 207.153C290.043 196.088 287.173 189.992 287.173 189.992C284.911 172.738 283.434 145.269 277.717 131.449L225.423 132.381C224.656 148.569 224.027 173.375 224.689 193.475C225.018 203.45 229.241 232.566 229.365 235.034C229.487 237.468 228.313 240.397 226.918 242.398C226.051 243.643 224.896 244.663 223.708 245.617C221.073 247.731 218.218 249.579 215.201 251.123C213.501 251.993 211.706 252.799 210.399 254.177C209.091 255.556 208.395 257.706 209.317 259.36C210.058 260.689 211.612 261.354 213.101 261.743C218.413 263.128 224.332 262.054 228.793 258.898C229.957 258.074 231.021 257.12 232.178 256.286C235.199 254.106 238.76 252.798 242.121 251.167C243.042 250.721 243.977 250.226 244.618 249.438C245.642 248.178 245.602 246.428 245.22 244.952C244.985 244.036 244.677 243.137 244.498 242.21C243.953 239.397 244.458 238.368 244.8 235.554C245.542 229.446 246.347 224.734 246.996 219.848C247.689 214.638 248.835 210.603 249.439 206.019C250.909 194.863 248.576 186.924 248.576 186.924L252.607 160.222C256.125 173.595 262.031 190.275 264.588 199.901C267.051 209.176 269.831 218.378 272.586 227.579C275.541 237.453 279.083 248.066 278.866 258.449C278.796 261.798 278.501 265.674 279.157 268.981C279.624 271.34 281.154 273.362 283.762 274.096C285.344 274.541 288.552 274.397 290.065 273.734C294.005 272.009 295.039 268.364 295.267 264.406C295.495 260.449 293.511 255.408 292.612 251.553Z" fill="#FFBDA7"/>
<path d="M252.606 160.221C250.884 152.839 248.447 147.219 248.447 147.219C248.447 147.219 241.077 147.207 237.341 141.974C239.435 147.541 246.373 149.828 246.373 149.828L250.288 167.871L248.575 186.924L252.606 160.221Z" fill="#F0997A"/>
<path d="M277.153 121.467C277.153 121.467 282.581 142.648 283.928 153.849C285.275 165.05 285.88 171.297 285.88 171.297C285.88 171.297 282.874 175.672 270.567 177.377C259.744 178.877 255.116 176.984 255.116 176.984L252.21 164.894L251.084 177.851C251.084 177.851 245.966 179.803 234.803 178.759C223.639 177.714 222.759 173.742 222.759 173.742C222.759 173.742 222.535 133.396 223.828 123.386L277.153 121.467Z" fill="#37474F"/>
<path d="M274.046 133.117C276.007 135.58 276.981 138.569 277.761 141.348C278.634 144.453 279.208 147.604 279.689 150.758C280.71 157.469 281.697 164.184 282.701 170.896C282.832 171.778 282.965 172.66 283.096 173.542C282.688 173.785 282.231 174.033 281.711 174.288C281.506 172.918 281.302 171.548 281.097 170.179C280.464 165.944 279.831 161.709 279.198 157.474C278.593 153.426 278.074 149.363 277.292 145.333C276.913 143.383 276.438 141.445 275.865 139.524C275.245 137.449 274.337 135.442 273.612 133.39C273.548 133.21 273.84 132.858 274.046 133.117Z" fill="#263238"/>
<path d="M230.26 146.392C238.09 154.4 249.922 154.659 249.922 154.659L252.21 164.895L251.085 177.853C251.085 177.853 250.595 178.038 249.596 178.264L250.2 166.105L246.877 157.804C246.877 157.804 231.795 153.19 230.26 146.392Z" fill="#263238"/>
<path d="M286.191 169.603C280.179 174.609 266.058 176.883 254.422 175.269L255.645 180.818C265.269 183.662 281.938 180.497 287.173 175.293L286.191 169.603Z" fill="#455A64"/>
<path d="M222.524 172.738C228.895 177.299 240.143 177.417 251.626 174.971L251.189 180.392C241.804 183.92 228.2 183.275 222.59 178.461L222.524 172.738Z" fill="#455A64"/>
<path d="M246.3 249.806C246.498 251.24 246.417 252.287 244.601 253.638C242.785 254.99 240.507 255.942 238.034 256.629C235.561 257.317 233.478 258.664 231.993 260.15C230.507 261.637 228.811 263.906 222.141 264.735C215.47 265.563 212.421 264.606 210.3 263.923C208.178 263.24 207.063 261.943 207.118 259.669L246.3 249.806Z" fill="#37474F"/>
<path d="M239.366 240.452C239.027 241.44 238.827 241.945 238.075 242.446C238.203 241.432 238.101 240.465 238.078 239.456C238.058 238.577 237.887 237.524 237.175 236.913C236.772 236.568 236.258 236.376 235.751 236.209C234.4 235.765 233.005 235.447 231.592 235.262C230.827 235.162 229.632 234.74 228.923 235.214C228.471 235.518 228.502 236.026 228.467 236.511C228.402 237.412 228.331 238.284 227.915 239.108C227.544 239.84 226.962 240.446 226.376 241.026C223.33 244.033 219.903 246.667 216.197 248.845C211.927 251.357 206.143 251.946 207.118 259.671C208.19 261.629 210.944 263.334 216.664 263.439C222.384 263.543 226.114 262.655 229.163 260.507C232.212 258.359 234.087 256.118 237.043 254.985C239.998 253.852 243.826 252.854 246.3 249.806C247.035 247.278 246.417 243.902 246.18 242.933C246 242.197 245.896 241.594 245.686 240.866C245.34 239.662 245.363 238.133 245.51 236.889C245.546 236.581 245.579 236.255 245.445 235.974C245.312 235.693 245.064 235.598 244.799 235.554L244.584 236.991C244.214 237.382 243.446 237.744 242.932 237.917C242.187 238.168 241.28 238.171 240.575 238.497C239.745 238.88 239.704 239.464 239.366 240.452Z" fill="#5C81F5"/>
<path opacity="0.15" d="M239.366 240.452C239.027 241.44 238.827 241.945 238.075 242.446C238.203 241.432 238.101 240.465 238.078 239.456C238.058 238.577 237.887 237.524 237.175 236.913C236.772 236.568 236.258 236.376 235.751 236.209C234.4 235.765 233.005 235.447 231.592 235.262C230.827 235.162 229.632 234.74 228.923 235.214C228.471 235.518 228.502 236.026 228.467 236.511C228.402 237.412 228.331 238.284 227.915 239.108C227.544 239.84 226.962 240.446 226.376 241.026C223.33 244.033 219.903 246.667 216.197 248.845C211.927 251.357 206.143 251.946 207.118 259.671C208.19 261.629 210.944 263.334 216.664 263.439C222.384 263.543 226.114 262.655 229.163 260.507C232.212 258.359 234.087 256.118 237.043 254.985C239.998 253.852 243.826 252.854 246.3 249.806C247.035 247.278 246.417 243.902 246.18 242.933C246 242.197 245.896 241.594 245.686 240.866C245.34 239.662 245.363 238.133 245.51 236.889C245.546 236.581 245.579 236.255 245.445 235.974C245.312 235.693 245.064 235.598 244.799 235.554L244.584 236.991C244.214 237.382 243.446 237.744 242.932 237.917C242.187 238.168 241.28 238.171 240.575 238.497C239.745 238.88 239.704 239.464 239.366 240.452Z" fill="black"/>
<path d="M223.787 252.358C223.787 252.358 219.984 248.802 215.485 249.259C215.725 249.12 215.963 248.982 216.198 248.844C219.903 246.666 223.33 244.032 226.376 241.024C226.963 240.445 227.545 239.839 227.916 239.107C228.333 238.282 228.403 237.411 228.468 236.51C228.503 236.026 228.473 235.516 228.924 235.213C229.632 234.738 230.828 235.16 231.593 235.26C233.005 235.446 234.4 235.763 235.752 236.207C236.259 236.374 236.773 236.566 237.176 236.911C237.888 237.522 238.059 238.575 238.079 239.454C238.102 240.463 238.204 241.431 238.076 242.444C237.204 245.358 223.787 252.358 223.787 252.358Z" fill="#5C81F5"/>
<path opacity="0.35" d="M223.787 252.358C223.787 252.358 219.984 248.802 215.485 249.259C215.725 249.12 215.963 248.982 216.198 248.844C219.903 246.666 223.33 244.032 226.376 241.024C226.963 240.445 227.545 239.839 227.916 239.107C228.333 238.282 228.403 237.411 228.468 236.51C228.503 236.026 228.473 235.516 228.924 235.213C229.632 234.738 230.828 235.16 231.593 235.26C233.005 235.446 234.4 235.763 235.752 236.207C236.259 236.374 236.773 236.566 237.176 236.911C237.888 237.522 238.059 238.575 238.079 239.454C238.102 240.463 238.204 241.431 238.076 242.444C237.204 245.358 223.787 252.358 223.787 252.358Z" fill="black"/>
<path d="M214.415 249.726C214.426 249.794 214.478 249.86 214.548 249.865C214.588 249.868 214.626 249.853 214.663 249.839C215.618 249.468 216.834 249.829 217.773 250.095C218.628 250.338 219.466 250.61 220.27 250.991C221.102 251.386 221.899 251.872 222.636 252.42C222.994 252.686 223.338 252.97 223.667 253.27C224.007 253.58 224.251 253.976 224.721 254.061C225.022 254.116 225.235 253.687 225.25 253.463C225.287 252.931 224.832 252.616 224.471 252.267C224.117 251.925 223.744 251.602 223.353 251.301C222.572 250.7 221.726 250.204 220.827 249.793C219.881 249.359 218.887 249.025 217.857 248.853C217.025 248.715 216.063 248.583 215.246 248.871C215.027 248.949 214.82 249.072 214.661 249.238C214.579 249.324 214.51 249.421 214.459 249.529C214.429 249.589 214.405 249.658 214.415 249.726ZM223.362 246.432C224.217 246.675 225.057 246.947 225.86 247.328C226.691 247.723 227.489 248.209 228.225 248.757C228.583 249.023 228.927 249.307 229.256 249.607C229.596 249.917 229.841 250.314 230.31 250.399C230.611 250.453 230.824 250.024 230.839 249.801C230.877 249.267 230.422 248.954 230.06 248.604C229.706 248.262 229.333 247.939 228.943 247.638C228.161 247.037 227.315 246.542 226.416 246.13C225.47 245.696 224.476 245.362 223.446 245.19C222.614 245.052 221.653 244.92 220.836 245.208C220.617 245.286 220.409 245.41 220.25 245.576C220.168 245.661 220.099 245.758 220.048 245.866C220.019 245.928 219.995 245.997 220.005 246.064C220.015 246.132 220.067 246.198 220.137 246.204C220.177 246.207 220.215 246.191 220.252 246.177C221.208 245.805 222.424 246.166 223.362 246.432ZM230.512 243.562C231.344 243.957 232.141 244.443 232.878 244.992C233.236 245.257 233.58 245.541 233.909 245.841C234.249 246.151 234.493 246.548 234.963 246.633C235.264 246.687 235.477 246.258 235.492 246.035C235.529 245.502 235.074 245.188 234.713 244.839C234.359 244.496 233.986 244.173 233.595 243.872C232.814 243.271 231.967 242.776 231.069 242.365C230.123 241.931 229.129 241.596 228.099 241.424C227.267 241.286 226.305 241.154 225.488 241.442C225.269 241.52 225.061 241.644 224.903 241.81C224.821 241.896 224.751 241.993 224.701 242.1C224.671 242.162 224.647 242.231 224.658 242.299C224.668 242.367 224.72 242.433 224.789 242.438C224.829 242.441 224.867 242.426 224.904 242.412C225.86 242.041 227.075 242.402 228.014 242.668C228.87 242.91 229.709 243.181 230.512 243.562Z" fill="#FAFAFA"/>
<path d="M295.699 262.245C296.44 266.416 296.4 268.934 295.172 272.089C293.944 275.244 290.26 276.979 286.516 277.172C282.771 277.366 279.962 275.052 279.083 271.662C278.203 268.273 278.244 263.577 278.244 263.577C283.917 267.975 289.763 266.62 295.699 262.245Z" fill="#37474F"/>
<path d="M277.222 242.561C277.374 242.752 277.776 242.678 277.857 242.449C277.885 242.37 277.873 242.283 277.862 242.2C277.752 241.432 277.638 240.665 277.528 239.897C277.489 239.621 277.451 239.33 277.548 239.068C277.682 238.705 278.044 238.477 278.392 238.297C280.868 237.009 283.749 236.744 286.547 236.62C287.464 236.579 288.471 236.71 288.787 237.675C289.14 238.755 289.232 239.615 289.358 240.93C289.395 241.309 289.582 241.228 289.706 241.238C289.871 241.252 290.153 241.081 290.181 240.586C290.236 239.612 290.255 238.982 290.282 236.882C290.752 236.944 291.196 237.46 291.32 237.91C291.445 238.36 291.394 238.837 291.361 239.303C291.156 242.319 291.744 245.262 292.331 248.212C293.057 251.859 295.384 256.95 295.846 263.922C296.308 270.893 292.554 274.677 287.055 275.225C281.556 275.772 278.903 272.232 278.389 265.944C277.874 259.658 278.614 256.813 277.795 251.506C277.492 249.542 277.143 247.584 276.765 245.631C276.46 244.059 275.962 242.505 275.462 240.977C275.368 240.692 275.277 240.394 275.319 240.096C275.36 239.799 275.723 239.354 276.026 239.313C276.207 239.863 276.713 241.919 277.222 242.561Z" fill="#5C81F5"/>
<path opacity="0.15" d="M277.222 242.561C277.374 242.752 277.776 242.678 277.857 242.449C277.885 242.37 277.873 242.283 277.862 242.2C277.752 241.432 277.638 240.665 277.528 239.897C277.489 239.621 277.451 239.33 277.548 239.068C277.682 238.705 278.044 238.477 278.392 238.297C280.868 237.009 283.749 236.744 286.547 236.62C287.464 236.579 288.471 236.71 288.787 237.675C289.14 238.755 289.232 239.615 289.358 240.93C289.395 241.309 289.582 241.228 289.706 241.238C289.871 241.252 290.153 241.081 290.181 240.586C290.236 239.612 290.255 238.982 290.282 236.882C290.752 236.944 291.196 237.46 291.32 237.91C291.445 238.36 291.394 238.837 291.361 239.303C291.156 242.319 291.744 245.262 292.331 248.212C293.057 251.859 295.384 256.95 295.846 263.922C296.308 270.893 292.554 274.677 287.055 275.225C281.556 275.772 278.903 272.232 278.389 265.944C277.874 259.658 278.614 256.813 277.795 251.506C277.492 249.542 277.143 247.584 276.765 245.631C276.46 244.059 275.962 242.505 275.462 240.977C275.368 240.692 275.277 240.394 275.319 240.096C275.36 239.799 275.723 239.354 276.026 239.313C276.207 239.863 276.713 241.919 277.222 242.561Z" fill="black"/>
<path d="M277.862 242.2C277.752 241.432 277.639 240.665 277.529 239.897C277.489 239.621 277.451 239.33 277.549 239.068C277.684 238.705 278.045 238.477 278.393 238.297C280.869 237.009 283.75 236.744 286.548 236.62C287.465 236.579 288.472 236.71 288.788 237.675C289.141 238.755 289.234 239.615 289.36 240.93C290.02 247 291.209 258.402 291.209 258.402C291.209 258.402 287.66 257.102 281.188 259.718L277.862 242.2Z" fill="#5C81F5"/>
<path opacity="0.35" d="M277.862 242.2C277.752 241.432 277.639 240.665 277.529 239.897C277.489 239.621 277.451 239.33 277.549 239.068C277.684 238.705 278.045 238.477 278.393 238.297C280.869 237.009 283.75 236.744 286.548 236.62C287.465 236.579 288.472 236.71 288.788 237.675C289.141 238.755 289.234 239.615 289.36 240.93C290.02 247 291.209 258.402 291.209 258.402C291.209 258.402 287.66 257.102 281.188 259.718L277.862 242.2Z" fill="black"/>
<path d="M292.48 257.978C291.665 257.516 290.545 257.555 289.626 257.551C288.584 257.547 287.539 257.62 286.508 257.761C284.429 258.046 282.395 258.641 280.474 259.469C279.967 259.687 279.936 260.775 280.618 260.486C282.448 259.707 284.363 259.195 286.34 258.936C287.295 258.811 288.258 258.747 289.222 258.746C290.233 258.746 291.302 258.91 292.298 258.737C292.574 258.69 292.751 258.132 292.48 257.978ZM287.446 246.897C288.457 246.897 289.526 247.061 290.522 246.888C290.797 246.841 290.975 246.283 290.704 246.129C289.889 245.667 288.769 245.706 287.85 245.702C286.808 245.698 285.763 245.77 284.731 245.912C282.652 246.198 280.618 246.793 278.697 247.62C278.19 247.839 278.159 248.927 278.841 248.637C280.671 247.859 282.587 247.347 284.563 247.088C285.519 246.962 286.483 246.898 287.446 246.897ZM288.28 252.825C289.291 252.824 290.36 252.988 291.356 252.816C291.631 252.768 291.808 252.21 291.538 252.056C290.723 251.594 289.603 251.633 288.684 251.629C287.642 251.626 286.597 251.698 285.565 251.839C283.486 252.124 281.452 252.72 279.531 253.547C279.024 253.766 278.994 254.854 279.675 254.564C281.505 253.786 283.421 253.274 285.397 253.015C286.353 252.89 287.316 252.826 288.28 252.825Z" fill="#FAFAFA"/>
<path d="M251.897 74.9015C250.759 75.0374 249.617 75.1405 248.473 75.201C244.006 75.4392 239.453 75.0307 235.265 73.4342C231.539 72.0139 227.909 69.3234 227.352 65.2403C226.869 66.008 226.617 66.91 226.636 67.8083C224.13 65.5935 223.522 61.7859 224.758 58.7318C225.995 55.6777 228.829 53.3875 232.007 52.2285C230.359 50.9076 227.973 47.7452 229.195 45.5289C228.288 47.1724 227.777 49.0176 227.712 50.8777C225.76 49.1751 225.618 46.2771 225.971 43.7606C226.367 40.9439 227.24 38.1205 229.027 35.8617C232.321 31.6964 238.808 28.9611 244.051 28.2771C250.058 27.4938 256.557 28.6498 261.932 31.3111C268.304 34.4668 271.929 40.9678 272.328 47.7735C272.377 48.6061 272.38 49.4597 272.688 50.2385C272.887 50.7418 273.205 51.1913 273.503 51.6461C275.859 55.2446 277.093 59.6973 276.037 63.8305C274.979 67.9636 271.307 71.5726 266.912 71.9176C266.987 71.2067 266.944 70.4839 266.785 69.7857C266.903 70.3046 264.89 71.6458 264.501 71.8915C263.516 72.515 262.425 72.8361 261.335 73.2258C259.406 73.9158 257.256 74.0697 255.237 74.4132C254.128 74.6028 253.015 74.7679 251.897 74.9015Z" fill="#263238"/>
<path d="M262.086 57.9977C262.146 58.0732 262.216 58.1418 262.296 58.2016C263.465 59.0812 263.636 56.9941 264.983 55.718C265.732 55.0078 266.791 54.7957 267.735 54.9302C269.707 55.2117 270.823 56.1085 271.38 57.5639C272.387 60.1931 270.623 63.9693 267.049 64.8445C263.63 65.6808 261.873 63.3593 261.873 63.3593L260.684 77.695C260.684 77.695 258.577 83.6995 248.352 84.8584C239.529 85.8583 238.662 80.1749 242.041 77.6494L242.375 73.3251C242.375 73.3251 238.736 73.0854 236.099 71.8824C230.5 69.3279 229.415 64.6414 228.923 62.1906C228.282 59.0013 228.807 55.9487 230.264 51.9701C230.824 50.4401 230.351 48.8675 230.737 47.3576C231.057 46.1038 231.625 44.7731 232.788 44.0458C233.616 43.5276 234.592 43.2804 235.559 43.0878C236.988 42.804 238.442 42.6233 239.838 42.2163C241.235 41.8086 242.596 41.1485 243.54 40.0754C243.516 41.825 242.355 43.5134 240.694 44.2138C246.119 45.3877 252.136 43.5209 255.837 39.5146C256.233 41.327 256.677 43.1303 257.167 44.921C257.643 46.6579 258.184 48.4067 259.08 49.9905C259.519 50.7641 260.04 51.4922 260.67 52.1329C261.159 52.6302 261.797 53.1447 261.841 53.8989C261.9 54.9309 261.496 55.9002 261.691 56.9867C261.753 57.3443 261.859 57.717 262.086 57.9977Z" fill="#FFBDA7"/>
<path d="M247.619 60.6571C246.719 61.3449 245.668 61.8922 244.559 62.1849C244.049 62.3194 243.533 62.4045 243.003 62.4254C242.463 62.4471 241.901 62.3216 241.371 62.4209C241.115 62.4687 241.329 62.8077 241.452 62.8742C241.97 63.1564 242.577 63.1774 243.162 63.1654C243.773 63.1535 244.393 63.0676 244.981 62.9063C246.16 62.5837 247.177 61.9789 247.964 61.0723C248.102 60.9148 247.807 60.513 247.619 60.6571Z" fill="#B16668"/>
<path d="M234.508 55.3052C234.508 57.057 233.037 58.4773 231.222 58.4773C229.408 58.4773 227.937 57.057 227.937 55.3052C227.937 53.5533 229.408 52.1331 231.222 52.1331C233.037 52.1338 234.508 53.5533 234.508 55.3052Z" fill="#FFA8A7"/>
<path d="M256.147 56.364C256.147 58.1158 254.676 59.5361 252.861 59.5361C251.046 59.5361 249.575 58.1158 249.575 56.364C249.575 54.6122 251.046 53.1919 252.861 53.1919C254.676 53.1926 256.147 54.6122 256.147 56.364Z" fill="#FFA8A7"/>
<path d="M248.509 47.8446L253.31 49.4851C253.749 48.1619 253.03 46.7215 251.705 46.2689C250.379 45.8149 248.949 46.5213 248.509 47.8446Z" fill="#263238"/>
<path d="M232.567 48.1345L237.624 47.2915C237.434 45.9242 236.147 45.0042 234.75 45.2379C233.354 45.4702 232.376 46.7673 232.567 48.1345Z" fill="#263238"/>
<path d="M243.686 49.875L242.2 58.6095L236.846 56.9719C238.762 52.8582 240.653 50.8622 243.686 49.875Z" fill="#F0997A"/>
<path d="M232.871 52.6531C232.924 53.712 233.856 52.4799 234.952 52.4284C236.049 52.3776 236.896 53.5276 236.844 52.4679C236.791 51.4091 235.859 50.5914 234.761 50.6429C233.665 50.6937 232.818 51.5935 232.871 52.6531Z" fill="#263238"/>
<path d="M247.612 53.5461C247.42 54.59 248.612 53.5879 249.694 53.7739C250.775 53.9591 251.336 55.2621 251.529 54.2182C251.72 53.1742 250.999 52.1774 249.918 51.9922C248.837 51.8055 247.805 52.5022 247.612 53.5461Z" fill="#263238"/>
<path d="M242.375 73.3253C242.375 73.3253 248.861 73.9338 254.55 70.9059C256.408 69.9164 258.663 67.5829 259.652 65.5884C259.652 65.5884 258.922 69.3818 257.018 71.2531C251.553 76.6266 242.201 75.5759 242.201 75.5759L242.375 73.3253Z" fill="#F0997A"/>
<path d="M221.95 118.173C221.307 125.732 220.757 134.788 222.744 135.468C233.411 142.353 266.135 146.771 280.006 132.792C280.006 132.792 278.276 118.1 278.349 107.27C278.385 102.054 279.881 94.7165 279.98 92.4808C280.187 87.978 277.632 81.2866 272.144 78.7021L260.705 77.3423C258.601 79.9066 253.426 84.0442 246.467 83.8411C240.002 83.6529 239.857 81.0655 242.039 77.6485L242.135 76.4119C238.126 75.884 234.685 74.8691 234.685 74.8691C234.685 74.8691 226.35 79.4825 224.148 93.8959C222.923 101.917 222.772 108.508 221.95 118.173Z" fill="#5C81F5"/>
<path d="M200.382 136.253C200.41 135.788 200.787 135.436 201.156 135.189C201.518 134.947 201.91 134.748 202.309 134.57C202.793 134.354 203.288 134.134 203.796 133.987C204.391 133.815 204.989 133.659 205.582 133.484C206.311 133.269 207.033 133.023 207.713 132.689C207.971 132.562 208.265 132.316 208.15 132.059C208.073 131.891 207.872 131.851 207.701 131.853C207.265 131.856 206.843 131.934 206.413 132.022C204.547 132.4 202.681 132.779 200.815 133.157C200.235 133.274 199.565 133.373 199.105 133.013C198.626 132.638 198.608 131.928 198.798 131.363C198.846 131.221 198.905 131.076 198.884 130.928C198.868 130.819 198.811 130.719 198.762 130.621C198.307 129.71 198.547 128.523 199.325 127.845C199.361 127.814 199.401 127.779 199.411 127.732C199.42 127.685 199.397 127.639 199.377 127.596C199.255 127.337 199.226 127.045 199.274 126.766C199.335 126.408 199.524 126.069 199.814 125.836C199.881 125.782 199.939 125.733 199.992 125.666C200.139 125.476 200.354 125.333 200.544 125.185C201.393 124.524 202.311 123.938 203.25 123.403C204.803 122.519 205.825 122.284 205.825 122.284C205.825 122.284 204.593 122.162 204.09 121.351C203.587 120.54 204.615 120.446 205.313 119.993C206.011 119.539 207.741 118.527 208.325 118.101C208.91 117.675 209.752 117.798 211.503 117.709C213.254 117.62 215.684 117.571 216.306 117.774C216.928 117.977 218.509 118.74 220.753 119.791C222.404 120.565 223.379 120.47 226.732 119.483C232.686 117.732 248.843 111.49 248.843 111.49L262.09 94.125C262.09 94.125 264.571 82.6433 272.119 79.4338C279.148 80.9878 284.783 89.1764 277.25 102.232C272.932 109.715 271.373 112.843 266.513 117.914C259.867 124.849 259.259 125.889 254.088 127.078C245.042 129.78 227.743 132.007 226.251 132.407C225.812 132.525 225.394 132.733 224.984 132.923C224.727 133.042 224.47 133.164 224.213 133.286C224.093 133.343 223.976 133.416 223.846 133.447C223.748 133.47 223.669 133.517 223.58 133.563C223.37 133.673 223.159 133.779 222.946 133.882C222.52 134.087 222.086 134.278 221.647 134.455C220.766 134.809 219.862 135.105 218.94 135.339C218.019 135.575 217.081 135.749 216.135 135.861C215.913 135.887 215.698 135.916 215.474 135.921C214.48 135.945 213.486 135.988 212.493 136.048C211.501 136.109 210.509 136.188 209.52 136.286C208.53 136.384 207.543 136.501 206.558 136.635C205.578 136.769 204.601 136.923 203.627 137.091C203.264 137.155 202.901 137.217 202.533 137.252C202.339 137.27 202.143 137.281 201.946 137.278C201.736 137.276 201.525 137.258 201.318 137.218C201.125 137.181 200.925 137.128 200.748 137.04C200.677 137.005 200.632 136.966 200.594 136.898C200.477 136.694 200.368 136.494 200.382 136.253Z" fill="#FFBDA7"/>
<path d="M215.47 135.922C211.334 136.108 207.248 136.641 203.179 137.37C202.322 137.523 201.349 137.608 200.528 137.193C198.961 135.253 202.447 134.29 203.775 133.716C205.001 133.31 206.932 132.978 207.872 132.204C207.874 132.156 207.938 132.174 207.738 132.138C206.363 132.281 203.876 132.831 202.482 133.098C201.489 133.22 200.321 133.749 199.278 133.411C198.313 133.033 198.283 131.894 198.594 131.14C198.674 130.945 198.565 130.875 198.467 130.595C198.25 130.078 198.223 129.504 198.362 128.974C198.479 128.484 198.82 127.95 199.193 127.654C199.19 127.913 198.998 127.185 199.027 127.051C198.997 126.186 199.717 125.572 200.348 125.091C201.888 124.121 203.974 122.581 205.801 122.195L205.813 122.371C205.028 122.242 203.778 121.726 203.959 120.791C204.252 120.332 204.883 120.29 205.31 119.991C204.913 120.294 204.283 120.381 204.022 120.818C203.932 121.847 205.429 122.186 206.266 122.245C204.118 122.779 202.388 124.185 200.588 125.388C199.931 125.893 199.169 126.646 199.583 127.501C199.601 127.528 199.699 127.716 199.592 127.885C199.496 128.015 199.461 128.019 199.423 128.066C198.811 128.66 198.619 129.639 198.948 130.406C199.022 130.58 199.245 130.985 199.098 131.285C198.575 132.709 199.445 133.281 200.849 132.873C201.812 132.68 204.401 132.134 205.397 131.932C206.159 131.759 206.956 131.634 207.764 131.567C207.926 131.577 208.145 131.606 208.325 131.8C209.298 133.161 204.775 133.882 203.933 134.221C203.042 134.643 199.989 135.401 200.788 136.739C200.852 136.863 200.819 136.801 200.956 136.858C201.638 137.125 202.378 137.066 203.117 136.953C207.187 136.294 211.337 135.919 215.47 135.922Z" fill="#F0997A"/>
<path d="M205.496 126.069C204.569 126.285 203.666 126.582 202.754 126.843C201.658 127.158 200.39 127.481 199.336 128.058C199.346 128.048 199.355 128.037 199.366 128.027C199.402 127.995 199.442 127.961 199.452 127.914C199.462 127.868 199.438 127.821 199.418 127.777C199.373 127.684 199.354 127.582 199.334 127.482C200.226 126.944 201.311 126.654 202.311 126.367C203.173 126.118 204.05 125.953 204.934 125.799C205.944 125.624 206.958 125.418 207.987 125.405C208.037 125.404 208.144 125.498 208.06 125.52C207.217 125.746 206.347 125.87 205.496 126.069Z" fill="#F0997A"/>
<path d="M203.145 129.57C201.775 129.962 200.132 130.363 198.98 131.265C198.989 131.213 199 131.162 198.993 131.109C198.98 131.022 198.941 130.941 198.9 130.862C199.875 129.874 201.362 129.478 202.702 129.092C203.564 128.844 204.441 128.679 205.325 128.525C206.335 128.349 207.349 128.143 208.378 128.131C208.428 128.13 208.535 128.223 208.45 128.246C207.607 128.473 206.738 128.597 205.886 128.795C204.96 129.011 204.058 129.308 203.145 129.57Z" fill="#F0997A"/>
<path d="M208.322 118.1C208.712 117.83 209.206 117.809 209.668 117.793L211.079 117.778C212.021 117.752 212.959 117.727 213.897 117.737C214.366 117.741 214.835 117.745 215.3 117.772C215.779 117.803 216.206 117.829 216.625 118.039C217.475 118.405 218.315 118.821 219.156 119.224C220.009 119.607 220.799 120.096 221.757 120.358C222.724 120.619 223.723 120.448 224.64 120.248C226.483 119.812 228.267 119.227 230.05 118.637C233.596 117.415 234.874 116.902 238.378 115.579C241.883 114.258 245.368 112.891 248.839 111.489L238.257 115.272C234.729 116.531 233.453 117.046 229.903 118.234C228.132 118.834 226.354 119.43 224.546 119.87C223.647 120.074 222.721 120.231 221.853 120.001C220.993 119.772 220.161 119.293 219.305 118.929C218.452 118.543 217.609 118.147 216.733 117.792C216.52 117.709 216.277 117.611 216.028 117.587C215.787 117.556 215.549 117.543 215.312 117.533C214.838 117.517 214.366 117.518 213.895 117.529C212.953 117.554 212.011 117.614 211.075 117.675L209.665 117.741C209.204 117.774 208.702 117.815 208.322 118.1Z" fill="#F0997A"/>
<path d="M205.832 122.368C205.832 122.368 208.113 121.703 208.733 121.572C209.352 121.442 211.226 121.495 212.237 121.003C213.25 120.511 213.216 119.795 213.216 119.795C213.216 119.795 212.852 120.467 211.308 120.767C209.765 121.066 209.03 120.351 208.882 119.756C208.622 120.166 209.139 121.071 209.139 121.071C209.139 121.071 206.426 121.684 205.832 122.368Z" fill="#F0997A"/>
<path d="M272.144 78.7024C276.419 79.4327 280.913 82.7639 281.753 88.259C282.76 94.8385 280.052 98.4922 277.067 103.663C275.204 106.891 270.912 113.673 270.912 113.673C270.912 113.673 268.437 108.743 263.477 105.42C258.517 102.097 255.744 102.438 255.744 102.438C255.744 102.438 257.544 98.7924 260.399 94.2725C263.366 89.5763 264.995 82.0724 272.144 78.7024Z" fill="#5C81F5"/>
<path opacity="0.2" d="M272.144 78.7024C276.419 79.4327 280.913 82.7639 281.753 88.259C282.76 94.8385 280.052 98.4922 277.067 103.663C275.204 106.891 270.912 113.673 270.912 113.673C270.912 113.673 268.437 108.743 263.477 105.42C258.517 102.097 255.744 102.438 255.744 102.438C255.744 102.438 257.544 98.7924 260.399 94.2725C263.366 89.5763 264.995 82.0724 272.144 78.7024Z" fill="black"/>
<path d="M285.279 127.517C285.287 127.475 285.294 127.433 285.301 127.391C285.545 125.894 285.141 124.353 284.446 122.995C284.071 122.261 283.612 121.571 283.12 120.905C282.227 119.697 281.07 118.654 280.078 117.508C278.954 116.209 277.795 114.94 276.602 113.7C276.412 113.503 276.198 113.296 275.922 113.263C275.541 113.218 275.216 113.523 275.005 113.831C274.081 115.179 274.162 116.987 274.786 118.486C275.409 119.986 276.504 121.25 277.563 122.501C278.196 123.246 279.296 124.542 278.461 125.516C277.791 126.298 276.674 126.846 275.708 127.19C274.43 127.646 273.067 127.831 271.712 127.98C269.824 128.188 266.835 128.339 266.157 130.456C266.012 130.912 266.007 131.446 266.307 131.824C266.619 132.217 267.167 132.343 267.672 132.425C268.446 132.551 269.467 132.658 270.251 132.696C270.111 132.69 269.913 132.792 269.783 132.833C269.528 132.914 269.273 133.003 269.02 133.094C268.498 133.283 268.009 133.559 267.585 133.908C267.208 134.219 266.871 134.604 266.746 135.067C266.701 135.233 266.685 135.412 266.74 135.575C266.795 135.736 266.913 135.869 267.04 135.986C268.029 136.891 269.64 137.115 270.921 137.288C270.705 137.294 270.193 137.398 270 137.49C269.53 137.717 269.271 137.898 268.997 138.33C268.876 138.521 268.796 138.736 268.764 138.957C268.749 139.058 268.745 139.162 268.764 139.262C268.81 139.497 268.985 139.69 269.185 139.831C269.525 140.072 269.945 140.194 270.343 140.31C270.811 140.446 271.301 140.534 271.781 140.618C272.727 140.783 273.686 140.877 274.648 140.9C276.059 140.934 277.718 140.937 279.038 140.421C279.14 140.382 279.253 140.341 279.354 140.378C279.603 140.47 279.331 140.703 279.256 140.802C279.082 141.03 278.946 141.3 278.834 141.56C278.582 142.146 278.433 142.797 278.569 143.419C278.705 144.04 279.174 144.619 279.814 144.765C280.756 144.979 281.225 143.73 281.659 143.11C282.239 142.278 282.807 141.438 283.361 140.59C284.44 138.937 285.214 137.1 285.183 135.112C285.174 134.533 285.055 133.949 285.175 133.382C285.258 132.992 285.45 132.633 285.578 132.254C285.822 131.535 285.827 130.743 285.594 130.021C285.445 129.56 285.2 129.121 285.156 128.64C285.12 128.263 285.211 127.89 285.279 127.517Z" fill="#FFA8A7"/>
<path d="M284.446 122.995C282.218 119.523 278.945 116.831 276.226 113.72C276.007 113.53 275.853 113.49 275.662 113.586C274.312 114.703 274.429 116.963 275.085 118.483C276.432 122.107 282.514 124.997 275.709 127.191C279.27 125.63 279.371 124.58 276.751 121.895C274.838 119.808 273.026 116.638 274.625 113.883C274.866 113.437 275.428 112.833 276.075 113.009C276.307 113.068 276.475 113.198 276.61 113.318C277.722 114.5 278.77 115.692 279.839 116.905C281.541 118.81 283.325 120.702 284.446 122.995Z" fill="#F28F8F"/>
<path d="M283.705 127.925C283.382 128.541 282.931 129.026 282.489 129.561C282.125 130.002 281.733 130.402 281.259 130.734C280.331 131.385 279.194 132.023 278.064 132.254C275.667 132.743 273.171 132.772 270.732 132.709C270.251 132.696 270.247 132.694 270.251 132.696C271.577 133.23 273.635 133.178 275.043 133.141C276.355 133.107 277.762 133.15 279.018 132.736C280.12 132.373 281.25 131.747 282.111 130.987C283.066 130.144 283.295 129.087 283.772 127.977C283.799 127.918 283.746 127.848 283.705 127.925Z" fill="#F28F8F"/>
<path d="M283.775 132.853C283.471 133.432 283.047 133.888 282.633 134.39C282.291 134.804 281.923 135.18 281.478 135.492C280.606 136.105 279.538 136.703 278.477 136.919C276.226 137.379 273.881 137.406 271.589 137.346C271.138 137.335 271.134 137.333 271.138 137.335C272.384 137.836 274.318 137.788 275.64 137.753C276.873 137.72 278.194 137.761 279.375 137.372C280.41 137.031 281.471 136.443 282.281 135.729C283.177 134.938 283.392 133.944 283.841 132.902C283.864 132.846 283.813 132.781 283.775 132.853Z" fill="#F28F8F"/>
<path d="M156.12 121.683C149.692 111.431 139.181 102.945 139.181 102.945L131.985 101.931C124.81 101.109 113.2 100.139 103.436 100.773C98.4313 101.995 92.1466 103.93 86.8628 106.505C86.8628 106.505 82.6804 112.333 81.5178 124.613C80.4395 136.002 88.7563 151.525 86.78 163.593C92.6834 175.112 104.192 180.839 123.296 180.014C145.014 179.076 150.392 171.231 151.001 166.067C151.991 157.676 153.145 147.542 153.145 147.542C161.358 140.104 159.61 127.25 156.12 121.683Z" fill="#A48EE8"/>
<path d="M113.674 98.1805C110.426 97.0066 106.873 95.826 103.845 94.1332C101.07 92.5807 98.5868 90.3749 97.2927 87.541C97.0738 89.4251 97.616 91.3815 98.7802 92.9078C88.6673 91.0626 88.8483 78.0531 93.3617 71.4147C94.341 69.9742 95.533 68.6734 96.4542 67.1979C99.2652 62.6958 99.3263 57.0819 101.528 52.3028C102.701 49.7557 104.355 47.3677 106.62 45.639C109.366 43.5437 113.644 41.8075 117.101 41.3169C121.663 40.6695 126.333 41.3572 130.61 42.9657C134.09 44.2747 138.124 43.1606 141.796 44.0283C144.132 44.5801 146.103 45.5785 148.049 46.8778C151.814 49.3913 154.695 52.55 155.656 57.0072C156.617 61.4637 155.376 66.3145 152.378 69.8279C152.715 67.7572 152.715 65.6364 152.378 63.5658C151.871 67.1172 149.187 70.2975 145.686 71.4953C147.976 72.587 149.355 74.8967 150.293 77.1899C152.227 81.9234 152.824 87.3073 151.098 92.1155C149.372 96.9237 145.078 100.997 139.874 101.806C140.635 101.043 141.349 100.165 141.5 98.913C138.132 100.418 134.753 101.388 127.831 100.569C123.158 100.016 118.038 99.7576 113.674 98.1805Z" fill="#263238"/>
<path d="M144.211 56.277C146.581 58.0729 147.66 60.7439 147.93 63.5322C148.389 68.2919 148.818 73.9349 148.326 78.6475C147.199 89.4288 145.039 94.5081 140.102 96.4668C137.732 97.4077 132.298 97.7385 128.871 97.1963C128.871 97.1963 128.85 97.4965 128.706 98.8601C128.528 100.531 128.671 101.434 131.984 101.93C134.467 107.729 135.667 117.457 135.639 123.481C135.639 123.481 114.402 105.787 101.729 101.205C104.663 100.492 106.236 99.4664 107.112 94.8262C108.3 88.5245 109.15 83.4475 109.15 83.4475C109.15 83.4475 106.228 86.2246 101.671 83.6013C96.7171 80.7503 96.9206 73.1396 100.657 70.5462C105.219 67.3801 108.654 70.3312 110.084 73.5093C111.391 76.4141 114.888 73.8685 113.669 67.6542C115.908 66.4616 117.067 63.5957 117.957 61.3518C118.773 59.2945 118.704 56.7952 120.329 55.0956C122.096 53.2475 125.762 54.0181 128.096 54.7036C130.688 55.4653 132.996 56.3718 135.823 56.1045C138.937 55.8095 141.383 54.1331 144.211 56.277Z" fill="#FFBDA7"/>
<path d="M134.278 68.5083L134.955 80.217L141.321 78.2546L134.278 68.5083Z" fill="#F0997A"/>
<path d="M127.363 74.2556C127.407 75.8685 125.576 77.2239 123.272 77.2829C120.969 77.3418 119.065 76.0821 119.021 74.4692C118.977 72.8562 120.808 71.5009 123.112 71.4419C125.415 71.3829 127.318 72.6427 127.363 74.2556Z" fill="#FFA8A7"/>
<path d="M149.733 76.0403C149.415 77.6241 147.323 78.565 145.061 78.1409C142.799 77.7167 141.223 76.0888 141.542 74.505C141.861 72.9212 143.952 71.9803 146.215 72.4045C148.476 72.8286 150.052 74.4565 149.733 76.0403Z" fill="#FFA8A7"/>
<path d="M111.283 84.0527C111.283 84.0527 110.361 90.1267 115.295 94.6287C119.651 98.6043 125.836 99.5101 128.614 99.7408L128.871 97.1967C125.866 96.6949 120.733 95.6517 117.115 93.1726C115.181 91.8471 112.033 88.1695 111.283 84.0527Z" fill="#F0997A"/>
<path d="M132.333 55.5475C132.301 55.537 132.269 55.5258 132.237 55.5153C128.666 54.3415 123.709 54.9112 121.232 57.8952C120.009 59.3692 119.311 61.1883 118.864 63.0267C118.416 64.8652 118.339 67.6213 117.967 69.4755C117.482 71.8927 116.574 74.4666 114.415 75.7779C112.342 77.0369 109.69 76.7949 107.258 76.5082C108.338 76.2356 108.902 75.0946 109.163 74.0477C109.703 71.8807 109.346 69.6151 109.271 67.4287C109.182 64.8084 109.119 62.2957 109.999 59.7695C111.168 56.4159 113.826 53.6396 117.069 52.0371C121.259 49.9664 125.849 49.7252 130.159 51.5943C132.038 52.4089 133.622 52.692 134.71 54.4057C135.019 54.8933 135.328 55.3802 135.638 55.8678C135.124 56.1471 134.495 56.159 133.917 56.044C133.372 55.935 132.857 55.7244 132.333 55.5475Z" fill="#263238"/>
<path d="M146.097 67.3019L141.744 65.5381C142.207 64.3501 143.557 63.7818 144.759 64.2694C145.961 64.7563 146.56 66.1146 146.097 67.3019Z" fill="#263238"/>
<path d="M127.945 65.0104L123.516 66.5875C123.015 65.4144 123.6 64.1099 124.824 63.6738C126.047 63.2385 127.444 63.8373 127.945 65.0104Z" fill="#263238"/>
<path d="M145.135 72.9412C144.908 74.1121 144.067 72.6022 142.854 72.3834C141.641 72.1647 140.517 73.3184 140.744 72.1482C140.97 70.9773 142.138 70.206 143.35 70.4255C144.562 70.6443 145.362 71.7711 145.135 72.9412Z" fill="#263238"/>
<path d="M129.392 71.5553C129.591 72.7306 128.268 71.5874 127.051 71.78C125.833 71.9719 125.183 73.4266 124.983 72.252C124.784 71.0766 125.61 69.9677 126.827 69.7758C128.045 69.5831 129.193 70.3799 129.392 71.5553Z" fill="#263238"/>
<path d="M134.055 84.6225C133.381 84.3978 132.653 84.4105 131.953 84.297C131.335 84.1976 130.748 84.0334 130.174 83.7929C129.091 83.3389 128.321 82.6034 127.552 81.7603C127.35 81.5385 127.142 81.8551 127.189 82.053C127.496 83.3411 128.873 84.3104 130.047 84.8234C130.674 85.0974 131.366 85.2744 132.045 85.3745C132.688 85.4701 133.581 85.6119 134.149 85.2453C134.365 85.1057 134.295 84.7024 134.055 84.6225Z" fill="#B16668"/>
<path d="M117.612 246.544C117.612 246.544 89.7741 239.518 85.8655 230.581C83.9759 226.259 81.2732 224.076 76.8758 223.03C71.8117 221.825 68.2605 227.573 65.0071 230.549C61.9309 233.365 57.9048 234.633 50.3213 232.029C42.7379 229.425 35.4228 225.707 32.3481 227.183C29.2742 228.66 31.3309 231.024 44.5896 237.118C52.2126 240.62 61.6934 244.03 67.9287 246.434C78.7632 250.61 90.3202 260.749 99.9124 266.468C119.094 277.903 132.066 285.748 144.568 281.038L117.612 246.544Z" fill="#FFBDA7"/>
<path d="M93.6146 235.253C86.3769 236.966 81.1921 242.376 79.2305 253.197C79.2305 253.197 84.1059 256.844 90.9994 261.763C98.6471 267.22 119.041 283.522 133.996 283.522C144.569 284.346 149.972 278.319 149.972 278.319L93.6146 235.253Z" fill="#37474F"/>
<path d="M93.6148 235.253C90.8186 235.915 88.3333 237.136 86.2178 239C92.2016 249.848 99.1377 259.887 110.01 270.391C110.01 270.391 117.355 261.334 118.651 254.384L93.6148 235.253Z" fill="#263238"/>
<path d="M25.1716 225.781C24.7206 224.232 25.4856 222.772 25.8917 222.293C28.5959 219.1 32.0573 217.419 34.4127 216.235C37.0983 214.886 40.5791 214.352 43.5818 214.53C49.5889 214.887 54.7606 219.351 60.7684 219.698C65.2586 219.958 69.3327 217.682 73.703 216.624C75.3738 216.22 76.8009 216.197 77.9116 216.265C79.1106 216.338 81.0134 217.161 81.4473 218.182C82.0182 219.524 82.1953 220.757 81.7745 222.019C81.5038 222.83 79.833 224.361 78.6364 225.204C76.995 226.36 74.9538 226.688 72.5064 227.405C66.3485 229.206 38.7552 229.854 25.1716 225.781Z" fill="#37474F"/>
<path d="M85.8847 233.047C85.4856 233.942 84.8838 234.766 84.1938 235.438C82.776 236.821 80.8995 237.702 78.9556 238.213C77.0103 238.726 74.9148 238.885 72.9393 238.431C70.7626 237.93 68.8977 237.187 66.5749 237.638C63.8985 238.159 61.7683 240.106 59.7765 241.96C59.3704 242.338 58.9581 242.842 58.6944 243.367C58.6944 243.367 43.1871 236.777 36.1312 233.067C32.5576 231.187 27.9846 228.749 25.1721 225.781C25.0197 225.62 26.3154 223.931 26.4004 223.831C27.3109 222.777 28.5593 222.249 29.8975 221.93C32.095 221.407 34.564 221.667 36.7894 221.996C40.2617 222.509 43.8423 223.579 47.2805 224.258C50.4132 224.875 53.2257 225.833 56.3886 226.113C59.7966 226.416 63.2256 226.472 66.6422 226.282C69.8809 226.102 72.9919 225.661 75.9738 224.317C77.1155 223.803 78.2231 223.17 79.1784 222.358C79.774 221.852 80.194 221.121 80.6419 220.488C81.1276 219.802 81.4146 218.654 81.9066 219.625C83.2099 222.196 84.0152 224.924 85.0795 227.585C85.5606 228.789 86.5205 230.069 86.3596 231.381C86.29 231.95 86.1237 232.511 85.8847 233.047Z" fill="#455A64"/>
<path d="M42.1384 232.34C41.785 233.308 41.7587 234.067 41.8414 235.814C41.8414 235.814 42.6575 236.439 43.3815 236.532C43.3219 236.355 43.4302 233.988 43.7543 232.965C44.0792 231.944 42.4919 231.371 42.1384 232.34Z" fill="#FAFAFA"/>
<path d="M46.8539 234.491C46.5004 235.46 46.4447 236.223 46.5283 237.971C46.5283 237.971 47.3729 238.585 48.0977 238.677C48.0111 238.241 48.1465 236.141 48.4706 235.119C48.7947 234.096 47.2074 233.523 46.8539 234.491Z" fill="#FAFAFA"/>
<path d="M51.5701 236.644C51.2166 237.612 51.1887 238.342 51.2723 240.089C51.2723 240.089 52.0891 240.744 52.8139 240.837C52.7543 240.66 52.8626 238.293 53.1867 237.27C53.5108 236.248 51.9236 235.675 51.5701 236.644Z" fill="#FAFAFA"/>
<path d="M81.907 219.624C81.8799 219.095 81.7213 218.616 81.4475 218.182C81.4475 218.182 79.8966 221.35 74.3467 223.184C69.0868 224.923 61.573 225.766 50.7245 223.271C39.8761 220.776 33.6153 218.469 28.7159 220.402C23.8173 222.335 25.1717 225.78 25.1717 225.78C25.1717 225.78 27.5131 221.485 34.3919 222.292C41.0178 223.07 50.7702 226.561 59.8512 226.896C69.3297 227.246 78.9088 226.041 81.907 219.624Z" fill="#263238"/>
<path d="M187.325 243.146C185.698 235.413 173.371 205.551 159.199 185.794C155.948 174.217 152.494 168.464 151.001 166.066C145.846 181.452 100.992 176.838 86.7799 163.593C82.6973 173.739 72.1969 190.973 76.5448 208.285C78.5296 216.187 83.3385 228.225 95.2823 248.464C103.513 262.411 110.448 272.731 117.87 277.707C126.261 283.841 135.951 284.851 143.859 282.333C153.414 279.291 155.188 271.519 154.885 265.502C154.89 265.503 154.895 265.503 154.9 265.504C156.256 265.628 164.226 266.922 165.483 266.922C171.704 266.922 174.71 266.303 178.155 264.698C187.76 260.223 188.913 250.693 187.325 243.146Z" fill="#37474F"/>
<path d="M152.929 244.871C149.205 234.647 138.885 207.835 138.885 207.835C144.333 204.117 148.788 200.252 151.001 191.729C147.076 198.523 139.019 203.392 131.71 205.369C131.71 205.369 152.93 254.076 154.884 265.751C154.889 265.751 154.897 265.754 154.903 265.754C154.896 265.671 154.888 265.585 154.884 265.502C154.889 265.503 154.893 265.503 154.898 265.504C155.516 265.56 157.507 265.86 159.609 266.169C158.238 260.434 156.467 254.586 152.929 244.871Z" fill="#263238"/>
<path d="M202.118 133.404C202.378 133.213 202.631 133.015 202.88 132.811C203.232 132.521 203.584 132.201 203.748 131.783C204.02 131.089 203.673 130.263 203.058 129.816C202.444 129.37 201.624 129.257 200.861 129.35C200.098 129.443 199.375 129.724 198.662 130.002C199.243 129.45 199.674 129 199.292 128.255C199.053 127.79 198.759 127.489 198.264 127.336C197.306 127.041 195.996 127.199 195.071 127.552C194.011 127.957 193.073 128.603 192.126 129.214C187.908 131.936 183.144 134.112 178.08 134.412C177.892 134.423 177.658 134.405 177.587 134.237C177.535 134.113 177.606 133.975 177.68 133.862C178.6 132.442 180.095 131.534 181.512 130.632C182.799 129.812 184.524 128.897 185.05 127.412C185.193 127.011 185.275 126.572 185.158 126.163C185.041 125.755 184.686 125.388 184.248 125.354C184.047 125.339 183.849 125.391 183.655 125.443C180.526 126.283 177.341 127.148 174.513 128.732C173.177 129.48 172.165 130.527 170.949 131.372C169.768 132.192 168.722 133.488 167.534 134.298C163.581 136.991 161.978 136.797 154.59 137.289C144.309 137.973 125.674 138.556 125.674 138.556L105.781 119.933C105.781 119.933 94.4293 108.729 86.8629 106.505C77.1902 111.651 77.4323 124.578 79.1742 128.403C82.573 135.865 85.4435 137.835 95.9655 145.104C104.782 151.194 108.685 153.983 114.522 157.541C121.681 161.907 126.708 159.963 136.952 158.216C144.247 156.972 158.594 153.809 162.485 153.384C166.406 152.957 170.27 151.687 174.222 151.695C178.513 151.703 182.902 151.523 187.109 150.651C190.918 149.861 194.674 148.552 197.741 146.183C198.266 145.778 200.936 144.132 200.558 143.268C200.502 143.138 200.381 143.047 200.259 142.973C199.452 142.477 198.411 142.462 197.484 142.688C196.556 142.914 195.705 143.357 194.833 143.738C192.973 144.561 190.984 145.141 188.939 145.313C188.824 145.323 188.675 145.31 188.643 145.203C188.615 145.112 188.7 145.027 188.778 144.969C189.155 144.695 189.589 144.504 190.017 144.312C192.807 143.061 195.544 141.661 197.997 139.87C198.581 139.444 199.153 138.99 199.588 138.423C200.022 137.855 200.312 137.158 200.26 136.454C200.224 135.969 199.971 135.422 200.224 134.974C200.484 134.515 200.897 134.232 201.337 133.943C201.603 133.772 201.863 133.591 202.118 133.404Z" fill="#FFBDA7"/>
<path d="M197.805 130.976C196.354 131.734 195.013 132.642 193.601 133.459C192.277 134.225 190.929 134.964 189.541 135.628C188.237 136.252 186.896 136.81 185.522 137.272C184.06 137.764 182.571 138.143 181.099 138.594C181.031 138.614 181.077 138.736 181.138 138.728C184.166 138.317 187.345 137.295 190.124 135.97C191.501 135.313 192.813 134.545 194.074 133.72C195.373 132.871 196.663 132.018 197.835 131.04C197.86 131.018 197.843 130.956 197.805 130.976Z" fill="#F0997A"/>
<path d="M200.328 134.68C198.877 135.439 197.536 136.348 196.126 137.165C194.802 137.932 193.455 138.671 192.066 139.336C190.762 139.959 189.422 140.518 188.048 140.979C186.585 141.47 185.096 141.849 183.623 142.299C183.555 142.32 183.602 142.443 183.664 142.435C186.693 142.026 189.872 141.005 192.651 139.678C194.027 139.021 195.339 138.253 196.6 137.427C197.898 136.576 199.188 135.723 200.359 134.742C200.384 134.723 200.367 134.661 200.328 134.68Z" fill="#F0997A"/>
<path d="M89.0844 99.7398C89.1138 99.7077 89.1432 99.6763 89.1734 99.645C90.2377 98.5316 91.7407 97.8819 93.2753 97.566C94.1045 97.395 94.9499 97.3144 95.7954 97.2741C97.3323 97.2009 98.8964 97.4301 100.443 97.4705C102.195 97.516 103.946 97.6064 105.693 97.7408C105.971 97.7624 106.273 97.7953 106.47 97.9842C106.742 98.2448 106.696 98.6794 106.577 99.0311C106.055 100.566 104.535 101.626 102.93 102.085C101.325 102.542 99.6188 102.497 97.945 102.471C96.9464 102.455 95.2114 102.425 94.9376 103.661C94.7179 104.653 94.9654 105.839 95.2849 106.784C95.7072 108.035 96.4026 109.183 97.122 110.301C98.1244 111.858 99.8555 114.217 98.556 116.043C98.2768 116.436 97.8452 116.77 97.3517 116.778C96.8389 116.785 96.3972 116.449 96.0166 116.118C95.4342 115.609 94.714 114.903 94.1965 114.332C94.2894 114.435 94.3288 114.648 94.376 114.772C94.4681 115.016 94.5547 115.264 94.6375 115.512C94.8084 116.024 94.8865 116.566 94.8664 117.104C94.8478 117.582 94.7442 118.076 94.4456 118.457C94.3381 118.594 94.2027 118.717 94.0364 118.777C93.8724 118.836 93.6907 118.829 93.5166 118.805C92.1676 118.617 90.9857 117.535 90.0513 116.673C90.1805 116.84 90.4141 117.292 90.4582 117.496C90.5665 117.993 90.5796 118.301 90.3979 118.777C90.3182 118.987 90.1929 119.18 90.0328 119.342C89.9601 119.416 89.8788 119.484 89.7845 119.531C89.5656 119.642 89.2995 119.629 89.0612 119.565C88.6551 119.457 88.2947 119.215 87.9543 118.985C87.5537 118.716 87.1785 118.399 86.8126 118.088C86.0917 117.473 85.4196 116.805 84.8046 116.091C83.9027 115.043 82.8709 113.79 82.4702 112.469C82.4392 112.368 82.4029 112.257 82.3093 112.203C82.0803 112.072 82.0594 112.422 82.0262 112.541C81.9488 112.814 81.8135 113.085 81.6719 113.33C81.3517 113.885 80.9154 114.402 80.326 114.684C79.7366 114.966 78.9755 114.971 78.4595 114.577C77.7007 113.996 78.4255 112.866 78.6607 112.153C78.9762 111.198 79.3065 110.247 79.6523 109.302C80.326 107.459 81.3385 105.733 82.973 104.523C83.4487 104.172 83.9979 103.898 84.3838 103.456C84.6491 103.152 84.8224 102.783 85.0506 102.452C85.4838 101.822 86.1242 101.326 86.856 101.055C87.3232 100.882 87.8314 100.795 88.2491 100.53C88.577 100.323 88.8238 100.023 89.0844 99.7398Z" fill="#FFA8A7"/>
<path d="M93.2759 97.5662C97.4783 97.1002 101.696 97.9097 105.91 98.0381C106.2 98.0867 106.328 98.1778 106.369 98.3824C106.299 100.098 104.39 101.411 102.748 101.856C98.9689 103.085 92.8473 100.271 95.2862 106.785C94.3449 103.12 95.1354 102.392 98.9426 102.71C101.825 102.865 105.525 102.271 106.771 99.3516C106.983 98.8924 107.126 98.0927 106.582 97.7118C106.391 97.5737 106.181 97.5266 105.999 97.4983C104.349 97.3885 102.73 97.3347 101.082 97.278C98.4777 97.1712 95.8339 96.9935 93.2759 97.5662Z" fill="#F28F8F"/>
<path d="M89.7288 101.186C89.4287 101.813 89.315 102.456 89.1533 103.122C89.021 103.67 88.939 104.216 88.963 104.78C89.0094 105.887 89.1966 107.144 89.7102 108.142C90.7985 110.26 92.3239 112.168 93.8887 113.976C94.1973 114.332 94.2012 114.335 94.1973 114.332C92.9404 113.659 91.7059 112.068 90.8627 110.979C90.0769 109.965 89.1695 108.926 88.7263 107.718C88.338 106.658 88.1462 105.415 88.2289 104.291C88.321 103.046 89.0388 102.217 89.6445 101.167C89.677 101.11 89.7667 101.108 89.7288 101.186Z" fill="#F28F8F"/>
<path d="M85.6807 104.191C85.3992 104.78 85.2917 105.383 85.14 106.009C85.0155 106.524 84.9389 107.036 84.9614 107.567C85.0055 108.608 85.181 109.787 85.6637 110.726C86.6863 112.715 88.1188 114.508 89.5885 116.206C89.8786 116.541 89.8816 116.543 89.8786 116.541C88.6982 115.908 87.5379 114.414 86.7458 113.391C86.0079 112.438 85.1555 111.462 84.7386 110.327C84.3735 109.332 84.1933 108.163 84.2714 107.108C84.358 105.939 85.0318 105.159 85.6011 104.174C85.6328 104.119 85.7163 104.117 85.6807 104.191Z" fill="#F28F8F"/>
<path d="M151.043 7.50126C146.706 6.86205 143.488 10.9302 144.588 16.3209C141.548 11.6762 136.313 10.8586 133.619 14.2024C130.925 17.5463 135.499 26.8371 150.047 29.5507C158.678 17.9226 155.382 8.14046 151.043 7.50126Z" fill="#F55C5C"/>
<path d="M124.641 5.07509C122.654 4.60988 120.992 6.37216 121.278 8.91628C120.061 6.64248 117.666 6.06004 116.277 7.50645C114.887 8.95287 116.622 13.4422 123.259 15.2672C127.748 10.2081 126.627 5.54105 124.641 5.07509Z" fill="#5C81F5"/>
<path d="M124.641 5.07509C122.654 4.60988 120.992 6.37216 121.278 8.91628C120.061 6.64248 117.666 6.06004 116.277 7.50645C114.887 8.95287 116.622 13.4422 123.259 15.2672C127.748 10.2081 126.627 5.54105 124.641 5.07509Z" fill="#F77474"/>
<defs>
<linearGradient id="paint0_linear_454_9266" x1="175" y1="-15.1149" x2="175" y2="329.636" gradientUnits="userSpaceOnUse">
<stop stop-color="#D6E2FC"/>
<stop offset="0.415" stop-color="#A4BBEC" stop-opacity="0"/>
</linearGradient>
</defs>
</svg>
