<svg width="276" height="187" viewBox="0 0 276 187" fill="none" xmlns="http://www.w3.org/2000/svg">
<g clip-path="url(#clip0_258_4739)">
<path d="M211.312 184.885C207.779 181.501 205.632 176.156 206.195 170.952C206.758 165.749 210.244 160.965 214.767 159.86C219.289 158.755 224.444 161.814 225.817 166.82C226.573 157.168 227.444 147.112 231.972 138.893C236.072 131.45 243.174 126.125 250.87 125.172C258.566 124.219 266.669 127.818 271.469 134.702C276.269 141.586 277.444 151.594 274.083 159.497C271.606 165.32 267.044 169.653 262.263 173.178C246.816 184.473 228.29 189.066 210.092 186.112L211.312 184.885Z" fill="#ABF4AA" fill-opacity="0.62"/>
<path d="M263.859 128.017C257.508 133.879 251.683 140.435 246.466 147.59C238.301 158.75 231.694 171.262 226.875 184.691C226.522 185.67 227.926 186.097 228.275 185.128C236.16 163.304 248.747 144.068 264.885 129.18C265.61 128.512 264.577 127.354 263.859 128.017Z" fill="white"/>
<path d="M88.8489 183.966C93.7022 179.319 96.6502 171.977 95.8771 164.829C95.104 157.682 90.3156 151.112 84.1043 149.594C77.8931 148.076 70.8127 152.278 68.9262 159.154C67.8879 145.897 66.6915 132.085 60.4722 120.795C54.8408 110.573 45.0871 103.259 34.5162 101.95C23.9454 100.642 12.8157 105.584 6.22303 115.039C-0.369617 124.495 -1.9838 138.241 2.63352 149.096C6.03493 157.093 12.3015 163.044 18.8674 167.886C39.8147 183.333 65.7998 189.775 90.525 185.652" fill="#ABF4AA" fill-opacity="0.62"/>
<path d="M16.6765 105.858C25.3988 113.909 33.4005 122.914 40.566 132.741C47.7326 142.559 54.0421 153.142 59.4057 164.34C62.4038 170.622 65.097 177.084 67.4733 183.699C67.9578 185.044 66.0299 185.63 65.5507 184.299C61.3416 172.638 56.1342 161.472 50.003 150.962C43.9017 140.49 36.9184 130.714 29.1512 121.77C24.758 116.714 20.1228 111.935 15.2667 107.456C14.2713 106.537 15.6894 104.947 16.6765 105.858L16.6765 105.858Z" fill="white"/>
<path d="M198.117 186.591H82.3242V51.9506C82.3242 23.3049 102.889 0 128.166 0H152.276C177.553 0 198.117 23.3049 198.117 51.9506V186.591Z" fill="#ABF4AA" fill-opacity="0.62"/>
<path d="M174.007 186.591H82.3244V51.9506C82.2991 40.9743 85.3661 30.2753 91.0789 21.4115C91.2895 21.0862 91.4995 20.7651 91.7161 20.4476C94.4794 16.3404 97.7677 12.7233 101.473 9.7157C101.682 9.54313 101.892 9.37356 102.105 9.20398C105.205 6.7727 108.559 4.78517 112.09 3.28665C112.299 3.19659 112.513 3.10636 112.726 3.01981C115.919 1.72844 119.229 0.843862 122.595 0.382401C122.804 0.350099 123.018 0.324821 123.232 0.299543C126.512 -0.0978947 129.82 -0.0978947 133.1 0.299543C133.314 0.324821 133.528 0.350096 133.739 0.382747C137.104 0.844238 140.413 1.72871 143.605 3.01983C143.819 3.10637 144.032 3.1966 144.243 3.28683C147.73 4.76646 151.044 6.72432 154.111 9.11674C154.324 9.28263 154.537 9.45221 154.747 9.62179C156.824 11.3017 158.775 13.1733 160.579 15.2173C162.027 16.8569 163.375 18.6046 164.616 20.4486C164.832 20.7651 165.042 21.0862 165.252 21.411C170.965 30.2749 174.032 40.9741 174.007 51.9506V186.591Z" fill="#CCCCCC"/>
<path d="M166.552 126.371C169.355 126.371 171.628 123.796 171.628 120.619C171.628 117.442 169.355 114.867 166.552 114.867C163.749 114.867 161.476 117.442 161.476 120.619C161.476 123.796 163.749 126.371 166.552 126.371Z" fill="#5C81F5"/>
<path d="M188.631 182.558H184.742L182.892 165.557L188.632 165.557L188.631 182.558Z" fill="#FFB8B8"/>
<path d="M181.964 181.298H189.465V186.65H177.241C177.241 185.948 177.363 185.252 177.601 184.602C177.838 183.953 178.186 183.363 178.624 182.866C179.063 182.369 179.584 181.975 180.157 181.706C180.73 181.437 181.344 181.298 181.964 181.298Z" fill="#2F2E41"/>
<path d="M207.983 182.558H204.094L202.243 165.557L207.984 165.557L207.983 182.558Z" fill="#FFB8B8"/>
<path d="M201.316 181.298H208.816V186.65H196.593C196.593 185.948 196.715 185.252 196.952 184.602C197.19 183.953 197.537 183.363 197.976 182.866C198.415 182.369 198.935 181.975 199.508 181.706C200.081 181.437 200.695 181.298 201.316 181.298Z" fill="#2F2E41"/>
<path d="M169.12 121.758C168.841 121.291 168.655 120.76 168.575 120.203C168.496 119.645 168.526 119.075 168.662 118.532C168.799 117.989 169.039 117.486 169.365 117.06C169.691 116.633 170.096 116.293 170.551 116.062L183.773 74.7656L190.278 78.7891L175.182 118.254C175.473 119.146 175.465 120.127 175.159 121.013C174.854 121.898 174.272 122.626 173.525 123.058C172.778 123.489 171.917 123.596 171.105 123.356C170.293 123.117 169.587 122.548 169.12 121.758Z" fill="#FFB8B8"/>
<path d="M205.997 129.518C205.564 129.237 205.192 128.852 204.905 128.391C204.618 127.929 204.424 127.402 204.337 126.846C204.249 126.29 204.27 125.719 204.398 125.174C204.527 124.628 204.759 124.121 205.079 123.688L200.983 80.0029L208.387 80.3862L210.089 123.356C210.695 124.013 211.067 124.9 211.135 125.847C211.203 126.795 210.962 127.738 210.458 128.497C209.953 129.257 209.221 129.78 208.398 129.968C207.576 130.156 206.722 129.996 205.997 129.518Z" fill="#FFB8B8"/>
<path d="M194.185 67.1164C198.489 67.1164 201.977 63.163 201.977 58.2862C201.977 53.4095 198.489 49.4561 194.185 49.4561C189.882 49.4561 186.394 53.4095 186.394 58.2862C186.394 63.163 189.882 67.1164 194.185 67.1164Z" fill="#FFB8B8"/>
<path d="M205.947 119.583H182.456L182.484 119.376C182.527 119.066 186.671 88.2994 183.614 78.2339C183.308 77.2447 183.335 76.162 183.69 75.194C184.045 74.2261 184.704 73.4413 185.54 72.9908H185.54C189.909 70.6592 198.295 67.7882 205.374 74.7558C206.415 75.798 207.229 77.1005 207.75 78.5603C208.27 80.0202 208.484 81.5974 208.375 83.1671L205.947 119.583Z" fill="#5C81F5"/>
<path d="M186.967 92.846L176.392 90.4145L181.349 77.1015C181.646 75.8121 182.381 74.7086 183.395 74.0332C184.409 73.3578 185.617 73.1655 186.756 73.4986C187.894 73.8317 188.87 74.6629 189.468 75.81C190.067 76.957 190.239 78.3262 189.948 79.6173L186.967 92.846Z" fill="#5C81F5"/>
<path d="M200.512 97.3609L199.877 80.844C199.395 77.7391 200.963 74.804 203.375 74.3242C205.788 73.8462 208.144 75.9997 208.628 79.1274L211.018 94.5607L200.512 97.3609Z" fill="#5C81F5"/>
<path d="M205.165 117.605C208.945 133.919 209.357 154.661 208.337 177.286L203.262 176.567L194.062 133.424L188.986 177.286L183.275 176.926C181.569 153.187 179.908 132.808 182.641 119.403L205.165 117.605Z" fill="#2F2E41"/>
<path d="M199.319 65.1106C197.866 66.8653 195.166 65.9234 194.977 63.5261C194.962 63.34 194.963 63.1527 194.98 62.9668C195.078 61.905 195.619 60.9409 195.49 59.8197C195.46 59.5407 195.368 59.2748 195.223 59.0472C194.065 57.2894 191.346 59.8334 190.252 58.2421C189.582 57.2664 190.37 55.7301 189.856 54.6395C189.177 53.2002 187.166 53.9102 185.905 53.1219C184.502 52.2449 184.586 49.8053 185.509 48.3214C186.636 46.5117 188.61 45.5461 190.561 45.4069C192.511 45.2677 194.448 45.8652 196.269 46.6693C198.337 47.583 200.389 48.8457 201.662 50.9072C203.21 53.4142 203.359 56.7846 202.585 59.716C202.114 61.4993 200.506 63.6777 199.319 65.1106Z" fill="#2F2E41"/>
<path d="M266.477 186.822H32.2594C32.1595 186.822 32.0637 186.776 31.9931 186.696C31.9225 186.616 31.8828 186.507 31.8828 186.394C31.8828 186.281 31.9225 186.172 31.9931 186.092C32.0637 186.011 32.1595 185.966 32.2594 185.966H266.477C266.577 185.966 266.673 186.011 266.743 186.092C266.814 186.172 266.854 186.281 266.854 186.394C266.854 186.507 266.814 186.616 266.743 186.696C266.673 186.776 266.577 186.822 266.477 186.822Z" fill="#3F3D56"/>
<path d="M148.786 147.583H107.545C107.002 147.586 106.48 147.345 106.093 146.913C105.707 146.481 105.487 145.892 105.483 145.277V40.9549C105.487 40.3394 105.707 39.7509 106.093 39.3185C106.48 38.8861 107.002 38.6452 107.545 38.6485H148.786C149.33 38.6452 149.852 38.8861 150.238 39.3185C150.625 39.7509 150.844 40.3394 150.848 40.9549V145.277C150.844 145.892 150.625 146.481 150.238 146.913C149.852 147.345 149.33 147.586 148.786 147.583Z" fill="white"/>
<path d="M150.848 72.4033H105.483V73.1224H150.848V72.4033Z" fill="#CCCCCC"/>
<path d="M151.007 113.428H105.642V114.147H151.007V113.428Z" fill="#CCCCCC"/>
<path d="M120.393 38.6484H119.759V147.942H120.393V38.6484Z" fill="#CCCCCC"/>
<path d="M136.255 38.6484H135.621V147.942H136.255V38.6484Z" fill="#CCCCCC"/>
</g>
<defs>
<clipPath id="clip0_258_4739">
<rect width="276" height="187" fill="white"/>
</clipPath>
</defs>
</svg>
