<svg width="153" height="114" viewBox="0 0 153 114" fill="none" xmlns="http://www.w3.org/2000/svg">
<path d="M130.696 19.9769C129.814 20.3782 128.911 20.7839 127.978 20.7758C127.044 20.7674 126.06 20.2666 125.57 19.2153C125.225 18.4728 125.167 17.5273 125.357 16.6919C125.546 15.8566 125.967 15.1314 126.49 14.6003C126.961 14.1217 127.528 13.7872 128.12 13.7441C128.848 13.6915 129.552 14.0735 130.2 14.513C130.768 14.8978 131.321 15.3367 131.79 15.9078C132.058 16.2337 132.306 16.6223 132.385 17.0921C132.489 17.7123 132.274 18.3655 131.945 18.8276C131.615 19.2899 131.231 19.7337 130.696 19.9769Z" fill="#F8A3A8"/>
<path d="M139.115 45.8038C140.021 45.4849 140.876 44.9147 141.609 44.1404C142.01 43.7162 142.393 43.1868 142.486 42.5183C142.537 42.1502 142.493 41.7656 142.39 41.4175C142.11 40.4798 141.416 39.8414 140.68 39.5812C139.844 39.2856 138.925 39.4239 138.161 39.9602C137.397 40.4966 136.795 41.4256 136.511 42.5067C136.382 43 136.317 43.5372 136.405 44.0461C136.537 44.8063 137.005 45.4164 137.552 45.7061C138.099 45.9958 138.703 45.949 139.115 45.8038Z" fill="#F8A3A8"/>
<path d="M147.232 101.118C146.851 101.923 146.16 102.41 145.451 102.562C144.743 102.714 144.015 102.564 143.322 102.317C142.492 102.021 141.661 101.56 141.084 100.716C140.507 99.8719 140.247 98.5716 140.645 97.5625C140.861 97.0134 141.241 96.6075 141.644 96.2926C143.13 95.1325 145.075 95.0828 146.594 96.1656C147.297 96.6673 147.947 97.4873 148.046 98.5366C148.147 99.601 147.539 100.47 147.232 101.118Z" fill="#F8A3A8"/>
<path d="M151.265 98.2385C150.807 98.083 150.354 97.808 150.053 97.3254C149.752 96.8431 149.638 96.1217 149.871 95.5772C150.131 94.9683 150.744 94.752 151.261 94.8978C151.693 95.0195 152.095 95.3636 152.319 95.8667C152.544 96.3698 152.574 97.0296 152.359 97.54C152.144 98.05 151.675 98.3776 151.265 98.2385Z" fill="#F8A3A8"/>
<path d="M148.683 94.6954C148.02 94.9967 147.238 94.7712 146.73 94.1324C146.525 93.8745 146.36 93.5449 146.316 93.1751C146.248 92.6055 146.491 92.015 146.86 91.7094C147.23 91.4041 147.703 91.3627 148.122 91.5195C148.656 91.719 149.134 92.2672 149.262 92.9817C149.391 93.6964 149.093 94.5089 148.683 94.6954Z" fill="#F8A3A8"/>
<path d="M72.1246 104.243C64.8672 108.314 57.0545 110.644 49.1788 111.085C43.3894 111.41 36.8936 110.277 33.2269 104.34C31.0961 100.89 30.0616 96.0175 27.0982 93.9004C24.1087 91.7648 20.4196 93.3394 17.0515 92.7519C13.5483 92.1409 10.3661 88.954 8.97018 84.6588C7.57424 80.3635 8.01501 75.1156 10.0895 71.3307C14.9466 62.469 26.7186 62.8703 29.9165 52.7743C31.3231 48.3333 30.491 43.2403 31.0688 38.4862C31.8166 32.3338 34.9681 26.9945 38.9105 23.5858C42.853 20.177 47.5266 18.5191 52.1949 17.6976C58.3527 16.6139 65.2848 17.2402 69.7438 22.9629C72.4963 26.4954 74.0299 31.6535 77.2665 34.374C78.8821 35.7321 80.7804 36.3489 82.5417 37.3409C89.181 41.0807 93.5499 50.3284 94.1896 59.8386C94.8292 69.3489 92.0884 78.9109 87.6502 86.439C83.2122 93.9669 77.784 101.068 72.1246 104.243Z" fill="#F8A3A8"/>
<path d="M122.313 109.396C113.954 113.377 104.869 114.658 96.0636 113.097C90.5967 112.128 85.2232 110.083 79.7092 109.904C75.1247 109.754 70.2931 110.846 66.125 108.316C61.2206 105.338 58.6073 98.0553 57.7277 91.0112C56.9028 84.4037 57.3108 77.326 59.8061 71.4992C64.9983 59.3751 77.3891 55.8637 83.6745 44.6822C85.5278 41.3854 86.7645 37.5554 88.4827 34.1328C94.2883 22.5693 105.915 16.7411 116.053 20.3114C120.629 21.9228 125.089 25.6458 126.844 31.4651C129.098 38.9413 126.402 47.7457 128.409 55.3444C129.807 60.6398 133.253 64.468 135.527 69.2022C139.172 76.7896 139.556 86.9273 136.505 94.9597C133.453 102.992 126.826 107.247 122.313 109.396Z" fill="#FBB4B8"/>
<path d="M26.6506 47.9644C24.751 45.0209 22.8553 41.6501 22.8431 37.7793C22.8341 34.8893 23.8841 32.2107 24.7211 29.5413C25.0665 28.4394 25.3423 27.0344 24.7239 26.1667C24.2657 25.5236 23.4604 25.4941 22.8686 25.9044C22.2769 26.3147 21.8665 27.0705 21.5548 27.8521C20.7175 29.9519 20.4474 32.3807 20.4832 34.7545C20.578 41.0515 22.8424 47.2349 26.5182 51.2363C27.0355 51.2655 27.4642 50.4681 27.4109 49.7709C27.3576 49.0738 26.9944 48.4973 26.6506 47.9644ZM26.4736 28.4943C26.5256 28.7386 26.6041 29.0017 26.7754 29.1159C26.9454 29.2293 27.153 29.157 27.3219 29.0408C27.948 28.6097 28.2856 27.5569 28.0848 26.6617C28.0241 26.3911 27.9205 26.136 27.8886 25.8567C27.8195 25.2527 28.0912 24.6863 28.2572 24.1161C28.4233 23.5459 28.4307 22.7603 28.0236 22.472C27.6366 22.1976 27.1672 22.5822 26.8807 23.0225C26.1218 24.1886 25.8723 25.8975 26.2481 27.3539C26.3143 27.6104 26.3805 28.0568 26.4736 28.4943ZM28.6438 43.0492C28.3824 42.5371 28.0553 41.9811 27.5903 41.9271C27.1985 41.8814 26.8244 42.2376 26.6445 42.7002C26.4645 43.1629 26.4492 43.709 26.4988 44.2252C26.558 44.8422 26.7105 45.4581 27.0097 45.9378C27.3088 46.4175 27.7695 46.7439 28.2384 46.7026C28.8844 46.6456 29.2926 45.7701 29.2788 45.0397C29.2651 44.3096 28.953 43.6547 28.6438 43.0492Z" fill="#F8A3A8"/>
<path d="M143.717 72.0608C143.157 71.1413 143.007 69.9104 142.625 68.8432C142.244 67.7759 141.406 66.7743 140.55 67.11C140.033 67.313 139.68 67.9532 139.472 68.6124C139.011 70.0761 139.103 71.824 139.712 73.1896C140.482 74.9161 141.963 75.9431 142.686 77.7043C143.27 79.1234 143.28 80.8571 142.974 82.4211C142.668 83.9851 142.074 85.4186 141.485 86.8337C141.359 86.8059 141.348 87.5227 141.609 88.0177C141.869 88.5131 142.381 88.7487 142.817 88.5744C143.168 88.4347 143.44 88.075 143.683 87.7133C144.945 85.8341 145.841 83.5291 146.264 81.0783C146.706 78.5104 146.536 75.5079 145.098 73.6869C144.652 73.1219 144.104 72.6969 143.717 72.0608ZM142.107 65.4411C142.455 65.7175 142.843 65.8994 143.187 66.1848C143.831 66.7185 144.294 67.6189 144.433 68.6066C144.328 68.8848 144.492 69.2387 144.722 69.3341C144.952 69.4293 145.212 69.3006 145.378 69.0701C145.544 68.8397 145.628 68.5242 145.665 68.2094C145.772 67.298 145.512 66.364 145.101 65.6192C144.691 64.8741 144.139 64.2886 143.588 63.7242C143.357 63.4868 143.117 63.2468 142.836 63.1372C142.514 63.0114 142.164 63.0707 141.845 63.2127C141.695 63.28 141.542 63.372 141.445 63.5394C141.334 63.732 141.316 63.9962 141.353 64.2333C141.437 64.759 141.759 65.1647 142.107 65.4411ZM147.109 71.7878C147.079 71.302 146.85 70.8461 146.522 70.6228C146.195 70.3996 145.781 70.4164 145.464 70.6656C145.31 70.7877 145.176 70.9658 145.109 71.187C144.995 71.5629 145.094 72.0131 145.304 72.3083C145.513 72.6038 145.814 72.7608 146.117 72.8241C146.425 72.8886 146.713 72.8365 146.905 72.6006C147.069 72.3994 147.128 72.0824 147.109 71.7878Z" fill="#F8A3A8"/>
<path d="M94.251 21.7286C90.9521 24.2705 85.2217 23.1761 81.7424 21.881C79.2313 20.9462 76.7948 19.2674 74.3667 18.0076C69.5391 15.5031 64.5189 13.2483 59.2736 13.2475C55.7875 13.2469 52.3383 14.2412 48.8528 14.3372C47.4252 14.3766 45.8752 14.2031 44.8035 12.9545C43.3331 11.2411 43.37 8.00614 44.4506 5.84334C45.531 3.68054 47.383 2.41583 49.2383 1.5828C56.0696 -1.48501 63.7086 0.199538 70.2838 4.12611C76.5105 7.84451 82.5066 13.6407 89.3318 13.2573C90.5378 13.1896 91.7454 12.9239 92.946 13.0893C94.1465 13.2544 95.3882 13.9437 96.0014 15.3195C96.9714 17.4958 95.9013 20.457 94.251 21.7286Z" fill="#FADBD6"/>
<path d="M96.0977 8.1915C91.9368 7.1023 87.2717 11.0916 83.5965 8.2901C83.3518 8.10331 83.1064 7.87026 82.9984 7.52474C82.8391 7.01498 83.0284 6.42917 83.281 5.99025C84.0517 4.65007 85.3779 4.04286 86.6502 3.98822C87.9225 3.93357 89.1748 4.35398 90.4191 4.70847C92.6588 5.34662 94.9906 5.77744 97.2323 5.15029C98.5268 4.78799 99.7506 4.08334 101.018 3.5785C105.023 1.98242 109.351 2.43175 113.421 3.7115C116.306 4.61855 119.208 6.00557 121.364 8.69953C122.088 9.60426 122.739 10.7102 122.89 12.0128C123.122 14.0033 122.084 15.9649 120.74 16.9077C119.395 17.8506 117.811 17.9669 116.289 17.8966C112.956 17.7428 109.105 16.9607 105.971 15.325C102.496 13.5109 99.8096 9.16303 96.0977 8.1915Z" fill="#F8A3A8"/>
<path d="M134.653 41.7622C134.647 41.7622 134.641 41.761 134.635 41.7584C134.603 41.7451 134.585 41.7 134.595 41.6578C134.818 40.7175 134.883 39.8466 134.788 39.0694C134.694 38.2982 134.432 37.6083 134.056 37.122C134.044 37.1599 134.032 37.1972 134.018 37.2336C133.846 37.7023 133.489 38.0013 133.152 37.9628C132.956 37.9403 132.765 37.7792 132.653 37.543C132.556 37.3383 132.533 37.1055 132.591 36.9046C132.652 36.6912 132.778 36.542 132.955 36.4732C133.237 36.3627 133.629 36.4734 133.906 36.7426C133.937 36.773 133.967 36.8045 133.997 36.8369C134.046 36.5715 134.053 36.2612 134.022 35.8862C133.94 34.9057 133.558 33.7789 132.889 33.2368C132.88 33.3475 132.862 33.4536 132.836 33.5548C132.709 34.0603 132.359 34.4266 132.005 34.4145C131.805 34.4104 131.602 34.2644 131.474 34.0336C131.363 33.8307 131.326 33.5918 131.375 33.3779C131.492 32.8681 131.989 32.6865 132.402 32.8054C132.534 32.8435 132.659 32.9005 132.776 32.9739C132.77 32.6833 132.712 32.4078 132.652 32.1956C132.23 30.705 130.966 29.7225 129.777 29.9576C129.745 29.9642 129.713 29.9342 129.708 29.8899C129.703 29.846 129.726 29.8052 129.759 29.7986C131.004 29.5525 132.324 30.5801 132.766 32.1392C132.857 32.4619 132.901 32.7721 132.898 33.0575C133.635 33.6118 134.055 34.8207 134.143 35.8686C134.178 36.3003 134.165 36.6533 134.099 36.9549C134.516 37.4672 134.807 38.2109 134.908 39.0436C135.006 39.846 134.94 40.7415 134.711 41.7061C134.703 41.7402 134.679 41.7622 134.653 41.7622ZM133.191 36.5914C133.119 36.5914 133.05 36.603 132.989 36.627C132.848 36.6819 132.752 36.7944 132.705 36.9612C132.66 37.1171 132.678 37.2935 132.756 37.4574C132.848 37.652 133.004 37.7841 133.162 37.8026C133.449 37.835 133.758 37.5733 133.909 37.1631C133.928 37.1122 133.945 37.0595 133.959 37.0049C133.918 36.9583 133.876 36.9138 133.833 36.8719C133.65 36.6938 133.405 36.5914 133.191 36.5914ZM132.149 32.93C131.854 32.93 131.568 33.0899 131.492 33.4241C131.454 33.5892 131.483 33.7766 131.573 33.9385C131.678 34.1294 131.844 34.2499 132.007 34.2534C132.01 34.2534 132.014 34.2534 132.017 34.2534C132.355 34.2534 132.627 33.8781 132.721 33.5036C132.751 33.3871 132.767 33.2686 132.773 33.1506C132.65 33.067 132.517 33.0029 132.376 32.9621C132.302 32.9407 132.225 32.93 132.149 32.93Z" fill="black"/>
<path d="M75.133 25.3311C74.7071 25.3311 74.3317 25.1258 74.1013 24.7658C73.9326 24.5024 73.8315 24.1462 73.8006 23.7067C73.7611 23.142 73.8561 22.6334 74.0686 22.2743C74.2654 21.9412 74.5749 21.7049 74.9883 21.5716C75.4138 21.4346 75.7796 21.4609 76.0753 21.65C76.4758 21.9059 76.7536 22.4943 76.7833 23.1489C76.8141 23.827 76.6334 24.4411 76.3001 24.7918C75.9739 25.135 75.5648 25.3265 75.1478 25.3311C75.1428 25.3311 75.1378 25.3311 75.133 25.3311ZM75.4914 21.6459C75.3443 21.6459 75.1859 21.6731 75.0167 21.7278C74.6306 21.8521 74.3437 22.0695 74.164 22.3734C73.9709 22.6999 73.8848 23.1683 73.9215 23.6919C73.9499 24.0979 74.0415 24.4243 74.1938 24.6623C74.4003 24.985 74.7595 25.1747 75.1468 25.1706C75.5366 25.1663 75.9192 24.9873 76.2243 24.6661C76.5267 24.348 76.6902 23.7844 76.6618 23.1585C76.6347 22.5611 76.3836 22.0259 76.0222 21.7948C75.8675 21.6957 75.6898 21.6459 75.4914 21.6459Z" fill="black"/>
<path d="M25.2351 52.6255C25.0152 52.1623 24.6877 51.7896 24.3087 51.5713C23.9206 51.3478 23.4078 51.3221 23.1309 51.746C23.0181 51.9186 22.9607 52.1429 22.927 52.367C22.8088 53.1552 22.9805 54.0337 23.4298 54.5744C23.8789 55.1151 24.6075 55.2443 25.1118 54.7967C25.3483 54.5868 25.477 54.1635 25.489 53.7627C25.5012 53.3614 25.3963 52.9653 25.2351 52.6255ZM30.1088 54.8895C29.8339 54.3433 29.2286 54.1988 28.78 54.4778C28.3313 54.7568 28.0409 55.3756 27.945 56.0192C27.8858 56.4174 27.8934 56.841 28.0088 57.2168C28.1244 57.593 28.356 57.9157 28.6489 58.0363C29.0885 58.1063 29.6541 57.8006 29.9539 57.2278C30.0992 56.9503 30.1833 56.6235 30.2349 56.2927C30.3088 55.8191 30.3116 55.2923 30.1088 54.8895ZM25.2696 63.2412C24.8994 63.1446 24.5074 63.201 24.1612 63.4005C23.8872 63.5584 23.6304 63.8267 23.5363 64.2023C23.4477 64.555 23.5201 64.9578 23.6883 65.255C23.8566 65.5523 24.111 65.7509 24.3798 65.8579C24.9792 66.0962 25.6695 65.8776 26.1225 65.3062C26.3126 65.0662 26.3578 64.4637 26.1758 64.032C25.994 63.6003 25.6361 63.3366 25.2696 63.2412ZM34.6485 63.9091C34.657 63.3794 34.4444 62.8442 34.0954 62.5837C33.7134 62.2986 33.2077 62.3723 32.8546 62.7167C32.5015 63.061 32.3009 63.6431 32.2899 64.2234C32.284 64.5412 32.333 64.8676 32.4648 65.1336C32.5965 65.3993 32.8181 65.5965 33.0583 65.6098C33.3583 65.6263 33.7728 65.5699 34.0971 65.2588C34.4212 64.9474 34.64 64.4388 34.6485 63.9091Z" fill="#FCAB00"/>
<path d="M34.2735 81.9745C33.6544 77.8362 32.7407 73.7879 31.5543 69.8874C31.7296 68.723 32.15 67.6361 32.5576 66.5851C32.6662 66.3046 32.7748 66.0244 32.879 65.7428C33.0283 65.3394 33.1714 64.9242 33.3098 64.5226C33.53 63.8836 33.7577 63.2232 34.0149 62.5969C34.0309 62.5579 34.02 62.509 33.9907 62.4879C33.9614 62.4671 33.9245 62.4812 33.9083 62.52C33.6491 63.1512 33.4206 63.8145 33.1994 64.4558C33.0613 64.8563 32.9186 65.2706 32.77 65.6719C32.6662 65.9527 32.558 66.2317 32.4496 66.5113C32.0648 67.504 31.6704 68.529 31.4748 69.6286C31.0179 68.1438 30.5212 66.6808 29.9862 65.2426C29.9845 65.2258 29.9783 65.2108 29.9698 65.1983C29.4548 63.8162 28.9043 62.4572 28.3193 61.1243C28.5241 58.8253 28.9489 56.5656 29.5826 54.408C29.5948 54.3667 29.5793 54.3201 29.5481 54.304C29.517 54.2872 29.4816 54.3083 29.4696 54.3496C28.8512 56.4555 28.4323 58.6582 28.2196 60.8996C26.7922 57.6762 25.164 54.6055 23.3472 51.7306C23.3256 51.6965 23.2873 51.6918 23.2618 51.7205C23.236 51.7488 23.2327 51.7997 23.2541 51.8335C25.8331 55.9145 28.0332 60.389 29.8129 65.1382C27.7415 64.5446 25.6192 64.3 23.5015 64.4162C23.4678 64.4179 23.4418 64.4555 23.4433 64.4998C23.4444 64.5362 23.4639 64.566 23.4892 64.5743C23.4947 64.5761 23.5006 64.577 23.5065 64.5767C25.6454 64.4596 27.7896 64.71 29.88 65.3203C30.4388 66.823 30.9565 68.3523 31.4298 69.9056C31.43 69.9261 31.4355 69.9446 31.4457 69.9591C32.6273 73.8466 33.5377 77.8813 34.1546 82.0054C34.1594 82.0369 34.1773 82.0603 34.1994 82.0676C34.2077 82.0705 34.2169 82.0708 34.2258 82.0684C34.2586 82.0603 34.28 82.0178 34.2735 81.9745Z" fill="black"/>
<path d="M17.6305 67.5977C16.4253 65.6272 13.9975 66.0309 12.1459 66.3463C11.1403 66.5175 10.1016 66.9561 9.4362 67.9684C9.1554 68.3958 8.94801 68.9402 8.96637 69.5061C8.99019 70.2457 9.40364 70.892 9.90603 71.2175C10.4084 71.5431 10.9866 71.5966 11.5458 71.5689C12.345 71.5292 13.1489 71.3309 13.8683 70.8685C14.8108 70.2628 15.5656 69.236 16.4911 68.5858C16.0481 69.5107 15.6963 70.5216 15.5265 71.5931C15.3567 72.6647 15.3751 73.8005 15.6506 74.833C15.7367 75.1554 15.8501 75.4726 16.0291 75.7192C16.2081 75.9659 16.4609 76.1356 16.7186 76.1116C17.0619 76.0798 17.3389 75.7236 17.5236 75.339C17.7579 74.8512 17.894 74.2923 17.9961 73.7305C18.2345 72.4192 18.2985 71.0524 18.1846 69.7123C18.1204 68.9605 17.9899 68.1856 17.6305 67.5977ZM20.5108 58.9136C20.4125 58.5157 20.2329 58.0979 19.9267 57.9912C19.6822 57.9059 19.4246 58.0468 19.2119 58.2278C18.6746 58.6855 18.2917 59.4023 17.998 60.1532C17.2917 61.9589 17.0359 64.067 17.2793 66.0745C17.3149 66.3686 17.3617 66.6635 17.5363 66.942C18.0885 66.8015 18.5824 66.3732 18.9687 65.8328C19.3553 65.2924 19.6433 64.6427 19.897 63.9785C20.1962 63.195 20.4538 62.3764 20.5851 61.5159C20.7167 60.6554 20.7173 59.7478 20.5108 58.9136ZM11.3562 61.9305C11.3715 61.9456 11.3859 61.9618 11.4016 61.9762L11.3669 62.0346C12.1839 61.1149 12.6516 59.77 13.0135 58.4336C13.673 55.999 14.0667 53.3722 13.7468 50.8208C13.6708 50.2135 13.5508 49.6032 13.298 49.0865C13.0451 48.5698 12.6415 48.1551 12.1793 48.086C11.767 48.0244 11.3498 48.2436 11.0297 48.5929C10.7095 48.9422 10.4764 49.412 10.2871 49.9007C9.7795 51.212 9.56032 52.697 9.5459 54.1702C9.53148 55.6434 9.71548 57.1093 9.97902 58.5406C10.0441 58.8937 10.1182 59.2519 10.2078 59.6023C9.34835 58.5519 8.30009 57.7776 7.19697 57.249C5.94176 56.6476 4.58931 56.348 3.26308 56.5504C2.3656 56.6872 1.39382 57.1565 1.00222 58.2335C0.786535 58.8271 0.784349 59.5335 0.937754 60.1601C1.09138 60.7867 1.39076 61.3378 1.74761 61.7969C2.57582 62.8622 3.69642 63.4433 4.82357 63.7764C5.95356 64.1101 7.13141 64.2197 8.27255 63.9603C9.41369 63.7007 10.5181 63.0588 11.3684 62.0187C11.3653 61.9878 11.3599 61.96 11.3562 61.9305Z" fill="#ED6C71"/>
<path d="M34.2966 97.7471C30.5627 88.0938 25.3474 76.1816 17.5331 67.4075C17.7328 64.7104 18.372 62.0404 19.3834 59.6842C19.4 59.6455 19.3897 59.5966 19.3606 59.5746C19.3314 59.5524 19.2944 59.5662 19.2778 59.6047C18.2717 61.9488 17.6317 64.6008 17.4214 67.2832C16.7289 66.5106 16.0181 65.7603 15.2843 65.0409C13.8514 63.6365 12.6191 62.6309 11.4336 61.9069C11.1231 60.5534 11.0914 59.0764 11.1417 57.2788C11.1898 55.5633 11.2938 53.8287 11.4509 52.1234C11.5239 51.3337 11.6074 50.5655 11.8276 49.8495C11.8403 49.8085 11.8255 49.7616 11.7944 49.7449C11.7636 49.7278 11.728 49.7478 11.7153 49.7888C11.4894 50.523 11.4044 51.3028 11.3305 52.1037C11.1727 53.8134 11.0685 55.5526 11.0204 57.2725C10.9778 58.7948 10.9828 60.3941 11.2874 61.819C10.919 61.6006 10.5545 61.4078 10.1891 61.2401C8.89875 60.6471 7.52859 60.333 6.20368 60.0294C4.82872 59.7143 3.40699 59.3887 2.07923 58.7506C2.04776 58.7352 2.01302 58.7569 2.00144 58.7986C1.99007 58.8402 2.00624 58.8865 2.03771 58.9015C3.37552 59.5445 4.80271 59.8716 6.18292 60.1876C7.50303 60.49 8.86815 60.8029 10.1494 61.3919C10.5456 61.5741 10.9409 61.7843 11.3416 62.0268C11.353 62.0436 11.3674 62.0561 11.3849 62.0561C11.3858 62.0561 11.3869 62.0555 11.3877 62.0555C12.5641 62.7743 13.7878 63.7739 15.2119 65.1693C15.9239 65.867 16.6138 66.5945 17.2866 67.3425C16.3581 67.5989 15.526 67.9771 14.7211 68.3441L14.4464 68.4693C13.0151 69.1184 11.4883 69.7467 9.94505 69.6574C9.91336 69.6568 9.8832 69.69 9.88167 69.7343C9.88036 69.7788 9.90615 69.8161 9.9398 69.8181C11.5044 69.9069 13.0433 69.2757 14.4858 68.6214L14.7609 68.4964C15.5642 68.1298 16.3944 67.7513 17.3185 67.4969C17.1194 69.8199 16.8282 72.1544 16.4523 74.4375C16.4451 74.4809 16.4658 74.5237 16.4986 74.5332C16.503 74.5344 16.5074 74.5352 16.5115 74.5352C16.5395 74.5352 16.5646 74.5098 16.5707 74.4719C16.9477 72.1825 17.2392 69.8415 17.4387 67.5122C25.2455 76.2698 30.4576 88.1739 34.1887 97.82C34.1994 97.8477 34.2208 97.8636 34.2429 97.8636C34.2523 97.8636 34.2617 97.8608 34.2704 97.855C34.3001 97.835 34.3119 97.7864 34.2966 97.7471Z" fill="black"/>
<path d="M102.777 11.2309C102.546 11.0366 102.239 10.9527 101.888 10.9886C101.209 11.0579 100.606 11.5616 100.353 12.2718C100.065 13.0805 100.299 14.1151 100.854 14.4852C101.027 14.6005 101.223 14.6581 101.447 14.6581C101.626 14.6581 101.823 14.6211 102.039 14.5476C102.556 14.3713 103.014 13.841 103.204 13.197C103.417 12.4736 103.23 11.6099 102.777 11.2309ZM100.572 13.9546C100.332 13.5168 100.272 12.8755 100.463 12.3403C100.697 11.6813 101.261 11.2135 101.898 11.1487C101.947 11.1438 101.996 11.1412 102.043 11.1412C102.306 11.1412 102.535 11.2181 102.713 11.3668C102.775 11.4191 102.831 11.483 102.882 11.5544C102.076 12.2845 101.3 13.0915 100.572 13.9546ZM103.091 13.1383C102.917 13.7267 102.482 14.2304 102.008 14.3918C101.552 14.5473 101.193 14.5309 100.909 14.3418C100.81 14.2758 100.723 14.1859 100.649 14.0792C101.376 13.2155 102.153 12.408 102.96 11.6779C103.176 12.0714 103.237 12.6407 103.091 13.1383Z" fill="black"/>
<path d="M33.5063 24.5862C33.5004 24.5862 33.4942 24.5851 33.4886 24.5827C32.467 24.171 31.5009 23.5838 30.5667 23.0156C30.5507 23.006 30.5387 22.9875 30.5339 22.9653C30.5289 22.943 30.5315 22.919 30.5409 22.8994C31.5131 20.8788 32.6614 19.004 33.9542 17.3273C33.9719 17.3041 33.9982 17.2978 34.0211 17.3111C34.0438 17.3244 34.0583 17.3544 34.0574 17.3871C33.9995 19.7653 33.8343 22.1643 33.5664 24.5177C33.5637 24.5408 33.5537 24.5611 33.5386 24.5735C33.5288 24.5822 33.5176 24.5862 33.5063 24.5862ZM30.6807 22.9083C31.571 23.4496 32.4903 24.0042 33.4567 24.4017C33.7101 22.1508 33.8697 19.8584 33.9309 17.5837C32.7054 19.194 31.6127 20.9843 30.6807 22.9083Z" fill="black"/>
<path d="M150.103 88.2913C150.093 88.2913 150.084 88.2886 150.076 88.2832C150.06 88.273 150.048 88.2545 150.044 88.232C149.571 85.9203 149.299 83.5343 149.233 81.1399C149.233 81.1072 149.247 81.0768 149.269 81.0635C149.292 81.0502 149.319 81.0566 149.337 81.0794C150.626 82.7403 151.854 84.5188 152.987 86.3653C152.998 86.3835 153.002 86.4072 152.999 86.43C152.996 86.4532 152.986 86.4731 152.97 86.485C152.052 87.2058 151.073 87.7543 150.126 88.2849C150.119 88.2892 150.111 88.2913 150.103 88.2913ZM149.361 81.3353C149.434 83.619 149.697 85.8937 150.143 88.101C151.045 87.5953 151.975 87.0705 152.848 86.3942C151.763 84.6304 150.59 82.9297 149.361 81.3353Z" fill="black"/>
<path d="M42.1871 18.2953C42.1378 18.2953 42.0897 18.2826 42.0447 18.2571C41.7875 18.1105 41.7398 17.6409 41.843 17.2896C41.8858 17.1439 41.9472 17.0071 42.0237 16.8834C41.8681 16.8149 41.6907 16.7964 41.511 16.8351C41.2479 16.8924 40.9767 17.0603 40.6577 17.3639C40.4606 17.5516 40.2237 17.8118 40.1402 18.1626C40.1302 18.2051 40.0959 18.2282 40.0642 18.2152C40.0323 18.2019 40.0144 18.1568 40.0244 18.1146C40.1186 17.7184 40.3745 17.4357 40.5869 17.2338C40.7975 17.0335 41.1205 16.7576 41.4914 16.6769C41.7095 16.6295 41.9258 16.6593 42.1118 16.7553C42.287 16.5254 42.518 16.3543 42.7754 16.2745C43.2483 16.1276 43.6928 16.2938 43.9826 16.4589C44.2251 16.5971 44.6451 16.9137 44.7341 17.4825C44.7408 17.5259 44.7196 17.5684 44.6869 17.5773C44.6541 17.5857 44.6217 17.5583 44.6152 17.5149C44.5374 17.0176 44.1554 16.7322 43.9345 16.6064C43.6613 16.4505 43.2435 16.2938 42.803 16.4309C42.5831 16.4991 42.3847 16.6396 42.2295 16.8279C42.3117 16.8874 42.3853 16.962 42.4474 17.0496C42.6155 17.2876 42.6808 17.6132 42.6139 17.8792C42.5742 18.0371 42.4787 18.1738 42.3585 18.245C42.3021 18.2785 42.2437 18.2953 42.1871 18.2953ZM42.1415 16.9476C42.0619 17.0679 41.9988 17.2029 41.9562 17.3478C41.8733 17.6297 41.902 18.0009 42.0927 18.1094C42.1576 18.1464 42.2348 18.1426 42.3091 18.0981C42.3987 18.0449 42.4697 17.944 42.499 17.828C42.5521 17.6172 42.497 17.3547 42.3589 17.1589C42.2984 17.0734 42.2247 17.0022 42.1415 16.9476Z" fill="black"/>
<path d="M136.663 51.9355C136.956 50.3157 137.038 48.471 136.304 47.1186C136.08 46.7078 135.747 46.3406 135.365 46.3565C135.1 46.3674 134.859 46.5615 134.653 46.7818C133.59 47.9196 133.163 49.8065 133.02 51.6059C132.821 54.1226 133.071 56.6994 133.743 59.0681C135.201 57.1198 136.179 54.6072 136.663 51.9355ZM131.975 63.3474C131.541 64.4563 131.265 65.6987 131.316 66.9458C131.336 67.4446 131.452 68.0171 131.799 68.2134C132.237 68.4609 132.7 67.9466 132.981 67.4371C134.115 65.3778 134.475 62.6081 133.925 60.166C133.815 60.1796 133.71 60.2573 133.611 60.2984C132.999 61.25 132.41 62.2388 131.975 63.3474ZM135.714 59.7112C135.235 59.6175 134.722 59.5799 134.326 59.8843C134.891 62.057 135.911 64.0191 137.242 65.494C137.816 66.1301 138.489 66.6963 139.237 66.74C139.985 66.7836 140.797 66.133 140.89 65.1499C140.943 64.5806 140.757 64.0194 140.529 63.5316C139.512 61.3578 137.626 60.0841 135.714 59.7112ZM130.778 59.4434C131.651 59.6123 132.539 59.5744 133.422 59.5362C133.496 59.1985 133.329 58.8041 133.157 58.4973C132.252 56.8874 131.013 55.6102 129.612 54.8443C129.109 54.5693 128.513 54.3672 128.04 54.7225C127.593 55.0582 127.404 55.8282 127.505 56.4947C127.607 57.1612 127.949 57.7259 128.349 58.1527C129.036 58.8856 129.904 59.2745 130.778 59.4434ZM142.356 51.6515C141.724 51.4781 141.068 51.6799 140.456 51.9528C137.761 53.1551 135.455 55.8115 134.184 59.1774C137.303 59.6036 140.597 58.4774 142.831 55.5955C143.307 54.9813 143.757 54.181 143.67 53.3089C143.585 52.4623 142.988 51.825 142.356 51.6515Z" fill="#ED6C71"/>
<path d="M134.355 59.829C134.328 59.8021 134.29 59.8096 134.27 59.8446C134.25 59.8799 134.255 59.9305 134.282 59.9571L139.339 65.0162C139.358 65.0353 139.383 65.0371 139.403 65.0238C139.411 65.0183 139.418 65.0104 139.424 65.0006C139.444 64.9653 139.439 64.9147 139.412 64.8881L134.355 59.829ZM133.746 60.0282C133.481 62.2228 133.061 64.398 132.495 66.4926C132.484 66.5345 132.501 66.5802 132.532 66.5953C132.549 66.6031 132.566 66.601 132.58 66.5915C132.593 66.5825 132.604 66.5669 132.61 66.5467C133.178 64.4426 133.6 62.2581 133.866 60.0534C133.872 60.0094 133.849 59.9684 133.816 59.9614C133.783 59.9545 133.752 59.984 133.746 60.0282ZM133.393 59.7677C133.412 59.7902 133.44 59.794 133.461 59.7795C133.468 59.7752 133.474 59.7691 133.479 59.7613C133.501 59.7284 133.499 59.6775 133.474 59.648C132.282 58.2338 130.85 57.124 129.335 56.4388C129.303 56.4246 129.269 56.4469 129.258 56.4888C129.247 56.531 129.264 56.5764 129.296 56.5909C130.796 57.2695 132.212 58.3679 133.393 59.7677ZM135.399 49.2079C135.366 49.2038 135.336 49.2359 135.333 49.2799C135.079 52.6785 134.586 56.0652 133.865 59.3458C133.856 59.3883 133.875 59.4331 133.907 59.4456C133.922 59.4514 133.938 59.4491 133.951 59.4401C133.966 59.4303 133.977 59.4132 133.982 59.3909C134.704 56.1008 135.199 52.7042 135.453 49.2958C135.457 49.2515 135.432 49.2122 135.399 49.2079ZM142.085 54.1181L134.298 59.1929C134.273 59.212 134.255 59.2605 134.27 59.3004C134.285 59.3403 134.322 59.3568 134.352 59.3372L142.138 54.2624L142.139 54.2621C142.168 54.2421 142.181 54.1944 142.166 54.1551C142.151 54.1149 142.115 54.0987 142.085 54.1181ZM133.525 60.0308C133.559 60.0065 133.569 59.9643 133.555 59.9241C133.54 59.8836 133.504 59.8663 133.474 59.8848C131.19 61.2782 129.037 63.3323 127.071 65.9935C125.004 68.7916 123.628 71.6798 122.981 74.5777C122.972 74.6202 122.99 74.665 123.022 74.6774C123.038 74.6835 123.054 74.6809 123.067 74.6719C123.081 74.6624 123.093 74.645 123.098 74.623C123.739 71.7504 125.105 68.885 127.158 66.1057C129.113 63.4589 131.255 61.4132 133.525 60.0308Z" fill="black"/>
<path d="M134.472 60.2791C134.333 60.6226 134 60.7932 133.715 60.6911C133.431 60.589 133.214 60.2409 133.167 59.8563C133.11 59.3836 133.317 58.8715 133.652 58.6902C133.986 58.5089 134.415 58.6931 134.593 59.1101C134.771 59.5267 134.659 60.1215 134.472 60.2791Z" fill="#FCAB00"/>
<path d="M122.784 54.7384C122.785 54.7216 122.783 54.7043 122.776 54.6889C122.77 54.6768 122.762 54.6687 122.753 54.6623C122.594 54.3038 122.373 53.9878 122.074 53.7787C121.319 53.2513 120.44 53.6466 119.983 53.9291C119.572 54.1826 119.063 54.6334 118.968 55.3401C118.898 55.8608 118.85 56.6421 119.014 57.4075C119.026 57.4644 119.04 57.5182 119.054 57.5723C119.048 57.5934 119.048 57.6174 119.057 57.6385C119.062 57.6509 119.07 57.6602 119.078 57.6671C119.217 58.1659 119.42 58.5305 119.684 58.7508C119.922 58.9492 120.22 59.0429 120.616 59.0429C120.646 59.0429 120.677 59.0423 120.708 59.0414C121.201 59.0244 121.635 58.8951 121.997 58.6569C122.427 58.3741 122.757 57.9328 122.926 57.415C123.041 57.0628 123.092 56.6453 123.077 56.1746C123.062 55.72 122.973 55.199 122.784 54.7384ZM119.131 57.3632C118.973 56.6274 119.02 55.8721 119.088 55.3681C119.173 54.7294 119.65 54.3122 120.034 54.0745C120.316 53.8999 120.767 53.6798 121.241 53.6798C121.5 53.6798 121.767 53.7455 122.017 53.9204C122.286 54.1083 122.488 54.3911 122.634 54.7132C121.502 55.6769 120.334 56.6042 119.157 57.4717C119.148 57.4358 119.139 57.4008 119.131 57.3632ZM122.815 57.3508C122.657 57.834 122.347 58.2466 121.943 58.5123C121.597 58.7401 121.18 58.8639 120.705 58.8801C120.285 58.8948 119.984 58.8098 119.749 58.6144C119.51 58.4154 119.326 58.0829 119.197 57.6264C120.38 56.7549 121.555 55.8224 122.693 54.8535C122.862 55.2805 122.942 55.7608 122.955 56.1806C122.97 56.6274 122.922 57.0212 122.815 57.3508Z" fill="black"/>
<path d="M57.2484 12.1943C55.0931 13.4521 52.9375 14.7096 50.7822 15.9674C51.1528 17.715 51.709 19.3934 52.4293 20.9383C54.5341 19.6623 56.6387 18.3864 58.7435 17.1101C58.5136 15.2954 58.0008 13.5446 57.2484 12.1943Z" fill="#EE5952"/>
<path d="M51.6992 19.1731C51.9195 19.7774 52.1631 20.3673 52.4293 20.9384C54.5341 19.6624 56.6388 18.3864 58.7436 17.1101C58.6514 16.382 58.5126 15.6644 58.3321 14.9785C56.0892 16.286 53.8773 17.6858 51.6992 19.1731Z" fill="#EE5952"/>
<path d="M20.032 84.2234C19.2947 84.3868 18.5351 84.1448 17.8503 83.7484C17.4451 83.5139 17.0522 83.2192 16.7428 82.8011C16.4334 82.383 16.2122 81.829 16.1991 81.2441L16.1816 81.2397C15.4928 82.728 14.8043 84.2159 14.1155 85.7041C13.669 86.669 13.7621 88.1786 14.3943 89.1253C15.0265 90.0719 16.1915 90.3377 16.9937 89.6521C17.2692 89.4167 17.4937 89.0915 17.6999 88.754C18.0116 88.2443 18.2884 87.6995 18.5649 87.1556C19.0589 86.1838 19.5533 85.2106 20.0323 84.2249L20.032 84.2234Z" fill="#EE5952"/>
<path d="M20.0319 84.2226C19.599 84.3186 19.1585 84.2741 18.7297 84.1411C17.8204 86.0177 16.9326 87.7968 16.5635 88.3389C15.8428 89.3975 14.4112 89.0913 14.3214 89.0048C14.3454 89.045 14.3688 89.086 14.3944 89.1245C15.0266 90.0712 16.1915 90.3369 16.9938 89.6513C17.2693 89.416 17.4937 89.0907 17.7 88.7532C18.0116 88.2435 18.2885 87.6987 18.565 87.1549C19.059 86.183 19.5533 85.2098 20.0323 84.2241L20.0319 84.2226Z" fill="#EE5952"/>
<path d="M37.5792 30.2783C36.9752 29.375 36.085 28.819 35.1742 28.7725C34.2268 29.8206 33.2704 30.8546 32.3036 31.8709C31.9339 32.2595 31.5571 32.6539 31.2866 33.166C30.6177 34.4327 30.7899 36.3492 31.6642 37.3733C32.5387 38.3975 34.0096 38.4111 34.807 37.5399C36.0102 36.2254 37.2134 34.9107 38.4166 33.5963C38.4872 32.4021 38.1791 31.1758 37.5792 30.2783Z" fill="#FCAB00"/>
<path d="M38.2386 31.7871C36.3413 33.8045 34.3178 35.8765 33.8591 36.2171C33.0982 36.7818 32.0174 37.306 31.3607 36.9339C31.4044 37.0117 31.451 37.0868 31.5004 37.1588C31.5014 37.1606 31.5025 37.1623 31.5036 37.164C31.5541 37.2375 31.6074 37.3074 31.664 37.3737C32.5386 38.3978 34.0095 38.4114 34.8069 37.5402C36.0101 36.2258 37.2133 34.911 38.4165 33.5966C38.4527 32.9853 38.3891 32.3666 38.2386 31.7871Z" fill="#FCAB00"/>
<path d="M103.172 84.074C103.647 83.9597 104.123 83.8522 104.599 83.751C104.326 84.4498 104.246 85.2967 104.18 86.0985C104.083 87.2892 103.987 88.4814 103.89 89.6738C103.801 90.7679 103.713 91.8704 103.754 92.9645C102.768 92.5725 101.781 92.1789 100.795 91.7869C100.448 89.4393 100.506 86.9874 100.962 84.6733C101.034 84.6525 101.106 84.63 101.177 84.6106C101.84 84.4131 102.504 84.2365 103.172 84.074Z" fill="white"/>
<path d="M104.599 83.7514C104.123 83.8526 103.647 83.9602 103.172 84.0744C100.847 79.0097 98.5306 73.937 96.375 68.7437C96.1733 68.2567 95.9719 67.7684 95.7787 67.2734C96.4758 67.8453 97.2931 68.1876 98.092 68.4817C99.9658 69.1728 101.872 69.7126 103.795 70.0997C103.999 70.1399 104.207 70.1784 104.408 70.1142C104.603 70.0515 104.772 69.8956 104.934 69.7366C106.437 68.2663 107.695 66.3623 108.599 64.1963C111.241 69.6177 112.769 75.9856 112.953 82.4338C112.585 82.482 112.217 82.53 111.849 82.5801C109.429 82.9062 107.002 83.2454 104.599 83.7514Z" fill="#00CDCC"/>
<path d="M91.8152 47.4852C90.194 45.2293 88.8035 42.5201 88.4488 39.4415C88.0931 36.3627 88.9868 32.8921 91.0307 31.3464C91.2177 31.205 91.4181 31.0731 91.5541 30.8514C91.6961 30.6201 91.7496 30.3196 91.8128 30.0334C92.2026 28.2771 93.1111 26.7765 94.2137 25.6725C95.3164 24.5671 96.6061 23.8344 97.9212 23.2703C99.8364 22.4509 101.868 21.972 103.866 22.2901C104.841 22.4445 105.806 22.7883 106.787 22.7481C107.363 22.7241 107.94 22.5683 108.508 22.6807C109.156 22.8094 109.739 23.2801 110.233 23.8489C112.263 26.1802 112.902 30.0175 112.868 33.5751C112.845 36.0045 112.45 38.6785 111.103 40.261C111.09 40.2081 111.078 40.1549 111.066 40.102C110.488 37.6257 109.811 35.1755 109.458 32.7779C105.732 35.434 101.537 36.93 97.3067 37.1084C97.6601 39.5124 97.331 42.08 96.3983 44.1945C95.9381 43.6836 95.3601 43.3557 94.76 43.2996C93.7157 43.1998 92.6519 43.9262 92.1078 45.1088C91.803 45.7692 91.6572 46.5822 91.7982 47.3326C91.8078 47.3823 91.8176 47.4306 91.8298 47.4789L91.8152 47.4852Z" fill="black"/>
<path d="M128.628 78.0894C127.001 73.9775 124.944 70.1339 122.373 66.9765C121.284 65.6395 120.06 64.3991 118.62 63.909C117.348 63.4752 116.009 63.6614 114.695 63.7016C112.632 63.7626 110.563 63.4495 108.563 62.7712C108.259 62.6668 107.951 62.5526 107.66 62.3936C107.987 62.9817 108.301 63.5825 108.599 64.1949C111.242 69.6164 112.769 75.9842 112.954 82.4324C112.586 82.4807 112.218 82.5287 111.85 82.5787C109.429 82.9049 107.002 83.244 104.599 83.75C104.326 84.4489 104.246 85.2958 104.18 86.0976C104.083 87.2883 103.987 88.4804 103.89 89.6728C103.801 90.767 103.713 91.8695 103.754 92.9636C102.768 92.5715 101.781 92.178 100.794 91.7859C99.9857 91.4647 99.178 91.1417 98.3692 90.8202C97.7414 89.1426 97.1051 87.454 96.4274 85.7972C97.9151 85.2475 99.4354 84.8589 100.969 84.6371C101.039 84.6276 101.108 84.6177 101.177 84.6099C101.84 84.4122 102.504 84.2355 103.172 84.0733C100.846 79.0086 98.5305 73.9359 96.3752 68.7426C96.1737 68.2557 95.972 67.7673 95.7788 67.2723C95.3805 66.2504 95.0162 65.2058 94.7502 64.1166C90.926 66.7243 86.0722 67.017 83.0412 71.0774C81.114 73.6595 80.2773 77.4308 80.3623 81.059C80.4473 84.6854 81.3728 88.1982 82.5677 91.4647C83.6242 94.3521 84.8993 97.1015 86.365 99.6564C87.8575 102.255 89.7106 104.782 92.1212 105.468C93.6222 105.896 95.1814 105.558 96.6885 105.174C103.155 103.525 109.497 101.008 115.581 97.6717C116.232 97.9305 116.884 98.1907 117.535 98.4495C119.677 99.3028 121.86 100.164 124.096 100.108C126.333 100.053 128.669 98.9301 129.968 96.5212C130.735 95.096 131.082 93.338 131.2 91.5962C131.517 86.9063 130.277 82.2592 128.628 78.0894Z" fill="white"/>
<path d="M98.3695 90.8217C99.1782 91.1429 99.9859 91.4659 100.795 91.7874C100.447 89.4398 100.506 86.9879 100.962 84.6739C100.965 84.6626 100.967 84.6499 100.969 84.6386C99.4356 84.8604 97.9154 85.2493 96.4276 85.7987C97.1053 87.4555 97.7416 89.1441 98.3695 90.8217ZM111.103 40.2614C111.09 40.2085 111.078 40.1553 111.066 40.1023C110.488 37.6261 109.811 35.1759 109.458 32.7783C105.732 35.4344 101.537 36.9304 97.3068 37.1088C97.6601 39.5128 97.331 42.0804 96.3984 44.1949C95.9381 43.684 95.3601 43.3561 94.7601 43.3C93.7157 43.2002 92.652 43.9266 92.1078 45.1092C91.803 45.7696 91.6572 46.5826 91.7982 47.333C91.8078 47.3827 91.8176 47.431 91.8299 47.4793C91.9914 48.1559 92.3666 48.7183 92.7783 49.1826C93.4279 49.9153 94.1967 50.4664 95.0151 50.7845C95.1862 50.8518 95.3636 50.9114 95.5009 51.0609C95.6503 51.2231 95.7303 51.4689 95.7985 51.7068C96.1617 52.9811 96.34 54.3308 96.4908 55.6774C96.7629 58.1102 96.9353 60.7018 96.2091 62.9467C95.7452 63.3871 95.257 63.7725 94.7507 64.1181C95.0166 65.2076 95.3809 66.2519 95.7793 67.2738C96.4764 67.8457 97.2937 68.1881 98.0926 68.4821C99.9664 69.1732 101.873 69.713 103.795 70.1002C103.999 70.1404 104.208 70.1788 104.408 70.1146C104.604 70.0519 104.773 69.896 104.934 69.737C106.438 68.2667 107.696 66.3627 108.599 64.1967C108.301 63.5846 107.987 62.9835 107.66 62.3953C107.367 62.2346 107.09 62.0273 106.855 61.743C105.931 60.6246 105.953 58.7689 105.602 57.1523C106.395 56.982 107.172 56.6798 107.903 56.2542C108.593 55.8526 109.254 55.348 109.819 54.6876C111.287 52.9733 111.985 50.3187 112.059 47.7285C112.132 45.1927 111.666 42.6876 111.103 40.2614Z" fill="#ED6C71"/>
<path d="M118.532 81.9771C119.208 81.9722 119.885 81.9916 120.56 82.0445C122.4 82.1876 124.245 82.5812 125.993 83.3381C124.984 81.9401 123.505 81.1947 122.045 80.8781C121.683 80.7995 121.309 80.7399 120.98 80.523C121.161 79.6698 122.01 79.2618 122.125 78.3891C121.413 78.6783 120.786 79.3292 120.406 80.1775C120.1 79.7984 120.02 79.2103 119.916 78.6719C119.59 76.9686 118.896 75.4341 118.211 73.9285C118.035 73.5414 117.835 73.1267 117.514 72.9691C117.67 74.7318 118.094 76.4366 118.29 78.1928C118.431 79.4448 118.455 80.7142 118.532 81.9771ZM118.459 95.7621C114.456 95.0375 108.346 93.1413 103.759 91.6149C102.607 91.2323 101.552 90.8741 100.651 90.5641C100.686 90.9738 100.735 91.3818 100.794 91.7869C99.9855 91.4657 99.1778 91.1427 98.369 90.8212C98.2172 90.4164 98.0655 90.0098 97.9112 89.6033C97.4316 88.3291 96.941 87.0533 96.4272 85.7985C94.8521 81.9517 93.0598 78.2801 90.6724 75.3508C93.553 79.3598 95.2555 84.7171 96.8573 89.8878C96.9095 90.0581 96.9641 90.2446 96.9252 90.4213C96.8925 90.5676 96.8027 90.6769 96.7152 90.7764C95.932 91.66 95.0114 92.3013 94.1651 93.0788C93.3187 93.8549 92.5196 94.8224 92.1492 96.0949C92.7916 96.3279 93.4339 95.7991 93.9961 95.3252C95.3149 94.218 96.7211 93.2925 98.1857 92.5728C97.1558 94.0897 96.3824 95.9101 95.9379 97.8624C97.2714 97.4125 97.6162 94.9976 98.7967 94.0608C99.6929 93.3521 100.832 93.6623 101.845 93.9948C106.109 95.3911 110.371 96.7874 114.634 98.1839C114.951 98.0168 115.266 97.8465 115.581 97.673C116.232 97.9318 116.884 98.192 117.535 98.4508C119.677 99.3041 121.86 100.165 124.096 100.109C126.333 100.054 128.67 98.9314 129.968 96.5225C130.377 95.7624 130.667 94.9077 130.865 94.0096C128.918 96.0081 124.627 96.8773 118.459 95.7621ZM113.733 73.8724C114.818 74.7173 115.936 75.4893 117.08 76.1839C116.535 78.0934 115.986 80.0251 115.731 82.0324L115.855 82.0205C116.381 79.9491 116.951 77.8973 117.569 75.8704C116.557 75.1027 115.504 74.4302 114.421 73.8594C115.095 72.6465 115.798 71.4621 116.53 70.3087C114.971 68.5999 113.412 66.8911 111.82 65.2695C113.121 67.0093 114.461 68.6991 115.837 70.3356C115.073 71.4465 114.37 72.6291 113.733 73.8724ZM96.1189 75.6651C95.8221 76.5525 95.5252 77.4399 95.2282 78.3273C95.1829 78.4626 95.1366 78.6077 95.1558 78.7535C95.1751 78.8989 95.2557 79.0146 95.3326 79.1216C96.415 80.6228 97.4991 82.1263 98.6783 83.494C99.1179 84.0037 99.5869 84.5037 100.127 84.7836L100.29 84.7526C98.8588 82.8469 97.4272 80.9411 95.9956 79.0354C95.8997 78.9079 95.7985 78.7656 95.7839 78.5866C95.7712 78.4319 95.8267 78.2836 95.8794 78.1445C96.2681 77.1175 96.5889 76.0456 96.8372 74.9449C95.6154 75.0944 94.3829 75.0889 93.1618 74.9287C93.0569 74.9148 92.9437 74.8951 92.8675 74.7989C92.7822 74.6913 92.7678 74.5207 92.7593 74.3651C92.6404 72.2174 92.6188 70.0601 92.6942 67.9088C92.5421 70.4241 92.4099 72.9154 92.3141 75.4092C93.5613 75.762 94.8512 75.8484 96.1189 75.6651Z" fill="#C0DBF9"/>
<path d="M108.714 45.2252C108.745 45.2659 108.773 45.3056 108.774 45.3426C108.775 45.368 108.764 45.4001 108.752 45.4339C108.616 45.7991 108.452 46.1478 108.263 46.4702C108.243 46.5055 108.247 46.5558 108.274 46.583C108.285 46.5943 108.298 46.5998 108.311 46.5998C108.329 46.5998 108.347 46.5891 108.359 46.5685C108.553 46.2375 108.721 45.8798 108.861 45.5051C108.876 45.4646 108.898 45.4036 108.896 45.3339C108.891 45.2321 108.836 45.1595 108.8 45.1115C108.186 44.3022 107.636 43.4039 107.165 42.4419C107.147 42.4046 107.109 42.3942 107.081 42.4182C107.053 42.4422 107.045 42.4922 107.063 42.5295C107.539 43.5004 108.094 44.4075 108.714 45.2252ZM106.682 49.3036C106.817 49.3036 106.952 49.2952 107.086 49.2781C107.119 49.2738 107.144 49.2347 107.141 49.1905C107.137 49.1463 107.108 49.1145 107.074 49.1182C106.053 49.248 104.992 48.8623 104.165 48.0591C104.138 48.0331 104.1 48.0406 104.08 48.0764C104.06 48.1123 104.066 48.1626 104.093 48.1889C104.836 48.9095 105.76 49.3036 106.682 49.3036ZM128.94 84.9637C126.649 83.2282 123.831 82.2191 120.564 81.9644C117.908 81.7574 115.24 82.0566 112.938 82.355C112.573 82.4027 112.209 82.4504 111.844 82.4996C109.373 82.8324 106.959 83.1727 104.59 83.6715C104.116 83.7724 103.635 83.8811 103.161 83.9948C102.451 84.1674 101.797 84.3432 101.165 84.5317C101.117 84.5447 101.068 84.5592 101.02 84.5736L101.009 84.5771C101.002 84.5699 100.995 84.5641 100.986 84.5606C100.955 84.5496 100.925 84.571 100.913 84.6095C100.891 84.6251 100.877 84.6575 100.882 84.6925C100.883 84.7038 100.886 84.7139 100.89 84.7228C100.45 86.999 100.392 89.4142 100.724 91.7198C99.438 91.1852 98.5652 90.8189 98.4122 90.7547C97.7766 89.0559 97.1498 87.3954 96.4807 85.7597C95.0006 82.1437 92.8986 77.5607 89.7573 74.1905C89.7313 74.1624 89.6931 74.1679 89.6719 74.2023C89.6507 74.2367 89.6548 74.2873 89.6808 74.3154C92.8055 77.6677 94.8992 82.2333 96.3741 85.8363C97.0462 87.4798 97.6756 89.1488 98.315 90.8567L98.3152 90.857L98.3156 90.8582L98.4195 91.136C98.4299 91.1644 98.4514 91.1806 98.4736 91.1806C98.4828 91.1806 98.492 91.178 98.5007 91.1722C98.5307 91.1525 98.5429 91.1042 98.5281 91.0646L98.487 90.9545C99.926 91.5582 112.448 96.801 115.567 97.7505C115.572 97.7519 115.576 97.7525 115.581 97.7525C115.608 97.7525 115.633 97.7274 115.64 97.6904C115.647 97.647 115.627 97.6039 115.594 97.5941C113.659 97.0048 108.092 94.7579 103.809 92.9961C103.813 92.9851 103.815 92.9733 103.814 92.9605C103.773 91.8661 103.863 90.7558 103.95 89.6822L104.24 86.107C104.308 85.2794 104.391 84.4828 104.64 83.8236C106.997 83.3289 109.398 82.9903 111.856 82.6592C112.22 82.6101 112.585 82.5623 112.96 82.5132C115.247 82.2168 117.909 81.9181 120.556 82.1243C123.804 82.3776 126.605 83.3798 128.879 85.1025C128.889 85.1097 128.899 85.1132 128.91 85.1132C128.931 85.1132 128.951 85.0987 128.962 85.0727C128.98 85.0348 128.969 84.9857 128.94 84.9637ZM104.12 86.0902L103.83 89.6655C103.743 90.7388 103.653 91.8482 103.693 92.9487C102.641 92.5156 101.67 92.1136 100.854 91.7745C100.854 91.7736 100.854 91.7727 100.854 91.7716C100.512 89.4564 100.567 87.0259 101.012 84.7411L101.047 84.7309C101.094 84.7168 101.142 84.7026 101.191 84.6893C101.823 84.5008 102.475 84.3255 103.183 84.1535C103.619 84.0488 104.06 83.9491 104.496 83.8557C104.266 84.5164 104.186 85.289 104.12 86.0902Z" fill="black"/>
<path d="M102.377 36.865C102.024 36.6522 101.616 36.638 101.237 36.7461C100.858 36.8543 100.503 37.0775 100.163 37.3256C99.7239 37.6465 99.263 38.0898 99.1861 38.7459C99.1754 38.8366 99.1739 38.9347 99.208 39.0145C99.2672 39.153 99.4149 39.1839 99.5279 39.129C99.6409 39.074 99.7283 38.9566 99.817 38.8494C100.495 38.0276 101.466 37.6491 102.373 37.8527C102.479 37.8764 102.643 37.8614 102.716 37.7081C102.789 37.5552 102.77 37.347 102.695 37.1949C102.621 37.0434 102.501 36.9399 102.377 36.865ZM110.229 35.4034C110.095 35.0879 109.846 34.8786 109.582 34.7854C109.318 34.6921 109.039 34.7033 108.767 34.7444C108.07 34.8502 107.346 35.194 106.94 35.9513C106.872 36.0791 106.812 36.2225 106.803 36.3786C106.794 36.5348 106.846 36.7057 106.952 36.7751C107.081 36.8592 107.235 36.773 107.352 36.6631C107.469 36.5533 107.396 36.5411 107.89 36.2199C108.385 35.8987 108.987 35.6205 109.737 35.8449C109.839 35.8755 109.944 35.9151 110.048 35.8978C110.153 35.8804 110.259 35.7879 110.276 35.6503C110.286 35.5647 110.261 35.4788 110.229 35.4034Z" fill="black"/>
<path d="M111.711 81.1372C111.177 81.0973 110.625 81.056 110.118 80.8319C109.579 80.5933 109.158 80.1495 108.962 79.6137C108.796 79.1603 108.775 78.6309 108.767 78.1275C108.726 75.4882 109.046 72.8894 109.718 70.4039C109.752 70.2787 109.703 70.1408 109.608 70.096C109.513 70.0511 109.409 70.1165 109.375 70.2417C108.688 72.7827 108.361 75.4393 108.403 78.1376C108.411 78.6697 108.436 79.2826 108.634 79.8236C108.876 80.4849 109.362 81.0054 110.003 81.2893C110.556 81.5339 111.133 81.577 111.691 81.6189C111.694 81.6189 111.698 81.6192 111.701 81.6192C111.797 81.6192 111.878 81.52 111.883 81.3919C111.889 81.2586 111.812 81.1447 111.711 81.1372ZM116.412 74.8099C115.969 72.6219 115.281 70.5415 114.368 68.6265C114.314 68.5138 114.202 68.4805 114.117 68.5513C114.032 68.6225 114.006 68.7711 114.06 68.8839C114.953 70.7578 115.627 72.7937 116.06 74.9345C116.443 76.8287 116.397 78.1694 115.917 79.154C115.468 80.0729 114.651 80.5847 113.989 80.9282C113.896 80.9767 113.849 81.1167 113.886 81.2407C113.914 81.3356 113.983 81.3937 114.056 81.3937C114.078 81.3937 114.1 81.3885 114.122 81.3772C114.835 81.0074 115.717 80.4505 116.223 79.4159C116.933 77.961 116.671 76.0905 116.412 74.8099Z" fill="#ED6C71"/>
<path d="M95.1332 78.8712C95.627 77.8919 96.5333 77.2887 97.4192 77.3986C98.3051 77.5085 99.1243 78.3516 99.3872 79.4764C99.7266 80.9282 99.0681 82.6142 98.0181 83.2301C97.0188 83.8162 95.7046 83.4111 95.105 82.2019C94.5816 81.1468 94.7374 79.6559 95.1332 78.8712Z" fill="#ED6C71"/>
<path d="M96.2294 81.5951C96.2187 81.5849 96.2082 81.5748 96.198 81.5644C95.7941 81.1561 95.6912 80.3902 95.8868 79.7905C96.0205 79.3805 96.2928 79.0679 96.5998 78.882C97.0406 78.6151 97.5887 78.6056 97.9894 78.9664C98.2418 79.1937 98.4215 79.5575 98.4774 79.9544C98.5565 80.5154 98.3815 81.1174 98.0568 81.4927C97.732 81.868 97.2731 82.0175 96.8479 81.9232C96.6444 81.8781 96.4034 81.757 96.2294 81.5951Z" fill="black"/>
<path d="M111.356 67.147C110.601 63.3479 108.426 60.0592 105.681 58.564C105.527 58.4796 105.349 58.5773 105.285 58.7826C105.221 58.9879 105.295 59.2224 105.45 59.3071C108.023 60.7086 110.061 63.7909 110.769 67.3514C110.805 67.5318 110.928 67.6513 111.062 67.6513C111.088 67.6513 111.114 67.6469 111.14 67.638C111.301 67.581 111.398 67.3615 111.356 67.147ZM96.9144 59.1345C95.1896 60.7066 94.0714 62.4938 93.5911 64.4464C93.3206 65.5457 93.2224 66.8041 93.2827 68.4062C93.4224 72.1298 94.2779 75.7016 95.7571 78.7359C95.815 78.855 95.9129 78.9198 96.0124 78.9198C96.0687 78.9198 96.1258 78.899 96.1767 78.8556C96.3176 78.7353 96.3581 78.4869 96.2672 78.3001C94.8459 75.3841 94.0236 71.9491 93.8892 68.366C93.8328 66.8645 93.9215 65.6978 94.1684 64.6948C94.6066 62.9139 95.6465 61.2658 97.259 59.7958C97.3971 59.67 97.4319 59.4199 97.3368 59.2372C97.2416 59.0547 97.0523 59.009 96.9144 59.1345Z" fill="#ED6C71"/>
<path d="M101.717 40.3558C101.362 40.4339 101.151 41.1013 101.245 41.8467C101.339 42.5918 101.702 43.1325 102.057 43.0544C102.411 42.9764 102.623 42.309 102.529 41.5636C102.435 40.8188 102.072 40.2778 101.717 40.3558ZM109.532 39.456C109.438 38.7109 109.075 38.1699 108.72 38.2483C108.366 38.3263 108.154 38.9937 108.248 39.7391C108.342 40.4842 108.705 41.0252 109.06 40.9471C109.414 40.8685 109.626 40.2011 109.532 39.456Z" fill="black"/>
<path d="M112.425 80.8665C112.416 80.8416 112.404 80.8173 112.387 80.8025C112.365 80.7846 112.338 80.7832 112.313 80.784C112.108 80.7901 111.913 80.902 111.711 80.9503C111.583 80.9807 111.616 81.0914 111.61 81.2264C111.604 81.3863 111.601 81.5468 111.6 81.707C111.6 81.7246 111.601 81.744 111.609 81.7573C111.615 81.7666 111.624 81.7715 111.633 81.7758C111.843 81.8811 112.066 81.9403 112.29 81.9499C112.344 81.9522 112.406 81.947 112.439 81.8909C112.459 81.8565 112.464 81.8105 112.467 81.7668C112.483 81.5341 112.481 81.2996 112.461 81.0674C112.455 80.9986 112.447 80.9289 112.425 80.8665ZM114.291 81.2614C114.272 81.1932 114.243 81.1322 114.226 81.0616C114.203 80.9607 114.183 80.8578 114.162 80.7563C114.158 80.7366 114.153 80.7152 114.141 80.7025C114.127 80.6878 114.107 80.6883 114.089 80.6895L113.392 80.7375C113.34 80.741 113.279 80.7499 113.249 80.8072C113.225 80.8537 113.229 80.9162 113.238 80.9714C113.263 81.1362 113.316 81.2918 113.348 81.4546C113.366 81.5459 113.377 81.639 113.388 81.7324C113.396 81.7966 113.406 81.8666 113.443 81.9097C113.492 81.9675 113.568 81.9533 113.63 81.9256C113.806 81.8472 113.954 81.6896 114.119 81.5789C114.211 81.517 114.338 81.4239 114.291 81.2614Z" fill="black"/>
<path d="M109.293 70.2976C109.541 69.0933 109.974 67.8659 110.783 67.2242C111.323 66.7963 111.991 66.6781 112.604 66.8622C113.218 67.0467 113.773 67.5238 114.176 68.1631C114.303 68.3649 114.418 68.6584 114.305 68.8741C114.216 69.0427 114.025 69.0626 113.883 68.9802C113.741 68.8978 113.634 68.7399 113.523 68.5968C112.891 67.7832 111.889 67.3622 111.104 67.893C110.518 68.2892 110.17 69.1167 109.971 69.9465C109.917 70.1732 109.859 70.4262 109.703 70.5445C109.546 70.6625 109.256 70.4803 109.293 70.2976Z" fill="black"/>
<path d="M93.9453 45.2882C93.7584 45.3634 93.5792 45.4921 93.4538 45.6904C93.3286 45.8888 93.2635 46.1626 93.3118 46.413C93.3225 46.4682 93.3404 46.5255 93.3769 46.5558C93.4378 46.6064 93.5167 46.561 93.5792 46.5139C93.8124 46.3378 94.0401 46.136 94.2999 46.0466C94.5597 45.957 94.8672 46.0047 95.0471 46.2684C95.2033 46.4977 95.2295 46.8302 95.3252 47.1116C95.4212 47.3932 95.674 47.6471 95.9437 47.5759C95.8943 47.1107 95.8418 46.6339 95.6716 46.2219C95.3491 45.4406 94.589 45.0294 93.9453 45.2882ZM97.9117 89.6036C98.066 90.0101 98.2176 90.4167 98.3695 90.8215C99.1783 91.1427 99.986 91.4657 100.795 91.7872C100.735 91.3824 100.687 90.9741 100.651 90.5644C99.3835 90.1272 98.4169 89.7834 97.9117 89.6036ZM105.602 57.1521C103.436 57.6228 101.149 57.12 99.3555 55.5019C99.6337 56.498 100.178 57.3594 100.827 57.9941C101.602 58.7525 102.523 59.2154 103.455 59.5416C104.301 59.8371 105.205 60.019 106.061 59.866C105.876 58.9965 105.795 58.0389 105.602 57.1521Z" fill="#ED6C71"/>
<path d="M100.46 43.9917C99.3788 43.9917 98.5021 45.0693 98.5021 46.3988C98.5021 47.7283 99.379 48.8059 100.46 48.8059C101.542 48.8059 102.419 47.7283 102.419 46.3988C102.419 45.0693 101.542 43.9917 100.46 43.9917ZM111.258 40.9447C111.109 40.8998 110.954 40.8735 110.793 40.8735C109.712 40.8735 108.835 41.9512 108.835 43.2807C108.835 44.6101 109.712 45.6878 110.793 45.6878C111.234 45.6878 111.64 45.5062 111.968 45.2038C111.831 43.7658 111.568 42.3433 111.258 40.9447Z" fill="#EE5952"/>
<path d="M100.776 44.9255C100.753 44.8943 100.714 44.8946 100.691 44.9261C100.25 45.5142 99.8407 46.1518 99.4732 46.8208C99.4535 46.8567 99.4594 46.907 99.4865 46.933C99.4972 46.9434 99.5096 46.9483 99.5221 46.9483C99.5409 46.9483 99.5593 46.9368 99.5713 46.9154C99.9353 46.253 100.341 45.6218 100.777 45.0394C100.8 45.0076 100.8 44.9567 100.776 44.9255ZM101.021 45.5255C100.69 46.0604 100.414 46.652 100.201 47.284C100.188 47.3245 100.201 47.3722 100.232 47.3902C100.24 47.3948 100.248 47.3971 100.257 47.3971C100.28 47.3971 100.302 47.3795 100.312 47.3494C100.52 46.7303 100.79 46.1509 101.115 45.6272C101.137 45.5928 101.133 45.5422 101.107 45.5142C101.081 45.4861 101.043 45.4911 101.021 45.5255ZM110.87 42.5562C110.894 42.5265 110.896 42.4756 110.874 42.4426C110.851 42.4099 110.813 42.4076 110.788 42.4374C110.42 42.8818 110.08 43.3731 109.778 43.897C109.758 43.9323 109.763 43.9826 109.79 44.0095C109.8 44.0205 109.814 44.026 109.826 44.026C109.845 44.026 109.863 44.015 109.875 43.9944C110.172 43.4783 110.507 42.9946 110.87 42.5562ZM111.383 42.6994C111.36 42.6673 111.322 42.6658 111.298 42.6962C110.984 43.0891 110.692 43.5194 110.431 43.9748C110.411 44.0101 110.416 44.0607 110.443 44.0873C110.454 44.0983 110.466 44.1035 110.479 44.1035C110.498 44.1035 110.516 44.0925 110.528 44.0717C110.785 43.6232 111.072 43.1996 111.381 42.8127C111.406 42.7824 111.406 42.7315 111.383 42.6994Z" fill="#EE5952"/>
<path d="M111.716 39.2095C111.637 37.6594 110.655 36.3192 109.526 36.2218C108.809 36.1596 108.184 36.5578 107.786 36.9024C107.47 37.1754 107.214 37.4845 107.023 37.8213C106.701 38.3886 106.551 39.1098 106.568 39.8268C105.839 39.8005 105.108 40.0047 104.448 40.4141C104.272 39.6823 103.938 39.0736 103.507 38.6995C103.255 38.4812 102.953 38.3256 102.608 38.2377C101.862 38.0466 101.077 38.225 100.456 38.7272C99.8073 39.2523 99.3427 40.1348 99.2133 41.0881C99.1572 41.5024 99.1633 41.937 99.2251 42.3681C99.2153 42.367 99.2052 42.3681 99.1956 42.3739L96.3928 44.042C96.3622 44.0602 96.3487 44.1076 96.3624 44.1481C96.3725 44.1779 96.3948 44.1955 96.4179 44.1955C96.4265 44.1955 96.4348 44.1932 96.4429 44.1886L99.2457 42.5205C99.247 42.5196 99.2476 42.5182 99.2489 42.5173C99.3055 42.8418 99.3932 43.163 99.5138 43.4701C99.6912 43.9229 99.9141 44.2933 100.176 44.5711C100.583 45.0017 101.133 45.2359 101.705 45.2359C101.852 45.2359 102.001 45.2203 102.149 45.1887C102.769 45.0563 103.406 44.6492 103.989 44.0113C104.64 43.2998 104.726 41.7413 104.482 40.5699C105.134 40.1617 105.857 39.9596 106.577 39.9873C106.616 40.6524 106.798 41.3038 107.123 41.815C107.598 42.563 108.349 42.9794 109.096 42.9794C109.434 42.9794 109.772 42.8941 110.083 42.7157C111.085 42.14 111.787 40.6327 111.716 39.2095ZM103.911 43.8876C103.345 44.5069 102.728 44.9022 102.129 45.03C101.439 45.1772 100.737 44.9589 100.252 44.4456C100.003 44.1819 99.7907 43.8289 99.6209 43.396C99.3346 42.6662 99.2321 41.8566 99.3326 41.1167C99.4559 40.2079 99.8995 39.3659 100.519 38.8646C100.958 38.5098 101.482 38.3236 102.015 38.3236C102.205 38.3236 102.396 38.3473 102.585 38.3956C102.914 38.4797 103.201 38.6272 103.44 38.8339C103.851 39.1904 104.169 39.7742 104.336 40.478C104.609 41.6273 104.524 43.2174 103.911 43.8876ZM110.034 42.5685C109.084 43.1141 107.872 42.7455 107.215 41.7118C106.55 40.6645 106.508 38.9979 107.12 37.9179C107.302 37.5961 107.549 37.2997 107.852 37.0372C108.208 36.729 108.753 36.3762 109.377 36.3762C109.424 36.3762 109.471 36.3782 109.518 36.3823C110.589 36.4745 111.52 37.7476 111.595 39.2202C111.663 40.5789 110.992 42.0183 110.034 42.5685Z" fill="black"/>
<path d="M37.0682 98.4758C36.8836 98.1334 36.8145 97.7078 36.75 97.2963C35.6729 90.4818 34.5969 83.669 33.5209 76.8541C33.4226 76.229 33.3229 75.6042 33.227 74.9805C31.0277 80.3713 29.1248 86.1947 29.2365 92.2988C29.2645 93.8171 29.4235 95.355 29.8899 96.7432C30.7522 99.3094 32.6149 101.13 34.6441 101.952C36.0018 102.502 37.4701 102.648 38.8483 102.197C39.6619 101.932 40.4416 101.448 41.107 100.776C40.1538 100.331 39.2017 99.8813 38.2496 99.4279C37.8079 99.2197 37.3392 98.982 37.0682 98.4758ZM47.5933 65.385C46.9703 65.8236 46.3571 66.2911 45.7572 66.7861C43.5409 68.6132 41.5069 70.829 39.8529 73.4914C40.6544 73.7132 41.4558 73.9349 42.2573 74.1567C42.6605 74.2675 43.077 74.388 43.405 74.7159C43.6283 74.9409 43.7973 75.291 43.83 75.6496C45.2861 76.1446 46.7336 76.6795 48.1726 77.2532C48.6208 75.7363 49.0749 74.2226 49.5425 72.7171C50.1935 70.6219 50.8784 68.5184 51.7903 66.6095C52.0829 65.9956 52.3986 65.4029 52.7448 64.837C52.9707 64.4675 53.2098 64.1075 53.4078 63.7105C53.5959 63.3315 53.743 62.9281 53.8632 62.5054C51.664 62.8604 49.5569 64.0014 47.5933 65.385ZM77.4829 76.742C76.4045 74.478 75.0687 72.4404 73.5436 70.6841C71.1962 67.9797 68.4006 65.9456 65.4096 64.7934C64.709 66.4661 64.0082 68.1405 63.3367 69.834C62.3726 72.2651 61.4652 74.7315 60.6978 77.28C59.5429 81.1106 58.7051 85.1488 58.5034 89.2558C58.4341 89.222 58.3637 89.1899 58.2934 89.1578C57.997 89.6349 57.7103 90.1235 57.4361 90.6232C56.116 93.0158 55.0463 95.6508 54.2677 98.4292C54.071 99.1266 53.8936 99.8336 53.7345 100.549C54.6027 101.275 55.4783 101.974 56.3636 102.634C58.3139 104.088 60.3176 105.35 62.4174 106.283C65.4704 107.639 68.7467 108.285 71.9319 107.66C73.1585 107.421 74.3777 106.987 75.4585 106.181C78.0974 104.212 79.5729 100.269 80.197 96.3451C81.2573 89.6817 80.2276 82.504 77.4829 76.742Z" fill="white"/>
<path d="M56.3637 102.635C54.9077 102.377 53.4578 102.062 52.0162 101.692C51.7684 99.9182 51.4709 98.1571 51.1272 96.4106C51.4102 96.4829 51.6908 96.565 51.9676 96.6694C52.8324 96.9924 53.6811 97.5467 54.2676 98.4306C54.071 99.128 53.8935 99.835 53.7344 100.55C54.6028 101.276 55.4785 101.975 56.3637 102.635Z" fill="#00CDCC"/>
<path d="M63.3367 69.8344C62.3726 72.2655 61.4653 74.7319 60.6978 77.2804C59.5429 81.111 58.7051 85.1492 58.5034 89.2562C58.4341 89.2224 58.3637 89.1903 58.2934 89.1582C57.9971 89.6353 57.7104 90.1239 57.4361 90.6236C56.654 90.3023 55.8719 89.9713 55.1348 89.5005C53.3558 88.3645 51.7831 86.4009 49.8692 85.9961C49.4722 83.1489 49.0751 80.3032 48.6778 77.4559C48.5102 77.3886 48.3415 77.3195 48.1726 77.2535C48.6208 75.7367 49.0749 74.223 49.5425 72.7175C50.1935 70.622 50.8784 68.5188 51.7903 66.6099C52.2348 68.0432 52.8796 69.4122 53.8875 70.1721C54.5638 70.6816 55.3472 70.8742 56.1171 71.0222C57.5452 71.2954 59.0025 71.44 60.4295 71.1619C61.4495 70.9641 62.4574 70.535 63.3367 69.8344Z" fill="#00CDCC"/>
<path d="M33.227 74.9819C33.1567 74.5401 33.0885 74.098 33.0205 73.6562C32.9939 73.4827 32.9707 73.2867 33.0509 73.1435C33.1335 72.9972 33.2913 72.9747 33.4298 72.9715C33.5452 72.9683 33.6606 72.9715 33.776 72.9764C34.3212 73.0053 34.8653 73.1242 35.4044 73.2497C35.8343 73.3494 36.263 73.4506 36.6918 73.5582C39.0877 74.1495 41.4692 74.8469 43.8299 75.6504C45.2859 76.1454 46.7334 76.6803 48.1724 77.254C48.3413 77.3199 48.51 77.389 48.6776 77.4564C49.0747 80.3036 49.4718 83.1494 49.869 85.9966C49.993 86.8837 50.1169 87.769 50.2408 88.6558C48.1641 88.8134 46.0973 88.0772 44.0169 87.8589C43.9308 87.8494 43.8384 87.843 43.7632 87.8991C43.5495 88.055 43.6577 88.4936 43.8192 88.7348C43.8458 88.7732 43.8727 88.812 43.9005 88.849C43.7001 88.971 43.513 89.1526 43.5034 89.4307C43.4997 89.5817 43.5519 89.7248 43.6127 89.8517C43.6782 89.9882 43.7536 90.1151 43.836 90.2325C43.6988 90.3997 43.5834 90.5925 43.5591 90.8319C43.5239 91.1743 43.6892 91.4923 43.8651 91.7445C43.9391 91.8506 44.0156 91.9535 44.0958 92.0512C43.9599 92.4338 44.0266 92.9317 44.2136 93.2885C44.4345 93.7112 44.7844 93.9795 45.1305 94.214C46.3206 95.0222 47.5994 95.604 48.9134 95.9333C49.6481 96.1181 50.395 96.2256 51.1273 96.4107C51.4711 98.1574 51.7685 99.9183 52.0163 101.692C52.1682 102.77 52.3017 103.852 52.4171 104.938C52.4341 105.093 52.4487 105.258 52.3989 105.399C52.2726 105.762 51.8731 105.693 51.5864 105.566C48.083 104.008 44.5904 102.412 41.1075 100.778C40.1543 100.333 39.2022 99.8833 38.2501 99.4299C37.808 99.2211 37.3392 98.9832 37.0685 98.4772C36.8838 98.1348 36.8148 97.7092 36.7503 97.2978C35.6732 90.4832 34.5972 83.6704 33.5212 76.8559C33.4226 76.2304 33.323 75.6053 33.227 74.9819Z" fill="#3F2532"/>
<path d="M39.853 73.4916C40.6545 73.7134 41.4559 73.9351 42.2574 74.1569C42.6606 74.2677 43.0771 74.3882 43.4051 74.7161C43.6284 74.9411 43.7974 75.2915 43.8301 75.6498C41.4694 74.8462 39.0879 74.1491 36.692 73.5575C36.7005 73.3262 36.8098 73.0787 36.9702 72.968C37.241 72.7815 37.5676 72.8604 37.8677 72.9422C37.954 72.9662 38.0401 72.9905 38.1264 73.0145C38.7018 73.1733 39.2774 73.3326 39.853 73.4916Z" fill="#C0DBF9"/>
<path d="M59.3293 35.0579C57.7664 34.4955 56.0857 34.4232 54.5338 35.0339C52.961 35.6509 51.5319 36.9992 50.6951 38.8662C50.1646 40.0537 49.8827 41.4017 49.6228 42.7387C49.2514 44.6589 48.9137 46.5904 48.5761 48.5216C48.3576 49.7684 48.1388 51.0314 48.1572 52.312C48.1948 54.9071 49.2841 57.4345 50.9528 58.7986C51.9595 59.6213 53.1254 60.0214 54.3008 60.2559C54.1926 61.0193 54.069 61.7858 53.8635 62.5055C51.6643 62.8605 49.5573 64.0015 47.5936 65.3848C46.9706 65.8234 46.3574 66.2909 45.7576 66.786C43.1818 63.7604 41.7087 58.8001 42.9207 54.5531C43.8837 51.1803 46.2943 48.8214 47.296 45.4682C47.9675 43.217 47.9446 40.7136 48.3974 38.3677C49.12 34.6303 51.1128 31.3589 53.72 29.633C56.3261 27.9074 59.5004 27.7579 62.1928 29.2345C62.3895 29.3421 62.5912 29.4595 62.8036 29.4499C63.032 29.4387 63.2396 29.2828 63.4424 29.1446C65.4157 27.8076 67.8907 28.0777 69.8168 29.5272C71.7428 30.9781 73.1368 33.4959 73.8728 36.2631C74.4836 38.5609 74.6779 41.0562 75.5061 43.2334C76.1328 44.879 77.0908 46.259 77.8207 47.8274C79.641 51.7401 79.9277 56.7451 78.8456 61.1109C77.9007 64.9302 75.9674 68.2485 73.5435 70.6845C71.1961 67.9801 68.4005 65.946 65.4095 64.7938C65.401 64.7906 65.3914 64.7874 65.3829 64.7842C64.8851 61.0693 64.7527 57.2162 65.0125 53.411C66.1383 53.7661 67.3599 53.9815 68.4199 53.3677C69.4789 52.7538 70.2416 51.0296 69.7473 49.6464C69.5786 49.1725 69.2846 48.7899 68.9566 48.4959C67.6062 47.2875 65.5868 47.6602 64.5374 49.3089C64.7269 47.7794 64.4839 46.1628 63.867 44.8451C62.7813 42.5248 60.6647 41.2441 59.7441 38.8017C59.3142 37.6608 59.1879 36.3255 59.3907 35.0805C59.3713 35.0741 59.3531 35.066 59.3337 35.0596C59.333 35.0596 59.3317 35.0579 59.3293 35.0579Z" fill="#3F2532"/>
<path d="M31.142 68.7504C30.7655 69.4799 30.3903 70.2126 30.0162 70.947C29.9554 71.4837 29.8936 72.0203 29.8315 72.557C30.2153 72.2164 30.599 71.8772 30.9233 71.5415C31.2305 71.0772 31.5196 70.5934 31.7952 70.0987C31.7819 70.0779 31.7685 70.0568 31.7552 70.036C31.51 69.6439 31.2707 69.2246 31.142 68.7504ZM37.1618 57.752C36.5789 58.7498 36.002 59.7572 35.4313 60.7744C35.1824 61.2179 34.9345 61.6629 34.688 62.1096C34.9772 62.4566 35.2346 62.8504 35.435 63.2859C35.6633 62.9002 35.8915 62.5147 36.115 62.1241C36.143 62.0744 36.171 62.0261 36.1987 61.9763C36.8606 60.8065 37.4714 59.5886 38.1259 58.3996C37.8151 58.1568 37.4933 57.9413 37.1618 57.752Z" fill="#00CDCC"/>
<path d="M49.8694 85.9965C49.9933 86.8836 50.1172 87.769 50.2411 88.6558C48.1645 88.8134 46.0976 88.0772 44.0173 87.8589C43.9312 87.8494 43.8388 87.8427 43.7636 87.8991C43.5499 88.0549 43.658 88.4936 43.8195 88.7347C43.8462 88.7732 43.8731 88.8119 43.9008 88.8489C43.7004 88.971 43.5134 89.1525 43.5038 89.4307C43.5 89.5816 43.5523 89.7247 43.613 89.8517C43.6786 89.9884 43.754 90.1151 43.8364 90.2325C43.6991 90.3996 43.5837 90.5925 43.5595 90.8319C43.5243 91.1742 43.6895 91.4923 43.8654 91.7444C43.9395 91.8505 44.016 91.9535 44.0962 92.0512C43.9603 92.4337 44.0269 92.9316 44.214 93.2884C44.4349 93.7112 44.7847 93.9792 45.1309 94.214C46.321 95.0222 47.5998 95.6039 48.9138 95.9332C49.6485 96.118 50.3954 96.2256 51.1277 96.4106C51.4107 96.4829 51.6912 96.565 51.9681 96.6694C52.8328 96.9924 53.6816 97.5467 54.2681 98.4306C55.0465 95.6525 56.1164 93.0172 57.4365 90.6246C56.6544 90.3033 55.8723 89.9723 55.1352 89.5015C53.3557 88.3649 51.7832 86.4013 49.8694 85.9965ZM37.6187 68.5221C37.6866 67.8342 37.8518 67.1706 37.9355 66.4862C38.0181 65.8018 38.0133 65.0657 37.7618 64.4567C37.5006 63.827 37.0162 63.4268 36.6287 62.9237C36.4382 62.6779 36.2706 62.4064 36.115 62.1236C35.8914 62.514 35.6633 62.8997 35.4349 63.2854C35.2345 62.85 34.9771 62.4564 34.688 62.1092C34.9345 61.6625 35.1823 61.2175 35.4312 60.7739C35.3414 60.5972 35.2492 60.4235 35.1519 60.2549C34.9686 59.9368 34.7037 59.6058 34.4087 59.6908C34.2278 59.7422 34.0906 59.9429 34.0093 60.1632C33.8611 60.5666 33.8659 61.0631 34.0226 61.4601C33.9413 61.4071 33.855 61.3669 33.7652 61.3444C33.5307 61.2848 33.2599 61.3797 33.1288 61.6448C32.9612 61.9854 33.0803 62.4402 33.2261 62.7985C33.2637 62.8902 33.3013 62.9801 33.3428 63.07L33.265 63.131C32.9263 62.8867 32.4818 63.2611 32.3651 63.748C32.2545 64.2124 32.3555 64.7106 32.4866 65.1686L32.4368 65.1943C32.121 65.2585 31.8017 65.4725 31.6608 65.8498C31.5478 66.1534 31.5659 66.4975 31.6426 66.8268L31.5819 66.8381C31.1582 67.1015 30.9855 67.8215 31.0756 68.4304C31.0913 68.5397 31.1145 68.6459 31.1424 68.7502C31.2712 69.2241 31.5104 69.6437 31.7556 70.0358C31.769 70.0566 31.7823 70.0777 31.7956 70.0985C32.1125 70.6013 32.466 71.09 32.9201 71.3421C33.1291 71.4595 33.3985 71.5093 33.5626 71.3019C33.5674 71.2956 33.5711 71.2907 33.5759 71.2843C33.6234 71.8354 33.7036 72.5088 33.7776 72.9538L33.7763 72.9764C34.3215 73.0053 34.8657 73.1241 35.4048 73.2496C35.8346 73.3494 36.2634 73.4506 36.6921 73.5581C36.7006 73.3268 36.8099 73.0793 36.9703 72.9686C37.241 72.7821 37.5677 72.861 37.8678 72.9428C37.9541 72.9668 38.0402 72.9911 38.1265 73.0151C37.9915 71.7197 37.491 69.8108 37.6187 68.5221ZM69.7475 49.6468C69.5788 49.1729 69.2849 48.7903 68.9569 48.4963C67.6064 47.2879 65.587 47.6606 64.5377 49.3093C64.7271 47.7798 64.4841 46.1632 63.8672 44.8455C62.7816 42.5252 60.665 41.2445 59.7443 38.8021C59.3145 37.6612 59.1882 36.3259 59.391 35.0809C59.3715 35.0745 59.3534 35.0664 59.3339 35.06C59.3291 35.0632 59.3243 35.065 59.3193 35.0681C59.323 35.065 59.3254 35.0618 59.3289 35.0586C57.766 34.4962 56.0853 34.4239 54.5334 35.0346C52.9606 35.6516 51.5315 36.9996 50.6948 38.8669C50.1642 40.0544 49.8823 41.4024 49.6225 42.7394C49.251 44.6596 48.9133 46.5911 48.5757 48.5223C48.3572 49.7691 48.1385 51.0321 48.1568 52.3127C48.1944 54.9078 49.2837 57.4352 50.9524 58.7993C51.9592 59.622 53.125 60.0221 54.3004 60.2566C54.1923 61.02 54.0686 61.7865 53.8632 62.5062C53.743 62.9286 53.5959 63.332 53.4078 63.7113C53.2098 64.1083 52.9705 64.468 52.7447 64.8378C52.3986 65.4034 52.0828 65.9964 51.7902 66.6103C52.2347 68.0436 52.8796 69.4127 53.8874 70.1725C54.5638 70.682 55.3472 70.8746 56.117 71.0226C57.5451 71.2959 59.0024 71.4404 60.4294 71.1623C61.4495 70.9645 62.4573 70.5357 63.3367 69.8351C64.0082 68.1416 64.709 66.4672 65.4096 64.7945C65.4011 64.7913 65.3915 64.7881 65.3829 64.7849C64.8851 61.07 64.7527 57.2169 65.0125 53.4117C66.1384 53.7668 67.3599 53.9822 68.4202 53.3684C69.4792 52.7545 70.2418 51.0303 69.7475 49.6468Z" fill="#FBB4B8"/>
<path d="M37.7737 99.1834C32.2227 100.76 30.0307 94.6377 29.2403 91.1058C29.2305 91.5028 29.2294 91.9013 29.2366 92.2997C29.2646 93.818 29.4237 95.356 29.89 96.7441C30.7523 99.3103 32.615 101.131 34.6442 101.953C36.0019 102.503 37.4702 102.649 38.8484 102.198C39.662 101.933 40.4417 101.449 41.1071 100.777C40.1539 100.332 39.2018 99.8822 38.2497 99.4288C38.0906 99.3534 37.9291 99.2765 37.7737 99.1834ZM68.1553 104.974C61.1859 103.467 56.4959 97.9941 55.018 96.0499C54.7448 96.8292 54.4933 97.6246 54.2676 98.4296C54.0709 99.127 53.8934 99.8339 53.7344 100.549C54.6026 101.275 55.4782 101.974 56.3634 102.635C58.3138 104.089 60.3174 105.35 62.4172 106.284C65.4703 107.64 68.7466 108.286 71.9318 107.661C73.1584 107.421 74.3776 106.987 75.4584 106.181C76.9557 105.064 78.0789 103.311 78.8829 101.287C76.7215 103.559 73.1051 106.044 68.1553 104.974ZM63.7507 92.2916C63.9972 92.4298 64.2461 92.5649 64.4963 92.695C65.3269 93.1255 66.1927 93.4919 67.0721 93.7298C67.8163 91.3195 68.4625 88.8563 69.0077 86.3561C68.9275 86.6033 67.0174 92.42 63.7507 92.2916ZM63.4863 86.1811C62.7608 87.7278 62.0355 89.2744 61.31 90.821L61.8257 91.1374C62.0077 90.9231 62.1701 90.658 62.3108 90.4047C62.7767 89.5661 63.2428 88.7279 63.7087 87.8894C64.0046 87.3571 64.3081 86.8022 64.4084 86.1548C64.5162 85.4586 64.3761 84.7418 64.2369 84.0556C64.0603 83.185 63.8836 82.3141 63.707 81.4435C63.643 81.1275 63.5794 80.7863 63.6668 80.4804C63.7485 80.1938 63.9458 79.9978 64.1335 79.8182C64.984 79.0043 65.8345 78.1903 66.685 77.3767C66.8736 77.196 67.0707 77.0025 67.1647 76.7206C67.2582 76.4405 67.2346 76.1189 67.2075 75.8147C66.9993 73.4839 66.6829 71.1702 66.3651 68.7527C66.4547 71.2179 66.5443 73.6829 66.6339 76.1481C66.6418 76.3667 66.6488 76.5943 66.5832 76.7952C66.5006 77.0494 66.3177 77.2168 66.1422 77.3674C65.3372 78.0576 64.4978 78.6778 63.6314 79.2223C63.5169 79.2943 63.3969 79.3703 63.323 79.5062C63.2448 79.6502 63.2313 79.8376 63.2264 80.0148C63.1869 81.4684 63.5488 82.8806 63.7645 84.3069C63.8114 84.618 63.8519 84.939 63.809 85.2512C63.7627 85.5884 63.6233 85.8894 63.4863 86.1811ZM47.0285 71.4105C48.0971 69.7236 49.1654 68.0368 50.234 66.3496C49.0013 67.7644 47.7435 69.283 46.508 70.8328C46.3958 70.9733 46.2796 71.1234 46.2357 71.3191C46.1852 71.5444 46.24 71.7847 46.2947 72.0082L46.622 73.3489C46.7136 73.7237 46.806 74.1065 46.8036 74.5C46.7992 75.2052 46.4962 75.8344 46.3104 76.4986L46.518 76.5622C46.74 76.1502 46.9621 75.7381 47.1841 75.3258C47.2599 75.1853 47.3373 75.0401 47.3681 74.8721C47.4102 74.642 47.3598 74.4017 47.3095 74.1744C47.1686 73.5366 47.0274 72.8984 46.8864 72.2606C46.8556 72.1218 46.8248 71.9766 46.8436 71.8341C46.865 71.6719 46.9483 71.5371 47.0285 71.4105Z" fill="#C0DBF9"/>
<path d="M59.09 60.1793C57.7408 60.6533 56.3151 60.5859 54.9284 60.369C54.7195 60.3352 54.5095 60.2999 54.3006 60.2565C54.1924 61.0199 54.0687 61.7864 53.8633 62.5061C53.7855 62.7776 53.697 63.0427 53.5936 63.2966C55.3593 63.4733 57.1785 63.2292 58.7803 62.2328C60.3166 61.2798 61.6292 59.575 62.1771 57.4654C61.4691 58.8331 60.3093 59.752 59.09 60.1793ZM68.6352 50.2068C68.504 49.8115 68.2197 49.527 67.9072 49.4027C67.595 49.2783 67.2576 49.3012 66.9398 49.3992C66.3435 49.5834 65.7666 50.0821 65.5553 50.8426C65.569 50.864 65.6639 50.9851 65.76 50.995C65.8562 51.0048 65.9466 50.9392 66.029 50.8727C66.2659 50.6821 66.494 50.4679 66.7497 50.3259C67.0054 50.1839 67.2987 50.1194 67.5602 50.2412C67.7844 50.3453 67.961 50.5722 68.1511 50.7605C68.2499 50.8582 68.3707 50.951 68.4903 50.9103C68.5917 50.8756 68.6642 50.7469 68.6834 50.6107C68.7033 50.4748 68.6771 50.3334 68.6352 50.2068Z" fill="#F8A3A8"/>
<path d="M52.4752 43.4788C52.3414 43.3868 52.1777 43.4166 52.0357 43.4837C51.5539 43.7115 51.2101 44.3748 51.223 45.0517C51.2254 45.1795 51.2396 45.3085 51.2785 45.4256C51.3414 45.6161 51.4706 45.7665 51.6216 45.8246C51.7726 45.883 51.9424 45.8483 52.0731 45.7324C52.3912 45.4502 52.7136 44.8606 52.721 44.1959C52.7238 43.9191 52.6607 43.6063 52.4752 43.4788ZM59.1048 44.7551C58.9684 44.67 58.8056 44.7085 58.6658 44.7828C58.1909 45.0355 57.8673 45.7162 57.9003 46.3919C57.9066 46.5194 57.9245 46.6475 57.9667 46.7626C58.0353 46.9497 58.1688 47.0931 58.3214 47.1437C58.4739 47.194 58.6426 47.1506 58.7698 47.028C59.0792 46.7296 59.3838 46.1236 59.3716 45.4588C59.3666 45.1824 59.294 44.8727 59.1048 44.7551Z" fill="black"/>
<path d="M53.6356 39.5374C53.3644 39.3625 53.0593 39.2977 52.758 39.2804C52.4466 39.2625 52.1336 39.2928 51.8277 39.3709C51.6243 39.4229 51.4186 39.499 51.2512 39.6603C51.0839 39.822 50.9595 40.0836 50.9731 40.3574C50.9759 40.4159 50.9862 40.4769 51.0157 40.5202C51.062 40.5882 51.1402 40.5937 51.2093 40.5864C51.4787 40.5587 51.7329 40.4144 51.9971 40.3404C52.5128 40.1961 53.0698 40.3314 53.5132 40.7088C53.7381 40.9002 53.9714 41.1636 54.2348 41.1034C54.3053 40.9317 54.3088 40.6284 54.2435 40.3843C54.1428 40.0079 53.9068 39.7124 53.6356 39.5374ZM61.1397 42.5104C61.1179 41.7534 60.6087 41.1662 60.0742 40.895C59.3819 40.5434 58.5814 40.5697 57.9101 40.9869C57.7926 41.0601 57.6754 41.1485 57.5974 41.2859C57.5194 41.4232 57.489 41.6204 57.5542 41.769C57.6193 41.9177 57.7952 41.9726 57.8385 41.9021C58.4967 41.669 59.2368 41.5849 59.8264 42.0368C60.1063 42.2513 60.3307 42.5711 60.5932 42.8212C60.7175 42.9398 60.8873 43.0436 61.0165 42.9343C61.1177 42.849 61.1443 42.6692 61.1397 42.5104Z" fill="#3F2532"/>
<path d="M51.9844 96.5922C51.7368 96.4988 51.468 96.4161 51.1387 96.3317C50.7698 96.2386 50.3916 96.164 50.0258 96.0917C49.6637 96.0203 49.2893 95.9462 48.9248 95.8546C47.6141 95.5258 46.3469 94.9498 45.1583 94.1426C44.8406 93.9271 44.4831 93.6623 44.2637 93.2427C44.095 92.9209 44.043 92.5115 44.1223 92.1877C44.6328 92.7862 45.2964 93.2714 46.1 93.6282C46.5713 93.8375 47.0602 93.9939 47.5529 94.0925C47.556 94.0931 47.559 94.0934 47.5621 94.0934C47.5916 94.0934 47.6176 94.0648 47.622 94.0252C47.627 93.9812 47.6043 93.9402 47.5711 93.9338C47.0853 93.8364 46.6032 93.6822 46.1386 93.4758C45.3168 93.1109 44.6435 92.6115 44.1374 91.9922C44.0629 91.9011 43.9883 91.8019 43.9101 91.6897C43.6887 91.3723 43.5937 91.0953 43.6197 90.8423C43.6365 90.6751 43.7062 90.5155 43.836 90.3444C44.0327 90.6107 44.2582 90.8287 44.4374 90.9894C45.5062 91.9462 46.7459 92.5774 48.0223 92.8151C48.0252 92.8157 48.028 92.816 48.0308 92.816C48.0608 92.816 48.0866 92.7871 48.0909 92.7469C48.0955 92.7029 48.0726 92.6624 48.0394 92.6561C46.7811 92.4219 45.5591 91.7996 44.5056 90.8564C44.3185 90.6884 44.0786 90.4597 43.8808 90.1772C43.7987 90.0607 43.7259 89.9367 43.6643 89.8083C43.5926 89.6582 43.5618 89.5426 43.5644 89.4341C43.571 89.2445 43.6787 89.0843 43.8902 88.9458C44.2613 89.4252 44.7405 89.7395 45.1636 89.9829C46.3283 90.6581 47.5577 91.1201 48.8178 91.3564C48.8206 91.3569 48.8234 91.3572 48.8263 91.3572C48.856 91.3572 48.882 91.3283 48.8864 91.2881C48.891 91.2442 48.868 91.2034 48.8348 91.1973C47.5857 90.9634 46.367 90.5051 45.2121 89.8358C44.7875 89.5914 44.3046 89.2763 43.9435 88.7922C43.9169 88.757 43.8913 88.72 43.8647 88.6815C43.7698 88.5398 43.6857 88.305 43.7086 88.1298C43.7182 88.0564 43.7458 88.004 43.7932 87.9693C43.852 87.9254 43.9302 87.9303 44.0124 87.9393C44.7748 88.0194 45.5488 88.1717 46.2973 88.3192C47.589 88.5734 48.9246 88.8368 50.2434 88.7367C50.3667 88.7301 50.4871 88.7162 50.5987 88.7026C50.6322 88.6986 50.6566 88.6592 50.6536 88.6153C50.6503 88.571 50.621 88.5401 50.5876 88.5427C50.4774 88.5563 50.359 88.5696 50.2375 88.5763C48.9303 88.6751 47.601 88.4137 46.3154 88.1605C45.5648 88.0127 44.7886 87.86 44.0224 87.7794C43.925 87.7687 43.8225 87.7632 43.7342 87.8294C43.6551 87.8869 43.6048 87.9815 43.5891 88.1029C43.5583 88.3386 43.6634 88.6234 43.7766 88.7922C43.7847 88.8038 43.793 88.8148 43.8009 88.8264C43.5723 88.988 43.4512 89.1895 43.4429 89.4284C43.4383 89.6146 43.5085 89.7837 43.5616 89.8947C43.6169 90.0098 43.682 90.1206 43.7528 90.2267C43.647 90.3643 43.5253 90.563 43.4991 90.8212C43.4678 91.1245 43.5731 91.4443 43.8207 91.799C43.8911 91.9 43.9582 91.989 44.0253 92.0729C43.9108 92.4531 43.9628 92.951 44.1638 93.3344C44.3992 93.7843 44.772 94.0613 45.1028 94.2857C46.3017 95.0999 47.58 95.6808 48.9021 96.0125C49.2692 96.1047 49.6446 96.179 50.0078 96.2507C50.3723 96.3227 50.7495 96.3973 51.1158 96.4898C51.4414 96.5731 51.7067 96.6546 51.9512 96.7469C52.9238 97.11 53.709 97.7106 54.2221 98.4838C54.2341 98.5017 54.2509 98.5109 54.2678 98.5109C54.282 98.5109 54.2964 98.5043 54.308 98.491C54.3331 98.4615 54.3357 98.4109 54.3134 98.3777C53.7848 97.5811 52.9793 96.9637 51.9844 96.5922ZM35.4868 63.2441C35.2932 62.8233 35.0382 62.4214 34.729 62.0502C34.6366 61.9389 34.5365 61.827 34.4316 61.7185C34.3223 61.6055 34.1914 61.478 34.0494 61.3883C33.9598 61.3299 33.8678 61.2889 33.7764 61.2657C33.7434 61.2574 33.7118 61.286 33.7056 61.3296C33.6993 61.3733 33.7209 61.4152 33.7539 61.4236C33.8346 61.4438 33.9161 61.4803 33.9965 61.5329C34.1285 61.6162 34.2528 61.7376 34.3568 61.8449C34.4593 61.951 34.557 62.06 34.6475 62.169C34.9482 62.5302 35.1958 62.9199 35.3833 63.3276C35.5041 63.5902 35.6007 63.8605 35.6704 64.1312C35.7563 64.4648 35.8457 64.937 35.6313 65.1819C35.3902 65.4566 35.0032 65.2062 34.8903 65.1226C34.8804 65.1154 34.8717 65.1082 34.8605 65.0989C34.7524 65.0174 34.6468 64.9225 34.5461 64.8161C34.4121 64.6776 34.2771 64.5143 34.1444 64.3304C34.0212 64.1609 33.9017 63.9793 33.7889 63.79C33.6431 63.5459 33.5107 63.29 33.3953 63.0295C33.3785 62.9913 33.3414 62.9783 33.3123 63.0009C33.2834 63.0234 33.2736 63.0726 33.2907 63.1108C33.4089 63.3776 33.5446 63.6396 33.6936 63.8894C33.8088 64.0829 33.9312 64.2688 34.0568 64.4414C34.1934 64.6305 34.3328 64.7991 34.4709 64.9419C34.5625 65.0385 34.6586 65.1246 34.7557 65.201C34.7557 65.212 34.7572 65.2232 34.7611 65.2342C34.9737 65.8429 35.0633 66.5177 35.0205 67.1862C35.0052 67.428 34.9353 68.0068 34.6186 68.1673C34.4849 68.2347 34.3326 68.2162 34.1656 68.1115C34.0516 68.041 33.9316 67.9302 33.8094 67.783C33.6501 67.5879 33.4989 67.3684 33.3595 67.1307C33.1305 66.7401 32.9238 66.2815 32.7448 65.7671C32.679 65.5821 32.6185 65.395 32.5641 65.2105C32.5573 65.188 32.5503 65.1654 32.5446 65.1429C32.5341 65.1009 32.4998 65.0781 32.4679 65.092C32.436 65.1061 32.419 65.1515 32.4295 65.1935C32.436 65.2192 32.4437 65.2449 32.4511 65.2698C32.5062 65.4569 32.568 65.6471 32.6346 65.8348C32.8173 66.3596 33.0289 66.8289 33.2636 67.229C33.4069 67.4737 33.5627 67.6995 33.7273 67.901C33.849 68.0476 33.9692 68.1595 34.0857 68.237C34.1748 68.5204 34.2238 68.8318 34.2259 69.1391C34.2275 69.3861 34.1888 69.5549 34.1079 69.655C34.0221 69.7611 33.8999 69.7874 33.7441 69.7336C33.6184 69.6917 33.505 69.6116 33.4323 69.5523C33.1224 69.2964 32.8383 68.9914 32.5879 68.6456C32.3101 68.2621 32.0757 67.8357 31.8901 67.3762C31.879 67.3499 31.8683 67.3227 31.858 67.2961L31.8466 67.2675C31.7826 67.0981 31.735 66.9457 31.7009 66.802C31.6908 66.7595 31.6567 66.736 31.6248 66.7493C31.5929 66.7627 31.575 66.8078 31.5851 66.85C31.6211 67.0021 31.6712 67.162 31.7385 67.3406L31.7501 67.3701C31.7612 67.3985 31.7723 67.4274 31.7837 67.4537C31.9738 67.9244 32.2149 68.3628 32.5003 68.7569C32.7577 69.1122 33.0496 69.4257 33.3682 69.6891C33.4484 69.7547 33.5739 69.8426 33.7139 69.8895C33.7756 69.9108 33.8339 69.9216 33.889 69.9216C34.0085 69.9216 34.111 69.8712 34.191 69.7726C34.2981 69.6399 34.3492 69.4323 34.3474 69.138C34.3455 68.8613 34.3066 68.5825 34.238 68.32C34.3116 68.3506 34.3835 68.3677 34.4526 68.3677C34.5251 68.3677 34.5948 68.3509 34.6617 68.3171C35.0292 68.1312 35.1199 67.537 35.1414 67.1996C35.1827 66.5591 35.1055 65.9134 34.9204 65.3204C35.0725 65.4155 35.2194 65.4661 35.3509 65.4661C35.4914 65.4661 35.6149 65.4118 35.7106 65.3028C35.9807 64.9942 35.8828 64.4564 35.7853 64.0785C35.7126 63.7978 35.6123 63.5164 35.4868 63.2441ZM71.1543 93.6843C71.1458 93.6412 71.1126 93.6152 71.0802 93.627C69.9105 94.033 68.5904 94.0466 67.156 93.6698C68.0097 90.8935 68.7435 88.011 69.3364 85.0999C69.3451 85.0571 69.3259 85.0128 69.2936 85.0016C69.2612 84.99 69.2278 85.0151 69.2191 85.0582C68.6258 87.9728 67.8906 90.8588 67.0351 93.6374C66.2386 93.4177 65.415 93.0852 64.519 92.6208C63.6165 92.1524 62.7214 91.6001 61.8556 91.0661C60.7781 90.4013 59.664 89.714 58.5249 89.1814C58.4597 89.1496 58.3935 89.1196 58.3273 89.0892L58.3135 89.0828C58.2819 89.0687 58.2473 89.0906 58.2364 89.1326C58.2255 89.1745 58.2423 89.2202 58.274 89.2346L58.2878 89.241C58.3533 89.2708 58.4187 89.3008 58.4838 89.3324C59.6181 89.8627 60.7296 90.5482 61.8045 91.2115C62.6718 91.7467 63.5686 92.2998 64.4749 92.7703C65.396 93.2477 66.2416 93.5874 67.0605 93.8092C67.7847 94.0052 68.4804 94.1035 69.1439 94.1035C69.8368 94.1035 70.4944 93.9963 71.1113 93.7823C71.1434 93.7713 71.1626 93.7273 71.1543 93.6843ZM59.3153 35.1737C59.1328 36.4121 59.2646 37.7089 59.6903 38.8383C60.1859 40.1536 61.0357 41.1482 61.8576 42.1099C62.5733 42.9476 63.3134 43.8139 63.816 44.8877C64.4231 46.1846 64.6643 47.7913 64.4779 49.2963C64.4725 49.34 64.495 49.3813 64.528 49.3886C64.5312 49.3891 64.5345 49.3897 64.5378 49.3897C64.5671 49.3897 64.5927 49.3617 64.5977 49.3223C64.7887 47.7798 64.5413 46.1325 63.9189 44.8033C63.4069 43.7092 62.6602 42.8351 61.9378 41.9897C61.1247 41.0381 60.284 40.0538 59.7986 38.7666C59.3727 37.6363 59.2491 36.3334 59.4503 35.0979C59.451 35.0939 59.4503 35.0898 59.4505 35.0858C59.4547 35.0837 59.4588 35.0814 59.463 35.0791C59.4945 35.0638 59.5106 35.0178 59.499 34.9759C59.4875 34.9343 59.4527 34.9131 59.421 34.9282C59.3942 34.9412 59.3677 34.9557 59.3413 34.9695C59.3288 34.969 59.3164 34.9716 59.3052 34.9814L59.2956 34.9909C59.2956 34.9909 59.2941 34.9924 59.2934 34.9929C59.2925 34.9938 59.2917 34.9944 59.2908 34.9953C59.2899 34.9961 59.2897 34.9964 59.2888 34.9973C57.9174 35.734 56.7323 37.1453 56.0367 38.8715C56.021 38.9106 56.0321 38.9594 56.0619 38.9802C56.071 38.9866 56.0809 38.9898 56.0903 38.9898C56.1119 38.9898 56.1329 38.9745 56.144 38.9473C56.7531 37.4354 57.7454 36.1709 58.911 35.4012C57.9412 36.5422 57.3343 38.1828 57.2659 39.9049C57.2642 39.9492 57.29 39.987 57.3234 39.9894C57.3245 39.9894 57.3256 39.9894 57.3267 39.9894C57.3588 39.9894 57.3857 39.9561 57.3872 39.9133C57.4602 38.0772 58.1988 36.2672 59.3153 35.1737ZM53.2789 49.9969C53.291 50.018 53.3091 50.029 53.3277 50.029C53.3403 50.029 53.353 50.0238 53.364 50.0128C53.3908 49.9862 53.3963 49.9359 53.3762 49.9003L52.9134 49.0838C52.8487 48.9696 52.7951 48.8661 52.7958 48.7559C52.7967 48.598 52.9114 48.4633 53.0036 48.3555C53.501 47.7728 53.9135 47.0855 54.23 46.3129C54.2459 46.2739 54.235 46.225 54.2055 46.2039C54.176 46.1825 54.1393 46.1973 54.1231 46.2363C53.8135 46.9924 53.4096 47.665 52.923 48.2352C52.8185 48.3575 52.6754 48.5252 52.6741 48.7548C52.6732 48.9282 52.7556 49.074 52.8159 49.1801L53.2789 49.9969ZM55.6845 52.6033C55.6548 52.5824 55.618 52.5981 55.6025 52.6371C55.4718 52.967 55.2144 53.2336 54.896 53.3686C54.6404 53.4771 54.3434 53.5109 53.961 53.4747C53.456 53.427 53.0547 53.283 52.7346 53.035C52.3432 52.7314 52.0725 52.2482 52.0108 51.7422C52.0054 51.6985 51.9743 51.6682 51.9411 51.6757C51.9079 51.6826 51.8854 51.724 51.8909 51.7676C51.9584 52.3205 52.2508 52.8459 52.6732 53.1735C53.0097 53.4346 53.4282 53.5855 53.9522 53.6349C54.053 53.6445 54.148 53.6494 54.2385 53.6494C54.5053 53.6494 54.7306 53.6075 54.933 53.5216C55.2813 53.3738 55.5645 53.0786 55.7098 52.7114C55.7258 52.6724 55.7142 52.6238 55.6845 52.6033Z" fill="black"/>
<path d="M61.7953 53.4693C63.0467 53.045 63.8012 51.3588 63.4806 49.703C63.16 48.0472 61.8856 47.0488 60.6342 47.473C59.3828 47.8973 58.6282 49.5835 58.9488 51.2393C59.2695 52.8952 60.5439 53.8935 61.7953 53.4693Z" fill="#F8A3A8"/>
<path d="M49.2039 51.7559C50.4956 51.7559 51.543 50.3703 51.543 48.6609C51.543 46.9515 50.4959 45.5659 49.2039 45.5659C49.1677 45.5659 49.1325 45.5708 49.0964 45.5731C48.9201 46.5554 48.7479 47.539 48.5759 48.523C48.4072 49.4856 48.2396 50.4579 48.1799 51.4405C48.4896 51.6405 48.8362 51.7559 49.2039 51.7559Z" fill="#F8A3A8"/>
<path d="M60.8474 51.5734C60.8625 51.5734 60.8775 51.5662 60.8891 51.5514C61.3644 50.9546 61.8919 50.4298 62.4573 49.9909C62.4861 49.9683 62.4959 49.9192 62.4789 49.881C62.4618 49.8429 62.4249 49.8298 62.3958 49.8524C61.8224 50.2974 61.2875 50.8297 60.8056 51.4349C60.7814 51.4655 60.7803 51.5164 60.8035 51.5485C60.8153 51.565 60.8314 51.5734 60.8474 51.5734Z" fill="#EE5952"/>
<path d="M61.682 49.3774C61.6671 49.3375 61.6306 49.3213 61.6007 49.3407C60.9298 49.7776 60.3114 50.34 59.7629 51.0131C59.7382 51.0432 59.7369 51.0941 59.7596 51.1267C59.7716 51.1438 59.7878 51.1525 59.8042 51.1525C59.819 51.1525 59.8337 51.1455 59.8455 51.1311C60.3854 50.4686 60.994 49.9149 61.6544 49.485C61.6844 49.4653 61.6966 49.4173 61.682 49.3774Z" fill="#EE5952"/>
<path d="M49.2669 49.6989C49.2811 49.6989 49.2954 49.6923 49.3069 49.6792C49.7274 49.1946 50.1904 48.7739 50.6834 48.4293C50.7131 48.4085 50.7245 48.3599 50.7088 48.3206C50.6933 48.2815 50.6563 48.2665 50.6266 48.287C50.1255 48.6378 49.6546 49.0651 49.2272 49.5578C49.2018 49.587 49.1992 49.6376 49.2213 49.6712C49.2333 49.6897 49.2501 49.6989 49.2669 49.6989Z" fill="#EE5952"/>
<path d="M50.168 47.5902C50.153 47.5506 50.1169 47.5347 50.0865 47.5543C49.5085 47.9374 48.974 48.4209 48.4939 48.9919C48.4784 49.0824 48.4635 49.1735 48.4482 49.264C48.9522 48.6354 49.5214 48.1083 50.1409 47.698C50.1711 47.6781 50.1831 47.6301 50.168 47.5902Z" fill="#EE5952"/>
<path d="M67.4321 77.1642C67.3327 77.1428 67.2394 77.233 67.2236 77.3643C66.8342 80.6027 66.1184 83.5508 65.0954 86.1268C64.7687 86.9491 64.3848 87.77 63.7913 88.2043C63.1855 88.6478 62.3523 88.6513 61.5621 88.2129C61.4694 88.1618 61.3626 88.2193 61.3237 88.3422C61.2848 88.4651 61.3285 88.6062 61.4214 88.6576C61.8578 88.8997 62.3086 89.0205 62.7375 89.0205C63.1851 89.0205 63.609 88.889 63.9678 88.6261C64.6453 88.1305 65.0651 87.2397 65.418 86.3509C66.4595 83.7283 67.188 80.7305 67.5836 77.44C67.5993 77.3087 67.5316 77.185 67.4321 77.1642ZM60.0331 87.065C59.4474 86.6429 59.0169 85.7442 58.9094 84.7192C58.8192 83.8576 58.9265 82.9011 59.2381 81.7948C59.9894 79.1275 61.4716 76.967 62.9613 75.0297C63.033 74.9366 63.0341 74.7839 62.9635 74.6888C62.8929 74.5937 62.7775 74.5925 62.7059 74.6859C61.1862 76.6622 59.6729 78.8707 58.8965 81.6265C58.5633 82.8091 58.4494 83.8425 58.5484 84.7851C58.6734 85.9761 59.1631 86.9867 59.8587 87.4881C59.8865 87.508 59.9164 87.5175 59.9457 87.5175C60.0104 87.5175 60.0729 87.4722 60.1058 87.3918C60.1539 87.2752 60.1214 87.1289 60.0331 87.065ZM66.1301 72.5332C66.0823 72.6989 66.145 72.8848 66.2702 72.9482C66.2989 72.9626 66.3281 72.9696 66.357 72.9696C66.4547 72.9696 66.5469 72.8912 66.5838 72.7631C66.6107 72.6703 67.244 70.4557 67.3353 67.8341C67.4498 64.5422 66.6411 62.1113 64.9929 60.7607C65.01 61.0372 65.029 61.313 65.05 61.5886C68.3071 64.8166 66.1537 72.452 66.1301 72.5332ZM46.4364 73.7367C46.1923 73.6881 45.9408 73.7118 45.707 73.8188C45.0774 74.1073 44.6279 74.9753 44.6522 75.8564L47.4766 77.0265C47.8763 76.321 47.8811 75.2688 47.4884 74.5567C47.3379 74.2837 47.1335 74.07 46.9034 73.9255C47.443 72.0891 50.3911 62.6211 54.0881 61.5487C54.1325 61.3228 54.1725 61.095 54.2089 60.866C50.076 61.7262 46.9731 71.8734 46.4364 73.7367Z" fill="#EE5952"/>
<path d="M45.8839 74.8085C45.5039 74.9881 45.239 75.5245 45.2672 76.0571L45.2652 76.151L46.9219 76.7484C47.1762 76.3338 47.1922 75.6933 46.959 75.2576C46.7256 74.8219 46.2637 74.6287 45.8839 74.8085ZM67.218 73.4927C67.0314 73.159 66.7961 72.8508 66.4974 72.7244C66.3184 72.6486 66.127 72.6426 65.939 72.6507C64.6294 72.7059 63.3427 73.4334 62.4072 74.6472C62.4072 74.8447 62.7964 75.1353 62.9843 75.4204C63.0287 75.4877 63.0857 75.5603 63.1526 75.5485C63.1922 75.5415 63.2249 75.5057 63.2553 75.4713C63.6956 74.9713 64.1347 74.4439 64.6689 74.1444C65.2032 73.8448 65.8652 73.8151 66.3269 74.2803C66.6407 74.5966 66.8219 75.0988 66.9032 75.6098C66.9844 76.1204 66.9766 76.6475 66.9788 77.1694C66.9792 77.2512 66.9847 77.3458 67.0351 77.3926C67.0603 77.416 67.092 77.4221 67.1223 77.4279C67.3066 77.462 67.4694 77.4921 67.6752 77.5303C67.8815 77.5687 67.855 74.6313 67.218 73.4927ZM60.4818 87.1035C60.4466 87.0847 60.4077 87.0821 60.3699 87.0764C60.3017 87.0662 60.2344 87.0448 60.1702 87.013C60.1186 86.9876 60.0572 86.9566 60.0126 86.9991C59.984 87.0263 59.9748 87.0723 59.958 87.1105C59.9438 87.1429 59.9246 87.1648 59.9073 87.194C59.8586 87.2759 59.8232 87.3664 59.767 87.4413C59.7563 87.4554 59.7447 87.4705 59.7414 87.4898C59.7366 87.5179 59.7504 87.5453 59.7644 87.567C59.8391 87.6833 59.9438 87.7602 60.0194 87.8753C60.0557 87.9305 60.0926 87.9996 60.1477 88.0039C60.1957 88.0077 60.2364 87.9594 60.2687 87.9123C60.3913 87.7333 60.4853 87.5199 60.5425 87.2906C60.5489 87.2652 60.5548 87.2389 60.5528 87.212C60.5491 87.1619 60.5172 87.1223 60.4818 87.1035ZM61.3506 87.8336C61.3139 87.779 61.2763 87.7107 61.2211 87.7073C61.173 87.7044 61.1328 87.7532 61.1009 87.8009C60.98 87.982 60.888 88.1968 60.8332 88.4272C60.8271 88.4527 60.8214 88.4793 60.8236 88.5059C60.8279 88.5559 60.8601 88.5949 60.8955 88.6131C60.9309 88.6314 60.9698 88.6334 61.0076 88.6383C61.0757 88.6476 61.1433 88.6678 61.208 88.6985C61.2597 88.723 61.3214 88.7531 61.3657 88.7097C61.3939 88.6823 61.4027 88.636 61.4193 88.5975C61.4332 88.5649 61.4523 88.5426 61.4693 88.5134C61.5172 88.431 61.5517 88.3396 61.6072 88.2639C61.6177 88.2494 61.6293 88.2344 61.6323 88.2147C61.6369 88.1867 61.6229 88.1595 61.6087 88.1378C61.5329 88.0227 61.4273 87.9475 61.3506 87.8336Z" fill="black"/>
</svg>
