<svg width="262" height="187" viewBox="0 0 262 187" fill="none" xmlns="http://www.w3.org/2000/svg">
<g clip-path="url(#clip0_258_5044)">
<path d="M131 187C203.349 187 262 184.561 262 181.553C262 178.545 203.349 176.107 131 176.107C58.6507 176.107 0 178.545 0 181.553C0 184.561 58.6507 187 131 187Z" fill="#C8CA9D"/>
<path d="M148.505 43.1441H147.096V15.8164C147.096 11.6216 144.742 7.59868 140.551 4.63252C136.361 1.66637 130.677 0 124.751 0H42.9554C37.0291 0 31.3456 1.66637 27.1551 4.63252C22.9645 7.59868 20.6104 11.6216 20.6104 15.8164V165.737C20.6104 169.932 22.9645 173.955 27.1551 176.921C31.3456 179.887 37.0291 181.554 42.9554 181.554H124.751C130.677 181.554 136.361 179.887 140.551 176.921C144.742 173.955 147.096 169.932 147.096 165.737V62.5963H148.505V43.1441Z" fill="#3F3D56"/>
<path d="M142.34 15.9272V165.627C142.34 168.76 140.581 171.764 137.452 173.98C134.322 176.195 130.078 177.439 125.652 177.439H43.4641C39.0384 177.439 34.7941 176.195 31.6646 173.98C28.5352 171.764 26.7771 168.76 26.7769 165.628V15.9272C26.777 12.7945 28.5351 9.7901 31.6646 7.57495C34.7942 5.3598 39.0387 4.11531 43.4644 4.11523H53.4351C52.9451 4.96738 52.7585 5.8917 52.8916 6.80688C53.0248 7.72207 53.4736 8.60007 54.1987 9.36364C54.9238 10.1272 55.9028 10.753 57.0497 11.1859C58.1967 11.6187 59.4763 11.8455 60.7761 11.8462H107.636C108.936 11.8455 110.215 11.6188 111.362 11.186C112.509 10.7531 113.489 10.1273 114.214 9.36376C114.939 8.60017 115.388 7.72216 115.521 6.80696C115.654 5.89175 115.467 4.9674 114.977 4.11523H125.652C130.078 4.11531 134.322 5.3598 137.452 7.57495C140.581 9.7901 142.34 12.7945 142.34 15.9272Z" fill="white"/>
<path d="M64.7442 129.269H63.0156L63.5927 105.371H64.1698L64.7442 129.269Z" fill="#C8CA9D"/>
<path d="M66.1844 90.3253L68.9745 87.2734C68.1471 85.6557 67.1914 84.0722 66.1121 82.5307L64.3081 83.5622L65.7366 81.9997C64.375 80.1029 63.3039 78.9077 63.3039 78.9077C63.3039 78.9077 57.7092 85.1485 55.8391 91.7572L59.4193 95.6737L55.4566 93.4077C55.3155 94.1775 55.2429 94.9528 55.2393 95.729C55.2393 103.555 58.8503 109.9 63.3047 109.9C67.7591 109.9 71.3702 103.554 71.3702 95.729C71.3702 93.3029 70.5945 90.7646 69.5235 88.4164L66.1844 90.3253Z" fill="#CCCCCC"/>
<path d="M109.742 129.269H108.013L108.59 105.371H109.167L109.742 129.269Z" fill="#C8CA9D"/>
<path d="M111.182 90.3253L113.972 87.2734C113.145 85.6557 112.189 84.0722 111.11 82.5307L109.306 83.5622L110.734 81.9997C109.373 80.1029 108.302 78.9077 108.302 78.9077C108.302 78.9077 102.706 85.149 100.838 91.7572L104.415 95.6732L100.453 93.4072C100.312 94.177 100.239 94.9522 100.235 95.7285C100.235 103.555 103.846 109.899 108.301 109.899C112.755 109.899 116.366 103.554 116.366 95.7285C116.366 93.3023 115.591 90.764 114.52 88.4158L111.182 90.3253Z" fill="#CCCCCC"/>
<path d="M63.4289 50.0522C72.2001 50.0522 79.3105 45.0192 79.3105 38.8108C79.3105 32.6023 72.2001 27.5693 63.4289 27.5693C54.6578 27.5693 47.5474 32.6023 47.5474 38.8108C47.5474 45.0192 54.6578 50.0522 63.4289 50.0522Z" fill="#C8CA9D"/>
<path d="M85.4261 125.789H81.8623L83.0504 76.5142H84.238L85.4261 125.789Z" fill="#C8CA9D"/>
<path d="M88.3958 45.4917L94.1487 39.1994C92.4426 35.8637 90.4721 32.5987 88.2466 29.4201L84.5266 31.5466L87.4721 28.3245C84.6636 24.4135 82.4564 21.9492 82.4564 21.9492C82.4564 21.9492 70.9192 34.818 67.0646 48.4434L74.4448 56.519L66.2724 51.8468C65.9814 53.434 65.8317 55.0326 65.8242 56.6331C65.8242 72.7701 73.2699 85.8516 82.4545 85.8516C91.6391 85.8516 99.0848 72.7701 99.0848 56.6331C99.0848 51.6306 97.4858 46.3969 95.2802 41.5553L88.3958 45.4917Z" fill="#CCCCCC"/>
<path d="M142.34 132.892V166.39C142.34 173.184 134.869 178.692 125.652 178.692H43.4643C34.2482 178.692 26.7768 173.184 26.7764 166.39V136.158C41.0259 123.827 61.6285 116.457 83.5861 115.836C105.544 115.215 126.852 121.401 142.34 132.892Z" fill="#C8CA9D"/>
<path opacity="0.2" d="M79.4453 167C87.8472 167 94.6582 158.941 94.6582 149C94.6582 139.059 87.8472 131 79.4453 131C71.0435 131 64.2324 139.059 64.2324 149C64.2324 158.941 71.0435 167 79.4453 167Z" fill="#5C81F5"/>
<path d="M79.4451 163C85.9798 163 91.2773 156.732 91.2773 149C91.2773 141.268 85.9798 135 79.4451 135C72.9103 135 67.6128 141.268 67.6128 149C67.6128 156.732 72.9103 163 79.4451 163Z" fill="#5C81F5"/>
<path d="M76.2435 155L70.1484 149.524L73.6929 147.598L76.5785 150.191L86.3271 143L89.5871 145.158L76.2435 155Z" fill="white"/>
<path d="M188.471 104C195.472 104 201.148 98.4036 201.148 91.5C201.148 84.5964 195.472 79 188.471 79C181.469 79 175.793 84.5964 175.793 91.5C175.793 98.4036 181.469 104 188.471 104Z" fill="#2F2E41"/>
<path d="M193.542 162.599L194.53 167L212.981 165.495L211.523 159L193.542 162.599Z" fill="#FFB8B8"/>
<path d="M192.427 177.011L189.354 162.59L194.957 161.409L196.842 170.258C196.998 170.99 197.008 171.745 196.87 172.481C196.733 173.216 196.451 173.917 196.041 174.544C195.631 175.171 195.101 175.712 194.481 176.135C193.86 176.558 193.163 176.856 192.427 177.011Z" fill="#2F2E41"/>
<path d="M182.555 162.815L180.496 167L163.116 161.176L166.155 155L182.555 162.815Z" fill="#FFB8B8"/>
<path d="M177.672 169.083L181.636 160.942L186.791 163.424L180.331 176.692C178.964 176.033 177.916 174.862 177.417 173.435C176.919 172.008 177.01 170.443 177.672 169.083Z" fill="#2F2E41"/>
<path d="M147.97 153.93C148.568 154.041 149.183 154.02 149.772 153.869C150.361 153.717 150.91 153.44 151.38 153.055C151.849 152.671 152.228 152.189 152.489 151.643C152.751 151.097 152.889 150.501 152.894 149.897L181.71 123.506L174.553 118L148.464 145.688C147.441 145.748 146.475 146.178 145.75 146.897C145.025 147.616 144.591 148.575 144.53 149.591C144.469 150.607 144.786 151.61 145.42 152.41C146.054 153.21 146.961 153.751 147.97 153.93L147.97 153.93Z" fill="#FFB8B8"/>
<path d="M187.203 105C192.571 105 196.923 100.747 196.923 95.5C196.923 90.2533 192.571 86 187.203 86C181.835 86 177.484 90.2533 177.484 95.5C177.484 100.747 181.835 105 187.203 105Z" fill="#FFB8B8"/>
<path d="M195.546 151C189 151 181.116 149.621 176.252 143.975L176.143 143.848L176.257 143.723C176.295 143.682 179.872 139.59 176.299 132.293L171.386 133.805L166.497 127.346L169.206 119.213L180.291 110.278C181.879 109.004 183.813 108.237 185.842 108.076C189.514 107.721 193.091 106.701 196.399 105.067C197.912 104.331 199.579 103.966 201.262 104.002L201.48 104.009C201.992 104.023 202.495 104.141 202.96 104.356C203.424 104.571 203.841 104.878 204.183 105.259C204.526 105.64 204.787 106.086 204.952 106.571C205.117 107.056 205.182 107.569 205.143 108.08C204.391 117.825 203.064 141.366 206.964 149.471L207.064 149.681L206.839 149.738C203.133 150.572 199.346 150.995 195.546 151L195.546 151Z" fill="#5C81F5"/>
<path d="M177.409 143.344C177.409 143.344 152.44 141.051 149.751 148.311C147.062 155.572 150.135 159.011 154.745 160.54C159.355 162.068 170.495 163.979 170.495 163.979L175.489 157.865L188.55 158.629C188.55 158.629 203.103 167.026 207.127 176.006C207.99 177.95 209.367 179.624 211.11 180.851C212.854 182.078 214.899 182.812 217.029 182.975C220.255 183.198 223.122 181.986 223.122 176.971C223.122 165.507 206.988 149.075 206.988 149.075L177.409 143.344Z" fill="#2F2E41"/>
<path d="M177.484 89.7325C181.191 92.1324 185.371 93.5928 189.698 94L188.41 92.3642C189.348 92.7316 190.334 92.9391 191.333 92.979C191.833 92.9944 192.329 92.8853 192.783 92.6605C193.236 92.4356 193.633 92.1013 193.942 91.6843C194.194 91.2513 194.345 90.7599 194.379 90.2521C194.414 89.7443 194.332 89.2351 194.141 88.768C193.749 87.8363 193.138 87.0266 192.368 86.4158C191.001 85.2696 189.389 84.4997 187.674 84.1747C185.958 83.8496 184.194 83.9796 182.538 84.553C181.401 84.9127 180.383 85.6047 179.6 86.5498C179.216 87.0258 178.949 87.5955 178.823 88.208C178.697 88.8204 178.717 89.4563 178.88 90.0587" fill="#2F2E41"/>
<path d="M188.471 81.9394C190.156 78.1032 192.678 74.6759 195.86 71.8986C197.904 70.1194 200.291 68.5889 202.983 68.1271C205.676 67.6653 208.711 68.4564 210.363 70.5919C211.714 72.3381 211.966 74.6776 211.818 76.8641C211.669 79.0506 211.17 81.2175 211.218 83.407C211.267 85.6426 211.884 87.8308 213.014 89.773C214.144 91.7153 215.752 93.3501 217.69 94.529C219.628 95.7079 221.836 96.3937 224.113 96.5239C226.39 96.6542 228.664 96.2249 230.729 95.275C228.403 96.5352 226.592 98.5306 224.435 100.048C222.278 101.565 219.429 102.607 216.977 101.604C214.383 100.544 213.193 97.6595 212.264 95.0585L208.12 83.4596C207.415 81.4878 206.676 79.4576 205.238 77.9157C203.801 76.3739 201.468 75.4336 199.489 76.2088C197.989 76.7963 197.013 78.1993 196.157 79.5401C195.3 80.8809 194.397 82.3111 192.952 83.0148C191.506 83.7186 189.36 83.2855 188.888 81.7713" fill="#2F2E41"/>
<path d="M191.828 151C191.667 151 191.506 150.991 191.345 150.973C190.281 150.851 189.303 150.317 188.613 149.482C187.922 148.647 187.571 147.573 187.632 146.482C187.693 145.391 188.161 144.366 188.941 143.616C189.72 142.866 190.751 142.45 191.822 142.452C192.009 142.453 192.195 142.467 192.38 142.494L205.165 128.606L203.83 124.066L210.531 121L212.41 125.686C213.04 127.273 213.151 129.025 212.728 130.682C212.305 132.339 211.369 133.813 210.06 134.884L195.987 146.307C196.002 146.446 196.01 146.586 196.01 146.726C196.01 147.327 195.885 147.922 195.645 148.471C195.405 149.02 195.054 149.511 194.615 149.912C193.851 150.616 192.857 151.003 191.828 151Z" fill="#FFB8B8"/>
<path d="M201.994 105.312C202.453 105.114 202.949 105.008 203.451 105C203.953 104.993 204.452 105.084 204.917 105.269C205.383 105.454 205.805 105.728 206.158 106.075C206.512 106.422 206.789 106.835 206.974 107.289L213.826 124.099L203.177 131L201.994 105.312Z" fill="#5C81F5"/>
</g>
<defs>
<clipPath id="clip0_258_5044">
<rect width="262" height="187" fill="white"/>
</clipPath>
</defs>
</svg>
