<svg width="350" height="331" viewBox="0 0 350 331" fill="none" xmlns="http://www.w3.org/2000/svg">
<ellipse cx="175" cy="165.5" rx="175" ry="165" transform="rotate(-180 175 165.5)" fill="url(#paint0_linear_511_10895)"/>
<path d="M63.3735 64.0099C63.3735 64.0099 63.3735 46.3835 72.7893 46.4863C80.4442 46.5699 85.4704 60.1661 90.3365 60.495C100.035 61.1502 97.4655 55.2477 103.635 55.2477C108.89 55.2477 116.496 64.0099 116.496 64.0099H63.3735Z" fill="#CDEAF8"/>
<path d="M220.489 107.26C220.489 107.26 220.489 85.3031 232.217 85.4312C241.752 85.5354 248.013 102.472 254.075 102.882C266.156 103.698 262.955 96.3452 270.64 96.3452C277.187 96.3452 286.661 107.26 286.661 107.26H220.489Z" fill="#CDEAF8"/>
<path d="M264.906 23.3019C264.27 20.3202 261.051 14.5281 256.923 15.2765C252.986 15.9898 251.966 19.735 249.488 19.3786C245.333 18.781 245.133 3.48601 234.014 3.50588C224.463 3.52301 218.202 17.1768 214.495 18.487C210.789 19.7973 210.318 16.4997 205.156 15.4882C199.589 14.3979 194.304 20.558 193.011 23.3019H264.906Z" fill="#CDEAF8"/>
<path d="M70.7623 162.961C67.1129 163.534 66.3342 164.474 65.8605 168.878C65.8309 169.15 65.5026 169.15 65.4731 168.878C64.9982 164.475 64.2189 163.535 60.569 162.964C60.3429 162.929 60.3429 162.532 60.569 162.497C64.2184 161.924 64.9971 160.984 65.4708 156.58C65.5003 156.307 65.8286 156.307 65.8582 156.58C66.333 160.983 67.1123 161.923 70.7623 162.494C70.9884 162.529 70.9884 162.925 70.7623 162.961Z" fill="#FFF07A"/>
<path d="M217.776 85.5848C214.127 86.1577 213.347 87.098 212.874 91.5016C212.845 91.7744 212.516 91.7744 212.487 91.5016C212.012 87.0986 211.233 86.1591 207.583 85.5876C207.357 85.5519 207.357 85.1558 207.583 85.1209C211.232 84.548 212.011 83.6078 212.484 79.2041C212.514 78.9313 212.842 78.9313 212.872 79.2041C213.347 83.6071 214.126 84.5466 217.776 85.1181C218.002 85.1531 218.002 85.5492 217.776 85.5848Z" fill="#FFF07A"/>
<path opacity="0.5" d="M102.52 29.7654C100.443 29.7654 98.7524 27.7267 98.7524 25.2199C98.7524 22.7131 100.442 20.6743 102.52 20.6743C104.597 20.6743 106.288 22.7131 106.288 25.2199C106.288 27.7267 104.597 29.7654 102.52 29.7654ZM102.52 21.4741C100.808 21.4741 99.4153 23.1544 99.4153 25.2199C99.4153 27.2853 100.808 28.9657 102.52 28.9657C104.232 28.9657 105.625 27.2853 105.625 25.2199C105.625 23.1544 104.232 21.4741 102.52 21.4741Z" fill="#AD70F8"/>
<path opacity="0.5" d="M283.017 159.315C280.94 159.315 279.25 157.276 279.25 154.77C279.25 152.264 280.939 150.224 283.017 150.224C285.095 150.224 286.785 152.263 286.785 154.77C286.785 157.276 285.095 159.315 283.017 159.315ZM283.017 151.024C281.305 151.024 279.912 152.704 279.912 154.77C279.912 156.835 281.305 158.515 283.017 158.515C284.729 158.515 286.122 156.835 286.122 154.77C286.122 152.704 284.729 151.024 283.017 151.024Z" fill="#AD70F8"/>
<path opacity="0.5" d="M293.956 52.0569C291.878 52.0569 290.188 50.0182 290.188 47.5114C290.188 45.0053 291.878 42.9658 293.956 42.9658C296.033 42.9658 297.723 45.0046 297.723 47.5114C297.723 50.0182 296.033 52.0569 293.956 52.0569ZM293.956 43.7656C292.244 43.7656 290.851 45.4459 290.851 47.5114C290.851 49.5768 292.244 51.2572 293.956 51.2572C295.667 51.2572 297.06 49.5768 297.06 47.5114C297.06 45.4459 295.667 43.7656 293.956 43.7656Z" fill="#AD70F8"/>
<path d="M175.437 247.099C167.806 199.77 198.779 156.31 238.731 157.471C252.864 157.883 268.832 161.219 279.523 172.163C302.78 195.968 305.475 264.204 280.616 270.922C244.954 280.562 205.286 273.163 193.315 271.985C189.2 271.58 177.557 260.243 175.437 247.099Z" fill="#AACBFF"/>
<path d="M280.894 174.755C290.718 198.767 291.546 227.573 283.714 252.563C281.511 259.591 278.627 266.283 275.101 272.476C274.836 272.942 274.201 272.5 274.469 272.03C286.894 250.21 291.086 222.203 286.408 196.404C285.077 189.065 283.018 181.938 280.262 175.2C280.054 174.693 280.685 174.245 280.894 174.755Z" fill="#A82C6D"/>
<path d="M262.7 168.517C262.7 168.517 282.349 177.787 278.593 204.04C276.352 219.701 254.546 215.581 236.137 214.21C217.728 212.838 205.835 198.375 212.589 190.244C219.342 182.113 262.7 168.517 262.7 168.517Z" fill="#AACBFF"/>
<path d="M237.519 202.594C237.519 202.594 237.786 202.735 239.956 203.76C242.127 204.784 239.356 209.174 238.411 210.921C238.075 211.543 237.724 210.289 237.843 208.447C237.963 206.605 236.798 209.031 235.041 210.818C232.719 213.18 231.914 213.61 231 214.478C229.747 215.668 229.965 213.929 232.939 209.937C234.364 208.024 233.969 204.388 233.969 204.388L237.519 202.594Z" fill="#D6A184"/>
<path d="M248.949 162.015C251.417 156.302 245.397 148.292 240.265 153.888C236.379 158.124 233.986 165.778 231.371 175.389C226.429 193.557 233.009 205.239 233.009 205.239L238.814 203.1C238.814 203.1 235.518 192.244 238.179 181.625C239.635 175.811 246.619 167.41 248.949 162.015Z" fill="#70D2AF"/>
<path d="M238.022 181.639C237.148 180.838 236.089 180.558 235.01 180.761C234.762 180.807 234.826 181.273 235.076 181.226C236.055 181.042 236.999 181.295 237.792 182.02C237.993 182.205 238.223 181.822 238.022 181.639Z" fill="#4687BD"/>
<path d="M231.202 177.189C233.433 179.719 232.588 184.058 229.726 185.241C229.488 185.339 229.651 185.768 229.888 185.67C233.066 184.357 233.853 179.553 231.433 176.808C231.249 176.6 231.021 176.984 231.202 177.189Z" fill="#4687BD"/>
<path d="M238.008 200.657C235.94 200.937 233.864 201.397 231.847 202.021C231.605 202.096 231.668 202.562 231.912 202.486C233.929 201.862 236.004 201.403 238.074 201.122C238.323 201.089 238.258 200.623 238.008 200.657Z" fill="#4687BD"/>
<path d="M213.844 223.331L210.203 228.835L205.202 225.526L208.469 219.134L213.844 223.331Z" fill="#D6A184"/>
<path d="M207.275 240.525L189.271 228.522C189.271 228.522 189.433 227.73 189.911 226.833C190.398 225.918 191.215 224.892 192.523 224.484C194.379 223.903 198.031 225.388 199.957 226.279C200.429 226.497 200.941 226.275 201.247 225.789C201.263 225.764 201.28 225.739 201.299 225.715C201.682 225.23 202.229 224.608 202.889 224.06C203.653 223.428 204.677 223.522 205.352 224.286C206.038 225.06 206.938 226.053 207.785 226.901C209.468 228.587 212.089 226.949 211.893 228.653C211.747 229.927 209.238 235.93 207.98 238.881C207.557 239.877 207.275 240.525 207.275 240.525Z" fill="#91CAFA"/>
<path d="M209.447 231.809C207.033 231.649 205.016 233.571 204.605 236.446C204.549 236.844 204.041 236.697 204.098 236.298C204.546 233.166 206.798 231.006 209.43 231.18C209.762 231.202 209.783 231.831 209.447 231.809Z" fill="#5C81F5"/>
<path d="M207.981 238.88C207.557 239.877 207.275 240.525 207.275 240.525L189.271 228.522C189.271 228.522 189.433 227.73 189.911 226.833L196.911 231.499C196.911 231.499 197.913 230.333 199.892 231.371C201.872 232.409 201.389 234.485 203.159 234.96C204.93 235.435 205.872 234.653 207.265 235.44C208.659 236.228 207.981 238.88 207.981 238.88Z" fill="white"/>
<path d="M260.136 193.522C260.136 193.522 260.163 207.442 250.86 210.166C241.556 212.89 229.385 210.694 227.37 211.79C224.536 213.332 213.069 228.756 213.069 228.756C213.069 228.756 207.492 226.813 203.908 222.888C202.947 221.836 219.363 197.759 222.727 196.041C226.091 194.323 239.18 190.244 239.18 190.244L260.136 193.522Z" fill="#5D6E76"/>
<path d="M256.313 194.851C255.6 199.106 253.855 203.3 250.797 205.77C247.348 208.557 243.087 208.49 239.112 208.219C235.95 208.003 232.759 207.979 229.594 208.126C226.894 208.252 224.459 209.931 222.183 211.59C217.939 214.687 214.875 219.466 211.846 224.103C211.732 224.277 211.525 224.041 211.638 223.868C214.22 219.917 216.841 215.68 220.254 212.709C221.72 211.433 223.307 210.351 224.935 209.406C225.919 208.834 226.986 208.158 228.07 207.915C229.011 207.704 230.027 207.758 230.978 207.737C232.599 207.701 234.222 207.704 235.843 207.74C239.691 207.824 243.635 208.554 247.401 207.257C252.232 205.592 255.077 200.495 256.035 194.77C256.072 194.553 256.349 194.633 256.313 194.851Z" fill="#3D4A79"/>
<path d="M205.897 219.635C208.5 222.341 211.495 224.293 214.753 225.592C214.926 225.661 214.861 225.997 214.686 225.927C211.385 224.61 208.341 222.628 205.702 219.886C205.563 219.741 205.758 219.491 205.897 219.635Z" fill="#3D4A79"/>
<path d="M269.692 125.212C269.692 125.212 273.383 126.182 272.902 128.678C272.421 131.174 268.435 128.131 268.435 128.131L269.692 125.212Z" fill="#7B33D4"/>
<path d="M219.366 230.602L216.415 236.678L211.073 234.267L213.548 227.377L219.366 230.602Z" fill="#D6A184"/>
<path d="M214.904 248.753L195.662 239.982C195.662 239.982 195.728 239.17 196.095 238.2C196.468 237.21 197.155 236.054 198.402 235.424C200.169 234.529 203.96 235.367 205.971 235.916C206.465 236.051 206.944 235.742 207.19 235.209C207.203 235.182 207.218 235.154 207.233 235.127C207.554 234.58 208.023 233.87 208.611 233.214C209.292 232.456 210.317 232.372 211.076 233.013C211.847 233.661 212.854 234.487 213.794 235.181C215.66 236.559 218.06 234.485 218.068 236.206C218.074 237.491 216.303 243.867 215.409 247.004C215.106 248.063 214.904 248.753 214.904 248.753Z" fill="#91CAFA"/>
<path d="M216.616 240.274C214.102 239.715 211.732 241.45 211.005 244.404C210.909 244.79 210.401 244.647 210.497 244.257C211.308 240.963 213.937 239.04 216.738 239.662C217.068 239.735 216.946 240.348 216.616 240.274Z" fill="#5C81F5"/>
<path d="M215.408 247.003C215.106 248.063 214.904 248.754 214.904 248.754L195.662 239.983C195.662 239.983 195.728 239.171 196.095 238.2L203.576 241.61C203.576 241.61 204.429 240.283 206.512 240.969C208.594 241.654 208.362 243.792 210.171 243.957C211.979 244.121 212.819 243.184 214.291 243.723C215.764 244.262 215.408 247.003 215.408 247.003Z" fill="white"/>
<path d="M267.069 198.759C267.069 198.759 267.097 212.679 257.793 215.403C248.491 218.127 236.318 215.931 234.304 217.027C231.469 218.569 220.003 233.993 220.003 233.993C220.003 233.993 214.426 232.05 210.841 228.124C209.881 227.073 226.297 202.995 229.661 201.278C233.025 199.56 246.113 195.48 246.113 195.48L267.069 198.759Z" fill="#5D6E76"/>
<path d="M263.247 200.087C262.534 204.343 260.789 208.536 257.731 211.007C254.282 213.794 250.021 213.727 246.046 213.456C242.884 213.24 239.692 213.216 236.529 213.363C233.829 213.489 231.393 215.168 229.117 216.828C224.873 219.924 221.809 224.704 218.78 229.34C218.666 229.514 218.459 229.278 218.572 229.105C221.154 225.155 223.775 220.917 227.188 217.947C228.654 216.671 230.241 215.589 231.869 214.643C232.854 214.071 233.92 213.396 235.005 213.152C235.945 212.941 236.961 212.995 237.912 212.974C239.533 212.938 241.156 212.941 242.777 212.978C246.625 213.062 250.569 213.792 254.335 212.494C259.165 210.83 262.01 205.733 262.969 200.008C263.006 199.79 263.283 199.87 263.247 200.087Z" fill="#3D4A79"/>
<path d="M212.831 224.871C215.435 227.577 218.429 229.529 221.687 230.829C221.86 230.897 221.795 231.233 221.62 231.163C218.318 229.847 215.274 227.864 212.636 225.122C212.496 224.978 212.692 224.727 212.831 224.871Z" fill="#3D4A79"/>
<path d="M267.512 198.536C252.546 204.322 245.318 194.401 239.016 192.212C237.588 191.717 241.668 154.927 243.433 152.986C244.964 151.303 246.988 150.52 248.689 150.163C250.561 149.769 252.043 149.89 252.043 149.89L259.142 149.727C259.142 149.727 260.477 149.76 262.129 150.379C264.903 151.42 268.975 152.803 270.303 154.748C274.46 160.834 271.526 187.859 267.512 198.536Z" fill="#70D2AF"/>
<g opacity="0.5">
<path d="M243.038 183.431C247.256 186.504 251.092 190.266 254.441 194.628C254.669 194.924 254.314 195.385 254.085 195.087C250.765 190.765 246.971 187.03 242.79 183.984C242.503 183.775 242.749 183.22 243.038 183.431Z" fill="#5C81F5"/>
</g>
<g opacity="0.5">
<path d="M245.232 169.588C249.37 175.304 255.164 179 261.409 179.909C261.742 179.957 261.618 180.569 261.287 180.521C254.966 179.601 249.064 175.833 244.876 170.047C244.657 169.745 245.011 169.282 245.232 169.588Z" fill="#5C81F5"/>
</g>
<path opacity="0.5" d="M249.178 155.133C251.319 157.148 254.247 157.703 256.801 156.597C257.063 156.483 256.892 156.002 256.63 156.116C254.222 157.159 251.457 156.614 249.442 154.717C249.221 154.51 248.958 154.926 249.178 155.133Z" fill="#5C81F5"/>
<path d="M259.7 151.876C259.67 153.618 250.168 153.381 250.198 151.639L250.309 149.984L250.558 146.236L255.726 144.335L260.706 142.503L259.7 151.876Z" fill="#D6A184"/>
<path d="M260.303 144.636C260.303 144.636 257.359 150.889 250.309 149.985L250.559 146.237L255.726 144.335L260.303 144.636Z" fill="#202020"/>
<path d="M245.599 125.689C245.599 125.689 245.052 116.785 249.135 113.79C256.895 108.097 269.214 114.796 269.271 126.384C269.323 137.153 264.926 140.403 264.926 140.403L245.599 125.689Z" fill="#202020"/>
<path d="M243.798 128.481C244.164 127.285 244.836 126.252 245.747 125.607C246.704 124.93 248.095 124.534 249.752 125.808C252.953 128.266 250.27 137.149 245.384 135.168C245.384 135.168 242.509 132.694 243.798 128.481Z" fill="#C46F5C"/>
<path d="M267.119 132.721C267.119 132.721 265.042 149.229 253.255 147.157C241.467 145.084 242.391 134.984 245.391 129.44C245.391 129.44 245.111 119.304 249.797 117.379C254.482 115.454 268.851 116.014 267.119 132.721Z" fill="#D6A184"/>
<path d="M245.729 125.089C245.729 125.089 246.832 120.488 247.953 119.644C247.953 119.644 254.784 118.761 261.039 123.936C267.295 129.112 267.63 126.917 267.63 126.917C267.63 126.917 267.584 117.522 256.846 115.719C247.932 114.222 245.858 118.201 245.729 125.089Z" fill="#202020"/>
<path d="M254.203 132.482C254.512 131.708 255.325 131.714 255.707 132.393C255.94 132.807 256.447 132.329 256.215 131.917C255.545 130.725 254.114 130.919 253.609 132.184C253.429 132.635 254.024 132.93 254.203 132.482Z" fill="#202020"/>
<path d="M249.916 131.626C249.684 130.249 248.337 129.637 247.445 130.593C247.136 130.923 247.529 131.538 247.839 131.205C248.349 130.659 249.138 130.898 249.28 131.738C249.361 132.224 249.998 132.118 249.916 131.626Z" fill="#202020"/>
<path d="M255.395 128.806C255.522 128.818 255.646 128.836 255.771 128.865C256.039 128.926 255.633 128.786 255.885 128.908C255.989 128.958 256.09 129.008 256.191 129.065C256.251 129.103 256.248 129.099 256.183 129.051C256.237 129.09 256.29 129.132 256.342 129.175C256.67 129.45 256.863 129.735 257.002 130.1C257.22 130.672 257.784 130.967 258.273 130.714C258.745 130.47 259 129.757 258.781 129.181C258.213 127.688 257.005 126.612 255.635 126.49C255.132 126.445 254.598 126.852 254.555 127.503C254.515 128.108 254.854 128.758 255.395 128.806Z" fill="#202020"/>
<path d="M250.131 125.866C248.887 125.136 247.398 125.355 246.281 126.303C245.853 126.667 245.801 127.46 246.111 127.942C246.445 128.46 247.04 128.511 247.469 128.147C247.52 128.102 247.573 128.058 247.627 128.018C247.55 128.074 247.562 128.069 247.663 128.004C247.75 127.959 247.837 127.915 247.925 127.871C248.035 127.829 248.045 127.823 247.957 127.854C248.003 127.839 248.049 127.827 248.096 127.817C248.205 127.791 248.315 127.779 248.425 127.761C248.64 127.725 248.347 127.736 248.546 127.757C248.672 127.771 248.797 127.791 248.923 127.811C249.119 127.842 248.839 127.753 249.039 127.847C249.157 127.902 249.274 127.956 249.388 128.024C249.844 128.291 250.482 127.962 250.653 127.394C250.842 126.769 250.619 126.153 250.131 125.866Z" fill="#202020"/>
<path d="M250.83 140.962C251.669 141.647 252.769 141.728 253.66 141.134C253.861 141 253.721 140.597 253.518 140.734C252.742 141.252 251.788 141.22 251.05 140.616C250.858 140.459 250.638 140.804 250.83 140.962Z" fill="#C46F5C"/>
<g opacity="0.5">
<path d="M248.412 133.626C248.329 134.421 247.394 134.935 246.323 134.773C245.251 134.611 244.45 133.835 244.532 133.04C244.615 132.244 245.55 131.731 246.621 131.893C247.693 132.054 248.495 132.83 248.412 133.626Z" fill="#C46F5C"/>
</g>
<g opacity="0.5">
<path d="M258.305 135.757C258.222 136.553 257.287 137.066 256.216 136.904C255.144 136.742 254.343 135.967 254.425 135.171C254.508 134.375 255.443 133.862 256.514 134.024C257.586 134.186 258.387 134.962 258.305 135.757Z" fill="#C46F5C"/>
</g>
<path d="M263.456 131.216C263.456 131.216 265.035 127.759 268.235 130.217C271.435 132.675 268.065 141.713 263.179 139.732C263.179 139.732 260.993 136.256 263.456 131.216Z" fill="#D6A184"/>
<path d="M267.515 133.395C266.102 134.082 264.992 135.44 264.428 137.146C264.324 137.459 263.932 137.233 264.035 136.919C264.641 135.09 265.852 133.637 267.365 132.901C267.625 132.775 267.774 133.269 267.515 133.395Z" fill="#202020"/>
<path d="M261.096 125.887C261.096 125.887 259.954 130.468 261.678 130.216C261.678 130.216 259.999 133.547 261.252 134.321C262.505 135.095 263.475 132.169 263.475 132.169C263.475 132.169 264.951 129.08 267.219 129.445C267.495 128.718 267.487 126.985 267.107 125.981L259.03 122.429L261.096 125.887Z" fill="#202020"/>
<path d="M251.661 127.985C251.787 128.867 251.728 129.772 251.475 130.615C251.214 131.486 250.762 132.11 250.266 132.792C249.861 133.347 249.604 134.027 249.863 134.753C250.141 135.531 250.796 135.911 251.435 136.132C251.656 136.208 251.796 135.806 251.574 135.73C250.951 135.515 250.157 135.094 250.113 134.185C250.075 133.376 250.811 132.787 251.173 132.206C251.929 130.991 252.231 129.417 252.019 127.923C251.979 127.646 251.621 127.707 251.661 127.985Z" fill="#202020"/>
<path d="M261.593 137.63C261.962 139.441 263.388 140.605 264.922 140.312C265.151 140.268 265.1 139.837 264.87 139.881C263.542 140.134 262.272 139.15 261.949 137.567C261.895 137.298 261.537 137.357 261.593 137.63Z" fill="#202020"/>
<path d="M252.365 138.298C252.555 139.161 252.356 139.976 251.92 140.115C251.484 140.255 250.975 139.67 250.784 138.806C250.593 137.942 250.792 137.128 251.229 136.988C251.665 136.849 252.174 137.435 252.365 138.298Z" fill="white"/>
<path d="M269.321 128.085C269.321 128.085 273.99 114.57 261.597 110.846C249.844 107.314 246.867 116.895 246.867 116.895C244.387 118.122 253.156 123.671 261.221 124.151C261.221 124.151 266.737 125.709 269.321 128.085Z" fill="#AD70F8"/>
<path d="M252.304 116.679C252.36 118.744 253.793 120.363 255.505 120.296C257.216 120.228 258.558 118.499 258.502 116.433C258.446 114.368 257.013 112.749 255.301 112.817C253.589 112.885 252.248 114.615 252.304 116.679Z" fill="#7B33D4"/>
<path d="M262.89 124.861C262.89 124.861 247.045 110.078 241.377 112.277C235.708 114.476 245.756 121.475 245.756 121.475C245.756 121.475 251.536 123.221 262.89 124.861Z" fill="#202020"/>
<path d="M262.432 111.441C265.691 115.267 264.454 121.032 262.626 125.331C262.473 125.691 262.014 125.392 262.167 125.031C263.879 121.003 265.155 115.516 262.075 111.901C261.835 111.618 262.191 111.158 262.432 111.441Z" fill="#202020"/>
<path d="M271.397 204.525C271.397 204.525 271.123 204.644 268.9 205.488C266.677 206.332 269.193 210.939 270.038 212.759C270.338 213.408 270.759 212.186 270.743 210.338C270.728 208.489 271.754 211.006 273.406 212.933C275.589 215.479 276.368 215.975 277.23 216.916C278.414 218.206 278.294 216.453 275.551 212.226C274.237 210.2 274.837 206.605 274.837 206.605L271.397 204.525Z" fill="#D6A184"/>
<path d="M262.282 163.103C260.142 157.2 266.599 149.702 271.404 155.706C275.041 160.252 276.998 168.085 279.065 177.889C282.972 196.42 275.749 207.534 275.749 207.534L270.078 204.925C270.078 204.925 273.977 194.365 271.922 183.552C270.796 177.63 264.302 168.675 262.282 163.103Z" fill="#70D2AF"/>
<path d="M272.076 183.577C272.994 182.851 274.066 182.658 275.131 182.948C275.376 183.015 275.285 183.474 275.04 183.407C274.073 183.143 273.117 183.317 272.285 183.977C272.074 184.144 271.866 183.744 272.076 183.577Z" fill="#4687BD"/>
<path d="M279.132 179.698C276.763 182.039 277.362 186.437 280.151 187.851C280.383 187.969 280.195 188.384 279.965 188.266C276.869 186.696 276.353 181.838 278.924 179.298C279.118 179.105 279.325 179.507 279.132 179.698Z" fill="#4687BD"/>
<path d="M271.018 202.552C273.067 203.001 275.111 203.63 277.088 204.418C277.325 204.512 277.236 204.972 276.997 204.877C275.02 204.089 272.975 203.46 270.927 203.011C270.679 202.957 270.771 202.498 271.018 202.552Z" fill="#4687BD"/>
<g opacity="0.5">
<path d="M269.103 168.397C269.709 179.084 268.114 189.834 264.486 199.609C264.349 199.978 263.89 199.678 264.027 199.309C267.618 189.635 269.182 178.992 268.581 168.418C268.559 168.014 269.08 167.994 269.103 168.397Z" fill="#5C81F5"/>
</g>
<path d="M174.63 247.083C182.265 199.728 151.276 156.244 111.302 157.406C97.1603 157.817 81.1841 161.156 70.487 172.105C47.2166 195.924 44.5203 264.197 69.393 270.919C105.075 280.563 144.764 273.16 156.742 271.982C160.859 271.577 172.509 260.234 174.63 247.083Z" fill="#AACBFF"/>
<path d="M69.1155 174.699C59.2868 198.724 58.457 227.546 66.2937 252.55C68.4975 259.582 71.3835 266.278 74.912 272.474C75.1772 272.94 75.8122 272.498 75.5447 272.028C63.1129 250.196 58.9182 222.173 63.5991 196.36C64.9311 189.016 66.9906 181.885 69.7483 175.145C69.9562 174.637 69.3245 174.189 69.1155 174.699Z" fill="#A82C6D"/>
<path d="M87.3196 168.458C87.3196 168.458 67.66 177.733 71.4179 204C73.6598 219.67 95.4778 215.547 113.897 214.175C132.317 212.803 144.216 198.331 137.459 190.197C130.701 182.062 87.3196 168.458 87.3196 168.458Z" fill="#AACBFF"/>
<path d="M121.144 134.67C121.144 134.67 134.585 150.19 141.96 151.039C152.706 152.278 158.581 107.293 158.581 107.293L153.479 105.902L140.524 132.702L127.999 119.788L121.144 134.67Z" fill="#D6A184"/>
<path d="M152.581 107.13C152.581 107.13 151.096 104.045 151.54 101.001C151.983 97.9565 151.765 95.3688 152.205 93.1361C152.645 90.9034 153.586 93.7104 153.871 95.3496C154.157 96.9888 154.492 98.8432 155.332 98.3279C156.171 97.8119 160.913 88.9147 162.133 88.3857C163.353 87.8566 162.902 89.6302 162.902 89.6302C162.902 89.6302 163.976 87.6462 164.812 87.9416C165.648 88.2377 165.236 89.7659 165.236 89.7659C165.236 89.7659 165.99 88.4693 166.57 89.3142C167.151 90.1592 163.807 98.4677 164.262 98.7768C164.718 99.0858 165.398 93.7625 166.476 93.8605C167.555 93.9585 166.439 96.9984 165.782 99.5361C165.125 102.074 163.86 104.469 162.166 105.853C160.474 107.237 158.138 110.805 156.049 109.661C153.959 108.515 152.581 107.13 152.581 107.13Z" fill="#D6A184"/>
<path d="M165.108 89.5057C163.846 91.8734 162.645 94.2932 161.51 96.7534C161.376 97.0439 161.771 97.244 161.904 96.9562C163.021 94.5344 164.203 92.153 165.446 89.8216C165.594 89.5448 165.257 89.2261 165.108 89.5057Z" fill="#C46F5C"/>
<path d="M162.782 89.6673C161.69 91.3538 160.768 93.1671 160.015 95.1044C159.898 95.4059 160.291 95.6074 160.408 95.3073C161.146 93.4097 162.05 91.6355 163.119 89.9839C163.289 89.7214 162.951 89.4048 162.782 89.6673Z" fill="#C46F5C"/>
<path d="M163.186 98.1876C161.98 96.5923 160.519 95.3875 158.843 94.6268C158.586 94.5097 158.417 94.9846 158.675 95.1018C160.28 95.8302 161.691 96.9733 162.847 98.5022C163.031 98.7455 163.372 98.4337 163.186 98.1876Z" fill="#C46F5C"/>
<path d="M159.363 98.1403C157.004 99.6295 155.711 102.554 156.009 105.751C156.039 106.081 156.464 106.017 156.433 105.687C156.158 102.735 157.343 99.9961 159.527 98.6173C159.769 98.4638 159.607 97.9855 159.363 98.1403Z" fill="#C46F5C"/>
<path d="M140.152 132.658C139.148 134.583 138.612 136.69 138.521 138.959C138.509 139.257 138.893 139.215 138.905 138.92C138.993 136.738 139.537 134.706 140.5 132.858C140.631 132.605 140.282 132.408 140.152 132.658Z" fill="#C46F5C"/>
<path d="M139.285 134.465C138.624 134.647 137.993 134.918 137.384 135.282C137.164 135.413 137.295 135.851 137.517 135.718C138.125 135.354 138.757 135.084 139.418 134.901C139.66 134.835 139.524 134.398 139.285 134.465Z" fill="#C46F5C"/>
<path d="M121.464 114.058L128.872 119.86L123.637 134.74L119.119 128.882C119.119 128.882 113.857 114.737 121.464 114.058Z" fill="#EF595C"/>
<path d="M75.8534 125.024L99.4737 128.83C101.977 122.837 104.681 118.042 108.509 119.012C112.866 120.117 118.814 113.1 115.219 104.783C112.689 98.9303 118.867 84.4103 118.25 79.0555C118.25 79.0555 122.365 66.8251 112.129 67.4391C112.129 67.4391 109.785 62.3809 102.794 64.025C95.8033 65.6697 90.083 71.6118 91.0417 79.8422C92.0005 88.0725 90.9617 98.7083 84.7171 101.491C78.4725 104.274 75.3053 108.244 75.1514 116.949C75.0957 120.036 75.482 122.678 75.8534 125.024Z" fill="#202020"/>
<path d="M109.168 105.134C109.168 105.134 115.842 110.85 120.782 113.595C125.592 116.267 120.659 123.596 121.942 126.01C123.225 128.423 126.173 133.814 125.564 138.008C124.955 142.201 119.968 145.928 120.589 148.243C121.21 150.558 125.448 170.136 127.16 176.329C128.779 182.184 122.298 188.214 113.212 188.274C104.126 188.334 102.732 189.741 92.8781 187.196C83.689 184.822 79.2489 180.642 81.4255 175.854C83.6021 171.066 87.2867 164.396 88.8345 155.2C90.3823 146.005 86.2603 139.63 82.8103 125.078C78.4537 106.704 85.8917 104.448 96.7825 103.003C103.645 102.09 109.168 105.134 109.168 105.134Z" fill="#EF595C"/>
<path d="M122.864 168.242C113.868 175.91 102.917 179.907 91.9077 179.553C91.501 179.54 91.4993 178.776 91.9077 178.789C102.816 179.14 113.633 175.179 122.544 167.583C122.877 167.298 123.194 167.96 122.864 168.242Z" fill="#5C81F5"/>
<path d="M119.664 123.476C117.718 128.012 111.986 127.305 108.479 127.115C102.94 126.815 97.4625 125.517 92.2215 123.342C91.8325 123.18 92.0704 122.463 92.4601 122.625C97.1404 124.568 102.005 125.795 106.942 126.233C109.246 126.437 111.609 126.557 113.913 126.309C115.869 126.098 118.093 125.466 119.07 123.188C119.258 122.751 119.854 123.033 119.664 123.476Z" fill="#5C81F5"/>
<path d="M119.064 147.745C111.658 146.873 104.2 147.453 96.9467 149.458C96.5446 149.569 96.4475 148.805 96.8473 148.695C104.153 146.675 111.677 146.099 119.136 146.978C119.546 147.026 119.474 147.793 119.064 147.745Z" fill="#5C81F5"/>
<path d="M86.5095 121.864C86.6373 126.21 89.1245 130.051 90.7167 133.787C92.3593 137.64 93.7736 141.686 94.3933 145.976C94.9982 150.164 94.733 154.361 93.5084 158.353C92.2781 162.365 90.344 166.007 88.5673 169.685C87.5716 171.747 86.4078 173.711 85.5444 175.862C84.6561 178.074 84.342 180.353 84.5578 182.798C84.6016 183.291 83.9694 183.412 83.9256 182.918C83.5956 179.176 84.5754 176.097 86.1687 172.951C88.0817 169.173 90.068 165.404 91.6976 161.433C93.4487 157.166 94.3933 152.694 93.9736 147.916C93.5726 143.349 92.1793 139.029 90.4895 134.949C88.8036 130.878 86.0165 126.696 85.8779 121.984C85.8625 121.494 86.4947 121.369 86.5095 121.864Z" fill="#5C81F5"/>
<path d="M92.8281 103.621C93.4012 105.814 94.5634 107.74 96.0226 109.286C98.1611 111.549 100.922 113.412 103.593 114.586C105.928 115.611 108.778 115.671 110.549 113.256C111.719 111.663 112.105 109.655 112.186 107.601C111.981 107.442 111.786 107.285 111.599 107.133C111.564 109.165 111.248 111.172 110.108 112.744C108.3 115.24 105.367 114.724 103.104 113.566C99.3329 111.635 94.7349 108.48 93.4154 103.511C93.2178 103.546 93.0218 103.583 92.8281 103.621Z" fill="#5C81F5"/>
<path d="M199.521 238.192L206.781 250.876C206.781 250.876 204.994 256.503 200.416 257.311L189.357 242.35L199.521 238.192Z" fill="#D6A184"/>
<path d="M228.959 251.129L204.446 270.77C204.159 270.348 203.89 269.898 203.631 269.427C203.517 269.22 203.418 269.007 203.301 268.802C201.007 264.8 196.404 256.264 198.628 256.281C201.905 258.296 205.107 253.779 205.107 253.779C205.107 253.779 205.421 247.931 207.735 247.774C210.049 247.616 209.376 251.379 212.62 251.664C215.104 251.879 216.676 249.35 219.412 247.966C220.248 247.541 221.188 247.229 222.3 247.132C224.892 246.907 226.635 248.118 227.69 249.261C228.561 250.219 228.959 251.129 228.959 251.129Z" fill="#AD70F8"/>
<path d="M199.821 261.582C203.3 260.92 206.783 262.028 209.576 264.601C209.954 264.949 210.323 264.175 209.949 263.831C206.987 261.103 203.298 260.023 199.624 260.722C199.156 260.81 199.354 261.67 199.821 261.582Z" fill="white"/>
<path d="M211.909 250.987C211.87 251.01 211.832 251.021 211.795 251.027C211.294 251.67 210.923 252.47 210.723 253.402C210.63 253.837 211.195 253.972 211.288 253.54C211.458 252.747 211.776 252.056 212.208 251.499C212.404 251.246 212.179 250.838 211.918 250.982C211.916 250.984 211.912 250.985 211.909 250.987Z" fill="white"/>
<path d="M213.091 250.865C213.052 250.888 213.014 250.899 212.977 250.905C212.476 251.548 212.105 252.348 211.905 253.28C211.812 253.714 212.377 253.849 212.47 253.418C212.64 252.625 212.959 251.934 213.39 251.377C213.586 251.124 213.362 250.716 213.1 250.86C213.098 250.862 213.095 250.864 213.091 250.865Z" fill="white"/>
<path d="M214.561 250.546C214.521 250.568 214.483 250.579 214.446 250.585C213.945 251.228 213.574 252.029 213.374 252.961C213.281 253.394 213.846 253.531 213.939 253.098C214.109 252.306 214.428 251.615 214.859 251.058C215.055 250.805 214.83 250.396 214.57 250.541C214.567 250.542 214.563 250.544 214.561 250.546Z" fill="white"/>
<path d="M216.09 249.715C216.05 249.737 216.012 249.748 215.976 249.754C215.474 250.397 215.103 251.198 214.904 252.13C214.811 252.564 215.376 252.7 215.468 252.267C215.638 251.474 215.958 250.784 216.389 250.227C216.585 249.974 216.36 249.565 216.099 249.71C216.096 249.711 216.093 249.713 216.09 249.715Z" fill="white"/>
<path d="M227.69 249.261L221.907 253.895C219.859 251.993 219.37 249.758 219.412 247.966C220.248 247.541 221.187 247.229 222.299 247.132C224.893 246.907 226.635 248.117 227.69 249.261Z" fill="white"/>
<path d="M228.958 251.129L204.446 270.77C204.159 270.349 203.89 269.898 203.631 269.427L203.292 268.81L227.69 249.261C228.561 250.219 228.958 251.129 228.958 251.129Z" fill="white"/>
<path d="M105.781 176.746C105.781 176.746 122.945 164.482 151.675 158.886C162.58 156.763 204.745 240.559 204.745 240.559L192.007 251.789C181.972 235.288 161.441 219.598 155.043 199.585C154.494 197.867 139.966 203.855 122.679 208.632C77.7318 216.757 102.52 191.506 105.781 176.746Z" fill="#5C81F5"/>
<path d="M152.48 194.525C154.414 194.202 156.348 193.879 158.282 193.556C158.131 193.453 157.982 193.35 157.831 193.247C159.417 201.496 162.547 209.237 166.95 215.833C169.246 219.271 171.896 222.142 174.675 224.989C177.768 228.159 180.649 231.608 183.829 234.656C187.128 237.818 189.85 241.667 192.662 245.426C192.979 245.849 193.496 245.223 193.18 244.801C190.772 241.582 188.442 238.246 185.719 235.4C182.761 232.307 179.781 229.27 176.86 226.122C174.181 223.235 171.379 220.601 168.978 217.356C166.579 214.115 164.507 210.53 162.801 206.704C160.877 202.388 159.455 197.784 158.538 193.012C158.489 192.758 158.277 192.672 158.088 192.704C156.154 193.027 154.22 193.351 152.286 193.674C151.82 193.751 152.018 194.603 152.48 194.525Z" fill="#7B33D4"/>
<path d="M188.101 247.83L202.65 234.87L206.118 240.183L192.032 252.875L188.101 247.83Z" fill="#7B33D4"/>
<path d="M96.5942 103.291C96.5942 103.291 102.107 114.677 108.895 109.513L108.515 103.658L108.226 98.5825L108.025 95.0293L99.7898 87.7871L96.5942 103.291Z" fill="#D6A184"/>
<path d="M100.221 93.5942C103.166 102.696 107.318 103.698 108.515 103.657L108.226 98.5818L100.221 93.5942Z" fill="#322A23"/>
<path d="M96.7637 86.3468C97.6572 89.8226 98.4961 90.9561 100.686 94.3051C102.64 97.2943 105.937 98.7554 107.612 98.8801C113.702 99.3317 116.484 96.2979 115.583 86.3653C115.023 80.1977 116.386 76.7191 115.049 74.3617H115.046C114.957 74.2534 114.868 74.1486 114.778 74.0465C112.618 71.5815 109.716 70.2829 106.742 70.313C91.9664 70.4631 95.4817 81.3579 96.7637 86.3468Z" fill="#D6A184"/>
<path d="M113.203 90.4265C113.203 90.4265 111.402 90.7897 108.212 89.748C108.212 89.748 108.45 93.3362 110.863 93.341C112.91 93.3458 113.203 90.4265 113.203 90.4265Z" fill="white"/>
<path d="M112.471 85.8761C112.463 86.3778 112.711 86.791 113.022 86.7972C113.335 86.804 113.593 86.4024 113.601 85.9001C113.609 85.3978 113.361 84.9853 113.05 84.9791C112.737 84.9722 112.478 85.3738 112.471 85.8761Z" fill="#322A23"/>
<path d="M107.788 85.5329C107.781 86.0345 108.028 86.4477 108.34 86.4539C108.652 86.4607 108.911 86.0592 108.919 85.5569C108.926 85.0545 108.679 84.642 108.367 84.6358C108.055 84.6296 107.796 85.0305 107.788 85.5329Z" fill="#322A23"/>
<path d="M113.047 69.8379C104.044 64.6235 96.6825 71.6655 95.346 75.7499C94.0095 79.8335 94.0612 86.5891 95.9532 85.3988C97.8452 84.2084 101.485 87.7322 102.844 85.1027C103.598 83.6451 101.972 78.883 101.972 78.883C101.972 78.883 108.925 79.5663 107.797 74.2573C107.797 74.2573 111.24 70.3258 113.449 73.7454C115.658 77.1643 115.558 79.813 115.558 79.813C117.904 79.8424 119.5 73.5754 113.047 69.8379Z" fill="#202020"/>
<path d="M110.796 95.3384C110.164 95.4549 109.528 95.3261 109.125 94.6812C108.921 94.3543 109.35 93.9884 109.555 94.3139C109.843 94.7744 110.307 94.7867 110.743 94.7066C111.078 94.6449 111.129 95.2767 110.796 95.3384Z" fill="#C46F5C"/>
<path d="M104.352 87.1282C104.373 87.658 105.073 88.0499 105.916 88.0033C106.759 87.9567 107.426 87.4887 107.405 86.959C107.385 86.4285 106.685 86.0372 105.842 86.0838C104.999 86.1304 104.333 86.5978 104.352 87.1282Z" fill="#C46F5C"/>
<path d="M113.107 87.1865C113.128 87.7183 113.828 88.1089 114.67 88.0623C115.067 88.0403 115.425 87.9245 115.69 87.7546C115.662 87.3064 115.628 86.8431 115.584 86.3655C115.584 86.3456 115.581 86.3257 115.58 86.3079C115.311 86.1873 114.967 86.1229 114.597 86.1441C113.755 86.1907 113.087 86.6574 113.107 87.1865Z" fill="#C46F5C"/>
<path d="M107.99 81.5803C107.383 81.3384 106.593 81.5063 106.365 82.3266C106.152 83.0928 105.122 82.8221 105.338 82.0456C105.741 80.599 107.017 79.8602 108.222 80.3413C108.859 80.5956 108.634 81.8373 107.99 81.5803Z" fill="#322A23"/>
<path d="M114.082 82.1797C113.655 81.5999 113.116 80.7598 112.391 81.0174C111.742 81.2484 111.414 80.0416 112.065 79.8099C113.218 79.4001 114.07 80.2636 114.791 81.2415C115.237 81.8473 114.532 82.791 114.082 82.1797Z" fill="#322A23"/>
<path d="M102.643 88.8419C102.955 87.5385 102.706 86.1364 102.048 85.0351C101.196 83.6083 99.6383 81.4264 98.2331 81.7375C96.1684 82.1946 96.002 84.4362 96.2883 86.6956C96.5745 88.955 97.9184 91.8627 100.494 91.2466C101.782 90.9382 102.387 89.9089 102.643 88.8419Z" fill="#D6A184"/>
<path d="M97.983 96.1538C96.5216 96.2216 95.2867 94.8422 95.2305 93.0782C95.1743 91.315 96.3177 89.8251 97.7797 89.7573C99.2412 89.6894 100.476 91.0689 100.532 92.8329C100.588 94.5968 99.4445 96.086 97.983 96.1538ZM97.8024 90.4762C96.6692 90.5289 95.7826 91.6836 95.8263 93.0508C95.8695 94.418 96.8272 95.4877 97.9603 95.4349C99.0935 95.3822 99.9801 94.2274 99.9364 92.8603C99.8927 91.4931 98.9356 90.4241 97.8024 90.4762Z" fill="white"/>
<path d="M99.8886 88.5569C99.9732 87.6256 100.007 86.6525 99.7051 85.7671C99.4353 84.9762 98.6776 83.8387 97.8364 84.1943C97.5547 84.3136 97.3519 83.8037 97.6359 83.6838C98.4459 83.3411 99.2326 83.9017 99.7279 84.6836C100.442 85.8109 100.478 87.2576 100.354 88.6103C100.322 88.9708 99.8551 88.9194 99.8886 88.5569Z" fill="#322A23"/>
<path d="M108.055 89.0448C107.988 89.0605 107.92 89.0729 107.852 89.0811C107.111 89.1763 106.381 88.8645 105.797 88.2025C105.222 87.5522 104.857 86.638 104.768 85.6299C104.582 83.5316 105.663 81.6655 107.178 81.4709C107.919 81.3757 108.648 81.6875 109.233 82.3495C109.807 83.0005 110.173 83.914 110.262 84.922C110.351 85.9308 110.154 86.9169 109.706 87.6988C109.293 88.4218 108.712 88.8926 108.055 89.0448ZM105.242 85.569C105.319 86.4406 105.632 87.2274 106.123 87.7838C106.605 88.3293 107.201 88.587 107.801 88.5095C108.4 88.4328 108.938 88.0285 109.314 87.3726C109.696 86.7038 109.865 85.8554 109.787 84.9837C109.71 84.112 109.397 83.3253 108.906 82.7689C108.424 82.2234 107.828 81.9657 107.228 82.0431C105.974 82.2076 105.084 83.7865 105.242 85.569Z" fill="white"/>
<path d="M111.687 87.7849C111.824 88.0357 111.98 88.2681 112.161 88.4723C112.745 89.1343 113.475 89.4461 114.215 89.3501C114.284 89.3412 114.352 89.3296 114.419 89.3138C115.076 89.1617 115.657 88.6902 116.07 87.9679C116.517 87.186 116.715 86.1991 116.625 85.1911C116.536 84.1823 116.17 83.2688 115.596 82.6185C115.012 81.9565 114.282 81.6447 113.542 81.74C112.027 81.9346 110.945 83.8013 111.131 85.899C111.145 86.0539 111.167 86.2053 111.194 86.3554C111.272 86.3218 111.358 86.3218 111.43 86.3766C111.816 86.6693 111.999 87.3313 111.687 87.7849ZM111.605 85.838C111.448 84.0556 112.338 82.4766 113.592 82.3122C114.193 82.2347 114.788 82.4924 115.27 83.0379C115.761 83.5944 116.074 84.3811 116.152 85.2528C116.229 86.1245 116.06 86.9728 115.677 87.6417C115.302 88.2975 114.764 88.7018 114.165 88.7786C113.564 88.856 112.969 88.5984 112.487 88.0529C111.996 87.4964 111.683 86.7097 111.605 85.838Z" fill="white"/>
<path d="M110.996 88.4115C110.998 88.4115 110.999 88.4108 111.001 88.4108C111.361 88.3512 112.039 88.0126 112.021 87.1567C112.005 86.3501 111.418 86.0246 111.019 85.9423L110.668 84.8973C110.625 84.7705 110.505 84.7095 110.4 84.7609C110.295 84.8123 110.245 84.9569 110.287 85.0837L110.683 86.2638C110.713 86.3515 110.781 86.4111 110.859 86.4179C110.889 86.4207 111.597 86.4947 111.61 87.169C111.623 87.7947 110.972 87.9153 110.944 87.9201C110.832 87.94 110.754 88.0647 110.77 88.1997C110.785 88.3327 110.885 88.4265 110.996 88.4115Z" fill="#322A23"/>
<path d="M111.381 84.7127C111.015 84.309 110.508 84.1994 110.053 84.4522C109.844 84.5681 110.002 84.9553 110.212 84.8388C110.51 84.6736 110.867 84.7264 111.112 84.9964C111.28 85.1814 111.551 84.8997 111.381 84.7127Z" fill="white"/>
<path d="M105.069 84.1089C103.939 82.8014 102.5 82.0702 100.931 82.0352C100.702 82.0297 100.673 82.4601 100.903 82.4656C102.374 82.4985 103.737 83.1632 104.799 84.3933C104.965 84.5838 105.236 84.3015 105.069 84.1089Z" fill="white"/>
<path d="M140.245 243.523L138.393 258.774C138.393 258.774 133.906 261.423 130.101 258.25L130.458 238.208L140.245 243.523Z" fill="#D6A184"/>
<path d="M156.39 272.488L128.483 272.489C128.439 271.974 128.423 271.449 128.423 270.913C128.423 270.677 128.437 270.446 128.434 270.21C128.362 265.595 128.437 255.938 130.187 257.36C131.9 261.026 136.393 259.485 136.393 259.485C136.393 259.485 139.184 255.062 141.081 256.403C142.977 257.743 140.81 260.291 143.248 262.569C145.118 264.312 147.459 263.309 150.222 263.947C151.067 264.141 151.946 264.489 152.867 265.116C155.013 266.58 155.864 268.639 156.199 270.21C156.471 271.518 156.39 272.488 156.39 272.488Z" fill="#AD70F8"/>
<path d="M128.747 262.285C131.779 263.959 134.088 266.985 135.177 270.795C135.332 271.335 136.046 271.102 135.891 270.557C134.741 266.537 132.331 263.287 129.121 261.514C128.691 261.277 128.315 262.045 128.747 262.285Z" fill="white"/>
<path d="M142.982 261.584C142.941 261.576 142.906 261.561 142.874 261.542C142.199 261.733 141.558 262.13 140.994 262.74C140.732 263.024 141.119 263.489 141.38 263.206C141.859 262.688 142.412 262.344 142.995 262.176C143.259 262.1 143.259 261.636 142.991 261.585C142.988 261.584 142.985 261.584 142.982 261.584Z" fill="white"/>
<path d="M143.969 262.235C143.928 262.228 143.893 262.213 143.862 262.194C143.187 262.385 142.545 262.782 141.982 263.392C141.72 263.676 142.107 264.141 142.369 263.858C142.848 263.339 143.4 262.995 143.983 262.828C144.248 262.752 144.248 262.288 143.979 262.237C143.976 262.237 143.972 262.236 143.969 262.235Z" fill="white"/>
<path d="M145.269 262.913C145.227 262.906 145.193 262.891 145.161 262.872C144.486 263.063 143.845 263.46 143.281 264.07C143.019 264.354 143.407 264.819 143.667 264.536C144.147 264.017 144.699 263.673 145.282 263.506C145.546 263.43 145.546 262.965 145.278 262.915C145.275 262.915 145.271 262.914 145.269 262.913Z" fill="white"/>
<path d="M146.838 263.225C146.798 263.218 146.763 263.203 146.731 263.184C146.056 263.375 145.414 263.772 144.851 264.382C144.589 264.666 144.977 265.131 145.237 264.849C145.717 264.33 146.269 263.986 146.852 263.819C147.116 263.743 147.116 263.278 146.848 263.227C146.845 263.226 146.842 263.225 146.838 263.225Z" fill="white"/>
<path d="M156.2 270.21H149.616C148.825 267.411 149.41 265.336 150.223 263.947C151.068 264.14 151.946 264.488 152.867 265.116C155.013 266.579 155.864 268.638 156.2 270.21Z" fill="white"/>
<path d="M156.389 272.488L128.482 272.489C128.439 271.974 128.423 271.448 128.423 270.913V270.21L156.2 270.209C156.471 271.518 156.389 272.488 156.389 272.488Z" fill="white"/>
<path d="M80.8933 177.846C80.8933 177.846 108.102 164.654 136.836 159.088C165.57 153.522 142.763 245.721 142.763 245.721L127.061 243.085C127.061 243.085 129.111 196.47 128.246 194.382C127.563 192.735 119.41 210.718 96.5922 211.46C66.6359 212.406 76.2215 187.247 80.8933 177.846Z" fill="#5C81F5"/>
<path d="M130.896 237.383C131.751 228.209 132.399 219.007 132.877 209.793C133.115 205.207 133.311 200.617 133.461 196.024C133.552 193.234 134.047 188.959 131.461 187.487C128.76 185.95 126.285 188.786 124.495 190.838C122.065 193.623 119.269 195.839 116.232 197.539C110.019 201.018 102.981 202.525 96.1856 203.086C88.8493 203.692 79.349 201.594 77.0577 191.662C76.9316 191.114 76.2244 191.347 76.3511 191.897C77.9744 198.933 83.7146 202.855 89.3906 203.794C92.9435 204.381 96.5503 204.03 100.092 203.503C103.133 203.051 106.161 202.424 109.127 201.49C115.351 199.53 120.906 196.161 125.582 190.801C126.896 189.295 128.542 187.578 130.509 188.041C132.502 188.51 132.811 191.027 132.809 193.059C132.805 197.518 132.521 202.004 132.31 206.455C131.821 216.784 131.121 227.101 130.162 237.383C130.111 237.947 130.843 237.943 130.896 237.383Z" fill="#7B33D4"/>
<path d="M126.327 236.899V244.505L143.194 247.104L144.897 239.931L126.327 236.899Z" fill="#7B33D4"/>
<path d="M94.9811 171.416C93.4918 175.38 91.4822 179.019 88.9756 182.156C87.3659 184.17 81.6893 191.203 79.6582 186.572C79.4378 186.069 78.805 186.515 79.0254 187.018C81.0554 191.645 85.8249 186.868 87.7817 184.766C91.1153 181.184 93.7724 176.763 95.6138 171.862C95.8064 171.348 95.1754 170.898 94.9811 171.416Z" fill="#7B33D4"/>
<path d="M151.197 198.271C151.803 190.746 152.414 183.221 153.013 175.695C153.427 170.505 153.487 163.67 148.696 161.377C148.258 161.167 148.068 162.022 148.502 162.23C153.773 164.753 152.473 173.303 152.048 178.59C151.52 185.15 150.992 191.711 150.465 198.271C150.419 198.837 151.152 198.833 151.197 198.271Z" fill="#7B33D4"/>
<path d="M80.2437 121.48C80.2437 121.48 79.6871 125.587 79.315 131.228C79.2287 132.539 79.152 133.932 79.0952 135.376C78.7987 142.806 79.0151 151.573 81.0042 157.273C85.3324 169.673 115.854 174.112 115.854 174.112L117.825 167.478C117.825 167.478 97.6597 157.387 91.4134 150.369C90.1025 148.895 91.5634 141.115 92.8618 135.417C92.8823 135.331 92.9016 135.247 92.9209 135.163C93.6934 131.795 94.3937 129.215 94.3937 129.215L80.2437 121.48Z" fill="#D6A184"/>
<path d="M113.415 167.321C112.116 169.208 112.434 172.009 113.953 173.639C114.754 174.499 115.568 175.532 116.004 176.545C117.05 178.977 117.727 182.2 118.543 183.248C119.748 184.794 119.877 182.511 119.86 182.225C119.755 180.396 119.249 177.901 119.249 177.901C119.249 177.901 121.053 182.015 121.177 183.843C121.301 185.671 122.432 186.602 123.124 184.816C123.816 183.031 122.61 177.997 121.964 176.712C121.964 176.712 123.619 178.904 123.855 181.373C124.091 183.842 124.45 184.687 124.946 185.497C125.441 186.307 126.683 184.949 126.28 181.513C125.877 178.077 125.008 176.882 124.186 175.512C124.186 175.512 125.148 176.244 126.476 177.83C127.803 179.416 127.888 182.295 128.946 182.728C130.029 183.17 129.811 179.859 129.013 178.098C128.216 176.337 127.759 174.974 126.108 173.359C124.456 171.744 122.831 170.269 121.65 169.589C120.468 168.908 116.531 165.822 114.68 166.27C114.207 166.384 113.784 166.786 113.415 167.321Z" fill="#D6A184"/>
<path d="M118.414 167.61C118.414 167.61 122.392 168.096 123.486 169.049C124.581 170.001 126.654 170.737 126.186 171.676C125.717 172.616 123.189 171.628 123.189 171.628L118.414 167.61Z" fill="#D6A184"/>
<path d="M92.8633 152.594C91.7023 151.982 90.5305 151.591 89.273 151.399C88.8862 151.34 88.8811 150.597 89.273 150.658C90.643 150.867 91.9079 151.286 93.1734 151.954C93.5347 152.145 93.2223 152.784 92.8633 152.594Z" fill="#C46F5C"/>
<path d="M82.2678 110.883C79.8077 116.04 77.5488 124.485 78.2849 133.459L95.3403 132.802C95.3403 132.802 97.3306 123.199 96.6529 114.937C96.2235 109.699 94.0748 107.221 91.6625 106.127C87.7762 104.368 84.3381 106.543 82.2678 110.883Z" fill="#EF595C"/>
<path d="M94.8355 114.23C95.5739 120.234 95.2462 126.304 93.8932 132.147C93.7659 132.696 94.4731 132.93 94.5998 132.382C95.9897 126.38 96.3004 120.159 95.5421 113.995C95.4728 113.435 94.7668 113.673 94.8355 114.23Z" fill="#5C81F5"/>
<path d="M222.468 96.3707C209.332 94.3183 198.838 102.083 198.731 113.899C198.664 121.26 201.056 126.609 209.679 130.829L221.49 146.166L217.982 132.521C230.468 130.748 234.6 122.343 235.164 113.271C235.653 105.399 230.913 97.6899 222.468 96.3707ZM210.293 116.749C208.843 118.116 206.647 117.748 205.551 115.978C204.455 114.206 205.294 111.603 206.635 110.355C209.772 107.44 213.399 113.82 210.293 116.749ZM221.139 114.904C220.913 116.892 219.348 118.325 217.699 118.053C216.05 117.78 214.863 115.892 215.089 113.903C215.315 111.914 216.88 110.481 218.528 110.754C220.178 111.026 221.365 112.914 221.139 114.904ZM229.945 114.712C229.722 116.669 228.183 118.079 226.561 117.811C224.939 117.543 223.771 115.685 223.993 113.727C224.215 111.77 225.755 110.36 227.377 110.628C228.999 110.897 230.167 112.754 229.945 114.712Z" fill="#5C81F5"/>
<path d="M135.255 41.3169C124.082 40.5315 113.954 45.8426 115.433 57.9791C116.617 66.9043 121.142 70.4007 127.562 70.9455L124.455 86.6476L134.071 70.5891C164.289 73.9759 157.821 42.9033 135.255 41.3169ZM124.948 58.4012C122.342 58.4012 122.342 53.5247 124.948 53.5247C127.553 53.5247 127.553 58.4012 124.948 58.4012ZM133.353 59.0653C130.454 59.0653 130.454 53.6412 133.353 53.6412C136.253 53.6412 136.253 59.0653 133.353 59.0653ZM142.487 58.7487C139.718 58.7487 139.718 53.5679 142.487 53.5679C145.255 53.5679 145.255 58.7487 142.487 58.7487Z" fill="#5C81F5"/>
<path d="M317 108.993C309.907 100.579 304.667 89.9093 301.984 78.3196C298.19 61.9329 299.978 44.2976 306.509 29.2637C309.253 22.9467 312.793 17.1738 317 12.1944V10.9355C307.905 21.4205 301.809 35.5786 299.883 50.5955C297.728 67.3995 301.156 84.673 308.991 98.7591C311.312 102.932 314.001 106.787 317 110.251V108.993H317Z" fill="#FFF07A"/>
<path d="M33 206.914C40.0932 198.501 45.3324 187.831 48.0156 176.241C51.8093 159.855 50.0213 142.219 43.491 127.185C40.747 120.869 37.2077 115.096 33 110.117V108.858C42.0942 119.343 48.1912 133.502 50.1167 148.518C52.2717 165.322 48.8432 182.595 41.0082 196.682C38.6874 200.854 35.999 204.71 33 208.173V206.914Z" fill="#FFF07A"/>
<defs>
<linearGradient id="paint0_linear_511_10895" x1="175" y1="-15.0128" x2="175" y2="330.5" gradientUnits="userSpaceOnUse">
<stop stop-color="#D6E2FC"/>
<stop offset="0.415" stop-color="#A4BBEC" stop-opacity="0"/>
</linearGradient>
</defs>
</svg>
