<svg width="350" height="331" viewBox="0 0 350 331" fill="none" xmlns="http://www.w3.org/2000/svg">
<ellipse cx="175" cy="165.5" rx="175" ry="165" transform="rotate(-180 175 165.5)" fill="url(#paint0_linear_511_10895)"/>
<path d="M63.3735 64.0094C63.3735 64.0094 63.3735 46.383 72.7893 46.4858C80.4442 46.5694 85.4704 60.1656 90.3365 60.4945C100.035 61.1497 97.4655 55.2473 103.635 55.2473C108.89 55.2473 116.496 64.0094 116.496 64.0094H63.3735Z" fill="#CDEAF8"/>
<path d="M220.489 107.26C220.489 107.26 220.489 85.3031 232.217 85.4312C241.752 85.5354 248.013 102.472 254.075 102.882C266.156 103.698 262.955 96.3452 270.64 96.3452C277.187 96.3452 286.661 107.26 286.661 107.26H220.489Z" fill="#CDEAF8"/>
<path d="M264.906 23.3017C264.27 20.32 261.051 14.5279 256.923 15.2762C252.986 15.9896 251.966 19.7347 249.488 19.3784C245.333 18.7808 245.133 3.48576 234.014 3.50563C224.463 3.52277 218.202 17.1765 214.495 18.4868C210.789 19.7971 210.318 16.4995 205.156 15.488C199.589 14.3977 194.304 20.5578 193.011 23.3017H264.906Z" fill="#CDEAF8"/>
<path d="M70.7623 162.96C67.1129 163.533 66.3342 164.473 65.8605 168.877C65.8309 169.15 65.5026 169.15 65.4731 168.877C64.9982 164.474 64.2189 163.535 60.569 162.964C60.3429 162.928 60.3429 162.532 60.569 162.496C64.2184 161.923 64.9971 160.983 65.4708 156.58C65.5003 156.307 65.8286 156.307 65.8582 156.58C66.333 160.983 67.1123 161.923 70.7623 162.494C70.9884 162.529 70.9884 162.925 70.7623 162.96Z" fill="#FFF07A"/>
<path d="M217.776 85.5846C214.127 86.1575 213.347 87.0977 212.874 91.5014C212.845 91.7741 212.516 91.7741 212.487 91.5014C212.012 87.0984 211.233 86.1589 207.583 85.5873C207.357 85.5517 207.357 85.1556 207.583 85.1206C211.232 84.5477 212.011 83.6075 212.484 79.2038C212.514 78.9311 212.842 78.9311 212.872 79.2038C213.347 83.6068 214.126 84.5464 217.776 85.1179C218.002 85.1529 218.002 85.5489 217.776 85.5846Z" fill="#FFF07A"/>
<path opacity="0.5" d="M102.52 29.7649C100.443 29.7649 98.7524 27.7262 98.7524 25.2194C98.7524 22.7126 100.442 20.6738 102.52 20.6738C104.597 20.6738 106.288 22.7126 106.288 25.2194C106.288 27.7262 104.597 29.7649 102.52 29.7649ZM102.52 21.4736C100.808 21.4736 99.4153 23.1539 99.4153 25.2194C99.4153 27.2848 100.808 28.9652 102.52 28.9652C104.232 28.9652 105.625 27.2848 105.625 25.2194C105.625 23.1539 104.232 21.4736 102.52 21.4736Z" fill="#AD70F8"/>
<path opacity="0.5" d="M283.017 159.315C280.94 159.315 279.25 157.276 279.25 154.769C279.25 152.263 280.939 150.224 283.017 150.224C285.095 150.224 286.785 152.262 286.785 154.769C286.785 157.276 285.095 159.315 283.017 159.315ZM283.017 151.023C281.305 151.023 279.912 152.704 279.912 154.769C279.912 156.835 281.305 158.515 283.017 158.515C284.729 158.515 286.122 156.835 286.122 154.769C286.122 152.704 284.729 151.023 283.017 151.023Z" fill="#AD70F8"/>
<path opacity="0.5" d="M293.956 52.0564C291.878 52.0564 290.188 50.0177 290.188 47.5109C290.188 45.0048 291.878 42.9653 293.956 42.9653C296.033 42.9653 297.723 45.0041 297.723 47.5109C297.723 50.0177 296.033 52.0564 293.956 52.0564ZM293.956 43.7651C292.244 43.7651 290.851 45.4454 290.851 47.5109C290.851 49.5763 292.244 51.2567 293.956 51.2567C295.667 51.2567 297.06 49.5763 297.06 47.5109C297.06 45.4454 295.667 43.7651 293.956 43.7651Z" fill="#AD70F8"/>
<path d="M175.437 247.099C167.806 199.77 198.779 156.31 238.731 157.471C252.864 157.882 268.832 161.219 279.523 172.163C302.78 195.968 305.475 264.203 280.616 270.922C244.954 280.561 205.286 273.162 193.315 271.985C189.2 271.58 177.557 260.243 175.437 247.099Z" fill="#AACBFF"/>
<path d="M280.894 174.755C290.718 198.767 291.546 227.573 283.714 252.563C281.511 259.591 278.627 266.283 275.101 272.476C274.836 272.942 274.201 272.5 274.469 272.03C286.894 250.21 291.086 222.203 286.408 196.404C285.077 189.065 283.018 181.938 280.262 175.2C280.054 174.693 280.685 174.245 280.894 174.755Z" fill="#A82C6D"/>
<path d="M262.7 168.517C262.7 168.517 282.349 177.787 278.593 204.04C276.352 219.701 254.546 215.581 236.137 214.21C217.728 212.838 205.835 198.375 212.589 190.244C219.342 182.113 262.7 168.517 262.7 168.517Z" fill="#AACBFF"/>
<path d="M237.519 202.594C237.519 202.594 237.786 202.735 239.956 203.759C242.127 204.784 239.356 209.174 238.411 210.92C238.075 211.543 237.724 210.289 237.843 208.447C237.963 206.604 236.798 209.03 235.041 210.818C232.719 213.179 231.914 213.61 231 214.477C229.747 215.668 229.965 213.928 232.939 209.936C234.364 208.024 233.969 204.388 233.969 204.388L237.519 202.594Z" fill="#D6A184"/>
<path d="M248.949 162.014C251.417 156.301 245.397 148.291 240.265 153.887C236.379 158.123 233.986 165.777 231.371 175.389C226.429 193.556 233.009 205.238 233.009 205.238L238.814 203.099C238.814 203.099 235.518 192.243 238.179 181.624C239.635 175.81 246.619 167.409 248.949 162.014Z" fill="#70D2AF"/>
<path d="M238.022 181.638C237.148 180.838 236.089 180.557 235.01 180.76C234.762 180.807 234.826 181.273 235.076 181.226C236.055 181.042 236.999 181.294 237.792 182.019C237.993 182.204 238.223 181.822 238.022 181.638Z" fill="#4687BD"/>
<path d="M231.202 177.188C233.433 179.719 232.588 184.057 229.726 185.24C229.488 185.338 229.651 185.768 229.888 185.67C233.066 184.357 233.853 179.553 231.433 176.807C231.249 176.599 231.021 176.983 231.202 177.188Z" fill="#4687BD"/>
<path d="M238.008 200.656C235.94 200.937 233.864 201.396 231.847 202.02C231.605 202.095 231.668 202.561 231.912 202.485C233.929 201.861 236.004 201.402 238.074 201.122C238.323 201.088 238.258 200.622 238.008 200.656Z" fill="#4687BD"/>
<path d="M213.844 223.331L210.203 228.835L205.202 225.526L208.469 219.134L213.844 223.331Z" fill="#D6A184"/>
<path d="M207.275 240.525L189.271 228.522C189.271 228.522 189.433 227.729 189.911 226.832C190.398 225.917 191.215 224.892 192.523 224.483C194.379 223.903 198.031 225.387 199.957 226.278C200.429 226.497 200.941 226.274 201.247 225.789C201.263 225.763 201.28 225.739 201.299 225.715C201.682 225.229 202.229 224.607 202.889 224.06C203.653 223.427 204.677 223.521 205.352 224.285C206.038 225.06 206.937 226.052 207.785 226.9C209.468 228.587 212.089 226.948 211.893 228.652C211.747 229.926 209.238 235.93 207.98 238.881C207.557 239.876 207.275 240.525 207.275 240.525Z" fill="#91CAFA"/>
<path d="M209.447 231.808C207.033 231.648 205.016 233.57 204.605 236.445C204.549 236.844 204.041 236.696 204.098 236.297C204.546 233.165 206.798 231.005 209.43 231.179C209.762 231.201 209.783 231.83 209.447 231.808Z" fill="#5C81F5"/>
<path d="M207.981 238.88C207.557 239.876 207.275 240.524 207.275 240.524L189.271 228.522C189.271 228.522 189.433 227.729 189.911 226.832L196.911 231.498C196.911 231.498 197.913 230.332 199.892 231.37C201.872 232.408 201.389 234.484 203.159 234.959C204.93 235.434 205.872 234.652 207.265 235.44C208.659 236.227 207.981 238.88 207.981 238.88Z" fill="white"/>
<path d="M260.136 193.522C260.136 193.522 260.163 207.442 250.86 210.166C241.556 212.89 229.385 210.694 227.37 211.79C224.536 213.332 213.069 228.756 213.069 228.756C213.069 228.756 207.492 226.813 203.908 222.887C202.947 221.836 219.363 197.758 222.727 196.041C226.091 194.323 239.18 190.243 239.18 190.243L260.136 193.522Z" fill="#5D6E76"/>
<path d="M256.313 194.85C255.6 199.106 253.855 203.299 250.797 205.77C247.348 208.556 243.087 208.49 239.112 208.218C235.95 208.003 232.759 207.979 229.594 208.126C226.894 208.252 224.459 209.93 222.183 211.59C217.939 214.687 214.875 219.466 211.846 224.103C211.732 224.277 211.525 224.04 211.638 223.868C214.22 219.917 216.841 215.68 220.254 212.709C221.72 211.433 223.307 210.351 224.935 209.406C225.919 208.834 226.986 208.158 228.07 207.915C229.011 207.704 230.027 207.758 230.978 207.737C232.599 207.7 234.222 207.704 235.843 207.739C239.691 207.824 243.635 208.554 247.401 207.256C252.232 205.592 255.077 200.495 256.035 194.77C256.072 194.553 256.349 194.633 256.313 194.85Z" fill="#3D4A79"/>
<path d="M205.897 219.635C208.5 222.341 211.495 224.293 214.753 225.592C214.926 225.661 214.861 225.997 214.686 225.927C211.385 224.61 208.341 222.628 205.702 219.886C205.563 219.741 205.758 219.491 205.897 219.635Z" fill="#3D4A79"/>
<path d="M269.692 125.212C269.692 125.212 273.383 126.182 272.902 128.677C272.421 131.173 268.435 128.131 268.435 128.131L269.692 125.212Z" fill="#7B33D4"/>
<path d="M219.366 230.601L216.415 236.678L211.073 234.266L213.548 227.376L219.366 230.601Z" fill="#D6A184"/>
<path d="M214.904 248.753L195.662 239.982C195.662 239.982 195.728 239.17 196.095 238.199C196.468 237.21 197.155 236.054 198.402 235.423C200.169 234.529 203.96 235.367 205.971 235.916C206.465 236.051 206.944 235.742 207.19 235.209C207.203 235.181 207.218 235.153 207.233 235.126C207.554 234.58 208.023 233.87 208.611 233.214C209.292 232.456 210.317 232.372 211.076 233.012C211.847 233.661 212.854 234.487 213.794 235.181C215.66 236.559 218.06 234.485 218.068 236.205C218.074 237.491 216.303 243.867 215.409 247.004C215.106 248.063 214.904 248.753 214.904 248.753Z" fill="#91CAFA"/>
<path d="M216.616 240.274C214.102 239.715 211.732 241.449 211.005 244.404C210.909 244.79 210.401 244.646 210.497 244.256C211.308 240.963 213.937 239.039 216.738 239.662C217.068 239.735 216.946 240.347 216.616 240.274Z" fill="#5C81F5"/>
<path d="M215.408 247.003C215.106 248.063 214.904 248.753 214.904 248.753L195.662 239.982C195.662 239.982 195.728 239.17 196.095 238.2L203.576 241.61C203.576 241.61 204.429 240.283 206.512 240.969C208.594 241.654 208.362 243.792 210.171 243.956C211.979 244.121 212.819 243.184 214.291 243.723C215.764 244.261 215.408 247.003 215.408 247.003Z" fill="white"/>
<path d="M267.069 198.758C267.069 198.758 267.097 212.679 257.793 215.403C248.491 218.127 236.318 215.93 234.304 217.026C231.469 218.568 220.003 233.993 220.003 233.993C220.003 233.993 214.426 232.049 210.841 228.124C209.881 227.073 226.297 202.995 229.661 201.278C233.025 199.56 246.113 195.48 246.113 195.48L267.069 198.758Z" fill="#5D6E76"/>
<path d="M263.247 200.087C262.534 204.343 260.789 208.536 257.731 211.007C254.282 213.793 250.021 213.727 246.046 213.456C242.884 213.24 239.692 213.216 236.529 213.363C233.829 213.489 231.393 215.168 229.117 216.827C224.873 219.924 221.809 224.703 218.78 229.34C218.666 229.514 218.459 229.278 218.572 229.105C221.154 225.154 223.775 220.917 227.188 217.946C228.654 216.671 230.241 215.588 231.869 214.643C232.854 214.071 233.92 213.395 235.005 213.152C235.945 212.941 236.961 212.995 237.912 212.974C239.533 212.938 241.156 212.941 242.777 212.977C246.625 213.062 250.569 213.792 254.335 212.494C259.165 210.83 262.01 205.733 262.969 200.007C263.006 199.79 263.283 199.87 263.247 200.087Z" fill="#3D4A79"/>
<path d="M212.831 224.871C215.435 227.576 218.429 229.529 221.687 230.828C221.86 230.897 221.795 231.232 221.62 231.162C218.318 229.846 215.274 227.863 212.636 225.122C212.496 224.977 212.692 224.727 212.831 224.871Z" fill="#3D4A79"/>
<path d="M267.512 198.535C252.546 204.321 245.318 194.4 239.016 192.211C237.588 191.716 241.668 154.926 243.433 152.985C244.964 151.302 246.988 150.519 248.689 150.162C250.561 149.768 252.043 149.889 252.043 149.889L259.142 149.726C259.142 149.726 260.477 149.759 262.129 150.378C264.903 151.419 268.975 152.802 270.303 154.747C274.46 160.833 271.526 187.858 267.512 198.535Z" fill="#70D2AF"/>
<g opacity="0.5">
<path d="M243.038 183.43C247.256 186.504 251.092 190.266 254.441 194.627C254.669 194.923 254.314 195.384 254.085 195.086C250.765 190.764 246.971 187.03 242.79 183.983C242.503 183.775 242.749 183.22 243.038 183.43Z" fill="#5C81F5"/>
</g>
<g opacity="0.5">
<path d="M245.232 169.587C249.37 175.304 255.164 178.999 261.409 179.909C261.742 179.957 261.618 180.569 261.287 180.521C254.966 179.6 249.064 175.833 244.876 170.046C244.657 169.744 245.011 169.281 245.232 169.587Z" fill="#5C81F5"/>
</g>
<path opacity="0.5" d="M249.178 155.132C251.319 157.148 254.247 157.703 256.801 156.596C257.063 156.482 256.892 156.001 256.63 156.115C254.222 157.159 251.457 156.614 249.442 154.716C249.221 154.509 248.958 154.925 249.178 155.132Z" fill="#5C81F5"/>
<path d="M259.7 151.876C259.67 153.617 250.168 153.38 250.198 151.639L250.309 149.984L250.558 146.236L255.726 144.334L260.706 142.502L259.7 151.876Z" fill="#D6A184"/>
<path d="M260.303 144.636C260.303 144.636 257.359 150.888 250.309 149.985L250.559 146.237L255.726 144.335L260.303 144.636Z" fill="#202020"/>
<path d="M245.599 125.688C245.599 125.688 245.052 116.785 249.135 113.789C256.895 108.097 269.214 114.795 269.271 126.383C269.323 137.152 264.926 140.403 264.926 140.403L245.599 125.688Z" fill="#202020"/>
<path d="M243.798 128.481C244.164 127.285 244.836 126.251 245.747 125.606C246.704 124.929 248.095 124.534 249.752 125.807C252.953 128.265 250.27 137.149 245.384 135.168C245.384 135.168 242.509 132.693 243.798 128.481Z" fill="#C46F5C"/>
<path d="M267.119 132.72C267.119 132.72 265.042 149.228 253.255 147.156C241.467 145.083 242.391 134.983 245.391 129.439C245.391 129.439 245.111 119.303 249.797 117.378C254.482 115.453 268.851 116.013 267.119 132.72Z" fill="#D6A184"/>
<path d="M245.729 125.088C245.729 125.088 246.832 120.487 247.953 119.644C247.953 119.644 254.784 118.76 261.039 123.936C267.295 129.111 267.63 126.917 267.63 126.917C267.63 126.917 267.584 117.521 256.846 115.718C247.932 114.222 245.858 118.2 245.729 125.088Z" fill="#202020"/>
<path d="M254.203 132.481C254.512 131.707 255.325 131.713 255.707 132.392C255.94 132.806 256.447 132.328 256.215 131.916C255.545 130.724 254.114 130.918 253.609 132.183C253.429 132.634 254.024 132.929 254.203 132.481Z" fill="#202020"/>
<path d="M249.916 131.625C249.684 130.248 248.337 129.636 247.445 130.592C247.136 130.922 247.529 131.537 247.839 131.204C248.349 130.658 249.138 130.897 249.28 131.737C249.361 132.223 249.998 132.117 249.916 131.625Z" fill="#202020"/>
<path d="M255.395 128.805C255.522 128.817 255.646 128.835 255.771 128.864C256.039 128.925 255.633 128.785 255.885 128.907C255.989 128.957 256.09 129.007 256.191 129.064C256.251 129.103 256.248 129.098 256.183 129.05C256.237 129.09 256.29 129.131 256.342 129.175C256.67 129.449 256.863 129.735 257.002 130.099C257.22 130.671 257.784 130.966 258.273 130.713C258.745 130.469 259 129.756 258.781 129.18C258.213 127.688 257.005 126.612 255.635 126.489C255.132 126.444 254.598 126.852 254.555 127.503C254.515 128.107 254.854 128.757 255.395 128.805Z" fill="#202020"/>
<path d="M250.131 125.866C248.887 125.136 247.398 125.354 246.281 126.303C245.853 126.666 245.801 127.46 246.111 127.941C246.445 128.46 247.04 128.51 247.469 128.146C247.52 128.101 247.573 128.058 247.627 128.018C247.55 128.074 247.562 128.069 247.663 128.004C247.75 127.959 247.837 127.914 247.925 127.871C248.035 127.828 248.045 127.822 247.957 127.853C248.003 127.839 248.049 127.826 248.096 127.816C248.205 127.79 248.315 127.778 248.425 127.761C248.64 127.725 248.347 127.735 248.546 127.756C248.672 127.77 248.797 127.791 248.923 127.811C249.119 127.841 248.839 127.752 249.039 127.846C249.157 127.902 249.274 127.956 249.388 128.024C249.844 128.291 250.482 127.961 250.653 127.393C250.842 126.768 250.619 126.152 250.131 125.866Z" fill="#202020"/>
<path d="M250.83 140.961C251.669 141.646 252.769 141.727 253.66 141.133C253.861 140.999 253.721 140.596 253.518 140.733C252.742 141.251 251.788 141.219 251.05 140.615C250.858 140.458 250.638 140.803 250.83 140.961Z" fill="#C46F5C"/>
<g opacity="0.5">
<path d="M248.412 133.625C248.329 134.421 247.394 134.934 246.323 134.772C245.251 134.611 244.45 133.835 244.532 133.039C244.615 132.244 245.55 131.73 246.621 131.892C247.693 132.054 248.495 132.83 248.412 133.625Z" fill="#C46F5C"/>
</g>
<g opacity="0.5">
<path d="M258.305 135.756C258.222 136.552 257.287 137.065 256.216 136.903C255.144 136.742 254.343 135.966 254.425 135.17C254.508 134.375 255.443 133.861 256.514 134.023C257.586 134.185 258.387 134.961 258.305 135.756Z" fill="#C46F5C"/>
</g>
<path d="M263.456 131.216C263.456 131.216 265.035 127.758 268.235 130.216C271.435 132.675 268.065 141.712 263.179 139.731C263.179 139.731 260.993 136.256 263.456 131.216Z" fill="#D6A184"/>
<path d="M267.515 133.394C266.102 134.082 264.992 135.44 264.428 137.145C264.324 137.459 263.932 137.232 264.035 136.918C264.641 135.089 265.852 133.637 267.365 132.901C267.625 132.774 267.774 133.268 267.515 133.394Z" fill="#202020"/>
<path d="M261.096 125.886C261.096 125.886 259.954 130.467 261.678 130.216C261.678 130.216 259.999 133.546 261.252 134.32C262.505 135.094 263.475 132.169 263.475 132.169C263.475 132.169 264.951 129.08 267.219 129.445C267.495 128.718 267.487 126.985 267.107 125.98L259.03 122.428L261.096 125.886Z" fill="#202020"/>
<path d="M251.661 127.985C251.787 128.867 251.728 129.771 251.475 130.615C251.214 131.485 250.762 132.109 250.266 132.791C249.861 133.347 249.604 134.026 249.863 134.752C250.141 135.531 250.796 135.911 251.435 136.131C251.656 136.207 251.796 135.806 251.574 135.729C250.951 135.515 250.157 135.093 250.113 134.184C250.075 133.375 250.811 132.786 251.173 132.206C251.929 130.99 252.231 129.417 252.019 127.922C251.979 127.646 251.621 127.707 251.661 127.985Z" fill="#202020"/>
<path d="M261.593 137.629C261.962 139.44 263.388 140.604 264.922 140.311C265.151 140.268 265.1 139.837 264.87 139.88C263.542 140.133 262.272 139.149 261.949 137.566C261.895 137.297 261.537 137.356 261.593 137.629Z" fill="#202020"/>
<path d="M252.365 138.297C252.555 139.161 252.356 139.975 251.92 140.115C251.484 140.255 250.975 139.669 250.784 138.805C250.593 137.942 250.792 137.128 251.229 136.988C251.665 136.848 252.174 137.434 252.365 138.297Z" fill="white"/>
<path d="M269.321 128.084C269.321 128.084 273.99 114.569 261.597 110.845C249.844 107.313 246.867 116.894 246.867 116.894C244.387 118.122 253.156 123.67 261.221 124.15C261.221 124.15 266.737 125.709 269.321 128.084Z" fill="#AD70F8"/>
<path d="M252.304 116.679C252.36 118.744 253.793 120.363 255.505 120.295C257.216 120.227 258.558 118.499 258.502 116.433C258.446 114.368 257.013 112.749 255.301 112.817C253.589 112.885 252.248 114.614 252.304 116.679Z" fill="#7B33D4"/>
<path d="M262.89 124.86C262.89 124.86 247.045 110.078 241.377 112.277C235.708 114.476 245.756 121.475 245.756 121.475C245.756 121.475 251.536 123.221 262.89 124.86Z" fill="#202020"/>
<path d="M262.432 111.441C265.691 115.267 264.454 121.031 262.626 125.33C262.473 125.691 262.014 125.392 262.167 125.031C263.879 121.003 265.155 115.516 262.075 111.901C261.835 111.618 262.191 111.158 262.432 111.441Z" fill="#202020"/>
<path d="M271.397 204.525C271.397 204.525 271.123 204.644 268.9 205.487C266.677 206.332 269.193 210.939 270.038 212.759C270.338 213.407 270.759 212.186 270.743 210.337C270.728 208.489 271.754 211.006 273.406 212.932C275.589 215.479 276.368 215.975 277.23 216.915C278.414 218.206 278.294 216.453 275.551 212.226C274.237 210.2 274.837 206.605 274.837 206.605L271.397 204.525Z" fill="#D6A184"/>
<path d="M262.282 163.102C260.142 157.2 266.599 149.702 271.404 155.706C275.041 160.251 276.998 168.084 279.065 177.888C282.972 196.419 275.749 207.534 275.749 207.534L270.078 204.924C270.078 204.924 273.977 194.365 271.922 183.551C270.796 177.63 264.302 168.675 262.282 163.102Z" fill="#70D2AF"/>
<path d="M272.076 183.577C272.994 182.85 274.066 182.658 275.131 182.948C275.376 183.015 275.285 183.474 275.04 183.407C274.073 183.143 273.117 183.317 272.285 183.976C272.074 184.143 271.866 183.744 272.076 183.577Z" fill="#4687BD"/>
<path d="M279.132 179.697C276.763 182.038 277.362 186.436 280.151 187.851C280.383 187.969 280.195 188.383 279.965 188.266C276.869 186.695 276.353 181.838 278.924 179.298C279.118 179.105 279.325 179.507 279.132 179.697Z" fill="#4687BD"/>
<path d="M271.018 202.552C273.067 203 275.111 203.63 277.088 204.418C277.325 204.512 277.236 204.972 276.997 204.877C275.02 204.089 272.975 203.46 270.927 203.011C270.679 202.957 270.771 202.497 271.018 202.552Z" fill="#4687BD"/>
<g opacity="0.5">
<path d="M269.103 168.397C269.709 179.083 268.114 189.834 264.486 199.609C264.349 199.978 263.89 199.678 264.027 199.309C267.618 189.635 269.182 178.992 268.581 168.417C268.559 168.014 269.08 167.993 269.103 168.397Z" fill="#5C81F5"/>
</g>
<path d="M174.63 247.082C182.265 199.727 151.276 156.244 111.302 157.406C97.1603 157.817 81.1841 161.156 70.487 172.105C47.2166 195.923 44.5203 264.196 69.393 270.918C105.075 280.563 144.764 273.16 156.742 271.982C160.859 271.577 172.509 260.234 174.63 247.082Z" fill="#AACBFF"/>
<path d="M69.1155 174.699C59.2868 198.724 58.457 227.546 66.2937 252.55C68.4975 259.581 71.3835 266.277 74.912 272.474C75.1772 272.94 75.8122 272.498 75.5447 272.028C63.1129 250.196 58.9182 222.173 63.5991 196.36C64.9311 189.016 66.9906 181.885 69.7483 175.145C69.9562 174.637 69.3245 174.189 69.1155 174.699Z" fill="#A82C6D"/>
<path d="M87.3196 168.458C87.3196 168.458 67.66 177.732 71.4179 204C73.6598 219.669 95.4778 215.547 113.897 214.175C132.317 212.803 144.216 198.331 137.459 190.196C130.701 182.061 87.3196 168.458 87.3196 168.458Z" fill="#AACBFF"/>
<path d="M121.144 134.669C121.144 134.669 134.585 150.189 141.96 151.038C152.706 152.277 158.581 107.292 158.581 107.292L153.479 105.901L140.524 132.701L127.999 119.787L121.144 134.669Z" fill="#D6A184"/>
<path d="M152.581 107.129C152.581 107.129 151.096 104.044 151.54 101C151.983 97.9557 151.765 95.3681 152.205 93.1354C152.645 90.9027 153.586 93.7097 153.871 95.3489C154.157 96.9881 154.492 98.8425 155.332 98.3272C156.171 97.8111 160.913 88.914 162.133 88.3849C163.353 87.8559 162.902 89.6294 162.902 89.6294C162.902 89.6294 163.976 87.6455 164.812 87.9409C165.648 88.2369 165.236 89.7651 165.236 89.7651C165.236 89.7651 165.99 88.4685 166.57 89.3135C167.151 90.1585 163.807 98.467 164.262 98.776C164.718 99.0851 165.398 93.7617 166.476 93.8597C167.554 93.9577 166.439 96.9977 165.782 99.5353C165.125 102.073 163.86 104.469 162.166 105.852C160.474 107.236 158.138 110.804 156.049 109.66C153.959 108.515 152.581 107.129 152.581 107.129Z" fill="#D6A184"/>
<path d="M165.108 89.5047C163.846 91.8724 162.645 94.2922 161.51 96.7524C161.376 97.043 161.771 97.2431 161.904 96.9552C163.021 94.5334 164.203 92.152 165.446 89.8207C165.594 89.5438 165.257 89.2251 165.108 89.5047Z" fill="#C46F5C"/>
<path d="M162.782 89.6663C161.69 91.3528 160.768 93.1661 160.015 95.1034C159.898 95.405 160.291 95.6064 160.408 95.3063C161.146 93.4087 162.05 91.6345 163.119 89.9829C163.289 89.7205 162.951 89.4039 162.782 89.6663Z" fill="#C46F5C"/>
<path d="M163.186 98.1867C161.98 96.5913 160.519 95.3865 158.843 94.6259C158.586 94.5087 158.417 94.9836 158.675 95.1008C160.28 95.8292 161.691 96.9723 162.847 98.5012C163.031 98.7445 163.372 98.4327 163.186 98.1867Z" fill="#C46F5C"/>
<path d="M159.363 98.1394C157.004 99.6285 155.711 102.553 156.009 105.75C156.039 106.081 156.464 106.016 156.433 105.686C156.158 102.734 157.343 99.9951 159.527 98.6163C159.769 98.4628 159.607 97.9845 159.363 98.1394Z" fill="#C46F5C"/>
<path d="M140.152 132.657C139.148 134.582 138.612 136.689 138.521 138.958C138.509 139.256 138.893 139.214 138.905 138.919C138.993 136.737 139.537 134.705 140.5 132.857C140.631 132.605 140.282 132.407 140.152 132.657Z" fill="#C46F5C"/>
<path d="M139.285 134.464C138.624 134.646 137.993 134.917 137.384 135.281C137.164 135.412 137.295 135.85 137.517 135.717C138.125 135.353 138.757 135.083 139.418 134.9C139.66 134.834 139.524 134.397 139.285 134.464Z" fill="#C46F5C"/>
<path d="M121.464 114.057L128.872 119.859L123.637 134.739L119.119 128.881C119.119 128.881 113.857 114.736 121.464 114.057Z" fill="#E1D685"/>
<path d="M75.8534 125.024L99.4737 128.829C101.977 122.837 104.681 118.041 108.509 119.012C112.866 120.116 118.814 113.1 115.219 104.783C112.689 98.9298 118.867 84.4099 118.25 79.055C118.25 79.055 122.365 66.8246 112.129 67.4386C112.129 67.4386 109.785 62.3805 102.794 64.0245C95.8033 65.6692 90.083 71.6113 91.0417 79.8417C92.0005 88.072 90.9617 98.7078 84.7171 101.491C78.4725 104.274 75.3053 108.244 75.1514 116.948C75.0957 120.035 75.482 122.678 75.8534 125.024Z" fill="#202020"/>
<path d="M109.168 105.134C109.168 105.134 115.842 110.85 120.782 113.595C125.592 116.267 120.659 123.596 121.942 126.009C123.225 128.423 126.173 133.814 125.564 138.007C124.955 142.201 119.968 145.928 120.589 148.243C121.21 150.558 125.448 170.135 127.16 176.328C128.779 182.183 122.298 188.213 113.212 188.274C104.126 188.333 102.732 189.741 92.8781 187.196C83.689 184.822 79.2489 180.642 81.4255 175.853C83.6021 171.065 87.2867 164.395 88.8345 155.2C90.3823 146.005 86.2603 139.63 82.8103 125.077C78.4537 106.703 85.8917 104.448 96.7825 103.003C103.645 102.089 109.168 105.134 109.168 105.134Z" fill="#E1D685"/>
<path d="M122.864 168.242C113.868 175.91 102.917 179.907 91.9077 179.553C91.501 179.54 91.4993 178.776 91.9077 178.789C102.816 179.14 113.633 175.179 122.544 167.583C122.877 167.298 123.194 167.96 122.864 168.242Z" fill="#5C81F5"/>
<path d="M119.664 123.475C117.718 128.012 111.986 127.305 108.479 127.115C102.94 126.815 97.4625 125.517 92.2215 123.342C91.8325 123.18 92.0704 122.463 92.4601 122.625C97.1404 124.568 102.005 125.794 106.942 126.232C109.246 126.437 111.609 126.556 113.913 126.308C115.869 126.098 118.093 125.465 119.07 123.188C119.258 122.751 119.854 123.033 119.664 123.475Z" fill="#5C81F5"/>
<path d="M119.064 147.745C111.658 146.873 104.2 147.453 96.9467 149.458C96.5446 149.569 96.4475 148.805 96.8473 148.695C104.153 146.675 111.677 146.099 119.136 146.978C119.546 147.026 119.474 147.793 119.064 147.745Z" fill="#5C81F5"/>
<path d="M86.5095 121.864C86.6373 126.209 89.1245 130.051 90.7167 133.787C92.3593 137.64 93.7736 141.685 94.3933 145.975C94.9982 150.164 94.733 154.361 93.5084 158.353C92.2781 162.365 90.344 166.006 88.5673 169.685C87.5716 171.746 86.4078 173.711 85.5444 175.862C84.6561 178.074 84.342 180.353 84.5578 182.797C84.6016 183.291 83.9694 183.412 83.9256 182.917C83.5956 179.176 84.5754 176.097 86.1687 172.951C88.0817 169.173 90.068 165.403 91.6976 161.433C93.4487 157.165 94.3933 152.693 93.9736 147.915C93.5726 143.349 92.1793 139.029 90.4895 134.948C88.8036 130.878 86.0165 126.695 85.8779 121.984C85.8625 121.493 86.4947 121.369 86.5095 121.864Z" fill="#5C81F5"/>
<path d="M92.8281 103.621C93.4012 105.814 94.5634 107.74 96.0226 109.286C98.1611 111.549 100.922 113.412 103.593 114.586C105.928 115.611 108.778 115.671 110.549 113.256C111.719 111.663 112.105 109.655 112.186 107.601C111.981 107.442 111.786 107.285 111.599 107.133C111.564 109.165 111.248 111.172 110.108 112.744C108.3 115.24 105.367 114.724 103.104 113.566C99.3329 111.635 94.7349 108.48 93.4154 103.511C93.2178 103.546 93.0218 103.583 92.8281 103.621Z" fill="#5C81F5"/>
<path d="M199.521 238.192L206.781 250.875C206.781 250.875 204.994 256.503 200.416 257.31L189.357 242.349L199.521 238.192Z" fill="#D6A184"/>
<path d="M228.959 251.128L204.446 270.769C204.159 270.347 203.89 269.897 203.631 269.426C203.517 269.219 203.418 269.006 203.301 268.801C201.007 264.799 196.404 256.263 198.628 256.281C201.905 258.295 205.107 253.779 205.107 253.779C205.107 253.779 205.421 247.93 207.735 247.773C210.049 247.615 209.376 251.378 212.62 251.663C215.104 251.878 216.676 249.349 219.412 247.965C220.248 247.54 221.188 247.228 222.3 247.131C224.892 246.906 226.635 248.117 227.69 249.26C228.561 250.218 228.959 251.128 228.959 251.128Z" fill="#AD70F8"/>
<path d="M199.821 261.58C203.3 260.918 206.783 262.027 209.576 264.6C209.954 264.948 210.323 264.174 209.949 263.83C206.987 261.101 203.298 260.021 199.624 260.72C199.156 260.809 199.354 261.669 199.821 261.58Z" fill="white"/>
<path d="M211.909 250.986C211.87 251.009 211.832 251.02 211.795 251.026C211.294 251.669 210.923 252.469 210.723 253.401C210.63 253.836 211.195 253.971 211.288 253.539C211.458 252.746 211.776 252.055 212.208 251.498C212.404 251.245 212.179 250.837 211.918 250.981C211.916 250.983 211.912 250.984 211.909 250.986Z" fill="white"/>
<path d="M213.091 250.864C213.052 250.887 213.014 250.898 212.977 250.904C212.476 251.547 212.105 252.347 211.905 253.279C211.812 253.713 212.377 253.849 212.47 253.417C212.64 252.624 212.959 251.933 213.39 251.376C213.586 251.123 213.362 250.715 213.1 250.859C213.098 250.861 213.095 250.863 213.091 250.864Z" fill="white"/>
<path d="M214.561 250.545C214.521 250.567 214.483 250.578 214.446 250.584C213.945 251.227 213.574 252.028 213.374 252.96C213.281 253.394 213.846 253.53 213.939 253.097C214.109 252.305 214.428 251.614 214.859 251.057C215.055 250.804 214.83 250.395 214.57 250.54C214.567 250.541 214.563 250.543 214.561 250.545Z" fill="white"/>
<path d="M216.09 249.713C216.05 249.736 216.012 249.747 215.976 249.753C215.474 250.396 215.103 251.196 214.904 252.128C214.811 252.563 215.376 252.699 215.468 252.266C215.638 251.473 215.958 250.782 216.389 250.225C216.585 249.972 216.36 249.564 216.099 249.709C216.096 249.71 216.093 249.712 216.09 249.713Z" fill="white"/>
<path d="M227.69 249.26L221.907 253.894C219.859 251.992 219.37 249.757 219.412 247.965C220.248 247.54 221.187 247.228 222.299 247.131C224.893 246.906 226.635 248.116 227.69 249.26Z" fill="white"/>
<path d="M228.958 251.128L204.446 270.769C204.159 270.348 203.89 269.897 203.631 269.426L203.292 268.809L227.69 249.26C228.561 250.218 228.958 251.128 228.958 251.128Z" fill="white"/>
<path d="M105.781 176.746C105.781 176.746 122.945 164.482 151.675 158.886C162.58 156.762 204.745 240.558 204.745 240.558L192.007 251.789C181.972 235.287 161.441 219.598 155.043 199.584C154.494 197.866 139.966 203.855 122.679 208.631C77.7318 216.756 102.52 191.505 105.781 176.746Z" fill="#5C81F5"/>
<path d="M152.48 194.525C154.414 194.202 156.348 193.878 158.282 193.555C158.131 193.453 157.982 193.35 157.831 193.246C159.417 201.496 162.547 209.237 166.95 215.832C169.246 219.271 171.896 222.142 174.675 224.989C177.768 228.158 180.649 231.608 183.829 234.656C187.128 237.818 189.85 241.666 192.662 245.426C192.979 245.849 193.496 245.222 193.18 244.801C190.772 241.581 188.442 238.245 185.719 235.399C182.761 232.307 179.781 229.269 176.86 226.121C174.181 223.235 171.379 220.6 168.978 217.356C166.579 214.115 164.507 210.529 162.801 206.703C160.877 202.387 159.455 197.784 158.538 193.012C158.489 192.758 158.277 192.672 158.088 192.704C156.154 193.027 154.22 193.35 152.286 193.673C151.82 193.751 152.018 194.602 152.48 194.525Z" fill="#7B33D4"/>
<path d="M188.101 247.83L202.65 234.87L206.118 240.183L192.032 252.875L188.101 247.83Z" fill="#7B33D4"/>
<path d="M96.5942 103.291C96.5942 103.291 102.107 114.676 108.895 109.513L108.515 103.658L108.226 98.5823L108.025 95.029L99.7898 87.7869L96.5942 103.291Z" fill="#D6A184"/>
<path d="M100.221 93.594C103.166 102.695 107.318 103.697 108.515 103.657L108.226 98.5816L100.221 93.594Z" fill="#322A23"/>
<path d="M96.7637 86.3463C97.6572 89.8221 98.4961 90.9556 100.686 94.3046C102.64 97.2938 105.937 98.7549 107.612 98.8796C113.702 99.3312 116.484 96.2974 115.583 86.3648C115.023 80.1972 116.386 76.7186 115.049 74.3612H115.046C114.957 74.2529 114.868 74.1481 114.778 74.046C112.618 71.581 109.716 70.2824 106.742 70.3125C91.9664 70.4626 95.4817 81.3574 96.7637 86.3463Z" fill="#D6A184"/>
<path d="M113.203 90.426C113.203 90.426 111.402 90.7892 108.212 89.7476C108.212 89.7476 108.45 93.3357 110.863 93.3405C112.91 93.3453 113.203 90.426 113.203 90.426Z" fill="white"/>
<path d="M112.471 85.8756C112.463 86.3773 112.711 86.7905 113.022 86.7967C113.335 86.8035 113.593 86.4019 113.601 85.8996C113.609 85.3973 113.361 84.9848 113.05 84.9786C112.737 84.9717 112.478 85.3733 112.471 85.8756Z" fill="#322A23"/>
<path d="M107.788 85.5321C107.781 86.0338 108.028 86.447 108.34 86.4532C108.652 86.46 108.911 86.0584 108.919 85.5561C108.926 85.0538 108.679 84.6412 108.367 84.6351C108.055 84.6289 107.796 85.0298 107.788 85.5321Z" fill="#322A23"/>
<path d="M113.047 69.8374C104.044 64.623 96.6825 71.665 95.346 75.7494C94.0095 79.833 94.0612 86.5886 95.9532 85.3983C97.8452 84.2079 101.485 87.7317 102.844 85.1023C103.598 83.6446 101.972 78.8825 101.972 78.8825C101.972 78.8825 108.925 79.5658 107.797 74.2568C107.797 74.2568 111.24 70.3253 113.449 73.7449C115.658 77.1638 115.558 79.8125 115.558 79.8125C117.904 79.8419 119.5 73.5749 113.047 69.8374Z" fill="#202020"/>
<path d="M110.796 95.3381C110.164 95.4546 109.528 95.3258 109.125 94.6809C108.921 94.3541 109.35 93.9881 109.555 94.3136C109.843 94.7742 110.307 94.7865 110.743 94.7063C111.078 94.6446 111.129 95.2765 110.796 95.3381Z" fill="#C46F5C"/>
<path d="M104.352 87.1277C104.373 87.6575 105.073 88.0495 105.916 88.0029C106.759 87.9563 107.426 87.4882 107.405 86.9585C107.385 86.4281 106.685 86.0368 105.842 86.0834C104.999 86.13 104.333 86.5973 104.352 87.1277Z" fill="#C46F5C"/>
<path d="M113.107 87.186C113.128 87.7178 113.828 88.1084 114.67 88.0618C115.067 88.0399 115.425 87.924 115.69 87.7541C115.662 87.3059 115.628 86.8427 115.584 86.365C115.584 86.3451 115.581 86.3253 115.58 86.3074C115.311 86.1868 114.967 86.1224 114.597 86.1437C113.755 86.1903 113.087 86.6569 113.107 87.186Z" fill="#C46F5C"/>
<path d="M107.99 81.5798C107.383 81.3379 106.593 81.5058 106.365 82.3261C106.152 83.0923 105.122 82.8216 105.338 82.0451C105.741 80.5985 107.017 79.8597 108.222 80.3408C108.859 80.5951 108.634 81.8368 107.99 81.5798Z" fill="#322A23"/>
<path d="M114.082 82.1792C113.655 81.5994 113.116 80.7593 112.391 81.0169C111.742 81.2479 111.414 80.0411 112.065 79.8095C113.218 79.3997 114.07 80.2631 114.791 81.241C115.237 81.8468 114.532 82.7905 114.082 82.1792Z" fill="#322A23"/>
<path d="M102.643 88.8414C102.955 87.538 102.706 86.1359 102.048 85.0346C101.196 83.6078 99.6383 81.4259 98.2331 81.737C96.1684 82.1941 96.002 84.4357 96.2883 86.6951C96.5745 88.9545 97.9184 91.8622 100.494 91.2461C101.782 90.9377 102.387 89.9084 102.643 88.8414Z" fill="#D6A184"/>
<path d="M97.983 96.1536C96.5216 96.2214 95.2867 94.8419 95.2305 93.078C95.1743 91.3147 96.3177 89.8249 97.7797 89.757C99.2412 89.6892 100.476 91.0687 100.532 92.8326C100.588 94.5966 99.4445 96.0857 97.983 96.1536ZM97.8024 90.4759C96.6692 90.5287 95.7826 91.6834 95.8263 93.0506C95.8695 94.4177 96.8272 95.4875 97.9603 95.4347C99.0935 95.3819 99.9801 94.2272 99.9364 92.86C99.8926 91.4929 98.9356 90.4238 97.8024 90.4759Z" fill="white"/>
<path d="M99.8886 88.5564C99.9732 87.6251 100.007 86.652 99.7051 85.7666C99.4353 84.9758 98.6776 83.8382 97.8364 84.1938C97.5547 84.3131 97.3519 83.8032 97.6359 83.6833C98.4459 83.3407 99.2326 83.9012 99.7279 84.6831C100.442 85.8104 100.478 87.2571 100.354 88.6099C100.322 88.9703 99.8551 88.9189 99.8886 88.5564Z" fill="#322A23"/>
<path d="M108.055 89.0443C107.988 89.06 107.92 89.0724 107.852 89.0806C107.111 89.1758 106.381 88.864 105.797 88.202C105.222 87.5517 104.857 86.6375 104.768 85.6295C104.582 83.5311 105.663 81.665 107.178 81.4704C107.919 81.3752 108.648 81.687 109.233 82.349C109.807 83 110.173 83.9135 110.262 84.9216C110.351 85.9303 110.154 86.9164 109.706 87.6984C109.293 88.4213 108.712 88.8921 108.055 89.0443ZM105.242 85.5685C105.319 86.4402 105.632 87.2269 106.123 87.7833C106.605 88.3288 107.201 88.5865 107.801 88.5091C108.4 88.4323 108.938 88.028 109.314 87.3722C109.696 86.7033 109.864 85.8549 109.787 84.9832C109.71 84.1115 109.397 83.3248 108.906 82.7684C108.424 82.2229 107.828 81.9652 107.228 82.0426C105.974 82.2071 105.084 83.786 105.242 85.5685Z" fill="white"/>
<path d="M111.687 87.7842C111.824 88.035 111.98 88.2673 112.161 88.4715C112.745 89.1335 113.475 89.4453 114.215 89.3494C114.284 89.3405 114.352 89.3288 114.419 89.3131C115.076 89.1609 115.657 88.6895 116.07 87.9672C116.517 87.1852 116.715 86.1984 116.625 85.1904C116.536 84.1816 116.17 83.2681 115.596 82.6178C115.012 81.9558 114.282 81.644 113.542 81.7392C112.027 81.9338 110.945 83.8006 111.131 85.8983C111.145 86.0531 111.167 86.2046 111.194 86.3547C111.272 86.3211 111.358 86.3211 111.43 86.3759C111.816 86.6685 111.999 87.3305 111.687 87.7842ZM111.605 85.8373C111.448 84.0548 112.338 82.4759 113.592 82.3114C114.193 82.234 114.788 82.4917 115.27 83.0372C115.761 83.5936 116.074 84.3803 116.152 85.252C116.229 86.1237 116.06 86.9721 115.677 87.641C115.302 88.2968 114.764 88.7011 114.165 88.7779C113.564 88.8553 112.969 88.5976 112.487 88.0521C111.996 87.4957 111.683 86.709 111.605 85.8373Z" fill="white"/>
<path d="M110.996 88.411C110.998 88.411 110.999 88.4103 111.001 88.4103C111.361 88.3507 112.039 88.0121 112.021 87.1562C112.005 86.3496 111.418 86.0241 111.019 85.9419L110.668 84.8968C110.625 84.77 110.505 84.709 110.4 84.7604C110.295 84.8118 110.245 84.9564 110.287 85.0832L110.683 86.2633C110.713 86.351 110.781 86.4106 110.859 86.4175C110.889 86.4202 111.597 86.4942 111.61 87.1685C111.623 87.7942 110.972 87.9148 110.944 87.9196C110.832 87.9395 110.754 88.0642 110.77 88.1992C110.785 88.3322 110.885 88.426 110.996 88.411Z" fill="#322A23"/>
<path d="M111.381 84.7122C111.015 84.3085 110.508 84.1989 110.053 84.4518C109.844 84.5676 110.002 84.9548 110.212 84.8383C110.51 84.6731 110.867 84.7259 111.112 84.9959C111.28 85.1809 111.551 84.8993 111.381 84.7122Z" fill="white"/>
<path d="M105.069 84.1082C103.939 82.8006 102.5 82.0694 100.931 82.0345C100.702 82.029 100.673 82.4594 100.903 82.4648C102.374 82.4977 103.737 83.1625 104.799 84.3926C104.965 84.5831 105.236 84.3007 105.069 84.1082Z" fill="white"/>
<path d="M140.245 243.522L138.393 258.773C138.393 258.773 133.906 261.422 130.101 258.249L130.458 238.208L140.245 243.522Z" fill="#D6A184"/>
<path d="M156.39 272.487L128.483 272.488C128.439 271.973 128.423 271.448 128.423 270.912C128.423 270.676 128.437 270.445 128.434 270.209C128.362 265.595 128.437 255.937 130.187 257.36C131.9 261.025 136.393 259.484 136.393 259.484C136.393 259.484 139.184 255.062 141.081 256.402C142.977 257.743 140.81 260.29 143.248 262.568C145.118 264.311 147.459 263.308 150.222 263.947C151.067 264.14 151.946 264.488 152.867 265.116C155.013 266.579 155.864 268.639 156.199 270.209C156.471 271.517 156.39 272.487 156.39 272.487Z" fill="#AD70F8"/>
<path d="M128.747 262.284C131.779 263.958 134.088 266.985 135.177 270.794C135.332 271.334 136.046 271.102 135.891 270.557C134.741 266.536 132.331 263.287 129.121 261.514C128.691 261.276 128.315 262.045 128.747 262.284Z" fill="white"/>
<path d="M142.982 261.583C142.941 261.575 142.906 261.56 142.874 261.542C142.199 261.732 141.558 262.13 140.994 262.74C140.732 263.023 141.119 263.489 141.38 263.206C141.859 262.687 142.412 262.343 142.995 262.176C143.259 262.1 143.259 261.635 142.991 261.584C142.988 261.584 142.985 261.584 142.982 261.583Z" fill="white"/>
<path d="M143.969 262.235C143.928 262.227 143.893 262.212 143.862 262.194C143.187 262.384 142.545 262.782 141.982 263.391C141.72 263.675 142.107 264.141 142.369 263.857C142.848 263.339 143.4 262.995 143.983 262.827C144.248 262.751 144.248 262.287 143.979 262.236C143.976 262.236 143.972 262.235 143.969 262.235Z" fill="white"/>
<path d="M145.269 262.912C145.227 262.905 145.193 262.89 145.161 262.871C144.486 263.062 143.845 263.459 143.281 264.069C143.019 264.353 143.407 264.818 143.667 264.535C144.147 264.016 144.699 263.672 145.282 263.505C145.546 263.429 145.546 262.965 145.278 262.914C145.275 262.914 145.271 262.913 145.269 262.912Z" fill="white"/>
<path d="M146.838 263.224C146.798 263.217 146.763 263.202 146.731 263.183C146.056 263.374 145.414 263.771 144.851 264.381C144.589 264.665 144.977 265.13 145.237 264.848C145.717 264.329 146.269 263.985 146.852 263.818C147.116 263.742 147.116 263.277 146.848 263.226C146.845 263.225 146.842 263.224 146.838 263.224Z" fill="white"/>
<path d="M156.2 270.209H149.616C148.825 267.41 149.41 265.335 150.223 263.946C151.068 264.139 151.946 264.487 152.867 265.115C155.013 266.578 155.864 268.638 156.2 270.209Z" fill="white"/>
<path d="M156.389 272.488L128.482 272.488C128.439 271.974 128.423 271.448 128.423 270.912V270.21L156.2 270.209C156.471 271.517 156.389 272.488 156.389 272.488Z" fill="white"/>
<path d="M80.8933 177.846C80.8933 177.846 108.102 164.654 136.836 159.088C165.57 153.522 142.763 245.72 142.763 245.72L127.061 243.085C127.061 243.085 129.111 196.47 128.246 194.382C127.563 192.734 119.41 210.718 96.5922 211.459C66.6359 212.405 76.2215 187.246 80.8933 177.846Z" fill="#5C81F5"/>
<path d="M130.896 237.383C131.751 228.209 132.399 219.006 132.877 209.793C133.115 205.206 133.311 200.616 133.461 196.024C133.552 193.233 134.047 188.958 131.461 187.486C128.76 185.949 126.285 188.785 124.495 190.837C122.065 193.623 119.269 195.838 116.232 197.538C110.019 201.017 102.981 202.524 96.1856 203.086C88.8493 203.691 79.349 201.593 77.0577 191.661C76.9316 191.114 76.2244 191.347 76.3511 191.896C77.9744 198.932 83.7146 202.855 89.3906 203.793C92.9435 204.38 96.5503 204.029 100.092 203.502C103.133 203.05 106.161 202.424 109.127 201.489C115.351 199.529 120.906 196.16 125.582 190.8C126.896 189.294 128.542 187.578 130.509 188.04C132.502 188.509 132.811 191.026 132.809 193.058C132.805 197.517 132.521 202.004 132.31 206.454C131.821 216.783 131.121 227.1 130.162 237.383C130.111 237.947 130.843 237.942 130.896 237.383Z" fill="#7B33D4"/>
<path d="M126.327 236.899V244.504L143.194 247.104L144.897 239.931L126.327 236.899Z" fill="#7B33D4"/>
<path d="M94.9811 171.415C93.4918 175.379 91.4822 179.018 88.9756 182.155C87.3659 184.169 81.6893 191.202 79.6582 186.572C79.4378 186.069 78.805 186.515 79.0254 187.018C81.0554 191.645 85.8249 186.868 87.7817 184.765C91.1153 181.183 93.7724 176.762 95.6138 171.861C95.8064 171.347 95.1754 170.897 94.9811 171.415Z" fill="#7B33D4"/>
<path d="M151.197 198.271C151.803 190.745 152.414 183.22 153.013 175.694C153.427 170.504 153.487 163.67 148.696 161.377C148.258 161.167 148.068 162.021 148.502 162.229C153.773 164.752 152.473 173.302 152.048 178.589C151.52 185.149 150.992 191.71 150.465 198.271C150.419 198.837 151.152 198.833 151.197 198.271Z" fill="#7B33D4"/>
<path d="M80.2437 121.479C80.2437 121.479 79.6871 125.586 79.315 131.227C79.2287 132.538 79.152 133.932 79.0952 135.375C78.7987 142.806 79.0151 151.572 81.0042 157.273C85.3324 169.673 115.854 174.111 115.854 174.111L117.825 167.478C117.825 167.478 97.6597 157.387 91.4134 150.369C90.1025 148.895 91.5634 141.114 92.8618 135.417C92.8823 135.331 92.9016 135.246 92.9209 135.163C93.6934 131.795 94.3937 129.214 94.3937 129.214L80.2437 121.479Z" fill="#D6A184"/>
<path d="M113.415 167.321C112.116 169.207 112.434 172.009 113.953 173.639C114.754 174.499 115.568 175.532 116.004 176.545C117.05 178.977 117.727 182.2 118.543 183.248C119.748 184.794 119.877 182.511 119.86 182.224C119.755 180.395 119.249 177.9 119.249 177.9C119.249 177.9 121.053 182.015 121.177 183.843C121.301 185.671 122.432 186.601 123.124 184.816C123.816 183.03 122.61 177.997 121.964 176.712C121.964 176.712 123.619 178.904 123.855 181.373C124.091 183.842 124.45 184.687 124.946 185.497C125.441 186.307 126.683 184.949 126.28 181.512C125.877 178.077 125.008 176.882 124.186 175.511C124.186 175.511 125.148 176.244 126.476 177.83C127.803 179.416 127.888 182.295 128.946 182.728C130.029 183.17 129.811 179.859 129.013 178.098C128.216 176.336 127.759 174.974 126.108 173.359C124.456 171.744 122.831 170.269 121.65 169.588C120.468 168.908 116.531 165.821 114.68 166.27C114.207 166.384 113.784 166.786 113.415 167.321Z" fill="#D6A184"/>
<path d="M118.414 167.61C118.414 167.61 122.392 168.095 123.486 169.048C124.581 170.001 126.654 170.736 126.186 171.676C125.717 172.615 123.189 171.628 123.189 171.628L118.414 167.61Z" fill="#D6A184"/>
<path d="M92.8633 152.594C91.7023 151.981 90.5305 151.591 89.273 151.398C88.8862 151.339 88.8811 150.597 89.273 150.657C90.643 150.866 91.9079 151.286 93.1734 151.954C93.5347 152.144 93.2223 152.784 92.8633 152.594Z" fill="#C46F5C"/>
<path d="M82.2678 110.883C79.8077 116.04 77.5488 124.485 78.2849 133.458L95.3403 132.802C95.3403 132.802 97.3306 123.199 96.6529 114.936C96.2235 109.699 94.0748 107.22 91.6625 106.127C87.7762 104.368 84.3381 106.543 82.2678 110.883Z" fill="#E1D685"/>
<path d="M94.8355 114.23C95.5739 120.233 95.2462 126.304 93.8932 132.147C93.7659 132.696 94.4731 132.93 94.5998 132.382C95.9897 126.38 96.3004 120.159 95.5421 113.995C95.4728 113.435 94.7668 113.672 94.8355 114.23Z" fill="#5C81F5"/>
<path d="M222.468 96.3705C209.332 94.318 198.838 102.082 198.731 113.899C198.664 121.26 201.056 126.609 209.679 130.829L221.49 146.166L217.982 132.52C230.468 130.747 234.6 122.342 235.164 113.271C235.653 105.399 230.913 97.6897 222.468 96.3705ZM210.293 116.748C208.843 118.116 206.647 117.747 205.551 115.977C204.455 114.206 205.294 111.602 206.635 110.355C209.772 107.44 213.399 113.819 210.293 116.748ZM221.139 114.904C220.913 116.892 219.348 118.325 217.699 118.052C216.05 117.78 214.863 115.892 215.089 113.903C215.315 111.914 216.88 110.481 218.528 110.753C220.178 111.026 221.365 112.914 221.139 114.904ZM229.945 114.712C229.722 116.669 228.183 118.079 226.561 117.811C224.939 117.543 223.771 115.685 223.993 113.727C224.215 111.77 225.755 110.36 227.377 110.628C228.999 110.897 230.167 112.754 229.945 114.712Z" fill="#5C81F5"/>
<path d="M135.255 41.3167C124.082 40.5313 113.954 45.8423 115.433 57.9788C116.617 66.9041 121.142 70.4004 127.562 70.9453L124.455 86.6473L134.071 70.5889C164.289 73.9756 157.821 42.9031 135.255 41.3167ZM124.948 58.401C122.342 58.401 122.342 53.5244 124.948 53.5244C127.553 53.5244 127.553 58.401 124.948 58.401ZM133.353 59.065C130.454 59.065 130.454 53.6409 133.353 53.6409C136.253 53.6409 136.253 59.065 133.353 59.065ZM142.487 58.7484C139.718 58.7484 139.718 53.5676 142.487 53.5676C145.255 53.5676 145.255 58.7484 142.487 58.7484Z" fill="#5C81F5"/>
<path d="M317 108.992C309.907 100.578 304.667 89.909 301.984 78.3194C298.19 61.9327 299.978 44.2974 306.509 29.2634C309.253 22.9464 312.793 17.1735 317 12.1942V10.9353C307.905 21.4203 301.809 35.5784 299.883 50.5952C297.728 67.3993 301.156 84.6727 308.991 98.7589C311.312 102.932 314.001 106.787 317 110.251V108.992H317Z" fill="#FFF07A"/>
<path d="M33 206.914C40.0932 198.5 45.3324 187.83 48.0156 176.241C51.8093 159.854 50.0213 142.219 43.491 127.185C40.747 120.869 37.2077 115.096 33 110.116V108.857C42.0942 119.342 48.1912 133.501 50.1167 148.517C52.2717 165.321 48.8432 182.594 41.0082 196.681C38.6874 200.853 35.999 204.709 33 208.173V206.914Z" fill="#FFF07A"/>
<defs>
<linearGradient id="paint0_linear_511_10895" x1="175" y1="-15.0128" x2="175" y2="330.5" gradientUnits="userSpaceOnUse">
<stop stop-color="#D6E2FC"/>
<stop offset="0.415" stop-color="#A4BBEC" stop-opacity="0"/>
</linearGradient>
</defs>
</svg>
