<svg width="210" height="162" viewBox="0 0 210 162" fill="none" xmlns="http://www.w3.org/2000/svg">
<path opacity="0.7" d="M28.5304 54.1373C28.5304 54.1373 16.8208 77.4653 33.2764 100.955C49.732 124.445 83.626 136.854 110.754 147.465C137.882 158.076 166.051 152.909 179.436 135.529C192.822 118.15 174.464 105.744 174.438 80.9612C174.413 56.1785 179.247 49.6175 161.838 28.6806C144.429 7.74372 101.753 3.10728 69.4803 18.6366C37.2076 34.1659 28.5304 54.1373 28.5304 54.1373Z" fill="#F6F6F6"/>
<path d="M179.785 29.5813C155.988 9.27625 111.4 12.4093 90.6775 16.6699C76.4227 19.6119 68.2033 29.3059 58.2367 30.4853C28.2067 34.0493 8.45414 45.8656 13.1413 66.0184C17.8285 86.1712 42.6631 92.5086 54.8431 121.698C67.0231 150.887 97.1119 155.685 129.045 145.8C160.977 135.915 166.74 128.243 174.3 100.764C181.86 73.2857 207.06 52.8381 179.785 29.5813Z" fill="#25C1A5"/>
<path opacity="0.7" d="M179.785 29.5813C155.988 9.27625 111.4 12.4093 90.6775 16.6699C76.4227 19.6119 68.2033 29.3059 58.2367 30.4853C28.2067 34.0493 8.45414 45.8656 13.1413 66.0184C17.8285 86.1712 42.6631 92.5086 54.8431 121.698C67.0231 150.887 97.1119 155.685 129.045 145.8C160.977 135.915 166.74 128.243 174.3 100.764C181.86 73.2857 207.06 52.8381 179.785 29.5813Z" fill="#F6F6F6"/>
<path d="M73.7481 54.2179C79.1535 53.5699 79.0401 44.6859 69.5019 42.0971C59.9637 39.5083 64.8819 33.7444 69.6111 35.0177C74.3403 36.291 74.4201 44.7993 81.5433 45.5574C88.6665 46.3156 90.1659 35.3255 86.2515 31.7874C82.3371 28.2493 90.3255 29.7106 91.2915 28.6479C92.8329 26.9307 87.7089 18.6881 93.2991 19.4171C96.0669 19.7767 93.1647 25.0806 95.2353 32.9635C97.3059 40.8465 99.7881 44.7701 104.475 40.5775C109.163 36.385 104.001 33.0964 107.436 31.1038C110.872 29.1112 113.644 30.9256 113.316 33.4301C112.989 35.9346 112.846 38.397 115.122 37.4995C117.399 36.6021 121.145 32.4095 123.006 29.1144C124.866 25.8193 126.983 26.0299 127.155 28.4859C127.328 30.9418 118.86 36.2878 118.642 39.9457C118.424 43.6037 121.725 50.2295 129.226 45.8231C136.727 41.4167 138.466 39.8129 141.062 42.1684C143.657 44.5239 141.729 48.3795 145.976 48.3244C150.222 48.2693 155.514 39.5537 158.185 40.2244C160.856 40.8951 165.9 42.7905 156.719 46.7044C147.538 50.6183 144.426 50.4498 144.833 54.7201C145.241 58.9905 166.745 59.4991 164.573 62.3309C162.402 65.1627 138.34 64.8225 135.828 71.7982C133.317 78.7739 146.328 77.7079 144.052 81.6121C141.776 85.5163 136.492 79.9403 131.717 76.6452C126.941 73.3501 126.84 75.8158 122.64 76.8558C118.44 77.8959 117.521 76.0491 114.824 75.5242C112.128 74.9993 113.774 79.2664 109.717 78.8128C105.66 78.3592 108.457 77.7177 105.71 76.9044C102.963 76.0912 100.59 84.1717 94.6851 82.9114C88.7799 81.651 85.1889 77.9704 81.4929 80.5689C77.7969 83.1673 80.4975 88.6851 75.2265 88.3027C69.9555 87.9204 71.8245 84.1296 74.0547 83.689C76.2849 83.2483 82.3077 77.0146 81.2661 74.617C80.2245 72.2194 70.1823 78.6054 68.0403 75.3233C65.8983 72.0412 64.0419 69.2256 58.9011 70.2138C53.7603 71.202 52.9749 65.6778 56.9985 65.7621C61.0221 65.8463 70.3587 66.3874 71.0895 63.7889C71.8203 61.1904 69.4347 58.2809 63.0843 55.8282C56.7339 53.3755 62.9667 48.4151 67.4313 51.1561C71.8959 53.8972 69.4725 54.7169 73.7481 54.2179Z" fill="#25C1A5"/>
<path d="M29.6896 94.624L26.0986 88.7207H39.337L29.6896 94.624Z" stroke="#263238" stroke-linecap="round" stroke-linejoin="round"/>
<path d="M86.8685 53.7515L88.5275 57.1923L81.0977 56.7161L86.8685 53.7515Z" stroke="#263238" stroke-linecap="round" stroke-linejoin="round"/>
<path d="M88.792 18.4258L92.7694 19.9097L88.792 21.4098L92.7694 23.3085L88.792 25.3626L93.2524 26.9535L89.737 29.4807" stroke="#263238" stroke-linecap="round" stroke-linejoin="round"/>
<path d="M167.644 109.402L166.304 115.704H174.855L175.523 113.763L169.828 113.724L170.915 109.133L167.644 109.402Z" stroke="#263238" stroke-linecap="round" stroke-linejoin="round"/>
<path d="M152.152 129.578C153.56 128.493 153.559 126.733 152.152 125.647C150.745 124.561 148.463 124.561 147.056 125.647C145.649 126.733 145.649 128.493 147.056 129.578C148.463 130.664 150.745 130.664 152.152 129.578Z" stroke="#263238" stroke-linecap="round" stroke-linejoin="round"/>
<path d="M64.1046 38.9676C66.0948 38.9676 67.7082 37.7229 67.7082 36.1876C67.7082 34.6523 66.0948 33.4077 64.1046 33.4077C62.1144 33.4077 60.501 34.6523 60.501 36.1876C60.501 37.7229 62.1144 38.9676 64.1046 38.9676Z" stroke="#263238" stroke-linecap="round" stroke-linejoin="round"/>
<path d="M174.619 83.3325L182.557 86.835" stroke="#263238" stroke-linecap="round" stroke-linejoin="round"/>
<path d="M180.117 83.1772L177.06 87.8202" stroke="#263238" stroke-linecap="round" stroke-linejoin="round"/>
<path d="M136.425 62.1235L127.827 64.5309" stroke="#263238" stroke-linecap="round" stroke-linejoin="round"/>
<path d="M133.023 65.4574L130.406 60.6558" stroke="#263238" stroke-linecap="round" stroke-linejoin="round"/>
<path d="M54.9281 86.7673C54.8693 86.8904 61.1777 84.6646 61.1777 84.6646L64.2605 90.111L58.0067 92.2137L54.9281 86.7673Z" stroke="#263238" stroke-linecap="round" stroke-linejoin="round"/>
<path d="M141.481 79.4707C141.414 79.4707 143.161 81.0907 143.161 81.0907L140.805 82.5422L139.125 80.9222L141.481 79.4707Z" stroke="#263238" stroke-linecap="round" stroke-linejoin="round"/>
<path d="M26.099 64.3562C26.099 64.6016 26.0047 64.8415 25.8279 65.0456C25.6512 65.2496 25.4 65.4087 25.106 65.5026C24.8121 65.5965 24.4887 65.6211 24.1766 65.5732C23.8646 65.5254 23.578 65.4072 23.353 65.2336C23.128 65.0601 22.9748 64.839 22.9127 64.5982C22.8507 64.3575 22.8825 64.108 23.0043 63.8813C23.126 63.6545 23.3322 63.4607 23.5967 63.3244C23.8613 63.188 24.1723 63.1152 24.4904 63.1152C24.7018 63.1148 24.9113 63.1466 25.1067 63.2088C25.3021 63.271 25.4796 63.3624 25.6291 63.4777C25.7786 63.5931 25.8971 63.73 25.9777 63.8808C26.0584 64.0315 26.0996 64.1931 26.099 64.3562Z" stroke="#263238" stroke-linecap="round" stroke-linejoin="round"/>
<path d="M123.48 19.6635C123.481 19.909 123.387 20.1493 123.211 20.3538C123.035 20.5583 122.784 20.7178 122.49 20.8122C122.196 20.9066 121.872 20.9317 121.56 20.8842C121.248 20.8367 120.961 20.7187 120.735 20.5453C120.51 20.3719 120.356 20.1508 120.294 19.91C120.232 19.6692 120.263 19.4195 120.385 19.1926C120.506 18.9656 120.713 18.7716 120.977 18.6351C121.242 18.4986 121.553 18.4258 121.871 18.4258C122.297 18.4258 122.706 18.5561 123.007 18.7881C123.309 19.0201 123.479 19.3349 123.48 19.6635Z" stroke="#263238" stroke-linecap="round" stroke-linejoin="round"/>
<path d="M143.745 94.4263L145.454 96.6295L141.96 96.8401L142.888 98.9007L139.016 99.1275L140.897 103.084" stroke="#263238" stroke-linecap="round" stroke-linejoin="round"/>
<path d="M53.1346 112.379L56.1502 113.779L52.114 116.319L54.6424 117.55L51.3916 120.33" stroke="#263238" stroke-linecap="round" stroke-linejoin="round"/>
<path d="M140.28 41.4717L137.794 39.5471L142.511 37.8396L140.448 36.171L144.476 34.0845" stroke="#263238" stroke-linecap="round" stroke-linejoin="round"/>
<path d="M43.1172 42.5444C43.1172 42.5444 61.1016 62.9564 86.4528 66.3746" stroke="#263238" stroke-linecap="round" stroke-linejoin="round"/>
<path d="M38.5566 46.8765C38.5566 46.8765 64.3152 67.6546 84.8154 68.8275" stroke="#263238" stroke-linecap="round" stroke-linejoin="round"/>
<path d="M36.4814 53.4243C36.4814 53.4243 62.7272 70.632 82.7066 71.604" stroke="#263238" stroke-linecap="round" stroke-linejoin="round"/>
<path d="M36.4814 60.5586C36.4814 60.5586 58.1786 73.4117 81.1232 73.6255" stroke="#263238" stroke-linecap="round" stroke-linejoin="round"/>
<path d="M58.6997 51.7944C58.0528 51.2709 57.6292 50.6072 57.4859 49.8925C57.4012 49.5344 57.387 49.1685 57.4439 48.8071L51.7025 56.8132C51.4071 56.0959 50.8447 55.4616 50.0855 54.989C48.4643 53.936 46.4231 53.7449 45.5285 54.5678C44.6339 55.3908 45.2219 56.9071 46.8431 57.9601C48.4643 59.0131 50.5055 59.201 51.4043 58.3813C51.5403 58.2536 51.6442 58.1075 51.7109 57.9504L56.2301 51.6421C56.6745 52.2149 57.2697 52.7094 57.9773 53.0936C58.4553 53.3552 58.8273 53.7159 59.0503 54.134C59.2734 54.552 59.3382 55.0103 59.2373 55.4556C59.2835 55.3487 60.5477 53.288 58.6997 51.7944Z" fill="#263238"/>
<path d="M61.7694 65.8401C61.2211 65.3937 60.8634 64.8283 60.7446 64.2201C60.6722 63.9177 60.6595 63.6086 60.7068 63.3032L55.86 70.0845C55.6111 69.4783 55.1363 68.9419 54.495 68.5423C53.1258 67.6513 51.3996 67.4925 50.6436 68.1859C49.8876 68.8793 50.3832 70.1623 51.7566 71.0533C53.13 71.9443 54.852 72.1031 55.608 71.4097C55.7236 71.3025 55.812 71.1793 55.8684 71.0468L59.6904 65.7138C60.0662 66.1976 60.5699 66.6149 61.1688 66.9385C61.5702 67.1614 61.8815 67.4675 62.0666 67.8213C62.2517 68.1751 62.303 68.5622 62.2146 68.9376C62.265 68.8469 63.3318 67.1037 61.7694 65.8401Z" fill="#263238"/>
<path d="M79.603 64.5438C79.2017 64.2059 78.8995 63.8052 78.7168 63.3692C78.5342 62.9331 78.4754 62.4718 78.5446 62.0166L73.6894 68.7914C73.44 68.1836 72.9638 67.646 72.3202 67.246C70.951 66.355 69.2248 66.1962 68.4688 66.8896C67.7128 67.5829 68.2084 68.8692 69.5818 69.757C70.9552 70.6447 72.6772 70.81 73.4332 70.1134C73.5488 70.0061 73.6372 69.883 73.6936 69.7505L77.5198 64.4174C77.8926 64.902 78.3952 65.3195 78.994 65.6422C79.3954 65.8652 79.7069 66.1712 79.8927 66.5249C80.0785 66.8786 80.1309 67.2656 80.044 67.6412C80.0986 67.5505 81.1654 65.8042 79.603 64.5438Z" fill="#263238"/>
<path d="M143.9 53.5311C138.932 62.6873 145.37 72.417 159.31 73.8459C173.25 75.2747 180.281 67.7158 174.3 65.3279C168.319 62.94 169.05 59.4279 167.672 51.8139C166.295 44.1999 148.86 44.3878 143.9 53.5311ZM166.32 61.3298C160.31 64.9391 161.7 58.7378 163.859 58.1805C166.017 57.6232 168.579 59.9819 166.32 61.3298Z" fill="#999999" stroke="#263238" stroke-linecap="round" stroke-linejoin="round"/>
<path d="M162.195 49.614C160.734 49.3807 159.776 50.8063 158.621 51.234C159.192 52.0313 159.825 52.8017 160.515 53.5409C160.618 53.448 160.747 53.375 160.893 53.3278C161.039 53.2805 161.197 53.2603 161.355 53.2687C161.586 53.2989 161.813 53.3422 162.036 53.3983C162.341 53.4504 162.66 53.4323 162.952 53.3463C163.244 53.2603 163.497 53.1101 163.68 52.9143C163.863 52.7185 163.967 52.4857 163.98 52.2447C163.993 52.0036 163.914 51.7649 163.753 51.558C163.661 51.4414 163.543 51.3118 163.594 51.1822C163.644 51.0526 163.867 50.9813 163.917 50.8582C163.934 50.7631 163.902 50.6668 163.829 50.5892C163.662 50.3469 163.429 50.1346 163.148 49.9665C162.866 49.7984 162.541 49.6783 162.195 49.614Z" fill="#25C1A5" stroke="#263238" stroke-linecap="round" stroke-linejoin="round"/>
<path d="M153.35 51.1596C152.544 51.0332 151.641 51.0624 150.994 50.6704C150.864 50.5651 150.702 50.4861 150.524 50.4403C150.297 50.4345 150.077 50.4973 149.91 50.6153C149.092 50.992 148.387 51.4976 147.84 52.0992C147.353 52.7278 147.269 53.5993 147.899 54.1469C148.247 54.4482 148.806 54.6718 148.844 55.0735C148.881 55.4753 147.81 56.5088 149.108 56.5931C149.526 56.5851 149.93 56.4788 150.267 56.2885C150.897 56.0099 151.775 56.1654 152.296 55.8284C152.741 55.5336 152.317 54.9245 153.035 54.7301C153.497 54.6037 154.497 55.0022 154.623 54.4061C154.707 53.9784 153.921 53.8261 153.732 53.4924C153.679 53.3671 153.674 53.2325 153.719 53.1052C153.764 52.9779 153.856 52.8636 153.984 52.7764C154.247 52.6087 154.549 52.4821 154.875 52.4038C155.047 51.7655 154.14 51.2827 153.35 51.1596Z" fill="#25C1A5" stroke="#263238" stroke-linecap="round" stroke-linejoin="round"/>
<path d="M152.964 60.3935C152.783 60.2833 151.83 60.5457 151.418 60.2023C149.797 58.8545 145.668 63.5233 148.356 64.2685C148.542 64.3022 148.718 64.3603 148.877 64.4402C149.436 64.7999 148.739 65.6293 149.259 66.0213C149.78 66.4134 150.49 65.9144 151.149 65.9371C151.397 65.9778 151.648 66.0027 151.901 66.0116C152.239 65.946 152.532 65.7838 152.72 65.558C153.392 64.9392 154.169 64.1519 154.047 63.29C153.959 62.642 153.363 61.9519 153.098 61.346C152.88 60.8471 153.501 60.8179 152.964 60.3935Z" fill="#25C1A5" stroke="#263238" stroke-linecap="round" stroke-linejoin="round"/>
<path d="M160.675 67.4372C160.384 67.176 160.125 66.894 159.903 66.5948C159.63 66.3258 159.105 66.1282 158.743 66.3323C158.575 66.4263 158.47 66.5948 158.269 66.6369C158.105 66.6495 157.94 66.6294 157.79 66.5786C157.562 66.5306 157.321 66.535 157.096 66.5913C156.871 66.6475 156.673 66.7532 156.525 66.8953C156.377 67.0374 156.285 67.2097 156.263 67.3911C156.24 67.5726 156.286 67.7552 156.396 67.9167C156.908 68.6813 157.362 70.8878 158.281 70.7452C158.991 70.6318 159.596 71.3381 160.247 71.2085C161.326 70.9979 162.082 68.4157 161.335 67.8163C161.146 67.664 160.881 67.5765 160.675 67.4372Z" fill="#25C1A5" stroke="#263238" stroke-linecap="round" stroke-linejoin="round"/>
<path d="M169.588 67.9619C169.165 67.8128 168.725 67.6946 168.273 67.6087C167.868 67.5012 167.434 67.4767 167.013 67.5375C166.801 67.5741 166.615 67.6729 166.495 67.8131C166.375 67.9534 166.33 68.124 166.37 68.2891C166.429 68.4317 166.572 68.5483 166.635 68.6877C166.879 69.2223 165.593 70.1748 166.732 70.4826C167.698 70.7418 169.491 70.6025 170.26 70.0322C171.574 69.0343 170.705 68.3636 169.588 67.9619Z" fill="#25C1A5" stroke="#263238" stroke-linecap="round" stroke-linejoin="round"/>
<path d="M174.955 55.9837L176.383 54.5581L178.307 55.5009L176.895 57.0853L174.955 55.9837Z" fill="#BFBFBF" stroke="#263238" stroke-linecap="round" stroke-linejoin="round"/>
<path d="M174.812 55.5758C166.937 64.5538 162.254 70.9463 160.112 74.0049C160.065 74.0688 160.052 74.144 160.074 74.2154C160.096 74.2868 160.152 74.3491 160.231 74.39C160.31 74.4309 160.406 74.4473 160.5 74.436C160.594 74.4247 160.679 74.3864 160.738 74.3289C163.258 72.0285 168.403 67.0292 177.269 57.118C177.744 56.6158 175.261 55.08 174.812 55.5758Z" fill="#263238"/>
<path d="M176.219 54.5061C176.62 55.0151 177.194 55.4297 177.878 55.7049C177.878 55.7049 181.599 55.7049 182.7 52.371C183.8 49.037 185.921 48.3242 185.921 48.3242C185.789 48.2382 185.632 48.178 185.463 48.1486C185.294 48.1193 185.118 48.1218 184.951 48.1557L185.468 47.7118C185.195 47.6199 184.897 47.5852 184.601 47.6114C184.306 47.6376 184.025 47.7237 183.788 47.8609L183.918 47.2129C183.463 47.796 182.743 48.227 181.898 48.4214C180.562 48.6514 174.85 50.4756 176.219 54.5061Z" fill="#F6F6F6"/>
<mask id="mask0_133_1374" style="mask-type:luminance" maskUnits="userSpaceOnUse" x="176" y="47" width="10" height="9">
<path d="M176.219 54.5061C176.62 55.0151 177.194 55.4297 177.878 55.7049C177.878 55.7049 181.599 55.7049 182.7 52.371C183.8 49.037 185.921 48.3242 185.921 48.3242C185.789 48.2382 185.632 48.178 185.463 48.1486C185.294 48.1193 185.118 48.1218 184.951 48.1557L185.468 47.7118C185.195 47.6199 184.897 47.5852 184.601 47.6114C184.306 47.6376 184.025 47.7237 183.788 47.8609L183.918 47.2129C183.463 47.796 182.743 48.227 181.898 48.4214C180.562 48.6514 174.85 50.4756 176.219 54.5061Z" fill="white"/>
</mask>
<g mask="url(#mask0_133_1374)">
<path d="M182.699 52.371C182.595 52.6908 182.454 53.003 182.279 53.3041C182.359 52.4941 182.779 51.3601 182.279 51.2208C181.502 51.0004 181.322 52.2122 181.2 51.8072C181.078 51.4022 181.754 50.6635 181.67 50.1872C181.586 49.7109 180.641 50.5598 180.058 50.6765C179.474 50.7931 181.045 49.4064 180.835 49.0565C180.73 48.9508 180.582 48.8755 180.415 48.8426C180.882 48.6628 181.371 48.5205 181.876 48.4182C182.721 48.2246 183.441 47.7947 183.896 47.2129L183.766 47.8609C184.004 47.7237 184.285 47.6376 184.58 47.6114C184.875 47.5852 185.174 47.6199 185.446 47.7118L184.93 48.159C185.096 48.1229 185.271 48.1191 185.44 48.1479C185.608 48.1767 185.765 48.2373 185.896 48.3242C185.896 48.3242 183.8 49.037 182.699 52.371Z" fill="#25C1A5"/>
</g>
<path d="M176.219 54.5061C176.62 55.0151 177.194 55.4297 177.878 55.7049C177.878 55.7049 181.599 55.7049 182.7 52.371C183.8 49.037 185.921 48.3242 185.921 48.3242C185.789 48.2382 185.632 48.178 185.463 48.1486C185.294 48.1193 185.118 48.1218 184.951 48.1557L185.468 47.7118C185.195 47.6199 184.897 47.5852 184.601 47.6114C184.306 47.6376 184.025 47.7237 183.788 47.8609L183.918 47.2129C183.463 47.796 182.743 48.227 181.898 48.4214C180.562 48.6514 174.85 50.4756 176.219 54.5061Z" stroke="#263238" stroke-linecap="round" stroke-linejoin="round"/>
<path d="M99.0819 59.5415C99.0819 59.5415 96.4905 60.0048 98.5863 62.1853C98.5863 62.1853 96.2175 62.4867 97.8723 64.7158C97.8723 64.7158 96.4401 65.6521 98.2209 67.3078C98.2209 67.3078 97.3809 68.9278 101.551 71.1342C101.551 71.1342 101.522 72.5112 104.412 73.0393C106.932 73.4994 107.616 72.6862 107.616 72.6862C107.616 72.6862 110.934 72.3622 112.757 70.2594C112.757 70.2594 115.697 69.5693 114.836 68.1891C114.836 68.1891 117.205 66.7635 115.945 65.8401C115.945 65.8401 118.666 63.7243 117.293 63.0213C114.882 61.7933 99.0819 59.5415 99.0819 59.5415Z" fill="#263238" stroke="#263238" stroke-linecap="round" stroke-linejoin="round"/>
<path d="M118.789 34.6679C133.606 39.4177 133.795 50.4758 128.709 55.9935C124.089 61.0188 117.839 60.6397 117.293 63.0438C116.747 65.4479 99.3174 61.9454 98.5068 60.225C97.6962 58.5045 101.312 58.7378 94.6176 51.8431C87.9228 44.9484 100.594 28.8359 118.789 34.6679Z" fill="#F6F6F6"/>
<mask id="mask1_133_1374" style="mask-type:luminance" maskUnits="userSpaceOnUse" x="92" y="33" width="40" height="31">
<path d="M118.789 34.6679C133.606 39.4177 133.795 50.4758 128.709 55.9935C124.089 61.0188 117.839 60.6397 117.293 63.0438C116.747 65.4479 99.3174 61.9454 98.5068 60.225C97.6962 58.5045 101.312 58.7378 94.6176 51.8431C87.9228 44.9484 100.594 28.8359 118.789 34.6679Z" fill="white"/>
</mask>
<g mask="url(#mask1_133_1374)">
<path opacity="0.4" d="M117.298 63.0308C116.752 65.4349 99.3174 61.9292 98.5068 60.212C97.6962 58.4948 101.312 58.7216 94.6176 51.8301C87.9228 44.9386 100.594 28.8261 118.789 34.6581C120.568 35.2183 122.259 35.9335 123.829 36.79C116.386 35.5264 106.273 35.3061 100.695 43.2182C94.626 51.8333 104.055 59.6677 108.818 60.2768C108.818 60.2768 104.887 58.0671 103.576 54.3508C103.576 54.3508 110.296 62.0296 120.796 60.7466C118.919 61.4367 117.541 61.9551 117.298 63.0308Z" fill="#25C1A5"/>
</g>
<path d="M118.789 34.6679C133.606 39.4177 133.795 50.4758 128.709 55.9935C124.089 61.0188 117.839 60.6397 117.293 63.0438C116.747 65.4479 99.3174 61.9454 98.5068 60.225C97.6962 58.5045 101.312 58.7378 94.6176 51.8431C87.9228 44.9484 100.594 28.8359 118.789 34.6679Z" stroke="#263238" stroke-linecap="round" stroke-linejoin="round"/>
<path d="M114.799 66.0961C114.799 66.0961 107.822 67.9072 99.0654 65.2051" stroke="#F6F6F6" stroke-linecap="round" stroke-linejoin="round"/>
<path d="M110.716 64.476C111.132 64.4534 111.546 64.4112 111.955 64.3496" stroke="#F6F6F6" stroke-linecap="round" stroke-linejoin="round"/>
<path d="M99.6025 62.707C102.411 63.6323 105.384 64.2233 108.423 64.4599" stroke="#F6F6F6" stroke-linecap="round" stroke-linejoin="round"/>
<path d="M104.374 68.5584C107.28 68.9115 110.363 68.9796 113.194 68.3057" stroke="#F6F6F6" stroke-linecap="round" stroke-linejoin="round"/>
<path d="M99.3926 67.6187C100.538 67.9279 101.71 68.1768 102.9 68.3639" stroke="#F6F6F6" stroke-linecap="round" stroke-linejoin="round"/>
<path d="M108.831 70.5704C106.222 70.3438 103.673 69.814 101.271 68.999" stroke="#F6F6F6" stroke-linecap="round" stroke-linejoin="round"/>
<path d="M111.3 70.6318C110.922 70.648 110.539 70.6318 110.157 70.6318" stroke="#F6F6F6" stroke-linecap="round" stroke-linejoin="round"/>
<path d="M102.186 71.4873C103.59 72.2553 105.261 72.6818 106.982 72.712" stroke="#F6F6F6" stroke-linecap="round" stroke-linejoin="round"/>
<path d="M116.365 62.5543C116.365 62.5543 108.914 58.8607 100.199 59.2171" stroke="#263238" stroke-linecap="round" stroke-linejoin="round"/>
<path d="M111.149 61.5078C111.149 61.5078 115.421 54.3247 121.385 53.8387C121.385 53.8387 117.773 51.5999 116.366 51.2629C114.959 50.926 114.064 53.2944 115.047 53.0417C116.03 52.789 117.432 49.5036 115.757 48.645C114.081 47.7864 110.847 52.0567 111.8 52.4067C112.754 52.7566 113.942 48.2627 111.607 47.754C109.272 47.2453 107.541 51.1204 108.638 51.1981C109.734 51.2759 110.112 49.5781 107.617 48.9496C104.916 48.253 101.531 49.2736 101.531 49.2736C101.531 49.2736 106.76 54.1077 105.034 60.2637" stroke="#263238" stroke-linecap="round" stroke-linejoin="round"/>
<path d="M126.874 148.554C129.02 146.503 130.301 140.616 130.301 140.616C132.122 141.658 133.718 142.916 135.03 144.342C137.421 144.067 139.771 143.614 142.048 142.991C144.392 142.371 146.622 141.518 148.68 140.454C144.115 135.27 136.387 126.438 131.628 123.661C129.789 122.588 124.089 121.542 124.089 121.542C122.8 120.641 119.986 121.542 119.986 121.542C104.761 124.529 90.8378 120.661 90.8378 120.661C90.8378 120.661 88.8638 119.958 87.2468 120.661C85.6724 120.526 84.0836 120.526 82.5092 120.661C79.0232 121.03 75.2138 124.102 73.643 125.498L60.266 137.45C60.266 137.45 59.8166 142.155 60.7616 142.777C68.3216 147.776 79.4684 136.417 79.4684 136.417C79.5398 136.439 79.712 146.308 85.6802 151.47C85.6802 151.47 89.9096 152.96 106.357 151.794C122.678 150.637 126.874 148.554 126.874 148.554Z" fill="#25C1A5"/>
<path opacity="0.2" d="M69.8245 133.919C67.3045 134.09 65.9815 133.624 65.4775 132.794C69.1231 129.554 73.3777 125.738 73.6423 125.501L74.0623 125.132C75.9523 128.395 77.5231 133.4 69.8245 133.919Z" fill="#0C0C0C"/>
<path opacity="0.2" d="M81.026 144.212C80.1705 141.656 79.6485 139.04 79.4678 136.404C79.4678 136.404 81.299 134.554 81.8072 132.61C81.8072 132.623 84.1844 139.936 81.026 144.212Z" fill="#0C0C0C"/>
<path opacity="0.2" d="M133.64 142.991C132.647 142.104 131.527 141.307 130.301 140.616C130.301 140.616 130.481 135.973 132.161 134.567C133.514 133.436 134.954 139.32 133.64 142.991Z" fill="#0C0C0C"/>
<path d="M126.874 148.554C129.02 146.503 130.301 140.616 130.301 140.616C132.122 141.659 133.718 142.916 135.03 144.342" stroke="#263238" stroke-linecap="round" stroke-linejoin="round"/>
<path d="M148.68 140.454C144.115 135.27 136.387 126.438 131.628 123.661C129.789 122.588 124.089 121.542 124.089 121.542C122.8 120.641 119.986 121.542 119.986 121.542C104.761 124.529 90.8378 120.661 90.8378 120.661C90.8378 120.661 88.8638 119.958 87.2468 120.661C85.6724 120.526 84.0836 120.526 82.5092 120.661C79.0232 121.03 75.2138 124.102 73.643 125.498L60.266 137.45C60.266 137.45 59.8166 142.155 60.7616 142.777C68.3216 147.776 79.4684 136.417 79.4684 136.417C79.5398 136.439 79.712 146.308 85.6802 151.47" stroke="#263238" stroke-linecap="round" stroke-linejoin="round"/>
<path d="M120.539 118.691L120.338 118.756C120.409 118.742 120.477 118.72 120.539 118.691Z" fill="#263238"/>
<path d="M125.072 109.949C126.668 110.131 127.058 109.227 127.058 109.227C127.058 109.227 125.072 109.949 123.312 107.169C122.312 105.585 122.808 102.676 123.417 100.466C124.648 98.901 126.433 96.7367 126.668 94.1706C127.088 89.7642 124.404 87.5318 121.309 88.1863C121.309 88.1863 121.082 84.4636 116.726 83.1287C112.371 81.7938 111.686 82.8889 107.486 82.0789C103.286 81.2689 99.1789 81.9752 97.6753 84.0715C96.1717 86.1678 95.6593 89.9748 93.0931 91.449C90.5269 92.9232 86.0371 96.471 87.4567 100.44C88.8763 104.409 88.0699 105.767 86.1967 107.643C84.3235 109.518 85.4659 113.212 89.0401 114.372C89.0401 114.372 87.5239 113.747 88.5949 112.7C88.5949 112.7 89.4349 115.188 92.2363 114.735C95.0377 114.281 98.5951 114.129 100.409 115.662C102.224 117.194 108.856 117.606 110.351 116.439C111.846 115.273 113.005 116.355 115.714 117.411C118.423 118.467 121.43 117.541 121.43 117.541C121.43 117.541 121.178 118.445 120.532 118.714C121.082 118.535 122.606 117.975 123.052 117.132C123.497 116.29 123.749 115.477 123.215 113.51C125.093 112.943 124.228 111.984 124.228 111.984C126 112.752 126.84 110.484 126.84 110.484C125.189 110.465 125.072 109.949 125.072 109.949Z" fill="#263238"/>
<path d="M121.511 121.947C121.511 121.947 109.654 126.017 105.845 126.182C102.035 126.347 89.0781 121.03 89.0781 121.03L98.9565 118.95C100.301 116.974 100.334 114.648 100.011 111.923C99.9099 111.077 99.7797 110.28 99.6369 109.564C99.3009 107.837 98.9271 106.632 98.9271 106.632L112.888 107.079C112.597 107.763 112.357 108.46 112.17 109.166C111.784 110.629 111.563 112.115 111.51 113.608C111.351 117.334 112.098 119.44 112.098 119.44L121.511 121.947Z" fill="#D8B0AF" stroke="#263238" stroke-linecap="round" stroke-linejoin="round"/>
<path d="M92.6475 122.43C92.6475 122.43 100.123 123.441 101.98 123.275C103.836 123.11 105.294 124.519 105.294 124.519" fill="#F6F6F6"/>
<path d="M92.6475 122.43C92.6475 122.43 100.123 123.441 101.98 123.275C103.836 123.11 105.294 124.519 105.294 124.519" stroke="#263238" stroke-linecap="round" stroke-linejoin="round"/>
<path d="M118.919 122.796C118.919 122.796 111.3 123.444 109.456 123.476C107.612 123.509 107.066 124.52 107.066 124.52" fill="#F6F6F6"/>
<path d="M118.919 122.796C118.919 122.796 111.3 123.444 109.456 123.476C107.612 123.509 107.066 124.52 107.066 124.52" stroke="#263238" stroke-linecap="round" stroke-linejoin="round"/>
<path d="M112.17 109.166C111.784 110.629 111.563 112.115 111.51 113.608C110.364 114.386 109.037 114.991 107.6 115.39C105.252 115.989 102.14 113.77 100.011 111.923C99.9097 111.077 99.7795 110.28 99.6367 109.564L112.17 109.166Z" fill="#263238"/>
<path d="M95.6848 97.5663C95.6848 97.5663 94.534 96.2022 93.5092 96.4776C92.4844 96.753 92.4844 100.44 92.5642 101.412C92.644 102.384 95.1514 104.519 96.2014 103.933" fill="#D8B0AF"/>
<path d="M95.6848 97.5663C95.6848 97.5663 94.534 96.2022 93.5092 96.4776C92.4844 96.753 92.4844 100.44 92.5642 101.412C92.644 102.384 95.1514 104.519 96.2014 103.933" stroke="#263238" stroke-linecap="round" stroke-linejoin="round"/>
<path d="M120.96 100.44C120.96 100.44 122.569 99.3905 123.451 99.8829C124.333 100.375 122.947 103.913 122.51 104.817C122.073 105.721 118.868 107.218 118.083 106.421" fill="#D8B0AF"/>
<path d="M120.96 100.44C120.96 100.44 122.569 99.3905 123.451 99.8829C124.333 100.375 122.947 103.913 122.51 104.817C122.073 105.721 118.868 107.218 118.083 106.421" stroke="#263238" stroke-linecap="round" stroke-linejoin="round"/>
<path d="M105.344 114.589C101.115 114.106 96.915 108.573 96.4068 107.014C95.844 105.281 94.605 96.7303 97.02 92.0453C99.7374 86.7803 105.42 84.5576 110.96 85.1862C116.5 85.8148 121.111 89.207 121.745 94.8544C122.308 99.8764 117.923 107.788 116.735 109.324C115.668 110.704 109.809 115.095 105.344 114.589Z" fill="#D8B0AF" stroke="#263238" stroke-linecap="round" stroke-linejoin="round"/>
<path d="M114.933 100.871C114.82 101.477 114.375 101.927 113.942 101.875C113.509 101.823 113.257 101.298 113.371 100.693C113.484 100.087 113.929 99.6396 114.362 99.6882C114.795 99.7368 115.051 100.265 114.933 100.871Z" fill="#263238"/>
<path d="M101.124 99.3027C101.01 99.9054 101.266 100.437 101.699 100.485C102.132 100.534 102.573 100.084 102.686 99.4777C102.799 98.8718 102.547 98.3437 102.115 98.2951C101.682 98.2465 101.241 98.6969 101.124 99.3027Z" fill="#263238"/>
<path d="M110.582 107.484C110.582 107.484 108.39 110.802 105.593 110.257C102.795 109.713 102.816 106.693 102.816 106.606L103.211 106.723C104.316 107.042 105.462 107.27 106.63 107.403C107.76 107.518 108.902 107.552 110.04 107.507C110.381 107.497 110.582 107.484 110.582 107.484Z" fill="#757575"/>
<path d="M106.932 100.579C107.041 102.662 104.723 103.016 105.168 103.738C105.484 104.193 106.018 104.534 106.655 104.691" fill="#D8B0AF"/>
<path d="M106.932 100.579C107.041 102.662 104.723 103.016 105.168 103.738C105.484 104.193 106.018 104.534 106.655 104.691" stroke="#263238" stroke-linecap="round" stroke-linejoin="round"/>
<path d="M102.816 106.596C102.816 106.596 102.791 109.71 105.593 110.254C108.394 110.798 110.582 107.477 110.582 107.477" stroke="#263238" stroke-linecap="round" stroke-linejoin="round"/>
<path d="M98.624 96.5522C98.624 96.5522 101.144 94.0962 105.054 94.8738" stroke="#263238" stroke-linecap="round" stroke-linejoin="round"/>
<path d="M117.982 98.7551C117.982 98.7551 116.483 95.8391 112.455 95.7192" stroke="#263238" stroke-linecap="round" stroke-linejoin="round"/>
<path d="M129.797 96.7949L129.015 97.4624L128.411 97.9775L121.409 101.114L121.695 99.6008L127.428 97.0314L128.667 96.9083L129.797 96.7949Z" fill="#25C1A5" stroke="#263238" stroke-linecap="round" stroke-linejoin="round"/>
<path d="M128.1 98.1104C127.062 97.9581 127.411 97.0282 127.411 97.0282L129.78 96.7949L128.1 98.1104Z" fill="#F6F6F6" stroke="#263238" stroke-linecap="round" stroke-linejoin="round"/>
<path d="M129.78 96.7949L128.999 97.4591C128.926 97.4447 128.857 97.4182 128.799 97.3814C128.74 97.3446 128.692 97.2984 128.659 97.246C128.626 97.1936 128.608 97.1362 128.607 97.0779C128.605 97.0196 128.62 96.9617 128.65 96.9083L129.78 96.7949Z" fill="#263238"/>
<path d="M115.109 89.693C115.109 89.693 112.451 92.3823 106.68 93.1599C99.4517 94.1319 95.4617 98.953 95.5625 100.965C94.1415 98.1431 93.714 95.0813 94.3235 92.0907C95.7599 84.6905 104.71 82.5748 111.216 83.0899C117.722 83.6051 120.876 88.6368 120.876 88.6368C120.876 88.6368 125.76 91.5722 125.076 95.2723C124.395 98.8136 123.282 98.9141 122.69 99.7144C121.875 100.822 122.946 101.286 120.09 103.11C120.09 103.11 121.22 98.1657 119.817 94.4785C118.415 90.7914 115.109 89.693 115.109 89.693Z" fill="#263238"/>
<path d="M116.899 88.4521C116.899 88.4521 114.349 95.9625 99.8594 97.1353C99.8594 97.1353 109.62 95.7745 114.139 88.896L116.899 88.4521Z" fill="#263238"/>
<path d="M105.903 108.627C105.903 108.627 107.894 108.08 108.663 108.627C108.663 108.627 107.352 110.247 105.668 109.852C103.984 109.457 103.627 107.908 103.627 107.908C103.627 107.908 104.538 107.568 105.903 108.627Z" fill="#BFBFBF"/>
<path d="M110.317 107.51L109.75 108.005C107.515 108.225 105.246 107.945 103.211 107.198L103.014 106.661C104.183 107.003 105.395 107.251 106.63 107.403C107.853 107.517 109.087 107.552 110.317 107.51Z" fill="#F6F6F6"/>
<path d="M102.19 106.401C102.19 106.401 106.743 108.038 111.145 107.419" stroke="#263238" stroke-linecap="round" stroke-linejoin="round"/>
<path d="M116.512 86.5859C116.512 86.5859 113.425 89.7061 105.903 90.1823C98.381 90.6586 96.2012 93.0627 96.2012 93.0627" stroke="#757575" stroke-linecap="round" stroke-linejoin="round"/>
<path d="M99.5738 86.832C98.8766 86.9357 97.8938 87.1269 97.583 87.6744" stroke="#757575" stroke-linecap="round" stroke-linejoin="round"/>
<path d="M117.44 84.1621C112.904 86.7768 107.045 87.0781 101.094 86.7087" stroke="#757575" stroke-linecap="round" stroke-linejoin="round"/>
<path d="M88.7039 108.08C88.2713 108.426 87.932 108.835 87.7057 109.282C87.4793 109.73 87.3703 110.208 87.3851 110.688" stroke="#757575" stroke-linecap="round" stroke-linejoin="round"/>
<path d="M94.126 93.4966C92.026 94.42 90.325 96.1177 90.2116 98.0326C90.0226 101.273 93.0256 104.189 89.9092 107.011" stroke="#757575" stroke-linecap="round" stroke-linejoin="round"/>
<path d="M93.2399 104.033C93.2399 104.033 95.5667 105.932 94.0547 107.863C92.5427 109.794 91.7615 111.751 94.8611 113.176" stroke="#757575" stroke-linecap="round" stroke-linejoin="round"/>
<path d="M110.229 94.0703C109.733 94.3095 109.22 94.5259 108.691 94.7183" stroke="#757575" stroke-linecap="round" stroke-linejoin="round"/>
<path d="M115.664 89.2881C114.761 90.8916 113.343 92.2911 111.544 93.3543" stroke="#757575" stroke-linecap="round" stroke-linejoin="round"/>
<path d="M117.44 89.5566C117.44 89.5566 120.586 90.8753 121.796 93.0623C123.005 95.2493 121.3 98.3273 122.09 99.39" stroke="#757575" stroke-linecap="round" stroke-linejoin="round"/>
<path d="M122.333 110.889C122.766 111.099 123.242 111.253 123.74 111.343" stroke="#757575" stroke-linecap="round" stroke-linejoin="round"/>
<path d="M119.843 107.863C120.035 108.653 120.467 109.397 121.103 110.034" stroke="#757575" stroke-linecap="round" stroke-linejoin="round"/>
<path d="M118.6 109.603C118.6 109.603 118.306 112.071 120.347 113.704C122.388 115.337 121.792 116.355 121.792 116.355" stroke="#757575" stroke-linecap="round" stroke-linejoin="round"/>
<path d="M115.219 112.428C115.219 112.428 116.437 114.93 114.505 115.762" stroke="#757575" stroke-linecap="round" stroke-linejoin="round"/>
<path d="M119.843 88.8701C119.843 88.8701 124.438 89.5862 125.11 91.1381C125.782 92.6901 125.11 94.4753 125.11 94.4753" stroke="#757575" stroke-linecap="round" stroke-linejoin="round"/>
<path d="M60.7614 142.777C56.8638 141.108 57.6198 135.108 60.1986 127.614C61.4586 123.933 65.835 114.654 65.7468 114.33C65.511 113.706 65.187 113.104 64.7808 112.535C64.7808 112.535 66.0408 111.543 66.57 111.365C68.8422 110.617 73.3278 109.674 75.39 110.332C76.0326 110.536 76.965 111.692 76.8348 112.166C76.7046 112.639 74.865 114.194 75.0414 115.684C75.2178 117.175 73.542 122.093 73.5882 124.053C73.5882 124.455 73.6176 124.96 73.647 125.511C73.647 125.861 73.647 131.991 70.5894 135.121" fill="#25C1A5"/>
<path d="M60.7614 142.777C56.8638 141.108 57.6198 135.108 60.1986 127.614C61.4586 123.933 65.835 114.654 65.7468 114.33C65.511 113.706 65.187 113.104 64.7808 112.535C64.7808 112.535 66.0408 111.543 66.57 111.365C68.8422 110.617 73.3278 109.674 75.39 110.332C76.0326 110.536 76.965 111.692 76.8348 112.166C76.7046 112.639 74.865 114.194 75.0414 115.684C75.2178 117.175 73.542 122.093 73.5882 124.053C73.5882 124.455 73.6176 124.96 73.647 125.511C73.647 125.861 73.647 131.991 70.5894 135.121" stroke="#263238" stroke-linecap="round" stroke-linejoin="round"/>
<path d="M73.4332 96.2281C73.5172 96.8243 75.1846 101.088 75.7012 105.42C76.7552 105.125 77.7461 104.71 78.6412 104.189C79.687 103.483 81.8752 104.046 81.787 104.513C81.6988 104.979 79.687 104.902 77.986 106.664C76.285 108.427 75.9364 110.38 73.6768 111.32C71.4172 112.26 67.906 112.593 66.5368 111.34C65.1676 110.086 63.6472 103.434 64.1806 102.741C64.6356 102.235 65.2046 101.796 65.8606 101.445C65.8606 101.445 66.436 100.149 67.3096 100.048C68.1832 99.9477 70.2496 99.9153 70.2496 99.9153C70.7324 99.6391 71.3316 99.5119 71.9296 99.5589C71.9296 99.5589 71.2492 94.5693 70.6696 92.8942C70.09 91.2191 72.7486 91.2288 73.4332 96.2281Z" fill="#D8B0AF" stroke="#263238" stroke-linecap="round" stroke-linejoin="round"/>
<path d="M71.9588 99.5586C73.7438 100.181 74.5334 102.799 74.5334 102.987C74.1767 103.917 73.7475 104.83 73.2482 105.721C72.803 106.466 71.8412 105.721 71.8412 105.721C71.8412 105.721 71.5472 106.693 70.871 106.269C70.01 105.721 70.01 103.949 70.01 103.949C70.01 103.949 69.905 105.423 69.4052 106.142C68.9054 106.862 67.8974 106.382 68.0444 104.253C68.0444 104.253 65.9864 103.865 65.915 103.476" stroke="#263238" stroke-linecap="round" stroke-linejoin="round"/>
<path d="M70.0095 103.949C69.5055 102.951 67.5693 102.034 67.5693 102.034" stroke="#263238" stroke-linecap="round" stroke-linejoin="round"/>
<path d="M71.8408 105.721C71.8408 105.721 72.853 103.453 72.58 102.987C72.307 102.52 70.585 101.234 70.585 101.234" stroke="#263238" stroke-linecap="round" stroke-linejoin="round"/>
<path d="M75.7006 105.43C75.7006 105.43 73.8022 105.754 72.958 107.62" stroke="#263238" stroke-linecap="round" stroke-linejoin="round"/>
<path d="M65.7471 114.317C65.7471 114.317 68.8131 116.261 72.1101 114.641" stroke="#263238" stroke-linecap="round" stroke-linejoin="round"/>
<path d="M68.3259 120.087C67.7358 120.354 67.1033 120.559 66.4443 120.7" stroke="#263238" stroke-linecap="round" stroke-linejoin="round"/>
<path d="M75.7003 113.705C74.2192 115.839 72.2235 117.736 69.8203 119.294" stroke="#263238" stroke-linecap="round" stroke-linejoin="round"/>
<path d="M87.2461 120.661C87.2461 120.661 93.2311 124.996 96.7339 126.169" stroke="#263238" stroke-linecap="round" stroke-linejoin="round"/>
<path d="M81.2783 125.353C81.5484 125.929 81.7261 126.528 81.8075 127.138" stroke="#263238" stroke-linecap="round" stroke-linejoin="round"/>
<path d="M79.1992 121.678C79.7368 122.459 80.224 123.266 80.665 124.086" stroke="#263238" stroke-linecap="round" stroke-linejoin="round"/>
<path d="M103.627 127.614C103.627 127.614 113.421 127.718 119.709 124.406" stroke="#263238" stroke-linecap="round" stroke-linejoin="round"/>
<path d="M124.089 121.542C123.247 121.983 122.477 122.501 121.796 123.084" stroke="#263238" stroke-linecap="round" stroke-linejoin="round"/>
<path d="M129.007 127.079C128.001 127.884 126.854 128.578 125.601 129.14" stroke="#263238" stroke-linecap="round" stroke-linejoin="round"/>
<path d="M131.141 125.064C130.822 125.435 130.477 125.792 130.107 126.133" stroke="#263238" stroke-linecap="round" stroke-linejoin="round"/>
<path d="M79.4678 136.404C79.4678 136.404 81.8576 134.016 81.8072 131.152" stroke="#263238" stroke-linecap="round" stroke-linejoin="round"/>
<path d="M130.301 140.616C130.301 140.616 129.788 135.811 134.156 132.299" stroke="#263238" stroke-linecap="round" stroke-linejoin="round"/>
<path d="M135.03 134.946C135.24 135.108 131.301 137.758 130.364 138.944" stroke="#263238" stroke-linecap="round" stroke-linejoin="round"/>
<path d="M91.9795 146.827C91.9795 146.827 106.314 151.221 113.74 151.13" stroke="#263238" stroke-linecap="round" stroke-linejoin="round"/>
<path d="M107.549 136.216H105.848C105.572 136.216 105.349 136.389 105.349 136.602V138.604C105.349 138.817 105.572 138.99 105.848 138.99H107.549C107.825 138.99 108.049 138.817 108.049 138.604V136.602C108.049 136.389 107.825 136.216 107.549 136.216Z" fill="#BFBFBF"/>
<path d="M107.549 139.197H105.869C105.666 139.196 105.471 139.133 105.328 139.022C105.185 138.911 105.104 138.761 105.104 138.604V136.602C105.104 136.445 105.185 136.295 105.328 136.184C105.471 136.072 105.666 136.01 105.869 136.009H107.549C107.65 136.009 107.749 136.024 107.842 136.054C107.935 136.084 108.02 136.128 108.091 136.183C108.162 136.238 108.218 136.303 108.256 136.375C108.294 136.447 108.314 136.524 108.313 136.602V138.604C108.314 138.682 108.294 138.759 108.256 138.831C108.218 138.903 108.162 138.968 108.091 139.023C108.02 139.078 107.935 139.122 107.842 139.152C107.749 139.182 107.65 139.197 107.549 139.197ZM105.869 136.42C105.807 136.421 105.748 136.441 105.705 136.475C105.662 136.508 105.638 136.554 105.638 136.602V138.604C105.638 138.651 105.662 138.697 105.706 138.73C105.749 138.763 105.808 138.782 105.869 138.782H107.549C107.579 138.783 107.61 138.778 107.638 138.77C107.666 138.761 107.692 138.748 107.714 138.731C107.735 138.714 107.752 138.695 107.763 138.673C107.775 138.651 107.78 138.628 107.78 138.604V136.602C107.78 136.578 107.775 136.555 107.764 136.533C107.752 136.511 107.735 136.49 107.714 136.474C107.692 136.457 107.667 136.443 107.638 136.434C107.61 136.425 107.58 136.42 107.549 136.42H105.869Z" fill="#263238"/>
<path d="M112.098 119.452C112.098 119.452 119.708 120.661 106.701 135.908C106.701 135.908 91.5473 121.102 98.9561 118.95" stroke="#263238" stroke-linecap="round" stroke-linejoin="round"/>
<path d="M106.97 135.756C106.97 135.98 106.84 136.161 106.68 136.161C106.521 136.161 106.391 135.98 106.391 135.756C106.391 135.533 106.521 135.351 106.68 135.351C106.84 135.351 106.97 135.533 106.97 135.756Z" fill="#263238"/>
</svg>
