<svg width="306" height="242" viewBox="0 0 306 242" fill="none" xmlns="http://www.w3.org/2000/svg">
<g clip-path="url(#clip0_258_4862)">
<path d="M146.847 227.026L146.457 220.954C146.416 220.939 146.376 220.924 146.335 220.91C142.156 219.391 137.367 222.14 138.702 225.274C139.958 228.223 140.801 231.402 143.1 233.983C144.458 235.482 146.286 236.751 148.449 237.694C150.611 238.638 153.053 239.232 155.592 239.434L160.901 241.684C161.629 238.872 161.469 235.984 160.43 233.219C159.391 230.454 157.499 227.878 154.884 225.668C153.4 224.439 151.697 223.344 149.817 222.408C148.546 224.73 146.847 227.026 146.847 227.026Z" fill="#F2F2F2"/>
<path d="M97.8033 166.217C88.2773 158.94 74.4728 154.766 59.9295 154.766L59.3685 154.767C49.7892 154.77 40.3808 152.888 32.1055 149.313L31.2444 148.942L31.938 148.412C35.6928 145.535 38.8281 142.247 41.2339 138.663C39.5252 139.843 37.4872 140.731 35.2642 141.263C33.0412 141.795 30.6875 141.958 28.3697 141.742C25.9227 141.526 23.5735 140.902 21.4984 139.917C19.4232 138.933 17.676 137.613 16.3877 136.057C11.3047 129.948 5.24561 121.279 5.24561 114.675C5.25352 109.094 6.83129 103.574 9.87836 98.4692C12.9254 93.3641 17.3749 88.7853 22.9433 85.0245C26.4685 82.67 29.2843 79.7915 31.207 76.5768C33.1297 73.3621 34.1162 69.8833 34.1022 66.3672L34.0993 65.8668C34.0984 61.2377 34.8621 56.6259 36.3734 52.1342L36.5268 51.6806L37.1568 51.6969C41.2195 51.7993 45.2844 51.547 49.2675 50.9453C45.5313 50.6059 41.8764 49.8858 38.4063 48.8055L37.7285 48.6024L37.9585 48.0879C53.8141 40.8159 89.6047 44.5818 110.379 9.37468C127.223 -19.1735 186.658 34.7169 186.658 65.8668C186.658 69.0453 182.411 73.2456 185.59 75.3464C219.955 98.0564 196.244 112.639 188.768 127.313C186.994 130.795 190.84 134.617 190.84 138.384C190.84 139.023 190.818 139.683 190.775 140.344L190.709 141.362L189.563 140.797C187.296 139.698 185.195 138.421 183.295 136.989C185.266 140.349 186.195 143.993 186.013 147.653C185.832 151.314 184.544 154.897 182.246 158.14C178.645 163.175 175.161 166.78 171.891 168.853C161.416 175.494 147.912 178.919 134.14 178.429C120.369 177.939 107.371 173.57 97.8033 166.217Z" fill="#D4EBCA"/>
<path d="M161.048 241.385C161.299 241.384 161.542 241.321 161.732 241.207C161.921 241.093 162.045 240.936 162.081 240.763C162.125 240.547 166.471 218.844 162.568 189.999C158.963 163.36 147.387 124.991 112.708 93.479C112.625 93.4033 112.522 93.3397 112.403 93.2918C112.284 93.2439 112.153 93.2127 112.017 93.1999C111.881 93.1871 111.743 93.1931 111.61 93.2173C111.478 93.2416 111.353 93.2837 111.244 93.3413C111.135 93.3989 111.043 93.4709 110.974 93.5531C110.905 93.6352 110.86 93.726 110.842 93.8202C110.824 93.9144 110.832 94.0102 110.867 94.102C110.903 94.1939 110.964 94.2801 111.047 94.3556C145.426 125.596 156.909 163.683 160.488 190.134C164.369 218.811 160.057 240.345 160.013 240.56C159.992 240.662 160.003 240.767 160.045 240.866C160.088 240.965 160.16 241.057 160.259 241.136C160.357 241.214 160.478 241.276 160.614 241.319C160.75 241.362 160.898 241.385 161.048 241.385Z" fill="#3F3D56"/>
<path d="M132.748 137.928C132.969 137.929 133.184 137.88 133.363 137.791C133.541 137.701 133.674 137.574 133.742 137.429C133.811 137.284 133.811 137.127 133.743 136.982C133.674 136.837 133.542 136.71 133.363 136.62C133.237 136.557 120.551 130.228 101.585 125.419C84.0527 120.975 57.3919 116.946 29.945 122.994C29.8142 123.023 29.6927 123.069 29.5877 123.131C29.4827 123.192 29.3961 123.267 29.3329 123.351C29.2697 123.435 29.2312 123.528 29.2196 123.622C29.2079 123.717 29.2234 123.812 29.265 123.903C29.3066 123.994 29.3736 124.078 29.4622 124.15C29.5508 124.223 29.6591 124.283 29.7811 124.326C29.9031 124.37 30.0364 124.396 30.1732 124.404C30.31 124.412 30.4477 124.401 30.5784 124.372C57.4629 118.448 83.6404 122.411 100.867 126.778C119.562 131.517 132.012 137.728 132.135 137.79C132.313 137.88 132.528 137.928 132.748 137.928Z" fill="#3F3D56"/>
<path d="M180.549 55.4955C180.565 55.3432 180.511 55.1912 180.394 55.0614C180.278 54.9317 180.105 54.8307 179.901 54.7731C179.697 54.7155 179.471 54.7042 179.257 54.7408C179.043 54.7773 178.851 54.8599 178.709 54.9767C178.608 55.0591 168.578 63.3645 160.285 76.1161C152.621 87.9041 144.897 106.026 151.633 125.416C151.698 125.603 151.867 125.764 152.103 125.864C152.339 125.964 152.623 125.995 152.892 125.95C153.162 125.905 153.394 125.788 153.539 125.625C153.683 125.461 153.728 125.265 153.664 125.078C147.066 106.085 154.659 88.2921 162.19 76.7099C170.364 64.1403 180.207 55.9899 180.305 55.909C180.448 55.7925 180.533 55.6477 180.549 55.4955Z" fill="#3F3D56"/>
<path d="M179.135 92.7838C180.017 97.7064 184.943 101.765 192.107 101.765C195.547 101.765 198.846 100.819 201.279 99.1346C203.711 97.4502 205.078 95.1658 205.078 92.7838C205.078 87.8235 199.24 84.261 192.107 83.8024C184.538 83.3158 178.004 86.4638 179.135 92.7838Z" fill="#2F2E41"/>
<path d="M198.115 237.429L203.054 237.429L205.404 224.236L198.114 224.237L198.115 237.429Z" fill="#FFB6B6"/>
<path d="M197.941 240.997L213.131 240.996V240.863C213.131 239.777 212.508 238.736 211.399 237.969C210.291 237.201 208.787 236.77 207.219 236.769H207.218L204.444 235.312L199.267 236.77L197.941 236.77L197.941 240.997Z" fill="#2F2E41"/>
<path d="M178.658 237.429L183.597 237.429L185.947 224.236L178.657 224.237L178.658 237.429Z" fill="#FFB6B6"/>
<path d="M178.484 240.997L193.674 240.996V240.863C193.674 239.777 193.051 238.736 191.942 237.969C190.833 237.201 189.33 236.77 187.762 236.769H187.761L184.987 235.312L179.81 236.77L178.484 236.77L178.484 240.997Z" fill="#2F2E41"/>
<path d="M215.113 154.803L218.606 163.094L214.491 198.206C214.491 198.206 216.61 200.401 215.113 200.401C213.617 200.401 211.697 200.888 212.906 202.199C214.115 203.51 209.983 208.217 209.983 208.217L204.137 233.217L196.689 233.141C196.689 233.141 192.903 231.681 195.028 230.204C197.153 228.727 198.65 228.727 196.654 227.345C194.658 225.963 194.658 226.379 194.658 225.308C194.658 224.236 192.659 211.139 197.401 206.116L195.972 185.633L192.607 205.724L185.678 232.527L178.503 232.486C178.503 232.486 175.189 230.274 175.195 228.637C175.201 227 177.243 226.864 175.723 225.895C174.204 224.927 174.204 210.051 178.694 201.783C178.694 201.783 181.234 197.163 178.688 195.58C176.142 193.997 178.685 192.185 178.685 192.185C178.685 192.185 182.717 191.176 178.681 188.268C174.646 185.361 178.659 164.796 178.659 164.796C178.659 164.796 174.248 156.495 178.716 153.231C183.184 149.967 215.113 154.803 215.113 154.803Z" fill="#2F2E41"/>
<path d="M152.913 169.087L159.144 158.661L164.053 160.549L161.088 171.155C161.385 171.827 161.406 172.543 161.147 173.222C160.889 173.902 160.361 174.518 159.625 175.001C158.888 175.485 157.972 175.816 156.978 175.959C155.984 176.101 154.953 176.049 154 175.808C153.046 175.567 152.209 175.146 151.582 174.594C150.955 174.041 150.563 173.379 150.45 172.68C150.337 171.982 150.508 171.276 150.943 170.641C151.378 170.006 152.06 169.468 152.913 169.087Z" fill="#FFB6B6"/>
<path d="M257.469 86.6409L247.989 95.8183L243.825 93.2089L250.184 83.3438C250.114 82.6428 250.329 81.9423 250.803 81.321C251.277 80.6998 251.992 80.1824 252.868 79.8271C253.743 79.4718 254.744 79.2926 255.759 79.3097C256.773 79.3268 257.761 79.5396 258.611 79.924C259.46 80.3084 260.138 80.8493 260.568 81.4858C260.998 82.1223 261.163 82.8293 261.044 83.5271C260.925 84.225 260.528 84.8861 259.897 85.4362C259.265 85.9863 258.425 86.4035 257.469 86.6409Z" fill="#FFB6B6"/>
<path d="M216.054 155.653C222.203 162.257 191.293 170.638 179.432 167.274C177.356 166.684 170.212 164.738 175.095 162.04C179.978 159.342 174.529 158.963 174.4 157.206C174.314 156.032 175.627 153.456 174.257 153.567C172.887 153.677 171.284 152.053 174.267 151.355C177.251 150.656 174.299 150.019 174.325 149.355C174.611 142.116 182.632 130.602 182.632 130.602L168.178 156.184C168.178 156.184 168.285 160.61 166.442 159.258C164.599 157.905 164.733 162.283 164.733 162.283C164.733 162.283 161.992 163.607 163.568 164.344C165.144 165.081 161.871 167.347 161.871 167.347L154.235 166.97C154.235 166.97 154.354 163.042 155.658 162.173C156.962 161.304 156.322 159.938 156.322 159.938C156.322 159.938 159.716 157.857 157.441 156.167C154.513 153.995 165.186 117.295 168.868 117.659C169.389 115.904 170.6 114.283 172.368 112.976C174.136 111.668 176.392 110.724 178.886 110.249L187.134 108.676L188.599 104.653H200.212L202.235 107.296L211.065 110.055C212.728 108.431 213.971 106.718 220.781 106.163C220.781 106.163 239.132 94.6027 238.236 93.7001C237.34 92.7974 240.184 90.684 240.184 90.684C240.184 90.684 242.614 90.1335 241.243 89.8395C239.872 89.5456 242.463 88.866 242.463 88.866C242.463 88.866 244.863 88.4294 243.731 87.8544C242.599 87.2795 247.509 86.9019 247.509 86.9019L253.878 90.5002L252.591 92.0116C252.591 92.0116 253.376 94.0697 252.351 93.3184C251.327 92.567 251.134 94.7475 251.134 94.7475C251.134 94.7475 250.611 97.1352 247.509 97.8545C244.406 98.5739 242.054 105.408 242.054 105.408C234.738 111.995 226.104 117.133 215.872 120.515C219.86 123.684 216.054 155.653 216.054 155.653Z" fill="#5C81F5"/>
<path d="M193.541 102.298C199.893 102.298 205.043 98.7325 205.043 94.3339C205.043 89.9354 199.893 86.3696 193.541 86.3696C187.188 86.3696 182.038 89.9354 182.038 94.3339C182.038 98.7325 187.188 102.298 193.541 102.298Z" fill="#FFB6B6"/>
<path d="M181.63 95.2017C181.994 96.9323 184.124 99.3469 183.626 99.3469C183.127 99.3469 179.579 92.2125 183.127 91.7473C185.7 91.4099 186.275 91.7059 188.679 90.9839L188.34 91.205C189.932 92.0064 192.147 91.5124 193.963 90.9908C195.784 90.4727 197.994 89.9787 199.59 90.7767C200.593 91.2775 201.017 92.148 201.641 92.8873C202.264 93.63 203.417 94.3312 204.604 94.1032C205.557 93.9201 206.106 93.1809 206.101 92.4969C206.096 91.813 204.81 91.1623 205.243 90.5487C206.527 88.7301 205.372 87.4906 202.574 86.6349C201.556 86.5278 200.538 86.4184 199.52 86.3067C200.054 85.7952 200.7 85.3452 201.436 84.9733C201.125 84.4214 200.588 83.9446 199.89 83.6019C199.076 83.2669 198.069 83.291 197.126 83.3256C195.02 83.4016 192.917 83.4776 190.815 83.5536C189.258 83.6088 187.647 83.6745 186.255 84.1684C184.519 84.7868 183.381 85.9924 182.553 87.2187C180.697 89.9752 180.991 92.193 181.63 95.2017Z" fill="#2F2E41"/>
<path d="M133.781 241.894L246.905 242C247.063 242 247.214 241.957 247.326 241.88C247.437 241.802 247.5 241.698 247.5 241.589C247.5 241.48 247.437 241.375 247.326 241.298C247.214 241.221 247.063 241.177 246.905 241.177L133.781 241.071C133.623 241.071 133.472 241.115 133.36 241.192C133.249 241.269 133.187 241.374 133.187 241.483C133.187 241.592 133.249 241.696 133.36 241.773C133.472 241.851 133.623 241.894 133.781 241.894Z" fill="#CACACA"/>
<path d="M92.8659 206.041C93.0745 205.048 91.5732 204.075 89.5128 203.868C87.4524 203.66 85.613 204.297 85.4045 205.289C85.1959 206.281 86.6972 207.254 88.7576 207.462C90.818 207.669 92.6574 207.033 92.8659 206.041Z" fill="#E6E6E6"/>
<path d="M117.398 204.383C117.606 203.39 116.105 202.418 114.045 202.21C111.984 202.003 110.145 202.639 109.936 203.631C109.728 204.624 111.229 205.596 113.289 205.804C115.35 206.012 117.189 205.375 117.398 204.383Z" fill="#3F3D56"/>
<path d="M86.1486 192.289C86.3571 191.297 84.8559 190.324 82.7955 190.116C80.7351 189.909 78.8957 190.545 78.6872 191.538C78.4786 192.53 79.9799 193.503 82.0403 193.71C84.1007 193.918 85.94 193.282 86.1486 192.289Z" fill="#FF6584"/>
<path d="M75.4892 186.657C75.4991 185.746 74.7651 185.003 73.8497 184.998C72.9344 184.994 72.1842 185.728 72.1743 186.639C72.1643 187.55 72.8983 188.293 73.8137 188.298C74.7291 188.303 75.4792 187.568 75.4892 186.657Z" fill="#E6E6E6"/>
<path d="M71.8739 176.165C71.8838 175.254 71.1499 174.511 70.2345 174.507C69.3191 174.502 68.569 175.237 68.559 176.148C68.5491 177.059 69.2831 177.801 70.1985 177.806C71.1138 177.811 71.8639 177.076 71.8739 176.165Z" fill="#3F3D56"/>
<path d="M99.9847 194.629C99.9947 193.718 99.2607 192.976 98.3453 192.971C97.43 192.966 96.6798 193.701 96.6699 194.612C96.6599 195.523 97.3939 196.266 98.3093 196.27C99.2247 196.275 99.9748 195.54 99.9847 194.629Z" fill="#E6E6E6"/>
<path d="M88.1298 198.728C88.1397 197.816 87.4057 197.074 86.4903 197.069C85.575 197.064 84.8248 197.799 84.8149 198.71C84.8049 199.621 85.5389 200.364 86.4543 200.369C87.3697 200.373 88.1198 199.639 88.1298 198.728Z" fill="#FF6584"/>
<path d="M104.632 206.302C104.642 205.391 103.908 204.649 102.993 204.644C102.077 204.639 101.327 205.374 101.317 206.285C101.307 207.196 102.041 207.938 102.957 207.943C103.872 207.948 104.622 207.213 104.632 206.302Z" fill="#3F3D56"/>
<path d="M281.449 152.843C281.658 151.851 280.157 150.878 278.096 150.671C276.036 150.463 274.197 151.099 273.988 152.092C273.779 153.084 275.281 154.057 277.341 154.265C279.401 154.472 281.241 153.836 281.449 152.843Z" fill="#E6E6E6"/>
<path d="M305.981 151.186C306.189 150.193 304.688 149.22 302.628 149.013C300.567 148.805 298.728 149.442 298.519 150.434C298.311 151.426 299.812 152.399 301.872 152.607C303.933 152.814 305.772 152.178 305.981 151.186Z" fill="#3F3D56"/>
<path d="M274.731 139.092C274.94 138.099 273.438 137.127 271.378 136.919C269.318 136.712 267.478 137.348 267.27 138.34C267.061 139.333 268.562 140.305 270.623 140.513C272.683 140.721 274.523 140.084 274.731 139.092Z" fill="#FF6584"/>
<path d="M264.072 133.459C264.082 132.548 263.348 131.806 262.433 131.801C261.517 131.796 260.767 132.531 260.757 133.442C260.747 134.353 261.481 135.096 262.397 135.1C263.312 135.105 264.062 134.371 264.072 133.459Z" fill="#E6E6E6"/>
<path d="M260.457 122.968C260.467 122.057 259.733 121.314 258.818 121.309C257.903 121.305 257.152 122.039 257.143 122.95C257.133 123.861 257.867 124.604 258.782 124.609C259.697 124.614 260.447 123.879 260.457 122.968Z" fill="#3F3D56"/>
<path d="M288.568 141.432C288.578 140.521 287.844 139.779 286.928 139.774C286.013 139.769 285.263 140.504 285.253 141.415C285.243 142.326 285.977 143.068 286.892 143.073C287.808 143.078 288.558 142.343 288.568 141.432Z" fill="#E6E6E6"/>
<path d="M276.713 145.53C276.723 144.619 275.989 143.877 275.073 143.872C274.158 143.867 273.408 144.602 273.398 145.513C273.388 146.424 274.122 147.166 275.037 147.171C275.953 147.176 276.703 146.441 276.713 145.53Z" fill="#FF6584"/>
<path d="M293.215 153.105C293.225 152.194 292.491 151.451 291.576 151.447C290.66 151.442 289.91 152.177 289.9 153.088C289.89 153.999 290.624 154.741 291.54 154.746C292.455 154.751 293.205 154.016 293.215 153.105Z" fill="#3F3D56"/>
<path d="M190.151 54.3937C190.36 53.4012 188.858 52.4284 186.798 52.2209C184.738 52.0133 182.898 52.6495 182.69 53.642C182.481 54.6344 183.982 55.6072 186.043 55.8148C188.103 56.0224 189.942 55.3861 190.151 54.3937Z" fill="white"/>
<path d="M214.682 52.736C214.891 51.7435 213.39 50.7707 211.329 50.5632C209.269 50.3556 207.429 50.9918 207.221 51.9843C207.012 52.9767 208.514 53.9495 210.574 54.1571C212.634 54.3647 214.474 53.7284 214.682 52.736Z" fill="#3F3D56"/>
<path d="M183.433 40.6422C183.642 39.6497 182.141 38.677 180.08 38.4694C178.02 38.2618 176.18 38.8981 175.972 39.8905C175.763 40.883 177.265 41.8558 179.325 42.0633C181.385 42.2709 183.225 41.6346 183.433 40.6422Z" fill="#FF6584"/>
<path d="M172.774 35.0097C172.784 34.0986 172.05 33.3562 171.134 33.3514C170.219 33.3466 169.469 34.0813 169.459 34.9924C169.449 35.9035 170.183 36.646 171.098 36.6508C172.014 36.6556 172.764 35.9208 172.774 35.0097Z" fill="#E6E6E6"/>
<path d="M169.159 24.518C169.169 23.6069 168.435 22.8645 167.52 22.8597C166.604 22.8549 165.854 23.5896 165.844 24.5007C165.834 25.4118 166.568 26.1543 167.484 26.1591C168.399 26.1639 169.149 25.4291 169.159 24.518Z" fill="#3F3D56"/>
<path d="M197.269 42.9824C197.279 42.0713 196.545 41.3288 195.63 41.324C194.715 41.3192 193.964 42.0539 193.955 42.965C193.945 43.8761 194.679 44.6186 195.594 44.6234C196.509 44.6282 197.259 43.8935 197.269 42.9824Z" fill="#E6E6E6"/>
<path d="M185.415 47.0805C185.425 46.1694 184.691 45.427 183.776 45.4222C182.86 45.4174 182.11 46.1521 182.1 47.0632C182.09 47.9743 182.824 48.7168 183.739 48.7216C184.655 48.7264 185.405 47.9916 185.415 47.0805Z" fill="#FF6584"/>
<path d="M201.917 54.6553C201.927 53.7442 201.193 53.0017 200.277 52.9969C199.362 52.9921 198.612 53.7268 198.602 54.6379C198.592 55.549 199.326 56.2915 200.241 56.2963C201.157 56.3011 201.907 55.5664 201.917 54.6553Z" fill="#3F3D56"/>
</g>
<defs>
<clipPath id="clip0_258_4862">
<rect width="306" height="242" fill="white"/>
</clipPath>
</defs>
</svg>
