<svg width="270" height="208" viewBox="0 0 270 208" fill="none" xmlns="http://www.w3.org/2000/svg">
<path opacity="0.7" d="M36.6822 69.5096C36.6822 69.5096 21.627 99.4616 42.7842 129.622C63.9414 159.782 107.519 175.714 142.398 189.338C177.277 202.962 213.494 196.327 230.704 174.013C247.914 151.699 224.311 135.77 224.278 103.95C224.246 72.1304 230.461 63.7064 208.078 36.8245C185.695 9.94259 130.826 3.98963 89.3322 23.9285C47.8386 43.8674 36.6822 69.5096 36.6822 69.5096Z" fill="#F6F6F6"/>
<path d="M231.152 37.9814C200.556 11.9107 143.23 15.9334 116.586 21.4038C98.2584 25.1811 87.6906 37.6278 74.8764 39.1421C36.2664 43.7181 10.8702 58.8896 16.8966 84.7648C22.923 110.64 54.8532 118.777 70.5132 156.254C86.1732 193.732 124.859 199.893 165.915 187.201C206.971 174.508 214.38 164.658 224.1 129.377C233.82 94.0957 266.22 67.8419 231.152 37.9814Z" fill="#25C1A5"/>
<path opacity="0.7" d="M231.152 37.9814C200.556 11.9107 143.23 15.9334 116.586 21.4038C98.2584 25.1811 87.6906 37.6278 74.8764 39.1421C36.2664 43.7181 10.8702 58.8896 16.8966 84.7648C22.923 110.64 54.8532 118.777 70.5132 156.254C86.1732 193.732 124.859 199.893 165.915 187.201C206.971 174.508 214.38 164.658 224.1 129.377C233.82 94.0957 266.22 67.8419 231.152 37.9814Z" fill="#F6F6F6"/>
<path d="M94.8186 69.6141C101.768 68.7821 101.623 57.3753 89.3592 54.0515C77.0958 50.7277 83.4192 43.327 89.4996 44.9619C95.58 46.5968 95.6826 57.5209 104.841 58.4944C113.999 59.4678 115.927 45.3571 110.894 40.8144C105.862 36.2717 116.132 38.1478 117.374 36.7833C119.356 34.5785 112.768 23.9955 119.956 24.9315C123.514 25.3933 119.783 32.2032 122.445 42.3245C125.107 52.4457 128.299 57.4835 134.325 52.1005C140.351 46.7174 133.715 42.495 138.132 39.9366C142.549 37.3782 146.113 39.7078 145.692 42.9235C145.271 46.1392 145.087 49.3008 148.014 48.1485C150.941 46.9961 155.758 41.6131 158.15 37.3824C160.542 33.1517 163.264 33.4221 163.485 36.5753C163.706 39.7286 152.82 46.5926 152.539 51.2893C152.258 55.9859 156.503 64.4931 166.147 58.8355C175.792 53.1779 178.027 51.1187 181.364 54.143C184.702 57.1673 182.223 62.1177 187.682 62.047C193.142 61.9763 199.946 50.7859 203.38 51.647C206.815 52.5081 213.3 54.9417 201.496 59.967C189.691 64.9923 185.69 64.776 186.214 70.2589C186.737 75.7417 214.385 76.3949 211.594 80.0307C208.802 83.6665 177.865 83.2297 174.636 92.1862C171.407 101.143 188.136 99.7741 185.209 104.787C182.282 109.8 175.489 102.64 169.349 98.4096C163.21 94.1789 163.08 97.3446 157.68 98.68C152.28 100.015 151.097 97.6441 147.631 96.9702C144.164 96.2963 146.281 101.775 141.064 101.193C135.848 100.61 139.444 99.7865 135.913 98.7424C132.381 97.6982 129.33 108.073 121.738 106.455C114.145 104.837 109.528 100.111 104.776 103.447C100.024 106.784 103.496 113.868 96.7194 113.377C89.9424 112.886 92.3454 108.019 95.2128 107.453C98.0802 106.888 105.824 98.8838 104.485 95.8054C103.145 92.727 90.234 100.926 87.48 96.7123C84.726 92.4982 82.3392 88.8832 75.7296 90.152C69.12 91.4208 68.1102 84.328 73.2834 84.4361C78.4566 84.5443 90.4608 85.239 91.4004 81.9027C92.34 78.5664 89.2728 74.8307 81.108 71.6816C72.9432 68.5325 80.9568 62.1635 86.697 65.6829C92.4372 69.2022 89.3214 70.2547 94.8186 69.6141Z" fill="#25C1A5"/>
<path d="M38.1726 121.493L33.5556 113.913H50.5764L38.1726 121.493Z" stroke="#263238" stroke-linecap="round" stroke-linejoin="round"/>
<path d="M111.688 69.0146L113.821 73.4326L104.269 72.8211L111.688 69.0146Z" stroke="#263238" stroke-linecap="round" stroke-linejoin="round"/>
<path d="M114.161 23.6582L119.275 25.5635L114.161 27.4896L119.275 29.9273L114.161 32.5648L119.896 34.6073L115.376 37.8521" stroke="#263238" stroke-linecap="round" stroke-linejoin="round"/>
<path d="M215.541 140.466L213.818 148.558H224.813L225.671 146.066L218.349 146.016L219.748 140.121L215.541 140.466Z" stroke="#263238" stroke-linecap="round" stroke-linejoin="round"/>
<path d="M195.624 166.372C197.433 164.979 197.433 162.719 195.624 161.325C193.815 159.931 190.881 159.931 189.072 161.325C187.262 162.719 187.262 164.979 189.072 166.372C190.881 167.766 193.815 167.766 195.624 166.372Z" stroke="#263238" stroke-linecap="round" stroke-linejoin="round"/>
<path d="M82.4202 50.0321C84.979 50.0321 87.0534 48.4341 87.0534 46.4628C87.0534 44.4916 84.979 42.8936 82.4202 42.8936C79.8613 42.8936 77.787 44.4916 77.787 46.4628C77.787 48.4341 79.8613 50.0321 82.4202 50.0321Z" stroke="#263238" stroke-linecap="round" stroke-linejoin="round"/>
<path d="M224.51 106.995L234.716 111.492" stroke="#263238" stroke-linecap="round" stroke-linejoin="round"/>
<path d="M231.579 106.796L227.648 112.757" stroke="#263238" stroke-linecap="round" stroke-linejoin="round"/>
<path d="M175.403 79.7637L164.349 82.8545" stroke="#263238" stroke-linecap="round" stroke-linejoin="round"/>
<path d="M171.029 84.045L167.665 77.8799" stroke="#263238" stroke-linecap="round" stroke-linejoin="round"/>
<path d="M70.6211 111.405C70.5455 111.563 78.6563 108.705 78.6563 108.705L82.6199 115.698L74.5793 118.398L70.6211 111.405Z" stroke="#263238" stroke-linecap="round" stroke-linejoin="round"/>
<path d="M181.904 102.037C181.818 102.037 184.064 104.117 184.064 104.117L181.035 105.981L178.875 103.901L181.904 102.037Z" stroke="#263238" stroke-linecap="round" stroke-linejoin="round"/>
<path d="M33.5556 82.6304C33.5556 82.9455 33.4343 83.2536 33.207 83.5156C32.9798 83.7776 32.6568 83.9818 32.2789 84.1024C31.9009 84.223 31.4851 84.2545 31.0839 84.1931C30.6827 84.1316 30.3142 83.9798 30.025 83.757C29.7357 83.5342 29.5387 83.2503 29.4589 82.9412C29.3791 82.6322 29.4201 82.3118 29.5766 82.0207C29.7332 81.7295 29.9982 81.4807 30.3384 81.3056C30.6785 81.1306 31.0783 81.0371 31.4874 81.0371C31.7592 81.0366 32.0285 81.0774 32.2797 81.1573C32.5309 81.2372 32.7592 81.3545 32.9514 81.5026C33.1436 81.6506 33.2959 81.8265 33.3996 82.02C33.5033 82.2136 33.5563 82.421 33.5556 82.6304Z" stroke="#263238" stroke-linecap="round" stroke-linejoin="round"/>
<path d="M158.76 25.2473C158.761 25.5626 158.641 25.8711 158.414 26.1336C158.187 26.3962 157.865 26.6011 157.487 26.7223C157.109 26.8435 156.693 26.8757 156.292 26.8147C155.89 26.7536 155.521 26.6022 155.231 26.3796C154.941 26.1569 154.744 25.873 154.664 25.5639C154.583 25.2547 154.624 24.9341 154.78 24.6427C154.937 24.3513 155.202 24.1023 155.542 23.927C155.882 23.7518 156.282 23.6582 156.692 23.6582C157.239 23.6582 157.765 23.8255 158.152 24.1234C158.54 24.4213 158.759 24.8255 158.76 25.2473Z" stroke="#263238" stroke-linecap="round" stroke-linejoin="round"/>
<path d="M184.815 121.239L187.013 124.068L182.52 124.338L183.713 126.984L178.735 127.275L181.154 132.355" stroke="#263238" stroke-linecap="round" stroke-linejoin="round"/>
<path d="M68.3153 144.29L72.1925 146.087L67.0031 149.349L70.2539 150.929L66.0743 154.499" stroke="#263238" stroke-linecap="round" stroke-linejoin="round"/>
<path d="M180.36 53.2485L177.163 50.7774L183.227 48.5851L180.576 46.4427L185.755 43.7637" stroke="#263238" stroke-linecap="round" stroke-linejoin="round"/>
<path d="M55.4364 54.625C55.4364 54.625 78.5592 80.833 111.154 85.2218" stroke="#263238" stroke-linecap="round" stroke-linejoin="round"/>
<path d="M49.572 60.1865C49.572 60.1865 82.6902 86.8646 109.048 88.3705" stroke="#263238" stroke-linecap="round" stroke-linejoin="round"/>
<path d="M46.9044 68.5947C46.9044 68.5947 80.649 90.6885 106.337 91.9365" stroke="#263238" stroke-linecap="round" stroke-linejoin="round"/>
<path d="M46.9044 77.7549C46.9044 77.7549 74.8008 94.2576 104.301 94.5322" stroke="#263238" stroke-linecap="round" stroke-linejoin="round"/>
<path d="M75.4704 66.5015C74.6387 65.8294 74.0941 64.9773 73.9098 64.0596C73.8009 63.5998 73.7827 63.13 73.8558 62.666L66.474 72.9454C66.0942 72.0245 65.3712 71.21 64.395 70.6033C62.3106 69.2513 59.6862 69.0059 58.536 70.0625C57.3858 71.1191 58.1418 73.066 60.2262 74.418C62.3106 75.77 64.935 76.0113 66.0906 74.9588C66.2654 74.7948 66.3991 74.6072 66.4848 74.4055L72.2952 66.306C72.8666 67.0414 73.6319 67.6763 74.5416 68.1697C75.1561 68.5055 75.6345 68.9687 75.9213 69.5054C76.208 70.0422 76.2913 70.6306 76.1616 71.2023C76.221 71.0651 77.8464 68.4193 75.4704 66.5015Z" fill="#263238"/>
<path d="M79.4179 84.5356C78.7129 83.9624 78.253 83.2364 78.1003 82.4556C78.0072 82.0673 77.9908 81.6704 78.0516 81.2783L71.8201 89.9852C71.5 89.2068 70.8896 88.5181 70.0651 88.005C68.3047 86.861 66.0853 86.6572 65.1133 87.5474C64.1413 88.4377 64.7785 90.085 66.5443 91.229C68.3101 92.373 70.524 92.5769 71.496 91.6866C71.6447 91.5489 71.7583 91.3909 71.8309 91.2207L76.7448 84.3734C77.228 84.9946 77.8757 85.5304 78.6456 85.9458C79.1618 86.232 79.562 86.6251 79.8 87.0793C80.038 87.5336 80.1039 88.0306 79.9903 88.5126C80.0551 88.3961 81.4267 86.158 79.4179 84.5356Z" fill="#263238"/>
<path d="M102.346 82.8718C101.83 82.4379 101.442 81.9235 101.207 81.3636C100.972 80.8037 100.897 80.2114 100.985 79.627L94.7431 88.3255C94.4225 87.545 93.8101 86.8548 92.9827 86.3412C91.2223 85.1972 89.0029 84.9934 88.0309 85.8836C87.0589 86.7738 87.6961 88.4254 89.4619 89.5652C91.2277 90.705 93.4417 90.9172 94.4137 90.0228C94.5623 89.8851 94.6759 89.727 94.7485 89.5569L99.6679 82.7095C100.147 83.3316 100.793 83.8677 101.563 84.282C102.079 84.5684 102.48 84.9612 102.719 85.4154C102.958 85.8695 103.025 86.3664 102.913 86.8487C102.983 86.7322 104.355 84.49 102.346 82.8718Z" fill="#263238"/>
<path d="M185.015 68.732C178.627 80.4881 186.905 92.9806 204.827 94.8152C222.75 96.6497 231.79 86.9445 224.1 83.8785C216.41 80.8126 217.35 76.3032 215.579 66.5272C213.808 56.7512 191.392 56.9925 185.015 68.732ZM213.84 78.7451C206.113 83.3793 207.9 75.4171 210.676 74.7016C213.451 73.9861 216.745 77.0145 213.84 78.7451Z" fill="#999999" stroke="#263238" stroke-linecap="round" stroke-linejoin="round"/>
<path d="M208.537 63.7028C206.658 63.4033 205.427 65.2337 203.942 65.7828C204.676 66.8065 205.49 67.7956 206.377 68.7447C206.509 68.6255 206.676 68.5318 206.863 68.4711C207.051 68.4104 207.254 68.3845 207.457 68.3953C207.754 68.434 208.046 68.4896 208.332 68.5617C208.725 68.6286 209.134 68.6054 209.51 68.4949C209.885 68.3845 210.211 68.1917 210.446 67.9403C210.681 67.6889 210.815 67.39 210.832 67.0805C210.849 66.771 210.747 66.4645 210.541 66.1988C210.422 66.0491 210.271 65.8826 210.335 65.7162C210.4 65.5498 210.686 65.4583 210.751 65.3002C210.772 65.1782 210.732 65.0545 210.638 64.955C210.422 64.6438 210.124 64.3713 209.762 64.1554C209.4 63.9396 208.982 63.7854 208.537 63.7028Z" fill="#25C1A5" stroke="#263238" stroke-linecap="round" stroke-linejoin="round"/>
<path d="M197.165 65.6867C196.128 65.5244 194.967 65.5619 194.135 65.0585C193.968 64.9234 193.761 64.822 193.531 64.7632C193.24 64.7557 192.957 64.8364 192.742 64.9878C191.691 65.4715 190.783 66.1207 190.08 66.8931C189.454 67.7001 189.346 68.8192 190.156 69.5222C190.604 69.9091 191.322 70.1961 191.371 70.712C191.419 71.2278 190.042 72.5548 191.711 72.663C192.248 72.6527 192.768 72.5163 193.201 72.272C194.011 71.9142 195.14 72.1139 195.809 71.6812C196.382 71.3027 195.836 70.5206 196.76 70.271C197.354 70.1088 198.639 70.6204 198.801 69.855C198.909 69.3059 197.899 69.1104 197.656 68.6819C197.588 68.521 197.582 68.3482 197.639 68.1848C197.697 68.0213 197.815 67.8745 197.98 67.7625C198.318 67.5472 198.707 67.3847 199.125 67.2841C199.346 66.4646 198.18 65.8448 197.165 65.6867Z" fill="#25C1A5" stroke="#263238" stroke-linecap="round" stroke-linejoin="round"/>
<path d="M196.668 77.5426C196.436 77.4011 195.21 77.7381 194.681 77.2971C192.596 75.5666 187.288 81.5611 190.744 82.5179C190.982 82.5612 191.209 82.6358 191.414 82.7384C192.132 83.2002 191.236 84.2651 191.905 84.7685C192.575 85.2718 193.487 84.6312 194.335 84.6603C194.653 84.7126 194.977 84.7446 195.302 84.756C195.736 84.6717 196.112 84.4636 196.355 84.1736C197.219 83.379 198.218 82.3682 198.061 81.2616C197.948 80.4296 197.181 79.5435 196.841 78.7656C196.56 78.125 197.359 78.0875 196.668 77.5426Z" fill="#25C1A5" stroke="#263238" stroke-linecap="round" stroke-linejoin="round"/>
<path d="M206.582 86.5863C206.207 86.2511 205.874 85.8889 205.589 85.5047C205.238 85.1595 204.563 84.9057 204.098 85.1678C203.882 85.2884 203.747 85.5047 203.488 85.5588C203.278 85.575 203.066 85.5492 202.873 85.484C202.579 85.4224 202.269 85.428 201.98 85.5003C201.691 85.5725 201.436 85.7082 201.246 85.8906C201.055 86.073 200.938 86.2943 200.909 86.5272C200.879 86.7602 200.939 86.9947 201.08 87.202C201.739 88.1838 202.322 91.0167 203.504 90.8337C204.417 90.6881 205.195 91.595 206.032 91.4286C207.419 91.1582 208.391 87.8427 207.43 87.0731C207.187 86.8775 206.847 86.7652 206.582 86.5863Z" fill="#25C1A5" stroke="#263238" stroke-linecap="round" stroke-linejoin="round"/>
<path d="M218.041 87.2606C217.497 87.0692 216.932 86.9174 216.351 86.8072C215.83 86.6692 215.272 86.6376 214.731 86.7156C214.458 86.7626 214.219 86.8896 214.065 87.0696C213.911 87.2497 213.853 87.4688 213.905 87.6808C213.98 87.8638 214.164 88.0136 214.245 88.1924C214.558 88.8788 212.906 90.1019 214.369 90.4971C215.611 90.8299 217.917 90.651 218.905 89.9188C220.595 88.6376 219.478 87.7764 218.041 87.2606Z" fill="#25C1A5" stroke="#263238" stroke-linecap="round" stroke-linejoin="round"/>
<path d="M224.942 71.8812L226.778 70.0508L229.252 71.2613L227.437 73.2956L224.942 71.8812Z" fill="#BFBFBF" stroke="#263238" stroke-linecap="round" stroke-linejoin="round"/>
<path d="M224.759 71.3573C214.634 82.8846 208.613 91.0923 205.859 95.0194C205.799 95.1015 205.781 95.198 205.81 95.2896C205.838 95.3813 205.91 95.4614 206.012 95.5139C206.113 95.5664 206.237 95.5875 206.357 95.5729C206.478 95.5583 206.588 95.5092 206.663 95.4354C209.903 92.4818 216.518 86.0629 227.918 73.3374C228.528 72.6926 225.337 70.7208 224.759 71.3573Z" fill="#263238"/>
<path d="M226.568 69.9843C227.083 70.6378 227.821 71.1701 228.701 71.5235C228.701 71.5235 233.485 71.5235 234.9 67.2428C236.315 62.9622 239.042 62.047 239.042 62.047C238.872 61.9365 238.669 61.8592 238.452 61.8216C238.235 61.7839 238.01 61.7871 237.794 61.8307L238.459 61.2608C238.109 61.1427 237.725 61.0982 237.345 61.1318C236.966 61.1654 236.605 61.2759 236.299 61.4521L236.466 60.6201C235.882 61.3688 234.955 61.9222 233.869 62.1718C232.151 62.4672 224.807 64.8092 226.568 69.9843Z" fill="#F6F6F6"/>
<mask id="mask0_1481_44307" style="mask-type:luminance" maskUnits="userSpaceOnUse" x="226" y="60" width="14" height="12">
<path d="M226.568 69.9843C227.083 70.6378 227.821 71.1701 228.701 71.5235C228.701 71.5235 233.485 71.5235 234.9 67.2428C236.315 62.9622 239.042 62.047 239.042 62.047C238.872 61.9365 238.669 61.8592 238.452 61.8216C238.235 61.7839 238.01 61.7871 237.794 61.8307L238.459 61.2608C238.109 61.1427 237.725 61.0982 237.345 61.1318C236.966 61.1654 236.605 61.2759 236.299 61.4521L236.466 60.6201C235.882 61.3688 234.955 61.9222 233.869 62.1718C232.151 62.4672 224.807 64.8092 226.568 69.9843Z" fill="white"/>
</mask>
<g mask="url(#mask0_1481_44307)">
<path d="M234.9 67.2428C234.765 67.6535 234.585 68.0544 234.36 68.4409C234.463 67.4009 235.003 65.9449 234.36 65.766C233.361 65.4832 233.129 67.039 232.972 66.519C232.816 65.999 233.685 65.0505 233.577 64.439C233.469 63.8275 232.254 64.9174 231.503 65.0672C230.753 65.2169 232.772 63.4364 232.502 62.9872C232.368 62.8516 232.177 62.7548 231.962 62.7126C232.563 62.4817 233.193 62.2991 233.842 62.1676C234.927 61.9191 235.854 61.3672 236.439 60.6201L236.272 61.4521C236.578 61.2759 236.939 61.1654 237.318 61.1318C237.698 61.0982 238.082 61.1427 238.432 61.2608L237.767 61.8348C237.981 61.7885 238.206 61.7836 238.423 61.8206C238.64 61.8576 238.841 61.9354 239.009 62.047C239.009 62.047 236.315 62.9622 234.9 67.2428Z" fill="#25C1A5"/>
</g>
<path d="M226.568 69.9843C227.083 70.6378 227.821 71.1701 228.701 71.5235C228.701 71.5235 233.485 71.5235 234.9 67.2428C236.315 62.9622 239.042 62.047 239.042 62.047C238.872 61.9365 238.669 61.8592 238.452 61.8216C238.235 61.7839 238.01 61.7871 237.794 61.8307L238.459 61.2608C238.109 61.1427 237.725 61.0982 237.345 61.1318C236.966 61.1654 236.605 61.2759 236.299 61.4521L236.466 60.6201C235.882 61.3688 234.955 61.9222 233.869 62.1718C232.151 62.4672 224.807 64.8092 226.568 69.9843Z" stroke="#263238" stroke-linecap="round" stroke-linejoin="round"/>
<path d="M127.391 76.4482C127.391 76.4482 124.06 77.0431 126.754 79.8428C126.754 79.8428 123.709 80.2297 125.836 83.0918C125.836 83.0918 123.995 84.294 126.284 86.4198C126.284 86.4198 125.204 88.4998 130.567 91.3327C130.567 91.3327 130.529 93.1007 134.244 93.7788C137.484 94.3695 138.364 93.3254 138.364 93.3254C138.364 93.3254 142.63 92.9094 144.974 90.2095C144.974 90.2095 148.754 89.3234 147.647 87.5513C147.647 87.5513 150.692 85.7209 149.072 84.5353C149.072 84.5353 152.572 81.8188 150.806 80.9161C147.706 79.3394 127.391 76.4482 127.391 76.4482Z" fill="#263238" stroke="#263238" stroke-linecap="round" stroke-linejoin="round"/>
<path d="M152.728 44.5121C171.779 50.6107 172.022 64.8087 165.483 71.8932C159.543 78.3454 151.508 77.8587 150.806 80.9454C150.104 84.0321 127.694 79.5351 126.652 77.3262C125.609 75.1172 130.259 75.4167 121.651 66.5643C113.044 57.7118 129.335 37.0241 152.728 44.5121Z" fill="#F6F6F6"/>
<mask id="mask1_1481_44307" style="mask-type:luminance" maskUnits="userSpaceOnUse" x="119" y="42" width="51" height="40">
<path d="M152.728 44.5121C171.779 50.6107 172.022 64.8087 165.483 71.8932C159.543 78.3454 151.508 77.8587 150.806 80.9454C150.104 84.0321 127.694 79.5351 126.652 77.3262C125.609 75.1172 130.259 75.4167 121.651 66.5643C113.044 57.7118 129.335 37.0241 152.728 44.5121Z" fill="white"/>
</mask>
<g mask="url(#mask1_1481_44307)">
<path opacity="0.4" d="M150.811 80.9285C150.109 84.0153 127.694 79.5141 126.652 77.3093C125.609 75.1045 130.259 75.3957 121.651 66.5474C113.044 57.6991 129.335 37.0114 152.728 44.4994C155.017 45.2186 157.191 46.137 159.208 47.2367C149.639 45.6143 136.636 45.3314 129.465 55.4901C121.662 66.5516 133.785 76.6105 139.909 77.3925C139.909 77.3925 134.854 74.5554 133.169 69.7839C133.169 69.7839 141.809 79.6431 155.309 77.9957C152.896 78.8818 151.124 79.5474 150.811 80.9285Z" fill="#25C1A5"/>
</g>
<path d="M152.728 44.5121C171.779 50.6107 172.022 64.8087 165.483 71.8932C159.543 78.3454 151.508 77.8587 150.806 80.9454C150.104 84.0321 127.694 79.5351 126.652 77.3262C125.609 75.1172 130.259 75.4167 121.651 66.5643C113.044 57.7118 129.335 37.0241 152.728 44.5121Z" stroke="#263238" stroke-linecap="round" stroke-linejoin="round"/>
<path d="M147.598 84.8637C147.598 84.8637 138.629 87.1892 127.37 83.7197" stroke="#F6F6F6" stroke-linecap="round" stroke-linejoin="round"/>
<path d="M142.349 82.7843C142.884 82.7554 143.416 82.7012 143.942 82.6221" stroke="#F6F6F6" stroke-linecap="round" stroke-linejoin="round"/>
<path d="M128.061 80.5127C131.671 81.7007 135.495 82.4595 139.401 82.7633" stroke="#F6F6F6" stroke-linecap="round" stroke-linejoin="round"/>
<path d="M134.195 88.0257C137.932 88.4791 141.896 88.5665 145.535 87.7012" stroke="#F6F6F6" stroke-linecap="round" stroke-linejoin="round"/>
<path d="M127.791 86.8193C129.264 87.2163 130.771 87.536 132.3 87.7761" stroke="#F6F6F6" stroke-linecap="round" stroke-linejoin="round"/>
<path d="M139.925 90.6094C136.571 90.3185 133.294 89.6382 130.205 88.5918" stroke="#F6F6F6" stroke-linecap="round" stroke-linejoin="round"/>
<path d="M143.1 90.6885C142.614 90.7093 142.123 90.6885 141.631 90.6885" stroke="#F6F6F6" stroke-linecap="round" stroke-linejoin="round"/>
<path d="M131.382 91.7861C133.188 92.7722 135.336 93.3198 137.549 93.3586" stroke="#F6F6F6" stroke-linecap="round" stroke-linejoin="round"/>
<path d="M149.612 80.3169C149.612 80.3169 140.033 75.5745 128.828 76.0321" stroke="#263238" stroke-linecap="round" stroke-linejoin="round"/>
<path d="M142.906 78.9732C142.906 78.9732 148.397 69.7504 156.065 69.1264C156.065 69.1264 151.421 66.2519 149.612 65.8192C147.803 65.3866 146.653 68.4276 147.917 68.1031C149.18 67.7786 150.984 63.5604 148.829 62.458C146.675 61.3556 142.517 66.8384 143.743 67.2877C144.968 67.737 146.497 61.9671 143.494 61.314C140.492 60.6608 138.267 65.6362 139.676 65.736C141.086 65.8359 141.572 63.656 138.364 62.849C134.892 61.9546 130.54 63.265 130.54 63.265C130.54 63.265 137.263 69.4717 135.043 77.3757" stroke="#263238" stroke-linecap="round" stroke-linejoin="round"/>
<path d="M163.123 190.736C165.883 188.103 167.53 180.544 167.53 180.544C169.87 181.883 171.922 183.497 173.61 185.328C176.683 184.975 179.705 184.394 182.633 183.593C185.647 182.798 188.514 181.703 191.16 180.336C185.29 173.68 175.354 162.34 169.236 158.775C166.871 157.398 159.543 156.054 159.543 156.054C157.885 154.898 154.267 156.054 154.267 156.054C134.692 159.89 116.791 154.923 116.791 154.923C116.791 154.923 114.253 154.02 112.174 154.923C110.15 154.75 108.107 154.75 106.083 154.923C101.601 155.397 96.7032 159.341 94.6836 161.134L77.4846 176.48C77.4846 176.48 76.9068 182.52 78.1218 183.319C87.8418 189.738 102.173 175.153 102.173 175.153C102.265 175.182 102.487 187.853 110.16 194.48C110.16 194.48 115.598 196.394 136.744 194.896C157.729 193.411 163.123 190.736 163.123 190.736Z" fill="#25C1A5"/>
<path opacity="0.2" d="M89.7749 171.946C86.5349 172.166 84.8339 171.567 84.1859 170.502C88.8731 166.342 94.3433 161.442 94.6835 161.138L95.2235 160.664C97.6535 164.853 99.6731 171.28 89.7749 171.946Z" fill="#0C0C0C"/>
<path opacity="0.2" d="M104.177 185.162C103.077 181.88 102.406 178.521 102.173 175.136C102.173 175.136 104.528 172.761 105.181 170.265C105.181 170.281 108.238 179.67 104.177 185.162Z" fill="#0C0C0C"/>
<path opacity="0.2" d="M171.823 183.594C170.546 182.456 169.106 181.433 167.53 180.545C167.53 180.545 167.762 174.583 169.922 172.778C171.661 171.326 173.513 178.881 171.823 183.594Z" fill="#0C0C0C"/>
<path d="M163.123 190.736C165.883 188.103 167.53 180.544 167.53 180.544C169.87 181.882 171.922 183.497 173.61 185.328" stroke="#263238" stroke-linecap="round" stroke-linejoin="round"/>
<path d="M191.16 180.336C185.29 173.68 175.354 162.34 169.236 158.775C166.871 157.398 159.543 156.054 159.543 156.054C157.885 154.898 154.267 156.054 154.267 156.054C134.692 159.89 116.791 154.923 116.791 154.923C116.791 154.923 114.253 154.02 112.174 154.923C110.15 154.75 108.107 154.75 106.083 154.923C101.601 155.397 96.7032 159.341 94.6836 161.134L77.4846 176.48C77.4846 176.48 76.9068 182.52 78.1218 183.319C87.8418 189.738 102.173 175.153 102.173 175.153C102.265 175.182 102.487 187.853 110.16 194.48" stroke="#263238" stroke-linecap="round" stroke-linejoin="round"/>
<path d="M154.98 152.394L154.721 152.477C154.812 152.46 154.9 152.431 154.98 152.394Z" fill="#263238"/>
<path d="M160.807 141.17C162.859 141.403 163.361 140.242 163.361 140.242C163.361 140.242 160.807 141.17 158.544 137.601C157.259 135.566 157.896 131.831 158.679 128.994C160.261 126.984 162.556 124.205 162.859 120.911C163.399 115.253 159.948 112.387 155.968 113.227C155.968 113.227 155.677 108.447 150.077 106.733C144.477 105.02 143.597 106.426 138.197 105.386C132.797 104.346 127.516 105.253 125.582 107.944C123.649 110.636 122.99 115.524 119.691 117.416C116.392 119.309 110.619 123.864 112.444 128.96C114.269 134.056 113.233 135.799 110.824 138.208C108.416 140.617 109.885 145.359 114.48 146.848C114.48 146.848 112.531 146.045 113.908 144.702C113.908 144.702 114.988 147.897 118.589 147.314C122.191 146.732 126.765 146.536 129.098 148.504C131.431 150.472 139.957 151 141.88 149.502C143.802 148.005 145.292 149.394 148.775 150.75C152.258 152.107 156.125 150.917 156.125 150.917C156.125 150.917 155.801 152.077 154.969 152.423C155.677 152.194 157.637 151.474 158.209 150.393C158.782 149.311 159.106 148.267 158.42 145.742C160.834 145.014 159.721 143.782 159.721 143.782C162 144.768 163.08 141.856 163.08 141.856C160.958 141.831 160.807 141.17 160.807 141.17Z" fill="#263238"/>
<path d="M156.227 156.574C156.227 156.574 140.983 161.799 136.085 162.012C131.188 162.224 114.529 155.397 114.529 155.397L127.229 152.726C128.957 150.189 129.001 147.202 128.585 143.703C128.455 142.618 128.288 141.594 128.104 140.675C127.672 138.458 127.192 136.91 127.192 136.91L145.141 137.484C144.767 138.363 144.459 139.257 144.218 140.163C143.721 142.042 143.438 143.95 143.37 145.867C143.165 150.651 144.126 153.355 144.126 153.355L156.227 156.574Z" fill="#F6F6F6" stroke="#263238" stroke-linecap="round" stroke-linejoin="round"/>
<path d="M119.119 157.194C119.119 157.194 128.731 158.492 131.117 158.28C133.504 158.068 135.378 159.878 135.378 159.878" fill="#F6F6F6"/>
<path d="M119.119 157.194C119.119 157.194 128.731 158.492 131.117 158.28C133.504 158.068 135.378 159.878 135.378 159.878" stroke="#263238" stroke-linecap="round" stroke-linejoin="round"/>
<path d="M152.896 157.664C152.896 157.664 143.1 158.496 140.729 158.538C138.359 158.579 137.657 159.877 137.657 159.877" fill="#F6F6F6"/>
<path d="M152.896 157.664C152.896 157.664 143.1 158.496 140.729 158.538C138.359 158.579 137.657 159.877 137.657 159.877" stroke="#263238" stroke-linecap="round" stroke-linejoin="round"/>
<path d="M144.218 140.163C143.721 142.042 143.438 143.95 143.37 145.866C141.896 146.866 140.191 147.643 138.343 148.154C135.324 148.924 131.323 146.074 128.585 143.703C128.455 142.617 128.288 141.594 128.104 140.675L144.218 140.163Z" fill="#263238"/>
<path d="M123.023 125.27C123.023 125.27 121.543 123.519 120.226 123.872C118.908 124.226 118.908 128.96 119.011 130.208C119.113 131.456 122.337 134.197 123.687 133.445" fill="#F6F6F6"/>
<path d="M123.023 125.27C123.023 125.27 121.543 123.519 120.226 123.872C118.908 124.226 118.908 128.96 119.011 130.208C119.113 131.456 122.337 134.197 123.687 133.445" stroke="#263238" stroke-linecap="round" stroke-linejoin="round"/>
<path d="M155.52 128.96C155.52 128.96 157.588 127.613 158.722 128.245C159.856 128.877 158.074 133.42 157.513 134.581C156.951 135.741 152.831 137.663 151.821 136.64" fill="#F6F6F6"/>
<path d="M155.52 128.96C155.52 128.96 157.588 127.613 158.722 128.245C159.856 128.877 158.074 133.42 157.513 134.581C156.951 135.741 152.831 137.663 151.821 136.64" stroke="#263238" stroke-linecap="round" stroke-linejoin="round"/>
<path d="M135.443 147.127C130.005 146.507 124.605 139.402 123.952 137.401C123.228 135.176 121.635 124.197 124.74 118.182C128.234 111.422 135.54 108.568 142.663 109.375C149.785 110.182 155.714 114.538 156.53 121.789C157.253 128.237 151.616 138.395 150.088 140.367C148.716 142.139 141.183 147.776 135.443 147.127Z" fill="#F6F6F6" stroke="#263238" stroke-linecap="round" stroke-linejoin="round"/>
<path d="M147.771 129.513C147.625 130.291 147.053 130.869 146.497 130.803C145.94 130.736 145.616 130.062 145.762 129.284C145.908 128.507 146.48 127.932 147.037 127.995C147.593 128.057 147.922 128.735 147.771 129.513Z" fill="#263238"/>
<path d="M130.016 127.501C129.87 128.274 130.199 128.957 130.756 129.019C131.312 129.081 131.879 128.503 132.025 127.725C132.17 126.947 131.846 126.269 131.29 126.207C130.734 126.144 130.167 126.723 130.016 127.501Z" fill="#263238"/>
<path d="M142.177 138.004C142.177 138.004 139.358 142.264 135.761 141.565C132.165 140.866 132.192 136.989 132.192 136.877L132.7 137.027C134.121 137.437 135.594 137.73 137.095 137.9C138.549 138.047 140.016 138.092 141.48 138.033C141.917 138.021 142.177 138.004 142.177 138.004Z" fill="#757575"/>
<path d="M137.484 129.14C137.624 131.815 134.644 132.268 135.216 133.196C135.622 133.779 136.308 134.218 137.128 134.419" fill="#F6F6F6"/>
<path d="M137.484 129.14C137.624 131.815 134.644 132.268 135.216 133.196C135.622 133.779 136.308 134.218 137.128 134.419" stroke="#263238" stroke-linecap="round" stroke-linejoin="round"/>
<path d="M132.192 136.864C132.192 136.864 132.16 140.862 135.761 141.561C139.363 142.26 142.177 137.996 142.177 137.996" stroke="#263238" stroke-linecap="round" stroke-linejoin="round"/>
<path d="M126.803 123.968C126.803 123.968 130.043 120.815 135.07 121.814" stroke="#263238" stroke-linecap="round" stroke-linejoin="round"/>
<path d="M151.691 126.797C151.691 126.797 149.764 123.053 144.585 122.899" stroke="#263238" stroke-linecap="round" stroke-linejoin="round"/>
<path d="M166.882 124.28L165.877 125.137L165.1 125.799L156.098 129.826L156.465 127.883L163.836 124.584L165.429 124.426L166.882 124.28Z" fill="#25C1A5" stroke="#263238" stroke-linecap="round" stroke-linejoin="round"/>
<path d="M164.7 125.969C163.366 125.774 163.814 124.58 163.814 124.58L166.86 124.28L164.7 125.969Z" fill="#F6F6F6" stroke="#263238" stroke-linecap="round" stroke-linejoin="round"/>
<path d="M166.86 124.28L165.856 125.133C165.761 125.115 165.674 125.081 165.598 125.033C165.523 124.986 165.461 124.927 165.419 124.859C165.376 124.792 165.353 124.719 165.351 124.644C165.349 124.569 165.368 124.494 165.407 124.426L166.86 124.28Z" fill="#263238"/>
<path d="M147.998 115.162C147.998 115.162 144.58 118.615 137.16 119.613C127.867 120.861 122.737 127.051 122.866 129.635C121.039 126.011 120.49 122.08 121.273 118.24C123.12 108.739 134.627 106.023 142.992 106.684C151.357 107.345 155.412 113.806 155.412 113.806C155.412 113.806 161.692 117.575 160.812 122.326C159.937 126.872 158.506 127.001 157.745 128.029C156.697 129.452 158.074 130.047 154.402 132.389C154.402 132.389 155.855 126.04 154.051 121.306C152.248 116.572 147.998 115.162 147.998 115.162Z" fill="#263238"/>
<path d="M150.298 113.568C150.298 113.568 147.02 123.211 128.39 124.717C128.39 124.717 140.94 122.97 146.75 114.138L150.298 113.568Z" fill="#263238"/>
<path d="M136.161 139.473C136.161 139.473 138.721 138.77 139.709 139.473C139.709 139.473 138.024 141.553 135.859 141.045C133.693 140.538 133.234 138.549 133.234 138.549C133.234 138.549 134.406 138.112 136.161 139.473Z" fill="#BFBFBF"/>
<path d="M141.836 138.037L141.107 138.674C138.234 138.956 135.316 138.596 132.7 137.638L132.446 136.947C133.949 137.386 135.507 137.705 137.095 137.9C138.668 138.046 140.254 138.092 141.836 138.037Z" fill="#F6F6F6"/>
<path d="M131.387 136.615C131.387 136.615 137.241 138.716 142.9 137.921" stroke="#263238" stroke-linecap="round" stroke-linejoin="round"/>
<path d="M149.801 111.172C149.801 111.172 145.832 115.178 136.161 115.789C126.49 116.401 123.687 119.488 123.687 119.488" stroke="#757575" stroke-linecap="round" stroke-linejoin="round"/>
<path d="M128.023 111.488C127.127 111.621 125.863 111.867 125.464 112.57" stroke="#757575" stroke-linecap="round" stroke-linejoin="round"/>
<path d="M150.995 108.061C145.163 111.418 137.63 111.805 129.978 111.33" stroke="#757575" stroke-linecap="round" stroke-linejoin="round"/>
<path d="M114.048 138.77C113.492 139.214 113.056 139.738 112.765 140.313C112.473 140.888 112.333 141.501 112.352 142.118" stroke="#757575" stroke-linecap="round" stroke-linejoin="round"/>
<path d="M121.019 120.046C118.319 121.231 116.132 123.411 115.987 125.87C115.744 130.03 119.605 133.774 115.598 137.397" stroke="#757575" stroke-linecap="round" stroke-linejoin="round"/>
<path d="M119.88 133.574C119.88 133.574 122.872 136.012 120.928 138.491C118.984 140.971 117.979 143.483 121.964 145.314" stroke="#757575" stroke-linecap="round" stroke-linejoin="round"/>
<path d="M141.723 120.782C141.086 121.089 140.426 121.367 139.747 121.614" stroke="#757575" stroke-linecap="round" stroke-linejoin="round"/>
<path d="M148.711 114.642C147.55 116.7 145.726 118.497 143.413 119.862" stroke="#757575" stroke-linecap="round" stroke-linejoin="round"/>
<path d="M150.995 114.987C150.995 114.987 155.039 116.68 156.595 119.488C158.15 122.296 155.957 126.248 156.973 127.613" stroke="#757575" stroke-linecap="round" stroke-linejoin="round"/>
<path d="M157.286 142.376C157.843 142.646 158.454 142.843 159.095 142.958" stroke="#757575" stroke-linecap="round" stroke-linejoin="round"/>
<path d="M154.084 138.491C154.331 139.506 154.886 140.461 155.704 141.278" stroke="#757575" stroke-linecap="round" stroke-linejoin="round"/>
<path d="M152.485 140.725C152.485 140.725 152.107 143.895 154.732 145.991C157.356 148.088 156.589 149.394 156.589 149.394" stroke="#757575" stroke-linecap="round" stroke-linejoin="round"/>
<path d="M148.138 144.353C148.138 144.353 149.704 147.564 147.22 148.633" stroke="#757575" stroke-linecap="round" stroke-linejoin="round"/>
<path d="M154.084 114.105C154.084 114.105 159.991 115.025 160.855 117.017C161.719 119.01 160.855 121.302 160.855 121.302" stroke="#757575" stroke-linecap="round" stroke-linejoin="round"/>
<path d="M78.1218 183.319C73.1106 181.177 74.0826 173.472 77.3982 163.85C79.0182 159.124 84.645 147.21 84.5316 146.794C84.2284 145.993 83.8119 145.22 83.2896 144.49C83.2896 144.49 84.9096 143.217 85.59 142.988C88.5114 142.027 94.2786 140.816 96.93 141.661C97.7562 141.923 98.955 143.408 98.7876 144.015C98.6202 144.623 96.255 146.62 96.4818 148.533C96.7086 150.447 94.554 156.762 94.6134 159.278C94.6134 159.794 94.6512 160.443 94.689 161.15C94.689 161.6 94.689 169.47 90.7578 173.489" fill="#25C1A5"/>
<path d="M78.1218 183.319C73.1106 181.177 74.0826 173.472 77.3982 163.85C79.0182 159.124 84.645 147.21 84.5316 146.794C84.2284 145.993 83.8119 145.22 83.2896 144.49C83.2896 144.49 84.9096 143.217 85.59 142.988C88.5114 142.027 94.2786 140.816 96.93 141.661C97.7562 141.923 98.955 143.408 98.7876 144.015C98.6202 144.623 96.255 146.62 96.4818 148.533C96.7086 150.447 94.554 156.762 94.6134 159.278C94.6134 159.794 94.6512 160.443 94.689 161.15C94.689 161.6 94.689 169.47 90.7578 173.489" stroke="#263238" stroke-linecap="round" stroke-linejoin="round"/>
<path d="M94.4136 123.552C94.5216 124.318 96.6654 129.792 97.3296 135.354C98.6847 134.975 99.9587 134.442 101.11 133.773C102.454 132.866 105.268 133.59 105.154 134.189C105.041 134.788 102.454 134.688 100.267 136.951C98.0802 139.214 97.632 141.723 94.7268 142.929C91.8216 144.136 87.3072 144.564 85.5468 142.954C83.7864 141.344 81.8316 132.804 82.5174 131.914C83.1024 131.264 83.834 130.7 84.6774 130.25C84.6774 130.25 85.4172 128.586 86.5404 128.457C87.6636 128.328 90.3204 128.286 90.3204 128.286C90.9411 127.932 91.7115 127.768 92.4804 127.829C92.4804 127.829 91.6056 121.422 90.8604 119.271C90.1152 117.121 93.5334 117.133 94.4136 123.552Z" fill="#F6F6F6" stroke="#263238" stroke-linecap="round" stroke-linejoin="round"/>
<path d="M92.5182 127.829C94.8132 128.628 95.8284 131.989 95.8284 132.23C95.3696 133.425 94.8178 134.598 94.176 135.741C93.6036 136.698 92.367 135.741 92.367 135.741C92.367 135.741 91.989 136.989 91.1196 136.444C90.0126 135.741 90.0126 133.466 90.0126 133.466C90.0126 133.466 89.8776 135.359 89.235 136.282C88.5924 137.206 87.2964 136.59 87.4854 133.857C87.4854 133.857 84.8394 133.358 84.7476 132.859" stroke="#263238" stroke-linecap="round" stroke-linejoin="round"/>
<path d="M90.0125 133.465C89.3645 132.184 86.8751 131.007 86.8751 131.007" stroke="#263238" stroke-linecap="round" stroke-linejoin="round"/>
<path d="M92.3669 135.741C92.3669 135.741 93.6683 132.829 93.3173 132.23C92.9663 131.631 90.7523 129.979 90.7523 129.979" stroke="#263238" stroke-linecap="round" stroke-linejoin="round"/>
<path d="M97.3295 135.367C97.3295 135.367 94.8887 135.783 93.8033 138.179" stroke="#263238" stroke-linecap="round" stroke-linejoin="round"/>
<path d="M84.5316 146.777C84.5316 146.777 88.4736 149.273 92.7126 147.193" stroke="#263238" stroke-linecap="round" stroke-linejoin="round"/>
<path d="M87.8472 154.187C87.0884 154.528 86.2752 154.793 85.428 154.973" stroke="#263238" stroke-linecap="round" stroke-linejoin="round"/>
<path d="M97.3295 145.991C95.4252 148.732 92.8593 151.168 89.7695 153.167" stroke="#263238" stroke-linecap="round" stroke-linejoin="round"/>
<path d="M112.174 154.923C112.174 154.923 119.869 160.489 124.373 161.995" stroke="#263238" stroke-linecap="round" stroke-linejoin="round"/>
<path d="M104.501 160.946C104.848 161.686 105.076 162.456 105.181 163.238" stroke="#263238" stroke-linecap="round" stroke-linejoin="round"/>
<path d="M101.828 156.229C102.519 157.232 103.145 158.268 103.712 159.32" stroke="#263238" stroke-linecap="round" stroke-linejoin="round"/>
<path d="M133.234 163.85C133.234 163.85 145.827 163.983 153.911 159.731" stroke="#263238" stroke-linecap="round" stroke-linejoin="round"/>
<path d="M159.543 156.055C158.461 156.621 157.471 157.286 156.595 158.035" stroke="#263238" stroke-linecap="round" stroke-linejoin="round"/>
<path d="M165.866 163.164C164.573 164.198 163.099 165.088 161.487 165.81" stroke="#263238" stroke-linecap="round" stroke-linejoin="round"/>
<path d="M168.61 160.576C168.2 161.052 167.756 161.51 167.281 161.949" stroke="#263238" stroke-linecap="round" stroke-linejoin="round"/>
<path d="M102.173 175.136C102.173 175.136 105.246 172.07 105.181 168.393" stroke="#263238" stroke-linecap="round" stroke-linejoin="round"/>
<path d="M167.53 180.544C167.53 180.544 166.871 174.375 172.487 169.865" stroke="#263238" stroke-linecap="round" stroke-linejoin="round"/>
<path d="M173.61 173.265C173.88 173.473 168.815 176.876 167.611 178.398" stroke="#263238" stroke-linecap="round" stroke-linejoin="round"/>
<path d="M118.26 188.52C118.26 188.52 136.69 194.16 146.237 194.044" stroke="#263238" stroke-linecap="round" stroke-linejoin="round"/>
<path d="M138.278 174.896H136.091C135.736 174.896 135.448 175.117 135.448 175.391V177.961C135.448 178.235 135.736 178.456 136.091 178.456H138.278C138.633 178.456 138.92 178.235 138.92 177.961V175.391C138.92 175.117 138.633 174.896 138.278 174.896Z" fill="#BFBFBF"/>
<path d="M138.278 178.722H136.118C135.857 178.721 135.607 178.641 135.423 178.498C135.238 178.355 135.135 178.162 135.135 177.961V175.39C135.135 175.189 135.238 174.996 135.423 174.853C135.607 174.711 135.857 174.63 136.118 174.629H138.278C138.407 174.629 138.536 174.649 138.655 174.687C138.775 174.725 138.883 174.781 138.975 174.852C139.066 174.923 139.138 175.007 139.187 175.099C139.236 175.192 139.261 175.29 139.261 175.39V177.961C139.261 178.061 139.236 178.16 139.187 178.252C139.138 178.344 139.066 178.428 138.975 178.499C138.883 178.57 138.775 178.626 138.655 178.664C138.536 178.703 138.407 178.722 138.278 178.722ZM136.118 175.157C136.039 175.158 135.963 175.183 135.907 175.227C135.852 175.27 135.821 175.329 135.821 175.39V177.961C135.821 178.022 135.852 178.08 135.908 178.123C135.963 178.166 136.039 178.19 136.118 178.19H138.278C138.317 178.19 138.356 178.185 138.392 178.174C138.429 178.162 138.462 178.145 138.489 178.124C138.517 178.103 138.539 178.077 138.554 178.049C138.568 178.021 138.576 177.991 138.575 177.961V175.39C138.576 175.36 138.568 175.33 138.554 175.301C138.539 175.273 138.517 175.247 138.49 175.226C138.462 175.204 138.429 175.187 138.393 175.175C138.356 175.163 138.317 175.157 138.278 175.157H136.118Z" fill="#263238"/>
<path d="M144.126 153.371C144.126 153.371 153.911 154.923 137.187 174.5C137.187 174.5 117.704 155.489 127.229 152.727" stroke="#263238" stroke-linecap="round" stroke-linejoin="round"/>
<path d="M137.533 174.304C137.533 174.591 137.365 174.824 137.16 174.824C136.955 174.824 136.787 174.591 136.787 174.304C136.787 174.017 136.955 173.784 137.16 173.784C137.365 173.784 137.533 174.017 137.533 174.304Z" fill="#263238"/>
</svg>
