<svg width="40" height="40" viewBox="0 0 40 40" fill="none" xmlns="http://www.w3.org/2000/svg">
<path d="M21.162 40C18.9203 40 16.6787 39.1065 14.9717 37.2977C11.5578 33.6802 11.5578 27.818 14.9717 24.2005L20.072 18.8178C20.6684 18.1858 21.6555 18.1858 22.2519 18.8178C22.8483 19.4497 22.8483 20.4958 22.2519 21.1278L17.1517 26.5105C14.9512 28.8423 14.9512 32.656 17.1517 34.9877C19.3522 37.3195 22.9512 37.3195 25.1517 34.9877L33.1517 26.5105C35.5784 23.939 36.9152 20.5176 36.9152 16.8782C36.9152 13.2389 35.5784 9.81749 33.1517 7.24598C28.1337 1.92863 19.9897 1.92863 14.9717 7.24598L6.25193 16.486C4.21594 18.6434 3.08483 21.52 3.08483 24.571C3.08483 27.6219 4.21594 30.4985 6.25193 32.656C6.84833 33.2879 6.84833 34.334 6.25193 34.966C5.65553 35.5979 4.66838 35.5979 4.07198 34.966C1.46015 32.1765 0 28.4936 0 24.571C0 20.6483 1.43959 16.9436 4.07198 14.176L12.7918 4.93598C19.0026 -1.64533 29.1208 -1.64533 35.3316 4.93598C38.3342 8.11768 40 12.3672 40 16.8782C40 21.3893 38.3342 25.6388 35.3316 28.8205L27.3316 37.2977C25.6247 39.1065 23.4036 40 21.162 40Z" fill="#0C0C0C"/>
</svg>
