<?xml version="1.0" encoding="UTF-8"?>
<!DOCTYPE svg PUBLIC "-//W3C//DTD SVG 1.1//EN" "http://www.w3.org/Graphics/SVG/1.1/DTD/svg11.dtd">
<!-- Creator: CorelDRAW -->
<svg xmlns="http://www.w3.org/2000/svg" xml:space="preserve" width="11.6929in" height="8.26772in" version="1.1" style="shape-rendering:geometricPrecision; text-rendering:geometricPrecision; image-rendering:optimizeQuality; fill-rule:evenodd; clip-rule:evenodd"
viewBox="0 0 11692.91 8267.72"
 xmlns:xlink="http://www.w3.org/1999/xlink"
 xmlns:xodm="http://www.corel.com/coreldraw/odm/2003">
 <defs>
  <style type="text/css">
   <![CDATA[
    .fil0 {fill:#81BFDA}
    .fil1 {fill:#81BFDA;fill-rule:nonzero}
   ]]>
  </style>
 </defs>
 <g id="Layer_x0020_1">
  <metadata id="CorelCorpID_0Corel-Layer"/>
  <path class="fil0" d="M4022.94 4561.29c47.09,0 88.65,-5.54 124.66,-16.61 38.78,-11.09 69.25,-33.25 94.18,-58.18 27.7,-27.7 47.1,-63.71 60.94,-110.81 11.09,-44.31 19.4,-99.72 19.4,-168.98l0 -731.32 418.3 0 0 745.17c0,127.43 -16.62,235.48 -52.63,326.89 -36.01,88.65 -85.87,160.67 -149.59,216.07 -66.49,55.41 -141.28,94.19 -227.16,121.89 -88.65,24.93 -182.84,36.01 -288.1,36.01 -102.5,0 -196.69,-11.08 -285.33,-36.01 -85.88,-27.69 -160.68,-66.48 -227.16,-121.89 -63.71,-55.41 -113.58,-127.43 -149.59,-216.07 -36.02,-91.41 -52.64,-199.45 -52.64,-326.89l0 -745.17 418.29 0 0 731.32c0,66.49 8.32,124.67 19.4,168.98 13.85,44.32 33.24,83.1 60.94,110.81 24.93,24.93 55.41,47.09 94.19,58.18 36.01,11.08 77.56,16.61 121.89,16.61zm1036.05 -1130.24l127.43 -343.5 301.95 -2.77 0 390.6 404.44 0 0 357.35 -404.44 0 0 493.09c0,41.56 2.76,77.57 13.84,108.04 11.09,27.7 24.93,49.86 41.56,66.49 19.4,16.62 38.78,27.7 63.72,33.24 24.93,8.32 49.86,11.09 77.57,11.09 0,0 77.57,0 235.46,0l-2.77 343.5 -271.47 0c-80.34,0 -152.36,-8.31 -224.39,-22.16 -69.26,-13.85 -130.2,-41.56 -182.84,-83.1 -52.63,-38.78 -94.18,-94.19 -124.66,-168.99 -27.69,-72.02 -44.32,-166.21 -44.32,-285.33l0 -495.87 -221.61 0 0 -318.57 210.53 -83.11zm1063.75 1446.04l0 -1401.71 421.06 0 0 1401.71 -421.06 0zm-36.01 -1781.23c0,-27.7 5.54,-58.17 19.39,-83.1 11.08,-27.7 27.7,-52.63 49.86,-72.03 22.16,-19.39 47.09,-36.01 77.57,-47.09 30.47,-13.85 66.49,-19.39 105.26,-19.39 36.02,0 72.03,5.54 102.5,19.39 30.48,11.08 55.41,27.7 77.57,47.09 22.16,19.4 38.78,44.33 49.87,72.03 13.85,24.93 19.39,55.4 19.39,83.1 0,30.48 -5.54,60.94 -19.39,85.87 -11.08,27.7 -27.7,49.87 -49.87,69.26 -22.16,22.16 -47.09,36.01 -80.33,49.87 -30.48,11.08 -63.72,16.61 -102.5,16.61 -36.01,0 -72.03,-5.54 -102.5,-16.61 -30.48,-13.85 -55.41,-27.7 -77.57,-49.87 -22.16,-19.39 -38.78,-44.33 -49.86,-69.26 -13.85,-27.7 -19.39,-55.4 -19.39,-85.87zm775.65 1781.23l0 -1905.89 418.29 0 0 1905.89 -418.29 0zm1052.67 -703.63c0,60.94 8.31,113.58 30.46,160.67 19.4,47.1 44.33,88.65 80.34,121.9 33.24,36.01 72.02,60.94 119.13,80.33 44.31,16.63 94.18,27.7 144.04,27.7 52.63,0 99.72,-11.08 146.82,-27.7 44.33,-19.39 83.11,-44.32 119.12,-80.33 33.24,-33.25 58.17,-74.8 77.57,-121.9 19.39,-47.09 30.46,-99.72 30.46,-160.67 0,-55.4 -11.08,-108.03 -30.46,-155.12 -19.4,-47.1 -47.1,-88.65 -80.34,-121.9 -33.24,-36.01 -72.02,-60.94 -119.11,-80.33 -44.33,-16.63 -94.19,-27.7 -144.06,-27.7 -52.63,0 -102.5,11.08 -146.82,27.7 -47.09,19.39 -85.87,44.31 -119.12,80.33 -33.24,33.25 -60.94,74.8 -80.33,121.9 -19.39,47.09 -27.7,99.72 -27.7,155.12zm-418.3 2.77c0,-102.5 16.63,-199.45 52.63,-290.87 36.01,-88.65 85.87,-168.98 149.59,-235.46 66.49,-69.26 144.06,-121.89 238.24,-160.67 91.42,-38.78 196.68,-60.94 310.26,-60.94 94.19,0 177.29,16.61 252.09,47.09 72.02,30.46 135.74,66.49 188.37,108.03l16.62 -108.03 354.59 0 0 1401.71 -354.59 0 -19.39 -108.04c-52.63,41.55 -113.58,77.56 -188.37,108.04 -72.02,30.48 -155.13,44.32 -249.31,44.32 -113.58,0 -216.07,-19.39 -310.26,-58.17 -91.42,-38.78 -171.75,-94.19 -238.24,-160.67 -63.72,-66.49 -113.58,-146.82 -149.59,-235.46 -36.01,-91.42 -52.63,-188.37 -52.63,-290.87zm3011.2 -2.77c0,-55.4 -8.31,-108.03 -27.7,-155.12 -19.39,-47.1 -44.33,-88.65 -77.57,-121.9 -33.25,-36.01 -72.02,-60.94 -119.12,-80.33 -44.32,-16.63 -94.18,-27.7 -146.81,-27.7 -49.87,0 -99.73,11.08 -144.05,27.7 -47.1,19.39 -85.88,44.31 -119.12,80.33 -33.24,33.25 -60.94,74.8 -80.34,121.9 -22.16,47.09 -30.47,99.72 -30.47,155.12 0,60.94 8.31,113.58 27.7,160.67 19.39,49.86 47.09,91.42 80.33,124.66 33.25,33.25 74.8,58.18 119.12,77.57 44.32,19.4 94.18,27.7 146.82,27.7 49.86,0 99.72,-8.31 144.05,-27.7 47.09,-19.39 85.87,-44.32 119.11,-77.57 33.24,-36.01 60.94,-77.56 80.34,-124.66 19.39,-47.09 27.7,-99.72 27.7,-160.67zm421.07 2.77c0,102.5 -19.4,199.45 -52.64,290.87 -36.01,88.65 -85.87,168.98 -152.36,238.24 -63.71,66.48 -144.04,121.89 -235.46,160.67 -91.42,38.78 -196.68,58.17 -310.26,58.17 -91.42,0 -174.52,-13.85 -249.32,-47.09 -74.79,-30.48 -138.51,-66.49 -188.37,-108.04l-19.4 108.04 -357.35 0 0 -1905.89 418.3 0 0 581.74c49.86,-36.01 110.81,-66.49 174.52,-88.65 66.49,-24.93 144.06,-36.01 227.16,-36.01 116.35,0 218.85,19.39 313.03,58.17 91.42,41.56 168.99,94.18 232.7,163.44 63.71,66.49 113.57,146.82 146.81,235.46 36.01,91.42 52.64,188.37 52.64,290.87z"/>
  <path class="fil1" d="M2179.37 3503.18l-194.79 495.6 -363.59 -282.72 340.22 -831.17 438.83 0 820.38 2004.17 -492.12 0 -288.55 -715.83 -236.09 0 236.09 0 -257.37 -670.06 -3.01 0zm-308.49 799.06l-236.4 586.83 -493.65 0 222.55 -543.67 507.5 -43.16z"/>
  <path class="fil0" d="M1396.48 3760.31c82.04,-162.26 74.67,-350.87 -77.09,-501.87l-170.85 183.03c32.92,46.62 45.39,60.95 47.57,106.49 6.76,142.54 -152.33,219.9 -262.06,124.65l-172.27 184.4c151.88,134.98 361.22,140.37 503.12,41.12 -5.87,37.36 -65.35,119.17 -44.9,255.28 12.61,84.34 44.16,168.8 125.56,245.86l-0.46 0.49c156.09,134.64 356.12,141.02 503.38,41.41 -1.19,7.4 0.2,3.13 -3.92,15.43 -24.63,73.57 -59.96,135.62 -40.75,239.7 15.45,83.79 40.75,169.91 127,246.69l170.71 -183.51c-142.82,-159.89 52.09,-359.31 214.73,-230.59l170.74 -183.85c-82.59,-77.04 -169.96,-101.99 -254.79,-108.33 -38.42,-2.83 -81.54,-0.54 -125.5,11.12 -63.74,16.91 -82.77,36.93 -121.37,49.81 -1.31,0.44 -3.59,1.16 -5.45,1.54 95.35,-149.97 60.61,-364.93 -77.18,-497.86l-0.25 0.28c-108.91,-101.08 -249.78,-127.18 -379.58,-95.53 -52.58,12.84 -78.21,35.38 -126.41,54.25zm228.98 155.46c100.7,0 182.33,81.63 182.33,182.33 0,100.71 -81.63,182.35 -182.33,182.35 -100.7,0 -182.33,-81.63 -182.33,-182.35 0,-100.7 81.63,-182.33 182.33,-182.33z"/>
 </g>
</svg>
