<svg width="20" height="21" viewBox="0 0 20 21" fill="none" xmlns="http://www.w3.org/2000/svg">
<path d="M12.4749 19.6257H7.47493C2.94993 19.6257 1.0166 17.6923 1.0166 13.1673V8.16732C1.0166 3.64232 2.94993 1.70898 7.47493 1.70898H9.1416C9.48327 1.70898 9.7666 1.99232 9.7666 2.33398C9.7666 2.67565 9.48327 2.95898 9.1416 2.95898H7.47493C3.63327 2.95898 2.2666 4.32565 2.2666 8.16732V13.1673C2.2666 17.009 3.63327 18.3757 7.47493 18.3757H12.4749C16.3166 18.3757 17.6833 17.009 17.6833 13.1673V11.5007C17.6833 11.159 17.9666 10.8757 18.3083 10.8757C18.6499 10.8757 18.9333 11.159 18.9333 11.5007V13.1673C18.9333 17.6923 17.0083 19.6257 12.4749 19.6257Z" fill="#0C0C0C"/>
<path d="M10.6503 13.3669C10.5253 13.3669 10.4086 13.3336 10.3003 13.2586C10.1253 13.1419 10.0253 12.9502 10.0253 12.7419C10.0253 12.6502 10.017 12.5502 10.0003 12.4502C9.94198 12.0086 9.74198 11.6169 9.40865 11.2752C9.06698 10.9336 8.65032 10.7169 8.19198 10.6586C8.12532 10.6502 8.01698 10.6419 7.91698 10.6502C7.70865 10.6669 7.50032 10.5752 7.37532 10.4086C7.25032 10.2419 7.21698 10.0169 7.28365 9.8169C7.38365 9.53357 7.54198 9.2669 7.72532 9.05857L8.75032 7.77523C10.5336 5.55023 14.1253 2.88357 16.7753 1.82523C17.3836 1.5919 18.0253 1.72523 18.467 2.1669C18.9253 2.62523 19.0586 3.27523 18.817 3.8669C17.7586 6.50857 15.092 10.1086 12.8753 11.8836L11.567 12.9336C11.3086 13.1169 11.1003 13.2419 10.8836 13.3252C10.8086 13.3502 10.7253 13.3669 10.6503 13.3669ZM8.93365 9.55857C9.44198 9.72523 9.90032 10.0086 10.292 10.3919C10.6753 10.7752 10.9503 11.2169 11.1086 11.6919L12.092 10.9002C14.167 9.23357 16.667 5.8669 17.6587 3.3919C17.7253 3.23357 17.6503 3.1169 17.5836 3.0419C17.542 3.00023 17.4253 2.90857 17.2336 2.98357C14.767 3.97523 11.4003 6.47523 9.73365 8.55023L8.93365 9.55857Z" fill="#0C0C0C"/>
<path d="M6.4165 16.2915C5.88316 16.2915 5.37483 16.0832 4.9915 15.6999C4.54983 15.2582 4.33316 14.6499 4.40816 14.0249L4.58316 12.3915C4.7665 10.6999 6.1415 9.44987 7.8665 9.41654C7.99983 9.4082 8.1665 9.41654 8.32483 9.42487C9.08316 9.52487 9.75816 9.8582 10.2915 10.3999C10.8248 10.9332 11.1498 11.5665 11.2415 12.2832C11.2665 12.4415 11.2748 12.5999 11.2748 12.7499C11.2748 13.6582 10.9248 14.5165 10.2832 15.1582C9.75816 15.6832 9.07483 16.0082 8.29983 16.1082L6.64983 16.2832C6.5665 16.2915 6.4915 16.2915 6.4165 16.2915ZM7.99983 10.6582C7.97483 10.6582 7.9415 10.6582 7.9165 10.6582C6.95816 10.6832 5.94983 11.3249 5.82483 12.5249L5.64983 14.1665C5.62483 14.4082 5.70816 14.6499 5.87483 14.8165C6.0415 14.9832 6.27483 15.0665 6.50816 15.0415L8.14983 14.8665C8.63316 14.8082 9.0665 14.5999 9.3915 14.2749C9.7915 13.8665 10.0165 13.3332 10.0165 12.7499C10.0165 12.6582 10.0082 12.5582 9.9915 12.4582C9.93316 12.0165 9.73316 11.6249 9.39983 11.2832C9.05816 10.9415 8.6415 10.7249 8.18316 10.6665C8.1415 10.6582 8.07483 10.6582 7.99983 10.6582Z" fill="#0C0C0C"/>
<path d="M13.1837 11.2755C12.8421 11.2755 12.5587 10.9922 12.5587 10.6505C12.5587 9.25885 11.4254 8.11719 10.0254 8.11719C9.68372 8.11719 9.40039 7.83385 9.40039 7.49219C9.40039 7.15052 9.68372 6.86719 10.0254 6.86719C12.1087 6.86719 13.8087 8.55885 13.8087 10.6505C13.8087 10.9922 13.5337 11.2755 13.1837 11.2755Z" fill="#0C0C0C"/>
</svg>
