<svg width="20" height="21" viewBox="0 0 20 21" fill="none" xmlns="http://www.w3.org/2000/svg">
<path d="M8.69159 15.8079C8.56659 15.8079 8.44992 15.7746 8.34159 15.6996C8.16659 15.5829 8.06659 15.3913 8.06659 15.1829C8.06659 15.0579 8.05826 14.9246 8.04159 14.7913C7.96659 14.1996 7.69992 13.6829 7.24992 13.2329C6.79992 12.7829 6.24159 12.4996 5.64159 12.4246C5.54159 12.4163 5.39992 12.4079 5.26659 12.4163C5.04992 12.4329 4.84992 12.3413 4.72492 12.1663C4.59992 11.9996 4.56659 11.7746 4.63326 11.5746C4.75826 11.2329 4.94159 10.9246 5.15826 10.6746L6.44159 9.05794C8.64992 6.29961 13.1249 2.98294 16.3999 1.66628C17.0916 1.39961 17.8333 1.55794 18.3416 2.05794C18.8666 2.58294 19.0249 3.33294 18.7499 4.01628C17.4333 7.29961 14.1249 11.7663 11.3666 13.9746L9.72493 15.2913C9.41659 15.5163 9.16659 15.6579 8.91659 15.7579C8.84992 15.7913 8.76659 15.8079 8.69159 15.8079ZM6.28326 11.2829C6.98326 11.4663 7.60826 11.8329 8.13326 12.3579C8.65826 12.8746 9.00826 13.4746 9.18326 14.1413L10.5916 13.0079C13.2083 10.9163 16.3499 6.67461 17.5916 3.55794C17.7166 3.24961 17.5416 3.03294 17.4583 2.95794C17.3999 2.89961 17.1833 2.71628 16.8499 2.84128C13.7499 4.09128 9.50826 7.23294 7.40826 9.84961L6.28326 11.2829Z" fill="#0C0C0C"/>
<path d="M3.39948 19.4585C2.77448 19.4585 2.17448 19.2085 1.72448 18.7585C1.20781 18.2419 0.957815 17.5252 1.04115 16.7919L1.26615 14.7419C1.48281 12.7085 3.14948 11.2002 5.21615 11.1585C5.37448 11.1502 5.58282 11.1585 5.77448 11.1752C6.68282 11.2919 7.49115 11.7002 8.14115 12.3502C8.78282 12.9919 9.16615 13.7585 9.28282 14.6169C9.30782 14.8002 9.32448 15.0002 9.32448 15.1752C9.32448 16.2752 8.89948 17.3002 8.13282 18.0752C7.49115 18.7085 6.66615 19.1002 5.73282 19.2169L3.67448 19.4419C3.58281 19.4502 3.49115 19.4585 3.39948 19.4585ZM5.37448 12.4169C5.34115 12.4169 5.29948 12.4169 5.26615 12.4169C4.00782 12.4419 2.67448 13.3002 2.50782 14.8835L2.28282 16.9335C2.24115 17.2835 2.36615 17.6252 2.60782 17.8752C2.84948 18.1169 3.19115 18.2419 3.53281 18.2002L5.58282 17.9752C6.22448 17.8919 6.79948 17.6252 7.23282 17.1919C7.76615 16.6585 8.06615 15.9419 8.06615 15.1752C8.06615 15.0502 8.05782 14.9169 8.04115 14.7835C7.96615 14.1919 7.69948 13.6752 7.24948 13.2252C6.79948 12.7752 6.24115 12.4919 5.64115 12.4169C5.57448 12.4169 5.47448 12.4169 5.37448 12.4169Z" fill="#0C0C0C"/>
<path d="M11.8674 13.1829C11.5258 13.1829 11.2424 12.8995 11.2424 12.5579C11.2424 10.7245 9.75078 9.24121 7.92578 9.24121C7.58411 9.24121 7.30078 8.95788 7.30078 8.61621C7.30078 8.27454 7.57578 7.99121 7.91745 7.99121C10.4341 7.99121 12.4841 10.0412 12.4841 12.5579C12.4924 12.9079 12.2091 13.1829 11.8674 13.1829Z" fill="#0C0C0C"/>
</svg>
