<svg width="24" height="25" viewBox="0 0 24 25" fill="none" xmlns="http://www.w3.org/2000/svg">
<path d="M8 6.40967C7.59 6.40967 7.25 6.06967 7.25 5.65967V2.65967C7.25 2.24967 7.59 1.90967 8 1.90967C8.41 1.90967 8.75 2.24967 8.75 2.65967V5.65967C8.75 6.06967 8.41 6.40967 8 6.40967Z" fill="#5C81F5"/>
<path d="M16 6.40967C15.59 6.40967 15.25 6.06967 15.25 5.65967V2.65967C15.25 2.24967 15.59 1.90967 16 1.90967C16.41 1.90967 16.75 2.24967 16.75 2.65967V5.65967C16.75 6.06967 16.41 6.40967 16 6.40967Z" fill="#5C81F5"/>
<path d="M8.5 15.1596C8.24 15.1596 7.98 15.0496 7.79 14.8696C7.61 14.6796 7.5 14.4296 7.5 14.1596C7.5 14.0296 7.53 13.8996 7.58 13.7796C7.63 13.6596 7.7 13.5496 7.79 13.4496C8.16 13.0796 8.83 13.0796 9.21 13.4496C9.39 13.6396 9.5 13.8996 9.5 14.1596C9.5 14.2196 9.49 14.2896 9.48 14.3596C9.47 14.4196 9.45 14.4796 9.42 14.5396C9.4 14.5996 9.37 14.6596 9.33 14.7196C9.29 14.7696 9.25 14.8196 9.21 14.8696C9.02 15.0496 8.76 15.1596 8.5 15.1596Z" fill="#5C81F5"/>
<path d="M12 15.1597C11.87 15.1597 11.74 15.1297 11.62 15.0797C11.49 15.0297 11.39 14.9597 11.29 14.8697C11.11 14.6797 11 14.4297 11 14.1597C11 14.0297 11.03 13.8997 11.08 13.7797C11.13 13.6597 11.2 13.5497 11.29 13.4497C11.39 13.3597 11.49 13.2897 11.62 13.2397C11.99 13.0897 12.43 13.1697 12.71 13.4497C12.89 13.6397 13 13.8997 13 14.1597C13 14.2197 12.99 14.2897 12.98 14.3597C12.97 14.4197 12.95 14.4797 12.92 14.5397C12.9 14.5997 12.87 14.6597 12.83 14.7197C12.8 14.7697 12.75 14.8197 12.71 14.8697C12.52 15.0497 12.26 15.1597 12 15.1597Z" fill="#5C81F5"/>
<path d="M8.5 18.6597C8.37 18.6597 8.24 18.6297 8.12 18.5797C7.99 18.5297 7.88 18.4597 7.79 18.3697C7.7 18.2797 7.63 18.1697 7.58 18.0397C7.53 17.9197 7.5 17.7897 7.5 17.6597C7.5 17.5297 7.53 17.3997 7.58 17.2797C7.63 17.1497 7.7 17.0397 7.79 16.9497C7.88 16.8597 7.99 16.7897 8.12 16.7397C8.36 16.6397 8.64 16.6297 8.88 16.7397C9.01 16.7897 9.12 16.8597 9.21 16.9497C9.3 17.0397 9.37 17.1497 9.42 17.2797C9.47 17.3997 9.5 17.5297 9.5 17.6597C9.5 17.7897 9.47 17.9197 9.42 18.0397C9.37 18.1697 9.3 18.2797 9.21 18.3697C9.12 18.4597 9.01 18.5297 8.88 18.5797C8.76 18.6297 8.63 18.6597 8.5 18.6597Z" fill="#5C81F5"/>
<path d="M20.5 10.4995H3.5C3.09 10.4995 2.75 10.1595 2.75 9.74951C2.75 9.33951 3.09 8.99951 3.5 8.99951H20.5C20.91 8.99951 21.25 9.33951 21.25 9.74951C21.25 10.1595 20.91 10.4995 20.5 10.4995Z" fill="#5C81F5"/>
<path d="M18 24.4097C16.83 24.4097 15.72 23.9897 14.87 23.2197C14.51 22.9197 14.19 22.5397 13.93 22.0997C13.49 21.3797 13.25 20.5297 13.25 19.6597C13.25 17.0397 15.38 14.9097 18 14.9097C19.36 14.9097 20.66 15.4997 21.56 16.5197C22.33 17.3997 22.75 18.5097 22.75 19.6597C22.75 20.5297 22.51 21.3797 22.06 22.1097C21.22 23.5297 19.66 24.4097 18 24.4097ZM18 16.4097C16.21 16.4097 14.75 17.8697 14.75 19.6597C14.75 20.2497 14.91 20.8297 15.22 21.3297C15.39 21.6297 15.61 21.8797 15.85 22.0897C16.45 22.6297 17.2 22.9097 18 22.9097C19.15 22.9097 20.19 22.3197 20.78 21.3397C21.09 20.8297 21.25 20.2597 21.25 19.6597C21.25 18.8797 20.96 18.1197 20.44 17.5097C19.82 16.8097 18.93 16.4097 18 16.4097Z" fill="#5C81F5"/>
<path d="M17.4299 21.3997C17.2399 21.3997 17.0499 21.3297 16.8999 21.1797L15.9099 20.1897C15.6199 19.8997 15.6199 19.4197 15.9099 19.1297C16.1999 18.8397 16.6799 18.8397 16.9699 19.1297L17.4499 19.6097L19.0499 18.1297C19.3499 17.8497 19.8299 17.8697 20.1099 18.1697C20.3899 18.4697 20.3699 18.9497 20.0699 19.2297L17.9399 21.1997C17.7899 21.3297 17.6099 21.3997 17.4299 21.3997Z" fill="#5C81F5"/>
<path d="M15.37 23.4097H8C4.35 23.4097 2.25 21.3097 2.25 17.6597V9.15967C2.25 5.50967 4.35 3.40967 8 3.40967H16C19.65 3.40967 21.75 5.50967 21.75 9.15967V17.0197C21.75 17.3297 21.56 17.6097 21.26 17.7197C20.97 17.8297 20.64 17.7497 20.43 17.5097C19.81 16.8097 18.92 16.4097 17.99 16.4097C16.2 16.4097 14.74 17.8697 14.74 19.6597C14.74 20.2497 14.9 20.8297 15.21 21.3297C15.38 21.6297 15.6 21.8797 15.84 22.0897C16.08 22.2897 16.17 22.6197 16.06 22.9197C15.97 23.2097 15.69 23.4097 15.37 23.4097ZM8 4.90967C5.14 4.90967 3.75 6.29967 3.75 9.15967V17.6597C3.75 20.5197 5.14 21.9097 8 21.9097H13.82C13.45 21.2297 13.25 20.4597 13.25 19.6597C13.25 17.0397 15.38 14.9097 18 14.9097C18.79 14.9097 19.57 15.1097 20.25 15.4797V9.15967C20.25 6.29967 18.86 4.90967 16 4.90967H8Z" fill="#5C81F5"/>
</svg>
