<svg width="16" height="16" viewBox="0 0 16 16" fill="none" xmlns="http://www.w3.org/2000/svg">
<path d="M11.4938 15.1668H4.50711C2.64044 15.1668 1.45377 14.0535 1.34711 12.1935L1.00044 6.6935C0.947108 5.86016 1.23377 5.06016 1.80711 4.4535C2.37377 3.84683 3.17377 3.50016 4.00044 3.50016C4.21377 3.50016 4.42044 3.3735 4.52044 3.1735L5.00044 2.22016C5.39377 1.44016 6.38044 0.833496 7.24044 0.833496H8.76711C9.62711 0.833496 10.6071 1.44016 11.0004 2.2135L11.4804 3.18683C11.5804 3.3735 11.7804 3.50016 12.0004 3.50016C12.8271 3.50016 13.6271 3.84683 14.1938 4.4535C14.7671 5.06683 15.0538 5.86016 15.0004 6.6935L14.6538 12.2002C14.5338 14.0868 13.3804 15.1668 11.4938 15.1668ZM7.24044 1.8335C6.74711 1.8335 6.12044 2.22016 5.89377 2.66683L5.41377 3.62683C5.13377 4.16683 4.59377 4.50016 4.00044 4.50016C3.44044 4.50016 2.92044 4.72683 2.53377 5.1335C2.15377 5.54016 1.96044 6.0735 2.00044 6.62683L2.34711 12.1335C2.42711 13.4802 3.15377 14.1668 4.50711 14.1668H11.4938C12.8404 14.1668 13.5671 13.4802 13.6538 12.1335L14.0004 6.62683C14.0338 6.0735 13.8471 5.54016 13.4671 5.1335C13.0804 4.72683 12.5604 4.50016 12.0004 4.50016C11.4071 4.50016 10.8671 4.16683 10.5871 3.64016L10.1004 2.66683C9.88044 2.22683 9.25377 1.84016 8.76044 1.84016H7.24044V1.8335Z" fill="#0C0C0C"/>
<path d="M9 5.8335H7C6.72667 5.8335 6.5 5.60683 6.5 5.3335C6.5 5.06016 6.72667 4.8335 7 4.8335H9C9.27333 4.8335 9.5 5.06016 9.5 5.3335C9.5 5.60683 9.27333 5.8335 9 5.8335Z" fill="#0C0C0C"/>
<path d="M8.00065 12.4998C6.52732 12.4998 5.33398 11.3065 5.33398 9.83317C5.33398 8.35984 6.52732 7.1665 8.00065 7.1665C9.47398 7.1665 10.6673 8.35984 10.6673 9.83317C10.6673 11.3065 9.47398 12.4998 8.00065 12.4998ZM8.00065 8.1665C7.08065 8.1665 6.33398 8.91317 6.33398 9.83317C6.33398 10.7532 7.08065 11.4998 8.00065 11.4998C8.92065 11.4998 9.66732 10.7532 9.66732 9.83317C9.66732 8.91317 8.92065 8.1665 8.00065 8.1665Z" fill="#0C0C0C"/>
</svg>
