<svg width="152" height="172" viewBox="0 0 152 172" fill="none" xmlns="http://www.w3.org/2000/svg">
<path d="M137.192 43.898C137.192 43.898 137.332 60.4148 137.576 61.9329C137.82 63.4505 144.193 82.6971 144.193 82.6971L147.452 80.6487C147.452 80.6487 143.901 60.6548 143.747 58.9406C143.593 57.2259 142.72 41.2622 142.72 41.2622L137.192 43.898Z" fill="#FFBBB5"/>
<path d="M144.192 82.6973C144.134 82.8381 144.014 84.6225 144.037 85.2859C144.059 85.9493 145.881 90.5164 146.329 90.0306C146.777 89.5448 146.798 89.2999 146.526 88.2567C146.254 87.2135 145.91 86.2766 146.258 86.4212C146.605 86.5663 148.172 89.3329 148.219 90.2635C148.266 91.1941 148.295 92.8826 148.953 93.0682C149.611 93.2543 149.737 92.4951 149.737 92.4951C149.737 92.4951 150.107 93.3035 150.446 92.8201C150.784 92.3361 151.729 89.4889 151.554 88.4089C151.379 87.3289 148.356 83.1407 147.861 82.1223C147.713 81.8164 146.903 78.417 146.903 78.417L143.279 79.1037L144.192 82.6973Z" fill="#FFBBB5"/>
<path d="M115.879 149.203L118.988 152.649L111.376 159.2L108.267 155.753L115.879 149.203Z" fill="#FFBBB5"/>
<path d="M113.146 159.182C113.275 160.633 114.485 163.121 116.539 165.97C116.989 166.603 115.512 167.772 114.109 166.515C112.706 165.258 109.744 162.365 108.726 161.486C107.075 160.009 106.039 159.226 104.709 158.065C104.669 158.037 104.635 158.001 104.608 157.96C104.412 157.671 104.484 157.285 104.773 157.081L108.221 154.812C108.372 154.708 108.575 154.708 108.726 154.812L112.779 158.461C112.994 158.647 113.125 158.906 113.146 159.182Z" fill="#263238"/>
<path d="M112.578 159.077C112.555 159.039 112.555 158.992 112.578 158.954C112.611 158.933 112.654 158.933 112.688 158.954C112.88 158.954 114.586 159.324 114.769 159.833C114.822 159.946 114.797 160.08 114.705 160.167C114.574 160.342 114.36 160.441 114.137 160.431C113.831 160.38 113.551 160.235 113.339 160.018C113.051 159.732 112.796 159.416 112.578 159.077ZM112.944 159.209C113.213 159.684 113.658 160.045 114.192 160.22C114.34 160.226 114.481 160.16 114.567 160.045C114.567 159.983 114.567 159.913 114.567 159.913C114.551 159.869 114.523 159.829 114.485 159.798C114.014 159.512 113.491 159.312 112.944 159.209Z" fill="#407BFF"/>
<path d="M112.532 159.103C112.514 159.073 112.514 159.036 112.532 159.006C112.578 158.927 113.559 158.083 114.247 158.127C114.414 158.131 114.571 158.205 114.677 158.329C114.801 158.442 114.824 158.623 114.732 158.76C114.476 159.13 113.119 159.262 112.596 159.13L112.532 159.103ZM114.219 158.303C113.704 158.385 113.225 158.612 112.844 158.954C113.431 159.015 114.375 158.866 114.54 158.62C114.595 158.593 114.641 158.523 114.54 158.435C114.458 158.349 114.341 158.3 114.219 158.303Z" fill="#407BFF"/>
<path d="M122.38 157.347H126.965L126.58 167.511H122.004L122.38 157.347Z" fill="#FFBBB5"/>
<path d="M127.964 167.308C129.12 168.284 131.77 169.304 135.301 170.043C136.053 170.184 135.833 171.986 133.907 171.986C131.981 171.986 127.781 171.845 126.397 171.845C124.132 171.845 122.857 171.977 121.023 171.977H120.876C120.873 171.977 120.87 171.976 120.867 171.975C120.505 171.9 120.275 171.559 120.353 171.212L121.271 167.308C121.309 167.132 121.468 167.005 121.656 167H127.222C127.501 167.009 127.767 167.119 127.964 167.308Z" fill="#263238"/>
<path d="M127.552 167.617C127.509 167.602 127.477 167.565 127.47 167.52C127.465 167.48 127.487 167.442 127.525 167.423C127.69 167.318 129.166 166.447 129.671 166.702C129.789 166.753 129.861 166.869 129.854 166.992C129.886 167.204 129.803 167.416 129.634 167.555C129.364 167.73 129.04 167.808 128.717 167.775C128.324 167.759 127.934 167.706 127.552 167.617ZM129.414 166.861C128.849 166.962 128.31 167.168 127.827 167.467C128.361 167.644 128.946 167.615 129.459 167.388C129.568 167.295 129.622 167.158 129.606 167.019C129.597 166.896 129.533 166.896 129.533 166.896C129.488 166.883 129.44 166.883 129.395 166.896L129.414 166.861Z" fill="#407BFF"/>
<path d="M127.506 167.66C127.469 167.641 127.446 167.603 127.451 167.563C127.461 167.475 127.571 166.217 128.102 165.804C128.226 165.695 128.395 165.647 128.561 165.672C128.731 165.669 128.878 165.785 128.909 165.945C129.001 166.402 128.084 167.369 127.617 167.616H127.562L127.506 167.66ZM128.478 165.839C128.387 165.842 128.301 165.88 128.24 165.945C127.917 166.338 127.728 166.817 127.698 167.316C128.166 166.973 128.753 166.244 128.689 165.962C128.689 165.927 128.67 165.857 128.533 165.857H128.478L128.478 165.839Z" fill="#407BFF"/>
<path d="M145.801 119.752C144.187 134.172 118.189 156.285 118.189 156.285L112.118 150.474C112.118 150.474 126.891 132.211 129.642 125.177C131.871 119.594 122.26 92.7944 118.289 82.2436L111.806 83.2458C110.335 76.3344 110.115 69.2322 111.155 62.2492L135.135 61.3701L135.97 74.1635C139.556 83.4744 146.993 108.911 145.801 119.752Z" fill="#263238"/>
<path opacity="0.2" d="M145.801 119.752C144.187 134.172 118.189 156.285 118.189 156.285L112.118 150.474C112.118 150.474 126.891 132.211 129.642 125.177C131.871 119.594 122.26 92.7944 118.289 82.2436L111.806 83.2458C110.335 76.3344 110.115 69.2322 111.155 62.2492L135.135 61.3701L135.97 74.1635C139.556 83.4744 146.993 108.911 145.801 119.752Z" fill="white"/>
<path d="M133.588 63.5585L128.902 73.8898C134.166 130.663 127.362 164.075 127.362 164.075H118.998C120.245 116.094 105.114 85.1087 109.589 62.7319L133.588 63.5585Z" fill="#263238"/>
<path opacity="0.2" d="M133.588 63.5585L128.902 73.8898C134.166 130.663 127.362 164.075 127.362 164.075H118.998C120.245 116.094 105.114 85.1087 109.589 62.7319L133.588 63.5585Z" fill="white"/>
<path opacity="0.3" d="M112.549 87.0458C113.827 86.5757 114.811 85.4852 115.441 84.2611C116.071 83.0374 116.389 81.6763 116.684 80.3281" stroke="black" stroke-width="0.5" stroke-miterlimit="10" stroke-linecap="round" stroke-linejoin="round"/>
<path opacity="0.3" d="M130.123 144.779C130.123 144.779 130.725 143.154 131.369 132.805C132.012 122.456 130.064 88.6637 130.064 88.6637L132.673 83.8145L131.231 89.2703C131.231 89.2703 133.588 117.049 131.548 143.253L130.123 144.779Z" fill="black"/>
<path opacity="0.3" d="M118.484 142.289C118.777 147.03 119.051 155.463 119.051 155.463L118.399 156.117L117.746 143.264L118.484 142.289Z" fill="black"/>
<path d="M65.9668 160.677L63.9579 162.689L65.7723 164.57L68.0218 162.802L65.9668 160.677Z" fill="#DE7F72"/>
<path d="M67.1422 165.427C66.9547 165.224 66.7903 165 66.6517 164.76C66.6348 164.734 66.6348 164.7 66.6517 164.675C66.6757 164.666 66.702 164.666 66.7259 164.675C66.8368 164.703 67.8648 164.919 68.0222 165.286C68.0687 165.368 68.0687 165.468 68.0222 165.55C67.9606 165.689 67.8206 165.776 67.6703 165.766C67.4546 165.735 67.2625 165.611 67.1422 165.427ZM67.9291 165.352C67.8272 165.154 67.309 164.966 66.9017 164.863C67.1976 165.342 67.4941 165.624 67.698 165.624C67.7905 165.625 67.8742 165.569 67.9108 165.483C67.9338 165.443 67.9338 165.392 67.9108 165.351H67.9291V165.352Z" fill="#407BFF"/>
<path d="M67.4206 164.918C67.1467 164.947 66.8705 164.947 66.5966 164.918C66.5679 164.917 66.5425 164.898 66.5317 164.872C66.5186 164.845 66.5186 164.813 66.5317 164.787C66.6149 164.712 67.3835 163.988 67.772 164.072C67.8632 164.093 67.9365 164.161 67.9665 164.251C68.0506 164.375 68.0506 164.54 67.9665 164.665C67.8232 164.817 67.6278 164.908 67.4206 164.918ZM67.7537 164.223C67.5498 164.175 67.087 164.514 66.7633 164.796C67.3187 164.815 67.7171 164.74 67.8373 164.58C67.8838 164.498 67.8838 164.398 67.8373 164.317C67.8256 164.271 67.7899 164.235 67.7448 164.223H67.7537Z" fill="#407BFF"/>
<path d="M45.8051 160.084L47.9018 164.443L50.3594 165.217L52.5229 163.496L51.4442 158.733L45.8051 160.084Z" fill="#FDAC6D"/>
<path d="M11.0543 154.655L9.5946 159.274L10.8401 161.561L13.5739 161.842L16.0428 157.648L11.0543 154.655Z" fill="#FDAC6D"/>
<path d="M21.9842 99.2422C21.9842 99.2422 13.7451 82.8176 17.7084 72.8447L45.2071 77.9636C45.2071 77.9636 46.7871 86.8703 42.5226 96.1846L21.9842 99.2422Z" fill="#263238"/>
<path d="M66.7024 165.142C66.895 166.598 67.4494 167.98 68.3134 169.157C68.6836 169.581 67.9521 170.634 66.9246 169.853C65.8995 168.981 64.9344 168.039 64.0362 167.032C62.981 165.941 62.5365 165.565 61.6941 164.71C61.4846 164.497 61.4846 164.152 61.6941 163.938L63.7585 162.142C63.7599 162.141 63.7613 162.139 63.7627 162.138C63.8473 162.055 63.9821 162.057 64.0639 162.142L66.4524 164.644C66.5873 164.777 66.6751 164.952 66.7024 165.142Z" fill="#263238"/>
<path d="M85.3987 164.344V167.212H87.9911L88.3242 164.344H85.3987Z" fill="#DE7F72"/>
<path d="M89.6015 166.818C89.3267 166.809 89.0537 166.772 88.7869 166.705C88.7314 166.696 88.7314 166.649 88.7314 166.649C88.7183 166.626 88.7183 166.597 88.7314 166.574C88.824 166.508 89.6941 165.916 90.0737 166.066C90.1587 166.102 90.2184 166.18 90.2311 166.273C90.2827 166.413 90.2503 166.57 90.1479 166.677C89.9872 166.787 89.7941 166.837 89.6015 166.818ZM90.0182 166.178C89.8237 166.094 89.3145 166.348 88.9536 166.574C89.5 166.724 89.898 166.715 90.046 166.574C90.1089 166.502 90.1301 166.402 90.1014 166.31C90.0953 166.264 90.0624 166.227 90.0182 166.216V166.178Z" fill="#5C81F5"/>
<path d="M89.3141 166.253C89.1502 166.476 88.9608 166.678 88.7494 166.855C88.7273 166.871 88.6977 166.871 88.6752 166.855C88.6752 166.836 88.6752 166.911 88.6752 166.789C88.6752 166.667 88.7029 165.604 89.0454 165.378C89.1257 165.331 89.2244 165.331 89.3047 165.378C89.4443 165.416 89.5495 165.534 89.573 165.679C89.565 165.898 89.472 166.105 89.3141 166.253ZM89.129 165.548C88.9533 165.661 88.833 166.234 88.833 166.658C89.2404 166.253 89.4349 165.915 89.4349 165.717C89.4175 165.623 89.3498 165.546 89.2592 165.519C89.2192 165.496 89.1699 165.496 89.1295 165.519V165.548H89.129Z" fill="#5C81F5"/>
<path d="M89.0185 166.489C90.1719 167.373 91.5302 167.94 92.9622 168.135C93.5175 168.163 93.7397 169.432 92.4717 169.63C91.136 169.756 89.7937 169.788 88.4538 169.724C86.9448 169.724 86.3707 169.799 85.1764 169.799C84.8837 169.794 84.6488 169.552 84.6488 169.254L84.8339 166.489C84.8438 166.368 84.9462 166.277 85.0655 166.282H88.4909C88.6845 166.29 88.8701 166.363 89.0185 166.489Z" fill="#263238"/>
<path d="M91.0824 125.268C91.0824 125.268 79.687 123.023 82.0756 132.719C82.2236 133.339 82.372 134.007 82.5106 134.721C83.0476 137.608 83.4643 141.22 83.7791 144.934C84.5938 154.77 84.6924 164.507 84.6924 164.507L89.4892 164.666C91.9764 151.688 92.0154 138.456 91.0824 125.268Z" fill="#263238"/>
<path opacity="0.2" d="M86.6009 130.574C84.8791 129.972 83.5551 132.859 82.2406 133.395C82.7776 136.263 83.3052 140.025 83.62 143.739C87.036 140.984 86.6009 130.555 86.6009 130.574Z" fill="black"/>
<path d="M90.0729 124.974C90.6559 128.792 82.842 132.742 82.842 132.742C81.9606 137.836 80.1786 146.025 78.2054 150.793C75.9094 156.548 68.4403 163.687 68.4403 163.687L64.9369 160.799C70.2787 152.128 71.7623 147.267 71.651 143.778C71.1694 128.76 71.2324 126.971 71.8803 123.632C71.8803 123.632 89.4898 121.156 90.0729 124.974Z" fill="#263238"/>
<path d="M55.9994 82.1348C55.9994 82.1348 59.8923 92.5066 61.4427 94.0643C62.9926 95.622 73.1589 108.848 73.1589 108.848L74.8403 102.51L65.3078 92.1554L59.0034 83.5636L55.9994 82.1348Z" fill="#DE7F72"/>
<path d="M102.74 81.0765C102.74 81.0765 100.445 91.5113 98.8951 93.069C97.3452 94.6267 87.1789 107.852 87.1789 107.852L85.4974 101.514L95.03 91.1601L100.472 80.6479L102.74 81.0765Z" fill="#DE7F72"/>
<path d="M89.5928 107.691L89.9024 106.399C89.9024 106.399 94.8716 100.351 97.045 97.7753L92.3952 93.3179L87.1366 97.9805L89.5928 107.691Z" fill="#5C81F5"/>
<path d="M72.9734 98.4094L66.9156 93.3745L62.3007 98.208C63.8468 100.907 67.6697 103.897 67.6697 103.897L71.6598 108.439L72.9734 98.4094Z" fill="#5C81F5"/>
<path d="M90.3232 111.384C90.055 109.709 89.8233 107.988 89.6659 106.352C89.5311 104.94 89.4851 103.521 89.5269 102.102C89.5969 100.438 90.2302 97.8963 88.6521 97.4444C86.8175 96.9609 83.2295 97.7732 81.3343 97.7947C74.9189 97.7383 72.382 98.3964 72.382 98.3964C72.382 98.3964 71.7712 100.607 71.5673 102.694C71.4747 103.663 71.3728 104.81 71.2896 106.098C71.2896 106.314 71.3361 106.474 71.2896 106.747C71.2436 107.02 71.2436 107.302 71.2436 107.593C71.2065 108.092 71.1604 108.599 71.1604 109.136C71.0402 110.697 71.0402 112.38 71.0402 114.129C71.0402 116.668 70.7902 122.988 71.0402 125.621C79.6359 124.496 88.2978 124.393 92.7451 126.101C92.7451 126.101 91.2581 116.669 90.3232 111.384Z" fill="#5C81F5"/>
<path d="M89.9019 106.857C89.489 103.906 89.0722 102.049 88.4159 99.1445" stroke="#263238" stroke-width="0.25" stroke-miterlimit="10" stroke-linecap="round" stroke-linejoin="round"/>
<path d="M71.0721 107.754C71.0755 105.625 71.0784 103.496 71.0817 101.367" stroke="#263238" stroke-width="0.25" stroke-miterlimit="10" stroke-linecap="round" stroke-linejoin="round"/>
<path d="M82.8901 93.7683L80.9831 93.4204L76.7985 92.6401C77.1748 93.2181 77.4595 93.8528 77.6408 94.5209C78.0242 95.8095 77.8457 97.2026 77.1504 98.3484C77.1504 98.3484 78.2149 100.267 81.9829 101.63C81.9829 101.63 83.7602 100.032 83.1865 98.0287C83.0451 97.9098 82.9122 97.781 82.7886 97.643L82.5758 97.361C82.2088 96.8098 82.0726 96.1335 82.1962 95.4802C82.2967 94.8631 82.5339 94.278 82.8901 93.7683Z" fill="#DE7F72"/>
<path opacity="0.2" d="M82.8994 93.7962L80.9924 93.4482L76.8077 92.668C77.1841 93.2459 77.4688 93.8806 77.6501 94.5488C77.8564 95.4297 77.8564 96.348 77.6501 97.2289C77.6501 97.2289 82.0936 95.3577 82.3713 94.8308L82.8994 93.7962Z" fill="black"/>
<path d="M76.3814 87.9301C72.5872 82.3325 78.2048 79.9478 78.2048 79.9478C78.2048 79.9478 80.6647 94.2659 76.3814 87.9301Z" fill="#263238"/>
<path d="M81.2142 80.6985C76.5344 80.4083 73.6009 85.6918 73.0761 89.4477C72.5067 93.6125 74.2412 95.2662 79.809 95.9133C82.844 96.2684 85.9598 92.963 87.2607 89.5188C89.0578 84.7283 85.894 80.9886 81.2142 80.6985Z" fill="#DE7F72"/>
<path d="M82.828 79.1247C87.3382 80.4013 91.1132 83.7195 89.2288 88.72C86.6326 95.5751 83.2292 94.9724 83.2292 94.9724C84.0345 91.7266 81.6596 89.5686 82.8369 87.2926C82.8905 87.2125 82.9394 87.1289 82.9821 87.0421C83.5346 85.933 83.0967 84.5786 82.0049 84.0178C80.1919 83.8618 78.4536 83.2117 76.9741 82.1365C75.536 80.0047 79.0159 78.0151 82.828 79.1247Z" fill="#263238"/>
<path d="M78.7884 87.1134C78.4966 87.0184 78.1499 87.2957 77.9972 87.7376C77.8445 88.1795 77.9573 88.6166 78.2392 88.7188C78.521 88.8209 78.8762 88.5451 79.0289 88.1027C79.1736 87.6598 79.0801 87.2088 78.7884 87.1134Z" fill="#263238"/>
<path d="M75.3641 85.786C75.0893 85.6939 74.7393 85.9879 74.6035 86.3812C74.4677 86.7739 74.5668 87.1915 74.8407 87.2917C75.1142 87.3924 75.46 87.1233 75.6 86.7052C75.7414 86.2786 75.639 85.8782 75.3641 85.786Z" fill="#263238"/>
<path d="M78.6205 85.5468C79.1528 85.5998 79.6259 85.9138 79.8871 86.3882C79.9341 86.4927 80.0544 86.5409 80.1591 86.497C80.1591 86.497 80.1601 86.4965 80.161 86.496C80.2658 86.4449 80.3099 86.317 80.2597 86.2106C79.9557 85.6193 79.3858 85.2165 78.7342 85.1325C78.6196 85.1125 78.5106 85.1903 78.4904 85.3067C78.4904 85.3525 78.5035 85.3969 78.5284 85.4351C78.5453 85.4824 78.5782 85.522 78.6205 85.5468Z" fill="#263238"/>
<path d="M75.2472 84.4716C75.7419 84.2697 76.3015 84.317 76.7562 84.6C76.8497 84.663 76.9747 84.6439 77.0461 84.5556C77.1124 84.4616 77.0931 84.3313 77.0024 84.2611C76.4452 83.8836 75.7405 83.8111 75.1199 84.0669C75.1189 84.0674 75.118 84.0674 75.1171 84.0679C75.0123 84.1075 74.9587 84.2253 74.9977 84.3318C75.0118 84.3742 75.0433 84.4081 75.0842 84.4253C75.1293 84.4644 75.1889 84.4811 75.2472 84.4716Z" fill="#263238"/>
<path d="M74.4552 88.6394C74.7488 89.0512 75.1562 89.3652 75.626 89.5418L76.3161 87.6138C75.7641 88.071 75.1327 88.4184 74.4552 88.6394Z" fill="#D8504D"/>
<path d="M77.6684 90.4517C77.6693 90.4502 77.6702 90.4493 77.6712 90.4479C77.7323 90.3706 77.72 90.2574 77.6439 90.1954C77.6421 90.1935 77.6397 90.1921 77.6378 90.1906C77.5589 90.1319 77.4485 90.1491 77.3902 90.2288C76.9143 90.9232 75.9963 91.137 75.27 90.7223C75.1863 90.6722 75.0788 90.6994 75.0285 90.7838C75.0266 90.7862 75.0252 90.7891 75.0238 90.792C74.9745 90.8779 75.0031 90.9876 75.0877 91.0377C75.2977 91.1499 75.5237 91.2282 75.7576 91.2692C76.4976 91.4052 77.2474 91.085 77.6684 90.4517Z" fill="#263238"/>
<path d="M83.0793 85.0335C81.6647 86.5983 81.0117 83.8766 81.0117 83.8766C81.0117 83.8766 80.7969 84.2818 79.5176 84.3591C78.2383 84.4369 78.5047 82.8854 78.5047 82.8854C78.5047 82.8854 76.4145 83.4533 76.0297 82.6554C75.645 81.8574 78.0109 81.0776 78.0109 81.0776C78.0109 81.0776 84.4939 83.4681 83.0793 85.0335Z" fill="#263238"/>
<path d="M84.2824 89.6331C83.5767 89.5081 82.8367 90.3328 82.6413 91.471C82.4459 92.6092 82.8593 93.6381 83.5734 93.7646C84.2875 93.8911 85.0275 93.0664 85.2229 91.9282C85.4179 90.7895 84.9876 89.7582 84.2824 89.6331Z" fill="#DE7F72"/>
<path d="M106.662 38.4771C106.662 38.4771 100.187 55.4143 99.8296 56.9242C99.472 58.4342 99.472 75.7217 99.472 75.7217L103.001 75.758C103.001 75.758 105.35 59.0909 105.864 57.4607C106.377 55.8304 112.549 41.6831 112.549 41.6831L106.662 38.4771Z" fill="#FFBBB5"/>
<path d="M99.4042 84.6745C100.879 83.9238 100.664 81.5433 100.664 81.5433L103 75.7568L99.6057 74.9736C98.9621 76.1892 96.6102 79.3084 96.1249 80.5979C96.1399 80.9725 97.0166 83.4403 97.0166 83.4403C97.0166 83.4403 97.929 85.4256 99.4042 84.6745Z" fill="#FFBBB5"/>
<path d="M100.072 82.1549C100.072 82.1549 98.3401 80.1825 98.4143 79.4581C98.4885 78.7336 99.3403 79.3101 99.3403 79.3101C99.3403 79.3101 98.4416 78.6172 98.6798 78.1895C98.9654 77.6765 99.8552 78.2845 99.8552 78.2845C99.8552 78.2845 99.1444 77.688 99.3812 77.3224C99.6269 76.943 100.679 77.5567 100.679 77.5567C100.679 77.5567 100.257 77.0408 100.563 76.881C100.87 76.7216 103.127 77.9805 103.531 78.7961C103.934 79.6113 102.13 82.4131 101.74 83.0483C101.287 83.7871 100.481 84.1035 100.059 84.0543L100.123 82.2132L100.072 82.1549Z" fill="#DE7F72"/>
<path opacity="0.2" d="M99.3704 79.2647C99.3718 79.2656 99.3727 79.2666 99.3741 79.2675L100.884 80.5518C100.904 80.5689 100.906 80.6024 100.887 80.6262C100.868 80.6501 100.836 80.6548 100.816 80.6381L99.3065 79.3539C99.2863 79.3367 99.2849 79.3033 99.3037 79.2795C99.321 79.257 99.3502 79.2508 99.3704 79.2647Z" fill="black"/>
<path opacity="0.2" d="M99.9659 78.258L99.9668 78.2585L101.513 79.3747C101.535 79.3905 101.538 79.423 101.521 79.4478C101.504 79.4731 101.479 79.4783 101.451 79.465L99.9039 78.3487C99.8823 78.3329 99.879 78.3005 99.8959 78.2757C99.9137 78.2509 99.9443 78.2432 99.9659 78.258Z" fill="black"/>
<path opacity="0.2" d="M100.798 77.5349L101.971 78.3309C101.993 78.3457 101.997 78.3787 101.98 78.404C101.964 78.4293 101.932 78.4378 101.91 78.4231L100.738 77.627C100.715 77.6122 100.711 77.5793 100.728 77.554C100.745 77.5282 100.776 77.5196 100.798 77.5349Z" fill="black"/>
<path d="M60.6462 82.1374C60.6462 82.1374 61.388 79.6242 61.3824 79.2496C60.828 77.9897 58.3108 75.0065 57.6023 73.8286L57.3711 73.0708L54.0834 74.5221L56.9023 80.4475C56.9023 80.4475 56.8158 82.8361 58.3296 83.5032C59.8433 84.1704 60.6462 82.1374 60.6462 82.1374Z" fill="#FDAC6D"/>
<path d="M58.4375 81.9064C58.4375 81.9064 59.667 79.577 59.4278 78.8902C59.1887 78.2035 58.4938 78.9666 58.4938 78.9666C58.4938 78.9666 59.208 78.0794 58.8781 77.72C58.4821 77.2891 57.7572 78.0923 57.7572 78.0923C57.7572 78.0923 58.3111 77.3435 57.9963 77.0443C57.6698 76.7336 56.7884 77.5807 56.7884 77.5807C56.7884 77.5807 57.0802 76.9784 56.7457 76.8963C56.4112 76.8142 54.5061 78.5753 54.3017 79.4634C54.0978 80.352 56.4971 82.6471 57.0219 83.172C57.6327 83.7829 58.4896 83.8984 58.888 83.7504L58.4013 81.9756L58.4375 81.9064Z" fill="#DE7F72"/>
<path opacity="0.2" d="M58.4525 78.9288C58.4515 78.9297 58.4506 78.9312 58.4497 78.9326L57.2775 80.5399C57.262 80.5614 57.2681 80.5943 57.2916 80.6129C57.3151 80.6316 57.3479 80.6287 57.363 80.6077L58.5352 78.9999C58.5507 78.9784 58.5446 78.9455 58.5211 78.9269C58.4985 78.9097 58.4689 78.9106 58.4525 78.9288Z" fill="black"/>
<path opacity="0.2" d="M57.6413 78.0918L57.6403 78.0928L56.3934 79.546C56.3761 79.566 56.3803 79.599 56.4024 79.619C56.4249 79.6395 56.4512 79.6386 56.4747 79.619L57.7216 78.1658C57.739 78.1458 57.7348 78.1128 57.7122 78.0928C57.6901 78.0727 57.6586 78.0728 57.6413 78.0918Z" fill="black"/>
<path opacity="0.2" d="M56.6671 77.5882L55.7101 78.641C55.6922 78.6605 55.6955 78.6935 55.7176 78.714C55.7397 78.7345 55.7721 78.7355 55.79 78.7159L56.747 77.6631C56.7648 77.6436 56.7615 77.6106 56.7395 77.5901C56.7174 77.5691 56.685 77.5681 56.6671 77.5882Z" fill="black"/>
<path d="M10.3933 72.6221C10.399 72.7748 9.88594 74.4857 9.63318 75.0975C9.37995 75.7098 6.07857 79.3197 5.82957 78.704C5.58104 78.0884 5.64728 77.8517 6.2665 76.975C6.88618 76.0983 7.53546 75.3467 7.15914 75.3567C6.78329 75.3667 4.35012 77.3859 3.98085 78.2392C3.61158 79.0925 2.99236 80.6593 2.31301 80.5958C1.63319 80.5319 1.78071 79.7764 1.78071 79.7764C1.78071 79.7764 1.15163 80.3982 1.00505 79.8241C0.857996 79.25 0.971692 76.2472 1.51339 75.3013C2.05508 74.3554 6.3473 71.533 7.16572 70.7599C7.4119 70.5275 9.35881 67.6431 9.35881 67.6431L12.944 69.6895L10.3933 72.6221Z" fill="#FDAC6D"/>
<path d="M52.4215 162.185L51.0195 162.522C50.7024 162.598 50.4468 162.831 50.32 163.136C49.7726 164.452 49.0665 164.174 47.9413 163.331C47.3667 163.4 47.3681 164.087 47.3634 164.273L47.2173 168.398C47.2018 168.743 47.4644 169.036 47.8041 169.053C47.8647 169.055 47.9253 169.049 47.9836 169.034C49.6862 168.624 50.4915 168.431 52.6108 167.921L59.0914 166.364C60.8579 165.939 60.8029 164.042 60.0362 164.05C56.5929 164.102 54.048 163.681 52.8109 162.957C52.5845 162.833 52.7475 162.66 52.4215 162.185Z" fill="#407BFF"/>
<path d="M55.7205 162.554C55.8426 162.411 55.891 162.217 55.8501 162.032C55.8393 161.93 55.7721 161.843 55.6772 161.809C55.1642 161.598 53.6054 162.852 53.4311 162.997C53.4109 163.01 53.3977 163.032 53.3954 163.056C53.3907 163.1 53.4221 163.141 53.4658 163.146C53.9206 163.146 54.3745 163.097 54.8194 163.002C55.159 162.954 55.4748 162.797 55.7205 162.554ZM55.5988 161.97C55.6397 161.984 55.6679 162.022 55.6697 162.066C55.6932 162.201 55.6589 162.34 55.5748 162.447C55.2469 162.845 54.2556 162.946 53.7158 162.973C54.3674 162.472 55.3164 161.856 55.5988 161.97Z" fill="white"/>
<path d="M53.5297 163.149C54.0042 162.799 54.9025 161.656 54.7343 161.205C54.7024 161.11 54.6066 161.01 54.3613 161.035C53.3742 161.154 53.3705 163.006 53.3879 163.08C53.3855 163.113 53.402 163.143 53.4301 163.158C53.4494 163.159 53.4682 163.155 53.4851 163.145L53.5297 163.149ZM54.3632 161.186C54.5459 161.162 54.561 161.227 54.5666 161.25C54.6831 161.522 54.0522 162.444 53.5513 162.889C53.5748 162.451 53.689 161.343 54.2979 161.197L54.3632 161.186Z" fill="white"/>
<path d="M52.643 164.231C52.6308 164.231 52.6181 164.229 52.6059 164.225C52.5458 164.204 52.5138 164.138 52.5345 164.077C52.7083 163.561 53.1109 163.136 53.6113 162.94C53.6696 162.916 53.7372 162.947 53.7602 163.008C53.7833 163.068 53.7537 163.135 53.694 163.159C53.2561 163.33 52.9042 163.702 52.752 164.152C52.7356 164.201 52.6905 164.231 52.643 164.231Z" fill="white"/>
<path d="M53.6679 164.688C53.6557 164.688 53.643 164.686 53.6308 164.682C53.5707 164.661 53.5387 164.594 53.5594 164.533C53.7332 164.018 54.1354 163.593 54.6362 163.396C54.6945 163.373 54.7621 163.403 54.7851 163.464C54.8082 163.524 54.7786 163.592 54.7189 163.615C54.2815 163.786 53.9291 164.158 53.7769 164.609C53.7605 164.657 53.7158 164.688 53.6679 164.688Z" fill="white"/>
<path d="M54.8832 164.987C54.871 164.987 54.8583 164.985 54.8461 164.981C54.786 164.961 54.7541 164.894 54.7747 164.833C54.9481 164.317 55.3502 163.893 55.8511 163.696C55.9084 163.672 55.977 163.702 56 163.763C56.023 163.823 55.9934 163.891 55.9338 163.914C55.4959 164.086 55.144 164.458 54.9922 164.909C54.9758 164.957 54.9307 164.987 54.8832 164.987Z" fill="white"/>
<path d="M14.5372 160.524L13.202 159.97C12.8999 159.845 12.5584 159.885 12.2802 160.058C11.0818 160.808 10.665 160.164 10.2309 158.813C9.72399 158.529 9.33123 159.09 9.22082 159.239L6.74208 162.513C6.5316 162.785 6.57811 163.179 6.84591 163.393C6.89336 163.431 6.94645 163.461 7.00283 163.484C8.62416 164.156 9.39089 164.474 11.4092 165.309L17.5807 167.866C19.2631 168.563 20.3033 166.986 19.6742 166.539C16.8389 164.549 15.0066 162.703 14.4132 161.383C14.299 161.148 14.5311 161.103 14.5372 160.524Z" fill="#407BFF"/>
<path d="M17.0132 162.771C17.1951 162.726 17.3449 162.597 17.4178 162.422C17.4676 162.333 17.4624 162.222 17.4046 162.137C17.1072 161.663 15.1199 161.764 14.8949 161.779C14.8709 161.778 14.8479 161.788 14.8319 161.806C14.8023 161.839 14.8051 161.891 14.838 161.921C15.2087 162.189 15.6057 162.418 16.0229 162.603C16.3273 162.765 16.674 162.824 17.0132 162.771ZM17.2486 162.223C17.274 162.258 17.2754 162.306 17.2514 162.343C17.1937 162.467 17.0861 162.559 16.9559 162.597C16.4612 162.728 15.5958 162.224 15.1406 161.927C15.958 161.905 17.0832 161.963 17.2486 162.223Z" fill="white"/>
<path d="M14.8877 161.963C15.474 161.958 16.8605 161.557 16.9817 161.091C17.0103 160.994 16.9892 160.856 16.7754 160.731C15.903 160.246 14.8403 161.752 14.8121 161.823C14.7914 161.848 14.7876 161.883 14.8017 161.912C14.8168 161.924 14.8346 161.932 14.8539 161.934L14.8877 161.963ZM16.6895 160.856C16.8525 160.944 16.8276 161.006 16.8187 161.028C16.758 161.318 15.7165 161.697 15.0545 161.764C15.3242 161.421 16.051 160.586 16.6303 160.826L16.6895 160.856Z" fill="white"/>
<path d="M13.5458 162.324C13.536 162.317 13.5266 162.308 13.5191 162.297C13.482 162.244 13.4937 162.171 13.5458 162.133C13.9823 161.816 14.5541 161.707 15.0732 161.843C15.1343 161.858 15.1723 161.923 15.1559 161.986C15.1399 162.048 15.0774 162.086 15.0154 162.07C14.5611 161.951 14.0612 162.046 13.6797 162.323C13.6389 162.353 13.5844 162.352 13.5458 162.324Z" fill="white"/>
<path d="M14.121 163.301C14.1112 163.293 14.1018 163.284 14.0943 163.273C14.0571 163.221 14.0689 163.148 14.121 163.11C14.5575 162.793 15.1283 162.684 15.6489 162.82C15.71 162.835 15.748 162.9 15.7316 162.963C15.7156 163.025 15.6531 163.063 15.5911 163.047C15.1368 162.928 14.6369 163.023 14.2549 163.301C14.2141 163.33 14.16 163.329 14.121 163.301Z" fill="white"/>
<path d="M14.9389 164.26C14.929 164.253 14.9197 164.244 14.9121 164.233C14.875 164.181 14.8868 164.108 14.9389 164.07C15.3749 163.752 15.9457 163.644 16.4663 163.779C16.5269 163.794 16.5654 163.859 16.549 163.922C16.533 163.985 16.47 164.022 16.4085 164.006C15.9537 163.888 15.4543 163.982 15.0728 164.26C15.0319 164.291 14.9779 164.289 14.9389 164.26Z" fill="white"/>
<path d="M23.0088 12.8556C23.2813 12.6556 23.644 12.6083 24.0034 12.6193C24.0607 11.965 24.5446 11.4945 25.1319 11.3761C25.7192 11.2578 26.3872 11.452 26.9834 11.7956C27.9992 11.0864 29.6834 11.5083 30.6325 12.71C31.4532 12.1082 32.8063 12.3573 33.6628 13.2679C34.5197 14.1785 34.779 15.6441 34.2439 16.5494C35.0013 16.893 35.6553 17.6365 35.9301 18.466C36.1326 19.0773 36.0344 19.8581 35.4908 19.934C36.0109 20.3353 36.1425 21.1213 35.9808 21.6873C35.7276 22.575 34.8707 23.1143 33.9494 22.9659C34.0475 23.97 33.6651 24.913 32.9585 25.4084C32.5437 25.699 31.8653 25.7806 31.4824 25.2848C31.7779 26.3767 31.1638 27.4696 30.1937 27.5769C30.0391 27.5941 29.8469 27.5722 29.7389 27.4223C29.4796 28.4956 28.1758 28.9266 27.1629 28.2737C26.9233 29.2129 26.0133 29.7808 25.0501 29.5919C24.0875 29.4029 23.1577 28.4737 22.8923 27.4347C22.2266 27.6872 21.38 27.2448 20.7344 26.6793C20.3017 26.3003 19.8968 25.8355 19.7121 25.291C19.5275 24.7469 19.6224 24.1184 20.0358 23.8884C19.1963 23.6693 18.4821 22.7253 18.3694 21.8171C18.2566 20.909 18.6823 20.0929 19.3475 19.6877C18.8232 19.1131 18.5658 18.2789 18.7034 17.5984C18.8411 16.9178 19.3673 16.4201 20.0217 16.3523C19.5575 15.5959 19.9015 14.7106 20.4004 14.1866C20.6832 13.8893 21.0215 13.6387 21.4302 13.5518C21.8272 13.4679 22.2064 13.5824 22.6048 13.79C22.7217 13.4435 22.6903 13.0899 23.0088 12.8556Z" fill="#263238"/>
<path d="M29.721 13.572C29.6994 13.5672 28.2463 17.2019 28.6541 19.7341C28.6541 19.7341 27.8469 18.9003 28.0809 15.9878C28.2589 13.7724 29.0581 13.5171 29.0581 13.5171L29.721 13.572Z" fill="black"/>
<path d="M37.1035 38.017C31.8904 35.6761 31.5808 32.5559 31.5808 32.5559C32.9188 30.3444 32.4025 27.2929 31.9985 24.7803L37.0908 29.5813C36.605 31.3504 36.4523 32.3283 37.5648 32.8294C37.5775 32.8294 39.3816 34.075 37.1035 38.017Z" fill="#FDAC6D"/>
<path opacity="0.1" d="M36.7565 31.3399C36.8039 30.7428 36.9205 30.153 37.1037 29.5836L32.5225 25.2632L32.2322 25.635C32.2322 25.635 32.9576 29.7884 36.7565 31.3399Z" fill="black"/>
<path d="M30.5423 17.4574C30.8172 22.6292 30.8261 24.8178 33.3448 27.6202C37.1333 31.8351 43.2423 30.6979 44.4737 25.6291C45.582 21.0667 44.9464 13.376 40.0452 11.0204C35.2165 8.70003 30.2675 12.286 30.5423 17.4574Z" fill="#FDAC6D"/>
<path d="M36.7342 19.8543C36.7032 20.3368 36.9461 20.7668 37.2769 20.8145C37.6076 20.8622 37.9003 20.51 37.9313 20.0275C37.9623 19.545 37.7194 19.115 37.3887 19.0668C37.0584 19.0191 36.7652 19.3718 36.7342 19.8543Z" fill="#263238"/>
<path d="M36.0299 17.4896C36.0943 17.4986 36.1605 17.4814 36.2122 17.4356C37.0142 16.7222 37.8875 17.0052 37.8974 17.0085C38.0266 17.051 38.161 16.9794 38.1943 16.8453C38.2277 16.7112 38.1483 16.5666 38.0177 16.5227C37.9721 16.5079 36.876 16.1514 35.881 17.0371C35.7818 17.1254 35.7757 17.2863 35.8669 17.397C35.911 17.4495 35.9698 17.481 36.0299 17.4896Z" fill="#263238"/>
<path d="M43.6692 17.046C43.7293 17.0307 43.7819 16.994 43.8143 16.9376C43.8811 16.8222 43.835 16.6699 43.7124 16.5979C42.4805 15.8763 41.446 16.3444 41.4023 16.365C41.2792 16.4222 41.2336 16.5687 41.3004 16.6923C41.3666 16.8155 41.5202 16.8689 41.6433 16.8121C41.6837 16.793 42.4918 16.4423 43.4709 17.0159C43.5343 17.0536 43.6057 17.0622 43.6692 17.046Z" fill="#263238"/>
<path d="M40.7037 19.2593C40.7037 19.2593 41.4263 21.2188 42.2776 22.4554C42.4265 22.6715 42.318 22.9746 42.0714 23.0562C41.4362 23.2667 40.7108 23.0266 40.7108 23.0266L40.7037 19.2593Z" fill="#FE7F3A"/>
<path d="M37.2672 19.0438L38.4573 18.9087C38.4573 18.9087 37.5576 19.6928 37.2672 19.0438Z" fill="#263238"/>
<path d="M41.6473 19.7884C41.6163 20.2708 41.8592 20.7008 42.19 20.7486C42.5207 20.7963 42.8134 20.4441 42.8444 19.9616C42.8754 19.4791 42.6325 19.0491 42.3018 19.0009C41.9715 18.9532 41.6783 19.3054 41.6473 19.7884Z" fill="#263238"/>
<path d="M42.2521 19.0022L43.4421 18.8672C43.4421 18.8672 42.5424 19.6518 42.2521 19.0022Z" fill="#263238"/>
<path d="M32.1942 26.2212C25.6643 21.8216 28.0049 9.75791 36.8943 9.78177C45.7836 9.80564 44.921 20.586 44.921 20.586C44.2177 10.4781 35.2612 13.3086 35.2612 13.3086C36.6298 17.4262 32.9741 19.7394 32.9741 19.7394C31.5266 22.3537 32.1942 26.2212 32.1942 26.2212Z" fill="#263238"/>
<path d="M28.8521 21.6005C29.4126 22.6805 30.3616 23.381 31.2463 23.6426C32.5768 24.0358 33.3511 21.8687 32.9428 20.4847C32.5754 19.2386 31.2857 18.3739 29.9689 18.5924C28.6717 18.8077 28.2113 20.3658 28.8521 21.6005Z" fill="#FDAC6D"/>
<path opacity="0.2" d="M30.8432 19.9446C30.4264 19.7451 29.9604 20 29.7931 20.3493C29.5911 20.7722 29.7537 21.802 31.0442 22.2177" stroke="black" stroke-width="0.5" stroke-miterlimit="10" stroke-linecap="round" stroke-linejoin="round"/>
<path d="M40.5874 24.6102C40.158 25.1486 39.598 26.2204 39.598 26.2204C39.4932 26.1866 39.3884 26.1522 39.2856 26.1131C37.8761 25.6148 37.3842 24.9109 37.2668 24.2814C37.2038 23.9368 37.2569 23.6118 37.3325 23.3584C37.4176 23.0644 37.544 22.8745 37.544 22.8745C38.1359 23.5918 39.4143 24.1588 40.1101 24.4332C40.3995 24.5506 40.5874 24.6102 40.5874 24.6102Z" fill="#263238"/>
<path d="M40.1091 24.4332L39.8051 24.8999C38.4789 24.4274 37.6073 23.9139 37.332 23.3584C37.4171 23.0645 37.5434 22.8745 37.5434 22.8745C38.1354 23.5923 39.4138 24.1592 40.1091 24.4332Z" fill="white"/>
<path d="M39.286 26.1129C37.8766 25.6147 37.3847 24.9107 37.2672 24.2812C37.7408 24.4698 38.2914 24.7504 38.7241 25.1493C39.0563 25.4529 39.2127 25.796 39.286 26.1129Z" fill="#D7504D"/>
<path d="M43.1996 94.64L31.6319 124.975L16.4888 158.248L10.1581 155.292C10.1581 155.292 14.0148 137.8 19.676 126.264C19.8649 125.874 21.8269 123.103 22.0162 122.752C22.945 121.043 23.5783 119.213 23.8931 117.327C23.942 117.014 23.9969 116.686 24.0575 116.341C25.0751 110.241 27.2692 99.0067 30.3347 93.7266L43.1996 94.64Z" fill="#263238"/>
<path d="M34.582 90.5947L43.0673 117.446L51.9684 159.379L45.8256 160.678C45.8256 160.678 37.1194 144.431 34.4438 132.4C34.1859 131.298 33.5658 126.164 33.4662 125.041C33.4103 124.203 33.1871 123.382 32.8079 122.618L31.3821 119.738C27.896 112.659 21.1317 98.5446 20.2235 93.9659L34.582 90.5947Z" fill="#263238"/>
<path opacity="0.3" d="M25.6659 107.743L32.6018 122.201L31.7679 124.388L25.1449 110.207L25.6659 107.743Z" fill="black"/>
<path opacity="0.3" d="M39.2125 104.866L34.582 88.4602L36.6328 86.0435L35.532 88.6702L39.648 103.953L39.2125 104.866Z" fill="black"/>
<path d="M43.9008 34.6494C43.9008 34.6494 47.5211 36.8886 48.3739 40.0823C49.2266 43.2765 49.188 53.1558 49.9684 54.9784C50.7488 56.8009 58.2465 73.175 58.2465 73.175L53.7194 76.4513C53.7194 76.4513 45.2078 61.7599 44.4857 57.3541C43.7636 52.9482 44.0652 35.0952 44.0652 35.0952" fill="#407BFF"/>
<path d="M43.9008 34.6494C43.9008 34.6494 47.5211 36.8886 48.3739 40.0823C49.2266 43.2765 49.188 53.1558 49.9684 54.9784C50.7488 56.8009 58.2465 73.175 58.2465 73.175L53.7194 76.4513C53.7194 76.4513 45.2078 61.7599 44.4857 57.3541C43.7636 52.9482 44.0652 35.0952 44.0652 35.0952" fill="#AD70F8"/>
<path d="M43.5714 58.4331C43.5714 58.4331 49.9152 42.1211 44.0651 35.0952C44.0651 35.089 35.7527 30.0746 22.0835 34.5812L25.7889 57.6653C25.7889 57.6653 20.0543 62.8142 18.3466 74.1496C28.6294 78.8661 37.7475 81.1669 44.4861 78.5335C44.4861 78.5335 43.0381 69.6187 43.5714 58.4331Z" fill="#FDCDC8"/>
<path opacity="0.3" d="M24.8294 82.8402C33.8428 57.4592 32.7486 48.5105 32.7486 48.5105L23.9852 46.4307L25.8132 57.6725C25.8132 57.6725 18.8891 63.6771 17.2631 84.4218C21.0441 86.0439 23.7507 85.8611 24.8294 82.8402Z" fill="black"/>
<path opacity="0.3" d="M41.1191 64.1371C41.1191 64.1371 39.9005 78.5545 45.3851 84.4417C45.4626 77.3609 45.1102 70.282 44.3308 63.2456H43.2826L41.1191 64.1371Z" fill="black"/>
<path d="M46.5433 73.1741C45.4942 69.6177 44.065 58.488 44.065 58.488C44.065 58.488 47.5632 48.8927 46.9478 42.7458C46.3323 36.5985 43.9006 34.6485 43.9006 34.6485C41.9546 33.9231 39.9668 33.3872 37.9452 33.0063C37.9452 33.0063 39.2334 33.6611 39.7812 35.5028C41.5877 43.4121 42.0697 51.5738 41.2071 59.6458C40.0857 70.5102 43.1207 78.2171 45.0586 81.8384C45.5449 82.7604 46.6753 83.1079 47.583 82.6139C47.8089 82.4908 48.0077 82.3218 48.1665 82.1171L48.3737 81.8508C48.3737 81.8508 47.8963 77.7189 46.5433 73.1741Z" fill="#407BFF"/>
<path d="M46.5433 73.1741C45.4942 69.6177 44.065 58.488 44.065 58.488C44.065 58.488 47.5632 48.8927 46.9478 42.7458C46.3323 36.5985 43.9006 34.6485 43.9006 34.6485C41.9546 33.9231 39.9668 33.3872 37.9452 33.0063C37.9452 33.0063 39.2334 33.6611 39.7812 35.5028C41.5877 43.4121 42.0697 51.5738 41.2071 59.6458C40.0857 70.5102 43.1207 78.2171 45.0586 81.8384C45.5449 82.7604 46.6753 83.1079 47.583 82.6139C47.8089 82.4908 48.0077 82.3218 48.1665 82.1171L48.3737 81.8508C48.3737 81.8508 47.8963 77.7189 46.5433 73.1741Z" fill="#AD70F8"/>
<path d="M30.1648 35.8195C29.8599 34.4202 30.1925 33.1727 30.869 32.7021C27.8218 32.8897 24.8282 33.4128 21.8951 34.3214L25.375 57.4861C18.0619 64.7597 10.8573 85.1245 10.8573 85.1245L17.2637 86.7046C20.1211 87.3785 23.0259 83.5023 24.0403 80.7062C26.8864 72.7764 32.1638 57.3931 32.706 51.0725C33.1876 45.4144 30.9691 39.4966 30.1648 35.8195Z" fill="#407BFF"/>
<path d="M30.1648 35.8195C29.8599 34.4202 30.1925 33.1727 30.869 32.7021C27.8218 32.8897 24.8282 33.4128 21.8951 34.3214L25.375 57.4861C18.0619 64.7597 10.8573 85.1245 10.8573 85.1245L17.2637 86.7046C20.1211 87.3785 23.0259 83.5023 24.0403 80.7062C26.8864 72.7764 32.1638 57.3931 32.706 51.0725C33.1876 45.4144 30.9691 39.4966 30.1648 35.8195Z" fill="#AD70F8"/>
<path d="M21.8947 34.3203C21.8947 34.3203 19.0067 34.9784 17.282 43.385C15.5574 51.7916 15.5381 54.6559 14.3011 57.4974C12.5764 61.5029 6.94519 70.2998 6.94519 70.2998L11.1035 73.0492C11.1035 73.0492 18.3358 64.1134 19.9445 60.6033C21.5531 57.0932 23.212 50.2673 24.2602 46.4288C24.4913 45.5808 24.3565 43.4256 24.4256 41.7686C24.5393 39.0602 23.8872 36.0374 21.8947 34.3203Z" fill="#407BFF"/>
<path d="M21.8947 34.3203C21.8947 34.3203 19.0067 34.9784 17.282 43.385C15.5574 51.7916 15.5381 54.6559 14.3011 57.4974C12.5764 61.5029 6.94519 70.2998 6.94519 70.2998L11.1035 73.0492C11.1035 73.0492 18.3358 64.1134 19.9445 60.6033C21.5531 57.0932 23.212 50.2673 24.2602 46.4288C24.4913 45.5808 24.3565 43.4256 24.4256 41.7686C24.5393 39.0602 23.8872 36.0374 21.8947 34.3203Z" fill="#AD70F8"/>
<path d="M44.4857 57.3552C44.4857 57.3552 47.8853 49.7323 46.8207 41.7075C46.8207 41.7075 48.1019 48.8465 47.0274 53.1508C45.9529 57.455 44.8634 58.7912 44.8634 58.7912L44.4857 57.3552Z" fill="#AD70F8"/>
<path d="M136.507 52.5291L145.077 51.4128C145.077 51.4128 143.182 32.3022 139.279 31.1535C131.257 28.8069 136.507 52.5291 136.507 52.5291Z" fill="#EDC757"/>
<path d="M107.638 76.8937C120.082 80.7006 130.661 81.929 139.676 77.5279C139.676 73.0715 135.66 67.7527 136.082 62.5546C137.24 48.2617 139.676 31.3155 139.676 31.3155C122.939 22.4255 112.144 27.5372 112.144 27.5372C107.858 41.5074 107.638 76.8937 107.638 76.8937Z" fill="#407BFF"/>
<path d="M107.638 76.8937C120.082 80.7006 130.661 81.929 139.676 77.5279C139.676 73.0715 135.66 67.7527 136.082 62.5546C137.24 48.2617 139.676 31.3155 139.676 31.3155C122.939 22.4255 112.144 27.5372 112.144 27.5372C107.858 41.5074 107.638 76.8937 107.638 76.8937Z" fill="#EDC757"/>
<path d="M112.687 45.5566L104.021 41.9048C104.021 41.9048 109.808 26.1712 113.375 27.3633C119.207 29.32 112.687 45.5566 112.687 45.5566Z" fill="#EDC757"/>
<path opacity="0.2" d="M137.191 51.0909C137.191 51.0909 137.204 50.9807 137.228 50.7812C137.461 48.8436 138.707 38.4756 138.707 38.4756L138.721 52.2401L137.076 52.4544" fill="black"/>
<path d="M122.271 25.9644C125.359 24.4749 124.068 22.7979 124.213 19.1485L129.457 16.998C129.234 17.3927 130.36 24.8004 130.428 25.6685C130.94 27.1651 131.029 28.1941 132.04 28.9925C128.484 30.3345 124.484 29.0941 122.271 25.9644Z" fill="#FFBBB5"/>
<path opacity="0.2" d="M124.31 21.447C124.48 22.4578 124.397 23.4962 124.067 24.4655C125.611 23.5678 127.67 22.7985 128.923 19.3657L124.31 21.447Z" fill="black"/>
<path d="M129.823 8.93545C130.519 13.8663 131.01 16.6333 129.088 19.6194C126.197 24.1107 119.967 23.151 117.828 18.517C115.904 14.3459 115.088 6.98306 119.405 4.10388C123.657 1.26669 129.127 4.00414 129.823 8.93545Z" fill="#FFBBB5"/>
<path d="M123.248 11.7823C123.35 12.2805 123.171 12.7363 122.849 12.8007C122.527 12.8651 122.184 12.5129 122.083 12.0147C121.981 11.5165 122.16 11.0607 122.482 10.9963C122.804 10.9323 123.147 11.2841 123.248 11.7823Z" fill="#263238"/>
<path d="M118.458 12.8897C118.559 13.3879 118.38 13.8437 118.059 13.9081C117.737 13.9726 117.394 13.6204 117.292 13.1221C117.191 12.6239 117.369 12.1676 117.691 12.1037C118.013 12.0397 118.356 12.3915 118.458 12.8897Z" fill="#263238"/>
<path d="M119.966 12.2842C119.966 12.2842 118.916 15.086 118.624 16.1985C119.435 16.6815 120.552 16.146 120.552 16.146L119.966 12.2842Z" fill="#E97A75"/>
<path d="M123.968 9.18072C123.901 9.22701 123.811 9.23608 123.731 9.19647C122.79 8.72448 122.038 9.15686 122.031 9.16115C121.919 9.22701 121.774 9.18931 121.709 9.07668C121.642 8.96405 121.68 8.81849 121.791 8.75216C121.831 8.72877 122.772 8.18615 123.94 8.7722C124.057 8.8309 124.105 8.97312 124.047 9.09004C124.029 9.12822 124.001 9.15877 123.968 9.18072Z" fill="#263238"/>
<path d="M115.906 11.2325C115.862 11.232 115.817 11.2187 115.777 11.1915C115.67 11.1175 115.64 10.9695 115.712 10.8607C116.43 9.76881 117.508 9.78503 117.556 9.77979C117.685 9.78265 117.79 9.89098 117.788 10.0227C117.787 10.1539 117.683 10.258 117.554 10.2565C117.509 10.2542 116.679 10.2523 116.102 11.1285C116.057 11.1967 115.982 11.2335 115.906 11.2325Z" fill="#263238"/>
<path d="M122.401 17.6868C123.296 17.4381 124.02 16.6402 124.191 15.7139" stroke="#263238" stroke-width="0.5" stroke-miterlimit="10" stroke-linecap="round" stroke-linejoin="round"/>
<path d="M131.045 4.08369C132.009 5.52638 132.208 8.81932 131.615 12.862C130.968 17.2354 129.426 19.0528 129.426 19.0528C130.518 16.9854 130.089 13.0372 129.427 12.9288C128.765 12.82 128.797 13.5998 128.797 13.5998C127.328 12.6315 126.036 9.98999 126.535 8.07817C126.754 7.27021 126.322 6.42788 125.544 6.14774L125.586 3.98633L131.045 4.08369Z" fill="#263238"/>
<path d="M132.541 12.5981C132.413 13.9325 131.687 15.0769 130.834 15.7565C129.55 16.7787 128.272 15.7631 128.095 14.2007C127.936 12.7942 128.413 10.5679 129.957 10.157C131.48 9.75183 132.688 11.0728 132.541 12.5981Z" fill="#FFBBB5"/>
<path opacity="0.2" d="M131.173 11.4822C130.92 11.2322 130.504 11.2078 130.186 11.362C129.868 11.5161 129.64 11.8182 129.492 12.1432C129.316 12.5341 129.242 12.9717 129.281 13.3998" stroke="black" stroke-width="0.5" stroke-miterlimit="10" stroke-linecap="round" stroke-linejoin="round"/>
<path d="M132.207 5.10319C131.962 3.36843 130.58 2.02929 128.863 1.86178C127.508 0.342732 122.798 -0.68381 118.45 1.66421C114.102 4.01222 114.573 7.64926 115.073 8.03774C116.11 8.83186 117.915 5.65775 117.915 5.65775C117.915 5.65775 116.855 7.66119 118.255 7.73278C119.656 7.80437 122.528 5.73172 122.528 5.73172C122.528 5.73172 121.8 6.70528 122.641 7.23025C123.481 7.75521 125.544 6.14787 125.544 6.14787C125.544 6.14787 132.81 9.03707 132.207 5.10319Z" fill="#263238"/>
<path d="M122.271 25.9644C125.359 24.4749 124.068 22.7979 124.213 19.1485L129.457 16.998C129.234 17.3927 130.36 24.8004 130.428 25.6685C130.94 27.1651 131.029 28.1941 132.04 28.9925C128.484 30.3345 124.484 29.0941 122.271 25.9644Z" fill="#FFBBB5"/>
<path opacity="0.2" d="M124.31 21.447C124.48 22.4578 124.397 23.4962 124.067 24.4655C125.611 23.5678 127.67 22.7985 128.923 19.3657L124.31 21.447Z" fill="black"/>
<path d="M129.823 8.93545C130.519 13.8663 131.01 16.6333 129.088 19.6194C126.197 24.1107 119.967 23.151 117.828 18.517C115.904 14.3459 115.088 6.98306 119.405 4.10388C123.657 1.26669 129.127 4.00414 129.823 8.93545Z" fill="#FFBBB5"/>
<path d="M123.248 11.7823C123.35 12.2805 123.171 12.7363 122.849 12.8007C122.527 12.8651 122.184 12.5129 122.083 12.0147C121.981 11.5165 122.16 11.0607 122.482 10.9963C122.804 10.9323 123.147 11.2841 123.248 11.7823Z" fill="#263238"/>
<path d="M118.458 12.8897C118.559 13.3879 118.38 13.8437 118.059 13.9081C117.737 13.9726 117.394 13.6204 117.292 13.1221C117.191 12.6239 117.369 12.1676 117.691 12.1037C118.013 12.0397 118.356 12.3915 118.458 12.8897Z" fill="#263238"/>
<path d="M119.966 12.2842C119.966 12.2842 118.916 15.086 118.624 16.1985C119.435 16.6815 120.552 16.146 120.552 16.146L119.966 12.2842Z" fill="#E97A75"/>
<path d="M123.968 9.18072C123.901 9.22701 123.811 9.23608 123.731 9.19647C122.79 8.72448 122.038 9.15686 122.031 9.16115C121.919 9.22701 121.774 9.18931 121.709 9.07668C121.642 8.96405 121.68 8.81849 121.791 8.75216C121.831 8.72877 122.772 8.18615 123.94 8.7722C124.057 8.8309 124.105 8.97312 124.047 9.09004C124.029 9.12822 124.001 9.15877 123.968 9.18072Z" fill="#263238"/>
<path d="M115.906 11.2325C115.862 11.232 115.817 11.2187 115.777 11.1915C115.67 11.1175 115.64 10.9695 115.712 10.8607C116.43 9.76881 117.508 9.78503 117.556 9.77979C117.685 9.78265 117.79 9.89098 117.788 10.0227C117.787 10.1539 117.683 10.258 117.554 10.2565C117.509 10.2542 116.679 10.2523 116.102 11.1285C116.057 11.1967 115.982 11.2335 115.906 11.2325Z" fill="#263238"/>
<path d="M122.401 17.6868C123.296 17.4381 124.02 16.6402 124.191 15.7139" stroke="#263238" stroke-width="0.5" stroke-miterlimit="10" stroke-linecap="round" stroke-linejoin="round"/>
<path d="M131.045 4.08369C132.009 5.52638 132.208 8.81932 131.615 12.862C130.968 17.2354 129.426 19.0528 129.426 19.0528C130.518 16.9854 130.089 13.0372 129.427 12.9288C128.765 12.82 128.797 13.5998 128.797 13.5998C127.328 12.6315 126.036 9.98999 126.535 8.07817C126.754 7.27021 126.322 6.42788 125.544 6.14774L125.586 3.98633L131.045 4.08369Z" fill="#263238"/>
<path d="M132.541 12.5981C132.413 13.9325 131.687 15.0769 130.834 15.7565C129.55 16.7787 128.272 15.7631 128.095 14.2007C127.936 12.7942 128.413 10.5679 129.957 10.157C131.48 9.75183 132.688 11.0728 132.541 12.5981Z" fill="#FFBBB5"/>
<path opacity="0.2" d="M131.173 11.4822C130.92 11.2322 130.504 11.2078 130.186 11.362C129.868 11.5161 129.64 11.8182 129.492 12.1432C129.316 12.5341 129.242 12.9717 129.281 13.3998" stroke="black" stroke-width="0.5" stroke-miterlimit="10" stroke-linecap="round" stroke-linejoin="round"/>
<path d="M132.207 5.10319C131.962 3.36843 130.58 2.02929 128.863 1.86178C127.508 0.342732 122.798 -0.68381 118.45 1.66421C114.102 4.01222 114.573 7.64926 115.073 8.03774C116.11 8.83186 117.915 5.65775 117.915 5.65775C117.915 5.65775 116.855 7.66119 118.255 7.73278C119.656 7.80437 122.528 5.73172 122.528 5.73172C122.528 5.73172 121.8 6.70528 122.641 7.23025C123.481 7.75521 125.544 6.14787 125.544 6.14787C125.544 6.14787 132.81 9.03707 132.207 5.10319Z" fill="#263238"/>
</svg>
