<svg width="190" height="176" viewBox="0 0 190 176" fill="none" xmlns="http://www.w3.org/2000/svg">
<path d="M182.439 168.04C182.439 172.037 146.099 175.278 101.27 175.278C56.4421 175.278 20.1011 172.037 20.1011 168.04C20.1011 164.042 56.4417 160.801 101.27 160.801C146.099 160.801 182.439 164.042 182.439 168.04Z" fill="#E7E6E3"/>
<path d="M2.98824 156.802C2.76555 156.422 2.26896 155.954 1.92083 155.688C1.57269 155.422 1.09583 155.289 0.692732 155.457C0.178285 155.671 -0.0589715 156.312 0.0124402 156.872C0.0843218 157.432 0.347418 158.14 0.660784 158.607C1.99928 160.597 3.23818 162.419 5.30396 163.901C5.30443 161.428 4.22385 158.911 2.98824 156.802Z" fill="#407BFF"/>
<path d="M9.803 157.144C9.3407 156.887 8.48141 157.251 8.05952 157.573C7.22325 158.209 6.71397 158.876 6.20422 159.802C5.55729 160.979 5.48212 162.631 5.3999 163.68C7.0358 162.331 8.70223 160.948 9.82226 159.135C10.0177 158.819 10.1991 158.479 10.2343 158.107C10.2691 157.735 10.1253 157.324 9.803 157.144Z" fill="#407BFF"/>
<path d="M3.49658 159.697C4.46346 161.281 5.16113 163.033 5.54873 164.854" stroke="#263238" stroke-width="0.5" stroke-miterlimit="10" stroke-linecap="round" stroke-linejoin="round"/>
<path d="M7.22074 160.503C6.40796 161.493 5.76619 162.628 5.3335 163.84" stroke="#263238" stroke-width="0.5" stroke-miterlimit="10" stroke-linecap="round" stroke-linejoin="round"/>
<path d="M182.749 156.4C182.527 156.02 182.03 155.552 181.682 155.286C181.334 155.019 180.857 154.887 180.454 155.054C179.939 155.268 179.702 155.909 179.773 156.47C179.845 157.03 180.108 157.738 180.422 158.204C181.76 160.195 182.999 162.017 185.065 163.498C185.065 161.026 183.985 158.509 182.749 156.4Z" fill="#407BFF"/>
<path d="M189.563 156.743C189.101 156.485 188.242 156.85 187.82 157.171C186.984 157.807 186.474 158.474 185.965 159.4C185.318 160.577 185.243 162.229 185.16 163.278C186.796 161.929 188.463 160.546 189.583 158.733C189.778 158.417 189.96 158.077 189.995 157.705C190.03 157.334 189.886 156.922 189.563 156.743Z" fill="#407BFF"/>
<path d="M183.257 159.295C184.224 160.878 184.922 162.631 185.309 164.452" stroke="#263238" stroke-width="0.5" stroke-miterlimit="10" stroke-linecap="round" stroke-linejoin="round"/>
<path d="M186.981 160.101C186.168 161.09 185.527 162.225 185.094 163.437" stroke="#263238" stroke-width="0.5" stroke-miterlimit="10" stroke-linecap="round" stroke-linejoin="round"/>
<path d="M92.2172 54.267C94.9215 57.4125 94.6034 62.1892 91.5069 64.9362C88.4103 67.6832 83.7079 67.3601 81.0037 64.2146C78.2994 61.0691 78.6175 56.2924 81.7141 53.5454C84.8106 50.7984 89.513 51.1215 92.2172 54.267Z" fill="#407BFF"/>
<g opacity="0.4">
<path d="M92.2172 54.267C94.9215 57.4125 94.6034 62.1892 91.5069 64.9362C88.4103 67.6832 83.7079 67.3601 81.0037 64.2146C78.2994 61.0691 78.6175 56.2924 81.7141 53.5454C84.8106 50.7984 89.513 51.1215 92.2172 54.267Z" fill="white"/>
</g>
<path d="M92.6592 52.501C94.6249 53.9351 95.7975 56.4234 95.665 58.8778" stroke="#407BFF" stroke-width="0.5" stroke-miterlimit="10" stroke-linecap="round" stroke-linejoin="round"/>
<path d="M95.5652 60.0024C95.5723 60.3776 95.5023 60.7536 95.3608 61.1001" stroke="#407BFF" stroke-width="0.5" stroke-miterlimit="10" stroke-linecap="round" stroke-linejoin="round"/>
<path d="M90.2459 58.6917C90.2083 58.256 90.0119 57.8436 89.7342 57.51C89.4617 57.1831 89.1019 56.9211 88.6926 56.819C88.2576 56.7102 87.7798 56.7918 87.4039 57.0395C87.1803 57.1865 86.9947 57.3912 86.8641 57.627C86.7476 57.4112 86.586 57.2213 86.3901 57.0767C86.0279 56.809 85.5552 56.7016 85.115 56.7861C84.7006 56.8658 84.3276 57.1077 84.0382 57.4194C83.7432 57.7377 83.5252 58.1386 83.4646 58.5714C83.3889 59.1136 83.4768 59.712 83.7417 60.1883C84.0218 60.6918 84.485 61.1051 84.9647 61.4167C85.7709 61.9407 86.8336 62.5983 86.8336 62.5983C86.8336 62.5983 87.7643 61.9302 88.5973 61.4511C89.0925 61.1662 89.5773 60.7791 89.8836 60.2914C90.1735 59.8299 90.2928 59.2372 90.2459 58.6917Z" fill="white"/>
<path d="M87.9229 65.1096L92.0093 66.9703L91.8237 63.7671L87.9229 65.1096Z" fill="#407BFF"/>
<path opacity="0.4" d="M87.9229 65.1096L92.0093 66.9703L91.8237 63.7671L87.9229 65.1096Z" fill="white"/>
<path d="M153.192 43.898C153.192 43.898 153.332 60.4148 153.576 61.9329C153.82 63.4505 160.193 82.6971 160.193 82.6971L163.452 80.6487C163.452 80.6487 159.901 60.6548 159.747 58.9406C159.593 57.2259 158.72 41.2622 158.72 41.2622L153.192 43.898Z" fill="#FFBBB5"/>
<path d="M160.192 82.6973C160.134 82.8381 160.014 84.6225 160.037 85.2859C160.059 85.9493 161.881 90.5164 162.329 90.0306C162.777 89.5448 162.798 89.2999 162.526 88.2567C162.254 87.2135 161.91 86.2766 162.258 86.4212C162.605 86.5663 164.172 89.3329 164.219 90.2635C164.266 91.1941 164.295 92.8826 164.953 93.0682C165.611 93.2543 165.737 92.4951 165.737 92.4951C165.737 92.4951 166.107 93.3035 166.446 92.8201C166.784 92.3361 167.729 89.4889 167.554 88.4089C167.379 87.3289 164.356 83.1407 163.861 82.1223C163.713 81.8164 162.903 78.417 162.903 78.417L159.279 79.1037L160.192 82.6973Z" fill="#FFBBB5"/>
<path d="M131.879 149.203L134.988 152.649L127.376 159.2L124.267 155.753L131.879 149.203Z" fill="#FFBBB5"/>
<path d="M129.146 159.182C129.275 160.633 130.485 163.121 132.539 165.97C132.989 166.603 131.512 167.772 130.109 166.515C128.706 165.258 125.744 162.365 124.726 161.486C123.075 160.009 122.039 159.226 120.709 158.065C120.669 158.037 120.635 158.001 120.608 157.96C120.412 157.671 120.484 157.285 120.773 157.081L124.221 154.812C124.372 154.708 124.575 154.708 124.726 154.812L128.779 158.461C128.994 158.647 129.125 158.906 129.146 159.182Z" fill="#263238"/>
<path d="M128.578 159.077C128.555 159.039 128.555 158.992 128.578 158.954C128.611 158.933 128.654 158.933 128.688 158.954C128.88 158.954 130.586 159.324 130.769 159.833C130.822 159.946 130.797 160.08 130.705 160.167C130.574 160.342 130.36 160.441 130.137 160.431C129.831 160.38 129.551 160.235 129.339 160.018C129.051 159.732 128.796 159.416 128.578 159.077ZM128.944 159.209C129.213 159.684 129.658 160.045 130.192 160.22C130.34 160.226 130.481 160.16 130.567 160.045C130.567 159.983 130.567 159.913 130.567 159.913C130.551 159.869 130.523 159.829 130.485 159.798C130.014 159.512 129.491 159.312 128.944 159.209Z" fill="#407BFF"/>
<path d="M128.532 159.103C128.514 159.073 128.514 159.036 128.532 159.006C128.578 158.927 129.559 158.083 130.247 158.127C130.414 158.131 130.571 158.205 130.677 158.329C130.801 158.442 130.824 158.623 130.732 158.76C130.476 159.13 129.119 159.262 128.596 159.13L128.532 159.103ZM130.219 158.303C129.704 158.385 129.225 158.612 128.844 158.954C129.431 159.015 130.375 158.866 130.54 158.62C130.595 158.593 130.641 158.523 130.54 158.435C130.458 158.349 130.341 158.3 130.219 158.303Z" fill="#407BFF"/>
<path d="M138.38 157.347H142.965L142.58 167.511H138.004L138.38 157.347Z" fill="#FFBBB5"/>
<path d="M143.964 167.308C145.12 168.284 147.77 169.304 151.301 170.043C152.053 170.184 151.833 171.986 149.907 171.986C147.981 171.986 143.781 171.845 142.397 171.845C140.132 171.845 138.857 171.977 137.023 171.977H136.876C136.873 171.977 136.87 171.976 136.867 171.975C136.505 171.9 136.275 171.559 136.353 171.212L137.271 167.308C137.309 167.132 137.468 167.005 137.656 167H143.222C143.501 167.009 143.767 167.119 143.964 167.308Z" fill="#263238"/>
<path d="M143.552 167.617C143.509 167.602 143.477 167.565 143.47 167.52C143.465 167.48 143.487 167.442 143.525 167.423C143.69 167.318 145.166 166.447 145.671 166.702C145.789 166.753 145.861 166.869 145.854 166.992C145.886 167.204 145.803 167.416 145.634 167.555C145.364 167.73 145.04 167.808 144.717 167.775C144.324 167.759 143.934 167.706 143.552 167.617ZM145.414 166.861C144.849 166.962 144.31 167.168 143.827 167.467C144.361 167.644 144.946 167.615 145.459 167.388C145.568 167.295 145.622 167.158 145.606 167.019C145.597 166.896 145.533 166.896 145.533 166.896C145.488 166.883 145.44 166.883 145.395 166.896L145.414 166.861Z" fill="#407BFF"/>
<path d="M143.506 167.66C143.469 167.641 143.446 167.603 143.451 167.563C143.461 167.475 143.571 166.217 144.102 165.804C144.226 165.695 144.395 165.647 144.561 165.672C144.731 165.669 144.878 165.785 144.909 165.945C145.001 166.402 144.084 167.369 143.617 167.616H143.562L143.506 167.66ZM144.478 165.839C144.387 165.842 144.301 165.88 144.24 165.945C143.917 166.338 143.728 166.817 143.698 167.316C144.166 166.973 144.753 166.244 144.689 165.962C144.689 165.927 144.67 165.857 144.533 165.857H144.478L144.478 165.839Z" fill="#407BFF"/>
<path d="M161.801 119.752C160.187 134.172 134.189 156.285 134.189 156.285L128.118 150.474C128.118 150.474 142.891 132.211 145.642 125.177C147.871 119.594 138.26 92.7944 134.289 82.2436L127.806 83.2458C126.335 76.3344 126.115 69.2322 127.155 62.2492L151.135 61.3701L151.97 74.1635C155.556 83.4744 162.993 108.911 161.801 119.752Z" fill="#263238"/>
<path opacity="0.2" d="M161.801 119.752C160.187 134.172 134.189 156.285 134.189 156.285L128.118 150.474C128.118 150.474 142.891 132.211 145.642 125.177C147.871 119.594 138.26 92.7944 134.289 82.2436L127.806 83.2458C126.335 76.3344 126.115 69.2322 127.155 62.2492L151.135 61.3701L151.97 74.1635C155.556 83.4744 162.993 108.911 161.801 119.752Z" fill="white"/>
<path d="M149.588 63.5585L144.902 73.8898C150.166 130.663 143.362 164.075 143.362 164.075H134.998C136.245 116.094 121.114 85.1087 125.589 62.7319L149.588 63.5585Z" fill="#263238"/>
<path opacity="0.2" d="M149.588 63.5585L144.902 73.8898C150.166 130.663 143.362 164.075 143.362 164.075H134.998C136.245 116.094 121.114 85.1087 125.589 62.7319L149.588 63.5585Z" fill="white"/>
<path opacity="0.3" d="M128.549 87.0458C129.827 86.5757 130.811 85.4852 131.441 84.2611C132.071 83.0374 132.389 81.6763 132.684 80.3281" stroke="black" stroke-width="0.5" stroke-miterlimit="10" stroke-linecap="round" stroke-linejoin="round"/>
<path opacity="0.3" d="M146.123 144.779C146.123 144.779 146.725 143.154 147.369 132.805C148.012 122.456 146.064 88.6637 146.064 88.6637L148.673 83.8145L147.231 89.2703C147.231 89.2703 149.588 117.049 147.548 143.253L146.123 144.779Z" fill="black"/>
<path opacity="0.3" d="M134.484 142.289C134.777 147.03 135.051 155.463 135.051 155.463L134.399 156.117L133.746 143.264L134.484 142.289Z" fill="black"/>
<path d="M81.9668 160.677L79.9579 162.689L81.7723 164.57L84.0218 162.802L81.9668 160.677Z" fill="#DE7F72"/>
<path d="M83.1422 165.427C82.9547 165.224 82.7903 165 82.6517 164.76C82.6348 164.734 82.6348 164.7 82.6517 164.675C82.6757 164.666 82.702 164.666 82.7259 164.675C82.8368 164.703 83.8648 164.919 84.0222 165.286C84.0687 165.368 84.0687 165.468 84.0222 165.55C83.9606 165.689 83.8206 165.776 83.6703 165.766C83.4546 165.735 83.2625 165.611 83.1422 165.427ZM83.9291 165.352C83.8272 165.154 83.309 164.966 82.9017 164.863C83.1976 165.342 83.4941 165.624 83.698 165.624C83.7905 165.625 83.8742 165.569 83.9108 165.483C83.9338 165.443 83.9338 165.392 83.9108 165.351H83.9291V165.352Z" fill="#407BFF"/>
<path d="M83.4206 164.918C83.1467 164.947 82.8705 164.947 82.5966 164.918C82.5679 164.917 82.5425 164.898 82.5317 164.872C82.5186 164.845 82.5186 164.813 82.5317 164.787C82.6149 164.712 83.3835 163.988 83.772 164.072C83.8632 164.093 83.9365 164.161 83.9665 164.251C84.0506 164.375 84.0506 164.54 83.9665 164.665C83.8232 164.817 83.6278 164.908 83.4206 164.918ZM83.7537 164.223C83.5498 164.175 83.087 164.514 82.7633 164.796C83.3187 164.815 83.7171 164.74 83.8373 164.58C83.8838 164.498 83.8838 164.398 83.8373 164.317C83.8256 164.271 83.7899 164.235 83.7448 164.223H83.7537Z" fill="#407BFF"/>
<path d="M61.8051 160.084L63.9018 164.443L66.3594 165.217L68.5229 163.496L67.4442 158.733L61.8051 160.084Z" fill="#FDAC6D"/>
<path d="M27.0543 154.655L25.5946 159.274L26.8401 161.561L29.5739 161.842L32.0428 157.648L27.0543 154.655Z" fill="#FDAC6D"/>
<path d="M37.9842 99.2422C37.9842 99.2422 29.7451 82.8176 33.7084 72.8447L61.2071 77.9636C61.2071 77.9636 62.7871 86.8703 58.5226 96.1846L37.9842 99.2422Z" fill="#263238"/>
<path d="M82.7024 165.142C82.895 166.598 83.4494 167.98 84.3134 169.157C84.6836 169.581 83.9521 170.634 82.9246 169.853C81.8995 168.981 80.9344 168.039 80.0362 167.032C78.981 165.941 78.5365 165.565 77.6941 164.71C77.4846 164.497 77.4846 164.152 77.6941 163.938L79.7585 162.142C79.7599 162.141 79.7613 162.139 79.7627 162.138C79.8473 162.055 79.9821 162.057 80.0639 162.142L82.4524 164.644C82.5873 164.777 82.6751 164.952 82.7024 165.142Z" fill="#263238"/>
<path d="M101.399 164.344V167.212H103.991L104.324 164.344H101.399Z" fill="#DE7F72"/>
<path d="M105.602 166.818C105.327 166.809 105.054 166.772 104.787 166.705C104.731 166.696 104.731 166.649 104.731 166.649C104.718 166.626 104.718 166.597 104.731 166.574C104.824 166.508 105.694 165.916 106.074 166.066C106.159 166.102 106.218 166.18 106.231 166.273C106.283 166.413 106.25 166.57 106.148 166.677C105.987 166.787 105.794 166.837 105.602 166.818ZM106.018 166.178C105.824 166.094 105.314 166.348 104.954 166.574C105.5 166.724 105.898 166.715 106.046 166.574C106.109 166.502 106.13 166.402 106.101 166.31C106.095 166.264 106.062 166.227 106.018 166.216V166.178Z" fill="#5C81F5"/>
<path d="M105.314 166.253C105.15 166.476 104.961 166.678 104.749 166.855C104.727 166.871 104.698 166.871 104.675 166.855C104.675 166.836 104.675 166.911 104.675 166.789C104.675 166.667 104.703 165.604 105.045 165.378C105.126 165.331 105.224 165.331 105.305 165.378C105.444 165.416 105.549 165.534 105.573 165.679C105.565 165.898 105.472 166.105 105.314 166.253ZM105.129 165.548C104.953 165.661 104.833 166.234 104.833 166.658C105.24 166.253 105.435 165.915 105.435 165.717C105.417 165.623 105.35 165.546 105.259 165.519C105.219 165.496 105.17 165.496 105.129 165.519V165.548H105.129Z" fill="#5C81F5"/>
<path d="M105.019 166.489C106.172 167.373 107.53 167.94 108.962 168.135C109.517 168.163 109.74 169.432 108.472 169.63C107.136 169.756 105.794 169.788 104.454 169.724C102.945 169.724 102.371 169.799 101.176 169.799C100.884 169.794 100.649 169.552 100.649 169.254L100.834 166.489C100.844 166.368 100.946 166.277 101.066 166.282H104.491C104.685 166.29 104.87 166.363 105.019 166.489Z" fill="#263238"/>
<path d="M107.082 125.268C107.082 125.268 95.687 123.023 98.0756 132.719C98.2236 133.339 98.372 134.007 98.5106 134.721C99.0476 137.608 99.4643 141.22 99.7791 144.934C100.594 154.77 100.692 164.507 100.692 164.507L105.489 164.666C107.976 151.688 108.015 138.456 107.082 125.268Z" fill="#263238"/>
<path opacity="0.2" d="M102.601 130.574C100.879 129.972 99.5551 132.859 98.2406 133.395C98.7776 136.263 99.3052 140.025 99.62 143.739C103.036 140.984 102.601 130.555 102.601 130.574Z" fill="black"/>
<path d="M106.073 124.974C106.656 128.792 98.842 132.742 98.842 132.742C97.9606 137.836 96.1786 146.025 94.2054 150.793C91.9094 156.548 84.4403 163.687 84.4403 163.687L80.9369 160.799C86.2787 152.128 87.7623 147.267 87.651 143.778C87.1694 128.76 87.2324 126.971 87.8803 123.632C87.8803 123.632 105.49 121.156 106.073 124.974Z" fill="#263238"/>
<path d="M71.9994 82.1348C71.9994 82.1348 75.8923 92.5066 77.4427 94.0643C78.9926 95.622 89.1589 108.848 89.1589 108.848L90.8403 102.51L81.3078 92.1554L75.0034 83.5636L71.9994 82.1348Z" fill="#DE7F72"/>
<path d="M118.74 81.0765C118.74 81.0765 116.445 91.5113 114.895 93.069C113.345 94.6267 103.179 107.852 103.179 107.852L101.497 101.514L111.03 91.1601L116.472 80.6479L118.74 81.0765Z" fill="#DE7F72"/>
<path d="M105.593 107.691L105.902 106.399C105.902 106.399 110.872 100.351 113.045 97.7753L108.395 93.3179L103.137 97.9805L105.593 107.691Z" fill="#5C81F5"/>
<path d="M88.9734 98.4094L82.9156 93.3745L78.3007 98.208C79.8468 100.907 83.6697 103.897 83.6697 103.897L87.6598 108.439L88.9734 98.4094Z" fill="#5C81F5"/>
<path d="M106.323 111.384C106.055 109.709 105.823 107.988 105.666 106.352C105.531 104.94 105.485 103.521 105.527 102.102C105.597 100.438 106.23 97.8963 104.652 97.4444C102.817 96.9609 99.2295 97.7732 97.3343 97.7947C90.9189 97.7383 88.382 98.3964 88.382 98.3964C88.382 98.3964 87.7712 100.607 87.5673 102.694C87.4747 103.663 87.3728 104.81 87.2896 106.098C87.2896 106.314 87.3361 106.474 87.2896 106.747C87.2436 107.02 87.2436 107.302 87.2436 107.593C87.2065 108.092 87.1604 108.599 87.1604 109.136C87.0402 110.697 87.0402 112.38 87.0402 114.129C87.0402 116.668 86.7902 122.988 87.0402 125.621C95.6359 124.496 104.298 124.393 108.745 126.101C108.745 126.101 107.258 116.669 106.323 111.384Z" fill="#5C81F5"/>
<path d="M105.902 106.857C105.489 103.906 105.072 102.049 104.416 99.1445" stroke="#263238" stroke-width="0.25" stroke-miterlimit="10" stroke-linecap="round" stroke-linejoin="round"/>
<path d="M87.0721 107.754C87.0755 105.625 87.0784 103.496 87.0817 101.367" stroke="#263238" stroke-width="0.25" stroke-miterlimit="10" stroke-linecap="round" stroke-linejoin="round"/>
<path d="M98.8901 93.7683L96.9831 93.4204L92.7985 92.6401C93.1748 93.2181 93.4595 93.8528 93.6408 94.5209C94.0242 95.8095 93.8457 97.2026 93.1504 98.3484C93.1504 98.3484 94.2149 100.267 97.9829 101.63C97.9829 101.63 99.7602 100.032 99.1865 98.0287C99.0451 97.9098 98.9122 97.781 98.7886 97.643L98.5758 97.361C98.2088 96.8098 98.0726 96.1335 98.1962 95.4802C98.2967 94.8631 98.5339 94.278 98.8901 93.7683Z" fill="#DE7F72"/>
<path opacity="0.2" d="M98.8994 93.7962L96.9924 93.4482L92.8077 92.668C93.1841 93.2459 93.4688 93.8806 93.6501 94.5488C93.8564 95.4297 93.8564 96.348 93.6501 97.2289C93.6501 97.2289 98.0936 95.3577 98.3713 94.8308L98.8994 93.7962Z" fill="black"/>
<path d="M92.3814 87.9301C88.5872 82.3325 94.2048 79.9478 94.2048 79.9478C94.2048 79.9478 96.6647 94.2659 92.3814 87.9301Z" fill="#263238"/>
<path d="M97.2142 80.6985C92.5344 80.4083 89.6009 85.6918 89.0761 89.4477C88.5067 93.6125 90.2412 95.2662 95.809 95.9133C98.844 96.2684 101.96 92.963 103.261 89.5188C105.058 84.7283 101.894 80.9886 97.2142 80.6985Z" fill="#DE7F72"/>
<path d="M98.828 79.1247C103.338 80.4013 107.113 83.7195 105.229 88.72C102.633 95.5751 99.2292 94.9724 99.2292 94.9724C100.034 91.7266 97.6596 89.5686 98.8369 87.2926C98.8905 87.2125 98.9394 87.1289 98.9821 87.0421C99.5346 85.933 99.0967 84.5786 98.0049 84.0178C96.1919 83.8618 94.4536 83.2117 92.9741 82.1365C91.536 80.0047 95.0159 78.0151 98.828 79.1247Z" fill="#263238"/>
<path d="M94.7884 87.1134C94.4966 87.0184 94.1499 87.2957 93.9972 87.7376C93.8445 88.1795 93.9573 88.6166 94.2392 88.7188C94.521 88.8209 94.8762 88.5451 95.0289 88.1027C95.1736 87.6598 95.0801 87.2088 94.7884 87.1134Z" fill="#263238"/>
<path d="M91.3641 85.786C91.0893 85.6939 90.7393 85.9879 90.6035 86.3812C90.4677 86.7739 90.5668 87.1915 90.8407 87.2917C91.1142 87.3924 91.46 87.1233 91.6 86.7052C91.7414 86.2786 91.639 85.8782 91.3641 85.786Z" fill="#263238"/>
<path d="M94.6205 85.5468C95.1528 85.5998 95.6259 85.9138 95.8871 86.3882C95.9341 86.4927 96.0544 86.5409 96.1591 86.497C96.1591 86.497 96.1601 86.4965 96.161 86.496C96.2658 86.4449 96.3099 86.317 96.2597 86.2106C95.9557 85.6193 95.3858 85.2165 94.7342 85.1325C94.6196 85.1125 94.5106 85.1903 94.4904 85.3067C94.4904 85.3525 94.5035 85.3969 94.5284 85.4351C94.5453 85.4824 94.5782 85.522 94.6205 85.5468Z" fill="#263238"/>
<path d="M91.2472 84.4716C91.7419 84.2697 92.3015 84.317 92.7562 84.6C92.8497 84.663 92.9747 84.6439 93.0461 84.5556C93.1124 84.4616 93.0931 84.3313 93.0024 84.2611C92.4452 83.8836 91.7405 83.8111 91.1199 84.0669C91.1189 84.0674 91.118 84.0674 91.1171 84.0679C91.0123 84.1075 90.9587 84.2253 90.9977 84.3318C91.0118 84.3742 91.0433 84.4081 91.0842 84.4253C91.1293 84.4644 91.1889 84.4811 91.2472 84.4716Z" fill="#263238"/>
<path d="M90.4552 88.6394C90.7488 89.0512 91.1562 89.3652 91.626 89.5418L92.3161 87.6138C91.7641 88.071 91.1327 88.4184 90.4552 88.6394Z" fill="#D8504D"/>
<path d="M93.6684 90.4517C93.6693 90.4502 93.6702 90.4493 93.6712 90.4479C93.7323 90.3706 93.72 90.2574 93.6439 90.1954C93.6421 90.1935 93.6397 90.1921 93.6378 90.1906C93.5589 90.1319 93.4485 90.1491 93.3902 90.2288C92.9143 90.9232 91.9963 91.137 91.27 90.7223C91.1863 90.6722 91.0788 90.6994 91.0285 90.7838C91.0266 90.7862 91.0252 90.7891 91.0238 90.792C90.9745 90.8779 91.0031 90.9876 91.0877 91.0377C91.2977 91.1499 91.5237 91.2282 91.7576 91.2692C92.4976 91.4052 93.2474 91.085 93.6684 90.4517Z" fill="#263238"/>
<path d="M99.0793 85.0335C97.6647 86.5983 97.0117 83.8766 97.0117 83.8766C97.0117 83.8766 96.7969 84.2818 95.5176 84.3591C94.2383 84.4369 94.5047 82.8854 94.5047 82.8854C94.5047 82.8854 92.4145 83.4533 92.0297 82.6554C91.645 81.8574 94.0109 81.0776 94.0109 81.0776C94.0109 81.0776 100.494 83.4681 99.0793 85.0335Z" fill="#263238"/>
<path d="M100.282 89.6331C99.5767 89.5081 98.8367 90.3328 98.6413 91.471C98.4459 92.6092 98.8593 93.6381 99.5734 93.7646C100.288 93.8911 101.027 93.0664 101.223 91.9282C101.418 90.7895 100.988 89.7582 100.282 89.6331Z" fill="#DE7F72"/>
<path d="M122.662 38.4771C122.662 38.4771 116.187 55.4143 115.83 56.9242C115.472 58.4342 115.472 75.7217 115.472 75.7217L119.001 75.758C119.001 75.758 121.35 59.0909 121.864 57.4607C122.377 55.8304 128.549 41.6831 128.549 41.6831L122.662 38.4771Z" fill="#FFBBB5"/>
<path d="M115.404 84.6745C116.879 83.9238 116.664 81.5433 116.664 81.5433L119 75.7568L115.606 74.9736C114.962 76.1892 112.61 79.3084 112.125 80.5979C112.14 80.9725 113.017 83.4403 113.017 83.4403C113.017 83.4403 113.929 85.4256 115.404 84.6745Z" fill="#FFBBB5"/>
<path d="M116.072 82.1549C116.072 82.1549 114.34 80.1825 114.414 79.4581C114.489 78.7336 115.34 79.3101 115.34 79.3101C115.34 79.3101 114.442 78.6172 114.68 78.1895C114.965 77.6765 115.855 78.2845 115.855 78.2845C115.855 78.2845 115.144 77.688 115.381 77.3224C115.627 76.943 116.679 77.5567 116.679 77.5567C116.679 77.5567 116.257 77.0408 116.563 76.881C116.87 76.7216 119.127 77.9805 119.531 78.7961C119.934 79.6113 118.13 82.4131 117.74 83.0483C117.287 83.7871 116.481 84.1035 116.059 84.0543L116.123 82.2132L116.072 82.1549Z" fill="#DE7F72"/>
<path opacity="0.2" d="M115.37 79.2647C115.372 79.2656 115.373 79.2666 115.374 79.2675L116.884 80.5518C116.904 80.5689 116.906 80.6024 116.887 80.6262C116.868 80.6501 116.836 80.6548 116.816 80.6381L115.306 79.3539C115.286 79.3367 115.285 79.3033 115.304 79.2795C115.321 79.257 115.35 79.2508 115.37 79.2647Z" fill="black"/>
<path opacity="0.2" d="M115.966 78.258L115.967 78.2585L117.513 79.3747C117.535 79.3905 117.538 79.423 117.521 79.4478C117.504 79.4731 117.479 79.4783 117.451 79.465L115.904 78.3487C115.882 78.3329 115.879 78.3005 115.896 78.2757C115.914 78.2509 115.944 78.2432 115.966 78.258Z" fill="black"/>
<path opacity="0.2" d="M116.798 77.5349L117.971 78.3309C117.993 78.3457 117.997 78.3787 117.98 78.404C117.964 78.4293 117.932 78.4378 117.91 78.4231L116.738 77.627C116.715 77.6122 116.711 77.5793 116.728 77.554C116.745 77.5282 116.776 77.5196 116.798 77.5349Z" fill="black"/>
<path d="M76.6462 82.1374C76.6462 82.1374 77.388 79.6242 77.3824 79.2496C76.828 77.9897 74.3108 75.0065 73.6023 73.8286L73.3711 73.0708L70.0834 74.5221L72.9023 80.4475C72.9023 80.4475 72.8158 82.8361 74.3296 83.5032C75.8433 84.1704 76.6462 82.1374 76.6462 82.1374Z" fill="#FDAC6D"/>
<path d="M74.4375 81.9064C74.4375 81.9064 75.667 79.577 75.4278 78.8902C75.1887 78.2035 74.4938 78.9666 74.4938 78.9666C74.4938 78.9666 75.208 78.0794 74.8781 77.72C74.4821 77.2891 73.7572 78.0923 73.7572 78.0923C73.7572 78.0923 74.3111 77.3435 73.9963 77.0443C73.6698 76.7336 72.7884 77.5807 72.7884 77.5807C72.7884 77.5807 73.0802 76.9784 72.7457 76.8963C72.4112 76.8142 70.5061 78.5753 70.3017 79.4634C70.0978 80.352 72.4971 82.6471 73.0219 83.172C73.6327 83.7829 74.4896 83.8984 74.888 83.7504L74.4013 81.9756L74.4375 81.9064Z" fill="#DE7F72"/>
<path opacity="0.2" d="M74.4525 78.9288C74.4515 78.9297 74.4506 78.9312 74.4497 78.9326L73.2775 80.5399C73.262 80.5614 73.2681 80.5943 73.2916 80.6129C73.3151 80.6316 73.3479 80.6287 73.363 80.6077L74.5352 78.9999C74.5507 78.9784 74.5446 78.9455 74.5211 78.9269C74.4985 78.9097 74.4689 78.9106 74.4525 78.9288Z" fill="black"/>
<path opacity="0.2" d="M73.6413 78.0918L73.6403 78.0928L72.3934 79.546C72.3761 79.566 72.3803 79.599 72.4024 79.619C72.4249 79.6395 72.4512 79.6386 72.4747 79.619L73.7216 78.1658C73.739 78.1458 73.7348 78.1128 73.7122 78.0928C73.6901 78.0727 73.6586 78.0728 73.6413 78.0918Z" fill="black"/>
<path opacity="0.2" d="M72.6671 77.5882L71.7101 78.641C71.6922 78.6605 71.6955 78.6935 71.7176 78.714C71.7397 78.7345 71.7721 78.7355 71.79 78.7159L72.747 77.6631C72.7648 77.6436 72.7615 77.6106 72.7395 77.5901C72.7174 77.5691 72.685 77.5681 72.6671 77.5882Z" fill="black"/>
<path d="M26.3933 72.6221C26.399 72.7748 25.8859 74.4857 25.6332 75.0975C25.38 75.7098 22.0786 79.3197 21.8296 78.704C21.581 78.0884 21.6473 77.8517 22.2665 76.975C22.8862 76.0983 23.5355 75.3467 23.1591 75.3567C22.7833 75.3667 20.3501 77.3859 19.9809 78.2392C19.6116 79.0925 18.9924 80.6593 18.313 80.5958C17.6332 80.5319 17.7807 79.7764 17.7807 79.7764C17.7807 79.7764 17.1516 80.3982 17.005 79.8241C16.858 79.25 16.9717 76.2472 17.5134 75.3013C18.0551 74.3554 22.3473 71.533 23.1657 70.7599C23.4119 70.5275 25.3588 67.6431 25.3588 67.6431L28.944 69.6895L26.3933 72.6221Z" fill="#FDAC6D"/>
<path d="M68.4215 162.185L67.0195 162.522C66.7024 162.598 66.4468 162.831 66.32 163.136C65.7726 164.452 65.0665 164.174 63.9413 163.331C63.3667 163.4 63.3681 164.087 63.3634 164.273L63.2173 168.398C63.2018 168.743 63.4644 169.036 63.8041 169.053C63.8647 169.055 63.9253 169.049 63.9836 169.034C65.6862 168.624 66.4915 168.431 68.6108 167.921L75.0914 166.364C76.8579 165.939 76.8029 164.042 76.0362 164.05C72.5929 164.102 70.048 163.681 68.8109 162.957C68.5845 162.833 68.7475 162.66 68.4215 162.185Z" fill="#407BFF"/>
<path d="M71.7205 162.554C71.8426 162.411 71.891 162.217 71.8501 162.032C71.8393 161.93 71.7721 161.843 71.6772 161.809C71.1642 161.598 69.6054 162.852 69.4311 162.997C69.4109 163.01 69.3977 163.032 69.3954 163.056C69.3907 163.1 69.4221 163.141 69.4658 163.146C69.9206 163.146 70.3745 163.097 70.8194 163.002C71.159 162.954 71.4748 162.797 71.7205 162.554ZM71.5988 161.97C71.6397 161.984 71.6679 162.022 71.6697 162.066C71.6932 162.201 71.6589 162.34 71.5748 162.447C71.2469 162.845 70.2556 162.946 69.7158 162.973C70.3674 162.472 71.3164 161.856 71.5988 161.97Z" fill="white"/>
<path d="M69.5297 163.149C70.0042 162.799 70.9025 161.656 70.7343 161.205C70.7024 161.11 70.6066 161.01 70.3613 161.035C69.3742 161.154 69.3705 163.006 69.3879 163.08C69.3855 163.113 69.402 163.143 69.4301 163.158C69.4494 163.159 69.4682 163.155 69.4851 163.145L69.5297 163.149ZM70.3632 161.186C70.5459 161.162 70.561 161.227 70.5666 161.25C70.6831 161.522 70.0522 162.444 69.5513 162.889C69.5748 162.451 69.689 161.343 70.2979 161.197L70.3632 161.186Z" fill="white"/>
<path d="M68.643 164.231C68.6308 164.231 68.6181 164.229 68.6059 164.225C68.5458 164.204 68.5138 164.138 68.5345 164.077C68.7083 163.561 69.1109 163.136 69.6113 162.94C69.6696 162.916 69.7372 162.947 69.7602 163.008C69.7833 163.068 69.7537 163.135 69.694 163.159C69.2561 163.33 68.9042 163.702 68.752 164.152C68.7356 164.201 68.6905 164.231 68.643 164.231Z" fill="white"/>
<path d="M69.6679 164.688C69.6557 164.688 69.643 164.686 69.6308 164.682C69.5707 164.661 69.5387 164.594 69.5594 164.533C69.7332 164.018 70.1354 163.593 70.6362 163.396C70.6945 163.373 70.7621 163.403 70.7851 163.464C70.8082 163.524 70.7786 163.592 70.7189 163.615C70.2815 163.786 69.9291 164.158 69.7769 164.609C69.7605 164.657 69.7158 164.688 69.6679 164.688Z" fill="white"/>
<path d="M70.8832 164.987C70.871 164.987 70.8583 164.985 70.8461 164.981C70.786 164.961 70.7541 164.894 70.7747 164.833C70.9481 164.317 71.3502 163.893 71.8511 163.696C71.9084 163.672 71.977 163.702 72 163.763C72.023 163.823 71.9934 163.891 71.9338 163.914C71.4959 164.086 71.144 164.458 70.9922 164.909C70.9758 164.957 70.9307 164.987 70.8832 164.987Z" fill="white"/>
<path d="M30.5372 160.524L29.202 159.97C28.8999 159.845 28.5584 159.885 28.2802 160.058C27.0818 160.808 26.665 160.164 26.2309 158.813C25.724 158.529 25.3312 159.09 25.2208 159.239L22.7421 162.513C22.5316 162.785 22.5781 163.179 22.8459 163.393C22.8934 163.431 22.9464 163.461 23.0028 163.484C24.6242 164.156 25.3909 164.474 27.4092 165.309L33.5807 167.866C35.2631 168.563 36.3033 166.986 35.6742 166.539C32.8389 164.549 31.0066 162.703 30.4132 161.383C30.299 161.148 30.5311 161.103 30.5372 160.524Z" fill="#407BFF"/>
<path d="M33.0132 162.771C33.1951 162.726 33.3449 162.597 33.4178 162.422C33.4676 162.333 33.4624 162.222 33.4046 162.137C33.1072 161.663 31.1199 161.764 30.8949 161.779C30.8709 161.778 30.8479 161.788 30.8319 161.806C30.8023 161.839 30.8051 161.891 30.838 161.921C31.2087 162.189 31.6057 162.418 32.0229 162.603C32.3273 162.765 32.674 162.824 33.0132 162.771ZM33.2486 162.223C33.274 162.258 33.2754 162.306 33.2514 162.343C33.1937 162.467 33.0861 162.559 32.9559 162.597C32.4612 162.728 31.5958 162.224 31.1406 161.927C31.958 161.905 33.0832 161.963 33.2486 162.223Z" fill="white"/>
<path d="M30.8877 161.963C31.474 161.958 32.8605 161.557 32.9817 161.091C33.0103 160.994 32.9892 160.856 32.7754 160.731C31.903 160.246 30.8403 161.752 30.8121 161.823C30.7914 161.848 30.7876 161.883 30.8017 161.912C30.8168 161.924 30.8346 161.932 30.8539 161.934L30.8877 161.963ZM32.6895 160.856C32.8525 160.944 32.8276 161.006 32.8187 161.028C32.758 161.318 31.7165 161.697 31.0545 161.764C31.3242 161.421 32.051 160.586 32.6303 160.826L32.6895 160.856Z" fill="white"/>
<path d="M29.5458 162.324C29.536 162.317 29.5266 162.308 29.5191 162.297C29.482 162.244 29.4937 162.171 29.5458 162.133C29.9823 161.816 30.5541 161.707 31.0732 161.843C31.1343 161.858 31.1723 161.923 31.1559 161.986C31.1399 162.048 31.0774 162.086 31.0154 162.07C30.5611 161.951 30.0612 162.046 29.6797 162.323C29.6389 162.353 29.5844 162.352 29.5458 162.324Z" fill="white"/>
<path d="M30.121 163.301C30.1112 163.293 30.1018 163.284 30.0943 163.273C30.0571 163.221 30.0689 163.148 30.121 163.11C30.5575 162.793 31.1283 162.684 31.6489 162.82C31.71 162.835 31.748 162.9 31.7316 162.963C31.7156 163.025 31.6531 163.063 31.5911 163.047C31.1368 162.928 30.6369 163.023 30.2549 163.301C30.2141 163.33 30.16 163.329 30.121 163.301Z" fill="white"/>
<path d="M30.9389 164.26C30.929 164.253 30.9197 164.244 30.9121 164.233C30.875 164.181 30.8868 164.108 30.9389 164.07C31.3749 163.752 31.9457 163.644 32.4663 163.779C32.5269 163.794 32.5654 163.859 32.549 163.922C32.533 163.985 32.47 164.022 32.4085 164.006C31.9537 163.888 31.4543 163.982 31.0728 164.26C31.0319 164.291 30.9779 164.289 30.9389 164.26Z" fill="white"/>
<path d="M39.0088 12.8556C39.2813 12.6556 39.644 12.6083 40.0034 12.6193C40.0607 11.965 40.5446 11.4945 41.1319 11.3761C41.7192 11.2578 42.3872 11.452 42.9834 11.7956C43.9992 11.0864 45.6834 11.5083 46.6325 12.71C47.4532 12.1082 48.8063 12.3573 49.6628 13.2679C50.5197 14.1785 50.779 15.6441 50.2439 16.5494C51.0013 16.893 51.6553 17.6365 51.9301 18.466C52.1326 19.0773 52.0344 19.8581 51.4908 19.934C52.0109 20.3353 52.1425 21.1213 51.9808 21.6873C51.7276 22.575 50.8707 23.1143 49.9494 22.9659C50.0475 23.97 49.6651 24.913 48.9585 25.4084C48.5437 25.699 47.8653 25.7806 47.4824 25.2848C47.7779 26.3767 47.1638 27.4696 46.1937 27.5769C46.0391 27.5941 45.8469 27.5722 45.7389 27.4223C45.4796 28.4956 44.1758 28.9266 43.1629 28.2737C42.9233 29.2129 42.0133 29.7808 41.0501 29.5919C40.0875 29.4029 39.1577 28.4737 38.8923 27.4347C38.2266 27.6872 37.38 27.2448 36.7344 26.6793C36.3017 26.3003 35.8968 25.8355 35.7121 25.291C35.5275 24.7469 35.6224 24.1184 36.0358 23.8884C35.1963 23.6693 34.4821 22.7253 34.3694 21.8171C34.2566 20.909 34.6823 20.0929 35.3475 19.6877C34.8232 19.1131 34.5658 18.2789 34.7034 17.5984C34.8411 16.9178 35.3673 16.4201 36.0217 16.3523C35.5575 15.5959 35.9015 14.7106 36.4004 14.1866C36.6832 13.8893 37.0215 13.6387 37.4302 13.5518C37.8272 13.4679 38.2064 13.5824 38.6048 13.79C38.7217 13.4435 38.6903 13.0899 39.0088 12.8556Z" fill="#263238"/>
<path d="M45.721 13.572C45.6994 13.5672 44.2463 17.2019 44.6541 19.7341C44.6541 19.7341 43.8469 18.9003 44.0809 15.9878C44.2589 13.7724 45.0581 13.5171 45.0581 13.5171L45.721 13.572Z" fill="black"/>
<path d="M53.1035 38.017C47.8904 35.6761 47.5808 32.5559 47.5808 32.5559C48.9188 30.3444 48.4025 27.2929 47.9985 24.7803L53.0908 29.5813C52.605 31.3504 52.4523 32.3283 53.5648 32.8294C53.5775 32.8294 55.3816 34.075 53.1035 38.017Z" fill="#FDAC6D"/>
<path opacity="0.1" d="M52.7565 31.3399C52.8039 30.7428 52.9205 30.153 53.1037 29.5836L48.5225 25.2632L48.2322 25.635C48.2322 25.635 48.9576 29.7884 52.7565 31.3399Z" fill="black"/>
<path d="M46.5423 17.4574C46.8172 22.6292 46.8261 24.8178 49.3448 27.6202C53.1333 31.8351 59.2423 30.6979 60.4737 25.6291C61.582 21.0667 60.9464 13.376 56.0452 11.0204C51.2165 8.70003 46.2675 12.286 46.5423 17.4574Z" fill="#FDAC6D"/>
<path d="M52.7342 19.8543C52.7032 20.3368 52.9461 20.7668 53.2769 20.8145C53.6076 20.8622 53.9003 20.51 53.9313 20.0275C53.9623 19.545 53.7194 19.115 53.3887 19.0668C53.0584 19.0191 52.7652 19.3718 52.7342 19.8543Z" fill="#263238"/>
<path d="M52.0299 17.4896C52.0943 17.4986 52.1605 17.4814 52.2122 17.4356C53.0142 16.7222 53.8875 17.0052 53.8974 17.0085C54.0266 17.051 54.161 16.9794 54.1943 16.8453C54.2277 16.7112 54.1483 16.5666 54.0177 16.5227C53.9721 16.5079 52.876 16.1514 51.881 17.0371C51.7818 17.1254 51.7757 17.2863 51.8669 17.397C51.911 17.4495 51.9698 17.481 52.0299 17.4896Z" fill="#263238"/>
<path d="M59.6692 17.046C59.7293 17.0307 59.7819 16.994 59.8143 16.9376C59.8811 16.8222 59.835 16.6699 59.7124 16.5979C58.4805 15.8763 57.446 16.3444 57.4023 16.365C57.2792 16.4222 57.2336 16.5687 57.3004 16.6923C57.3666 16.8155 57.5202 16.8689 57.6433 16.8121C57.6837 16.793 58.4918 16.4423 59.4709 17.0159C59.5343 17.0536 59.6057 17.0622 59.6692 17.046Z" fill="#263238"/>
<path d="M56.7037 19.2593C56.7037 19.2593 57.4263 21.2188 58.2776 22.4554C58.4265 22.6715 58.318 22.9746 58.0714 23.0562C57.4362 23.2667 56.7108 23.0266 56.7108 23.0266L56.7037 19.2593Z" fill="#FE7F3A"/>
<path d="M53.2672 19.0438L54.4573 18.9087C54.4573 18.9087 53.5576 19.6928 53.2672 19.0438Z" fill="#263238"/>
<path d="M57.6473 19.7884C57.6163 20.2708 57.8592 20.7008 58.19 20.7486C58.5207 20.7963 58.8134 20.4441 58.8444 19.9616C58.8754 19.4791 58.6325 19.0491 58.3018 19.0009C57.9715 18.9532 57.6783 19.3054 57.6473 19.7884Z" fill="#263238"/>
<path d="M58.2521 19.0022L59.4421 18.8672C59.4421 18.8672 58.5424 19.6518 58.2521 19.0022Z" fill="#263238"/>
<path d="M48.1942 26.2212C41.6643 21.8216 44.0049 9.75791 52.8943 9.78177C61.7836 9.80564 60.921 20.586 60.921 20.586C60.2177 10.4781 51.2612 13.3086 51.2612 13.3086C52.6298 17.4262 48.9741 19.7394 48.9741 19.7394C47.5266 22.3537 48.1942 26.2212 48.1942 26.2212Z" fill="#263238"/>
<path d="M44.8521 21.6005C45.4126 22.6805 46.3616 23.381 47.2463 23.6426C48.5768 24.0358 49.3511 21.8687 48.9428 20.4847C48.5754 19.2386 47.2857 18.3739 45.9689 18.5924C44.6717 18.8077 44.2113 20.3658 44.8521 21.6005Z" fill="#FDAC6D"/>
<path opacity="0.2" d="M46.8432 19.9446C46.4264 19.7451 45.9604 20 45.7931 20.3493C45.5911 20.7722 45.7537 21.802 47.0442 22.2177" stroke="black" stroke-width="0.5" stroke-miterlimit="10" stroke-linecap="round" stroke-linejoin="round"/>
<path d="M56.5874 24.6102C56.158 25.1486 55.598 26.2204 55.598 26.2204C55.4932 26.1866 55.3884 26.1522 55.2856 26.1131C53.8761 25.6148 53.3842 24.9109 53.2668 24.2814C53.2038 23.9368 53.2569 23.6118 53.3325 23.3584C53.4176 23.0644 53.544 22.8745 53.544 22.8745C54.1359 23.5918 55.4143 24.1588 56.1101 24.4332C56.3995 24.5506 56.5874 24.6102 56.5874 24.6102Z" fill="#263238"/>
<path d="M56.1091 24.4332L55.8051 24.8999C54.4789 24.4274 53.6073 23.9139 53.332 23.3584C53.4171 23.0645 53.5434 22.8745 53.5434 22.8745C54.1354 23.5923 55.4138 24.1592 56.1091 24.4332Z" fill="white"/>
<path d="M55.286 26.1129C53.8766 25.6147 53.3847 24.9107 53.2672 24.2812C53.7408 24.4698 54.2914 24.7504 54.7241 25.1493C55.0563 25.4529 55.2127 25.796 55.286 26.1129Z" fill="#D7504D"/>
<path d="M59.1996 94.64L47.6319 124.975L32.4888 158.248L26.1581 155.292C26.1581 155.292 30.0148 137.8 35.676 126.264C35.8649 125.874 37.8269 123.103 38.0162 122.752C38.945 121.043 39.5783 119.213 39.8931 117.327C39.942 117.014 39.9969 116.686 40.0575 116.341C41.0751 110.241 43.2692 99.0067 46.3347 93.7266L59.1996 94.64Z" fill="#263238"/>
<path d="M50.582 90.5947L59.0673 117.446L67.9684 159.379L61.8256 160.678C61.8256 160.678 53.1194 144.431 50.4438 132.4C50.1859 131.298 49.5658 126.164 49.4662 125.041C49.4103 124.203 49.1871 123.382 48.8079 122.618L47.3821 119.738C43.896 112.659 37.1317 98.5446 36.2235 93.9659L50.582 90.5947Z" fill="#263238"/>
<path opacity="0.3" d="M41.6659 107.743L48.6018 122.201L47.7679 124.388L41.1449 110.207L41.6659 107.743Z" fill="black"/>
<path opacity="0.3" d="M55.2125 104.866L50.582 88.4602L52.6328 86.0435L51.532 88.6702L55.648 103.953L55.2125 104.866Z" fill="black"/>
<path d="M59.9008 34.6494C59.9008 34.6494 63.5211 36.8886 64.3739 40.0823C65.2266 43.2765 65.188 53.1558 65.9684 54.9784C66.7488 56.8009 74.2465 73.175 74.2465 73.175L69.7194 76.4513C69.7194 76.4513 61.2078 61.7599 60.4857 57.3541C59.7636 52.9482 60.0652 35.0952 60.0652 35.0952" fill="#407BFF"/>
<path d="M59.9008 34.6494C59.9008 34.6494 63.5211 36.8886 64.3739 40.0823C65.2266 43.2765 65.188 53.1558 65.9684 54.9784C66.7488 56.8009 74.2465 73.175 74.2465 73.175L69.7194 76.4513C69.7194 76.4513 61.2078 61.7599 60.4857 57.3541C59.7636 52.9482 60.0652 35.0952 60.0652 35.0952" fill="#AD70F8"/>
<path d="M59.5714 58.4331C59.5714 58.4331 65.9152 42.1211 60.0651 35.0952C60.0651 35.089 51.7527 30.0746 38.0835 34.5812L41.7889 57.6653C41.7889 57.6653 36.0543 62.8142 34.3466 74.1496C44.6294 78.8661 53.7475 81.1669 60.4861 78.5335C60.4861 78.5335 59.0381 69.6187 59.5714 58.4331Z" fill="#FDCDC8"/>
<path opacity="0.3" d="M40.8294 82.8402C49.8428 57.4592 48.7486 48.5105 48.7486 48.5105L39.9852 46.4307L41.8132 57.6725C41.8132 57.6725 34.8891 63.6771 33.2631 84.4218C37.0441 86.0439 39.7507 85.8611 40.8294 82.8402Z" fill="black"/>
<path opacity="0.3" d="M57.1191 64.1371C57.1191 64.1371 55.9005 78.5545 61.3851 84.4417C61.4626 77.3609 61.1102 70.282 60.3308 63.2456H59.2826L57.1191 64.1371Z" fill="black"/>
<path d="M62.5433 73.1741C61.4942 69.6177 60.065 58.488 60.065 58.488C60.065 58.488 63.5632 48.8927 62.9478 42.7458C62.3323 36.5985 59.9006 34.6485 59.9006 34.6485C57.9546 33.9231 55.9668 33.3872 53.9452 33.0063C53.9452 33.0063 55.2334 33.6611 55.7812 35.5028C57.5877 43.4121 58.0697 51.5738 57.2071 59.6458C56.0857 70.5102 59.1207 78.2171 61.0586 81.8384C61.5449 82.7604 62.6753 83.1079 63.583 82.6139C63.8089 82.4908 64.0077 82.3218 64.1665 82.1171L64.3737 81.8508C64.3737 81.8508 63.8963 77.7189 62.5433 73.1741Z" fill="#407BFF"/>
<path d="M62.5433 73.1741C61.4942 69.6177 60.065 58.488 60.065 58.488C60.065 58.488 63.5632 48.8927 62.9478 42.7458C62.3323 36.5985 59.9006 34.6485 59.9006 34.6485C57.9546 33.9231 55.9668 33.3872 53.9452 33.0063C53.9452 33.0063 55.2334 33.6611 55.7812 35.5028C57.5877 43.4121 58.0697 51.5738 57.2071 59.6458C56.0857 70.5102 59.1207 78.2171 61.0586 81.8384C61.5449 82.7604 62.6753 83.1079 63.583 82.6139C63.8089 82.4908 64.0077 82.3218 64.1665 82.1171L64.3737 81.8508C64.3737 81.8508 63.8963 77.7189 62.5433 73.1741Z" fill="#AD70F8"/>
<path d="M46.1648 35.8195C45.8599 34.4202 46.1925 33.1727 46.869 32.7021C43.8218 32.8897 40.8282 33.4128 37.8951 34.3214L41.375 57.4861C34.0619 64.7597 26.8573 85.1245 26.8573 85.1245L33.2637 86.7046C36.1211 87.3785 39.0259 83.5023 40.0403 80.7062C42.8864 72.7764 48.1638 57.3931 48.706 51.0725C49.1876 45.4144 46.9691 39.4966 46.1648 35.8195Z" fill="#407BFF"/>
<path d="M46.1648 35.8195C45.8599 34.4202 46.1925 33.1727 46.869 32.7021C43.8218 32.8897 40.8282 33.4128 37.8951 34.3214L41.375 57.4861C34.0619 64.7597 26.8573 85.1245 26.8573 85.1245L33.2637 86.7046C36.1211 87.3785 39.0259 83.5023 40.0403 80.7062C42.8864 72.7764 48.1638 57.3931 48.706 51.0725C49.1876 45.4144 46.9691 39.4966 46.1648 35.8195Z" fill="#AD70F8"/>
<path d="M37.8947 34.3203C37.8947 34.3203 35.0067 34.9784 33.282 43.385C31.5574 51.7916 31.5381 54.6559 30.3011 57.4974C28.5764 61.5029 22.9452 70.2998 22.9452 70.2998L27.1035 73.0492C27.1035 73.0492 34.3358 64.1134 35.9445 60.6033C37.5531 57.0932 39.212 50.2673 40.2602 46.4288C40.4913 45.5808 40.3565 43.4256 40.4256 41.7686C40.5393 39.0602 39.8872 36.0374 37.8947 34.3203Z" fill="#407BFF"/>
<path d="M37.8947 34.3203C37.8947 34.3203 35.0067 34.9784 33.282 43.385C31.5574 51.7916 31.5381 54.6559 30.3011 57.4974C28.5764 61.5029 22.9452 70.2998 22.9452 70.2998L27.1035 73.0492C27.1035 73.0492 34.3358 64.1134 35.9445 60.6033C37.5531 57.0932 39.212 50.2673 40.2602 46.4288C40.4913 45.5808 40.3565 43.4256 40.4256 41.7686C40.5393 39.0602 39.8872 36.0374 37.8947 34.3203Z" fill="#AD70F8"/>
<path d="M60.4857 57.3552C60.4857 57.3552 63.8853 49.7323 62.8207 41.7075C62.8207 41.7075 64.1019 48.8465 63.0274 53.1508C61.9529 57.455 60.8634 58.7912 60.8634 58.7912L60.4857 57.3552Z" fill="#AD70F8"/>
<path d="M152.507 52.5291L161.077 51.4128C161.077 51.4128 159.182 32.3022 155.279 31.1535C147.257 28.8069 152.507 52.5291 152.507 52.5291Z" fill="#EDC757"/>
<path d="M123.638 76.8937C136.082 80.7006 146.661 81.929 155.676 77.5279C155.676 73.0715 151.66 67.7527 152.082 62.5546C153.24 48.2617 155.676 31.3155 155.676 31.3155C138.939 22.4255 128.144 27.5372 128.144 27.5372C123.858 41.5074 123.638 76.8937 123.638 76.8937Z" fill="#407BFF"/>
<path d="M123.638 76.8937C136.082 80.7006 146.661 81.929 155.676 77.5279C155.676 73.0715 151.66 67.7527 152.082 62.5546C153.24 48.2617 155.676 31.3155 155.676 31.3155C138.939 22.4255 128.144 27.5372 128.144 27.5372C123.858 41.5074 123.638 76.8937 123.638 76.8937Z" fill="#EDC757"/>
<path d="M128.687 45.5566L120.021 41.9048C120.021 41.9048 125.808 26.1712 129.375 27.3633C135.207 29.32 128.687 45.5566 128.687 45.5566Z" fill="#EDC757"/>
<path opacity="0.2" d="M153.191 51.0909C153.191 51.0909 153.204 50.9807 153.228 50.7812C153.461 48.8436 154.707 38.4756 154.707 38.4756L154.721 52.2401L153.076 52.4544" fill="black"/>
<path d="M138.271 25.9644C141.359 24.4749 140.068 22.7979 140.213 19.1485L145.457 16.998C145.234 17.3927 146.36 24.8004 146.428 25.6685C146.94 27.1651 147.029 28.1941 148.04 28.9925C144.484 30.3345 140.484 29.0941 138.271 25.9644Z" fill="#FFBBB5"/>
<path opacity="0.2" d="M140.31 21.447C140.48 22.4578 140.397 23.4962 140.067 24.4655C141.611 23.5678 143.67 22.7985 144.923 19.3657L140.31 21.447Z" fill="black"/>
<path d="M145.823 8.93545C146.519 13.8663 147.01 16.6333 145.088 19.6194C142.197 24.1107 135.967 23.151 133.828 18.517C131.904 14.3459 131.088 6.98306 135.405 4.10388C139.657 1.26669 145.127 4.00414 145.823 8.93545Z" fill="#FFBBB5"/>
<path d="M139.248 11.7823C139.35 12.2805 139.171 12.7363 138.849 12.8007C138.527 12.8651 138.184 12.5129 138.083 12.0147C137.981 11.5165 138.16 11.0607 138.482 10.9963C138.804 10.9323 139.147 11.2841 139.248 11.7823Z" fill="#263238"/>
<path d="M134.458 12.8897C134.559 13.3879 134.38 13.8437 134.059 13.9081C133.737 13.9726 133.394 13.6204 133.292 13.1221C133.191 12.6239 133.369 12.1676 133.691 12.1037C134.013 12.0397 134.356 12.3915 134.458 12.8897Z" fill="#263238"/>
<path d="M135.966 12.2842C135.966 12.2842 134.916 15.086 134.624 16.1985C135.435 16.6815 136.552 16.146 136.552 16.146L135.966 12.2842Z" fill="#E97A75"/>
<path d="M139.968 9.18072C139.901 9.22701 139.811 9.23608 139.731 9.19647C138.79 8.72448 138.038 9.15686 138.031 9.16115C137.919 9.22701 137.774 9.18931 137.709 9.07668C137.642 8.96405 137.68 8.81849 137.791 8.75216C137.831 8.72877 138.772 8.18615 139.94 8.7722C140.057 8.8309 140.105 8.97312 140.047 9.09004C140.029 9.12822 140.001 9.15877 139.968 9.18072Z" fill="#263238"/>
<path d="M131.906 11.2325C131.862 11.232 131.817 11.2187 131.777 11.1915C131.67 11.1175 131.64 10.9695 131.712 10.8607C132.43 9.76881 133.508 9.78503 133.556 9.77979C133.685 9.78265 133.79 9.89098 133.788 10.0227C133.787 10.1539 133.683 10.258 133.554 10.2565C133.509 10.2542 132.679 10.2523 132.102 11.1285C132.057 11.1967 131.982 11.2335 131.906 11.2325Z" fill="#263238"/>
<path d="M138.401 17.6868C139.296 17.4381 140.02 16.6402 140.191 15.7139" stroke="#263238" stroke-width="0.5" stroke-miterlimit="10" stroke-linecap="round" stroke-linejoin="round"/>
<path d="M147.045 4.08369C148.009 5.52638 148.208 8.81932 147.615 12.862C146.968 17.2354 145.426 19.0528 145.426 19.0528C146.518 16.9854 146.089 13.0372 145.427 12.9288C144.765 12.82 144.797 13.5998 144.797 13.5998C143.328 12.6315 142.036 9.98999 142.535 8.07817C142.754 7.27021 142.322 6.42788 141.544 6.14774L141.586 3.98633L147.045 4.08369Z" fill="#263238"/>
<path d="M148.541 12.5981C148.413 13.9325 147.687 15.0769 146.834 15.7565C145.55 16.7787 144.272 15.7631 144.095 14.2007C143.936 12.7942 144.413 10.5679 145.957 10.157C147.48 9.75183 148.688 11.0728 148.541 12.5981Z" fill="#FFBBB5"/>
<path opacity="0.2" d="M147.173 11.4822C146.92 11.2322 146.504 11.2078 146.186 11.362C145.868 11.5161 145.64 11.8182 145.492 12.1432C145.316 12.5341 145.242 12.9717 145.281 13.3998" stroke="black" stroke-width="0.5" stroke-miterlimit="10" stroke-linecap="round" stroke-linejoin="round"/>
<path d="M148.207 5.10319C147.962 3.36843 146.58 2.02929 144.863 1.86178C143.508 0.342732 138.798 -0.68381 134.45 1.66421C130.102 4.01222 130.573 7.64926 131.073 8.03774C132.11 8.83186 133.915 5.65775 133.915 5.65775C133.915 5.65775 132.855 7.66119 134.255 7.73278C135.656 7.80437 138.528 5.73172 138.528 5.73172C138.528 5.73172 137.8 6.70528 138.641 7.23025C139.481 7.75521 141.544 6.14787 141.544 6.14787C141.544 6.14787 148.81 9.03707 148.207 5.10319Z" fill="#263238"/>
<path d="M138.271 25.9644C141.359 24.4749 140.068 22.7979 140.213 19.1485L145.457 16.998C145.234 17.3927 146.36 24.8004 146.428 25.6685C146.94 27.1651 147.029 28.1941 148.04 28.9925C144.484 30.3345 140.484 29.0941 138.271 25.9644Z" fill="#FFBBB5"/>
<path opacity="0.2" d="M140.31 21.447C140.48 22.4578 140.397 23.4962 140.067 24.4655C141.611 23.5678 143.67 22.7985 144.923 19.3657L140.31 21.447Z" fill="black"/>
<path d="M145.823 8.93545C146.519 13.8663 147.01 16.6333 145.088 19.6194C142.197 24.1107 135.967 23.151 133.828 18.517C131.904 14.3459 131.088 6.98306 135.405 4.10388C139.657 1.26669 145.127 4.00414 145.823 8.93545Z" fill="#FFBBB5"/>
<path d="M139.248 11.7823C139.35 12.2805 139.171 12.7363 138.849 12.8007C138.527 12.8651 138.184 12.5129 138.083 12.0147C137.981 11.5165 138.16 11.0607 138.482 10.9963C138.804 10.9323 139.147 11.2841 139.248 11.7823Z" fill="#263238"/>
<path d="M134.458 12.8897C134.559 13.3879 134.38 13.8437 134.059 13.9081C133.737 13.9726 133.394 13.6204 133.292 13.1221C133.191 12.6239 133.369 12.1676 133.691 12.1037C134.013 12.0397 134.356 12.3915 134.458 12.8897Z" fill="#263238"/>
<path d="M135.966 12.2842C135.966 12.2842 134.916 15.086 134.624 16.1985C135.435 16.6815 136.552 16.146 136.552 16.146L135.966 12.2842Z" fill="#E97A75"/>
<path d="M139.968 9.18072C139.901 9.22701 139.811 9.23608 139.731 9.19647C138.79 8.72448 138.038 9.15686 138.031 9.16115C137.919 9.22701 137.774 9.18931 137.709 9.07668C137.642 8.96405 137.68 8.81849 137.791 8.75216C137.831 8.72877 138.772 8.18615 139.94 8.7722C140.057 8.8309 140.105 8.97312 140.047 9.09004C140.029 9.12822 140.001 9.15877 139.968 9.18072Z" fill="#263238"/>
<path d="M131.906 11.2325C131.862 11.232 131.817 11.2187 131.777 11.1915C131.67 11.1175 131.64 10.9695 131.712 10.8607C132.43 9.76881 133.508 9.78503 133.556 9.77979C133.685 9.78265 133.79 9.89098 133.788 10.0227C133.787 10.1539 133.683 10.258 133.554 10.2565C133.509 10.2542 132.679 10.2523 132.102 11.1285C132.057 11.1967 131.982 11.2335 131.906 11.2325Z" fill="#263238"/>
<path d="M138.401 17.6868C139.296 17.4381 140.02 16.6402 140.191 15.7139" stroke="#263238" stroke-width="0.5" stroke-miterlimit="10" stroke-linecap="round" stroke-linejoin="round"/>
<path d="M147.045 4.08369C148.009 5.52638 148.208 8.81932 147.615 12.862C146.968 17.2354 145.426 19.0528 145.426 19.0528C146.518 16.9854 146.089 13.0372 145.427 12.9288C144.765 12.82 144.797 13.5998 144.797 13.5998C143.328 12.6315 142.036 9.98999 142.535 8.07817C142.754 7.27021 142.322 6.42788 141.544 6.14774L141.586 3.98633L147.045 4.08369Z" fill="#263238"/>
<path d="M148.541 12.5981C148.413 13.9325 147.687 15.0769 146.834 15.7565C145.55 16.7787 144.272 15.7631 144.095 14.2007C143.936 12.7942 144.413 10.5679 145.957 10.157C147.48 9.75183 148.688 11.0728 148.541 12.5981Z" fill="#FFBBB5"/>
<path opacity="0.2" d="M147.173 11.4822C146.92 11.2322 146.504 11.2078 146.186 11.362C145.868 11.5161 145.64 11.8182 145.492 12.1432C145.316 12.5341 145.242 12.9717 145.281 13.3998" stroke="black" stroke-width="0.5" stroke-miterlimit="10" stroke-linecap="round" stroke-linejoin="round"/>
<path d="M148.207 5.10319C147.962 3.36843 146.58 2.02929 144.863 1.86178C143.508 0.342732 138.798 -0.68381 134.45 1.66421C130.102 4.01222 130.573 7.64926 131.073 8.03774C132.11 8.83186 133.915 5.65775 133.915 5.65775C133.915 5.65775 132.855 7.66119 134.255 7.73278C135.656 7.80437 138.528 5.73172 138.528 5.73172C138.528 5.73172 137.8 6.70528 138.641 7.23025C139.481 7.75521 141.544 6.14787 141.544 6.14787C141.544 6.14787 148.81 9.03707 148.207 5.10319Z" fill="#263238"/>
</svg>
