<svg width="24" height="25" viewBox="0 0 24 25" fill="none" xmlns="http://www.w3.org/2000/svg">
<path d="M12 23.4097C6.07 23.4097 1.25 18.5897 1.25 12.6597C1.25 6.72967 6.07 1.90967 12 1.90967C17.93 1.90967 22.75 6.72967 22.75 12.6597C22.75 18.5897 17.93 23.4097 12 23.4097ZM12 3.40967C6.9 3.40967 2.75 7.55967 2.75 12.6597C2.75 17.7597 6.9 21.9097 12 21.9097C17.1 21.9097 21.25 17.7597 21.25 12.6597C21.25 7.55967 17.1 3.40967 12 3.40967Z" fill="#5C81F5"/>
<path d="M15.7096 16.5897C15.5796 16.5897 15.4496 16.5597 15.3296 16.4797L12.2296 14.6297C11.4596 14.1697 10.8896 13.1597 10.8896 12.2697V8.16968C10.8896 7.75968 11.2296 7.41968 11.6396 7.41968C12.0496 7.41968 12.3896 7.75968 12.3896 8.16968V12.2697C12.3896 12.6297 12.6896 13.1597 12.9996 13.3397L16.0996 15.1897C16.4596 15.3997 16.5696 15.8597 16.3596 16.2197C16.2096 16.4597 15.9596 16.5897 15.7096 16.5897Z" fill="#5C81F5"/>
</svg>
