<svg width="20" height="20" viewBox="0 0 20 20" fill="none" xmlns="http://www.w3.org/2000/svg">
<path d="M15.8327 16.4587H8.24935C4.64102 16.4587 3.54102 15.3587 3.54102 11.7503V4.16699C3.54102 3.82533 3.82435 3.54199 4.16602 3.54199H11.7493C15.3577 3.54199 16.4577 4.64199 16.4577 8.25033V15.8337C16.4577 16.1753 16.1743 16.4587 15.8327 16.4587ZM4.79102 4.79199V11.7503C4.79102 14.6587 5.34102 15.2087 8.24935 15.2087H15.2077V8.25033C15.2077 5.34199 14.6577 4.79199 11.7493 4.79199H4.79102Z" fill="#0C0C0C"/>
<path d="M4.16602 4.79199C3.82435 4.79199 3.54102 4.50866 3.54102 4.16699V1.66699C3.54102 1.32533 3.82435 1.04199 4.16602 1.04199C4.50768 1.04199 4.79102 1.32533 4.79102 1.66699V4.16699C4.79102 4.50866 4.50768 4.79199 4.16602 4.79199Z" fill="#0C0C0C"/>
<path d="M4.16602 4.79199H1.66602C1.32435 4.79199 1.04102 4.50866 1.04102 4.16699C1.04102 3.82533 1.32435 3.54199 1.66602 3.54199H4.16602C4.50768 3.54199 4.79102 3.82533 4.79102 4.16699C4.79102 4.50866 4.50768 4.79199 4.16602 4.79199Z" fill="#0C0C0C"/>
<path d="M15.834 18.958C15.4923 18.958 15.209 18.6747 15.209 18.333V15.833C15.209 15.4913 15.4923 15.208 15.834 15.208C16.1757 15.208 16.459 15.4913 16.459 15.833V18.333C16.459 18.6747 16.1757 18.958 15.834 18.958Z" fill="#0C0C0C"/>
<path d="M18.334 16.458H15.834C15.4923 16.458 15.209 16.1747 15.209 15.833C15.209 15.4913 15.4923 15.208 15.834 15.208H18.334C18.6757 15.208 18.959 15.4913 18.959 15.833C18.959 16.1747 18.6757 16.458 18.334 16.458Z" fill="#0C0C0C"/>
</svg>
