<svg width="16" height="16" viewBox="0 0 16 16" fill="none" xmlns="http://www.w3.org/2000/svg">
<path d="M11.1336 13.1532H4.86695C4.37362 13.1532 3.87362 12.7998 3.70695 12.3398L0.946949 4.61316C0.606949 3.63982 0.853616 3.19316 1.12028 2.99316C1.38695 2.79316 1.88695 2.67316 2.72695 3.27316L5.32695 5.13316C5.40695 5.17982 5.48028 5.19982 5.53362 5.18649C5.59362 5.16649 5.64028 5.11316 5.67362 5.01982L6.84695 1.89316C7.20028 0.959824 7.72028 0.819824 8.00028 0.819824C8.28028 0.819824 8.80028 0.959824 9.15361 1.89316L10.3269 5.01982C10.3603 5.10649 10.4069 5.16649 10.4669 5.18649C10.5269 5.20649 10.6003 5.18649 10.6736 5.12649L13.1136 3.38649C14.0069 2.74649 14.5269 2.87316 14.8136 3.07982C15.0936 3.29316 15.3536 3.76649 14.9869 4.79982L12.2936 12.3398C12.1269 12.7998 11.6269 13.1532 11.1336 13.1532ZM1.78695 3.87316C1.80028 3.96649 1.82695 4.09982 1.89362 4.27316L4.65362 11.9998C4.68028 12.0665 4.80028 12.1532 4.86695 12.1532H11.1336C11.2069 12.1532 11.3269 12.0665 11.3469 11.9998L14.0403 4.46649C14.1336 4.21316 14.1603 4.03982 14.1669 3.93982C14.0669 3.97316 13.9136 4.04649 13.6936 4.20649L11.2536 5.94649C10.9203 6.17982 10.5269 6.25316 10.1736 6.14649C9.82028 6.03982 9.53362 5.75982 9.38695 5.37982L8.21361 2.25316C8.12695 2.01982 8.04695 1.90649 8.00028 1.85316C7.95362 1.90649 7.87362 2.01982 7.78695 2.24649L6.61362 5.37316C6.47362 5.75316 6.18695 6.03316 5.82695 6.13982C5.47362 6.24649 5.07362 6.17316 4.74695 5.93982L2.14695 4.07982C1.99362 3.97316 1.87362 3.90649 1.78695 3.87316Z" fill="#0C0C0C"/>
<path d="M11.6663 15.1665H4.33301C4.05967 15.1665 3.83301 14.9398 3.83301 14.6665C3.83301 14.3932 4.05967 14.1665 4.33301 14.1665H11.6663C11.9397 14.1665 12.1663 14.3932 12.1663 14.6665C12.1663 14.9398 11.9397 15.1665 11.6663 15.1665Z" fill="#0C0C0C"/>
<path d="M9.66634 9.8335H6.33301C6.05967 9.8335 5.83301 9.60683 5.83301 9.3335C5.83301 9.06016 6.05967 8.8335 6.33301 8.8335H9.66634C9.93967 8.8335 10.1663 9.06016 10.1663 9.3335C10.1663 9.60683 9.93967 9.8335 9.66634 9.8335Z" fill="#0C0C0C"/>
</svg>
