<svg width="62" height="12" viewBox="0 0 62 12" fill="none" xmlns="http://www.w3.org/2000/svg">
<path fill-rule="evenodd" clip-rule="evenodd" d="M57.6611 0.26604C59.9448 0.26604 61.2007 1.42654 61.2007 3.6186C61.3149 5.29488 60.2873 6.71327 58.9171 6.97116L62 11.7421H59.6022L56.9761 7.1001H56.7477V11.7421H54.8066V0.26604H57.6611ZM56.7477 5.55286H57.3186C58.5746 5.55286 59.1455 4.90813 59.1455 3.74763C59.1455 2.71607 58.5746 2.07135 57.3186 2.07135H56.7477V5.55286ZM48.07 11.7421H53.5507V9.80794H50.0111V6.71327H53.4365V4.7791H50.0111V2.20021H53.5507V0.26604H48.07V11.7421ZM42.3608 8.00272L39.7347 0.26604H37.6794L41.9041 12H42.9317L47.1564 0.26604H45.1012L42.3608 8.00272ZM19.1824 6.06848C19.1824 9.2921 21.466 11.9999 24.3205 11.9999C25.2339 11.9999 26.0332 11.742 26.8325 11.3552V8.77632C26.2616 9.54999 25.4623 10.0658 24.5488 10.0658C22.722 10.0658 21.2376 8.51843 21.2376 6.45532V6.19743C21.1234 4.13431 22.6078 2.32909 24.4347 2.20014C25.3481 2.20014 26.2616 2.71592 26.8325 3.48959V0.910699C26.1474 0.39492 25.2339 0.265976 24.4347 0.265976C21.466 0.00808648 19.1824 2.71592 19.1824 6.06848ZM15.6427 4.65015C14.5009 4.13437 14.1584 3.87648 14.1584 3.23176C14.2726 2.45809 14.8435 1.81337 15.5285 1.94231C16.0994 1.94231 16.6703 2.32915 17.1271 2.84493L18.1547 1.29759C17.3554 0.523924 16.3278 0.00814502 15.3002 0.00814502C13.7017 -0.1208 12.3315 1.29759 12.2173 3.10282V3.23176C12.2173 4.7791 12.7882 5.68171 14.6151 6.32643C15.0718 6.45538 15.5285 6.71327 15.9853 6.97116C16.3278 7.22904 16.5562 7.61588 16.5562 8.13166C16.5562 9.03427 15.8711 9.80794 15.186 9.80794H15.0718C14.1584 9.80794 13.3591 9.16321 13.0166 8.2606L11.7606 9.67899C12.4457 11.0974 13.8158 11.8711 15.186 11.8711C17.0129 12 18.4972 10.4527 18.6114 8.38955V8.00271C18.4972 6.45538 17.9263 5.68171 15.6427 4.65015ZM9.02026 11.7421H10.9613V0.26604H9.02026V11.7421ZM0 0.26604H2.85451H3.42542C6.16575 0.394985 8.33518 2.97388 8.221 6.06855C8.221 7.74483 7.53591 9.29217 6.39411 10.4527C5.36648 11.3553 4.1105 11.8711 2.85451 11.7421H0V0.26604ZM2.51201 9.80789C3.42545 9.93683 4.45307 9.55 5.13816 8.90527C5.82324 8.13161 6.16578 7.10005 6.16578 5.93955C6.16578 4.90799 5.82324 3.87643 5.13816 3.10277C4.45307 2.45804 3.42545 2.07121 2.51201 2.20015H1.9411V9.80789H2.51201Z" fill="black"/>
<path fill-rule="evenodd" clip-rule="evenodd" d="M32.6557 0C29.8012 0 27.4034 2.57889 27.4034 5.93145C27.4034 9.15507 29.6871 11.8629 32.6557 11.9918C35.6244 12.1208 37.908 9.41296 38.0222 6.0604C37.908 2.70784 35.6244 0 32.6557 0V0Z" fill="#FD6020"/>
</svg>
