<svg width="33" height="33" viewBox="0 0 33 33" fill="none" xmlns="http://www.w3.org/2000/svg">
<path d="M27.3335 10.9663C28.021 10.9663 28.6668 11.0965 29.271 11.3569C29.8752 11.6174 30.4012 11.9767 30.8491 12.4351C31.297 12.8934 31.6564 13.4246 31.9272 14.0288C32.1981 14.633 32.3335 15.2788 32.3335 15.9663C32.3335 16.5601 32.2345 17.1278 32.0366 17.6694C31.8387 18.2111 31.5627 18.6955 31.2085 19.1226C30.8543 19.5496 30.4325 19.9194 29.9429 20.2319C29.4533 20.5444 28.9168 20.758 28.3335 20.8726V22.4663C28.3335 23.3934 28.2189 24.2944 27.9897 25.1694C27.7606 26.0444 27.4377 26.8778 27.021 27.6694C26.6043 28.4611 26.0939 29.1746 25.4897 29.8101C24.8856 30.4455 24.2137 31.0028 23.4741 31.4819C22.7345 31.9611 21.9272 32.3257 21.0522 32.5757C20.1772 32.8257 19.271 32.9559 18.3335 32.9663C17.3856 32.9663 16.4793 32.8361 15.6147 32.5757C14.7502 32.3153 13.9481 31.9507 13.2085 31.4819C12.4689 31.0132 11.797 30.4559 11.1929 29.8101C10.5887 29.1642 10.0783 28.4507 9.66162 27.6694C9.24496 26.8882 8.91683 26.0601 8.67725 25.1851C8.43766 24.3101 8.32308 23.4038 8.3335 22.4663V18.8882C7.05225 18.7736 5.91683 18.4663 4.92725 17.9663C3.93766 17.4663 3.09912 16.8101 2.41162 15.9976C1.72412 15.1851 1.2085 14.2424 0.864746 13.1694C0.520996 12.0965 0.343913 10.9351 0.333496 9.68506V0.966309H5.3335C5.60433 0.966309 5.8387 1.06527 6.03662 1.26318C6.23454 1.4611 6.3335 1.69548 6.3335 1.96631C6.3335 2.23714 6.23454 2.47152 6.03662 2.66943C5.8387 2.86735 5.60433 2.96631 5.3335 2.96631H2.3335V9.68506C2.3335 10.7892 2.48454 11.7892 2.78662 12.6851C3.0887 13.5809 3.54183 14.3465 4.146 14.9819C4.75016 15.6174 5.47933 16.1069 6.3335 16.4507C7.18766 16.7944 8.18766 16.9663 9.3335 16.9663C10.3856 16.9663 11.3439 16.8049 12.2085 16.4819C13.0731 16.159 13.8075 15.6955 14.4116 15.0913C15.0158 14.4871 15.4897 13.758 15.8335 12.9038C16.1772 12.0496 16.3439 11.0861 16.3335 10.0132V2.96631H13.3335C13.0627 2.96631 12.8283 2.86735 12.6304 2.66943C12.4325 2.47152 12.3335 2.23714 12.3335 1.96631C12.3335 1.69548 12.4325 1.4611 12.6304 1.26318C12.8283 1.06527 13.0627 0.966309 13.3335 0.966309H18.3335V9.68506C18.3335 10.9351 18.1564 12.0965 17.8022 13.1694C17.4481 14.2424 16.9325 15.1851 16.2554 15.9976C15.5783 16.8101 14.745 17.4663 13.7554 17.9663C12.7658 18.4663 11.6252 18.7736 10.3335 18.8882V22.4663C10.3335 23.5809 10.5314 24.6486 10.9272 25.6694C11.3231 26.6903 11.8804 27.5965 12.5991 28.3882C13.3179 29.1799 14.1616 29.8049 15.1304 30.2632C16.0991 30.7215 17.1668 30.9559 18.3335 30.9663C19.4897 30.9663 20.5522 30.7319 21.521 30.2632C22.4897 29.7944 23.3335 29.1694 24.0522 28.3882C24.771 27.6069 25.3283 26.7059 25.7241 25.6851C26.12 24.6642 26.3231 23.5913 26.3335 22.4663V20.8726C25.7502 20.7476 25.2137 20.534 24.7241 20.2319C24.2345 19.9299 23.8127 19.5653 23.4585 19.1382C23.1043 18.7111 22.8283 18.2215 22.6304 17.6694C22.4325 17.1174 22.3335 16.5496 22.3335 15.9663C22.3335 15.2788 22.4637 14.633 22.7241 14.0288C22.9845 13.4246 23.3387 12.8986 23.7866 12.4507C24.2345 12.0028 24.7658 11.6434 25.3804 11.3726C25.995 11.1017 26.646 10.9663 27.3335 10.9663ZM27.3335 18.9663C27.7502 18.9663 28.1408 18.8882 28.5054 18.7319C28.87 18.5757 29.1877 18.3621 29.4585 18.0913C29.7293 17.8205 29.9429 17.5028 30.0991 17.1382C30.2554 16.7736 30.3335 16.383 30.3335 15.9663C30.3335 15.5496 30.2554 15.159 30.0991 14.7944C29.9429 14.4299 29.7293 14.1121 29.4585 13.8413C29.1877 13.5705 28.87 13.3569 28.5054 13.2007C28.1408 13.0444 27.7502 12.9663 27.3335 12.9663C26.9168 12.9663 26.5262 13.0444 26.1616 13.2007C25.797 13.3569 25.4793 13.5705 25.2085 13.8413C24.9377 14.1121 24.7241 14.4299 24.5679 14.7944C24.4116 15.159 24.3335 15.5496 24.3335 15.9663C24.3335 16.383 24.4116 16.7736 24.5679 17.1382C24.7241 17.5028 24.9377 17.8205 25.2085 18.0913C25.4793 18.3621 25.797 18.5757 26.1616 18.7319C26.5262 18.8882 26.9168 18.9663 27.3335 18.9663Z" fill="#0C0C0C"/>
</svg>
