<svg width="20" height="21" viewBox="0 0 20 21" fill="none" xmlns="http://www.w3.org/2000/svg">
<path d="M10 8.79232C9.91667 8.79232 9.84167 8.77565 9.75833 8.74232C9.525 8.65065 9.375 8.41732 9.375 8.16732V2.33398C9.375 1.99232 9.65833 1.70898 10 1.70898C10.3417 1.70898 10.625 1.99232 10.625 2.33398V6.65898L11.225 6.05898C11.4667 5.81732 11.8667 5.81732 12.1083 6.05898C12.35 6.30065 12.35 6.70065 12.1083 6.94232L10.4417 8.60898C10.325 8.72565 10.1667 8.79232 10 8.79232Z" fill="#0C0C0C"/>
<path d="M9.99954 8.79154C9.84121 8.79154 9.68288 8.7332 9.55788 8.6082L7.89121 6.94154C7.64954 6.69987 7.64954 6.29987 7.89121 6.0582C8.13288 5.81654 8.53288 5.81654 8.77454 6.0582L10.4412 7.72487C10.6829 7.96654 10.6829 8.36654 10.4412 8.6082C10.3162 8.7332 10.1579 8.79154 9.99954 8.79154Z" fill="#0C0C0C"/>
<path d="M11.4671 15.4583H8.52539C7.65039 15.4583 6.86706 14.975 6.47539 14.1917L5.50039 12.2417C5.46706 12.1667 5.39206 12.125 5.31706 12.125H1.65039C1.30872 12.125 1.02539 11.8417 1.02539 11.5C1.02539 11.1583 1.30872 10.875 1.65039 10.875H5.32539C5.88372 10.875 6.38372 11.1833 6.63372 11.6833L7.60872 13.6333C7.78372 13.9917 8.14206 14.2083 8.54206 14.2083H11.4837C11.8837 14.2083 12.2421 13.9917 12.4171 13.6333L13.3921 11.6833C13.6421 11.1833 14.1421 10.875 14.7004 10.875H18.3337C18.6754 10.875 18.9587 11.1583 18.9587 11.5C18.9587 11.8417 18.6754 12.125 18.3337 12.125H14.7004C14.6171 12.125 14.5504 12.1667 14.5171 12.2417L13.5421 14.1917C13.1254 14.975 12.3421 15.4583 11.4671 15.4583Z" fill="#0C0C0C"/>
<path d="M12.5003 19.6254H7.50033C2.97533 19.6254 1.04199 17.6921 1.04199 13.1671V9.83376C1.04199 5.92543 2.49199 3.96709 5.74199 3.49209C6.09199 3.44209 6.40033 3.67543 6.45033 4.01709C6.50033 4.35876 6.26699 4.67543 5.92533 4.72543C3.30866 5.10876 2.29199 6.54209 2.29199 9.83376V13.1671C2.29199 17.0088 3.65866 18.3754 7.50033 18.3754H12.5003C16.342 18.3754 17.7087 17.0088 17.7087 13.1671V9.83376C17.7087 6.54209 16.692 5.10876 14.0753 4.72543C13.7337 4.67543 13.5003 4.35876 13.5503 4.01709C13.6003 3.67543 13.917 3.44209 14.2587 3.49209C17.5087 3.96709 18.9587 5.92543 18.9587 9.83376V13.1671C18.9587 17.6921 17.0253 19.6254 12.5003 19.6254Z" fill="#0C0C0C"/>
</svg>
