<svg width="20" height="21" viewBox="0 0 20 21" fill="none" xmlns="http://www.w3.org/2000/svg">
<path d="M17.5 19.708H7.5C7.15833 19.708 6.875 19.4247 6.875 19.083C6.875 18.7413 7.15833 18.458 7.5 18.458H17.5C17.8417 18.458 18.125 18.7413 18.125 19.083C18.125 19.4247 17.8417 19.708 17.5 19.708Z" fill="#0C0C0C"/>
<path d="M7.11612 19.675C6.28279 19.675 5.49115 19.35 4.90782 18.7583L1.98281 15.8333C0.766146 14.6167 0.766146 12.6333 1.98281 11.4167L10.6745 2.725C11.8495 1.55 13.9161 1.55 15.0911 2.725L18.0161 5.65C19.2328 6.86666 19.2328 8.85 18.0161 10.0667L9.32448 18.7583C8.74114 19.3583 7.95779 19.675 7.11612 19.675ZM2.86614 14.9583L5.79115 17.8833C6.49949 18.5917 7.74115 18.5917 8.44115 17.8833L17.1328 9.19166C17.8661 8.45833 17.8661 7.27499 17.1328 6.54166L14.2078 3.61667C13.5078 2.91667 12.2661 2.90833 11.5578 3.61667L2.86614 12.3083C2.13281 13.0333 2.13281 14.225 2.86614 14.9583Z" fill="#0C0C0C"/>
<path d="M12.3918 15.4416C12.2334 15.4416 12.0751 15.3833 11.9501 15.2583L5.4918 8.79994C5.25013 8.55827 5.25013 8.15827 5.4918 7.9166C5.73346 7.67493 6.13346 7.67493 6.37513 7.9166L12.8335 14.3749C13.0751 14.6166 13.0751 15.0166 12.8335 15.2583C12.7085 15.3833 12.5501 15.4416 12.3918 15.4416Z" fill="#0C0C0C"/>
<path d="M2.93349 16.0915C2.77515 16.0915 2.6168 16.0332 2.4918 15.9082C2.25013 15.6665 2.25013 15.2665 2.4918 15.0249L7.20849 10.3082C7.45016 10.0665 7.85016 10.0665 8.09182 10.3082C8.33349 10.5499 8.33349 10.9499 8.09182 11.1915L3.37513 15.9082C3.25013 16.0332 3.09182 16.0915 2.93349 16.0915Z" fill="#0C0C0C"/>
<path d="M5.2831 18.4499C5.12476 18.4499 4.96641 18.3916 4.84141 18.2666C4.59974 18.0249 4.59974 17.6249 4.84141 17.3833L9.55805 12.6666C9.79972 12.4249 10.1998 12.4249 10.4414 12.6666C10.6831 12.9083 10.6831 13.3083 10.4414 13.5499L5.72474 18.2666C5.60807 18.3833 5.44976 18.4499 5.2831 18.4499Z" fill="#0C0C0C"/>
</svg>
