<svg width="12" height="12" viewBox="0 0 12 12" fill="none" xmlns="http://www.w3.org/2000/svg">
<path d="M8.5 11.375H3.5C1.295 11.375 0.625 10.705 0.625 8.5V3.5C0.625 1.295 1.295 0.625 3.5 0.625H4.25C5.125 0.625 5.4 0.91 5.75 1.375L6.5 2.375C6.665 2.595 6.69 2.625 7 2.625H8.5C10.705 2.625 11.375 3.295 11.375 5.5V8.5C11.375 10.705 10.705 11.375 8.5 11.375ZM3.5 1.375C1.71 1.375 1.375 1.715 1.375 3.5V8.5C1.375 10.285 1.71 10.625 3.5 10.625H8.5C10.29 10.625 10.625 10.285 10.625 8.5V5.5C10.625 3.715 10.29 3.375 8.5 3.375H7C6.36 3.375 6.15 3.155 5.9 2.825L5.15 1.825C4.89 1.48 4.81 1.375 4.25 1.375H3.5Z" fill="#0C0C0C"/>
<path d="M10 3.565C9.795 3.565 9.625 3.395 9.625 3.19V2.5C9.625 1.71 9.29 1.375 8.5 1.375H4C3.795 1.375 3.625 1.205 3.625 1C3.625 0.795 3.795 0.625 4 0.625H8.5C9.71 0.625 10.375 1.29 10.375 2.5V3.19C10.375 3.395 10.205 3.565 10 3.565Z" fill="#0C0C0C"/>
</svg>
