<svg width="32" height="33" viewBox="0 0 32 33" fill="none" xmlns="http://www.w3.org/2000/svg">
<path d="M15.9998 31.2995C8.09317 31.2995 1.6665 24.8728 1.6665 16.9661C1.6665 9.05948 8.09317 2.63281 15.9998 2.63281C23.9065 2.63281 30.3332 9.05948 30.3332 16.9661C30.3332 24.8728 23.9065 31.2995 15.9998 31.2995ZM15.9998 4.63281C9.19984 4.63281 3.6665 10.1661 3.6665 16.9661C3.6665 23.7661 9.19984 29.2995 15.9998 29.2995C22.7998 29.2995 28.3332 23.7661 28.3332 16.9661C28.3332 10.1661 22.7998 4.63281 15.9998 4.63281Z" fill="#0C0C0C"/>
<path d="M11.9998 29.9663H10.6665C10.1198 29.9663 9.66649 29.513 9.66649 28.9663C9.66649 28.4196 10.0932 27.9796 10.6398 27.9663C8.54649 20.8196 8.54649 13.113 10.6398 5.96631C10.0932 5.95298 9.66649 5.51298 9.66649 4.96631C9.66649 4.41964 10.1198 3.96631 10.6665 3.96631H11.9998C12.3198 3.96631 12.6265 4.12631 12.8132 4.37964C12.9998 4.64631 13.0532 4.97964 12.9465 5.28631C10.4398 12.8196 10.4398 21.113 12.9465 28.6596C13.0532 28.9663 12.9998 29.2996 12.8132 29.5663C12.6265 29.8063 12.3198 29.9663 11.9998 29.9663Z" fill="#0C0C0C"/>
<path d="M20.0002 29.9664C19.8935 29.9664 19.7869 29.9531 19.6802 29.9131C19.1602 29.7397 18.8669 29.1664 19.0535 28.6464C21.5602 21.1131 21.5602 12.8197 19.0535 5.27305C18.8802 4.75305 19.1602 4.17972 19.6802 4.00639C20.2135 3.83305 20.7735 4.11305 20.9469 4.63305C23.6002 12.5797 23.6002 21.3264 20.9469 29.2597C20.8135 29.6997 20.4135 29.9664 20.0002 29.9664Z" fill="#0C0C0C"/>
<path d="M16 23.8997C12.28 23.8997 8.57333 23.3797 5 22.3264C4.98667 22.8597 4.54667 23.2997 4 23.2997C3.45333 23.2997 3 22.8464 3 22.2997V20.9664C3 20.6464 3.16 20.3397 3.41333 20.153C3.68 19.9664 4.01333 19.913 4.32 20.0197C11.8533 22.5264 20.16 22.5264 27.6933 20.0197C28 19.913 28.3333 19.9664 28.6 20.153C28.8667 20.3397 29.0133 20.6464 29.0133 20.9664V22.2997C29.0133 22.8464 28.56 23.2997 28.0133 23.2997C27.4667 23.2997 27.0267 22.873 27.0133 22.3264C23.4267 23.3797 19.72 23.8997 16 23.8997Z" fill="#0C0C0C"/>
<path d="M28 13.9665C27.8934 13.9665 27.7867 13.9531 27.68 13.9131C20.1467 11.4065 11.84 11.4065 4.3067 13.9131C3.77337 14.0865 3.21337 13.8065 3.04004 13.2865C2.88004 12.7531 3.16004 12.1931 3.68004 12.0198C11.6267 9.36645 20.3734 9.36645 28.3067 12.0198C28.8267 12.1931 29.12 12.7665 28.9334 13.2865C28.8134 13.6998 28.4134 13.9665 28 13.9665Z" fill="#0C0C0C"/>
</svg>
