<svg width="54" height="22" viewBox="0 0 54 22" fill="none" xmlns="http://www.w3.org/2000/svg">
<path fill-rule="evenodd" clip-rule="evenodd" d="M24.905 17.2088V10.7525H28.2728C29.6529 10.7525 30.8177 10.295 31.7672 9.39262L31.9951 9.16386C33.7297 7.2956 33.6157 4.38519 31.7672 2.65674C30.843 1.74168 29.5769 1.24602 28.2728 1.27144H22.8666V17.2088H24.905ZM24.9053 8.79515V3.22851H28.3243C29.0587 3.22851 29.7552 3.50812 30.2744 4.01649C31.376 5.08406 31.4014 6.86335 30.3377 7.96905C29.8185 8.51555 29.084 8.82057 28.3243 8.79515H24.9053ZM41.5036 7.1557C40.63 6.35502 39.4398 5.94833 37.9332 5.94833C35.996 5.94833 34.54 6.66004 33.5778 8.07077L35.3757 9.20189C36.034 8.23599 36.933 7.75304 38.0724 7.75304C38.7941 7.75304 39.4905 8.01993 40.0349 8.50288C40.5666 8.96041 40.8705 9.62129 40.8705 10.3203V10.7905C40.0855 10.3584 39.098 10.1297 37.8825 10.1297C36.4645 10.1297 35.325 10.4601 34.4767 11.1337C33.6284 11.8073 33.198 12.6969 33.198 13.828C33.1727 14.8575 33.6158 15.8361 34.4008 16.497C35.1984 17.2087 36.2113 17.5645 37.4014 17.5645C38.8068 17.5645 39.9209 16.9418 40.7692 15.6963H40.8579V17.2087H42.8076V10.4855C42.8076 9.07479 42.3772 7.95638 41.5036 7.1557ZM35.9711 15.2007C35.5532 14.8957 35.2999 14.4 35.2999 13.8662C35.2999 13.2689 35.5785 12.7732 36.123 12.3792C36.6802 11.9853 37.3767 11.7819 38.1998 11.7819C39.3394 11.7692 40.2258 12.0234 40.859 12.5317C40.859 13.396 40.5171 14.1458 39.8459 14.7813C39.2381 15.3913 38.415 15.7345 37.5539 15.7345C36.9841 15.7472 36.4269 15.5565 35.9711 15.2007ZM47.1884 22L54 6.30417H51.7843L48.6317 14.133H48.5937L45.3652 6.30417H43.1495L47.6188 16.5097L45.0867 22H47.1884Z" fill="#3C4043"/>
<path d="M17.8677 9.35457C17.8677 8.73182 17.8171 8.10907 17.7158 7.49902H9.11902V11.0195H14.0441C13.8416 12.1506 13.1832 13.1673 12.221 13.8028V16.0904H15.1583C16.8802 14.5018 17.8677 12.1506 17.8677 9.35457Z" fill="#4285F4"/>
<path d="M9.11939 18.302C11.5756 18.302 13.652 17.4886 15.1587 16.0906L12.2213 13.803C11.3984 14.3622 10.3475 14.6799 9.11939 14.6799C6.73913 14.6799 4.72604 13.0658 4.00436 10.9053H0.978394V13.2692C2.52303 16.3575 5.67561 18.302 9.11939 18.302Z" fill="#34A853"/>
<path d="M4.00467 10.9048C3.62478 9.77372 3.62478 8.54093 4.00467 7.3971V5.0459H0.978215C-0.326072 7.62587 -0.326072 10.6761 0.978215 13.256L4.00467 10.9048Z" fill="#FBBC04"/>
<path d="M9.11939 3.62268C10.4235 3.59726 11.6769 4.09292 12.6138 4.99527L15.222 2.37718C13.5634 0.826652 11.3857 -0.0248653 9.11939 0.000553117C5.67561 0.000553117 2.52303 1.95777 0.978394 5.04611L4.00436 7.41002C4.72604 5.23675 6.73913 3.62268 9.11939 3.62268Z" fill="#EA4335"/>
</svg>
