<svg width="16" height="17" viewBox="0 0 16 17" fill="none" xmlns="http://www.w3.org/2000/svg">
<path d="M8 14C4.96667 14 2.5 11.5333 2.5 8.5C2.5 5.46667 4.96667 3 8 3C11.0333 3 13.5 5.46667 13.5 8.5C13.5 11.5333 11.0333 14 8 14ZM8 4C5.52 4 3.5 6.02 3.5 8.5C3.5 10.98 5.52 13 8 13C10.48 13 12.5 10.98 12.5 8.5C12.5 6.02 10.48 4 8 4Z" fill="#0C0C0C"/>
<path d="M8 11C6.62 11 5.5 9.88 5.5 8.5C5.5 7.12 6.62 6 8 6C9.38 6 10.5 7.12 10.5 8.5C10.5 9.88 9.38 11 8 11ZM8 7C7.17333 7 6.5 7.67333 6.5 8.5C6.5 9.32667 7.17333 10 8 10C8.82667 10 9.5 9.32667 9.5 8.5C9.5 7.67333 8.82667 7 8 7Z" fill="#0C0C0C"/>
<path d="M8 3.66659C7.72667 3.66659 7.5 3.43992 7.5 3.16659V1.83325C7.5 1.55992 7.72667 1.33325 8 1.33325C8.27333 1.33325 8.5 1.55992 8.5 1.83325V3.16659C8.5 3.43992 8.27333 3.66659 8 3.66659Z" fill="#0C0C0C"/>
<path d="M2.66683 9H1.3335C1.06016 9 0.833496 8.77333 0.833496 8.5C0.833496 8.22667 1.06016 8 1.3335 8H2.66683C2.94016 8 3.16683 8.22667 3.16683 8.5C3.16683 8.77333 2.94016 9 2.66683 9Z" fill="#0C0C0C"/>
<path d="M8 15.6666C7.72667 15.6666 7.5 15.4399 7.5 15.1666V13.8333C7.5 13.5599 7.72667 13.3333 8 13.3333C8.27333 13.3333 8.5 13.5599 8.5 13.8333V15.1666C8.5 15.4399 8.27333 15.6666 8 15.6666Z" fill="#0C0C0C"/>
<path d="M14.6668 9H13.3335C13.0602 9 12.8335 8.77333 12.8335 8.5C12.8335 8.22667 13.0602 8 13.3335 8H14.6668C14.9402 8 15.1668 8.22667 15.1668 8.5C15.1668 8.77333 14.9402 9 14.6668 9Z" fill="#0C0C0C"/>
</svg>
