<svg width="32" height="33" viewBox="0 0 32 33" fill="none" xmlns="http://www.w3.org/2000/svg">
<path d="M23.7198 31.2994H8.27984C4.6265 31.2994 1.6665 28.3261 1.6665 24.6728V14.7928C1.6665 12.9794 2.7865 10.6994 4.2265 9.57944L11.4132 3.97944C13.5732 2.29944 17.0265 2.21944 19.2665 3.79278L27.5065 9.56611C29.0932 10.6728 30.3332 13.0461 30.3332 14.9794V24.6861C30.3332 28.3261 27.3732 31.2994 23.7198 31.2994ZM12.6398 5.55278L5.45317 11.1528C4.5065 11.8994 3.6665 13.5928 3.6665 14.7928V24.6728C3.6665 27.2194 5.73317 29.2994 8.27984 29.2994H23.7198C26.2665 29.2994 28.3332 27.2328 28.3332 24.6861V14.9794C28.3332 13.6994 27.4132 11.9261 26.3598 11.2061L18.1198 5.43278C16.5998 4.36611 14.0932 4.41944 12.6398 5.55278Z" fill="#0C0C0C"/>
<path d="M16 25.9663C15.4533 25.9663 15 25.513 15 24.9663V20.9663C15 20.4196 15.4533 19.9663 16 19.9663C16.5467 19.9663 17 20.4196 17 20.9663V24.9663C17 25.513 16.5467 25.9663 16 25.9663Z" fill="#0C0C0C"/>
</svg>
