<svg width="16" height="16" viewBox="0 0 16 16" fill="none" xmlns="http://www.w3.org/2000/svg">
<path d="M5.84032 14.8467H5.92698C8.88698 14.8467 10.3136 13.68 10.5603 11.0667C10.587 10.7933 10.387 10.5467 10.107 10.52C9.84032 10.4933 9.58698 10.7 9.56032 10.9733C9.36698 13.0667 8.38032 13.8467 5.92032 13.8467H5.83365C3.12032 13.8467 2.16031 12.8867 2.16031 10.1733V5.82665C2.16031 3.11332 3.12032 2.15332 5.83365 2.15332H5.92032C8.39365 2.15332 9.38032 2.94665 9.56032 5.07999C9.59365 5.35332 9.82698 5.55999 10.107 5.53332C10.387 5.51332 10.587 5.26665 10.567 4.99332C10.3403 2.33999 8.90698 1.15332 5.92698 1.15332H5.84032C2.56698 1.15332 1.16698 2.55332 1.16698 5.82665V10.1733C1.16698 13.4467 2.56698 14.8467 5.84032 14.8467Z" fill="#0C0C0C"/>
<path d="M6.00025 8.5H13.5869C13.8602 8.5 14.0869 8.27333 14.0869 8C14.0869 7.72667 13.8602 7.5 13.5869 7.5H6.00025C5.72691 7.5 5.50025 7.72667 5.50025 8C5.50025 8.27333 5.72691 8.5 6.00025 8.5Z" fill="#0C0C0C"/>
<path d="M12.1004 10.7336C12.227 10.7336 12.3537 10.6869 12.4537 10.5869L14.687 8.35355C14.8804 8.16022 14.8804 7.84022 14.687 7.64689L12.4537 5.41355C12.2604 5.22022 11.9404 5.22022 11.747 5.41355C11.5537 5.60689 11.5537 5.92689 11.747 6.12022L13.627 8.00022L11.747 9.88022C11.5537 10.0736 11.5537 10.3936 11.747 10.5869C11.8404 10.6869 11.9737 10.7336 12.1004 10.7336Z" fill="#0C0C0C"/>
</svg>
