<svg width="32" height="22" viewBox="0 0 32 22" fill="none" xmlns="http://www.w3.org/2000/svg">
<path fill-rule="evenodd" clip-rule="evenodd" d="M9.0395 19.6139V20.7777V21.9415H8.4686V21.6589C8.28752 21.8685 8.01276 22 7.63929 22C6.90303 22 6.32584 21.4889 6.32584 20.7777C6.32584 20.0671 6.90303 19.5554 7.63929 19.5554C8.01276 19.5554 8.28752 19.6869 8.4686 19.8965V19.6139H9.0395ZM7.71032 20.0325C7.21613 20.0325 6.9137 20.3686 6.9137 20.7777C6.9137 21.1868 7.21613 21.5229 7.71032 21.5229C8.18251 21.5229 8.50128 21.2013 8.50128 20.7777C8.50128 20.3541 8.18251 20.0325 7.71032 20.0325ZM28.3319 20.7777C28.3319 20.3686 28.6344 20.0325 29.1286 20.0325C29.6014 20.0325 29.9195 20.3541 29.9195 20.7777C29.9195 21.2013 29.6014 21.5229 29.1286 21.5229C28.6344 21.5229 28.3319 21.1868 28.3319 20.7777ZM30.4584 18.6792V20.7777V21.9415H29.8868V21.6589C29.7057 21.8685 29.431 22 29.0575 22C28.3213 22 27.7441 21.4889 27.7441 20.7777C27.7441 20.0671 28.3213 19.5554 29.0575 19.5554C29.431 19.5554 29.7057 19.6869 29.8868 19.8965V18.6792H30.4584ZM16.1261 20.0085C16.4939 20.0085 16.7303 20.2131 16.7907 20.5731H15.4282C15.4892 20.237 15.7193 20.0085 16.1261 20.0085ZM14.8296 20.7777C14.8296 20.052 15.3678 19.5554 16.1374 19.5554C16.873 19.5554 17.3786 20.052 17.3842 20.7777C17.3842 20.8457 17.3786 20.9092 17.3729 20.9722H15.4232C15.5055 21.3914 15.8406 21.5424 16.2085 21.5424C16.4719 21.5424 16.7523 21.4543 16.9724 21.2988L17.2522 21.6739C16.9334 21.9125 16.5712 22 16.1758 22C15.3898 22 14.8296 21.5179 14.8296 20.7777ZM23.031 20.7777C23.031 20.3686 23.3334 20.0325 23.8276 20.0325C24.2998 20.0325 24.6186 20.3541 24.6186 20.7777C24.6186 21.2013 24.2998 21.5229 23.8276 21.5229C23.3334 21.5229 23.031 21.1868 23.031 20.7777ZM25.1568 19.6139V20.7777V21.9415H24.5859V21.6589C24.4042 21.8685 24.13 22 23.7566 22C23.0203 22 22.4431 21.4889 22.4431 20.7777C22.4431 20.0671 23.0203 19.5554 23.7566 19.5554C24.13 19.5554 24.4042 19.6869 24.5859 19.8965V19.6139H25.1568ZM19.8067 20.7777C19.8067 21.4839 20.3613 22 21.2076 22C21.6031 22 21.8665 21.922 22.152 21.7224L21.8778 21.3133C21.6634 21.4499 21.4383 21.5229 21.1906 21.5229C20.7348 21.5179 20.3996 21.2258 20.3996 20.7777C20.3996 20.3296 20.7348 20.0375 21.1906 20.0325C21.4383 20.0325 21.6634 20.1055 21.8778 20.2421L22.152 19.833C21.8665 19.6334 21.6031 19.5554 21.2076 19.5554C20.3613 19.5554 19.8067 20.0715 19.8067 20.7777ZM26.4752 19.8965C26.6235 19.692 26.8379 19.5554 27.1674 19.5554C27.2831 19.5554 27.4478 19.5749 27.5742 19.6189L27.3982 20.096C27.2774 20.052 27.1567 20.0375 27.041 20.0375C26.6676 20.0375 26.4808 20.2515 26.4808 20.6367V21.9415H25.9093V19.6139H26.4752V19.8965ZM11.8632 19.799C11.5884 19.6384 11.2099 19.5554 10.7924 19.5554C10.1272 19.5554 9.69901 19.838 9.69901 20.3006C9.69901 20.6802 10.0178 20.9143 10.605 20.9873L10.8748 21.0213C11.1879 21.0603 11.3356 21.1333 11.3356 21.2648C11.3356 21.4449 11.1269 21.5474 10.7371 21.5474C10.3416 21.5474 10.0561 21.4354 9.86375 21.3038L9.59464 21.6979C9.90776 21.9025 10.3032 22 10.7314 22C11.4897 22 11.9292 21.6834 11.9292 21.2403C11.9292 20.8312 11.5834 20.6172 11.0118 20.5442L10.7427 20.5096C10.4956 20.4806 10.2976 20.4371 10.2976 20.2811C10.2976 20.1105 10.4843 20.0085 10.7974 20.0085C11.1326 20.0085 11.457 20.1206 11.6161 20.2081L11.8632 19.799ZM18.538 19.8965C18.6857 19.692 18.9001 19.5554 19.2296 19.5554C19.3453 19.5554 19.51 19.5749 19.6364 19.6189L19.4603 20.096C19.3396 20.052 19.2189 20.0375 19.1032 20.0375C18.7297 20.0375 18.543 20.2515 18.543 20.6367V21.9415H17.9721V19.6139H18.538V19.8965ZM14.3573 19.6139H13.4236V18.9077H12.8465V19.6139H12.3139V20.0765H12.8465V21.1383C12.8465 21.6784 13.0829 22 13.7581 22C14.0059 22 14.2913 21.932 14.4724 21.82L14.3077 21.3863C14.1373 21.4738 13.9505 21.5179 13.8021 21.5179C13.5167 21.5179 13.4236 21.3618 13.4236 21.1283V20.0765H14.3573V19.6139ZM5.82092 20.4806V21.9415H5.24373V20.6462C5.24373 20.2515 5.05699 20.0325 4.66717 20.0325C4.28804 20.0325 4.02459 20.2471 4.02459 20.6512V21.9415H3.4474V20.6462C3.4474 20.2515 3.25564 20.0325 2.8765 20.0325C2.48605 20.0325 2.2333 20.2471 2.2333 20.6512V21.9415H1.65674L1.65674 19.6139H2.22827V19.901C2.44267 19.6284 2.7168 19.5554 2.99722 19.5554C3.39836 19.5554 3.68381 19.7115 3.86489 19.9695C4.10696 19.6429 4.45277 19.5504 4.78789 19.5554C5.42544 19.5604 5.82092 19.9305 5.82092 20.4806Z" fill="#231F20"/>
<path d="M20.3266 15.6588H11.6738V1.87402H20.3266V15.6588Z" fill="#FF5F00"/>
<path d="M12.2228 8.7664C12.2228 5.9701 13.6997 3.47923 15.9997 1.87402C14.3178 0.700203 12.1951 -0.000404358 9.88828 -0.000404358C4.427 -0.000404358 0 3.92456 0 8.7664C0 13.6082 4.427 17.5332 9.88828 17.5332C12.1951 17.5332 14.3178 16.8326 15.9997 15.6588C13.6997 14.0536 12.2228 11.5627 12.2228 8.7664Z" fill="#EB001B"/>
<path d="M31.9999 8.7664C31.9999 13.6082 27.5729 17.5332 22.1117 17.5332C19.8048 17.5332 17.6822 16.8326 15.9996 15.6588C18.3002 14.0536 19.7771 11.5627 19.7771 8.7664C19.7771 5.9701 18.3002 3.47923 15.9996 1.87402C17.6822 0.700203 19.8048 -0.000404358 22.1117 -0.000404358C27.5729 -0.000404358 31.9999 3.92456 31.9999 8.7664Z" fill="#F79E1B"/>
</svg>
