<svg width="12" height="12" viewBox="0 0 12 12" fill="none" xmlns="http://www.w3.org/2000/svg">
<path d="M7.5 11.375H7C6.795 11.375 6.625 11.205 6.625 11C6.625 10.795 6.795 10.625 7 10.625H7.5C9.805 10.625 10.625 9.805 10.625 7.5V4.5C10.625 2.195 9.805 1.375 7.5 1.375H4.5C2.195 1.375 1.375 2.195 1.375 4.5V4.99C1.375 5.195 1.205 5.365 1 5.365C0.795 5.365 0.625 5.195 0.625 4.99V4.5C0.625 1.785 1.785 0.625 4.5 0.625H7.5C10.215 0.625 11.375 1.785 11.375 4.5V7.5C11.375 10.215 10.215 11.375 7.5 11.375Z" fill="#0C0C0C"/>
<path d="M6.49973 5.87535C6.40473 5.87535 6.30973 5.84035 6.23473 5.76535C6.08973 5.62035 6.08973 5.38035 6.23473 5.23535L8.10473 3.36035H6.99973C6.79473 3.36035 6.62473 3.19035 6.62473 2.98535C6.62473 2.78035 6.78973 2.61035 6.99973 2.61035H9.00473C9.15473 2.61035 9.29473 2.70035 9.34973 2.84035C9.40973 2.98035 9.37473 3.14035 9.26973 3.25035L6.76473 5.76535C6.68973 5.84035 6.59473 5.87535 6.49973 5.87535Z" fill="#0C0C0C"/>
<path d="M9.00488 5.37035C8.79988 5.37035 8.62988 5.20035 8.62988 4.99535V2.98535C8.62988 2.78035 8.79988 2.61035 9.00488 2.61035C9.20988 2.61035 9.37988 2.78035 9.37988 2.98535V4.99035C9.37988 5.20035 9.20988 5.37035 9.00488 5.37035Z" fill="#0C0C0C"/>
<path d="M3.925 11.375H2.575C1.245 11.375 0.625 10.755 0.625 9.425V8.075C0.625 6.745 1.245 6.125 2.575 6.125H3.925C5.255 6.125 5.875 6.745 5.875 8.075V9.425C5.875 10.755 5.255 11.375 3.925 11.375ZM2.575 6.875C1.655 6.875 1.375 7.155 1.375 8.075V9.425C1.375 10.345 1.655 10.625 2.575 10.625H3.925C4.845 10.625 5.125 10.345 5.125 9.425V8.075C5.125 7.155 4.845 6.875 3.925 6.875H2.575Z" fill="#0C0C0C"/>
</svg>
