<svg width="20" height="21" viewBox="0 0 20 21" fill="none" xmlns="http://www.w3.org/2000/svg">
<path d="M10.0003 14.209C7.81699 14.209 6.04199 12.434 6.04199 10.2507V5.66732C6.04199 3.48398 7.81699 1.70898 10.0003 1.70898C12.1837 1.70898 13.9587 3.48398 13.9587 5.66732V10.2507C13.9587 12.434 12.1837 14.209 10.0003 14.209ZM10.0003 2.95898C8.50866 2.95898 7.29199 4.17565 7.29199 5.66732V10.2507C7.29199 11.7423 8.50866 12.959 10.0003 12.959C11.492 12.959 12.7087 11.7423 12.7087 10.2507V5.66732C12.7087 4.17565 11.492 2.95898 10.0003 2.95898Z" fill="#0C0C0C"/>
<path d="M10 17.1257C6.14167 17.1257 3 13.984 3 10.1257V8.70898C3 8.36732 3.28333 8.08398 3.625 8.08398C3.96667 8.08398 4.25 8.36732 4.25 8.70898V10.1257C4.25 13.2923 6.83333 15.8757 10 15.8757C13.1667 15.8757 15.75 13.2923 15.75 10.1257V8.70898C15.75 8.36732 16.0333 8.08398 16.375 8.08398C16.7167 8.08398 17 8.36732 17 8.70898V10.1257C17 13.984 13.8583 17.1257 10 17.1257Z" fill="#0C0C0C"/>
<path d="M11.1579 6.64993C11.0912 6.64993 11.0162 6.6416 10.9412 6.6166C10.3329 6.3916 9.66624 6.3916 9.05791 6.6166C8.73291 6.73327 8.37457 6.5666 8.25791 6.2416C8.14124 5.9166 8.30791 5.55827 8.63291 5.4416C9.51624 5.12493 10.4912 5.12493 11.3746 5.4416C11.6996 5.55827 11.8662 5.9166 11.7496 6.2416C11.6496 6.4916 11.4079 6.64993 11.1579 6.64993Z" fill="#0C0C0C"/>
<path d="M10.6671 8.4166C10.6087 8.4166 10.5587 8.40827 10.5004 8.3916C10.1671 8.29994 9.82539 8.29994 9.49206 8.3916C9.15872 8.48327 8.81706 8.28327 8.72539 7.94993C8.63372 7.62493 8.83372 7.28327 9.16706 7.1916C9.70872 7.0416 10.2921 7.0416 10.8337 7.1916C11.1671 7.28327 11.3671 7.62493 11.2754 7.95827C11.2004 8.23327 10.9421 8.4166 10.6671 8.4166Z" fill="#0C0C0C"/>
<path d="M10 19.625C9.65833 19.625 9.375 19.3417 9.375 19V16.5C9.375 16.1583 9.65833 15.875 10 15.875C10.3417 15.875 10.625 16.1583 10.625 16.5V19C10.625 19.3417 10.3417 19.625 10 19.625Z" fill="#0C0C0C"/>
</svg>
