<svg width="282" height="230" viewBox="0 0 282 230" fill="none" xmlns="http://www.w3.org/2000/svg">
<path d="M69.1257 14.918L75.2085 27.4323L71.4269 27.4181L68.3964 19.7275L69.1257 14.918Z" fill="#AA8989"/>
<path d="M48.3541 3.35449L46.2631 27.3325L67.8499 27.6952L70.2787 3.35449H48.3541Z" fill="#EBEBEB"/>
<path d="M50.5137 5.28648L48.7733 25.245L64.821 25.8496L67.0628 5.16797L50.5137 5.28648Z" fill="#FAFAFA"/>
<path d="M54.035 8.10742L52.7333 22.1366H61.5854L63.147 8.10742H54.035Z" fill="#AA8989"/>
<path d="M27.0638 27.4847V15.4795H37.9961V27.4754L27.0638 27.4847Z" fill="#F5F5F5"/>
<path d="M33.2787 15.4792C33.2787 15.4792 35.9155 -0.0209465 35.1767 0.000999846C34.4378 0.0223975 32.5828 14.1328 32.5828 14.1328C32.5828 14.1328 32.505 2.44637 31.8098 2.50892C31.1139 2.57092 31.8098 14.879 31.8098 14.879C31.8098 14.879 30.6213 4.89064 29.9787 5.12986C29.336 5.36853 30.2543 15.4798 30.2543 15.4798L33.2787 15.4792Z" fill="#AA8989"/>
<path d="M31.2919 15.4802C31.2919 15.4802 32.2054 7.7545 32.5069 8.28285C32.8085 8.81121 32.5069 12.8817 32.5069 12.8817C32.5069 12.8817 35.0381 2.89887 35.7012 3.23794C36.3643 3.57701 33.11 14.0734 33.11 14.0734C33.11 14.0734 35.5804 8.08095 36.1228 8.71245C36.6645 9.34396 34.0734 14.9655 34.0734 14.9655C34.0734 14.9655 36.7252 10.9916 36.906 11.5249C37.0868 12.0582 35.6405 15.4802 35.6405 15.4802H31.2919Z" fill="#EBEBEB"/>
<path d="M29.7339 15.5267C29.7339 15.5267 23.8885 6.29878 24.6116 6.58463C25.3348 6.87048 29.0708 12.8311 29.0708 12.8311C29.0708 12.8311 26.5983 7.07733 27.1414 6.90121C27.6845 6.72509 30.3964 13.3644 30.3964 13.3644L31.0049 15.5267H29.7339Z" fill="#EBEBEB"/>
<path d="M32.1237 15.499L32.4 27.5037H27.2027L27.1024 15.459L32.1237 15.499Z" fill="#AA8989"/>
<path d="M27.0756 16.5388L32.1098 16.6063L37.9955 16.5388L38.1797 15.3916H26.933L27.0756 16.5388Z" fill="#EBEBEB"/>
<path d="M92.5334 27.1504H15.9974V30.3205H92.5334V27.1504Z" fill="#AA8989"/>
<path d="M275.909 30.5547H200.074V137.256H275.909V30.5547Z" fill="#FAFAFA"/>
<path d="M223.696 138.28C223.696 138.28 215.39 90.2745 211.036 84.9997C211.036 84.9997 235.881 69.9972 236.642 29.3389H198.941V138.28H223.696Z" fill="#EBEBEB"/>
<path d="M252.274 138.067C252.274 138.067 260.58 90.0616 264.934 84.7863C264.934 84.7863 240.089 69.7843 239.328 29.126H277.029V138.067H252.274Z" fill="#EBEBEB"/>
<path d="M277.905 26.7588H274.39H193.043V28.4371V30.8238V137.535V139.295V141.054H281.42V139.295V137.535V26.7588H277.905ZM215.316 86.1401V113.32H200.073V86.1401H215.316ZM200.073 84.1748V56.0451H215.316V84.1748H200.073ZM238.517 84.1748V56.0451H257.584V84.1748H238.517ZM257.584 86.1401V113.32H238.517V86.1401H257.584ZM215.994 84.1748V56.0451H236.073V84.1748H215.994ZM236.074 86.1401V113.32H215.995V86.1401H236.074ZM215.994 55.5584V30.8238H236.073V55.5584H215.994ZM236.074 113.806V137.535H215.995V113.806H236.074ZM238.517 113.806H257.584V137.535H238.517V113.806ZM238.517 55.5584V30.8238H257.584V55.5584H238.517ZM258.262 86.1401H274.39V113.32H258.262V86.1401ZM258.262 84.1748V56.0451H274.39V84.1748H258.262ZM274.39 55.5584H258.262V30.8238H274.39V55.5584ZM215.316 30.8238V55.5584H200.073V30.8238H215.316ZM200.073 113.806H215.316V137.535H200.073V113.806ZM258.262 137.535V113.806H274.39V137.535H258.262Z" fill="#AA8989"/>
<path d="M240.03 165.317C236.672 165.752 235.171 169.07 235.464 171.795C235.757 174.52 237.151 177.184 236.778 179.903C236.305 183.355 233.06 186.274 232.683 189.733C232.237 193.814 235.824 197.434 236.896 201.438C237.417 203.387 237.344 205.448 238.247 207.304C239.768 210.434 244.229 212.443 248.343 211.853C252.457 211.262 255.776 208.134 255.856 204.774C255.93 201.641 253.526 198.69 253.818 195.565C254.033 193.254 255.717 191.066 255.357 188.768C254.928 186.033 251.777 184.092 250.665 181.484C249.553 178.877 250.621 176.003 250.237 173.263C249.549 168.349 246.16 164.923 240.03 165.317Z" fill="#F5F5F5"/>
<path d="M222.882 189.114C222.311 193.668 224.815 199.026 227.727 202.959C230.639 206.891 235.153 210.042 240.404 211.807C240.996 212.006 241.734 212.174 242.232 211.849C242.64 211.582 242.691 211.104 242.694 210.681C242.735 205.889 240.795 201.099 237.254 197.245C233.713 193.389 228.59 190.491 222.882 189.114Z" fill="#EBEBEB"/>
<path d="M247.55 221.328C247.54 221.331 247.485 221.244 247.389 221.075C247.283 220.878 247.149 220.631 246.985 220.329C246.645 219.679 246.136 218.742 245.488 217.593C244.195 215.295 242.278 212.165 239.866 208.84C237.447 205.517 234.997 202.638 233.141 200.604C232.214 199.585 231.45 198.77 230.912 198.212C230.665 197.949 230.463 197.734 230.302 197.563C230.166 197.413 230.098 197.331 230.106 197.325C230.115 197.32 230.2 197.39 230.353 197.53C230.526 197.694 230.743 197.898 231.01 198.15C231.579 198.689 232.372 199.488 233.324 200.495C235.23 202.504 237.719 205.377 240.145 208.71C242.565 212.045 244.455 215.197 245.697 217.519C246.32 218.68 246.798 219.629 247.103 220.292C247.244 220.602 247.359 220.855 247.45 221.056C247.525 221.231 247.56 221.325 247.55 221.328Z" fill="#AA8989"/>
<path d="M243.904 177.916C243.915 177.915 243.936 178.066 243.965 178.353C243.993 178.662 244.031 179.08 244.078 179.607C244.167 180.721 244.293 182.291 244.447 184.221C244.753 188.118 245.183 193.5 245.703 199.442C246.223 205.386 246.736 210.764 247.112 214.657C247.295 216.585 247.444 218.154 247.55 219.267C247.595 219.794 247.631 220.213 247.657 220.522C247.678 220.808 247.683 220.959 247.672 220.96C247.661 220.961 247.634 220.811 247.592 220.526C247.551 220.218 247.496 219.801 247.425 219.276C247.295 218.164 247.111 216.597 246.885 214.671C246.451 210.782 245.903 205.405 245.382 199.46C244.862 193.516 244.469 188.131 244.221 184.231C244.109 182.298 244.018 180.726 243.954 179.611C243.932 179.083 243.915 178.664 243.901 178.354C243.892 178.068 243.893 177.917 243.904 177.916Z" fill="#AA8989"/>
<path d="M238.696 214.836H252.877V223.209C252.877 226.233 249.83 228.684 246.07 228.684C242.451 228.684 239.465 226.407 239.272 223.501L238.696 214.836Z" fill="#AA8989"/>
<path d="M277.225 228.445C277.225 228.524 215.291 228.588 138.909 228.588C62.5004 228.588 0.579468 228.524 0.579468 228.445C0.579468 228.367 62.5004 228.303 138.909 228.303C215.291 228.303 277.225 228.366 277.225 228.445Z" fill="#263238"/>
<path d="M37.6498 221.26C37.6498 221.26 54.8552 177.313 55.2202 175.886C55.5504 174.596 48.9764 142.97 48.1481 134.785L71.3962 135.482C71.3962 135.482 71.3969 135.532 71.3982 135.619L81.2798 136.059L72.4291 225.939H61.7309L62.7918 196.119C56.1952 210.362 46.7413 224.877 46.7413 224.877L37.6498 221.26Z" fill="#FFBE9D"/>
<path d="M62.3553 206.807C62.3458 206.534 62.485 196.816 62.485 196.816C62.6187 197.397 66.5866 188.378 66.4904 187.829C66.4406 187.546 62.3553 206.807 62.3553 206.807Z" fill="#EB996E"/>
<path d="M66.943 183.559C66.9676 183.558 66.9908 183.752 67.0112 184.103C67.0344 184.455 67.0392 184.964 66.9969 185.594C66.9819 185.908 66.941 186.253 66.8905 186.621C66.8318 186.989 66.769 187.383 66.6633 187.792C66.4695 188.612 66.17 189.5 65.7887 190.41C65.0116 192.228 64.1547 193.819 63.5461 194.972C63.2575 195.499 63.0099 195.951 62.8018 196.331C62.619 196.65 62.5071 196.823 62.4846 196.815C62.4621 196.808 62.5303 196.621 62.6735 196.29C62.8168 195.958 63.0351 195.482 63.3135 194.897C63.8627 193.724 64.6827 192.121 65.4523 190.319C65.8296 189.417 66.1339 188.545 66.3426 187.74C66.4559 187.339 66.5282 186.952 66.5985 186.59C66.6613 186.228 66.7158 185.89 66.7465 185.579C66.8202 184.958 66.8536 184.452 66.8727 184.103C66.8946 183.753 66.9185 183.559 66.943 183.559Z" fill="#EB996E"/>
<path d="M82.1239 152.632C82.5366 140.101 80.786 127.121 79.401 123.185C79.2694 122.809 79.1554 122.43 79.0429 122.051L76.3992 113.151C76.3992 113.151 75.2987 112.429 78.2385 109.281C79.6009 107.822 79.3472 102.247 79.3472 102.247L78.0325 109.614L91.8424 104.265C91.8424 104.265 86.044 90.9807 84.1699 89.0396C79.3049 84.0007 70.5155 84.8824 70.5155 84.8824L59.0102 84.7754C59.0102 84.7754 54.6193 84.9981 50.4249 86.5772L50.139 86.637L50.1397 86.6847C46.8417 87.979 43.9006 90.1566 43.0539 93.7076C41.6731 99.4986 42.107 102.138 42.107 102.138L51.4803 102.004L50.6486 117.96C49.9398 119.924 47.9606 119.453 45.0324 128.522C43.8283 132.253 43.0996 135.79 42.6746 138.945C42.1159 143.096 42.208 147.284 42.8854 151.423L48.1476 183.559H79.9926L82.1239 152.632Z" fill="#AC6F6F"/>
<path d="M56.0035 99.4058L57.7111 105.257H41.6L42.6602 95.4473L56.0035 99.4058Z" fill="#AC6F6F"/>
<path d="M41.6 105.257C41.5979 105.219 42.4118 105.15 43.7327 105.088C45.0528 105.025 46.8798 104.973 48.8993 104.98C50.9194 104.988 52.7464 105.059 54.0652 105.143C55.3847 105.226 56.1959 105.316 56.1924 105.354C56.1883 105.395 55.371 105.377 54.0516 105.344C52.7321 105.312 50.9105 105.274 48.8972 105.266C46.8846 105.259 45.0617 105.279 43.7408 105.29C42.4207 105.3 41.6027 105.297 41.6 105.257Z" fill="#263238"/>
<path d="M76.3992 113.573C76.3781 113.575 76.3337 113.374 76.3051 113.002C76.3187 112.818 76.2996 112.587 76.3665 112.326C76.4088 112.063 76.5043 111.767 76.6448 111.454C76.7833 111.139 76.975 110.806 77.2104 110.465C77.4417 110.121 77.7166 109.77 78.0032 109.403C78.5796 108.672 79.2073 107.867 79.5948 106.936C79.7777 106.468 79.9005 106.003 79.9325 105.541C79.9735 105.081 79.9421 104.632 79.8827 104.207C79.7681 103.355 79.5211 102.602 79.3021 101.974C78.8423 100.722 78.4589 99.968 78.5148 99.9504C78.5367 99.9433 78.6567 100.123 78.8423 100.459C79.0279 100.795 79.283 101.287 79.5416 101.914C79.794 102.541 80.0703 103.301 80.2075 104.175C80.2777 104.611 80.3173 105.075 80.2798 105.558C80.2511 106.041 80.1229 106.537 79.9318 107.025C79.5259 108 78.8689 108.822 78.2781 109.545C77.9834 109.908 77.703 110.251 77.4662 110.581C77.2247 110.91 77.0269 111.226 76.8788 111.525C76.7287 111.823 76.6202 112.103 76.5616 112.354C76.4783 112.602 76.4777 112.825 76.4429 113.005C76.4292 113.366 76.4265 113.571 76.3992 113.573Z" fill="#263238"/>
<path d="M48.1482 183.56C48.1427 183.559 48.1639 183.496 48.2109 183.375C48.2662 183.241 48.3385 183.064 48.4299 182.841C48.6367 182.356 48.93 181.671 49.3046 180.796C49.6791 179.906 50.1847 178.832 50.7537 177.579C51.3206 176.325 51.9926 174.906 52.7349 173.336C54.2406 170.199 56.0294 166.472 58.0154 162.334C59.0054 160.262 60.0437 158.088 61.1203 155.834C62.1976 153.58 63.2789 151.236 64.3869 148.836C65.4737 146.429 66.5469 144.081 67.5184 141.797C68.0062 140.656 68.4851 139.534 68.9545 138.436C69.3993 137.331 69.8346 136.249 70.259 135.194C71.137 133.091 71.8192 131.055 72.5356 129.168C72.8672 128.219 73.153 127.294 73.4478 126.41C73.7254 125.522 74.0447 124.68 74.2473 123.857C74.4711 123.039 74.6847 122.259 74.8866 121.521C74.9876 121.152 75.0865 120.794 75.182 120.446C75.2543 120.096 75.3246 119.756 75.3928 119.427C75.5272 118.771 75.6528 118.16 75.7687 117.596C75.8847 117.033 76.0041 116.52 76.0369 116.052C76.1446 115.131 76.2286 114.411 76.2879 113.901C76.3193 113.668 76.3432 113.483 76.3623 113.342C76.3807 113.216 76.3937 113.151 76.3998 113.151C76.4059 113.151 76.4053 113.216 76.3984 113.343C76.3882 113.484 76.3759 113.67 76.3596 113.904C76.3159 114.415 76.2538 115.14 76.174 116.063C76.1515 116.534 76.043 117.049 75.9359 117.615C75.8288 118.181 75.7128 118.795 75.5886 119.454C75.5252 119.785 75.459 120.126 75.3908 120.478C75.2993 120.827 75.2052 121.187 75.1083 121.557C74.9132 122.298 74.7078 123.081 74.4923 123.902C74.2971 124.729 73.9847 125.573 73.7138 126.464C73.4259 127.351 73.1462 128.279 72.8201 129.231C72.1153 131.123 71.442 133.165 70.5721 135.273C70.1505 136.331 69.7186 137.415 69.2772 138.522C68.8099 139.622 68.3337 140.746 67.8479 141.889C66.8798 144.177 65.808 146.526 64.7205 148.935C63.6119 151.336 62.5278 153.681 61.4457 155.934C60.3623 158.186 59.3172 160.359 58.3211 162.43C56.3085 166.559 54.4958 170.279 52.9696 173.409C52.2184 174.973 51.5389 176.389 50.9399 177.635C50.3532 178.882 49.8292 179.951 49.4349 180.834C49.0337 181.701 48.7199 182.381 48.4982 182.86C48.3931 183.08 48.3092 183.253 48.2457 183.385C48.1871 183.502 48.1536 183.562 48.1482 183.56Z" fill="#263238"/>
<path d="M56.6981 95.3994C56.7473 95.4011 56.7643 95.9695 56.752 96.8879C56.7398 97.8058 56.6988 99.0738 56.6313 100.473C56.5637 101.872 56.4825 103.139 56.4061 104.055C56.3297 104.971 56.2581 105.537 56.209 105.535C56.1598 105.534 56.1428 104.965 56.1551 104.047C56.1674 103.129 56.2083 101.862 56.2758 100.462C56.3434 99.0628 56.4246 97.7965 56.501 96.8802C56.5774 95.9634 56.649 95.3978 56.6981 95.3994Z" fill="#263238"/>
<path opacity="0.3" d="M71.2268 104.339C71.2268 104.339 67.7767 121.817 57.711 121.252C57.711 121.252 53.1788 121.209 51.7216 118.787V117.833L71.2268 104.339Z" fill="black"/>
<path d="M76.3992 113.152C76.4019 113.231 74.2167 113.36 71.5177 113.442C68.8181 113.523 66.6288 113.525 66.6254 113.446C66.6226 113.367 68.8079 113.238 71.5068 113.156C74.2058 113.075 76.3958 113.073 76.3992 113.152Z" fill="#263238"/>
<path d="M72.7108 113.27C72.7142 113.285 72.5614 113.308 72.3608 113.189C72.1582 113.074 71.989 112.823 71.8205 112.541C71.6267 112.218 71.4255 111.882 71.2153 111.531C71.1103 111.338 70.969 111.148 70.8954 110.889C70.8196 110.64 70.8954 110.278 71.2788 110.114C71.4725 110.034 71.712 110.058 71.8737 110.136C72.0381 110.212 72.1493 110.315 72.2421 110.417C72.4181 110.629 72.532 110.829 72.6357 111.034C72.837 111.441 72.9237 111.831 72.9516 112.157C73.0001 112.815 72.8295 113.206 72.792 113.197C72.734 113.191 72.8111 112.796 72.7019 112.178C72.6439 111.871 72.5375 111.509 72.3335 111.135C72.2332 110.952 72.1056 110.75 71.9603 110.582C71.8109 110.412 71.5967 110.299 71.437 110.371C71.2651 110.444 71.1792 110.646 71.2365 110.834C71.2835 111.026 71.4145 111.228 71.5135 111.423C71.6997 111.783 71.8778 112.127 72.0497 112.459C72.1937 112.761 72.309 112.986 72.4529 113.106C72.5907 113.228 72.7176 113.246 72.7108 113.27Z" fill="#263238"/>
<path d="M72.733 113.566C72.6893 113.553 72.8367 113.11 73.1689 112.42C73.3354 112.075 73.5496 111.669 73.8102 111.226C73.9405 111.005 74.0831 110.776 74.2366 110.539C74.3137 110.419 74.4072 110.286 74.5573 110.171C74.6951 110.053 74.9932 109.962 75.2327 110.072C75.4592 110.17 75.5643 110.36 75.5813 110.527C75.5977 110.695 75.5568 110.841 75.5131 110.972C75.4299 111.241 75.3057 111.49 75.1583 111.714C74.8588 112.16 74.4727 112.503 74.1056 112.74C73.3606 113.216 72.7589 113.294 72.7555 113.268C72.7296 113.221 73.2828 113.074 73.9405 112.587C74.266 112.345 74.6057 112.012 74.867 111.594C74.9953 111.383 75.1024 111.153 75.174 110.907C75.2627 110.661 75.2613 110.406 75.0662 110.325C74.9114 110.239 74.6773 110.445 74.5429 110.67C74.3922 110.9 74.2462 111.124 74.1029 111.342C73.8286 111.774 73.5933 112.167 73.3988 112.499C73.012 113.163 72.7814 113.58 72.733 113.566Z" fill="#263238"/>
<path opacity="0.3" d="M56.6981 96.6562L58.6248 107.124L57.3776 108.96L55.8514 105.401L56.1926 105.352L56.6981 96.6562Z" fill="black"/>
<path d="M72.6303 226.38L72.635 225.572L61.6769 225.188L61.6469 228.521L62.323 228.557C65.331 228.699 77.6297 229.107 79.6423 228.622C81.8869 228.079 72.6303 226.38 72.6303 226.38Z" fill="#E8505B"/>
<g opacity="0.5">
<path d="M65.6001 228.462C65.4479 227.729 64.9438 227.047 64.2158 226.589C63.4879 226.131 62.5907 225.889 61.6697 225.946L61.6581 228.396L65.6001 228.462Z" fill="white"/>
</g>
<path opacity="0.5" d="M77.1533 227.341C77.1533 227.341 80.3974 228.102 79.9908 228.531C79.5842 228.96 67.136 228.924 61.6473 228.521L61.6658 228.325L76.1845 228.467C76.1845 228.467 76.5182 227.361 77.1533 227.341Z" fill="white"/>
<path d="M61.4935 228.318C61.4935 228.322 61.5577 228.328 61.6811 228.335C61.8428 228.344 62.0195 228.353 62.2194 228.363C62.7577 228.384 63.4195 228.408 64.2007 228.438C65.8742 228.491 68.187 228.54 70.7427 228.549C73.299 228.558 75.6132 228.525 77.2867 228.484C78.0679 228.461 78.7304 228.44 79.2687 228.424C79.4686 228.415 79.6453 228.407 79.8069 228.4C79.9298 228.394 79.9946 228.388 79.9946 228.385C79.9946 228.381 79.9297 228.379 79.8063 228.379C79.6446 228.38 79.4672 228.381 79.2673 228.383C78.7283 228.39 78.0665 228.399 77.2847 228.409C75.6112 228.432 73.2984 228.452 70.7434 228.444C68.1897 228.434 65.8776 228.397 64.2041 228.363C63.4229 228.348 62.7604 228.334 62.2222 228.323C62.0223 228.32 61.8449 228.317 61.6832 228.315C61.5583 228.314 61.4935 228.315 61.4935 228.318Z" fill="#263238"/>
<path d="M76.1801 228.604C76.2204 228.609 76.2531 228.228 76.554 227.845C76.846 227.458 77.2547 227.264 77.2321 227.237C77.2246 227.211 76.7566 227.375 76.4414 227.79C76.1208 228.201 76.1474 228.61 76.1801 228.604Z" fill="#263238"/>
<path d="M72.9691 227.281C72.9998 227.297 73.1547 227.147 73.3143 226.946C73.4746 226.745 73.579 226.569 73.5483 226.553C73.5176 226.537 73.3634 226.687 73.2031 226.888C73.0428 227.09 72.9384 227.265 72.9691 227.281Z" fill="#263238"/>
<path d="M72.0881 226.904C72.1127 226.926 72.2846 226.834 72.4736 226.699C72.6619 226.564 72.7949 226.436 72.771 226.414C72.7465 226.392 72.5745 226.484 72.3855 226.62C72.1973 226.755 72.0642 226.882 72.0881 226.904Z" fill="#263238"/>
<path d="M71.5341 226.075C71.5334 226.105 71.7879 226.132 72.1024 226.136C72.4169 226.139 72.672 226.118 72.6727 226.089C72.6734 226.06 72.4189 226.033 72.1044 226.029C71.7899 226.025 71.5347 226.046 71.5341 226.075Z" fill="#263238"/>
<path d="M71.345 225.489C71.3327 225.516 71.6097 225.617 71.9795 225.64C72.3493 225.664 72.6419 225.599 72.6351 225.571C72.629 225.541 72.3404 225.557 71.9897 225.533C71.6384 225.513 71.3566 225.46 71.345 225.489Z" fill="#263238"/>
<path d="M73.3422 226.519C73.3415 226.531 73.6103 226.558 74.0428 226.517C74.2584 226.497 74.5143 226.456 74.7892 226.387C74.9256 226.348 75.0689 226.32 75.217 226.247C75.2866 226.209 75.3637 226.158 75.3909 226.072C75.4203 225.988 75.3643 225.893 75.2859 225.847C74.6173 225.566 73.9453 225.867 73.6956 226.144C73.5578 226.286 73.495 226.424 73.4656 226.519C73.437 226.616 73.439 226.671 73.4465 226.671C73.4711 226.679 73.495 226.45 73.7679 226.192C73.9023 226.066 74.1063 225.943 74.3676 225.881C74.6152 225.823 74.9673 225.808 75.2026 225.929C75.3138 225.996 75.2695 226.101 75.146 226.16C75.0307 226.219 74.8813 226.255 74.7517 226.294C74.4863 226.366 74.2393 226.414 74.0292 226.443C73.6089 226.502 73.3422 226.501 73.3422 226.519Z" fill="#263238"/>
<path d="M73.5243 226.545C73.5345 226.551 73.6382 226.408 73.6068 226.155C73.5904 226.03 73.5345 225.883 73.4171 225.743C73.2943 225.617 73.1354 225.445 72.8352 225.453C72.6728 225.47 72.593 225.618 72.6182 225.713C72.6305 225.812 72.6851 225.897 72.7363 225.965C72.84 226.106 72.9573 226.22 73.0658 226.307C73.2848 226.48 73.4581 226.546 73.4656 226.536C73.4779 226.522 73.3264 226.434 73.134 226.256C73.0385 226.166 72.9348 226.053 72.842 225.917C72.7465 225.797 72.6817 225.583 72.857 225.558C73.0324 225.545 73.2111 225.686 73.3175 225.799C73.4274 225.921 73.4874 226.052 73.514 226.166C73.5666 226.395 73.5011 226.541 73.5243 226.545Z" fill="#263238"/>
<path d="M61.7265 225.921C61.7285 225.941 62.0389 225.898 62.5315 225.946C63.0193 225.991 63.6975 226.154 64.2862 226.534C64.8743 226.914 65.2189 227.412 65.3785 227.785C65.5436 228.161 65.5586 228.414 65.5825 228.411C65.5907 228.411 65.5948 228.348 65.5839 228.235C65.5729 228.121 65.5402 227.958 65.4672 227.762C65.326 227.372 64.9821 226.848 64.3688 226.451C63.7548 226.055 63.0439 225.899 62.5404 225.872C62.2866 225.857 62.0805 225.866 61.9407 225.882C61.8008 225.897 61.7251 225.915 61.7265 225.921Z" fill="#263238"/>
<path d="M66.9755 227.621C66.9707 227.649 67.6816 227.741 68.5678 227.744C69.4541 227.749 70.1656 227.663 70.1616 227.635C70.1581 227.604 69.4459 227.642 68.5685 227.637C67.6905 227.634 66.9789 227.591 66.9755 227.621Z" fill="#263238"/>
<path d="M64.8384 227.602C64.8118 227.623 64.8964 227.723 64.968 227.855C65.0424 227.986 65.0792 228.103 65.1167 228.101C65.1522 228.101 65.1734 227.963 65.0881 227.812C65.0049 227.66 64.8623 227.581 64.8384 227.602Z" fill="#263238"/>
<path d="M64.037 226.794C64.0111 226.815 64.0807 226.906 64.1933 226.998C64.3058 227.091 64.4177 227.149 64.4437 227.128C64.4696 227.108 64.4 227.016 64.2874 226.924C64.1755 226.832 64.0636 226.773 64.037 226.794Z" fill="#263238"/>
<path d="M62.8866 226.423C62.8941 226.452 63.0388 226.452 63.1991 226.498C63.3601 226.541 63.474 226.613 63.5027 226.593C63.532 226.577 63.4406 226.452 63.2421 226.397C63.0429 226.342 62.8757 226.396 62.8866 226.423Z" fill="#263238"/>
<path d="M62.0672 226.246C62.0535 226.274 62.1163 226.319 62.2063 226.348C62.2964 226.376 62.381 226.377 62.394 226.35C62.4076 226.322 62.3448 226.277 62.2548 226.249C62.164 226.22 62.0801 226.219 62.0672 226.246Z" fill="#263238"/>
<path d="M46.9562 225.6L47.3724 224.865L37.5713 220.904L35.8466 223.935L36.4442 224.191C39.1159 225.311 50.1279 229.735 52.2115 229.956C54.5352 230.2 46.9562 225.6 46.9562 225.6Z" fill="#E8505B"/>
<g opacity="0.5">
<path d="M39.482 225.183C39.716 224.464 39.6034 223.676 39.1729 223.019C38.7424 222.361 38.0479 221.844 37.178 221.593L35.9193 223.824L39.482 225.183Z" fill="white"/>
</g>
<path opacity="0.5" d="M50.5929 227.968C50.5929 227.968 53.1643 229.731 52.5748 229.988C51.9854 230.246 40.6479 226.112 35.8456 223.936L35.9622 223.764L49.135 228.676C49.135 228.676 50.0035 227.777 50.5929 227.968Z" fill="white"/>
<path d="M35.809 223.702C35.807 223.706 35.8629 223.732 35.9714 223.78C36.1147 223.841 36.2716 223.907 36.4483 223.982C36.9293 224.178 37.5201 224.419 38.218 224.703C39.7176 225.302 41.8025 226.109 44.129 226.959C46.4568 227.809 48.584 228.542 50.132 229.055C50.8572 229.291 51.4712 229.49 51.9706 229.653C52.1576 229.71 52.3227 229.761 52.4741 229.809C52.5894 229.843 52.6515 229.86 52.6529 229.856C52.6542 229.853 52.5963 229.83 52.4844 229.789C52.3363 229.737 52.1739 229.679 51.9904 229.615C51.4951 229.444 50.8866 229.234 50.1682 228.986C48.6297 228.455 46.5093 227.712 44.1835 226.863C41.8585 226.013 39.7681 225.217 38.2583 224.635C37.5535 224.363 36.9565 224.133 36.4708 223.945C36.29 223.876 36.129 223.816 35.983 223.76C35.8711 223.719 35.8111 223.699 35.809 223.702Z" fill="#263238"/>
<path d="M49.0628 228.799C49.0976 228.816 49.3213 228.48 49.7907 228.229C50.2546 227.972 50.7261 227.93 50.7193 227.898C50.7254 227.871 50.2151 227.866 49.7164 228.141C49.2135 228.411 49.0293 228.794 49.0628 228.799Z" fill="#263238"/>
<path d="M46.8065 226.535C46.8263 226.559 47.0439 226.473 47.2923 226.343C47.5406 226.212 47.7255 226.086 47.7057 226.062C47.6859 226.037 47.4683 226.123 47.2199 226.254C46.9716 226.384 46.7867 226.51 46.8065 226.535Z" fill="#263238"/>
<path d="M46.1956 225.901C46.2066 225.929 46.4106 225.902 46.6514 225.84C46.8922 225.779 47.0785 225.707 47.0676 225.679C47.0566 225.651 46.8526 225.678 46.6118 225.739C46.371 225.8 46.1847 225.873 46.1956 225.901Z" fill="#263238"/>
<path d="M46.112 224.962C46.0963 224.989 46.3153 225.097 46.5998 225.204C46.885 225.311 47.1285 225.376 47.1442 225.35C47.1599 225.324 46.9409 225.215 46.6564 225.108C46.3712 225.001 46.127 224.935 46.112 224.962Z" fill="#263238"/>
<path d="M46.2368 224.367C46.2122 224.386 46.4135 224.57 46.7389 224.713C47.0636 224.857 47.3645 224.894 47.372 224.866C47.3822 224.837 47.1107 224.757 46.8023 224.62C46.4926 224.485 46.2627 224.344 46.2368 224.367Z" fill="#263238"/>
<path d="M47.5362 225.964C47.5293 225.974 47.7606 226.088 48.1761 226.193C48.3835 226.246 48.6366 226.293 48.9232 226.321C49.0678 226.331 49.2124 226.351 49.3844 226.333C49.4669 226.322 49.5638 226.3 49.632 226.231C49.7016 226.164 49.6995 226.059 49.6511 225.991C49.1845 225.515 48.4183 225.568 48.0485 225.739C47.8507 225.822 47.7231 225.928 47.6474 226.005C47.5723 226.084 47.5457 226.135 47.5525 226.138C47.571 226.153 47.7094 225.951 48.0901 225.806C48.2771 225.735 48.5254 225.69 48.7956 225.72C49.0514 225.748 49.3803 225.851 49.5324 226.039C49.5999 226.136 49.5065 226.218 49.3632 226.23C49.2274 226.247 49.0733 226.23 48.9348 226.222C48.6557 226.201 48.406 226.163 48.2 226.12C47.7886 226.036 47.545 225.948 47.5362 225.964Z" fill="#263238"/>
<path d="M47.6874 226.048C47.6935 226.057 47.8613 225.96 47.9616 225.719C48.0101 225.6 48.0339 225.447 47.9991 225.281C47.9507 225.126 47.8941 224.916 47.615 224.825C47.4588 224.787 47.0931 225.04 47.0679 225.135C47.029 225.229 47.2528 225.18 47.2637 225.26C47.2862 225.423 47.3353 225.565 47.3899 225.68C47.5018 225.91 47.6253 226.028 47.6382 226.021C47.6567 226.013 47.5632 225.882 47.4786 225.656C47.437 225.543 47.4001 225.405 47.3851 225.25C47.3585 225.11 47.4083 224.893 47.5816 224.928C47.7481 224.974 47.8395 225.162 47.8791 225.299C47.9166 225.447 47.905 225.587 47.8716 225.699C47.8027 225.925 47.6683 226.037 47.6874 226.048Z" fill="#263238"/>
<path d="M37.2432 221.593C37.235 221.611 37.54 221.675 37.965 221.881C38.3873 222.083 38.9229 222.455 39.2667 222.995C39.6092 223.536 39.6699 224.103 39.6263 224.496C39.5847 224.894 39.47 225.129 39.4932 225.135C39.5007 225.137 39.5369 225.081 39.584 224.974C39.6317 224.867 39.6849 224.706 39.7184 224.503C39.788 224.102 39.7409 223.51 39.3834 222.946C39.0252 222.382 38.4562 222.005 38.0107 221.815C37.7869 221.718 37.5946 221.659 37.4581 221.627C37.323 221.596 37.2452 221.586 37.2432 221.593Z" fill="#263238"/>
<path d="M41.1653 224.872C41.1469 224.896 41.7493 225.213 42.5557 225.508C43.3615 225.804 44.0546 225.961 44.0649 225.935C44.0771 225.906 43.4092 225.705 42.6103 225.411C41.8114 225.119 41.1851 224.845 41.1653 224.872Z" fill="#263238"/>
<path d="M39.2259 224.149C39.1905 224.16 39.2171 224.279 39.2157 224.423C39.2171 224.567 39.1911 224.686 39.2259 224.697C39.258 224.708 39.3481 224.589 39.3474 224.423C39.3481 224.256 39.258 224.137 39.2259 224.149Z" fill="#263238"/>
<path d="M38.9061 223.147C38.872 223.158 38.889 223.264 38.945 223.385C39.0002 223.506 39.0732 223.596 39.1074 223.586C39.1415 223.576 39.1244 223.469 39.0685 223.348C39.0132 223.227 38.9402 223.137 38.9061 223.147Z" fill="#263238"/>
<path d="M38.0456 222.43C38.0375 222.46 38.1698 222.507 38.2926 222.602C38.4182 222.694 38.485 222.797 38.5212 222.788C38.556 222.783 38.5369 222.639 38.3827 222.524C38.2299 222.408 38.0497 222.402 38.0456 222.43Z" fill="#263238"/>
<path d="M37.388 222C37.362 222.021 37.3961 222.083 37.4637 222.139C37.5312 222.195 37.6076 222.224 37.6336 222.203C37.6595 222.182 37.6254 222.12 37.5578 222.064C37.4903 222.008 37.4139 221.979 37.388 222Z" fill="#263238"/>
<path d="M78.6714 88.8857C78.7628 88.1527 78.9423 87.164 78.9846 86.7086C79.1128 85.3199 79.4069 85.011 79.982 85.2173C80.9167 85.5531 79.9377 89.1018 80.6097 89.149C80.9706 89.1743 81.4549 87.0998 81.648 86.0765C81.8547 84.982 81.9966 83.5006 82.0833 82.9722C82.1781 82.3901 83.4096 82.2568 83.3645 83.2893C83.3182 84.357 83.2547 87.2967 83.5644 87.4125C84.4193 87.7313 84.3879 83.534 84.5912 82.1613C84.6362 81.8562 84.7215 81.6417 84.8266 81.4925C85.1206 81.075 85.9243 81.2324 86.0048 81.7076C86.2313 83.0457 85.8998 86.6603 86.026 87.2463C86.0649 87.4257 86.6236 87.5168 86.7614 86.9165C86.9463 86.1116 86.8638 82.2606 87.8489 82.6024C88.9303 82.9777 87.7684 87.5343 88.2105 87.9985C89.0353 88.8626 89.1281 83.9104 90.1508 84.1255C90.6686 84.2341 90.657 84.39 90.1317 87.0339C89.8902 88.2509 88.8777 90.8883 88.3272 93.1449C90.7 99.8775 94.8535 112.487 94.2463 116.644C93.8984 119.027 87.0268 120.672 84.0802 118.895C81.1336 117.118 79.0821 109.205 79.0821 109.205L82.6243 107.521L79.1619 92.267C79.0159 91.9472 78.9498 91.116 78.7403 90.722C78.4974 90.2672 78.61 89.3789 78.6714 88.8857Z" fill="#FFBE9D"/>
<path d="M84.6364 115.561C84.5402 115.577 84.0258 113.792 83.4868 111.577C82.9486 109.361 82.5897 107.554 82.6859 107.538C82.7821 107.523 83.2965 109.307 83.8355 111.523C84.3744 113.737 84.7326 115.546 84.6364 115.561Z" fill="#EB996E"/>
<path d="M76.196 78.7625C79.1972 78.413 82.2434 78.3137 85.2691 78.4678C85.7399 77.788 85.8143 76.9387 85.4656 76.2128C85.117 75.487 84.3529 74.8983 83.436 74.6492C83.0621 74.5477 82.6473 74.4923 82.3587 74.275C81.892 73.9244 81.9582 73.3203 82.1158 72.8221C82.2734 72.3245 82.4815 71.778 82.197 71.3177C81.7522 70.5984 80.4498 70.5853 79.7253 70.0317C78.8922 69.3952 79.088 68.3182 78.9291 67.403C78.6425 65.751 76.8476 64.347 74.7865 64.1621" fill="#263238"/>
<path d="M65.1777 59.9693C61.8156 59.3142 58.008 60.6656 56.3454 63.1049C55.4428 64.4283 54.9823 66.133 53.304 66.8084C52.2786 67.2204 51.0676 67.1173 49.9262 67.2039C48.7848 67.2906 47.4981 67.7164 47.2259 68.6124C46.9509 69.5182 47.8113 70.6265 47.0512 71.3304C46.5641 71.7814 45.697 71.7545 45.0141 71.9877C43.6278 72.4606 43.2348 73.9075 43.3849 75.1123C43.5356 76.3172 44.033 77.5368 43.6803 78.7137C45.203 79.0884 46.7449 79.4665 48.3359 79.5334C49.9269 79.6003 51.5963 79.326 52.8332 78.5184C52.7016 79.0429 53.1252 79.5795 53.6956 79.8555C54.266 80.1314 54.9523 80.1995 55.6168 80.2329C57.7945 80.3421 59.9961 80.1446 62.0906 79.653" fill="#263238"/>
<path d="M72.6659 85.5332C72.6215 83.2458 72.5806 80.9826 72.5806 80.9826C72.5806 80.9826 77.1816 80.6199 77.5091 76.8611C77.8366 73.1017 77.6708 64.4257 77.6708 64.4257L69.3447 60.9785L60.4735 66.7531L60.8351 85.762C60.9429 88.4219 63.7408 90.4936 67.0455 90.3603C70.2302 90.2319 72.7157 88.0971 72.6659 85.5332Z" fill="#FFBE9D"/>
<path d="M76.6739 70.8451C76.6705 71.1112 76.4064 71.3241 76.0837 71.3213C75.7624 71.3186 75.5038 71.1013 75.5072 70.8352C75.5106 70.5691 75.7747 70.3557 76.0967 70.3584C76.4187 70.3617 76.6773 70.579 76.6739 70.8451Z" fill="#263238"/>
<path d="M77.2457 70.3269C77.17 70.3883 76.7429 70.0827 76.1152 70.0498C75.4882 70.0092 75.0127 70.2621 74.9486 70.1919C74.9165 70.1606 74.997 70.0465 75.2044 69.9318C75.4084 69.8172 75.7523 69.714 76.1432 69.7365C76.5341 69.7595 76.8561 69.9017 77.0383 70.0394C77.2239 70.1771 77.2825 70.2994 77.2457 70.3269Z" fill="#263238"/>
<path d="M69.9146 70.847C69.9112 71.1131 69.6472 71.326 69.3245 71.3233C69.0024 71.3205 68.7445 71.1033 68.748 70.8372C68.7514 70.5711 69.0154 70.3576 69.3374 70.3604C69.6594 70.3637 69.918 70.5815 69.9146 70.847Z" fill="#263238"/>
<path d="M70.2841 70.3269C70.2084 70.3883 69.7813 70.0827 69.1536 70.0498C68.5273 70.0092 68.0511 70.2621 67.987 70.1919C67.9556 70.1606 68.0347 70.0465 68.2428 69.9318C68.4468 69.8172 68.7907 69.714 69.1809 69.7365C69.5718 69.7595 69.8938 69.9017 70.076 70.0394C70.2623 70.1771 70.3216 70.2994 70.2841 70.3269Z" fill="#263238"/>
<path d="M72.4934 74.5564C72.492 74.5257 72.8857 74.489 73.5215 74.4538C73.6825 74.4484 73.836 74.4291 73.8681 74.3364C73.9111 74.2388 73.8524 74.0862 73.7835 73.9211C73.6504 73.5787 73.512 73.2199 73.366 72.8435C72.7888 71.31 72.3788 70.053 72.4504 70.0344C72.522 70.0157 73.048 71.2436 73.6252 72.7771C73.7637 73.1552 73.8961 73.5151 74.0223 73.8602C74.0748 74.0204 74.1689 74.2042 74.0762 74.4067C74.0277 74.5076 73.9056 74.5756 73.8019 74.5943C73.6975 74.6157 73.6075 74.6124 73.5276 74.6118C72.8891 74.6064 72.494 74.5872 72.4934 74.5564Z" fill="#263238"/>
<path d="M53.5024 70.1926C53.5536 69.9265 53.4574 70.4818 53.5222 70.0643V70.0621C53.6129 69.481 53.7146 68.8687 53.8237 68.5395C56.4122 60.7162 64.784 59.3243 66.4357 59.338C68.2074 59.3528 73.2772 59.2332 76.0976 62.0747C79.8212 65.8253 77.7118 69.5397 77.7118 69.5397L70.3265 68.4885C70.8736 67.0093 70.1211 65.1604 69.6927 64.2984L69.6504 64.2655C68.2477 69.8849 60.7164 71.1462 60.7164 71.1462L60.6291 79.3827C55.1432 78.7435 53.3741 73.4495 53.5024 70.1926Z" fill="#263238"/>
<path d="M60.8106 74.5664C60.8549 74.0024 61.181 72.65 60.9463 72.1178C60.7116 71.5856 59.9762 71.4649 59.1664 71.4709C58.3579 71.477 57.3864 72.0761 57.415 72.8766C57.4389 73.5262 57.7071 74.1945 58.4009 74.5286C59.094 74.8633 59.9871 74.8742 60.7389 74.6334" fill="#FFBE9D"/>
<path d="M59.9371 73.8242C59.9125 73.7864 59.7072 73.8648 59.4131 73.7853C59.1157 73.7205 58.8182 73.4396 58.8066 73.0512C58.7957 72.8608 58.8537 72.6858 58.9724 72.6035C59.0939 72.5151 59.2849 72.4937 59.4357 72.5036C59.7509 72.5327 59.9705 72.6057 59.9903 72.5629C60.0047 72.5349 59.8532 72.4016 59.4793 72.3072C59.2931 72.2688 59.0215 72.254 58.7684 72.4016C58.5153 72.559 58.443 72.8284 58.4553 73.0627C58.4662 73.3052 58.5719 73.5362 58.748 73.703C58.9206 73.8725 59.1621 73.9614 59.3586 73.9812C59.7734 74.0223 59.9705 73.8456 59.9371 73.8242Z" fill="#EB996E"/>
<path d="M72.4542 75.6415C72.4215 75.6179 72.5716 75.4731 72.8909 75.5296C73.0389 75.5554 73.232 75.6624 73.2914 75.8451C73.35 76.0168 73.2968 76.239 73.071 76.3784C72.837 76.5111 72.5552 76.4837 72.3696 76.3822C72.1704 76.2769 72.1138 76.0843 72.1452 75.9636C72.2093 75.6991 72.4522 75.6574 72.459 75.6936C72.4863 75.7271 72.3744 75.8182 72.3956 75.9745C72.4065 76.0514 72.4515 76.1227 72.5443 76.1589C72.6344 76.1989 72.7783 76.1984 72.8609 76.1479C72.9468 76.0991 72.9905 75.9894 72.9727 75.9049C72.9598 75.8209 72.8895 75.7578 72.8049 75.7189C72.6309 75.6404 72.4768 75.6777 72.4542 75.6415Z" fill="#263238"/>
<path d="M70.6487 68.8391C70.6261 68.9208 69.9384 68.8391 69.1327 68.9922C68.3229 69.1343 67.7471 69.447 67.6829 69.3812C67.6147 69.3307 68.1503 68.8753 69.0536 68.7135C69.9548 68.5456 70.6828 68.7694 70.6487 68.8391Z" fill="#263238"/>
<path d="M67.6246 59.3942C67.6198 59.4205 67.3469 59.3881 66.8557 59.3969C66.3665 59.4046 65.655 59.4743 64.8349 59.7146C64.0203 59.9576 63.102 60.3834 62.284 61.0336C61.4639 61.6804 60.7728 62.5588 60.2891 63.5568C59.3238 65.5743 59.3463 67.5856 59.3763 68.9962C59.407 69.6607 59.4329 70.2241 59.4541 70.6839C59.4718 71.0833 59.4718 71.305 59.4472 71.3066C59.4227 71.3083 59.377 71.0899 59.3163 70.6927C59.2569 70.296 59.1812 69.7199 59.1252 69.005C59.0734 68.2901 59.0413 67.4331 59.1341 66.4828C59.2248 65.5337 59.4622 64.4879 59.9576 63.4537C60.457 62.4228 61.1842 61.5114 62.0555 60.8454C62.9233 60.1766 63.8941 59.7524 64.7517 59.5247C65.6147 59.2998 66.357 59.2597 66.8578 59.2866C67.1088 59.302 67.3019 59.3212 67.4308 59.347C67.5605 59.3678 67.6266 59.3843 67.6246 59.3942Z" fill="#AC6F6F"/>
<path d="M73.0857 80.9006C73.0918 80.9341 72.6777 81.0251 71.9866 81.0652C71.2989 81.0987 70.3226 81.0668 69.3006 80.8161C68.2752 80.5741 67.436 80.1467 66.9271 79.766C66.4113 79.3852 66.195 79.0801 66.2271 79.0609C66.2714 79.0313 66.5539 79.2859 67.0874 79.6102C67.6161 79.9361 68.4253 80.3113 69.4036 80.5423C71.3698 81.0191 73.0823 80.8007 73.0857 80.9006Z" fill="#EB996E"/>
<path d="M50.4538 105.16L55.8516 105.401C56.1928 106.808 57.3778 108.96 57.3778 108.96C61.7223 102.895 65.0912 94.7687 65.9277 91.5031C65.8055 91.1766 65.6616 90.8161 65.4815 90.4129C65.2734 89.9471 65.4522 89.0659 65.5504 88.5765C65.6964 87.8495 65.9488 86.8713 66.0252 86.4181C66.2565 85.0382 66.5328 84.8215 67.1318 84.9773C67.9457 85.1897 66.7982 88.8525 67.4655 88.932C67.8243 88.9748 68.2623 87.7195 68.3899 86.6902C68.5175 85.6604 69.096 82.493 69.519 82.2818C70.1398 81.9723 70.6802 82.4617 70.5233 83.4872C70.365 84.5252 70.1644 87.6202 70.8412 87.6619C71.5077 87.7031 72.0678 82.4518 72.0678 82.4518C72.0678 82.4518 71.9621 81.309 72.746 81.3364C74.1589 81.3858 73.0551 86.9223 72.9343 87.4468C72.8497 87.8117 73.5838 87.8786 73.6486 87.4825C73.7148 87.0748 74.0559 82.2307 75.4948 82.2697C76.5993 82.2999 74.6392 86.8318 75.2594 87.8825C75.8795 88.9331 76.31 84.314 77.3648 84.3776C77.7571 84.4018 78.047 84.4632 77.3259 87.077C76.9384 88.4816 75.7997 91.0647 74.8043 93.2034C73.1335 100.451 65.8001 123.637 54.303 119.393C47.8694 117.018 44.8676 105.26 44.8676 105.26L50.4538 105.16Z" fill="#FFBE9D"/>
<path d="M73.2813 87.7472C73.2813 87.7472 73.2295 87.7548 73.1319 87.7307C73.0439 87.7087 72.8699 87.621 72.8972 87.441C72.9116 87.1299 72.973 86.6762 73.0623 86.0897C73.1292 85.4993 73.3482 84.7915 73.3496 83.9526C73.3578 83.5329 73.3448 83.0814 73.3148 82.6029C73.2957 82.3637 73.2902 82.1152 73.224 81.8809C73.1749 81.6538 72.9859 81.3937 72.7676 81.425L72.7437 81.4283L72.7328 81.4277C72.5111 81.4195 72.3378 81.5583 72.2662 81.7712C72.1884 81.9742 72.1686 82.2139 72.1843 82.4427L72.185 82.452L72.1843 82.4586C72.0383 83.7419 71.8814 85.1465 71.5177 86.6465C71.4673 86.8336 71.4154 87.0224 71.3431 87.2128C71.3069 87.3077 71.2653 87.4037 71.2135 87.5003C71.18 87.5496 71.1589 87.5968 71.1077 87.6489C71.0634 87.6928 71.0068 87.7691 70.8471 87.7806C70.5879 87.7653 70.5135 87.6072 70.4548 87.5173C70.3989 87.413 70.3641 87.311 70.3382 87.2089C70.2849 87.0048 70.2576 86.8013 70.2379 86.5966C70.169 85.7786 70.2044 84.9435 70.2795 84.0876C70.304 83.6553 70.4364 83.2235 70.3443 82.8312C70.3013 82.638 70.201 82.4433 70.0373 82.3632C69.9575 82.3242 69.8674 82.316 69.7692 82.3357C69.72 82.3473 69.6702 82.3632 69.6211 82.3873C69.5802 82.4191 69.589 82.4049 69.5522 82.4614C69.3434 82.8202 69.2363 83.2882 69.1197 83.7222C69.0091 84.1661 68.9136 84.6182 68.8249 85.0757C68.7376 85.5333 68.6564 85.9964 68.5889 86.4627C68.5329 86.9291 68.449 87.418 68.3017 87.8893C68.2266 88.1263 68.1441 88.3627 68.0206 88.5981C67.9571 88.7161 67.8916 88.8324 67.7634 88.9526C67.717 89.0036 67.5717 89.0996 67.3902 89.0617C67.2142 89.0146 67.1644 88.9021 67.1357 88.8368C67.0347 88.5482 67.0641 88.3084 67.0695 88.056C67.0832 87.807 67.1084 87.5612 67.1343 87.3154C67.1787 86.8929 67.2292 86.4748 67.2469 86.0633C67.2551 85.8581 67.2558 85.6529 67.2285 85.4598C67.2135 85.3654 67.193 85.2683 67.1528 85.1981C67.1343 85.1624 67.1098 85.1366 67.0927 85.1235C67.0832 85.1152 67.077 85.1191 67.0688 85.1108L66.9877 85.0922C66.5742 84.9545 66.4364 85.4176 66.3266 85.7906C66.2304 86.1796 66.1697 86.5813 66.0728 86.9774C65.9084 87.7675 65.6989 88.5526 65.5891 89.307C65.544 89.6806 65.5106 90.0696 65.6436 90.3862C65.791 90.7489 65.937 91.1077 66.0816 91.4621L66.0946 91.4945L66.0851 91.528C65.325 94.2252 64.2717 96.6382 63.2947 98.7807C62.3075 100.921 61.3203 102.771 60.4484 104.283C59.5799 105.797 58.8001 106.964 58.2618 107.759C57.9889 108.137 57.7733 108.435 57.613 108.657C57.4622 108.858 57.3803 108.962 57.3721 108.958C57.364 108.954 57.4295 108.843 57.5639 108.634C57.7126 108.407 57.9125 108.103 58.1649 107.718C58.6718 106.91 59.4209 105.735 60.2608 104.215C61.104 102.696 62.0646 100.843 63.0293 98.7022C63.9831 96.5624 65.0187 94.1429 65.7576 91.4742L65.761 91.54C65.617 91.19 65.471 90.8361 65.3244 90.4784C65.1565 90.0691 65.2063 89.6691 65.2473 89.2779C65.3591 88.4933 65.5625 87.7312 65.7255 86.9373C65.8217 86.545 65.8811 86.1423 65.9814 85.7308C66.0407 85.5262 66.0953 85.3193 66.2358 85.1097C66.3034 85.0082 66.4077 84.893 66.5804 84.831C66.7543 84.7701 66.9324 84.7877 67.0723 84.8151L67.1766 84.8387C67.2237 84.8557 67.2817 84.876 67.3185 84.9035C67.3984 84.9594 67.4434 85.0225 67.4761 85.0818C67.5416 85.2019 67.5607 85.3133 67.5798 85.4241C67.6112 85.6447 67.6092 85.8581 67.6017 86.0715C67.5833 86.4968 67.5328 86.9176 67.4884 87.3389C67.4625 87.5837 67.4373 87.8273 67.4243 88.0676C67.4141 88.3018 67.4031 88.5603 67.4707 88.7419C67.4864 88.7945 67.5171 88.7847 67.4816 88.8099L67.4802 88.8121C67.4836 88.7951 67.4755 88.8373 67.4768 88.8308L67.4775 88.8258C67.4789 88.8192 67.4775 88.8132 67.4755 88.8083C67.4721 88.8039 67.4584 88.7863 67.4666 88.7852C67.4714 88.7841 67.4857 88.777 67.5041 88.7578C67.573 88.6941 67.6412 88.5899 67.6945 88.4862C67.8057 88.2761 67.8869 88.0478 67.9585 87.8201C68.1024 87.3603 68.1823 86.9033 68.2402 86.4298C68.3098 85.958 68.3917 85.4927 68.4811 85.0324C68.5711 84.5721 68.6687 84.1167 68.7826 83.6668C68.9109 83.2141 68.9941 82.7796 69.2568 82.3275C69.2732 82.282 69.3844 82.1805 69.4526 82.1514C69.5229 82.1179 69.6006 82.0916 69.6852 82.0729C69.8531 82.0356 70.0584 82.0526 70.2126 82.1316C70.5224 82.2962 70.6172 82.5574 70.6738 82.7845C70.7243 83.0183 70.7168 83.2487 70.684 83.472C70.6527 83.686 70.6274 83.8961 70.6063 84.1079C70.5278 84.9523 70.4882 85.7835 70.5496 86.5785C70.5674 86.7766 70.5926 86.9724 70.6397 87.1579C70.6622 87.2506 70.6936 87.3406 70.7345 87.4174C70.7543 87.4553 70.7796 87.4915 70.8028 87.5112C70.8253 87.5529 70.8457 87.5014 70.843 87.5694C70.8116 87.5178 70.8416 87.5463 70.8662 87.5035C70.8928 87.48 70.9153 87.435 70.9406 87.3999C70.9849 87.3181 71.0238 87.2314 71.0586 87.1425C71.1282 86.9648 71.1807 86.7799 71.2312 86.5977C71.6017 85.1246 71.7756 83.7162 71.936 82.4422V82.4581C71.9223 82.2008 71.9435 81.9544 72.0376 81.7125C72.0854 81.5934 72.155 81.4721 72.2812 81.3783C72.4053 81.2818 72.5834 81.2384 72.7437 81.2428L72.7089 81.2455C72.96 81.2099 73.1422 81.3322 73.2465 81.4529C73.3537 81.5775 73.4014 81.7125 73.4383 81.8425C73.5072 82.1058 73.5058 82.356 73.5215 82.5963C73.5433 83.0786 73.5481 83.5329 73.531 83.957C73.5113 84.8124 73.2718 85.5212 73.1872 86.1039C73.0787 86.6866 72.9975 87.1392 72.9627 87.4437C72.9232 87.5886 73.0685 87.6819 73.1449 87.7065C73.2309 87.7367 73.2827 87.7411 73.2813 87.7472Z" fill="#EB996E"/>
<path d="M199.451 166.785C188.841 160.824 186.434 149.759 186.853 139.812C186.923 138.152 186.696 136.401 187.678 134.944C188.66 133.488 190.952 132.492 192.8 133.192C194.333 133.772 195.002 135.206 195.859 136.393C197 137.971 198.7 139.277 200.701 140.112C202.016 140.661 203.642 140.996 204.94 140.42C206.721 139.63 206.931 137.652 206.918 136C206.893 132.922 206.87 129.844 206.846 126.767C206.833 125.116 206.827 123.43 207.466 121.863C208.104 120.296 209.515 118.839 211.468 118.399C213.422 117.959 215.838 118.865 216.25 120.482C216.422 121.154 216.252 121.853 216.309 122.538C216.366 123.224 216.763 123.982 217.572 124.173C218.392 124.367 219.214 123.899 219.827 123.415C221.947 121.748 223.385 119.6 224.729 117.464C226.073 115.328 227.378 113.141 229.301 111.323C231.224 109.504 233.884 108.063 236.825 107.929C239.766 107.796 242.899 109.255 243.642 111.577C244.387 113.905 242.698 116.267 240.86 118.151C238.134 120.947 234.908 123.42 231.317 125.467C230.669 125.836 229.968 126.235 229.72 126.847C229.274 127.948 230.571 129.041 231.923 129.403C233.454 129.813 235.115 129.685 236.716 129.837C238.317 129.988 240.051 130.556 240.657 131.773C241.498 133.461 239.743 135.23 238.016 136.389C234.558 138.709 230.608 140.542 226.395 141.783C224.885 142.228 223.295 142.618 222.077 143.471C220.86 144.325 220.124 145.809 220.86 146.971C221.596 148.136 223.485 148.508 225.068 148.272C226.649 148.036 228.066 147.345 229.574 146.887C232.396 146.031 236.039 146.187 237.847 148.148C239.035 149.438 239.14 151.233 238.539 152.769C237.939 154.306 236.72 155.63 235.426 156.85C230.903 161.117 225.114 164.553 218.567 166.378C212.022 168.204 205.956 168.698 199.451 166.785Z" fill="#AC6F6F"/>
<path d="M199.288 174.161C199.737 170.221 200.811 165.567 202.644 160.552C204.464 155.532 207.027 150.163 209.947 144.621C210.683 143.237 211.411 141.871 212.128 140.524C212.848 139.181 213.562 137.849 214.36 136.58C215.943 134.038 217.706 131.69 219.466 129.503C221.225 127.316 222.994 125.291 224.664 123.408C226.341 121.527 227.945 119.798 229.491 118.271C232.57 115.208 235.413 112.979 237.442 111.512C238.455 110.776 239.264 110.226 239.818 109.859C240.085 109.684 240.295 109.548 240.452 109.445C240.596 109.353 240.672 109.308 240.676 109.312C240.681 109.316 240.613 109.369 240.477 109.469C240.325 109.577 240.123 109.722 239.867 109.906C239.329 110.288 238.536 110.852 237.54 111.601C235.544 113.093 232.742 115.338 229.697 118.409C228.168 119.939 226.581 121.672 224.918 123.557C223.26 125.445 221.503 127.471 219.756 129.658C218.008 131.843 216.259 134.185 214.689 136.715C213.898 137.977 213.193 139.298 212.472 140.645C211.756 141.991 211.029 143.358 210.294 144.74C207.376 150.278 204.81 155.631 202.976 160.631C201.131 165.627 200.034 170.257 199.554 174.181" fill="#263238"/>
<path d="M214.468 136.571C214.443 136.574 214.372 136.324 214.267 135.867C214.16 135.41 214.031 134.746 213.887 133.924C213.596 132.279 213.292 129.998 212.968 127.481C212.644 124.964 212.3 122.692 211.979 121.056C211.822 120.238 211.686 119.576 211.585 119.12C211.487 118.663 211.444 118.408 211.47 118.403C211.495 118.399 211.586 118.645 211.728 119.095C211.873 119.545 212.05 120.202 212.241 121.019C212.631 122.651 213.018 124.929 213.342 127.449C213.654 129.932 213.936 132.18 214.151 133.896C214.254 134.672 214.342 135.325 214.413 135.849C214.473 136.31 214.495 136.568 214.468 136.571Z" fill="#263238"/>
<path d="M240.868 132.6C240.869 132.621 240.493 132.656 239.815 132.701C239.138 132.75 238.157 132.816 236.949 132.928C234.531 133.138 231.204 133.522 227.555 134.075C223.907 134.634 220.633 135.251 218.28 135.754C217.101 135.998 216.154 136.217 215.498 136.365C214.843 136.514 214.477 136.588 214.468 136.568C214.46 136.548 214.811 136.436 215.454 136.251C216.098 136.068 217.036 135.817 218.21 135.544C220.551 134.987 223.827 134.334 227.486 133.773C231.145 133.219 234.492 132.867 236.924 132.712C238.139 132.627 239.126 132.594 239.808 132.582C240.489 132.573 240.866 132.578 240.868 132.6Z" fill="#263238"/>
<path d="M202.968 160.159C202.956 160.163 202.894 160.074 202.787 159.9C202.665 159.692 202.516 159.438 202.335 159.132C201.947 158.463 201.416 157.484 200.781 156.268C199.507 153.836 197.879 150.432 196.146 146.656C194.412 142.879 192.826 139.467 191.617 137.017C191.025 135.826 190.537 134.847 190.174 134.119C190.02 133.803 189.892 133.542 189.788 133.328C189.703 133.147 189.664 133.049 189.676 133.044C189.689 133.04 189.75 133.129 189.857 133.304C189.979 133.511 190.128 133.764 190.309 134.071C190.697 134.739 191.228 135.718 191.864 136.935C193.137 139.367 194.765 142.771 196.499 146.548C198.232 150.325 199.819 153.736 201.028 156.186C201.62 157.377 202.108 158.356 202.47 159.084C202.625 159.4 202.752 159.661 202.857 159.875C202.941 160.057 202.98 160.154 202.968 160.159Z" fill="#263238"/>
<path d="M238.049 151.067C238.053 151.077 237.933 151.116 237.701 151.182C237.427 151.256 237.09 151.347 236.683 151.457C235.742 151.702 234.472 152.033 232.926 152.435C229.755 153.263 225.39 154.446 220.57 155.758C215.748 157.071 211.366 158.223 208.171 158.998C206.574 159.386 205.279 159.689 204.378 159.883C203.961 159.971 203.618 160.044 203.339 160.103C203.1 160.15 202.973 160.169 202.969 160.159C202.966 160.148 203.086 160.109 203.317 160.043C203.591 159.97 203.928 159.879 204.336 159.769C205.277 159.524 206.546 159.193 208.091 158.79C211.263 157.964 215.628 156.78 220.45 155.467C225.271 154.154 229.652 153.003 232.847 152.228C234.444 151.84 235.739 151.537 236.641 151.342C237.058 151.255 237.401 151.182 237.68 151.123C237.918 151.076 238.045 151.057 238.049 151.067Z" fill="#263238"/>
<path d="M186.906 191.402L113.303 191.129C104.451 191.096 97.3067 185.3 97.3443 178.18L98.1241 29.7852C98.1616 22.6619 105.374 16.9131 114.231 16.9454L187.835 17.2187C196.687 17.2516 203.831 23.0482 203.794 30.167L203.014 178.563C202.976 185.686 195.764 191.435 186.906 191.402Z" fill="#263238"/>
<path d="M187.73 22.0486L173.459 21.9959C171.546 21.9888 169.987 23.2875 169.979 24.8961L169.968 26.9777C169.959 28.5864 168.401 29.8851 166.487 29.878L138.671 29.7748C136.757 29.7677 135.213 28.4575 135.221 26.8488L135.232 24.7672C135.24 23.1585 133.696 21.8483 131.782 21.8412L126.763 21.8226L114.273 21.7765C108.071 21.7534 103.019 25.78 102.993 30.7684L102.232 175.613C102.206 180.599 107.209 184.658 113.408 184.681L186.865 184.954C193.067 184.977 198.118 180.951 198.145 175.962L198.906 31.1174C198.932 26.1312 193.929 22.0716 187.73 22.0486Z" fill="#FAFAFA"/>
<path d="M191.722 151.602H109.415C107.236 151.602 105.469 150.181 105.469 148.429V54.1861C105.469 52.4337 107.236 51.0127 109.415 51.0127H191.722C193.901 51.0127 195.668 52.4332 195.668 54.1861V148.429C195.668 150.181 193.902 151.602 191.722 151.602Z" fill="#EBEBEB"/>
<path d="M141.227 73.7567L122.88 107.552C120.452 112.025 124.911 116.943 130.947 116.451C143.694 115.411 162.794 113.828 176.033 112.728C182.601 112.182 185.872 106.05 181.84 101.844L153.725 72.5178C150.328 68.9757 143.452 69.6571 141.227 73.7567Z" fill="#E8505B"/>
<g opacity="0.5">
<path d="M142.171 76.0295C142.154 76.0235 142.205 75.9126 142.322 75.6992C142.384 75.5939 142.451 75.4573 142.554 75.3058C142.674 75.1588 142.811 74.9904 142.965 74.8C143.132 74.6145 143.357 74.4307 143.587 74.2151C143.859 74.0362 144.126 73.8025 144.485 73.6269C145.165 73.2319 146.077 72.906 147.159 72.7562C148.236 72.6075 149.503 72.6498 150.766 73.0355C151.383 73.25 152.017 73.5101 152.575 73.8941C152.715 73.9896 152.856 74.0856 152.999 74.1827C153.129 74.2892 153.252 74.4049 153.38 74.5174C153.647 74.744 153.867 74.9799 154.101 75.2191C155.969 77.1356 158.092 79.3165 160.44 81.7268C165.119 86.5638 170.687 92.3203 176.868 98.7111C177.639 99.5132 178.418 100.325 179.208 101.146C180.044 102.018 180.603 103.088 180.789 104.21C181.179 106.453 179.991 108.894 177.617 110.306C176.446 111.018 175.005 111.451 173.535 111.573C172.149 111.688 170.752 111.805 169.345 111.922C166.53 112.155 163.674 112.392 160.784 112.631C155.001 113.106 149.356 113.569 143.903 114.016C141.177 114.238 138.498 114.455 135.876 114.669C135.22 114.722 134.568 114.775 133.919 114.827L132.948 114.905L131.913 114.932C130.534 114.897 129.181 114.552 128.057 113.956C125.786 112.774 124.467 110.654 124.573 108.604C124.605 108.349 124.604 108.093 124.664 107.843C124.732 107.596 124.789 107.347 124.869 107.104L125.187 106.399C125.298 106.174 125.42 105.968 125.535 105.753C126.002 104.902 126.462 104.064 126.915 103.24C128.727 99.9477 130.417 96.8802 131.959 94.0793C135.051 88.4813 137.569 83.9571 139.332 80.8385C140.22 79.2902 140.911 78.0842 141.386 77.2558C141.869 76.4399 142.137 76.0174 142.171 76.0295C142.204 76.041 142.002 76.4871 141.585 77.3243C141.152 78.1676 140.523 79.395 139.714 80.9713C138.069 84.131 135.655 88.692 132.652 94.3212C131.146 97.1353 129.497 100.217 127.726 103.524C127.282 104.351 126.831 105.192 126.373 106.046C126.261 106.258 126.136 106.476 126.034 106.687L125.759 107.311C125.692 107.525 125.645 107.744 125.586 107.961C125.534 108.18 125.54 108.405 125.512 108.627C125.433 110.416 126.606 112.272 128.592 113.293C129.575 113.808 130.746 114.101 131.947 114.127L132.85 114.1L133.82 114.019C134.468 113.964 135.12 113.909 135.776 113.855C138.397 113.635 141.075 113.41 143.8 113.181C149.252 112.728 154.896 112.26 160.677 111.779C163.567 111.541 166.423 111.306 169.238 111.075C170.646 110.959 172.043 110.845 173.429 110.731C174.732 110.624 175.97 110.251 176.992 109.635C179.061 108.416 180.115 106.272 179.782 104.318C179.623 103.34 179.146 102.407 178.41 101.633C177.628 100.81 176.855 99.9971 176.091 99.1939C169.977 92.7609 164.471 86.9665 159.844 82.0971C157.542 79.6583 155.46 77.4516 153.63 75.5121C153.401 75.2696 153.18 75.0244 152.948 74.8214C152.832 74.716 152.722 74.6074 152.605 74.507C152.476 74.4159 152.349 74.3254 152.222 74.2365C151.72 73.8738 151.142 73.6258 150.578 73.4157C149.421 73.0377 148.241 72.9718 147.223 73.0871C146.202 73.2034 145.325 73.4859 144.659 73.8409C144.306 73.9962 144.043 74.2107 143.769 74.3715C143.537 74.5695 143.308 74.7363 143.133 74.9075C142.966 75.0836 142.819 75.2394 142.691 75.375C142.575 75.516 142.495 75.6427 142.419 75.7398C142.272 75.9362 142.187 76.0355 142.171 76.0295Z" fill="white"/>
</g>
<path opacity="0.5" d="M145.11 83.7523L147.849 97.2208C148.073 98.3219 149.282 99.1164 150.669 99.0725C152.132 99.0258 153.293 98.0657 153.309 96.8888L153.5 83.118C153.514 82.075 152.389 81.2581 151.101 81.3755L146.996 81.7497C145.771 81.8611 144.912 82.774 145.11 83.7523Z" fill="white"/>
<path opacity="0.5" d="M155.726 105.817C155.224 107.608 153.012 108.733 150.785 108.329C148.558 107.925 147.159 106.146 147.662 104.356C148.164 102.565 150.376 101.44 152.603 101.844C154.829 102.247 156.227 104.026 155.726 105.817Z" fill="white"/>
<path d="M121.708 65.764L108.046 75.8116C106.238 77.141 106.88 79.5441 109.207 80.1586C114.122 81.4567 121.491 83.3919 126.6 84.7322C129.134 85.3972 131.592 83.5669 130.962 81.4831L126.571 66.9552C126.041 65.2005 123.365 64.5449 121.708 65.764Z" fill="#E8505B"/>
<g opacity="0.5">
<path d="M121.593 66.7271C121.577 66.7161 121.707 66.5389 122.107 66.3326C122.494 66.1334 123.219 65.9129 124.133 66.0813C124.582 66.1652 125.068 66.3501 125.483 66.6711C125.899 66.9822 126.198 67.4853 126.332 67.9676C126.644 68.9211 126.998 70.0025 127.389 71.1959C128.149 73.6001 129.05 76.4515 130.051 79.6156C130.174 80.0134 130.298 80.4161 130.424 80.8237C130.567 81.2928 130.557 81.8058 130.383 82.2865C130.041 83.2499 129.024 84.0614 127.747 84.2924C127.116 84.412 126.431 84.379 125.816 84.2172C125.281 84.0773 124.741 83.9363 124.198 83.7947C123.112 83.51 122.01 83.2208 120.895 82.9284C118.665 82.3391 116.489 81.7636 114.386 81.2078C113.336 80.928 112.305 80.6531 111.294 80.3837C111.042 80.3162 110.791 80.2487 110.541 80.1824L110.167 80.082L109.744 79.9426C109.195 79.7281 108.724 79.3906 108.405 78.9863C107.755 78.1792 107.701 77.1368 108.205 76.3258C108.329 76.1217 108.488 75.9385 108.661 75.7662L108.946 75.5303L109.21 75.3377C109.558 75.087 109.901 74.8401 110.237 74.5976C111.586 73.6314 112.842 72.7305 113.993 71.9064C116.295 70.2659 118.169 68.9497 119.481 68.0543C120.794 67.1578 121.543 66.6832 121.593 66.7271C121.643 66.771 120.988 67.3284 119.762 68.2995C118.536 69.2706 116.739 70.6555 114.502 72.353C113.379 73.2007 112.151 74.1274 110.835 75.1215C110.504 75.3695 110.168 75.6219 109.826 75.8781L109.574 76.0696L109.369 76.2457C109.248 76.3736 109.135 76.5063 109.051 76.6534C108.703 77.2344 108.758 77.9877 109.229 78.5545C109.46 78.8381 109.79 79.0691 110.18 79.2173L110.483 79.3138L110.858 79.4104C111.108 79.4751 111.361 79.5404 111.614 79.6057C112.627 79.8685 113.661 80.1368 114.714 80.4101C116.819 80.9604 118.997 81.5304 121.228 82.1142C122.342 82.4083 123.444 82.6985 124.529 82.9849C125.072 83.1287 125.611 83.2713 126.145 83.4123C126.601 83.5319 127.068 83.555 127.516 83.4743C128.416 83.3201 129.161 82.7364 129.408 82.0555C129.535 81.7153 129.551 81.3532 129.45 81.0075C129.332 80.6015 129.214 80.1999 129.098 79.8032C128.181 76.6227 127.354 73.7565 126.658 71.3402C126.324 70.1364 126.021 69.0446 125.755 68.0822C125.643 67.6033 125.448 67.2483 125.121 66.9575C124.799 66.6777 124.404 66.4999 124.026 66.4044C123.258 66.2124 122.598 66.3485 122.208 66.4862C121.807 66.6272 121.626 66.7589 121.593 66.7271Z" fill="white"/>
</g>
<path opacity="0.5" d="M121.102 69.9631L119.365 75.2934C119.223 75.729 119.508 76.1816 120.028 76.3484C120.578 76.5246 121.201 76.3232 121.448 75.8909L124.327 70.8355C124.545 70.4526 124.297 70.0026 123.797 69.8765L122.206 69.4732C121.731 69.3525 121.229 69.5763 121.102 69.9631Z" fill="white"/>
<path opacity="0.5" d="M120.517 79.5031C119.967 80.0979 118.922 80.2208 118.182 79.778C117.442 79.3352 117.29 78.4947 117.84 77.8999C118.391 77.3057 119.436 77.1823 120.176 77.6251C120.915 78.0678 121.068 78.9089 120.517 79.5031Z" fill="white"/>
<path d="M174.131 68.8793L171.032 80.2393C170.622 81.7426 172.376 83.0446 174.206 82.5941C178.07 81.6438 183.859 80.2124 187.87 79.2193C189.861 78.7266 190.405 76.668 188.837 75.5658L177.903 67.8796C176.582 66.9513 174.507 67.5016 174.131 68.8793Z" fill="#E8505B"/>
<g opacity="0.5">
<path d="M174.597 69.5349C174.573 69.5322 174.549 69.3703 174.683 69.0883C174.814 68.8156 175.153 68.4014 175.842 68.1688C176.181 68.0552 176.603 67.9932 177.06 68.047C177.509 68.092 178.003 68.3136 178.361 68.572C179.099 69.0664 179.934 69.6249 180.853 70.24C182.692 71.4975 184.868 72.986 187.282 74.6369C187.584 74.8465 187.889 75.0583 188.198 75.2728C188.566 75.529 188.859 75.8741 189.023 76.2582C189.358 77.0269 189.156 77.9475 188.443 78.5829C188.093 78.9011 187.617 79.1375 187.116 79.261C186.697 79.3658 186.274 79.4711 185.847 79.577C184.995 79.7883 184.13 80.0028 183.254 80.2201C181.5 80.6502 179.788 81.0699 178.135 81.4754C177.307 81.6762 176.495 81.8732 175.698 82.0663L175.104 82.2095L174.809 82.2803L174.447 82.3467C173.957 82.4108 173.446 82.3631 172.999 82.2144C172.097 81.922 171.457 81.2499 171.32 80.5213C171.284 80.3397 171.284 80.1575 171.299 79.9786L171.35 79.7153L171.412 79.4958C171.494 79.21 171.576 78.9285 171.656 78.652C171.981 77.5486 172.285 76.5194 172.561 75.5768C173.124 73.6981 173.596 72.1811 173.946 71.137C174.297 70.0935 174.524 69.5223 174.597 69.5349C174.668 69.5475 174.578 70.1434 174.352 71.2094C174.127 72.2755 173.766 73.8123 173.298 75.7079C173.06 76.6576 172.799 77.694 172.52 78.8056C172.449 79.0838 172.376 79.3669 172.303 79.6544L172.25 79.8673L172.22 80.0445C172.215 80.163 172.218 80.282 172.245 80.3995C172.345 80.868 172.778 81.3031 173.361 81.482C173.65 81.5736 173.97 81.5983 174.282 81.5538L174.515 81.5083L174.808 81.4342L175.4 81.2845C176.193 81.0847 177.004 80.8812 177.828 80.6738C179.479 80.2628 181.188 79.8376 182.94 79.402C183.816 79.1864 184.682 78.9735 185.535 78.7634C185.962 78.6591 186.386 78.5554 186.806 78.4523C187.146 78.3683 187.438 78.2235 187.665 78.0227C188.125 77.6243 188.268 77.0164 188.059 76.5221C187.956 76.2741 187.776 76.0502 187.532 75.8747C187.23 75.658 186.93 75.444 186.635 75.2322C184.278 73.5292 182.152 71.994 180.357 70.697C179.475 70.0463 178.676 69.4559 177.968 68.9336C177.354 68.4003 176.568 68.3306 175.984 68.4826C175.398 68.6285 175.051 68.944 174.875 69.1673C174.693 69.3961 174.643 69.5443 174.597 69.5349Z" fill="white"/>
</g>
<path opacity="0.5" d="M176.095 71.7796L177.969 75.8112C178.122 76.1409 178.557 76.3269 178.983 76.2446C179.431 76.1579 179.717 75.804 179.633 75.4392L178.641 71.1695C178.566 70.8463 178.156 70.6488 177.766 70.7487L176.524 71.0669C176.155 71.1618 175.958 71.4866 176.095 71.7796Z" fill="white"/>
<path opacity="0.5" d="M181.061 78.0831C181.042 78.6619 180.443 79.119 179.723 79.1036C179.004 79.0888 178.435 78.6071 178.454 78.0282C178.473 77.4494 179.072 76.9924 179.792 77.0072C180.511 77.0225 181.08 77.5043 181.061 78.0831Z" fill="white"/>
<path d="M116.169 119.182C116.151 119.195 115.981 119.069 115.688 118.826C115.538 118.707 115.362 118.556 115.18 118.365C114.995 118.177 114.769 117.97 114.565 117.715C114.125 117.223 113.676 116.595 113.255 115.867C112.852 115.134 112.488 114.297 112.238 113.392C112.002 112.484 111.905 111.601 111.896 110.798C111.907 109.995 111.994 109.274 112.143 108.68C112.199 108.38 112.298 108.117 112.371 107.884C112.439 107.65 112.522 107.454 112.597 107.296C112.74 106.978 112.83 106.806 112.853 106.813C112.918 106.83 112.609 107.534 112.391 108.713C112.276 109.301 112.216 110.01 112.223 110.795C112.25 111.581 112.353 112.442 112.585 113.331C112.829 114.216 113.176 115.036 113.554 115.76C113.95 116.478 114.367 117.104 114.773 117.603C115.578 118.604 116.219 119.145 116.169 119.182Z" fill="#263238"/>
<path d="M122.111 119.872C122.096 119.888 121.89 119.782 121.527 119.575C121.343 119.474 121.124 119.344 120.89 119.172C120.654 119.003 120.369 118.822 120.1 118.585C119.529 118.136 118.923 117.542 118.331 116.838C117.757 116.125 117.207 115.297 116.772 114.379C116.351 113.456 116.09 112.541 115.942 111.699C115.815 110.855 115.788 110.087 115.853 109.447C115.863 109.126 115.93 108.84 115.971 108.588C116.007 108.335 116.066 108.121 116.123 107.947C116.228 107.599 116.297 107.41 116.321 107.415C116.39 107.427 116.154 108.196 116.104 109.457C116.072 110.087 116.124 110.839 116.265 111.663C116.428 112.484 116.692 113.377 117.104 114.279C117.53 115.176 118.058 115.989 118.604 116.695C119.169 117.391 119.742 117.987 120.28 118.445C121.349 119.37 122.154 119.827 122.111 119.872Z" fill="#263238"/>
<path d="M185.566 114.031C185.507 114.006 186.038 113.241 186.64 111.923C186.947 111.267 187.239 110.464 187.493 109.561C187.728 108.654 187.913 107.646 187.984 106.579C188.04 105.511 187.977 104.492 187.851 103.572C187.706 102.654 187.51 101.832 187.283 101.155C186.84 99.7974 186.403 98.9947 186.465 98.9739C186.487 98.9662 186.61 99.1609 186.812 99.5225C187.022 99.8813 187.271 100.421 187.525 101.1C187.786 101.779 188.011 102.608 188.175 103.539C188.321 104.471 188.396 105.507 188.338 106.593C188.267 107.677 188.069 108.702 187.812 109.619C187.537 110.533 187.215 111.341 186.875 111.996C186.541 112.652 186.229 113.17 185.977 113.512C185.732 113.856 185.588 114.041 185.566 114.031Z" fill="#263238"/>
<path d="M191.043 112.902C190.985 112.877 191.41 112.252 191.866 111.174C192.099 110.637 192.31 109.979 192.481 109.242C192.636 108.502 192.739 107.679 192.737 106.812C192.724 105.946 192.605 105.124 192.438 104.386C192.254 103.65 192.031 102.995 191.788 102.461C191.313 101.388 190.877 100.768 190.934 100.743C190.955 100.733 191.078 100.881 191.283 101.159C191.495 101.433 191.752 101.854 192.024 102.39C192.301 102.924 192.554 103.585 192.759 104.334C192.948 105.085 193.078 105.925 193.093 106.811C193.095 107.696 192.979 108.537 192.803 109.29C192.611 110.041 192.37 110.705 192.103 111.242C191.842 111.781 191.591 112.205 191.385 112.482C191.185 112.762 191.064 112.911 191.043 112.902Z" fill="#263238"/>
<path d="M187.533 144.156H116.595C115.003 144.156 113.712 143.118 113.712 141.838V130.494C113.712 129.214 115.002 128.176 116.595 128.176H187.533C189.125 128.176 190.415 129.214 190.415 130.494V141.838C190.415 143.118 189.125 144.156 187.533 144.156Z" stroke="#E8505B" stroke-miterlimit="10"/>
<path d="M141.53 139.176H137.63L136.79 141.046H136.02L139.22 134.046H139.95L143.15 141.046H142.37L141.53 139.176ZM141.26 138.576L139.58 134.816L137.9 138.576H141.26ZM144.308 134.046H145.048V140.406H148.968V141.046H144.308V134.046ZM155.147 140.406V141.046H150.197V134.046H154.997V134.686H150.937V137.176H154.557V137.806H150.937V140.406H155.147ZM161.666 141.046L160.066 138.796C159.886 138.816 159.699 138.826 159.506 138.826H157.626V141.046H156.886V134.046H159.506C160.399 134.046 161.099 134.259 161.606 134.686C162.113 135.113 162.366 135.699 162.366 136.446C162.366 136.993 162.226 137.456 161.946 137.836C161.673 138.209 161.279 138.479 160.766 138.646L162.476 141.046H161.666ZM159.486 138.196C160.179 138.196 160.709 138.043 161.076 137.736C161.443 137.429 161.626 136.999 161.626 136.446C161.626 135.879 161.443 135.446 161.076 135.146C160.709 134.839 160.179 134.686 159.486 134.686H157.626V138.196H159.486ZM165.375 134.686H162.915V134.046H168.575V134.686H166.115V141.046H165.375V134.686Z" fill="#E8505B"/>
<path d="M195.669 46.6914H105.47V56.6556H195.669V46.6914Z" fill="#AA8989"/>
<path d="M111.028 53.1306C111.966 53.1306 112.726 52.5192 112.726 51.765C112.726 51.0108 111.966 50.3994 111.028 50.3994C110.09 50.3994 109.33 51.0108 109.33 51.765C109.33 52.5192 110.09 53.1306 111.028 53.1306Z" fill="#F5F5F5"/>
<path d="M117.991 53.1306C118.929 53.1306 119.689 52.5192 119.689 51.765C119.689 51.0108 118.929 50.3994 117.991 50.3994C117.053 50.3994 116.293 51.0108 116.293 51.765C116.293 52.5192 117.053 53.1306 117.991 53.1306Z" fill="#F5F5F5"/>
<path d="M126.651 51.765C126.651 52.5189 125.891 53.1306 124.953 53.1306C124.015 53.1306 123.255 52.5194 123.255 51.765C123.255 51.0106 124.015 50.3994 124.953 50.3994C125.891 50.3994 126.651 51.0106 126.651 51.765Z" fill="#F5F5F5"/>
<path d="M53.0404 64.6746C52.3336 64.5347 48.9292 63.8621 42.3435 62.5606L42.422 62.5508C40.0696 63.7573 36.8829 64.7311 33.1885 64.7772C31.3506 64.7717 29.4069 64.594 27.4666 64.1051C25.5283 63.6195 23.6221 62.8141 21.8906 61.7278C18.4248 59.5721 15.7266 56.1166 15.1439 52.14C14.8465 50.1648 15.0457 48.0876 15.8098 46.0992C16.5882 44.1158 17.9309 42.2367 19.7402 40.6549C20.6571 39.8193 21.7364 39.1252 22.8382 38.4844C23.4168 38.1975 23.9865 37.899 24.5827 37.6466L25.4922 37.2944L25.9458 37.1193L26.4173 36.9805C28.9102 36.2031 31.5621 35.9024 34.1082 36.0385C36.657 36.1702 39.0981 36.7441 41.2335 37.6471C43.3724 38.5486 45.2062 39.7732 46.6458 41.163C48.0894 42.5533 49.138 44.1076 49.8052 45.6768C50.4724 47.2481 50.776 48.8283 50.7938 50.3212C50.8163 53.3207 49.6503 55.8944 48.2313 57.773L48.2326 57.6957C51.2059 62.0125 52.7088 64.1934 53.0404 64.6746C52.6972 64.1989 51.1424 62.0416 48.0648 57.7725L48.0368 57.7341L48.0662 57.6946C49.4491 55.8253 50.5761 53.2801 50.5345 50.3234C50.5072 48.8513 50.1982 47.297 49.5344 45.7536C48.8699 44.2118 47.8315 42.6871 46.4076 41.3243C44.9872 39.9619 43.1827 38.7637 41.0807 37.8825C38.9821 36.9997 36.5868 36.4412 34.0864 36.315C31.588 36.1844 28.9886 36.4818 26.5462 37.245L26.0843 37.381L25.6402 37.5533L24.7485 37.899C24.1645 38.1464 23.6058 38.44 23.0388 38.7209C21.9595 39.3502 20.9007 40.03 20.0022 40.8497C18.229 42.4002 16.9123 44.2415 16.1468 46.1848C15.3957 48.1331 15.1978 50.1697 15.4864 52.1081C16.0506 56.0086 18.6868 59.4037 22.0844 61.5308C23.7818 62.6023 25.6518 63.3995 27.5559 63.8835C29.4621 64.3701 31.3744 64.5523 33.1851 64.5654C36.8256 64.5347 39.9762 63.5921 42.3149 62.4147L42.3524 62.396L42.394 62.4048C48.9483 63.8017 52.3377 64.5248 53.0404 64.6746Z" fill="#263238"/>
<path d="M31.4338 44.0093L31.9994 51.195C32.0458 51.7827 32.6291 52.2501 33.3598 52.2852C34.1307 52.322 34.802 51.8666 34.8873 51.2494L35.8793 44.0274C35.9544 43.4804 35.4167 43.0041 34.7325 43.0118L32.5527 43.0365C31.9032 43.0442 31.3929 43.4875 31.4338 44.0093Z" fill="#E8505B"/>
<path d="M35.7283 56.3274C35.349 57.2469 34.1148 57.7446 32.9714 57.4395C31.8286 57.1345 31.2091 56.142 31.5885 55.2224C31.9678 54.3028 33.202 53.8052 34.3454 54.1103C35.4889 54.4159 36.1083 55.4084 35.7283 56.3274Z" fill="#E8505B"/>
</svg>
