<svg width="190" height="176" viewBox="0 0 190 176" fill="none" xmlns="http://www.w3.org/2000/svg">
<path d="M1.16505 89.6933C-10.0687 129.665 62.6768 148.518 101.549 142.702C150.73 135.343 178.451 107.946 177.699 65.7286C176.953 23.8967 130.813 -0.0694761 96.0514 17.5656C78.9166 26.2586 66.3682 42.0179 49.2814 51.0682C28.9951 61.8121 8.18521 64.7138 1.16505 89.6933Z" fill="#F5DECD"/>
<path d="M97.1092 175.722C148.411 175.722 190 173.241 190 170.18C190 167.119 148.411 164.637 97.1092 164.637C45.807 164.637 4.21826 167.119 4.21826 170.18C4.21826 173.241 45.807 175.722 97.1092 175.722Z" fill="#E7E6E3"/>
<path d="M55.9231 16.0591C52.305 12.5885 46.3331 11.9248 44.1087 15.5373C41.8842 19.1493 43.1375 22.9668 38.5708 26.9724C35.4534 29.7067 37.7664 38.0942 55.5274 37.3252C63.9369 36.961 61.0925 28.0439 60.8669 23.798C60.6417 19.5521 60.612 14.4075 55.9231 16.0591Z" fill="#263238"/>
<path d="M48.9071 163.417L44.6039 163.588L44.522 158.833L48.8252 158.661L48.9071 163.417Z" fill="#B55B52"/>
<path d="M44.3376 162.676H49.2086C49.3858 162.676 49.5391 162.802 49.577 162.979L50.4216 166.916C50.5093 167.325 50.1941 167.711 49.7844 167.704C48.0841 167.674 47.2582 167.572 45.1162 167.572C43.7982 167.572 40.3841 167.712 38.5646 167.712C36.7847 167.712 36.5121 165.874 37.2581 165.707C40.6012 164.961 42.5607 163.931 43.6329 162.948C43.8264 162.771 44.0784 162.676 44.3376 162.676Z" fill="#263238"/>
<path opacity="0.2" d="M44.5229 158.834L44.5603 161.046L48.865 160.859L48.8276 158.662L44.5229 158.834Z" fill="black"/>
<path d="M38.1836 67.5864C37.2091 72.8632 38.3302 98.6582 39.7919 110.046C41.7337 125.172 43.7473 160.295 43.7473 160.295L49.5228 159.94C49.5228 159.94 50.9663 122.956 49.7824 110.811C50.4493 95.1823 52.0989 67.8836 52.0989 67.8836L38.1836 67.5864Z" fill="#5C81F5"/>
<path opacity="0.2" d="M51.1133 84.8774C51.3122 80.9174 48.5667 77.3989 47.4621 84.8612C46.7581 89.6162 48.2078 97.9464 50.1036 103.832C50.4036 97.7364 50.775 90.9192 51.1133 84.8774Z" fill="black"/>
<path d="M80.5177 148.62L77.7212 151.35L73.9287 147.202L76.7247 144.472L80.5177 148.62Z" fill="#B55B52"/>
<path d="M77.0042 151.425L79.8682 147.399C79.9722 147.253 80.1528 147.213 80.3028 147.303L83.6344 149.318C83.9798 149.527 84.0728 150.053 83.827 150.387C82.8055 151.772 82.2469 152.384 80.9874 154.154C80.2127 155.244 79.3163 156.741 78.246 158.246C77.1997 159.717 75.7159 158.675 76.034 157.944C77.4617 154.667 76.8629 153.758 76.7862 152.195C76.7723 151.914 76.8519 151.639 77.0042 151.425Z" fill="#263238"/>
<path opacity="0.2" d="M73.9302 147.202L75.8849 149.341L78.6603 146.586L76.7276 144.471L73.9302 147.202Z" fill="black"/>
<path d="M44.8501 67.728C44.8501 67.728 51.039 101.029 52.6483 113.94C53.6098 121.655 74.7336 149.43 74.7336 149.43L78.343 145.549C78.343 145.549 70.6114 125.216 61.2974 113.156C60.928 99.0156 62.4999 75.747 57.1537 67.9909L44.8501 67.728Z" fill="#5C81F5"/>
<path d="M39.4177 42.2069C39.4115 45.0689 39.285 47.8733 39.0814 50.706C38.885 53.5343 38.6018 56.3611 38.1558 59.2017L38.0739 59.7337L37.9651 60.3353C37.8827 60.7313 37.7922 61.119 37.6896 61.494C37.4798 62.2444 37.2359 62.96 36.9753 63.658C36.4536 65.0521 35.8351 66.3669 35.1892 67.6513C33.8737 70.2148 32.4033 72.6163 30.7385 74.9429C30.3514 75.4838 29.6088 75.6017 29.0794 75.2062C28.6146 74.8592 28.469 74.2316 28.7023 73.7182L28.7157 73.6893C29.8416 71.2041 30.9325 68.6528 31.884 66.1246C32.3669 64.8617 32.7895 63.5866 33.1536 62.3339C33.3294 61.7069 33.4822 61.0833 33.5987 60.4753C33.6609 60.1718 33.7084 59.8742 33.7491 59.5825L33.798 59.1473L33.844 58.6392C34.0907 55.9304 34.2315 53.1774 34.3657 50.423C34.4759 47.6716 34.5631 44.8854 34.6421 42.155L34.6431 42.1295C34.6819 40.7824 35.7824 39.7227 37.1008 39.7623C38.3953 39.801 39.4192 40.8911 39.4177 42.2069Z" fill="#B55B52"/>
<path d="M37.8552 38.6321C31.97 40.3869 32.7303 51.3217 32.7303 51.3217L41.0953 53.6238C41.0953 53.6238 42.4827 45.6152 42.3601 42.7438C42.2326 39.7554 41.0991 37.6643 37.8552 38.6321Z" fill="#5C81F5"/>
<path d="M29.3249 73.084L26.3823 75.645L30.5107 77.3685C30.5107 77.3685 31.7894 75.3768 31.1972 73.4873L29.3249 73.084Z" fill="#B55B52"/>
<path d="M26.8998 79.5536L28.786 79.794C29.2172 79.8488 29.6302 79.6006 29.7926 79.189L30.5103 77.3685L26.3819 75.645L26.0667 78.4719C26.0078 79.0049 26.3791 79.4871 26.8998 79.5536Z" fill="#B55B52"/>
<path d="M35.9499 41.4746C35.6893 52.4374 38.1562 60.4431 38.1835 67.5868L57.1532 67.9926C57.0109 60.8318 57.0722 56.1639 60.0857 43.3372C60.6396 40.9798 59.0978 38.6449 56.7512 38.287C55.6163 38.1143 54.3519 37.9571 53.0756 37.8671C49.8868 37.6414 47.2733 37.4813 44.4615 37.683C42.4388 37.8279 40.2647 38.1285 38.7071 38.3717C37.1855 38.6091 35.9873 39.9014 35.9499 41.4746Z" fill="#5C81F5"/>
<path d="M53.6284 51.595L48.0067 51.5592C47.7586 51.5578 47.578 51.3595 47.6053 51.1197L47.9167 48.3951C47.944 48.1548 48.1696 47.9595 48.4178 47.9609L54.0395 47.9967C54.2877 47.9981 54.4683 48.1959 54.441 48.4362L54.1296 51.1608C54.1023 51.4011 53.8766 51.5964 53.6284 51.595Z" fill="#F0E4E4"/>
<path opacity="0.4" d="M44.4623 37.6826C44.4623 37.6826 41.3688 39.8996 44.6367 45.448C49.4435 40.7224 53.0764 37.8662 53.0764 37.8662L44.4623 37.6826Z" fill="#F0E4E4"/>
<path d="M52.4256 27.9395C51.8244 30.7594 51.1757 35.9363 53.0763 37.8674C53.0763 37.8674 48.8689 39.3795 44.925 42.9949C42.8251 39.0539 44.4622 37.6834 44.4622 37.6834C47.5681 36.9951 47.5365 34.6509 47.043 32.4389L52.4256 27.9395Z" fill="#B55B52"/>
<path opacity="0.2" d="M51.8407 28.4292C51.7851 29.2648 51.6533 31.1767 50.5893 33.2654C50.067 34.2958 48.6868 34.7412 47.2696 34.8147C47.3396 34.0633 47.2227 33.2429 47.0454 32.4387L51.8407 28.4292Z" fill="black"/>
<path d="M56.9128 24.491C55.4937 29.0012 54.9878 30.9411 52.1358 32.7028C47.846 35.3524 42.7345 32.5858 42.8059 27.7334C42.8701 23.3657 45.1798 16.7242 50.0244 16.0443C54.7971 15.3742 58.3314 19.9808 56.9128 24.491Z" fill="#B55B52"/>
<path d="M45.1978 18.5601C47.587 19.2508 53.4276 19.7662 54.6 19.0349C53.5014 20.7614 54.5468 25.4684 56.2423 26.6113C58.529 24.7326 59.0359 20.2004 56.9236 17.9561C54.8108 15.7112 48.1317 13.0352 45.1978 18.5601Z" fill="#263238"/>
<path d="M57.5849 27.2492C57.2566 28.1724 56.5421 28.8548 55.8209 29.1847C54.7364 29.6811 54.0185 28.7334 54.1733 27.5939C54.3123 26.5684 55.0445 25.0744 56.2038 25.0578C57.3458 25.0421 57.9601 26.1939 57.5849 27.2492Z" fill="#B55B52"/>
<path d="M57.4612 66.8623L58.2809 68.6152C58.3446 68.7513 58.1856 68.8849 57.9666 68.8805L38.0723 68.4552C37.9012 68.4517 37.7613 68.3631 37.7527 68.253L37.6171 66.5143C37.6076 66.3939 37.758 66.2955 37.9453 66.2994L57.155 66.7101C57.2964 66.713 57.4205 66.7747 57.4612 66.8623Z" fill="#263238"/>
<path d="M54.8361 69.0023L55.3508 69.0131C55.4534 69.0151 55.5324 68.9632 55.5267 68.8971L55.3317 66.6381C55.3259 66.572 55.2373 66.5162 55.1347 66.5138L54.62 66.5025C54.5175 66.5005 54.4384 66.5524 54.4441 66.619L54.6392 68.878C54.6454 68.9446 54.7336 69.0004 54.8361 69.0023Z" fill="#5C81F5"/>
<path d="M39.5144 68.6738L40.0291 68.6845C40.1316 68.687 40.2107 68.6346 40.2049 68.5685L40.0099 66.3095C40.0041 66.2434 39.9155 66.1876 39.8129 66.1852L39.2982 66.1744C39.1957 66.172 39.1166 66.2243 39.1224 66.2904L39.3174 68.5494C39.3236 68.6155 39.4123 68.6718 39.5144 68.6738Z" fill="#5C81F5"/>
<path d="M47.1755 68.8364L47.6902 68.8471C47.7927 68.8491 47.8718 68.7972 47.8661 68.7311L47.671 66.4721C47.6653 66.406 47.5766 66.3502 47.4741 66.3478L46.9594 66.3365C46.8568 66.3341 46.7777 66.3864 46.7835 66.453L46.9785 68.712C46.9843 68.7781 47.0729 68.8339 47.1755 68.8364Z" fill="#5C81F5"/>
<path d="M50.0171 24.1125C49.9241 24.4857 49.6548 24.7379 49.4162 24.6757C49.1775 24.6135 49.0591 24.2604 49.1526 23.8872C49.2456 23.5139 49.5149 23.2617 49.7535 23.3239C49.9922 23.3861 50.1106 23.7387 50.0171 24.1125Z" fill="#263238"/>
<path d="M45.8906 23.0378C45.7977 23.411 45.5283 23.6632 45.2897 23.601C45.051 23.5388 44.9327 23.1857 45.0261 22.8124C45.1191 22.4392 45.3884 22.187 45.6271 22.2492C45.8657 22.3114 45.9836 22.6645 45.8906 23.0378Z" fill="#263238"/>
<path d="M45.7268 22.2974L44.9141 21.8105C44.9141 21.8105 45.1891 22.628 45.7268 22.2974Z" fill="#263238"/>
<path d="M46.8211 23.9624C46.8211 23.9624 45.8003 25.4069 44.9248 26.0046C45.2924 26.59 46.1645 26.5934 46.1645 26.5934L46.8211 23.9624Z" fill="#A02724"/>
<path d="M47.0329 28.0567C46.9994 28.0288 46.984 27.9823 46.9965 27.9372C47.0137 27.8775 47.0751 27.8427 47.1336 27.8603C48.7174 28.3325 49.787 27.421 49.7975 27.4117C49.8435 27.3715 49.9121 27.3754 49.9533 27.4239C49.9931 27.4714 49.9878 27.5425 49.9413 27.5831C49.8943 27.6242 48.7739 28.5848 47.0713 28.0773C47.0569 28.0734 47.0439 28.0661 47.0329 28.0567Z" fill="#263238"/>
<path d="M52.2709 22.3914C52.2412 22.3684 52.2167 22.3371 52.2014 22.2994C51.819 21.3703 51.0187 21.2117 51.0101 21.2098C50.8893 21.1878 50.8097 21.0693 50.8318 20.9469C50.8538 20.8241 50.9688 20.7428 51.0891 20.7648C51.1313 20.7727 52.1348 20.9709 52.6092 22.1237C52.6567 22.2387 52.6035 22.3714 52.4909 22.4198C52.4156 22.4526 52.3322 22.4389 52.2709 22.3914Z" fill="#263238"/>
<path d="M45.0755 20.6569C45.0645 20.6486 45.0544 20.6388 45.0448 20.628C44.9629 20.5354 44.9701 20.3924 45.0611 20.3087C45.9707 19.4706 46.9612 19.7273 47.0034 19.7385C47.1213 19.7709 47.1917 19.8943 47.1606 20.0153C47.1294 20.1358 47.0082 20.2073 46.8903 20.1759C46.8534 20.1661 46.0814 19.978 45.3578 20.6452C45.2772 20.7186 45.1584 20.7216 45.0755 20.6569Z" fill="#263238"/>
<path d="M60.0787 41.7471C61.4719 43.6316 62.777 45.5314 64.0437 47.5026C64.6679 48.4923 65.2932 49.486 65.8834 50.5213C66.4732 51.5683 67.0605 52.5894 67.5885 53.8406C67.7212 54.1636 67.8525 54.4911 67.978 54.9312C68.0388 55.1573 68.1059 55.4055 68.1428 55.8064C68.15 55.9194 68.1586 56.0022 68.1529 56.1652L68.1399 56.383C68.1337 56.4569 68.1141 56.5788 68.0944 56.6738L68.0599 56.824L68.0417 56.8921L68.0369 56.9058L68.0173 56.9611L67.9775 57.0712C67.7567 57.6562 67.5751 58.247 67.3092 58.8182C66.8334 59.9734 66.2365 61.0905 65.5658 62.16C64.8687 63.2193 64.0753 64.2257 63.1425 65.1097C62.6859 65.5586 62.1723 65.958 61.6396 66.3296C61.3699 66.5126 61.0915 66.6869 60.8012 66.8484C60.6536 66.9297 60.5027 67.0031 60.346 67.076C60.1764 67.1519 60.0519 67.2062 59.8032 67.2983L58.8901 65.0681C58.9001 65.0422 59.0218 64.9555 59.0975 64.887L59.3605 64.653C59.5388 64.4905 59.7112 64.3163 59.8799 64.1342C60.2133 63.7631 60.5271 63.3701 60.8203 62.9545C61.4063 62.1243 61.9074 61.2226 62.3482 60.2848C62.5489 59.8002 62.7693 59.3347 62.9365 58.8324C63.132 58.3488 63.2886 57.8432 63.4429 57.3375C63.6087 56.8392 63.7169 56.3096 63.864 55.8025L63.8899 55.7065L63.9028 55.6585L63.9062 55.6463L63.8932 55.6879L63.8688 55.7853C63.8544 55.8446 63.8453 55.9317 63.8405 55.9694C63.8358 56.0056 63.8324 56.0423 63.8314 56.079C63.8319 56.1696 63.8295 56.1808 63.8319 56.222C63.8391 56.3355 63.8372 56.3022 63.8142 56.2528C63.7706 56.1417 63.6781 55.9366 63.5751 55.7349C63.1406 54.894 62.5566 53.9316 61.9596 53.0128C61.3555 52.0862 60.7379 51.1483 60.0979 50.2217C58.8316 48.3636 57.5218 46.4908 56.2388 44.6493L60.0787 41.7471Z" fill="#B55B52"/>
<path d="M61.1205 66.692L57.4243 69.3617L55.7676 65.502C55.7676 65.502 58.0073 64.2768 59.7757 65.0963L61.1205 66.692Z" fill="#B55B52"/>
<path d="M54.8511 69.6798L53.9305 68.3631C53.5625 67.8368 53.6732 67.1065 54.1802 66.7184L55.7688 65.502L57.426 69.3616L56.4119 70.0009C55.8896 70.3299 55.2072 70.1894 54.8511 69.6798Z" fill="#B55B52"/>
<path d="M52.69 40.5848C51.4319 45.6809 59.1741 54.3998 59.1741 54.3998L65.6845 47.4955C65.6845 47.4955 62.7117 41.0043 58.8267 38.969C56.1131 37.547 53.2443 38.3385 52.69 40.5848Z" fill="#5C81F5"/>
<path d="M49.8533 23.3731L49.0405 22.8862C49.0405 22.8862 49.3161 23.7037 49.8533 23.3731Z" fill="#263238"/>
<path d="M41.5139 54.1967C41.4449 54.1967 41.3798 54.1536 41.3534 54.0836C41.3199 53.993 41.364 53.8922 41.4526 53.8579L42.2005 53.5667C43.6325 53.0091 44.5653 51.6376 44.5768 50.0717L44.6299 42.9153C44.64 41.5344 43.6861 40.8006 42.8664 40.5916C42.0476 40.3831 40.8676 40.5745 40.2424 41.7987L37.0033 48.144C36.2947 49.5327 36.4887 51.1912 37.4977 52.3699L38.0242 52.9852C38.0865 53.0576 38.0793 53.1687 38.0079 53.2324C37.937 53.297 37.8283 53.2886 37.766 53.2157L37.2394 52.6004C36.1371 51.3126 35.9248 49.4999 36.699 47.9825L39.9382 41.6372C40.5284 40.48 41.7118 39.9381 42.9493 40.2519C44.1882 40.5676 44.9826 41.6137 44.973 42.9182L44.9198 50.0746C44.9073 51.7854 43.8878 53.2847 42.3226 53.8937L41.5752 54.1849C41.5546 54.1927 41.534 54.1967 41.5139 54.1967Z" fill="#263238"/>
<path d="M44.7874 44.5067C44.6945 44.5067 44.6178 44.4313 44.6159 44.3353C44.5852 42.9398 43.479 42.1659 42.5409 41.9275C41.6024 41.6891 40.27 41.8413 39.6022 43.0597C39.5562 43.1439 39.4513 43.1723 39.3689 43.1272C39.2865 43.0798 39.2568 42.9731 39.3032 42.8889C39.9304 41.7449 41.2335 41.2344 42.6238 41.5883C44.0137 41.9422 44.9302 43.0176 44.9589 44.3285C44.9608 44.4249 44.8861 44.5052 44.7912 44.5071C44.7898 44.5066 44.7884 44.5067 44.7874 44.5067Z" fill="#263238"/>
<path d="M42.9199 40.5992C42.8634 40.5992 42.8083 40.5708 42.7752 40.5189C42.607 40.2512 42.6132 39.7798 42.792 39.258C43.0795 38.4185 43.6838 37.768 44.4079 37.5173C44.498 37.487 44.5948 37.5355 44.6255 37.627C44.6561 37.719 44.6077 37.8184 44.5181 37.8492C43.5918 38.1693 43.2108 39.0969 43.1159 39.3735C42.9568 39.838 42.975 40.1885 43.0642 40.3295C43.115 40.4107 43.0924 40.5194 43.0124 40.5713C42.9837 40.5904 42.9515 40.5992 42.9199 40.5992Z" fill="#263238"/>
<path d="M41.1397 53.9259C41.0616 54.2463 41.166 54.549 41.3726 54.6019C41.5796 54.6543 41.8106 54.4373 41.8887 54.117C41.9668 53.7962 41.8624 53.4939 41.6558 53.441C41.4488 53.3881 41.2178 53.6051 41.1397 53.9259Z" fill="#263238"/>
<path d="M54.7367 45.4737C54.8939 46.2109 55.4076 46.7224 55.8835 46.6167C56.3593 46.5104 56.6176 45.8271 56.4605 45.0899C56.3033 44.3527 55.7895 43.8412 55.3137 43.9469C54.8373 44.0532 54.579 44.7365 54.7367 45.4737Z" fill="#263238"/>
<path d="M56.2353 45.2548C56.1438 45.2548 56.0676 45.1809 56.0642 45.0864C55.9626 42.38 54.9606 39.0152 52.9996 38.0235C52.9148 37.9809 52.8803 37.8757 52.922 37.7885C52.9641 37.7019 53.0672 37.6657 53.152 37.7097C55.25 38.77 56.2986 42.1715 56.4074 45.0727C56.4112 45.1691 56.3374 45.2504 56.2425 45.2543C56.2396 45.2548 56.2377 45.2548 56.2353 45.2548Z" fill="#263238"/>
<path d="M54.2258 45.5352C54.3265 46.1681 54.7731 46.6204 55.2241 46.5455C55.6745 46.4706 55.9582 45.8974 55.8576 45.2645C55.757 44.6316 55.3103 44.1793 54.8594 44.2542C54.4089 44.3291 54.1252 44.9023 54.2258 45.5352Z" fill="#F0E4E4"/>
<path d="M54.1858 45.5918C54.332 46.374 54.7331 46.9526 55.081 46.8845C55.4294 46.8165 55.5928 46.1278 55.4467 45.3456C55.3005 44.5633 54.8994 43.9848 54.5515 44.0528C54.2031 44.1208 54.0397 44.8101 54.1858 45.5918Z" fill="#263238"/>
<path d="M37.5196 53.0046C37.4415 53.3249 37.5459 53.6276 37.7525 53.6805C37.9595 53.7329 38.1905 53.5159 38.2686 53.1956C38.3467 52.8752 38.2422 52.5725 38.0357 52.5196C37.8291 52.4667 37.5977 52.6842 37.5196 53.0046Z" fill="#263238"/>
<path d="M90.0003 13.1455C86.9643 13.6981 86.5819 13.4147 86.5427 11.1993C86.5034 8.98381 85.4039 5.25679 86.9384 4.09179C87.9138 3.35118 88.3143 4.50248 88.3143 4.50248C88.5342 3.99634 89.0804 3.71684 89.5614 3.91264C89.6271 3.45153 89.6984 2.27087 90.5397 1.93018C91.381 1.58949 92.1217 2.37268 92.1217 2.37268C92.1217 2.37268 92.0594 0.560566 93.2586 0.733848C94.4578 0.907129 94.6968 2.17052 94.6968 2.17052C94.6968 2.17052 95.3896 1.14111 96.3238 1.54739C97.2576 1.95416 97.0736 3.1358 97.0736 3.1358C97.0736 3.1358 98.0682 2.64973 98.8065 3.20238C99.5448 3.75502 99.0053 4.63904 99.0053 4.63904C99.0053 4.63904 99.678 2.87882 100.954 3.85438C102.105 4.73352 101.063 6.11243 101.063 6.11243C101.063 6.11243 102.326 5.90341 102.632 6.55493C103.67 8.77333 99.7254 11.2502 99.5975 14.9929C93.5393 17.364 90.0003 13.1455 90.0003 13.1455Z" fill="#263238"/>
<path d="M68.1441 72.6347L66.1228 72.2544L63.4476 74.8649C63.1548 75.1507 62.9924 75.5487 62.9996 75.9623L63.0384 78.0965C63.0523 78.8523 63.621 79.4759 64.3579 79.5425L65.2859 79.6267C65.9844 79.6903 66.6268 79.2331 66.8113 78.542L67.2765 76.7994C67.2765 76.7994 69.9268 73.622 68.1441 72.6347Z" fill="#FFB573"/>
<path d="M88.561 33.6246C87.2033 37.2135 85.8527 40.8138 84.551 44.4243C83.234 48.0211 81.9539 51.6674 80.7441 55.2358L80.5252 55.8951L80.3786 56.3239C80.3221 56.4869 80.2636 56.6519 80.2085 56.7836C79.9833 57.3631 79.7601 57.8443 79.5335 58.3304C79.086 59.2903 78.6313 60.1836 78.1681 61.0676C77.2429 62.8303 76.291 64.5308 75.327 66.2216C73.4179 69.6152 71.4699 72.9281 69.5147 76.2924L63.412 72.4161C65.4237 69.2197 67.364 65.9225 69.2239 62.6345C70.1389 60.982 71.0396 59.3221 71.8776 57.6754C72.2944 56.8541 72.7006 56.0312 73.0518 55.2446C73.2209 54.8559 73.3881 54.459 73.5007 54.1383C73.5367 54.0473 73.5539 53.9842 73.574 53.9195L73.6545 53.6635L73.8715 52.9474C75.0266 49.192 76.2412 45.5594 77.4068 41.874L80.9176 30.8525L88.561 33.6246Z" fill="#5C81F5"/>
<path opacity="0.6" d="M88.561 33.6246C87.2033 37.2135 85.8527 40.8138 84.551 44.4243C83.234 48.0211 81.9539 51.6674 80.7441 55.2358L80.5252 55.8951L80.3786 56.3239C80.3221 56.4869 80.2636 56.6519 80.2085 56.7836C79.9833 57.3631 79.7601 57.8443 79.5335 58.3304C79.086 59.2903 78.6313 60.1836 78.1681 61.0676C77.2429 62.8303 76.291 64.5308 75.327 66.2216C73.4179 69.6152 71.4699 72.9281 69.5147 76.2924L63.412 72.4161C65.4237 69.2197 67.364 65.9225 69.2239 62.6345C70.1389 60.982 71.0396 59.3221 71.8776 57.6754C72.2944 56.8541 72.7006 56.0312 73.0518 55.2446C73.2209 54.8559 73.3881 54.459 73.5007 54.1383C73.5367 54.0473 73.5539 53.9842 73.574 53.9195L73.6545 53.6635L73.8715 52.9474C75.0266 49.192 76.2412 45.5594 77.4068 41.874L80.9176 30.8525L88.561 33.6246Z" fill="#F0E4E4"/>
<path d="M70.2891 164.637L65.9935 164.852L68.022 153.419L72.1096 154.378L70.2891 164.637Z" fill="#FFB573"/>
<path d="M101.119 164.802H96.8226L96.8336 154.636H101.13L101.119 164.802Z" fill="#FFB573"/>
<path d="M96.4124 164.293H101.65C101.826 164.293 101.973 164.418 102.004 164.593L102.696 168.495C102.768 168.9 102.441 169.282 102.036 169.276C100.352 169.246 99.1259 169.145 97.0036 169.145C95.6976 169.145 91.7537 169.283 89.9504 169.283C88.1863 169.283 87.9846 167.461 88.7296 167.297C92.0699 166.556 94.6052 165.536 95.7043 164.563C95.9021 164.388 96.1556 164.293 96.4124 164.293Z" fill="#263238"/>
<path opacity="0.2" d="M68.0219 153.423L67.0829 158.711L71.172 159.67L72.111 154.382L68.0219 153.423Z" fill="black"/>
<path opacity="0.2" d="M101.13 154.638H96.8319V159.878H101.13V154.638Z" fill="black"/>
<path d="M104.585 33.4999C101.241 48.9156 102.122 64.1262 101.765 67.4205C98.4018 67.1993 85.737 66.3427 78.8328 65.8747C76.445 47.2993 79.1092 35.4099 80.628 30.5439C81.1387 28.9065 82.5209 27.7151 84.1891 27.4967C86.9755 27.1321 90.8849 27.0087 94.4623 27.1663C96.8108 27.2701 99.3102 27.7444 101.342 28.2325C103.655 28.7885 105.099 31.1303 104.585 33.4999Z" fill="#5C81F5"/>
<path d="M97.6729 16.7158C96.9188 19.6166 96.0205 24.7612 97.4631 27.3575C97.6902 27.7662 97.2547 28.1108 97.2374 28.5807C97.1838 30.0213 95.278 30.453 91.8654 30.4702C88.4207 30.4878 86.993 29.0369 87.9224 27.6644C88.0638 27.4554 88.2827 27.3203 88.5256 27.2649C91.7236 26.5341 91.7839 23.9741 91.3513 21.5315L97.6729 16.7158Z" fill="#FFB573"/>
<path opacity="0.4" d="M91.6239 29.6735C91.6239 29.6735 92.9874 31.4421 93.2763 33.9713C96.6807 32.3354 98.3058 28.367 98.3058 28.367L97.2796 27.2437C97.2796 27.2437 93.4952 27.9901 91.6239 29.6735Z" fill="black"/>
<path opacity="0.4" d="M91.2855 29.6882C91.2855 29.6882 89.7711 30.7896 88.1661 33.4265C85.7836 31.9213 86.5746 27.6172 86.5746 27.6172L88.5139 27.228C88.5139 27.228 89.3777 28.0479 91.2855 29.6882Z" fill="black"/>
<path d="M91.4426 29.5889L90.7051 29.6623L89.4678 30.4974C89.3963 31.0295 89.4591 31.5307 89.7169 31.9879C89.7169 31.9879 90.9131 32.2361 91.9051 32.1382C92.7936 31.6443 93.0121 30.9736 93.0121 30.9736L92.1011 29.7861L91.4426 29.5889Z" fill="#263238"/>
<path d="M91.4423 29.5907C91.4423 29.5907 92.8029 31.2153 93.5254 33.5384C96.9298 31.9025 98.9156 27.9944 98.9156 27.9944L97.2724 26.5107C97.2724 26.5107 93.3131 27.9073 91.4423 29.5907Z" fill="#5C81F5"/>
<path d="M91.4424 29.5893C91.4424 29.5893 89.7119 30.581 88.0461 32.8009C85.6636 31.2957 86.57 27.249 86.57 27.249L88.5094 26.8599C88.5094 26.8599 89.5351 27.949 91.4424 29.5893Z" fill="#5C81F5"/>
<path opacity="0.2" d="M95.0966 18.6816L91.3544 21.53C91.4627 22.1292 91.5374 22.7342 91.5408 23.3181C92.8898 23.2109 94.823 21.8364 95.0573 20.4169C95.1738 19.7086 95.1891 19.0214 95.0966 18.6816Z" fill="black"/>
<path d="M98.3586 11.9194C97.8173 16.2406 97.7152 18.7983 95.4261 20.8806C91.9829 24.0129 86.8695 21.6716 86.1365 17.272C85.4768 13.312 86.4728 6.91036 90.7415 5.46439C94.947 4.03897 98.9 7.59761 98.3586 11.9194Z" fill="#FFB573"/>
<path d="M97.3245 15.8246C96.3424 14.8789 96.9647 10.3565 97.4476 9.06078C95.0464 9.29427 87.311 9.28448 87.6042 7.10133C87.8974 4.91817 90.7111 3.06347 95.3147 4.59608C99.1594 5.87612 100.11 7.82627 100.128 9.42349C100.164 12.7007 97.3245 15.8246 97.3245 15.8246Z" fill="#263238"/>
<path d="M99.8425 15.8805C99.35 16.8492 98.4886 17.4958 97.677 17.7523C96.4563 18.1385 95.8521 16.9877 96.1971 15.7547C96.5071 14.645 97.5165 13.1065 98.7391 13.2602C99.9436 13.4119 100.406 14.7722 99.8425 15.8805Z" fill="#FFB573"/>
<path d="M65.684 157.37L72.788 158.97C72.788 158.97 79.6979 131.305 81.7504 117.788C82.3751 113.676 83.832 107.806 85.1577 101.626C86.8316 93.8404 88.9363 85.4211 90.6601 78.8276C92.4792 71.8831 93.8297 66.8897 93.8297 66.8897L78.8336 65.8755C78.8336 65.8755 71.8532 102.056 70.4423 115.375C68.9734 129.225 65.684 157.37 65.684 157.37Z" fill="#263238"/>
<path opacity="0.2" d="M85.1573 101.626C86.8312 93.8402 88.9359 85.4209 90.6597 78.8274L89.0835 75.3921C85.3619 79.9444 84.4066 93.9968 85.1573 101.626Z" fill="black"/>
<path d="M85.9784 66.3599C85.9784 66.3599 89.0848 103.329 90.3104 116.13C91.6518 130.149 95.2512 158.865 95.2512 158.865H102.465C102.465 158.865 102.791 128.284 101.494 114.746C101.311 88.1282 101.765 67.4231 101.765 67.4231L85.9784 66.3599Z" fill="#263238"/>
<path d="M94.3089 159.037H103.576V156.208L93.9491 155.663L94.3089 159.037Z" fill="#5C81F5"/>
<path d="M64.7548 157.336L73.2203 159.248L73.8245 156.454L64.9622 154.17L64.7548 157.336Z" fill="#5C81F5"/>
<path d="M92.1721 12.6927C92.1491 13.0463 91.9473 13.3201 91.7211 13.3049C91.4949 13.2897 91.3301 12.9905 91.3531 12.6373C91.3761 12.2837 91.5778 12.0094 91.804 12.0251C92.0302 12.0402 92.1951 12.339 92.1721 12.6927Z" fill="#263238"/>
<path d="M88.2639 12.4295C88.2409 12.7831 88.0391 13.0574 87.8129 13.0417C87.5867 13.0261 87.4219 12.7273 87.4449 12.3741C87.4679 12.0205 87.6696 11.7462 87.8958 11.7619C88.122 11.7771 88.2869 12.0763 88.2639 12.4295Z" fill="#263238"/>
<path d="M89.1612 12.6924C89.1612 12.6924 88.243 14.6773 87.3134 15.6024C87.8875 16.227 88.9451 16.0307 88.9451 16.0307L89.1612 12.6924Z" fill="#ED893E"/>
<path d="M90.3414 17.0746C91.6688 16.9821 92.3397 16.0901 92.3704 16.048C92.4039 16.002 92.3948 15.9373 92.3503 15.9025C92.3052 15.8682 92.2415 15.8776 92.2079 15.9231C92.2003 15.9334 91.4167 16.9693 89.9033 16.867C89.8473 16.8635 89.7989 16.9066 89.795 16.9639C89.7912 17.0212 89.8339 17.0707 89.8899 17.0746C90.0476 17.0854 90.1985 17.0844 90.3414 17.0746Z" fill="#263238"/>
<path d="M93.1265 11.4894C93.1605 11.4869 93.1941 11.4761 93.2243 11.4556C93.3182 11.3924 93.3441 11.2636 93.2827 11.1676C92.6641 10.2056 91.7243 10.1987 91.6845 10.1987C91.5719 10.1992 91.4813 10.2928 91.4818 10.4074C91.4823 10.522 91.5733 10.6146 91.685 10.6146C91.7162 10.6146 92.4489 10.6283 92.9425 11.3958C92.9842 11.461 93.0556 11.4943 93.1265 11.4894Z" fill="#263238"/>
<path d="M86.3345 10.9456C86.4001 10.9412 86.4624 10.904 86.4974 10.8413C86.9426 10.0434 87.673 9.98214 87.7041 9.98018C87.8158 9.97235 87.9011 9.87341 87.8939 9.75928C87.8867 9.64516 87.7908 9.55797 87.6792 9.56483C87.6389 9.56826 86.7021 9.63536 86.1442 10.635C86.0887 10.735 86.1227 10.8618 86.2204 10.9186C86.2559 10.9397 86.2957 10.948 86.3345 10.9456Z" fill="#263238"/>
<path d="M94.9607 165.06C95.358 165.06 95.7902 164.975 96.0917 164.902C96.1319 164.892 96.1636 164.859 96.1717 164.818C96.1799 164.776 96.1631 164.735 96.1295 164.713C95.9771 164.613 94.6253 163.743 94.1403 163.992C94.065 164.031 93.9716 164.113 93.9539 164.286C93.9304 164.519 93.9936 164.704 94.1422 164.836C94.3301 165.003 94.6339 165.06 94.9607 165.06ZM95.8022 164.756C95.0666 164.905 94.5064 164.878 94.2793 164.676C94.1796 164.588 94.1393 164.464 94.1561 164.299C94.1642 164.218 94.1973 164.191 94.2256 164.177C94.4777 164.047 95.2526 164.423 95.8022 164.756Z" fill="#5C81F5"/>
<path d="M96.0682 164.904C96.0873 164.904 96.107 164.898 96.1242 164.887C96.1563 164.867 96.1755 164.83 96.1741 164.792C96.1721 164.738 96.1204 163.472 95.6378 163.055C95.5123 162.946 95.368 162.901 95.2094 162.921C94.965 162.952 94.8945 163.105 94.8744 163.194C94.7637 163.683 95.5851 164.645 96.0198 164.891C96.0351 164.9 96.0514 164.904 96.0682 164.904ZM95.2722 163.125C95.356 163.125 95.4317 163.155 95.5022 163.216C95.8118 163.483 95.9191 164.221 95.9546 164.591C95.5262 164.249 95.0076 163.522 95.0728 163.233C95.0786 163.207 95.0929 163.145 95.2257 163.128C95.2415 163.126 95.2568 163.125 95.2722 163.125Z" fill="#5C81F5"/>
<path d="M65.3472 162.917L70.3873 164.375C70.5564 164.423 70.6647 164.584 70.6479 164.761L70.2742 168.709C70.2354 169.118 69.8191 169.396 69.431 169.276C67.8184 168.779 66.6662 168.341 64.6233 167.75C63.3667 167.387 59.28 165.891 57.7915 164.851C56.3355 163.834 57.1749 162.214 57.8811 162.507C61.0469 163.822 63.2776 163.61 64.5941 162.979C64.8313 162.866 65.1 162.846 65.3472 162.917Z" fill="#263238"/>
<path d="M63.7459 163.255C64.1283 163.365 64.5668 163.404 64.8764 163.417C64.9176 163.419 64.9569 163.396 64.976 163.358C64.9952 163.321 64.9899 163.277 64.9631 163.246C64.8428 163.107 63.7741 161.893 63.2408 161.999C63.1579 162.015 63.0462 162.068 62.9829 162.23C62.8981 162.447 62.9101 162.643 63.0179 162.811C63.1545 163.024 63.4315 163.163 63.7459 163.255ZM64.6367 163.196C63.8892 163.135 63.3572 162.953 63.1924 162.696C63.12 162.583 63.1143 162.453 63.1746 162.298C63.2039 162.223 63.2432 162.206 63.2738 162.2C63.5513 162.146 64.1963 162.723 64.6367 163.196Z" fill="#5C81F5"/>
<path d="M64.8521 163.411C64.8708 163.416 64.891 163.416 64.9106 163.41C64.947 163.4 64.9753 163.369 64.9839 163.333C64.9964 163.28 65.2839 162.047 64.9307 161.512C64.8387 161.373 64.7122 161.289 64.5541 161.264C64.3106 161.226 64.2023 161.354 64.1592 161.434C63.9225 161.874 64.4563 163.028 64.809 163.386C64.8215 163.398 64.8363 163.406 64.8521 163.411ZM64.5603 161.477C64.6408 161.501 64.7055 161.551 64.7577 161.629C64.9844 161.972 64.891 162.712 64.8263 163.078C64.5057 162.63 64.2004 161.786 64.3403 161.526C64.3533 161.502 64.383 161.447 64.5153 161.467C64.5311 161.47 64.5459 161.473 64.5603 161.477Z" fill="#5C81F5"/>
<path d="M97.7443 26.9788C97.524 26.9382 97.339 27.1227 97.3539 27.3508C97.5211 29.9735 93.5063 34.6766 92.5701 48.8211C92.001 57.42 91.4773 84.216 91.8615 98.1583C91.8831 98.942 92.6223 99.4903 93.3616 99.2798C100.432 97.265 103.771 102.151 105.134 96.3854C105.059 89.4796 103.013 64.6817 103.54 58.8053C104.067 52.9284 106.259 36.9518 106.804 32.6951C107.278 28.994 99.7225 27.3459 97.7443 26.9788Z" fill="#5C81F5"/>
<path opacity="0.7" d="M97.7443 26.9788C97.524 26.9382 97.339 27.1227 97.3539 27.3508C97.5211 29.9735 93.5063 34.6766 92.5701 48.8211C92.001 57.42 91.4773 84.216 91.8615 98.1583C91.8831 98.942 92.6223 99.4903 93.3616 99.2798C100.432 97.265 103.771 102.151 105.134 96.3854C105.059 89.4796 103.013 64.6817 103.54 58.8053C104.067 52.9284 106.259 36.9518 106.804 32.6951C107.278 28.994 99.7225 27.3459 97.7443 26.9788Z" fill="#F0E4E4"/>
<path opacity="0.2" d="M102.406 38.9521C102.095 41.1363 101.974 49.9594 104.033 54.1995C104.377 51.2845 104.825 47.7724 105.265 44.4002L102.406 38.9521Z" fill="#5C81F5"/>
<path d="M105.344 77.1021L103.302 77.3448L101.495 80.6426C101.297 81.0038 101.256 81.4331 101.382 81.8262L102.032 83.8546C102.263 84.5727 102.986 84.9981 103.709 84.8415L104.621 84.6437C105.307 84.4949 105.79 83.8654 105.767 83.1493L105.711 81.344C105.711 81.344 107.332 77.5113 105.344 77.1021Z" fill="#FFB573"/>
<path d="M106.467 31.0503C107.114 33.0186 107.72 34.9413 108.318 36.8968C108.917 38.8455 109.517 40.7966 110.081 42.7688C110.643 44.7434 111.192 46.7279 111.698 48.7671C111.948 49.7897 112.186 50.824 112.395 51.9058C112.498 52.4486 112.596 53.0032 112.678 53.5891C112.716 53.8936 112.76 54.1726 112.786 54.5084L112.829 54.995L112.851 55.5456C112.86 55.7268 112.854 55.9177 112.848 56.1071C112.843 56.2995 112.835 56.4894 112.821 56.6402L112.781 57.1243L112.729 57.5668C112.659 58.1551 112.572 58.6956 112.488 59.234C112.314 60.3031 112.116 61.3295 111.909 62.3491C111.495 64.384 111.036 66.3743 110.57 68.3592C110.114 70.3456 109.639 72.3202 109.153 74.2899L107.699 80.2104L100.765 78.2857C101.838 74.4642 102.815 70.5688 103.718 66.7027C104.158 64.7663 104.575 62.8264 104.943 60.911C105.125 59.955 105.297 59.002 105.435 58.0817C105.504 57.6255 105.563 57.1688 105.601 56.7557C105.647 56.3088 105.655 55.9979 105.643 55.762L105.63 55.5584L105.597 55.2931C105.583 55.1266 105.541 54.9088 105.513 54.7145C105.444 54.3053 105.358 53.8696 105.261 53.4261C105.065 52.5357 104.829 51.6135 104.578 50.6874C104.076 48.8307 103.492 46.9535 102.874 45.0832C101.651 41.3424 100.277 37.5782 98.8553 33.9173L106.467 31.0503Z" fill="#5C81F5"/>
<path opacity="0.7" d="M106.467 31.0503C107.114 33.0186 107.72 34.9413 108.318 36.8968C108.917 38.8455 109.517 40.7966 110.081 42.7688C110.643 44.7434 111.192 46.7279 111.698 48.7671C111.948 49.7897 112.186 50.824 112.395 51.9058C112.498 52.4486 112.596 53.0032 112.678 53.5891C112.716 53.8936 112.76 54.1726 112.786 54.5084L112.829 54.995L112.851 55.5456C112.86 55.7268 112.854 55.9177 112.848 56.1071C112.843 56.2995 112.835 56.4894 112.821 56.6402L112.781 57.1243L112.729 57.5668C112.659 58.1551 112.572 58.6956 112.488 59.234C112.314 60.3031 112.116 61.3295 111.909 62.3491C111.495 64.384 111.036 66.3743 110.57 68.3592C110.114 70.3456 109.639 72.3202 109.153 74.2899L107.699 80.2104L100.765 78.2857C101.838 74.4642 102.815 70.5688 103.718 66.7027C104.158 64.7663 104.575 62.8264 104.943 60.911C105.125 59.955 105.297 59.002 105.435 58.0817C105.504 57.6255 105.563 57.1688 105.601 56.7557C105.647 56.3088 105.655 55.9979 105.643 55.762L105.63 55.5584L105.597 55.2931C105.583 55.1266 105.541 54.9088 105.513 54.7145C105.444 54.3053 105.358 53.8696 105.261 53.4261C105.065 52.5357 104.829 51.6135 104.578 50.6874C104.076 48.8307 103.492 46.9535 102.874 45.0832C101.651 41.3424 100.277 37.5782 98.8553 33.9173L106.467 31.0503Z" fill="#F0E4E4"/>
<path d="M88.4259 26.6119C88.8968 26.6022 89.1694 27.1709 88.8618 27.5356C87.7216 28.8857 87.0025 30.7399 85.6538 36.6931C84.0263 43.876 80.5553 80.0057 79.898 97.7073C79.875 98.327 79.3202 98.7808 78.7233 98.6687C75.3447 98.0343 73.024 99.7074 72.6565 97.4914C72.2493 95.0356 73.7685 71.6647 76.6057 60.6681C76.1611 50.9174 77.7708 31.3566 80.9884 28.7608C82.7563 27.3344 86.4429 26.6535 88.4259 26.6119Z" fill="#5C81F5"/>
<path opacity="0.7" d="M88.4259 26.6119C88.8968 26.6022 89.1694 27.1709 88.8618 27.5356C87.7216 28.8857 87.0025 30.7399 85.6538 36.6931C84.0263 43.876 80.5553 80.0057 79.898 97.7073C79.875 98.327 79.3202 98.7808 78.7233 98.6687C75.3447 98.0343 73.024 99.7074 72.6565 97.4914C72.2493 95.0356 73.7685 71.6647 76.6057 60.6681C76.1611 50.9174 77.7708 31.3566 80.9884 28.7608C82.7563 27.3344 86.4429 26.6535 88.4259 26.6119Z" fill="#F0E4E4"/>
<path d="M90.2916 31.4609C90.2916 31.4609 86.1493 43.3439 84.6938 53.2983C84.5779 56.0038 85.8403 61.2463 86.8598 63.5356C88.9923 58.791 90.3261 55.9935 90.533 53.2983C90.8751 49.238 91.4352 31.5407 91.4352 31.5407L90.2916 31.4609Z" fill="#263238"/>
<path d="M98.9557 45.5905C98.8871 45.5905 98.8206 45.5528 98.7865 45.4862C98.7382 45.3913 98.7741 45.2738 98.8675 45.2243L99.6542 44.8053C101.16 44.0016 102.014 42.3671 101.827 40.6417L100.977 32.7539C100.813 31.2316 99.6695 30.5497 98.7401 30.4288C97.8087 30.304 96.5358 30.6741 96.0035 32.1054L93.2425 39.5227C92.6383 41.1454 93.0628 42.9462 94.3233 44.1102L94.9816 44.7182C95.0597 44.7897 95.0654 44.9125 94.995 44.9928C94.9241 45.0716 94.8038 45.0785 94.7262 45.006L94.0679 44.3981C92.6906 43.1259 92.2263 41.1586 92.8865 39.3851L95.6475 31.9678C96.151 30.6158 97.3833 29.861 98.788 30.0436C100.192 30.2267 101.2 31.2737 101.354 32.7113L102.205 40.5996C102.408 42.4856 101.476 44.2713 99.8295 45.1494L99.0429 45.5685C99.0155 45.5836 98.9854 45.5905 98.9557 45.5905Z" fill="#263238"/>
<path d="M101.329 34.4877C101.235 34.4877 101.154 34.4177 101.14 34.3208C100.93 32.7877 99.6131 32.0823 98.5495 31.9438C97.4849 31.8048 96.0381 32.1513 95.4574 33.5806C95.4167 33.6795 95.3046 33.7255 95.2088 33.6854C95.1115 33.6443 95.0655 33.5312 95.1058 33.4314C95.6514 32.0887 97.0183 31.353 98.5974 31.5585C100.173 31.7641 101.319 32.8268 101.517 34.2664C101.531 34.3731 101.459 34.471 101.355 34.4857C101.346 34.4872 101.337 34.4877 101.329 34.4877Z" fill="#263238"/>
<path d="M98.7509 30.4283C98.7471 30.4283 98.7428 30.4283 98.7389 30.4283C98.634 30.4215 98.5544 30.3294 98.5607 30.2222C98.6182 29.2672 98.4845 27.5295 97.6223 27.0762C97.5289 27.0273 97.492 26.9103 97.5399 26.8148C97.5878 26.7199 97.7028 26.6817 97.7958 26.7311C99.0729 27.4013 98.9575 29.9569 98.9402 30.2462C98.9344 30.349 98.8506 30.4283 98.7509 30.4283Z" fill="#263238"/>
<path d="M95.2778 44.9187C95.2323 45.2821 95.0056 45.552 94.7713 45.5211C94.5369 45.4908 94.3836 45.1714 94.4286 44.808C94.4742 44.4446 94.7008 44.1747 94.9352 44.2055C95.17 44.2364 95.3233 44.5557 95.2778 44.9187Z" fill="#263238"/>
<path d="M84.1377 36.9819C83.8387 37.7607 83.1884 38.2287 82.6852 38.027C82.1825 37.8253 82.0172 37.0304 82.3167 36.2521C82.6157 35.4733 83.266 35.0053 83.7692 35.207C84.2719 35.4082 84.4367 36.2031 84.1377 36.9819Z" fill="#263238"/>
<path d="M82.5645 36.4755C82.552 36.4755 82.5396 36.4745 82.5266 36.4716C82.4236 36.4505 82.357 36.3482 82.3776 36.243C83.0081 33.027 85.6245 27.947 87.9289 26.4628C88.0175 26.406 88.1349 26.433 88.191 26.5235C88.247 26.6146 88.2207 26.7345 88.1315 26.7918C85.9042 28.227 83.3665 33.1777 82.7509 36.3198C82.7327 36.4118 82.6531 36.4755 82.5645 36.4755Z" fill="#263238"/>
<path d="M84.686 37.1412C84.467 37.8158 83.8996 38.2309 83.4194 38.0678C82.9387 37.9048 82.7269 37.2259 82.9464 36.5514C83.1654 35.8769 83.7328 35.4618 84.213 35.6248C84.6932 35.7878 84.905 36.4667 84.686 37.1412Z" fill="#F0E4E4"/>
<path d="M84.7205 37.209C84.4257 38.0387 83.8871 38.6002 83.5176 38.4636C83.1481 38.3265 83.0877 37.5428 83.3829 36.7131C83.6777 35.8835 84.2163 35.3215 84.5858 35.4586C84.9548 35.5956 85.0152 36.3793 84.7205 37.209Z" fill="#263238"/>
<path d="M99.3799 45.4529C99.3343 45.8163 99.1077 46.0862 98.8733 46.0553C98.639 46.025 98.4856 45.7056 98.5307 45.3422C98.5762 44.9787 98.8029 44.7089 99.0372 44.7397C99.2716 44.7706 99.4249 45.0894 99.3799 45.4529Z" fill="#263238"/>
<path d="M126.545 24.2456C128.146 28.7142 123.889 30.96 121.1 37.5413C118.312 44.1225 125.039 51.9785 135.363 52.1513C145.688 52.324 146.013 42.2155 144.414 34.968C142.815 27.7205 146.158 26.5379 145.449 21.0037C144.516 13.7293 134.279 8.21802 130.207 14.8943C126.587 14.5452 125.146 20.3394 126.545 24.2456Z" fill="#263238"/>
<path d="M157.124 84.4227L157.102 83.8569C157.092 83.5827 157.024 83.3145 156.903 83.0697L155.17 79.5787L153.142 79.1631C151.708 80.7481 153.123 83.899 153.123 83.899V84.4159C153.123 85.2651 153.674 86.0116 154.473 86.2456L154.749 86.3264C155.968 86.6832 157.173 85.7179 157.124 84.4227Z" fill="#FFC3BD"/>
<path d="M148.765 44.8638L148.766 44.8677L149.552 50.2163C149.682 51.1088 149.815 52.0008 149.951 52.8921L150.364 55.5649L151.193 60.8716L151.195 60.8804L151.196 60.8892L151.297 61.4116V61.4106L151.434 62.0112L151.435 62.0161L151.578 62.6157L151.579 62.6226L151.581 62.6304L151.748 63.2485V63.2495C151.857 63.6654 151.975 64.0873 152.096 64.5103L152.463 65.7769V65.7788C152.713 66.6266 152.97 67.4778 153.233 68.3296L154.035 70.8853L154.036 70.8882C155.09 74.1242 156.186 77.3777 157.35 80.5815L151.533 82.6909L148.301 72.8364H148.3C147.878 71.5364 147.454 70.2435 147.041 68.938L146.632 67.6274C146.497 67.1843 146.363 66.7456 146.231 66.3042L145.841 64.9634V64.9614L145.648 64.2798L145.461 63.5806H145.462C145.428 63.4435 145.396 63.3313 145.366 63.2202L145.279 62.8667H145.278L145.1 62.0649L144.107 56.7192C143.782 54.9408 143.448 53.1635 143.102 51.3882H143.103L142.075 46.063V46.0591L141.108 41.2427L148.089 40.022L148.765 44.8638Z" fill="#407BFF" stroke="#5C81F5"/>
<path opacity="0.6" d="M148.513 39.4409L149.261 44.795L150.047 50.1433C150.306 51.9265 150.578 53.7078 150.858 55.4871L151.687 60.7942L151.788 61.3165C151.819 61.4873 151.878 61.7076 151.922 61.901L152.064 62.5001L152.231 63.1217C152.448 63.9461 152.699 64.7953 152.943 65.6378C153.441 67.329 153.969 69.0339 154.511 70.7329C155.617 74.1251 156.765 77.5335 157.991 80.8816L151.219 83.3379L147.826 72.9924C147.264 71.2616 146.694 69.5346 146.154 67.7739C145.885 66.8894 145.615 66.0132 145.36 65.0974L145.167 64.416L144.977 63.7043C144.915 63.4595 144.85 63.2461 144.79 62.9749L144.612 62.1736L143.615 56.8107C143.29 55.0328 142.957 53.2564 142.612 51.4825L141.584 46.1578L140.517 40.8394L148.513 39.4409Z" fill="#F0E4E4"/>
<path d="M147.437 39.0285C147.662 41.6405 147.459 48.1297 144.897 64.2224H127.151C127.433 57.2285 127.456 52.7755 124.518 39.4358C124.239 38.1714 125.058 36.9222 126.311 36.7166C127.721 36.4851 129.618 36.2286 131.54 36.1341C134.527 35.9873 136.973 35.8899 139.599 36.1346C141.801 36.3402 144.191 36.747 145.639 37.0157C146.615 37.1963 147.349 38.0192 147.437 39.0285Z" fill="#263238"/>
<path d="M132.34 26.8638C132.848 29.5129 133.356 34.3668 131.542 36.1343C131.542 36.1343 133.813 38.9519 137.284 38.9519C140.756 38.9519 139.6 36.1343 139.6 36.1343C136.709 35.429 136.783 33.237 137.287 31.1787L132.34 26.8638Z" fill="#FFC3BD"/>
<path opacity="0.2" d="M136.73 31.355C136.681 31.5737 136.64 31.7956 136.606 32.0181C136.235 31.8964 135.824 31.7025 135.455 31.4487C134.965 31.1123 134.624 30.726 134.492 30.3511L134.448 30.1909L134.438 30.0571C134.441 29.9089 134.481 29.7173 134.554 29.4966C134.557 29.4871 134.561 29.4777 134.564 29.4683L136.73 31.355Z" fill="black" stroke="#5C81F5"/>
<path d="M129.288 21.6628C129.965 26.0394 130.16 27.9063 132.547 29.9534C136.139 33.0323 141.252 31.2261 141.869 26.7311C142.424 22.6854 141.224 16.2079 136.842 14.8681C132.526 13.5484 128.611 17.2867 129.288 21.6628Z" fill="#FFC3BD"/>
<path d="M130.004 24.8178C132.455 22.3361 133.299 18.8827 133.067 17.4798C135.433 18.1489 137.165 17.1993 137.059 16.7891C138.728 18.451 141.749 19.7677 141.411 17.9762C141.073 16.1846 138.834 12.883 134.166 14.048C129.497 15.2134 127.702 20.1324 127.744 22.1188C127.787 24.1056 130.004 24.8178 130.004 24.8178Z" fill="#263238"/>
<path d="M135.452 22.1602C135.486 22.5187 135.699 22.7915 135.928 22.769C136.158 22.7465 136.316 22.4379 136.283 22.0789C136.249 21.7203 136.036 21.4475 135.807 21.4701C135.578 21.4926 135.419 21.8012 135.452 22.1602Z" fill="#263238"/>
<path d="M139.419 21.773C139.452 22.1315 139.665 22.4043 139.895 22.3818C140.124 22.3593 140.283 22.0507 140.25 21.6917C140.216 21.3331 140.003 21.0603 139.773 21.0828C139.544 21.1054 139.385 21.4144 139.419 21.773Z" fill="#263238"/>
<path d="M139.673 21.1133L140.492 20.7827C140.492 20.7827 140.123 21.4978 139.673 21.1133Z" fill="#263238"/>
<path d="M138.256 22.5376C138.256 22.5376 138.996 24.0227 139.722 24.7031C139.3 25.1902 138.493 25.0654 138.493 25.0654L138.256 22.5376Z" fill="#ED847E"/>
<path d="M136.711 26.656C136.875 26.6658 137.049 26.6628 137.232 26.6452C137.289 26.6398 137.331 26.5879 137.326 26.5301C137.32 26.4718 137.269 26.4263 137.212 26.4351C135.671 26.583 134.85 25.5559 134.842 25.5456C134.806 25.4996 134.741 25.4917 134.696 25.5289C134.651 25.5652 134.644 25.6323 134.68 25.6778C134.712 25.718 135.399 26.5786 136.711 26.656Z" fill="#263238"/>
<path d="M128.342 25.2217C128.674 26.0754 129.361 26.6926 130.045 26.9799C131.073 27.4127 131.717 26.5056 131.541 25.4449C131.382 24.4899 130.657 23.1144 129.572 23.133C128.504 23.1511 127.962 24.2456 128.342 25.2217Z" fill="#FFC3BD"/>
<path d="M134.071 20.2829C134.153 20.3147 134.249 20.2912 134.306 20.2182C134.907 19.4566 136.139 19.5286 136.151 19.5296C136.266 19.5374 136.364 19.4488 136.371 19.3322C136.379 19.2161 136.294 19.1147 136.178 19.1074C136.119 19.1035 134.719 19.0221 133.984 19.9528C133.912 20.0439 133.926 20.1771 134.015 20.2501C134.032 20.2643 134.052 20.2756 134.071 20.2829Z" fill="#263238"/>
<path d="M140.859 19.8342C140.929 19.8381 141 19.8058 141.043 19.7416C141.107 19.6446 141.082 19.5134 140.987 19.4477C140.038 18.7929 139.153 19.1622 139.116 19.1783C139.01 19.2239 138.961 19.3478 139.006 19.4556C139.05 19.5628 139.171 19.6128 139.276 19.5687C139.312 19.5535 140.002 19.2787 140.755 19.7989C140.787 19.8205 140.823 19.8322 140.859 19.8342Z" fill="#263238"/>
<path d="M159.759 164.865L156.351 165.033L155.173 155.848L158.582 155.681L159.759 164.865Z" fill="#FFC3BD" stroke="#FFC3BD"/>
<g opacity="0.2">
<path d="M159.126 159.936L155.716 160.103L155.17 155.851L158.581 155.684L159.126 159.936Z" fill="black" stroke="#5C81F5"/>
</g>
<path d="M144.473 64.7217C144.514 64.9758 144.572 65.3408 144.647 65.8047C144.804 66.7711 145.03 68.1672 145.308 69.8838C145.864 73.3169 146.628 78.0339 147.464 83.1699C148.717 90.8737 150.13 99.5215 151.235 106.192L152.221 112.097C153.397 119.067 155.309 130.754 156.927 140.699C157.736 145.672 158.471 150.208 159.004 153.502C159.27 155.149 159.486 156.485 159.636 157.409C159.699 157.8 159.75 158.118 159.788 158.354L154.905 159.156C154.848 158.916 154.769 158.585 154.67 158.171C154.449 157.246 154.129 155.91 153.736 154.264C152.95 150.971 151.869 146.438 150.689 141.478C148.921 134.036 146.932 125.635 145.387 119.016L144.014 113.093C142.301 105.623 139.362 96.8565 136.882 88.2676C134.451 79.8497 132.46 71.5898 132.405 64.7217H144.473Z" fill="#407BFF" stroke="#5C81F5"/>
<path opacity="0.2" d="M133.041 71.9658C133.841 72.8748 134.646 73.7992 135.231 74.582L135.569 75.0557L135.57 75.0566C137.449 77.8258 138.521 81.9301 139.018 86.2988C139.4 89.6631 139.437 93.1462 139.257 96.2256C136.752 88.0002 134.197 79.519 133.041 71.9658Z" fill="black" stroke="#5C81F5"/>
<path d="M132.836 155.029L132.572 164.368H129.203L129.467 155.029H132.836Z" fill="#FFC3BD" stroke="#FFC3BD"/>
<path d="M133.265 164.707C133.369 164.707 133.478 164.736 133.575 164.794L133.669 164.861C134.256 165.365 134.915 165.9 135.874 166.403C136.829 166.905 138.064 167.365 139.807 167.748C139.795 167.743 139.816 167.739 139.839 167.808C139.866 167.889 139.873 168.024 139.821 168.176C139.73 168.445 139.447 168.782 138.753 168.782C137.846 168.782 136.708 168.747 135.624 168.712C134.548 168.677 133.518 168.642 132.844 168.642C130.702 168.642 129.789 168.745 128.14 168.774L128.105 168.771C128.07 168.763 128.03 168.742 127.996 168.703C127.962 168.665 127.946 168.623 127.942 168.586L127.943 168.55L128.484 164.707H133.265Z" fill="#263238" stroke="#263238"/>
<g opacity="0.2">
<path d="M132.835 155.032L132.713 159.361H129.343L129.464 155.032H132.835Z" fill="black" stroke="#5C81F5"/>
</g>
<path d="M139.385 64.7217C139.372 64.9714 139.355 65.3066 139.334 65.7188C139.283 66.6973 139.21 68.1106 139.117 69.8486C138.932 73.3248 138.672 78.101 138.375 83.3008C137.855 92.403 137.221 102.796 136.67 109.789L136.439 112.564C135.816 119.627 135.127 131.154 134.594 140.909C134.327 145.788 134.1 150.226 133.939 153.444C133.859 155.053 133.795 156.357 133.751 157.259C133.732 157.643 133.718 157.954 133.707 158.185H128.759C128.751 157.956 128.741 157.65 128.729 157.273C128.701 156.376 128.662 155.078 128.616 153.477C128.524 150.274 128.404 145.86 128.298 141.011C128.098 131.915 127.944 121.303 128.095 114.293L128.129 112.94C128.354 105.327 127.571 96.6356 127.037 88.1387C126.513 79.7857 126.229 71.6162 127.342 64.7217H139.385Z" fill="#407BFF" stroke="#5C81F5"/>
<path d="M127.763 158.9L134.693 159.031L134.8 154.712L127.73 155.162L127.763 158.9Z" fill="#263238"/>
<mask id="path-130-inside-1_570_11899" fill="white">
<path d="M134.906 164.987C135.34 164.987 135.741 164.918 135.966 164.712C136.108 164.581 136.172 164.408 136.153 164.197C136.142 164.071 136.081 163.973 135.977 163.915C135.44 163.614 133.699 164.525 133.503 164.63C133.464 164.65 133.442 164.694 133.448 164.738C133.455 164.783 133.487 164.819 133.531 164.827C133.901 164.903 134.424 164.987 134.906 164.987ZM135.684 164.063C135.764 164.063 135.831 164.075 135.878 164.101C135.92 164.125 135.941 164.16 135.946 164.216C135.959 164.359 135.92 164.469 135.827 164.554C135.562 164.799 134.843 164.841 133.874 164.676C134.474 164.382 135.271 164.063 135.684 164.063Z"/>
</mask>
<path d="M134.906 164.987C135.34 164.987 135.741 164.918 135.966 164.712C136.108 164.581 136.172 164.408 136.153 164.197C136.142 164.071 136.081 163.973 135.977 163.915C135.44 163.614 133.699 164.525 133.503 164.63C133.464 164.65 133.442 164.694 133.448 164.738C133.455 164.783 133.487 164.819 133.531 164.827C133.901 164.903 134.424 164.987 134.906 164.987ZM135.684 164.063C135.764 164.063 135.831 164.075 135.878 164.101C135.92 164.125 135.941 164.16 135.946 164.216C135.959 164.359 135.92 164.469 135.827 164.554C135.562 164.799 134.843 164.841 133.874 164.676C134.474 164.382 135.271 164.063 135.684 164.063Z" fill="#407BFF"/>
<path d="M135.966 164.712L136.642 165.449L136.644 165.447L135.966 164.712ZM136.153 164.197L135.157 164.284L135.157 164.285L136.153 164.197ZM135.977 163.915L135.487 164.787L135.491 164.789L135.977 163.915ZM133.503 164.63L133.967 165.516L133.972 165.513L133.503 164.63ZM133.531 164.827L133.73 163.848L133.729 163.847L133.531 164.827ZM135.878 164.101L136.368 163.23L136.361 163.226L135.878 164.101ZM135.946 164.216L134.95 164.302L134.95 164.306L135.946 164.216ZM135.827 164.554L135.152 163.817L135.15 163.818L135.827 164.554ZM133.874 164.676L133.434 163.778L130.648 165.143L133.706 165.662L133.874 164.676ZM134.906 165.987C135.169 165.987 135.461 165.967 135.744 165.9C136.02 165.835 136.358 165.71 136.642 165.449L135.29 163.975C135.35 163.92 135.375 163.932 135.285 163.953C135.203 163.973 135.077 163.987 134.906 163.987V165.987ZM136.644 165.447C137.036 165.086 137.193 164.598 137.149 164.108L135.157 164.285C135.155 164.266 135.155 164.213 135.18 164.143C135.207 164.069 135.249 164.013 135.288 163.977L136.644 165.447ZM137.149 164.109C137.111 163.678 136.879 163.272 136.463 163.041L135.491 164.789C135.403 164.74 135.317 164.664 135.252 164.561C135.189 164.459 135.163 164.359 135.157 164.284L137.149 164.109ZM136.467 163.044C136 162.781 135.474 162.853 135.21 162.902C134.881 162.962 134.541 163.076 134.253 163.187C133.669 163.412 133.142 163.689 133.034 163.746L133.972 165.513C134.06 165.466 134.502 165.235 134.972 165.053C135.21 164.961 135.419 164.897 135.573 164.868C135.609 164.862 135.637 164.858 135.658 164.856C135.679 164.854 135.688 164.855 135.687 164.854C135.686 164.854 135.668 164.854 135.636 164.846C135.604 164.839 135.55 164.823 135.487 164.787L136.467 163.044ZM133.039 163.744C132.61 163.968 132.396 164.432 132.458 164.877L134.439 164.6C134.488 164.956 134.318 165.332 133.967 165.516L133.039 163.744ZM132.458 164.877C132.52 165.324 132.856 165.711 133.333 165.808L133.729 163.847C134.119 163.926 134.389 164.242 134.439 164.6L132.458 164.877ZM133.331 165.807C133.726 165.888 134.325 165.987 134.906 165.987V163.987C134.523 163.987 134.076 163.918 133.73 163.848L133.331 165.807ZM135.684 165.063C135.676 165.063 135.646 165.062 135.602 165.054C135.56 165.046 135.483 165.026 135.394 164.976L136.361 163.226C136.102 163.083 135.841 163.063 135.684 163.063V165.063ZM135.387 164.973C135.28 164.913 135.159 164.812 135.068 164.66C134.981 164.515 134.957 164.38 134.95 164.302L136.942 164.129C136.931 163.996 136.893 163.816 136.784 163.633C136.671 163.443 136.517 163.314 136.368 163.23L135.387 164.973ZM134.95 164.306C134.946 164.264 134.946 164.179 134.983 164.075C135.021 163.966 135.085 163.878 135.152 163.817L136.503 165.291C136.858 164.966 136.979 164.532 136.942 164.126L134.95 164.306ZM135.15 163.818C135.233 163.742 135.293 163.732 135.26 163.741C135.234 163.749 135.169 163.763 135.053 163.77C134.82 163.785 134.48 163.765 134.041 163.69L133.706 165.662C134.237 165.752 134.74 165.793 135.176 165.767C135.555 165.743 136.104 165.658 136.504 165.29L135.15 163.818ZM134.314 165.574C134.589 165.439 134.903 165.302 135.186 165.201C135.327 165.15 135.449 165.113 135.547 165.089C135.654 165.063 135.694 165.063 135.684 165.063V163.063C135.29 163.063 134.846 163.198 134.512 163.318C134.143 163.45 133.759 163.619 133.434 163.778L134.314 165.574Z" fill="#5C81F5" mask="url(#path-130-inside-1_570_11899)"/>
<mask id="path-132-inside-2_570_11899" fill="white">
<path d="M133.55 164.829C133.565 164.829 133.579 164.826 133.593 164.82C134.114 164.58 135.144 163.616 135.064 163.111C135.044 162.991 134.961 162.842 134.675 162.812C134.464 162.79 134.27 162.851 134.101 162.995C133.552 163.462 133.451 164.664 133.447 164.715C133.444 164.752 133.461 164.788 133.491 164.81C133.508 164.823 133.529 164.829 133.55 164.829ZM134.591 163.02C134.612 163.02 134.633 163.021 134.654 163.023C134.843 163.043 134.855 163.12 134.859 163.145C134.908 163.449 134.208 164.207 133.677 164.535C133.728 164.185 133.874 163.465 134.234 163.158C134.342 163.065 134.46 163.02 134.591 163.02Z"/>
</mask>
<path d="M133.55 164.829C133.565 164.829 133.579 164.826 133.593 164.82C134.114 164.58 135.144 163.616 135.064 163.111C135.044 162.991 134.961 162.842 134.675 162.812C134.464 162.79 134.27 162.851 134.101 162.995C133.552 163.462 133.451 164.664 133.447 164.715C133.444 164.752 133.461 164.788 133.491 164.81C133.508 164.823 133.529 164.829 133.55 164.829ZM134.591 163.02C134.612 163.02 134.633 163.021 134.654 163.023C134.843 163.043 134.855 163.12 134.859 163.145C134.908 163.449 134.208 164.207 133.677 164.535C133.728 164.185 133.874 163.465 134.234 163.158C134.342 163.065 134.46 163.02 134.591 163.02Z" fill="#407BFF"/>
<path d="M133.593 164.82L134.009 165.729L134.012 165.728L133.593 164.82ZM135.064 163.111L136.051 162.954L136.051 162.953L135.064 163.111ZM134.675 162.812L134.569 163.806L134.571 163.807L134.675 162.812ZM134.101 162.995L133.453 162.233L133.453 162.233L134.101 162.995ZM133.447 164.715L134.444 164.792L134.444 164.79L133.447 164.715ZM133.491 164.81L134.099 164.016L134.085 164.006L134.071 163.996L133.491 164.81ZM134.654 163.023L134.538 164.017L134.551 164.018L134.654 163.023ZM134.859 163.145L135.847 162.988L135.845 162.978L134.859 163.145ZM133.677 164.535L132.688 164.39L132.376 166.516L134.203 165.386L133.677 164.535ZM134.234 163.158L134.882 163.919L134.883 163.918L134.234 163.158ZM133.55 165.829C133.707 165.829 133.863 165.796 134.009 165.729L133.176 163.911C133.295 163.857 133.423 163.829 133.55 163.829V165.829ZM134.012 165.728C134.433 165.534 134.923 165.134 135.284 164.748C135.473 164.547 135.666 164.307 135.811 164.05C135.937 163.828 136.126 163.423 136.051 162.954L134.076 163.268C134.057 163.146 134.078 163.064 134.083 163.045C134.089 163.024 134.091 163.03 134.07 163.065C134.029 163.138 133.947 163.249 133.824 163.382C133.704 163.51 133.567 163.634 133.437 163.735C133.3 163.843 133.206 163.897 133.174 163.912L134.012 165.728ZM136.051 162.953C136.016 162.734 135.914 162.445 135.658 162.202C135.401 161.959 135.083 161.849 134.779 161.818L134.571 163.807C134.553 163.805 134.42 163.784 134.281 163.653C134.143 163.522 134.092 163.368 134.076 163.269L136.051 162.953ZM134.781 161.818C134.285 161.765 133.821 161.92 133.454 162.233L134.749 163.757C134.742 163.763 134.717 163.781 134.675 163.794C134.633 163.808 134.594 163.809 134.569 163.806L134.781 161.818ZM133.453 162.233C132.926 162.682 132.703 163.368 132.601 163.761C132.487 164.205 132.454 164.583 132.45 164.64L134.444 164.79C134.444 164.796 134.464 164.547 134.538 164.261C134.575 164.119 134.619 163.991 134.668 163.889C134.72 163.782 134.755 163.752 134.749 163.756L133.453 162.233ZM132.45 164.638C132.421 165.011 132.584 165.391 132.91 165.624L134.071 163.996C134.337 164.185 134.467 164.493 134.444 164.792L132.45 164.638ZM132.883 165.604C133.091 165.763 133.331 165.829 133.55 165.829V163.829C133.727 163.829 133.925 163.883 134.099 164.016L132.883 165.604ZM134.591 164.02C134.58 164.02 134.562 164.019 134.538 164.016L134.769 162.03C134.704 162.022 134.644 162.02 134.591 162.02V164.02ZM134.551 164.018C134.53 164.016 134.341 163.994 134.15 163.82C134.051 163.729 133.979 163.621 133.931 163.509C133.909 163.456 133.895 163.409 133.886 163.371C133.877 163.336 133.873 163.307 133.873 163.313L135.845 162.978C135.832 162.9 135.779 162.599 135.501 162.345C135.256 162.12 134.966 162.05 134.757 162.028L134.551 164.018ZM133.872 163.303C133.845 163.134 133.879 163.015 133.889 162.984C133.901 162.945 133.91 162.934 133.899 162.953C133.877 162.992 133.824 163.068 133.733 163.172C133.549 163.383 133.315 163.583 133.151 163.685L134.203 165.386C134.57 165.159 134.952 164.816 135.238 164.49C135.382 164.325 135.528 164.135 135.641 163.936C135.72 163.795 135.917 163.426 135.847 162.988L133.872 163.303ZM134.667 164.68C134.688 164.534 134.727 164.331 134.788 164.148C134.818 164.057 134.849 163.988 134.875 163.942C134.902 163.893 134.91 163.896 134.882 163.919L133.586 162.396C133.192 162.731 132.995 163.204 132.891 163.513C132.777 163.854 132.718 164.186 132.688 164.39L134.667 164.68ZM134.883 163.918C134.863 163.936 134.823 163.964 134.764 163.987C134.704 164.01 134.644 164.02 134.591 164.02V162.02C134.2 162.02 133.857 162.165 133.584 162.397L134.883 163.918Z" fill="#5C81F5" mask="url(#path-132-inside-2_570_11899)"/>
<path d="M160.273 164.707C160.38 164.707 160.507 164.738 160.636 164.806L160.765 164.886C162.077 165.844 163.586 166.847 166.787 167.604L167.45 167.751C167.467 167.755 167.525 167.779 167.583 167.887C167.64 167.991 167.669 168.132 167.651 168.27C167.633 168.4 167.576 168.516 167.469 168.603C167.361 168.69 167.16 168.782 166.797 168.782C165.89 168.782 164.746 168.747 163.655 168.712C162.571 168.677 161.533 168.642 160.859 168.642C158.718 168.642 157.825 168.745 156.182 168.774C156.133 168.775 156.043 168.748 155.954 168.666C155.886 168.604 155.85 168.54 155.835 168.491L155.828 168.449L155.591 164.707H160.273Z" fill="#263238" stroke="#263238"/>
<mask id="path-135-inside-3_570_11899" fill="white">
<path d="M161.913 164.987C162.348 164.987 162.749 164.918 162.974 164.712C163.117 164.581 163.18 164.408 163.161 164.197C163.15 164.071 163.089 163.973 162.985 163.915C162.448 163.614 160.707 164.525 160.51 164.63C160.471 164.65 160.449 164.694 160.456 164.738C160.462 164.783 160.495 164.819 160.538 164.827C160.909 164.903 161.432 164.987 161.913 164.987ZM162.692 164.063C162.772 164.063 162.838 164.075 162.885 164.101C162.928 164.125 162.949 164.16 162.954 164.216C162.967 164.359 162.927 164.469 162.835 164.554C162.569 164.799 161.851 164.841 160.882 164.676C161.482 164.382 162.279 164.063 162.692 164.063Z"/>
</mask>
<path d="M161.913 164.987C162.348 164.987 162.749 164.918 162.974 164.712C163.117 164.581 163.18 164.408 163.161 164.197C163.15 164.071 163.089 163.973 162.985 163.915C162.448 163.614 160.707 164.525 160.51 164.63C160.471 164.65 160.449 164.694 160.456 164.738C160.462 164.783 160.495 164.819 160.538 164.827C160.909 164.903 161.432 164.987 161.913 164.987ZM162.692 164.063C162.772 164.063 162.838 164.075 162.885 164.101C162.928 164.125 162.949 164.16 162.954 164.216C162.967 164.359 162.927 164.469 162.835 164.554C162.569 164.799 161.851 164.841 160.882 164.676C161.482 164.382 162.279 164.063 162.692 164.063Z" fill="#407BFF"/>
<path d="M162.974 164.712L163.65 165.449L163.651 165.448L162.974 164.712ZM163.161 164.197L162.165 164.284L162.165 164.285L163.161 164.197ZM162.985 163.915L162.495 164.787L162.499 164.789L162.985 163.915ZM160.51 164.63L160.974 165.516L160.978 165.513L160.51 164.63ZM160.538 164.827L160.338 165.807L160.339 165.807L160.538 164.827ZM162.885 164.101L163.376 163.23L163.369 163.226L162.885 164.101ZM162.954 164.216L161.958 164.302L161.958 164.306L162.954 164.216ZM162.835 164.554L162.159 163.817L162.158 163.818L162.835 164.554ZM160.882 164.676L160.442 163.778L157.656 165.143L160.714 165.662L160.882 164.676ZM161.913 165.987C162.177 165.987 162.469 165.967 162.752 165.9C163.027 165.835 163.365 165.71 163.65 165.449L162.298 163.975C162.358 163.92 162.383 163.932 162.293 163.953C162.211 163.973 162.085 163.987 161.913 163.987V165.987ZM163.651 165.448C164.045 165.085 164.2 164.596 164.157 164.108L162.165 164.285C162.163 164.267 162.162 164.214 162.188 164.143C162.215 164.069 162.257 164.012 162.297 163.976L163.651 165.448ZM164.157 164.109C164.119 163.678 163.887 163.272 163.471 163.041L162.499 164.789C162.411 164.74 162.324 164.664 162.26 164.561C162.196 164.459 162.171 164.36 162.165 164.284L164.157 164.109ZM163.475 163.044C163.008 162.781 162.482 162.853 162.218 162.902C161.889 162.962 161.549 163.076 161.26 163.187C160.677 163.412 160.15 163.689 160.042 163.746L160.978 165.513C161.068 165.466 161.51 165.235 161.98 165.053C162.218 164.961 162.427 164.897 162.581 164.868C162.617 164.862 162.645 164.858 162.666 164.856C162.687 164.854 162.696 164.855 162.695 164.854C162.694 164.854 162.675 164.854 162.644 164.846C162.612 164.839 162.558 164.823 162.495 164.787L163.475 163.044ZM160.046 163.744C159.617 163.968 159.403 164.431 159.465 164.877L161.446 164.6C161.496 164.956 161.325 165.332 160.974 165.516L160.046 163.744ZM159.465 164.877C159.528 165.328 159.867 165.711 160.338 165.807L160.738 163.848C161.123 163.926 161.395 164.238 161.446 164.6L159.465 164.877ZM160.339 165.807C160.734 165.888 161.333 165.987 161.913 165.987V163.987C161.531 163.987 161.084 163.918 160.737 163.847L160.339 165.807ZM162.692 165.063C162.683 165.063 162.654 165.062 162.61 165.054C162.567 165.046 162.491 165.026 162.402 164.976L163.369 163.226C163.11 163.083 162.849 163.063 162.692 163.063V165.063ZM162.395 164.973C162.288 164.913 162.167 164.812 162.075 164.66C161.989 164.515 161.964 164.38 161.958 164.302L163.95 164.129C163.939 163.996 163.901 163.816 163.792 163.633C163.678 163.443 163.525 163.314 163.376 163.23L162.395 164.973ZM161.958 164.306C161.954 164.264 161.954 164.179 161.991 164.075C162.029 163.966 162.093 163.878 162.159 163.817L163.511 165.291C163.866 164.966 163.987 164.532 163.95 164.126L161.958 164.306ZM162.158 163.818C162.241 163.742 162.3 163.732 162.268 163.741C162.242 163.749 162.177 163.763 162.061 163.77C161.828 163.785 161.487 163.765 161.049 163.69L160.714 165.662C161.245 165.752 161.748 165.793 162.183 165.767C162.562 165.743 163.112 165.658 163.512 165.29L162.158 163.818ZM161.322 165.574C161.597 165.439 161.911 165.302 162.194 165.201C162.335 165.15 162.457 165.113 162.555 165.089C162.662 165.063 162.702 165.063 162.692 165.063V163.063C162.298 163.063 161.853 163.198 161.52 163.318C161.151 163.45 160.766 163.619 160.442 163.778L161.322 165.574Z" fill="#5C81F5" mask="url(#path-135-inside-3_570_11899)"/>
<mask id="path-137-inside-4_570_11899" fill="white">
<path d="M160.558 164.829C160.572 164.829 160.587 164.826 160.601 164.82C161.122 164.58 162.152 163.616 162.071 163.111C162.052 162.991 161.969 162.842 161.682 162.812C161.471 162.79 161.277 162.851 161.109 162.995C160.559 163.462 160.458 164.664 160.454 164.715C160.452 164.752 160.468 164.788 160.498 164.81C160.516 164.823 160.537 164.829 160.558 164.829ZM161.599 163.02C161.619 163.02 161.64 163.021 161.662 163.023C161.85 163.043 161.863 163.12 161.867 163.145C161.916 163.449 161.216 164.207 160.685 164.535C160.736 164.185 160.881 163.465 161.242 163.158C161.35 163.065 161.468 163.02 161.599 163.02Z"/>
</mask>
<path d="M160.558 164.829C160.572 164.829 160.587 164.826 160.601 164.82C161.122 164.58 162.152 163.616 162.071 163.111C162.052 162.991 161.969 162.842 161.682 162.812C161.471 162.79 161.277 162.851 161.109 162.995C160.559 163.462 160.458 164.664 160.454 164.715C160.452 164.752 160.468 164.788 160.498 164.81C160.516 164.823 160.537 164.829 160.558 164.829ZM161.599 163.02C161.619 163.02 161.64 163.021 161.662 163.023C161.85 163.043 161.863 163.12 161.867 163.145C161.916 163.449 161.216 164.207 160.685 164.535C160.736 164.185 160.881 163.465 161.242 163.158C161.35 163.065 161.468 163.02 161.599 163.02Z" fill="#407BFF"/>
<path d="M160.601 164.82L161.017 165.729L161.02 165.728L160.601 164.82ZM162.071 163.111L163.059 162.954L163.059 162.953L162.071 163.111ZM161.682 162.812L161.576 163.806L161.579 163.807L161.682 162.812ZM161.109 162.995L160.461 162.233L160.46 162.233L161.109 162.995ZM160.454 164.715L161.451 164.792L161.452 164.79L160.454 164.715ZM160.498 164.81L161.096 164.008L161.087 164.002L161.079 163.996L160.498 164.81ZM161.662 163.023L161.546 164.017L161.558 164.018L161.662 163.023ZM161.867 163.145L162.855 162.988L162.853 162.978L161.867 163.145ZM160.685 164.535L159.695 164.39L159.384 166.516L161.211 165.386L160.685 164.535ZM161.242 163.158L161.89 163.919L161.891 163.918L161.242 163.158ZM160.558 165.829C160.712 165.829 160.869 165.797 161.017 165.729L160.184 163.911C160.305 163.856 160.433 163.829 160.558 163.829V165.829ZM161.02 165.728C161.44 165.534 161.93 165.134 162.292 164.748C162.48 164.547 162.674 164.307 162.819 164.05C162.945 163.828 163.134 163.423 163.059 162.954L161.084 163.268C161.064 163.146 161.086 163.064 161.091 163.045C161.097 163.024 161.098 163.03 161.078 163.065C161.037 163.138 160.955 163.249 160.831 163.382C160.711 163.51 160.574 163.634 160.445 163.735C160.307 163.843 160.214 163.897 160.182 163.912L161.02 165.728ZM163.059 162.953C163.024 162.734 162.922 162.445 162.665 162.202C162.409 161.959 162.09 161.849 161.786 161.818L161.579 163.807C161.561 163.805 161.428 163.785 161.289 163.653C161.151 163.522 161.1 163.368 161.084 163.269L163.059 162.953ZM161.788 161.818C161.292 161.765 160.828 161.92 160.461 162.233L161.756 163.757C161.749 163.763 161.724 163.781 161.683 163.794C161.64 163.808 161.602 163.809 161.576 163.806L161.788 161.818ZM160.46 162.233C159.934 162.682 159.71 163.368 159.609 163.761C159.494 164.205 159.462 164.583 159.457 164.64L161.452 164.79C161.451 164.796 161.471 164.547 161.545 164.261C161.582 164.119 161.626 163.991 161.675 163.889C161.727 163.782 161.762 163.752 161.757 163.756L160.46 162.233ZM159.457 164.638C159.429 165.011 159.591 165.391 159.917 165.624L161.079 163.996C161.345 164.185 161.475 164.493 161.451 164.792L159.457 164.638ZM159.9 165.612C160.102 165.762 160.336 165.829 160.558 165.829V163.829C160.738 163.829 160.929 163.884 161.096 164.008L159.9 165.612ZM161.599 164.02C161.588 164.02 161.57 164.019 161.546 164.016L161.777 162.03C161.711 162.022 161.651 162.02 161.599 162.02V164.02ZM161.558 164.018C161.538 164.016 161.349 163.994 161.158 163.82C161.059 163.729 160.987 163.621 160.939 163.509C160.917 163.456 160.903 163.409 160.893 163.371C160.885 163.336 160.88 163.307 160.881 163.313L162.853 162.978C162.84 162.9 162.787 162.599 162.509 162.345C162.263 162.12 161.974 162.05 161.765 162.028L161.558 164.018ZM160.88 163.303C160.853 163.134 160.887 163.015 160.896 162.984C160.908 162.945 160.918 162.934 160.907 162.953C160.885 162.992 160.832 163.068 160.741 163.172C160.557 163.383 160.323 163.583 160.159 163.685L161.211 165.386C161.578 165.159 161.96 164.816 162.245 164.49C162.39 164.325 162.536 164.135 162.648 163.936C162.728 163.795 162.925 163.426 162.855 162.988L160.88 163.303ZM161.674 164.68C161.696 164.534 161.734 164.331 161.796 164.148C161.826 164.057 161.856 163.989 161.882 163.942C161.91 163.893 161.918 163.896 161.89 163.919L160.593 162.396C160.2 162.731 160.003 163.204 159.899 163.513C159.785 163.854 159.725 164.186 159.695 164.39L161.674 164.68ZM161.891 163.918C161.87 163.936 161.83 163.964 161.772 163.987C161.713 164.01 161.652 164.02 161.599 164.02V162.02C161.209 162.02 160.865 162.164 160.592 162.397L161.891 163.918Z" fill="#5C81F5" mask="url(#path-137-inside-4_570_11899)"/>
<path d="M154.056 160.023L160.9 158.897L160.127 155.16L153.343 156.792L154.056 160.023Z" fill="#263238"/>
<path d="M135.708 21.5001L136.527 21.1694C136.527 21.1694 136.158 21.8845 135.708 21.5001Z" fill="#263238"/>
<path d="M144.916 63.522L144.816 64.5356H127.02L127.303 63.522H144.916Z" fill="#263238" stroke="#5C81F5"/>
<mask id="path-142-inside-5_570_11899" fill="white">
<path d="M129.358 65.2114H128.877C128.781 65.2114 128.708 65.1609 128.714 65.0993L128.94 62.9905C128.947 62.9288 129.031 62.8784 129.126 62.8784H129.608C129.704 62.8784 129.777 62.9288 129.77 62.9905L129.545 65.0993C129.538 65.1604 129.454 65.2114 129.358 65.2114Z"/>
</mask>
<path d="M129.358 65.2114H128.877C128.781 65.2114 128.708 65.1609 128.714 65.0993L128.94 62.9905C128.947 62.9288 129.031 62.8784 129.126 62.8784H129.608C129.704 62.8784 129.777 62.9288 129.77 62.9905L129.545 65.0993C129.538 65.1604 129.454 65.2114 129.358 65.2114Z" fill="#407BFF"/>
<path d="M128.714 65.0993L129.708 65.2074L129.709 65.2057L128.714 65.0993ZM128.94 62.9905L127.946 62.8824L127.946 62.8841L128.94 62.9905ZM129.77 62.9905L128.776 62.8824L128.776 62.8841L129.77 62.9905ZM129.545 65.0993L130.539 65.2083L130.539 65.2057L129.545 65.0993ZM129.358 64.2114H128.877V66.2114H129.358V64.2114ZM128.877 64.2114C128.991 64.2114 129.157 64.2393 129.325 64.3551C129.493 64.4715 129.757 64.7623 129.708 65.2074L127.72 64.9911C127.665 65.4978 127.962 65.8447 128.19 66.0018C128.416 66.1582 128.667 66.2114 128.877 66.2114V64.2114ZM129.709 65.2057L129.934 63.0969L127.946 62.8841L127.72 64.9928L129.709 65.2057ZM129.934 63.0986C129.891 63.4954 129.629 63.6997 129.515 63.7684C129.38 63.8495 129.244 63.8784 129.126 63.8784V61.8784C128.913 61.8784 128.687 61.9325 128.485 62.0543C128.303 62.1635 127.996 62.424 127.946 62.8824L129.934 63.0986ZM129.126 63.8784H129.608V61.8784H129.126V63.8784ZM129.608 63.8784C129.494 63.8784 129.328 63.8504 129.16 63.7347C128.991 63.6183 128.728 63.3274 128.776 62.8824L130.765 63.0986C130.82 62.5919 130.523 62.245 130.295 62.088C130.068 61.9316 129.818 61.8784 129.608 61.8784V63.8784ZM128.776 62.8841L128.55 64.9928L130.539 65.2057L130.765 63.0969L128.776 62.8841ZM128.551 64.9903C128.594 64.5929 128.857 64.3893 128.969 64.3219C129.103 64.2411 129.239 64.2114 129.358 64.2114V66.2114C129.574 66.2114 129.8 66.1562 130.001 66.0346C130.181 65.9264 130.489 65.6668 130.539 65.2083L128.551 64.9903Z" fill="#5C81F5" mask="url(#path-142-inside-5_570_11899)"/>
<mask id="path-144-inside-6_570_11899" fill="white">
<path d="M143.633 65.2114H143.151C143.055 65.2114 142.982 65.1609 142.989 65.0993L143.214 62.9905C143.221 62.9288 143.305 62.8784 143.401 62.8784H143.882C143.978 62.8784 144.051 62.9288 144.045 62.9905L143.819 65.0993C143.812 65.1604 143.729 65.2114 143.633 65.2114Z"/>
</mask>
<path d="M143.633 65.2114H143.151C143.055 65.2114 142.982 65.1609 142.989 65.0993L143.214 62.9905C143.221 62.9288 143.305 62.8784 143.401 62.8784H143.882C143.978 62.8784 144.051 62.9288 144.045 62.9905L143.819 65.0993C143.812 65.1604 143.729 65.2114 143.633 65.2114Z" fill="#407BFF"/>
<path d="M142.989 65.0993L141.994 64.9928L141.994 64.9988L142.989 65.0993ZM143.214 62.9905L142.22 62.8824L142.22 62.8841L143.214 62.9905ZM144.045 62.9905L145.039 63.0969L145.04 63.091L144.045 62.9905ZM143.819 65.0993L144.813 65.2083L144.813 65.2057L143.819 65.0993ZM143.633 64.2114H143.151V66.2114H143.633V64.2114ZM143.151 64.2114C143.266 64.2114 143.432 64.2395 143.6 64.3556C143.769 64.4726 144.028 64.7605 143.984 65.1998L141.994 64.9988C141.943 65.4997 142.235 65.8436 142.463 66.0013C142.69 66.158 142.941 66.2114 143.151 66.2114V64.2114ZM143.983 65.2057L144.209 63.0969L142.22 62.8841L141.994 64.9928L143.983 65.2057ZM144.209 63.0986C144.165 63.4954 143.904 63.6997 143.789 63.7684C143.654 63.8495 143.518 63.8784 143.401 63.8784V61.8784C143.187 61.8784 142.961 61.9325 142.759 62.0543C142.577 62.1635 142.27 62.424 142.22 62.8824L144.209 63.0986ZM143.401 63.8784H143.882V61.8784H143.401V63.8784ZM143.882 63.8784C143.768 63.8784 143.602 63.8503 143.434 63.7342C143.264 63.6171 143.006 63.3292 143.05 62.89L145.04 63.091C145.09 62.5901 144.798 62.2462 144.57 62.0885C144.343 61.9318 144.093 61.8784 143.882 61.8784V63.8784ZM143.051 62.8841L142.825 64.9928L144.813 65.2057L145.039 63.0969L143.051 62.8841ZM142.825 64.9903C142.869 64.5929 143.131 64.3893 143.243 64.3219C143.377 64.2411 143.513 64.2114 143.633 64.2114V66.2114C143.848 66.2114 144.074 66.1562 144.276 66.0346C144.455 65.9264 144.763 65.6668 144.813 65.2083L142.825 64.9903Z" fill="#5C81F5" mask="url(#path-144-inside-6_570_11899)"/>
<mask id="path-146-inside-7_570_11899" fill="white">
<path d="M136.525 65.2114H136.044C135.948 65.2114 135.875 65.1609 135.881 65.0993L136.107 62.9905C136.114 62.9288 136.198 62.8784 136.293 62.8784H136.775C136.871 62.8784 136.944 62.9288 136.937 62.9905L136.712 65.0993C136.705 65.1604 136.621 65.2114 136.525 65.2114Z"/>
</mask>
<path d="M136.525 65.2114H136.044C135.948 65.2114 135.875 65.1609 135.881 65.0993L136.107 62.9905C136.114 62.9288 136.198 62.8784 136.293 62.8784H136.775C136.871 62.8784 136.944 62.9288 136.937 62.9905L136.712 65.0993C136.705 65.1604 136.621 65.2114 136.525 65.2114Z" fill="#407BFF"/>
<path d="M135.881 65.0993L136.875 65.2074L136.876 65.2057L135.881 65.0993ZM136.107 62.9905L135.113 62.8824L135.113 62.8841L136.107 62.9905ZM136.937 62.9905L135.943 62.8824L135.943 62.8841L136.937 62.9905ZM136.712 65.0993L137.706 65.2083L137.706 65.2057L136.712 65.0993ZM136.525 64.2114H136.044V66.2114H136.525V64.2114ZM136.044 64.2114C136.158 64.2114 136.324 64.2393 136.492 64.3551C136.66 64.4714 136.924 64.7623 136.875 65.2074L134.887 64.9911C134.832 65.4979 135.129 65.8448 135.357 66.0018C135.583 66.1582 135.834 66.2114 136.044 66.2114V64.2114ZM136.876 65.2057L137.101 63.0969L135.113 62.8841L134.887 64.9928L136.876 65.2057ZM137.101 63.0986C137.058 63.4954 136.796 63.6997 136.682 63.7684C136.547 63.8495 136.411 63.8784 136.293 63.8784V61.8784C136.08 61.8784 135.854 61.9325 135.652 62.0543C135.47 62.1635 135.163 62.424 135.113 62.8824L137.101 63.0986ZM136.293 63.8784H136.775V61.8784H136.293V63.8784ZM136.775 63.8784C136.661 63.8784 136.495 63.8504 136.327 63.7347C136.158 63.6183 135.895 63.3274 135.943 62.8824L137.932 63.0986C137.987 62.5919 137.69 62.245 137.462 62.088C137.235 61.9316 136.985 61.8784 136.775 61.8784V63.8784ZM135.943 62.8841L135.717 64.9928L137.706 65.2057L137.932 63.0969L135.943 62.8841ZM135.718 64.9903C135.761 64.5929 136.024 64.3893 136.136 64.3219C136.27 64.2411 136.406 64.2114 136.525 64.2114V66.2114C136.741 66.2114 136.967 66.1562 137.168 66.0346C137.348 65.9264 137.656 65.6668 137.706 65.2083L135.718 64.9903Z" fill="#5C81F5" mask="url(#path-146-inside-7_570_11899)"/>
<path d="M130.772 35.9867C127.988 36.2456 123.737 35.7096 123.864 40.0691C123.99 44.4285 123.167 55.984 123.393 61.3939C123.618 66.8039 122.234 101.824 124.464 111.976C124.857 113.767 139.277 113.537 141.024 113.364C141.024 112.615 141.024 111.752 141.024 111.752C141.024 111.752 151.501 110.314 154.092 110.774C153.867 104.673 148.064 73.8673 147.839 65.2135C147.614 56.5597 148.567 41.6839 148.511 39.324C148.454 36.9647 143.863 35.9289 141.051 35.9867C141.671 38.116 140.296 42.1191 138.097 46.5769C132.687 41.1929 131.091 38.5188 130.772 35.9867Z" fill="#407BFF"/>
<path opacity="0.7" d="M130.772 35.9867C127.988 36.2456 123.737 35.7096 123.864 40.0691C123.99 44.4285 123.167 55.984 123.393 61.3939C123.618 66.8039 122.234 101.824 124.464 111.976C124.857 113.767 139.277 113.537 141.024 113.364C141.024 112.615 141.024 111.752 141.024 111.752C141.024 111.752 151.501 110.314 154.092 110.774C153.867 104.673 148.064 73.8673 147.839 65.2135C147.614 56.5597 148.567 41.6839 148.511 39.324C148.454 36.9647 143.863 35.9289 141.051 35.9867C141.671 38.116 140.296 42.1191 138.097 46.5769C132.687 41.1929 131.091 38.5188 130.772 35.9867Z" fill="#F0E4E4"/>
<path opacity="0.2" d="M125.478 46.3296L123.696 47.6204C123.554 51.3861 123.366 55.6129 123.351 58.8602C125.006 55.1346 125.939 49.7277 125.478 46.3296Z" fill="#407BFF"/>
<path d="M130.439 42.5396L130.392 42.5952L130.339 42.6528L130.243 42.7583L130.241 42.7603L130.049 42.9712L130.044 42.9761L129.662 43.4077L129.661 43.4087C129.529 43.5573 129.4 43.7082 129.272 43.8599L128.893 44.3149C128.642 44.6205 128.392 44.9298 128.147 45.2417L127.42 46.1851C126.46 47.4565 125.579 48.7801 124.77 50.1206C123.253 52.6288 122.021 55.3151 121.433 57.9146L121.324 58.4331V58.4351C121.202 59.0801 121.132 59.71 121.098 60.3198C121.084 60.3688 121.081 60.4038 121.081 60.4077C121.077 60.438 121.078 60.4631 121.079 60.4761C121.079 60.5038 121.082 60.5287 121.083 60.5454C121.091 60.6122 121.108 60.7042 121.131 60.8052C121.179 61.0089 121.267 61.3032 121.403 61.603V61.604C121.839 62.6365 122.544 63.8163 123.305 64.9526L123.634 65.436C124.309 66.4166 125.051 67.377 125.816 68.3228L126.586 69.2642C126.847 69.5798 127.113 69.8914 127.381 70.1997L128.195 71.1167C128.617 71.5865 129.064 72.0748 129.497 72.5249L125.057 76.9067C124.872 76.6977 124.691 76.4933 124.512 76.2896L123.653 75.2983L121.964 73.2837C121.128 72.2737 120.317 71.235 119.518 70.1587L118.722 69.0688C117.803 67.7619 116.918 66.4589 116.126 64.8579L115.792 64.1519C115.633 63.7862 115.48 63.4016 115.338 62.9771L115.201 62.5366C115.136 62.3137 115.075 62.0745 115.024 61.8159L114.976 61.5513C114.961 61.4609 114.947 61.3692 114.935 61.2749L114.906 60.9819L114.904 60.9692L114.886 60.6675C114.883 60.5597 114.882 60.4536 114.882 60.3794C114.894 59.3309 114.985 58.3062 115.143 57.3179C115.432 55.5859 115.891 53.9466 116.462 52.394L116.714 51.7339V51.7319C117.315 50.1936 117.996 48.7251 118.743 47.311L119.067 46.7085V46.7075C119.938 45.108 120.896 43.5806 121.895 42.0796C122.395 41.3351 122.911 40.6025 123.444 39.8794L124.266 38.7886L124.265 38.7876L124.466 38.5298L130.439 42.5396ZM121.593 60.564C121.609 60.6517 121.641 60.785 121.689 60.9409C121.684 60.9421 121.678 60.9447 121.672 60.9458C121.483 60.9813 121.343 60.9009 121.285 60.8579C121.188 60.7866 121.144 60.6974 121.141 60.6919C121.129 60.6685 121.122 60.6494 121.12 60.6431C121.117 60.6349 121.114 60.6292 121.114 60.6274L121.593 60.564Z" fill="#407BFF" stroke="#5C81F5"/>
<path opacity="0.7" d="M131.155 42.4171C131.063 42.5552 130.964 42.6893 130.859 42.8175L130.76 42.934L130.708 42.9913L130.61 43.097L130.419 43.3075L130.035 43.7397C129.779 44.03 129.528 44.331 129.279 44.6331C128.781 45.2386 128.293 45.8583 127.82 46.4868C126.87 47.7428 125.999 49.0517 125.197 50.3797C123.597 53.0255 122.334 55.8469 121.815 58.5284C121.689 59.1951 121.619 59.8456 121.59 60.4756C121.547 60.3405 121.618 60.8745 121.863 61.4096C122.342 62.5413 123.167 63.8795 124.046 65.1522C124.933 66.4411 125.941 67.6991 126.972 68.9453C127.487 69.5695 128.024 70.1794 128.566 70.7824C129.103 71.3786 129.674 71.9998 130.202 72.5324L125.033 77.6334C124.407 76.9344 123.852 76.2976 123.273 75.6245L121.581 73.6044C120.457 72.247 119.379 70.8387 118.316 69.3604C117.261 67.8601 116.231 66.3388 115.337 64.3573C115.116 63.8526 114.906 63.3093 114.721 62.6769C114.629 62.3621 114.546 62.0165 114.483 61.6333C114.451 61.4414 114.424 61.2407 114.407 61.0214C114.387 60.8305 114.381 60.5265 114.382 60.3733C114.395 59.2988 114.487 58.2489 114.65 57.2356C114.986 55.2164 115.55 53.3241 116.249 51.5501C116.944 49.7703 117.744 48.084 118.628 46.4682C119.509 44.8504 120.476 43.3095 121.48 41.8008C121.986 41.049 122.506 40.3089 123.044 39.5785L123.867 38.4874L124.291 37.9421L124.508 37.669L124.617 37.5339L124.668 37.4712L124.68 37.4556L124.686 37.4478L124.619 37.5275C124.531 37.6357 124.45 37.7498 124.375 37.8672L131.155 42.4171Z" fill="#F0E4E4"/>
<g opacity="0.3">
<mask id="path-153-inside-8_570_11899" fill="white">
<path d="M138.097 46.5752C138.601 57.0181 141.334 93.4488 141.024 111.751C141.79 111.649 141.857 111.64 141.857 111.64C141.857 111.64 140.563 83.4925 139.977 71.1763C139.39 58.8596 138.097 46.5752 138.097 46.5752Z"/>
</mask>
<path d="M138.097 46.5752C138.601 57.0181 141.334 93.4488 141.024 111.751C141.79 111.649 141.857 111.64 141.857 111.64C141.857 111.64 140.563 83.4925 139.977 71.1763C139.39 58.8596 138.097 46.5752 138.097 46.5752Z" fill="#407BFF"/>
<path d="M138.097 46.5752L139.091 46.4705L137.098 46.6235L138.097 46.5752ZM141.024 111.751L140.024 111.734L140.005 112.894L141.155 112.742L141.024 111.751ZM141.857 111.64L141.988 112.632L142.898 112.511L142.856 111.595L141.857 111.64ZM139.977 71.1763L138.978 71.2238L138.978 71.2239L139.977 71.1763ZM137.098 46.6235C137.606 57.1305 140.333 93.4743 140.024 111.734L142.024 111.768C142.334 93.4234 139.597 56.9057 139.096 46.5269L137.098 46.6235ZM141.155 112.742C141.538 112.691 141.746 112.664 141.859 112.649C141.915 112.641 141.947 112.637 141.965 112.635C141.975 112.634 141.98 112.633 141.983 112.632C141.985 112.632 141.986 112.632 141.987 112.632C141.987 112.632 141.987 112.632 141.988 112.632C141.988 112.632 141.988 112.632 141.988 112.632C141.988 112.632 141.988 112.632 141.988 112.632C141.988 112.632 141.988 112.632 141.988 112.632C141.988 112.632 141.988 112.632 141.988 112.632C141.988 112.632 141.988 112.632 141.857 111.64C141.725 110.649 141.725 110.649 141.725 110.649C141.725 110.649 141.725 110.649 141.725 110.649C141.725 110.649 141.725 110.649 141.725 110.649C141.725 110.649 141.725 110.649 141.725 110.649C141.725 110.649 141.725 110.649 141.725 110.649C141.725 110.649 141.725 110.649 141.725 110.649C141.724 110.649 141.723 110.649 141.721 110.65C141.718 110.65 141.712 110.651 141.703 110.652C141.685 110.654 141.653 110.659 141.596 110.666C141.484 110.681 141.276 110.709 140.893 110.759L141.155 112.742ZM141.857 111.64C142.856 111.595 142.856 111.594 142.856 111.594C142.856 111.594 142.856 111.594 142.856 111.593C142.856 111.592 142.855 111.591 142.855 111.589C142.855 111.586 142.855 111.581 142.855 111.574C142.854 111.561 142.853 111.54 142.852 111.513C142.849 111.46 142.846 111.38 142.841 111.275C142.831 111.066 142.817 110.758 142.799 110.361C142.762 109.567 142.71 108.42 142.644 107.004C142.514 104.173 142.334 100.269 142.136 95.9807C141.739 87.4043 141.269 77.2876 140.976 71.1287L138.978 71.2239C139.271 77.3812 139.741 87.4966 140.138 96.0731C140.336 100.361 140.516 104.265 140.646 107.096C140.712 108.512 140.764 109.659 140.801 110.453C140.819 110.85 140.833 111.158 140.843 111.367C140.848 111.472 140.852 111.552 140.854 111.605C140.855 111.632 140.856 111.652 140.857 111.666C140.857 111.673 140.857 111.678 140.857 111.681C140.858 111.683 140.858 111.684 140.858 111.685C140.858 111.686 140.858 111.686 140.858 111.686C140.858 111.686 140.858 111.686 141.857 111.64ZM140.976 71.1287C140.681 64.953 140.21 58.789 139.813 54.1713C139.614 51.8618 139.434 49.9376 139.303 48.5905C139.238 47.9169 139.185 47.3875 139.148 47.0262C139.13 46.8455 139.116 46.7069 139.106 46.6133C139.101 46.5665 139.098 46.5309 139.095 46.507C139.094 46.495 139.093 46.486 139.092 46.4799C139.092 46.4768 139.092 46.4745 139.091 46.473C139.091 46.4722 139.091 46.4716 139.091 46.4712C139.091 46.471 139.091 46.4708 139.091 46.4707C139.091 46.4706 139.091 46.4705 138.097 46.5752C137.102 46.6799 137.102 46.6799 137.102 46.68C137.102 46.6801 137.102 46.6802 137.102 46.6804C137.102 46.6807 137.102 46.6812 137.102 46.6819C137.103 46.6833 137.103 46.6855 137.103 46.6884C137.104 46.6942 137.105 46.703 137.106 46.7146C137.108 46.7379 137.112 46.7729 137.117 46.819C137.126 46.9114 137.14 47.0487 137.159 47.228C137.195 47.5866 137.248 48.1131 137.313 48.7837C137.443 50.1247 137.622 52.0415 137.82 54.3427C138.216 58.9463 138.685 65.0828 138.978 71.2238L140.976 71.1287Z" fill="#5C81F5" mask="url(#path-153-inside-8_570_11899)"/>
</g>
<path opacity="0.3" d="M129.441 73.8335C129.618 75.8658 129.65 78.6812 129.334 81.0151C129.144 82.4211 128.837 83.5874 128.407 84.3052C128.195 84.6596 127.978 84.8612 127.774 84.9536C127.611 85.0277 127.411 85.0515 127.147 84.9692L127.03 84.9272C126.261 84.6181 125.785 84.1873 125.484 83.7046C125.179 83.2146 125.032 82.6372 124.983 82.0073C124.934 81.3754 124.985 80.7172 125.052 80.0776C125.108 79.5389 125.178 78.9836 125.195 78.5122L129.441 73.8335Z" fill="#407BFF" stroke="#5C81F5"/>
<path opacity="0.3" d="M148.261 78.3501C148.281 78.8398 148.332 79.4366 148.378 80.0552C148.428 80.7198 148.473 81.4256 148.476 82.1118C148.478 82.8001 148.437 83.4517 148.322 84.0103C148.233 84.4448 148.102 84.7962 147.934 85.062C147.891 84.9529 147.845 84.8169 147.801 84.6519C147.591 83.8675 147.422 82.6149 147.295 81.1489C147.13 79.2454 147.041 77.0364 147.009 75.146L148.261 78.3501Z" fill="#407BFF" stroke="#5C81F5"/>
<path d="M140.911 50.2083L146.533 50.1725C146.781 50.171 146.962 49.9728 146.935 49.7329L146.623 47.0084C146.596 46.7681 146.37 46.5728 146.122 46.5742L140.5 46.61C140.252 46.6114 140.072 46.8097 140.099 47.0495L140.41 49.7741C140.438 50.0144 140.663 50.2097 140.911 50.2083Z" fill="#F0E4E4" stroke="#5C81F5" stroke-width="0.5" stroke-miterlimit="10"/>
</svg>
