<svg width="22" height="22" viewBox="0 0 22 22" fill="none" xmlns="http://www.w3.org/2000/svg">
<path fill-rule="evenodd" clip-rule="evenodd" d="M6.24943 21.2538L6.69926 18.8321L5.69721 18.8123H0.912231L4.23762 0.94152C4.24798 0.887405 4.28147 0.83717 4.33038 0.801434C4.37953 0.765698 4.44218 0.746094 4.50771 0.746094H12.5759C15.2546 0.746094 17.1031 1.21843 18.068 2.15084C18.5205 2.58825 18.8087 3.04547 18.9482 3.54843C19.0944 4.07631 19.0968 4.7069 18.9542 5.47615L18.9438 5.5321V6.02506L19.3963 6.24234C19.7772 6.41367 20.0801 6.6097 20.3124 6.83413C20.6993 7.20824 20.9496 7.68363 21.0554 8.24704C21.1648 8.82658 21.1286 9.51639 20.9496 10.2973C20.7431 11.1954 20.4094 11.9777 19.9587 12.6177C19.5443 13.2074 19.0161 13.6967 18.389 14.0757C17.7902 14.436 17.079 14.7094 16.2748 14.8844C15.4953 15.0563 14.6068 15.1431 13.6322 15.1431H13.0043C12.5554 15.1431 12.1193 15.2801 11.777 15.5258C11.4336 15.7766 11.2067 16.1192 11.137 16.494L11.0896 16.712L10.2947 20.9806L10.2588 21.1372C10.2492 21.1868 10.2328 21.2116 10.2087 21.2283C10.1873 21.2436 10.1564 21.2538 10.1263 21.2538H6.24943Z" fill="#28356A"/>
<path fill-rule="evenodd" clip-rule="evenodd" d="M19.8251 5.58984C19.8013 5.72033 19.7736 5.85368 19.7427 5.9907C18.6788 10.6209 15.0385 12.2205 10.3894 12.2205H8.02218C7.45357 12.2205 6.97435 12.5703 6.88593 13.0457L5.33069 21.4069C5.2731 21.7192 5.55692 22.0004 5.92845 22.0004H10.127C10.624 22.0004 11.0464 21.6942 11.1247 21.2787L11.1659 21.098L11.9564 16.8462L12.0073 16.613C12.0846 16.196 12.5079 15.8897 13.005 15.8897H13.6328C17.7006 15.8897 20.885 14.49 21.8157 10.4394C22.2044 8.7473 22.0032 7.33439 20.9744 6.34071C20.6631 6.04114 20.2769 5.79242 19.8251 5.58984Z" fill="#298FC2"/>
<path fill-rule="evenodd" clip-rule="evenodd" d="M18.7116 5.21332C18.5489 5.17309 18.3812 5.13674 18.2092 5.10386C18.0362 5.0718 17.8591 5.04342 17.6768 5.0185C17.0385 4.9311 16.3391 4.88965 15.59 4.88965H9.26618C9.11029 4.88965 8.96236 4.91946 8.83008 4.97337C8.53831 5.09222 8.32171 5.32624 8.26919 5.61275L6.9238 12.8347L6.88525 13.0453C6.97368 12.5699 7.4529 12.2201 8.02151 12.2201H10.3887C15.0378 12.2201 18.6781 10.6197 19.7421 5.99033C19.7739 5.8533 19.8006 5.71996 19.8245 5.58947C19.5553 5.46837 19.2638 5.36484 18.9499 5.27662C18.8723 5.25477 18.7923 5.23374 18.7116 5.21332Z" fill="#22284F"/>
<path fill-rule="evenodd" clip-rule="evenodd" d="M8.26955 5.61284C8.32208 5.32634 8.53868 5.09232 8.83045 4.97429C8.96369 4.92017 9.11066 4.89036 9.26654 4.89036H15.5904C16.3394 4.89036 17.0389 4.93201 17.6771 5.01942C17.8595 5.04413 18.0366 5.07271 18.2096 5.10477C18.3816 5.13745 18.5493 5.174 18.7119 5.21403C18.7927 5.23445 18.8726 5.25568 18.9509 5.27672C19.2649 5.36493 19.5567 5.46928 19.8258 5.58956C20.1424 3.87851 19.8231 2.71351 18.7317 1.65857C17.5282 0.497041 15.3564 0 12.5772 0H4.50879C3.94115 0 3.45687 0.349807 3.36917 0.826019L0.00860048 18.8806C-0.0576568 19.2378 0.267365 19.56 0.692375 19.56H5.67347L8.26955 5.61284Z" fill="#28356A"/>
</svg>
