<svg width="32" height="32" viewBox="0 0 32 32" fill="none" xmlns="http://www.w3.org/2000/svg">
<path d="M16.2124 15.4934C16.1724 15.4934 16.1458 15.4934 16.1058 15.4934C16.0391 15.4801 15.9458 15.4801 15.8658 15.4934C11.9991 15.3734 9.0791 12.3334 9.0791 8.58675C9.0791 4.77341 12.1858 1.66675 15.9991 1.66675C19.8124 1.66675 22.9191 4.77341 22.9191 8.58675C22.9058 12.3334 19.9724 15.3734 16.2524 15.4934C16.2391 15.4934 16.2258 15.4934 16.2124 15.4934ZM15.9991 3.66675C13.2924 3.66675 11.0791 5.88008 11.0791 8.58675C11.0791 11.2534 13.1591 13.4001 15.8124 13.4934C15.8791 13.4801 16.0658 13.4801 16.2391 13.4934C18.8524 13.3734 20.9058 11.2267 20.9191 8.58675C20.9191 5.88008 18.7058 3.66675 15.9991 3.66675Z" fill="#0C0C0C"/>
<path d="M16.2261 30.0666C13.6128 30.0666 10.9861 29.3999 8.99948 28.0666C7.14615 26.8399 6.13281 25.1599 6.13281 23.3333C6.13281 21.5066 7.14615 19.8133 8.99948 18.5733C12.9995 15.9199 19.4795 15.9199 23.4528 18.5733C25.2928 19.7999 26.3195 21.4799 26.3195 23.3066C26.3195 25.1333 25.3061 26.8266 23.4528 28.0666C21.4528 29.3999 18.8395 30.0666 16.2261 30.0666ZM10.1061 20.2533C8.82615 21.1066 8.13281 22.1999 8.13281 23.3466C8.13281 24.4799 8.83948 25.5733 10.1061 26.4133C13.4261 28.6399 19.0261 28.6399 22.3461 26.4133C23.6261 25.5599 24.3195 24.4666 24.3195 23.3199C24.3195 22.1866 23.6128 21.0933 22.3461 20.2533C19.0261 18.0399 13.4261 18.0399 10.1061 20.2533Z" fill="#0C0C0C"/>
</svg>
