<svg width="25" height="24" viewBox="0 0 25 24" fill="none" xmlns="http://www.w3.org/2000/svg">
<path d="M12.5 16.25C9.88 16.25 7.75 14.12 7.75 11.5V6C7.75 3.38 9.88 1.25 12.5 1.25C15.12 1.25 17.25 3.38 17.25 6V11.5C17.25 14.12 15.12 16.25 12.5 16.25ZM12.5 2.75C10.71 2.75 9.25 4.21 9.25 6V11.5C9.25 13.29 10.71 14.75 12.5 14.75C14.29 14.75 15.75 13.29 15.75 11.5V6C15.75 4.21 14.29 2.75 12.5 2.75Z" fill="#0C0C0C"/>
<path d="M12.4996 19.7499C7.86961 19.7499 4.09961 15.9799 4.09961 11.3499V9.6499C4.09961 9.2399 4.43961 8.8999 4.84961 8.8999C5.25961 8.8999 5.59961 9.2399 5.59961 9.6499V11.3499C5.59961 15.1499 8.69961 18.2499 12.4996 18.2499C16.2996 18.2499 19.3996 15.1499 19.3996 11.3499V9.6499C19.3996 9.2399 19.7396 8.8999 20.1496 8.8999C20.5596 8.8999 20.8996 9.2399 20.8996 9.6499V11.3499C20.8996 15.9799 17.1296 19.7499 12.4996 19.7499Z" fill="#0C0C0C"/>
<path d="M13.8899 7.18007C13.8099 7.18007 13.7199 7.17007 13.6299 7.14007C12.8999 6.87007 12.0999 6.87007 11.3699 7.14007C10.9799 7.28007 10.5499 7.08007 10.4099 6.69007C10.2699 6.30007 10.4699 5.87007 10.8599 5.73007C11.9199 5.35007 13.0899 5.35007 14.1499 5.73007C14.5399 5.87007 14.7399 6.30007 14.5999 6.69007C14.4799 6.99007 14.1899 7.18007 13.8899 7.18007Z" fill="#0C0C0C"/>
<path d="M13.3001 9.30007C13.2301 9.30007 13.1701 9.29007 13.1001 9.27007C12.7001 9.16007 12.2901 9.16007 11.8901 9.27007C11.4901 9.38007 11.0801 9.14007 10.9701 8.74007C10.8601 8.35007 11.1001 7.94007 11.5001 7.83007C12.1501 7.65007 12.8501 7.65007 13.5001 7.83007C13.9001 7.94007 14.1401 8.35007 14.0301 8.75007C13.9401 9.08007 13.6301 9.30007 13.3001 9.30007Z" fill="#0C0C0C"/>
<path d="M12.5 22.75C12.09 22.75 11.75 22.41 11.75 22V19C11.75 18.59 12.09 18.25 12.5 18.25C12.91 18.25 13.25 18.59 13.25 19V22C13.25 22.41 12.91 22.75 12.5 22.75Z" fill="#0C0C0C"/>
</svg>
