<svg width="20" height="18" viewBox="0 0 20 18" fill="none" xmlns="http://www.w3.org/2000/svg">
<path d="M10 17C10 17 1 11.9091 1 5.72728C1 4.63445 1.37484 3.57537 2.06076 2.73024C2.74667 1.88511 3.70128 1.30613 4.76218 1.09181C5.82307 0.877486 6.92471 1.04106 7.87966 1.55471C8.83461 2.06835 9.58388 2.90033 10 3.9091C10.4161 2.90033 11.1654 2.06835 12.1203 1.55471C13.0753 1.04106 14.1769 0.877486 15.2378 1.09181C16.2987 1.30613 17.2533 1.88511 17.9392 2.73024C18.6252 3.57537 19 4.63445 19 5.72728C19 11.9091 10 17 10 17Z" fill="#BC2727" stroke="#BC2727" stroke-linecap="round" stroke-linejoin="round"/>
</svg>
