<svg width="20" height="21" viewBox="0 0 20 21" fill="none" xmlns="http://www.w3.org/2000/svg">
<path d="M14.0579 16.6331H7.39128C4.74961 16.6331 2.59961 14.4831 2.59961 11.8415C2.59961 9.19981 4.74961 7.0498 7.39128 7.0498H16.5579C16.8996 7.0498 17.1829 7.33314 17.1829 7.67481C17.1829 8.01647 16.8996 8.29981 16.5579 8.29981H7.39128C5.44128 8.29981 3.84961 9.89147 3.84961 11.8415C3.84961 13.7915 5.44128 15.3831 7.39128 15.3831H14.0579C14.3996 15.3831 14.6829 15.6665 14.6829 16.0081C14.6829 16.3498 14.4079 16.6331 14.0579 16.6331Z" fill="#0C0C0C"/>
<path d="M14.6424 10.3837C14.4841 10.3837 14.3258 10.3254 14.2008 10.2004C13.9591 9.95872 13.9591 9.55872 14.2008 9.31706L15.8924 7.62539L14.2008 5.93372C13.9591 5.69206 13.9591 5.29206 14.2008 5.05039C14.4424 4.80872 14.8424 4.80872 15.0841 5.05039L17.2174 7.18372C17.4591 7.42539 17.4591 7.82539 17.2174 8.06706L15.0841 10.2004C14.9591 10.3254 14.8008 10.3837 14.6424 10.3837Z" fill="#0C0C0C"/>
</svg>
