<svg width="20" height="21" viewBox="0 0 20 21" fill="none" xmlns="http://www.w3.org/2000/svg">
<path d="M12.5003 19.6257H7.50033C2.97533 19.6257 1.04199 17.6923 1.04199 13.1673V8.16732C1.04199 3.64232 2.97533 1.70898 7.50033 1.70898H12.5003C17.0253 1.70898 18.9587 3.64232 18.9587 8.16732V13.1673C18.9587 17.6923 17.0253 19.6257 12.5003 19.6257ZM7.50033 2.95898C3.65866 2.95898 2.29199 4.32565 2.29199 8.16732V13.1673C2.29199 17.009 3.65866 18.3757 7.50033 18.3757H12.5003C16.342 18.3757 17.7087 17.009 17.7087 13.1673V8.16732C17.7087 4.32565 16.342 2.95898 12.5003 2.95898H7.50033Z" fill="#0C0C0C"/>
<path d="M13.6667 16.709H10.5C8.9 16.709 8.125 15.934 8.125 14.334V12.834C8.125 11.234 8.9 10.459 10.5 10.459H13.6667C15.2667 10.459 16.0417 11.234 16.0417 12.834V14.334C16.0417 15.934 15.2667 16.709 13.6667 16.709ZM10.5 11.709C9.6 11.709 9.375 11.934 9.375 12.834V14.334C9.375 15.234 9.6 15.459 10.5 15.459H13.6667C14.5667 15.459 14.7917 15.234 14.7917 14.334V12.834C14.7917 11.934 14.5667 11.709 13.6667 11.709H10.5Z" fill="#0C0C0C"/>
</svg>
