<svg width="12" height="12" viewBox="0 0 12 12" fill="none" xmlns="http://www.w3.org/2000/svg">
<path d="M5.99992 11.3754C5.87992 11.3754 5.75993 11.3604 5.64493 11.3254C3.04993 10.6104 1.16992 8.18539 1.16992 5.55539V3.36038C1.16992 2.80038 1.57492 2.19541 2.09492 1.98041L4.87993 0.840391C5.60493 0.545391 6.39992 0.545391 7.11992 0.840391L9.90492 1.98041C10.4249 2.19541 10.8299 2.80038 10.8299 3.36038V5.55539C10.8299 8.18039 8.94492 10.6054 6.35492 11.3254C6.23992 11.3604 6.11992 11.3754 5.99992 11.3754ZM5.99992 1.37539C5.71492 1.37539 5.43492 1.4304 5.16492 1.5404L2.37993 2.68039C2.13993 2.78039 1.91992 3.10538 1.91992 3.36538V5.56039C1.91992 7.85539 3.56992 9.9754 5.84492 10.6054C5.94492 10.6354 6.05492 10.6354 6.15492 10.6054C8.42992 9.9754 10.0799 7.85539 10.0799 5.56039V3.36538C10.0799 3.10538 9.85992 2.78039 9.61992 2.68039L6.83493 1.5404C6.56493 1.4304 6.28492 1.37539 5.99992 1.37539Z" fill="#0C0C0C"/>
<path d="M6 6.625C5.24 6.625 4.625 6.01 4.625 5.25C4.625 4.49 5.24 3.875 6 3.875C6.76 3.875 7.375 4.49 7.375 5.25C7.375 6.01 6.76 6.625 6 6.625ZM6 4.625C5.655 4.625 5.375 4.905 5.375 5.25C5.375 5.595 5.655 5.875 6 5.875C6.345 5.875 6.625 5.595 6.625 5.25C6.625 4.905 6.345 4.625 6 4.625Z" fill="#0C0C0C"/>
<path d="M6 8.125C5.795 8.125 5.625 7.955 5.625 7.75V6.25C5.625 6.045 5.795 5.875 6 5.875C6.205 5.875 6.375 6.045 6.375 6.25V7.75C6.375 7.955 6.205 8.125 6 8.125Z" fill="#0C0C0C"/>
</svg>
