<svg width="21" height="20" viewBox="0 0 21 20" fill="none" xmlns="http://www.w3.org/2000/svg">
<path d="M11.0654 19.1775C9.97539 19.1775 8.88539 18.7675 8.05539 17.9375C6.39539 16.2775 6.39539 13.5875 8.05539 11.9275L10.5354 9.45751C10.8254 9.16751 11.3054 9.16751 11.5954 9.45751C11.8854 9.74751 11.8854 10.2275 11.5954 10.5175L9.11539 12.9875C8.04539 14.0575 8.04539 15.8075 9.11539 16.8775C10.1854 17.9475 11.9354 17.9475 13.0054 16.8775L16.8954 12.9875C18.0754 11.8075 18.7254 10.2375 18.7254 8.56751C18.7254 6.89751 18.0754 5.32751 16.8954 4.14751C14.4554 1.70751 10.4954 1.70751 8.05539 4.14751L3.81539 8.38751C2.82539 9.37751 2.27539 10.6975 2.27539 12.0975C2.27539 13.4975 2.82539 14.8175 3.81539 15.8075C4.10539 16.0975 4.10539 16.5775 3.81539 16.8675C3.52539 17.1575 3.04539 17.1575 2.75539 16.8675C1.48539 15.5875 0.775391 13.8975 0.775391 12.0975C0.775391 10.2975 1.47539 8.59751 2.75539 7.32751L6.99539 3.08751C10.0154 0.0675097 14.9354 0.0675097 17.9554 3.08751C19.4154 4.54751 20.2254 6.49751 20.2254 8.56751C20.2254 10.6375 19.4154 12.5875 17.9554 14.0475L14.0654 17.9375C13.2354 18.7675 12.1554 19.1775 11.0654 19.1775Z" fill="#0C0C0C"/>
</svg>
