<svg width="40" height="40" viewBox="0 0 40 40" fill="none" xmlns="http://www.w3.org/2000/svg">
<path d="M24.5856 40C22.1354 40 18.6676 38.2775 15.9267 30.0383L14.4316 25.5556L9.94639 24.0613C1.72349 21.3219 0 17.856 0 15.4071C0 12.979 1.72349 9.49238 9.94639 6.73216L27.5758 0.858925C31.9779 -0.614573 35.6533 -0.17875 37.9167 2.06263C40.1801 4.304 40.6161 7.99812 39.1418 12.3979L33.2654 30.0176C30.5036 38.2775 27.0359 40 24.5856 40ZM10.9223 9.69991C5.14969 11.63 3.09397 13.9129 3.09397 15.4071C3.09397 16.9014 5.14969 19.1843 10.9223 21.0936L16.1551 22.8369C16.6119 22.9821 16.9857 23.3557 17.131 23.8123L18.8753 29.0422C20.7857 34.8116 23.0906 36.8662 24.5856 36.8662C26.0807 36.8662 28.3648 34.8116 30.296 29.0422L36.1724 11.4225C37.2315 8.22641 37.0446 5.61147 35.6949 4.2625C34.3451 2.91352 31.7288 2.74749 28.5517 3.80592L10.9223 9.69991Z" fill="#0C0C0C"/>
</svg>
