<svg width="21" height="20" viewBox="0 0 21 20" fill="none" xmlns="http://www.w3.org/2000/svg">
<path d="M12.7082 19.6369C11.5282 19.6369 9.85816 18.8069 8.53816 14.8369L7.81816 12.6769L5.65816 11.9569C1.69816 10.6369 0.868164 8.96691 0.868164 7.78691C0.868164 6.61691 1.69816 4.93691 5.65816 3.60691L14.1482 0.776907C16.2682 0.0669071 18.0382 0.276907 19.1282 1.35691C20.2182 2.43691 20.4282 4.21691 19.7182 6.33691L16.8882 14.8269C15.5582 18.8069 13.8882 19.6369 12.7082 19.6369ZM6.12816 5.03691C3.34816 5.96691 2.35816 7.06691 2.35816 7.78691C2.35816 8.50691 3.34816 9.60691 6.12816 10.5269L8.64816 11.3669C8.86816 11.4369 9.04816 11.6169 9.11816 11.8369L9.95816 14.3569C10.8782 17.1369 11.9882 18.1269 12.7082 18.1269C13.4282 18.1269 14.5282 17.1369 15.4582 14.3569L18.2882 5.86691C18.7982 4.32691 18.7082 3.06691 18.0582 2.41691C17.4082 1.76691 16.1482 1.68691 14.6182 2.19691L6.12816 5.03691Z" fill="#0C0C0C"/>
<path d="M8.60004 12.4076C8.41004 12.4076 8.22004 12.3376 8.07004 12.1876C7.78004 11.8976 7.78004 11.4176 8.07004 11.1276L11.65 7.53757C11.94 7.24757 12.42 7.24757 12.71 7.53757C13 7.82757 13 8.30757 12.71 8.59757L9.13004 12.1876C8.99004 12.3376 8.79004 12.4076 8.60004 12.4076Z" fill="#0C0C0C"/>
</svg>
