<svg width="20" height="21" viewBox="0 0 20 21" fill="none" xmlns="http://www.w3.org/2000/svg">
<path d="M9.76758 19.458H6.01758C2.55924 19.458 1.01758 17.9163 1.01758 14.458V10.708C1.01758 7.24967 2.55924 5.70801 6.01758 5.70801H9.76758C13.2259 5.70801 14.7676 7.24967 14.7676 10.708V14.458C14.7676 17.9163 13.2259 19.458 9.76758 19.458ZM6.01758 6.95801C3.25091 6.95801 2.26758 7.94134 2.26758 10.708V14.458C2.26758 17.2247 3.25091 18.208 6.01758 18.208H9.76758C12.5342 18.208 13.5176 17.2247 13.5176 14.458V10.708C13.5176 7.94134 12.5342 6.95801 9.76758 6.95801H6.01758Z" fill="#0C0C0C"/>
<path d="M14.1413 11.9331C13.983 11.9331 13.833 11.8748 13.7163 11.7665C13.583 11.6498 13.5163 11.4831 13.5163 11.3081V10.7081C13.5163 7.94147 12.533 6.95814 9.76634 6.95814H9.16634C8.99134 6.95814 8.82468 6.88314 8.70801 6.75814C8.59134 6.6248 8.53301 6.45814 8.54968 6.28314C8.79134 3.58314 11.0163 1.5498 13.733 1.5498C16.333 1.5498 18.5497 3.49147 18.883 6.06647C18.9163 6.26647 18.9413 6.50814 18.9413 6.75814C18.9413 9.4748 16.908 11.6998 14.208 11.9415C14.183 11.9331 14.1663 11.9331 14.1413 11.9331ZM9.90801 5.70814C13.2163 5.7498 14.7247 7.2498 14.7663 10.5665C16.4663 10.1165 17.683 8.5748 17.683 6.7498C17.683 6.5748 17.6663 6.40814 17.6413 6.2498C17.383 4.26647 15.6997 2.79147 13.7247 2.79147C11.8997 2.79147 10.3663 4.00814 9.90801 5.70814Z" fill="#0C0C0C"/>
</svg>
