<svg width="40" height="40" viewBox="0 0 40 40" fill="none" xmlns="http://www.w3.org/2000/svg">
<path d="M36.667 12.083H26.667C25.9837 12.083 25.417 11.5163 25.417 10.833C25.417 10.1497 25.9837 9.58301 26.667 9.58301H36.667C37.3503 9.58301 37.917 10.1497 37.917 10.833C37.917 11.5163 37.3503 12.083 36.667 12.083Z" fill="#0C0C0C"/>
<path d="M9.99967 12.083H3.33301C2.64967 12.083 2.08301 11.5163 2.08301 10.833C2.08301 10.1497 2.64967 9.58301 3.33301 9.58301H9.99967C10.683 9.58301 11.2497 10.1497 11.2497 10.833C11.2497 11.5163 10.683 12.083 9.99967 12.083Z" fill="#0C0C0C"/>
<path d="M16.6663 17.9167C12.7663 17.9167 9.58301 14.7333 9.58301 10.8333C9.58301 6.93333 12.7663 3.75 16.6663 3.75C20.5663 3.75 23.7497 6.93333 23.7497 10.8333C23.7497 14.7333 20.5663 17.9167 16.6663 17.9167ZM16.6663 6.25C14.133 6.25 12.083 8.3 12.083 10.8333C12.083 13.3667 14.133 15.4167 16.6663 15.4167C19.1997 15.4167 21.2497 13.3667 21.2497 10.8333C21.2497 8.3 19.1997 6.25 16.6663 6.25Z" fill="#0C0C0C"/>
<path d="M36.6667 30.417H30C29.3167 30.417 28.75 29.8503 28.75 29.167C28.75 28.4837 29.3167 27.917 30 27.917H36.6667C37.35 27.917 37.9167 28.4837 37.9167 29.167C37.9167 29.8503 37.35 30.417 36.6667 30.417Z" fill="#0C0C0C"/>
<path d="M13.333 30.417H3.33301C2.64967 30.417 2.08301 29.8503 2.08301 29.167C2.08301 28.4837 2.64967 27.917 3.33301 27.917H13.333C14.0163 27.917 14.583 28.4837 14.583 29.167C14.583 29.8503 14.0163 30.417 13.333 30.417Z" fill="#0C0C0C"/>
<path d="M23.3333 36.2497C19.4333 36.2497 16.25 33.0663 16.25 29.1663C16.25 25.2663 19.4333 22.083 23.3333 22.083C27.2333 22.083 30.4167 25.2663 30.4167 29.1663C30.4167 33.0663 27.2333 36.2497 23.3333 36.2497ZM23.3333 24.583C20.8 24.583 18.75 26.633 18.75 29.1663C18.75 31.6997 20.8 33.7497 23.3333 33.7497C25.8667 33.7497 27.9167 31.6997 27.9167 29.1663C27.9167 26.633 25.8667 24.583 23.3333 24.583Z" fill="#0C0C0C"/>
</svg>
