<svg width="40" height="40" viewBox="0 0 40 40" fill="none" xmlns="http://www.w3.org/2000/svg">
<rect width="40" height="40" rx="20" fill="#A7BBFF"/>
<path d="M30 15.25H24C23.59 15.25 23.25 14.91 23.25 14.5C23.25 14.09 23.59 13.75 24 13.75H30C30.41 13.75 30.75 14.09 30.75 14.5C30.75 14.91 30.41 15.25 30 15.25Z" fill="#0C0C0C"/>
<path d="M14 15.25H10C9.59 15.25 9.25 14.91 9.25 14.5C9.25 14.09 9.59 13.75 10 13.75H14C14.41 13.75 14.75 14.09 14.75 14.5C14.75 14.91 14.41 15.25 14 15.25Z" fill="#0C0C0C"/>
<path d="M18 18.75C15.66 18.75 13.75 16.84 13.75 14.5C13.75 12.16 15.66 10.25 18 10.25C20.34 10.25 22.25 12.16 22.25 14.5C22.25 16.84 20.34 18.75 18 18.75ZM18 11.75C16.48 11.75 15.25 12.98 15.25 14.5C15.25 16.02 16.48 17.25 18 17.25C19.52 17.25 20.75 16.02 20.75 14.5C20.75 12.98 19.52 11.75 18 11.75Z" fill="#0C0C0C"/>
<path d="M30 26.25H26C25.59 26.25 25.25 25.91 25.25 25.5C25.25 25.09 25.59 24.75 26 24.75H30C30.41 24.75 30.75 25.09 30.75 25.5C30.75 25.91 30.41 26.25 30 26.25Z" fill="#0C0C0C"/>
<path d="M16 26.25H10C9.59 26.25 9.25 25.91 9.25 25.5C9.25 25.09 9.59 24.75 10 24.75H16C16.41 24.75 16.75 25.09 16.75 25.5C16.75 25.91 16.41 26.25 16 26.25Z" fill="#0C0C0C"/>
<path d="M22 29.75C19.66 29.75 17.75 27.84 17.75 25.5C17.75 23.16 19.66 21.25 22 21.25C24.34 21.25 26.25 23.16 26.25 25.5C26.25 27.84 24.34 29.75 22 29.75ZM22 22.75C20.48 22.75 19.25 23.98 19.25 25.5C19.25 27.02 20.48 28.25 22 28.25C23.52 28.25 24.75 27.02 24.75 25.5C24.75 23.98 23.52 22.75 22 22.75Z" fill="#0C0C0C"/>
</svg>
