<svg width="280" height="230" viewBox="0 0 280 230" fill="none" xmlns="http://www.w3.org/2000/svg">
<mask id="mask0_1481_43564" style="mask-type:luminance" maskUnits="userSpaceOnUse" x="0" y="0" width="280" height="230">
<path d="M279.829 162.832C273.956 236.973 216.388 241.281 156.613 216.185C135.144 207.175 104.715 206.587 72.187 221.521C42.4377 235.185 -4.2525 220.187 0.311049 189.509C7.24769 142.879 34.6509 155.832 16.2487 109.67C2.83119 76.0114 10.0175 28.1666 50.8321 38.6668C81.4421 46.5424 94.532 31.0669 99.1627 22.8372C102.37 17.1373 106.616 12.1562 111.748 8.38283C150.49 -20.1019 171.43 34.2399 192.818 20.912C233.093 -4.1834 273.591 21.3744 252.984 62.3306C235.808 96.4693 283.189 120.394 279.829 162.832Z" fill="white"/>
</mask>
<g mask="url(#mask0_1481_43564)">
<path d="M279.829 162.832C273.956 236.973 216.388 241.281 156.613 216.185C135.144 207.175 104.715 206.587 72.187 221.521C42.4377 235.185 -4.2525 220.187 0.311049 189.509C7.24769 142.879 34.6509 155.832 16.2487 109.67C2.83119 76.0114 10.0175 28.1666 50.8321 38.6668C81.4421 46.5424 94.532 31.0669 99.1627 22.8372C102.37 17.1373 106.616 12.1562 111.748 8.38283C150.49 -20.1019 171.43 34.2399 192.818 20.912C233.093 -4.1834 273.591 21.3744 252.984 62.3306C235.808 96.4693 283.189 120.394 279.829 162.832Z" fill="#D9E0FB"/>
</g>
<mask id="mask1_1481_43564" style="mask-type:luminance" maskUnits="userSpaceOnUse" x="0" y="0" width="280" height="230">
<path d="M279.829 162.832C273.956 236.973 216.388 241.281 156.613 216.185C135.144 207.175 104.715 206.587 72.187 221.521C42.4377 235.185 -4.2525 220.187 0.311049 189.509C7.24769 142.879 34.6509 155.832 16.2487 109.67C2.83119 76.0114 10.0175 28.1666 50.8321 38.6668C81.4421 46.5424 94.532 31.0669 99.1627 22.8372C102.37 17.1373 106.616 12.1562 111.748 8.38283C150.49 -20.1019 171.43 34.2399 192.818 20.912C233.093 -4.1834 273.591 21.3744 252.984 62.3306C235.808 96.4693 283.189 120.394 279.829 162.832Z" fill="white"/>
</mask>
<g mask="url(#mask1_1481_43564)">
<path d="M117.623 144.48V144.483C115.831 152.929 111.86 159.918 106.302 165.553C96.3101 175.671 102.64 217.356 100.869 228.557C85.1629 231.762 68.0392 236.573 45.3733 232.296C46.6075 209.151 55.2588 145.977 52.4918 133.818C54.9054 132.645 109.416 106.17 112.131 104.852C113.5 107.604 115.581 113.205 116.887 118.838C118.829 127.125 119.419 136.046 117.623 144.48Z" fill="#FDBAA0"/>
<path d="M56.7065 161.045C63.2077 169.334 68.6256 125.303 66.9406 114.864C65.8004 107.8 66.0189 100.742 66.2893 96.213C66.799 87.6776 65.9815 79.9367 60.3948 78.6103C58.1097 78.0677 57.191 78.6682 56.709 80.6275C56.3061 82.2618 56.2072 84.8413 55.8739 88.4903C55.6282 91.1624 55.2576 94.4081 54.5485 98.2766C51.7099 113.765 46.8344 148.46 56.7065 161.045Z" fill="#FDBAA0"/>
<path d="M101.199 223.277C101.338 208.751 97.9856 178.648 104.765 167.55C104.554 167.653 91.0931 174.284 91.944 184.512C92.8009 194.818 96.4798 203.453 94.5504 211.048C92.7861 217.99 96.4264 224.075 101.199 223.277Z" fill="#FFD1C3"/>
<path d="M106.068 202.151C105.861 194.642 104.274 192.906 100.495 193.823C98.7662 194.243 96.5779 195.219 93.8524 196.45C91.9246 197.323 89.7295 198.322 87.2368 199.343C75.786 204.037 58.395 189.66 49.5182 188.107C47.7682 187.801 46.3475 187.994 45.3706 188.93C39.4358 194.612 46.207 204.932 42.0786 217.55C40.5257 222.294 39.174 226.764 38.3789 230.723C40.7696 231.346 43.0998 231.866 45.3734 232.294C68.0393 236.572 85.163 231.761 100.869 228.555C103.776 227.961 106.636 227.423 109.471 227.008C108.318 221.799 106.327 211.583 106.068 202.151Z" fill="#FF8F65"/>
<path d="M60.6647 189.383C61.8234 189.91 62.982 190.437 64.1407 190.964C64.8711 191.297 65.1885 189.957 64.4659 189.629C63.3072 189.102 62.1485 188.575 60.9897 188.048C60.2596 187.715 59.9421 189.055 60.6647 189.383Z" fill="#FF8F65"/>
<path d="M104.958 166.121C100.74 169.318 95.5984 170.633 90.5772 169.767C90.1921 169.7 90.0262 170.367 90.4146 170.434C95.5986 171.329 100.904 170.026 105.267 166.719C105.592 166.472 105.286 165.872 104.958 166.121Z" fill="#E79780"/>
<path d="M53.6157 153.957C58.1713 159.569 63.8133 163.896 70.0906 166.644C70.458 166.805 70.6171 166.135 70.2533 165.976C64.0756 163.272 58.5298 158.988 54.0483 153.467C53.7812 153.138 53.3496 153.629 53.6157 153.957Z" fill="#E79780"/>
<path d="M71.1505 159.926L116.881 157.963C118.825 157.88 120.341 156.027 120.266 153.826L117.211 64.0826C117.136 61.8833 115.501 60.1686 113.559 60.2519L67.8287 62.2142C65.8845 62.2975 64.3686 64.1506 64.4436 66.3521L67.4986 156.095C67.5736 158.294 69.2081 160.009 71.1505 159.926Z" fill="#007888"/>
<path d="M71.0725 152.8L116.476 150.852C117.227 150.82 117.813 150.104 117.784 149.254L114.885 64.0946C114.856 63.2453 114.224 62.5832 113.474 62.6154L68.0704 64.5636C67.3197 64.5958 66.7343 65.3114 66.7632 66.1615L69.6623 151.321C69.6911 152.17 70.3223 152.832 71.0725 152.8Z" fill="#7CCCDB"/>
<path d="M63.517 160.015C63.4836 160.015 63.4494 160.007 63.4175 159.989C55.8933 155.698 52.7586 146.593 52.7281 146.502C52.6841 146.373 52.7418 146.227 52.8565 146.177C52.9682 146.131 53.0987 146.194 53.1428 146.323C53.1732 146.413 56.2502 155.339 63.6164 159.539C63.7265 159.602 63.7705 159.754 63.7151 159.878C63.6764 159.965 63.5982 160.015 63.517 160.015Z" fill="#FDBAA0"/>
<g opacity="0.7">
<path d="M32.7747 84.4338C33.1683 84.4338 33.1688 83.7412 32.7747 83.7412C32.3811 83.7412 32.3805 84.4338 32.7747 84.4338Z" fill="white"/>
</g>
<path d="M92.4984 154.535C93.163 154.542 93.8277 154.549 94.4923 154.555C94.796 154.558 95.1081 154.535 95.4098 154.568C95.8775 154.62 97.0612 154.846 95.5303 155.784C95.0484 156.079 94.1084 155.943 93.576 155.928C93.261 155.92 92.9441 155.91 92.6298 155.884C92.4606 155.865 92.2915 155.846 92.1222 155.827C91.9875 154.873 92.2161 154.45 92.8079 154.557C93.2005 154.543 93.2023 153.851 92.8079 153.865C91.9635 153.896 90.3292 154.466 91.0436 155.823C91.3195 156.347 91.8427 156.481 92.3336 156.554C93.2783 156.696 94.3314 156.692 95.2734 156.535C96.1049 156.397 97.443 155.527 96.6547 154.396C96.3858 154.01 95.9357 153.925 95.5299 153.881C94.5353 153.772 93.4977 153.853 92.4984 153.843C92.1047 153.839 92.1044 154.531 92.4984 154.535Z" fill="#8FD7E3"/>
<path d="M121.783 89.5972C121.32 89.5207 120.89 89.7165 120.626 90.1623C120.407 90.5336 120.936 90.8806 121.154 90.5118C121.251 90.3491 121.444 90.236 121.62 90.265C121.784 90.292 121.949 90.2192 121.997 90.0232C122.036 89.8603 121.948 89.6244 121.783 89.5972Z" fill="#E9F4F6"/>
<path d="M102.587 138.115L84.8117 139.2C81.4822 139.403 78.6377 136.511 78.4582 132.741L78.41 131.728C78.2306 127.958 80.7841 124.737 84.1136 124.534L101.889 123.449C105.218 123.245 108.063 126.137 108.242 129.907L108.291 130.92C108.47 134.69 105.917 137.911 102.587 138.115Z" fill="#49B2A4"/>
<path d="M85.5802 129.048C85.5605 128.749 85.759 128.488 86.0236 128.465L87.7403 128.32C89.0224 128.212 89.8545 129.007 89.9375 130.268C90.0303 131.676 89.111 132.488 87.9055 132.59L87.4864 132.625C87.2218 132.648 87.0233 132.909 87.043 133.208L87.0918 133.949C87.1115 134.249 86.913 134.51 86.6484 134.532L86.4242 134.551C86.1597 134.573 85.9291 134.349 85.9095 134.049L85.5802 129.048ZM87.8655 131.396C88.4567 131.346 88.7759 130.917 88.7404 130.378C88.7009 129.778 88.3113 129.487 87.7201 129.537L87.2855 129.574C87.0209 129.596 86.8225 129.857 86.8422 130.157L86.8932 130.932C86.9129 131.232 87.1434 131.457 87.408 131.434L87.8655 131.396Z" fill="white"/>
<path d="M92.2926 127.892L92.7492 127.853C92.9414 127.837 93.1233 127.952 93.2118 128.146L95.4394 133.03C95.5974 133.376 95.3916 133.793 95.0483 133.822L94.8588 133.838C94.664 133.855 94.4799 133.736 94.3929 133.538L94.0993 132.869C94.0123 132.671 93.8282 132.553 93.6334 132.569L92.0049 132.707C91.8101 132.723 91.6436 132.871 91.5835 133.082L91.3808 133.792C91.3207 134.003 91.1541 134.151 90.9593 134.168L90.8006 134.181C90.4571 134.21 90.1991 133.832 90.31 133.463L91.8734 128.259C91.9355 128.053 92.1004 127.908 92.2926 127.892ZM93.1507 130.704L92.8243 129.965C92.7462 129.788 92.5179 129.807 92.4639 129.995L92.2339 130.796C92.1354 131.14 92.3756 131.486 92.6935 131.46L92.7753 131.453C93.0997 131.425 93.2959 131.034 93.1507 130.704Z" fill="white"/>
<path d="M97.0284 131.108L95.3254 128.517C95.0993 128.173 95.2973 127.681 95.6751 127.649L95.9131 127.629C96.0821 127.615 96.2453 127.703 96.3425 127.86L97.1693 129.198C97.3773 129.534 97.8271 129.498 97.9914 129.132L98.6505 127.661C98.7266 127.491 98.8755 127.379 99.0433 127.365L99.2421 127.348C99.6205 127.316 99.8807 127.77 99.7007 128.149L98.359 130.969C98.3155 131.06 98.2961 131.164 98.3028 131.267L98.4164 132.992C98.4361 133.292 98.2376 133.553 97.973 133.575L97.7488 133.594C97.4842 133.616 97.2537 133.391 97.234 133.092L97.1221 131.392C97.1153 131.289 97.0828 131.191 97.0284 131.108Z" fill="white"/>
<path d="M81.3677 127.905C81.6417 127.408 82.0388 127.026 82.5354 126.844C82.9046 126.709 82.797 126.027 82.4231 126.164C81.7704 126.403 81.229 126.85 80.8634 127.514C80.6553 127.891 81.1588 128.284 81.3677 127.905Z" fill="#9CD9EF"/>
<path d="M83.8331 126.434C84.0735 126.383 84.3139 126.332 84.5543 126.281C84.941 126.199 84.8293 125.519 84.442 125.601C84.2016 125.652 83.9611 125.702 83.7208 125.753C83.3341 125.835 83.4458 126.516 83.8331 126.434Z" fill="#9CD9EF"/>
<path d="M96.5333 137.426C97.0923 137.362 97.6514 137.297 98.2104 137.233C98.6019 137.189 98.4872 136.508 98.0981 136.553C97.5391 136.617 96.9799 136.681 96.4209 136.745C96.0294 136.79 96.144 137.47 96.5333 137.426Z" fill="#9CD9EF"/>
<path d="M99.2584 137.092C99.4897 137.119 99.7261 137.102 99.9515 137.037C100.112 136.991 100.228 136.825 100.196 136.633C100.167 136.458 100 136.31 99.8392 136.356C99.6614 136.408 99.4921 136.423 99.3099 136.402C98.9178 136.355 98.8675 137.046 99.2584 137.092Z" fill="#9CD9EF"/>
<path d="M100.557 108.926C105.583 103.235 105.583 94.0074 100.557 88.3162C95.5307 82.6249 87.382 82.6249 82.3561 88.3162C77.3302 94.0074 77.3302 103.235 82.3561 108.926C87.382 114.617 95.5307 114.617 100.557 108.926Z" fill="#49B2A4"/>
<path d="M83.4829 99.4904C85.0244 102.379 87.008 104.975 89.3427 107.075C89.7451 107.437 90.1222 107.638 90.6466 107.558C91.1188 107.486 91.5396 107.199 91.7805 106.719C93.7364 102.827 95.8789 99.0565 97.9189 95.2208C98.4347 94.2509 98.9462 93.278 99.4407 92.2939C99.8424 91.4945 99.6308 90.3361 98.884 89.8891C98.1472 89.4483 97.1893 89.6662 96.7604 90.5196C94.8044 94.4119 92.662 98.1822 90.6219 102.018C90.1061 102.988 89.5946 103.961 89.1 104.945C89.9126 104.826 90.7252 104.708 91.5378 104.589C90.4362 103.598 89.4106 102.503 88.4787 101.309C88.2551 101.023 88.037 100.732 87.8244 100.435C87.7297 100.303 87.6282 100.092 87.5096 99.9857C87.7417 100.194 87.5911 100.104 87.5135 99.987C87.4572 99.9021 87.4013 99.8168 87.346 99.7312C86.9252 99.0798 86.532 98.4068 86.1634 97.7162C85.7435 96.9295 84.7515 96.5661 84.0397 97.0858C83.3417 97.5953 83.0336 98.6485 83.4829 99.4904Z" fill="#E9F4F6"/>
</g>
<mask id="mask2_1481_43564" style="mask-type:luminance" maskUnits="userSpaceOnUse" x="0" y="0" width="280" height="230">
<path d="M279.829 162.832C273.956 236.973 216.388 241.281 156.613 216.185C135.144 207.175 104.715 206.587 72.187 221.521C42.4377 235.185 -4.2525 220.187 0.311049 189.509C7.24769 142.879 34.6509 155.832 16.2487 109.67C2.83119 76.0114 10.0175 28.1666 50.8321 38.6668C81.4421 46.5424 94.532 31.0669 99.1627 22.8372C102.37 17.1373 106.616 12.1562 111.748 8.38283C150.49 -20.1019 171.43 34.2399 192.818 20.912C233.093 -4.1834 273.591 21.3744 252.984 62.3306C235.808 96.4693 283.189 120.394 279.829 162.832Z" fill="white"/>
</mask>
<g mask="url(#mask2_1481_43564)">
<path d="M195.85 5.34863L227.821 34.9753C222.589 63.9646 220.845 73.7698 220.829 73.7903C220.096 75.2433 216.28 82.2341 215.6 85.5983C210.038 84.8202 207.054 84.4022 204.689 84.074C204.661 84.0862 166.909 100.29 166.889 100.272C167.985 98.1672 190.227 59.8004 192.176 45.0788C192.176 45.0788 192.175 45.0775 192.176 45.0762C192.249 44.5476 192.196 44.7275 192.266 44.6302C193.019 43.5886 193.967 26.9428 194.899 6.66484L195.85 5.34863Z" fill="#FDBAA0"/>
<path d="M173.439 91.1363C173.831 91.5435 179.265 102.256 180.199 100.532C183.841 93.8039 191.304 89.3866 194.703 90.2318C201.214 91.8508 201.276 99.9361 201.24 100.827L210.955 75.8605C210.074 70.4692 202.341 41.9355 200.837 42.57C194.668 45.1724 172.437 90.0978 173.439 91.1363Z" fill="#FDBAA0"/>
<path d="M200.103 69.3633C200.103 69.3633 169.512 95.4828 166.89 100.271C164.268 105.06 169.908 119.663 172.12 124.027C174.331 128.392 186.988 133.659 189.811 132.529C193.274 131.144 188.381 124.054 183.551 120.263C179.113 116.78 178.658 109.361 177.929 107.046C177.441 105.493 180.618 98.5881 183.942 95.4748C190.311 89.51 200.48 95.9624 200.48 95.9624L200.103 69.3633Z" fill="#FDBAA0"/>
<path d="M178.446 76.5576C178.446 76.5576 160.903 97.8406 160.342 105.51C159.782 113.179 160.302 121.581 163.894 125.171C167.486 128.761 176.692 134.34 177.926 133.617C179.16 132.894 177.078 125.699 173.919 121.583C170.76 117.466 171.747 102.613 171.747 102.613L181.164 82.9854L178.446 76.5576Z" fill="#FDBAA0"/>
<path d="M194.103 37.3076C194.103 37.3076 191.161 53.242 184.146 62.7771C174.395 76.0315 161.701 89.6969 160.593 92.2772C158.687 96.7137 156.235 109.697 156.871 112.715C157.506 115.732 159.034 125.732 160.286 127.383C161.538 129.034 165.616 120.992 166.762 112.512C167.908 104.033 171.349 94.041 171.349 94.041L199.248 70.0955L194.103 37.3076Z" fill="#FDBAA0"/>
<path d="M184.315 -12.2294C183.586 3.95726 184.167 52.8122 188.134 52.9497C188.414 52.9558 188.713 52.8827 189.012 52.7504C194.906 50.0502 202.816 48.4753 208.159 50.21C208.391 50.2686 208.869 50.4433 208.873 50.4475C212.319 51.5431 217.087 53.9129 217.163 53.9817C218.849 54.8941 223.776 57.1574 223.825 57.1511C225.428 57.7554 227.788 58.5628 229.372 57.8935C231.254 56.8426 251.886 -3.15785 253.596 -11.9177L229.351 -49.4922L184.315 -12.2294Z" fill="#5C81F5"/>
<path d="M178.512 128.907C178.571 129.335 178.18 129.661 177.836 129.47C175.559 128.208 172.73 126.322 171.704 124.296C169.597 120.14 164.569 107.281 165.985 101.329C166.089 100.894 166.59 100.787 166.825 101.151L166.831 101.16C166.916 101.292 166.943 101.46 166.905 101.617C165.638 106.836 170.256 119.254 172.537 123.755C173.255 125.172 175.356 126.895 178.249 128.496C178.389 128.574 178.486 128.722 178.511 128.895C178.511 128.899 178.512 128.903 178.512 128.907Z" fill="#E5967E"/>
<path d="M188.209 93.301C188.209 93.301 190.498 92.3562 193.905 93.3142C198.708 94.6651 199.631 95.4749 199.631 95.4749L193.018 88.8486L188.209 93.301Z" fill="#FDBAA0"/>
<path d="M217.109 115.644L212.597 127.919L211.276 131.514L193.074 181.049C192.128 183.624 189.52 184.842 187.246 183.77L157.056 169.545C154.784 168.474 153.707 165.52 154.653 162.946L162.686 141.083L165.265 134.064L178.688 97.5402C179.634 94.9659 182.243 93.7487 184.515 94.8192L214.706 109.045C216.979 110.116 218.054 113.071 217.109 115.644Z" fill="#FF8F65"/>
<g opacity="0.45">
<path d="M217.108 115.644L212.597 127.919C198.737 131.057 175.039 133.192 165.265 134.064L178.688 97.5402C179.633 94.9659 182.243 93.7487 184.515 94.8192L214.706 109.045C216.979 110.116 218.054 113.071 217.108 115.644Z" fill="#FFB39B"/>
</g>
<path d="M174.074 156.893L170.127 167.634C169.835 168.43 169.027 168.807 168.324 168.476L159.97 164.54C159.267 164.208 158.934 163.294 159.227 162.497L163.174 151.756C163.466 150.96 164.274 150.583 164.977 150.914L173.331 154.85C174.034 155.182 174.367 156.096 174.074 156.893Z" fill="#FFB39B"/>
<path d="M198.069 101.335L170.608 176.064L178.336 179.706L205.797 104.976L198.069 101.335Z" fill="#384955"/>
<path d="M184.691 176.67C185.976 172.938 187.36 169.251 188.841 165.613C189.113 164.947 188.212 164.43 187.939 165.1C186.457 168.738 185.074 172.424 183.789 176.157C183.555 176.836 184.455 177.357 184.691 176.67Z" fill="#384955"/>
<path d="M190.884 160.332C192.361 156.285 193.804 152.223 195.213 148.146C195.448 147.466 194.548 146.946 194.311 147.632C192.902 151.71 191.459 155.772 189.982 159.818C189.736 160.494 190.636 161.013 190.884 160.332Z" fill="#384955"/>
<path d="M187.515 178.001C189.689 172.051 192.032 166.184 194.543 160.408C194.83 159.748 193.928 159.233 193.641 159.894C191.13 165.671 188.786 171.538 186.613 177.487C186.366 178.163 187.267 178.682 187.515 178.001Z" fill="#384955"/>
<path d="M163.652 166.449C163.937 165.471 164.222 164.493 164.507 163.514C164.7 162.853 165.054 162.099 164.716 161.426C164.411 160.819 163.713 160.559 163.183 160.301C162.35 159.896 161.499 159.544 160.638 159.225C160.156 159.047 160.005 159.925 160.484 160.103C161.147 160.349 161.802 160.619 162.448 160.919C162.925 161.142 163.882 161.395 164.006 162.017C164.126 162.617 163.686 163.498 163.518 164.073C163.304 164.807 163.091 165.54 162.877 166.274C162.718 166.819 163.494 166.99 163.652 166.449Z" fill="#FF8F65"/>
<path d="M160.883 157.6C161.893 158.118 162.904 158.637 163.915 159.155C164.42 159.415 164.926 159.674 165.431 159.933C165.939 160.194 166.826 160.439 167.061 161.002C167.304 161.582 166.926 162.332 166.728 162.892C166.523 163.469 166.318 164.046 166.113 164.623C165.686 165.826 165.259 167.029 164.832 168.231C164.644 168.762 165.348 169.168 165.538 168.633C166.051 167.19 166.563 165.747 167.075 164.304C167.43 163.305 168.187 161.845 167.956 160.713C167.848 160.181 167.447 159.99 167.049 159.781C166.378 159.429 165.702 159.09 165.028 158.745C163.764 158.096 162.501 157.448 161.238 156.8C160.776 156.563 160.418 157.362 160.883 157.6Z" fill="#FF8F65"/>
<path d="M162.559 153.283C163.24 153.658 163.926 154.021 164.619 154.365C165.067 154.587 165.594 154.95 166.091 154.721C166.542 154.514 166.853 153.927 167.118 153.498C167.512 152.86 167.832 152.183 168.095 151.465C168.288 150.936 167.584 150.53 167.389 151.063C167.101 151.85 166.52 153.578 165.736 153.765C165.279 153.874 164.744 153.453 164.326 153.238C163.852 152.994 163.382 152.741 162.914 152.483C162.457 152.231 162.101 153.03 162.559 153.283Z" fill="#FF8F65"/>
<path d="M161.895 155.229C163.011 155.855 164.127 156.482 165.242 157.108C165.843 157.446 166.444 157.783 167.045 158.12C167.46 158.353 167.899 158.672 168.369 158.72C169.171 158.801 169.62 158.07 170.002 157.388C170.665 156.203 171.319 155.012 171.978 153.825C172.248 153.337 171.54 152.939 171.271 153.423C170.783 154.303 170.296 155.183 169.808 156.063C169.567 156.497 169.35 156.978 169.067 157.38C168.617 158.019 168.073 157.699 167.528 157.393C165.769 156.405 164.009 155.417 162.25 154.43C161.794 154.174 161.439 154.973 161.895 155.229Z" fill="#FF8F65"/>
<path d="M175.133 158.444C174.312 157.949 172.819 157.039 171.872 157.525C171.528 157.702 171.351 158.05 171.179 158.408C170.823 159.149 170.52 159.933 170.218 160.703C169.913 161.477 169.626 162.259 169.355 163.048C169.173 163.58 168.863 164.199 168.848 164.775C168.818 165.885 170.13 166.517 170.907 166.751C171.398 166.899 171.552 166.021 171.061 165.873C170.655 165.751 170.217 165.555 169.908 165.217C169.483 164.755 169.785 164.268 169.961 163.746C170.277 162.807 170.618 161.878 170.981 160.96C171.271 160.229 171.606 158.824 172.247 158.466C172.956 158.07 174.132 158.854 174.779 159.243C175.228 159.514 175.582 158.714 175.133 158.444Z" fill="#FF8F65"/>
<path d="M173.413 120.847C175.638 122.006 177.891 123.092 180.171 124.105C180.802 124.386 181.286 123.313 180.648 123.03C178.368 122.017 176.115 120.93 173.89 119.772C173.27 119.449 172.79 120.523 173.413 120.847Z" fill="#FFB39B"/>
<path d="M174.322 120.246C174.527 119.22 174.942 117.673 176.152 118.278C177.205 118.804 176.732 120.154 176.387 121.05C176.114 121.757 177.062 122.302 177.336 121.59C177.969 119.948 178.246 117.881 176.432 117.116C174.569 116.331 173.631 118.256 173.28 120.011C173.129 120.766 174.171 121.003 174.322 120.246Z" fill="#FFB39B"/>
<path d="M177.249 122.105C177.588 121.403 177.758 120.606 178.121 119.919C178.552 119.103 179.223 118.934 180.007 119.108C180.357 119.186 180.765 119.282 180.873 119.711C180.961 120.057 180.749 120.51 180.64 120.826C180.35 121.67 180.056 122.512 179.765 123.355C180.042 123.296 180.319 123.237 180.596 123.179C180.534 123.119 180.472 123.058 180.41 122.998C179.984 122.4 179.089 123.051 179.518 123.654C179.644 123.83 179.723 123.937 179.883 124.072C180.134 124.282 180.577 124.292 180.714 123.895C181.311 122.171 183.115 118.872 180.622 118.04C179.778 117.759 178.819 117.706 178.053 118.263C177.038 119.001 176.839 120.448 176.299 121.564C175.971 122.244 176.921 122.784 177.249 122.105Z" fill="#FFB39B"/>
<path d="M180.246 113.164C179.718 113.718 179.464 114.775 179.641 115.571C179.812 116.338 180.466 116.878 181.119 117.067C181.84 117.277 182.588 117.11 183.018 116.388C183.42 115.713 183.731 114.82 183.212 114.109C182.78 113.518 181.885 114.169 182.321 114.765C182.528 115.048 182.318 115.539 182.102 115.775C181.862 116.038 181.454 115.965 181.164 115.816C180.916 115.687 180.697 115.485 180.66 115.169C180.613 114.75 180.771 114.248 181.035 113.971C181.538 113.444 180.745 112.641 180.246 113.164Z" fill="#FFB39B"/>
<path d="M179.865 113.489C180.616 113.729 183.716 115.512 184.053 113.901C184.21 113.147 183.168 112.911 183.01 113.666C183.005 113.692 182.999 113.719 182.994 113.746C183.112 113.595 183.23 113.443 183.348 113.292C182.905 113.492 182.083 113.104 181.661 112.932C181.133 112.716 180.614 112.482 180.073 112.308C179.415 112.098 179.209 113.279 179.865 113.489Z" fill="#FFB39B"/>
<path d="M180.978 110.316C182.061 110.774 183.111 111.309 184.132 111.924C184.736 112.288 185.212 111.213 184.609 110.849C183.588 110.233 182.539 109.698 181.455 109.241C180.821 108.973 180.337 110.045 180.978 110.316Z" fill="#FFB39B"/>
<path d="M182.765 109.408C182.456 108.885 182.671 108.175 183.275 108.152C183.845 108.129 184.546 108.517 185.064 108.749C185.695 109.031 186.178 107.959 185.541 107.674C184.592 107.249 183.337 106.56 182.365 107.241C181.497 107.85 181.321 109.127 181.873 110.064C182.253 110.709 183.144 110.053 182.765 109.408Z" fill="#FFB39B"/>
<path d="M182.855 105.022C183.941 105.385 184.994 105.867 186.037 106.363C186.664 106.661 187.146 105.588 186.514 105.287C185.384 104.75 184.239 104.235 183.063 103.841C182.408 103.622 182.202 104.804 182.855 105.022Z" fill="#FFB39B"/>
<path d="M185.437 104.666C185.404 103.574 184.882 102.401 184.268 101.577C184.082 101.327 183.797 101.211 183.533 101.401C183.314 101.558 183.192 101.985 183.377 102.233C183.879 102.907 184.349 103.843 184.376 104.742C184.4 105.517 185.461 105.441 185.437 104.666Z" fill="#FFB39B"/>
<path d="M185.137 103.886C185.766 103.74 186.394 103.594 187.023 103.448C187.304 103.382 187.443 102.97 187.36 102.687C187.261 102.349 186.971 102.24 186.689 102.305C186.06 102.451 185.432 102.597 184.803 102.743C184.522 102.808 184.383 103.221 184.466 103.503C184.565 103.842 184.855 103.951 185.137 103.886Z" fill="#FFB39B"/>
<path d="M222.248 68.471C224.243 82.5657 215.358 103.203 211.996 108.52C205.71 118.465 204.711 129.846 203.074 130.447C201.438 131.047 196.668 128.32 197.413 118.197C198.122 108.579 202.288 100.091 200.002 95.1624C199.098 93.2127 202.209 87.9691 202.209 87.9691C202.209 87.9691 221.486 63.086 222.248 68.471Z" fill="#FDBAA0"/>
<path d="M203.568 127.654C202.936 127.939 203.044 126.794 203.113 126.474C203.165 126.236 203.243 126.003 203.314 125.772C203.476 125.24 203.654 124.714 203.831 124.188C204.143 123.259 204.472 121.246 205.714 121.847C206.054 122.012 206.215 121.386 205.879 121.222C204.055 120.339 203.516 123.279 203.075 124.611C202.794 125.458 202.249 126.599 202.52 127.526C202.714 128.189 203.3 128.47 203.848 128.223C204.191 128.069 203.909 127.5 203.568 127.654Z" fill="#E79780"/>
<path d="M160.478 99.7484C160.895 104.339 159.611 108.75 159.684 113.319C159.742 116.996 160.262 121.563 162.693 124.277C163.029 124.652 163.585 124.105 163.248 123.728C160.782 120.976 160.358 116.154 160.419 112.442C160.453 110.394 160.776 108.38 161.024 106.357C161.3 104.099 161.406 101.853 161.2 99.581C161.151 99.047 160.43 99.2187 160.478 99.7484Z" fill="#E5967E"/>
<path d="M222.8 70.5778C222.058 67.6816 220.795 65.0374 219.065 62.7455C218.725 62.2948 218.142 62.9351 218.481 63.3835C220.119 65.5533 221.311 68.0647 222.013 70.8059C222.158 71.3723 222.946 71.1483 222.8 70.5778Z" fill="#EF9F8A"/>
</g>
<mask id="mask3_1481_43564" style="mask-type:luminance" maskUnits="userSpaceOnUse" x="0" y="0" width="280" height="230">
<path d="M279.829 162.832C273.956 236.973 216.388 241.281 156.613 216.185C135.144 207.175 104.715 206.587 72.187 221.521C42.4377 235.185 -4.2525 220.187 0.311049 189.509C7.24769 142.879 34.6509 155.832 16.2487 109.67C2.83119 76.0114 10.0175 28.1666 50.8321 38.6668C81.4421 46.5424 94.532 31.0669 99.1627 22.8372C102.37 17.1373 106.616 12.1562 111.748 8.38282C150.49 -20.1019 171.43 34.2399 192.818 20.912C233.093 -4.1834 273.591 21.3744 252.984 62.3306C235.808 96.4692 283.189 120.394 279.829 162.832Z" fill="white"/>
</mask>
<g mask="url(#mask3_1481_43564)">
<path d="M121.41 82.6222C115.949 83.6158 110.532 85.229 111.792 92.461C113.046 99.6586 124.536 97.5551 125.654 91.766C126.235 88.7562 125.803 81.8232 121.41 82.6222Z" fill="#FDBAA0"/>
<path d="M122.333 86.6301C122.333 86.6301 123.222 90.2816 122.451 91.5331C121.68 92.7845 118.803 94.3975 118.466 94.1377C118.128 93.8779 118.48 91.9859 118.048 89.8161C117.711 88.12 116.397 86.6197 117.122 86.0605C117.848 85.5016 121.96 85.3647 122.333 86.6301Z" fill="#D44D2C"/>
<path d="M124.676 94.6222C118.703 95.3815 112.749 96.8102 113.778 104.666C114.802 112.484 127.369 110.872 128.853 104.705C129.625 101.498 129.48 94.0114 124.676 94.6222Z" fill="#FDBAA0"/>
<path d="M125.843 99.3875C125.843 99.3875 126.873 102.705 125.978 104.008C125.083 105.312 121.295 107.147 120.941 106.848C120.586 106.55 121.057 104.533 120.69 102.173C120.404 100.329 119.048 98.6392 119.861 98.0787C120.674 97.5181 125.498 98.0045 125.843 99.3875Z" fill="#D44D2C"/>
<path d="M121.076 107.485C115.527 108.992 110.068 111.132 111.874 118.46C113.67 125.753 125.342 122.57 126.085 116.515C126.471 113.367 125.538 106.274 121.076 107.485Z" fill="#FDBAA0"/>
<path d="M122.46 111.98C122.46 111.98 123.793 115.368 123.089 116.723C122.384 118.079 119.221 119.83 118.855 119.593C118.49 119.355 118.719 117.378 118.122 115.184C117.656 113.469 116.198 112.042 116.905 111.403C117.612 110.763 121.987 110.711 122.46 111.98Z" fill="#D44D2C"/>
<path d="M119.335 120.15C115.049 121.423 110.842 123.187 112.352 128.843C113.854 134.472 122.87 131.783 123.357 127.068C123.611 124.617 122.781 119.126 119.335 120.15Z" fill="#FDBAA0"/>
<path d="M120.52 123.485C120.52 123.485 121.339 125.929 120.812 126.995C120.285 128.061 118.078 129.771 117.791 129.593C117.503 129.416 117.652 127.876 117.156 126.183C116.769 124.861 115.616 123.78 116.155 123.27C116.695 122.761 120.134 122.509 120.52 123.485Z" fill="#D44D2C"/>
<path d="M116.799 97.0496C116.76 97.0496 116.722 97.0262 116.703 96.9831C116.677 96.9225 116.698 96.8482 116.752 96.8189C118.995 95.5656 123.87 94.6075 123.919 94.5977C123.972 94.5957 124.033 94.6329 124.043 94.6974C124.054 94.7639 124.014 94.8283 123.955 94.8401C123.907 94.848 119.062 95.8001 116.847 97.0377C116.831 97.0457 116.816 97.0496 116.799 97.0496Z" fill="#FDBAA0"/>
<path d="M119.68 109.571C118.379 109.571 117.176 109.456 116.566 109.102C116.513 109.071 116.491 108.996 116.519 108.936C116.546 108.877 116.612 108.858 116.664 108.883C118.303 109.843 124.698 108.951 124.761 108.942C124.821 108.932 124.873 108.983 124.881 109.047C124.888 109.116 124.846 109.176 124.787 109.184C124.617 109.207 121.992 109.571 119.68 109.571Z" fill="#FDBAA0"/>
<path d="M116.426 122.547C115.666 122.547 115.021 122.442 114.639 122.162C114.589 122.127 114.576 122.051 114.607 121.994C114.64 121.939 114.708 121.922 114.757 121.959C116.243 123.048 122.344 121.253 122.404 121.233C122.464 121.206 122.521 121.255 122.536 121.319C122.551 121.386 122.516 121.452 122.459 121.468C122.267 121.527 118.788 122.547 116.426 122.547Z" fill="#FDBAA0"/>
</g>
</svg>
