<svg width="20" height="21" viewBox="0 0 20 21" fill="none" xmlns="http://www.w3.org/2000/svg">
<path d="M17.7746 6.85007C17.4329 6.85007 17.1496 6.56673 17.1496 6.22507V4.7084C17.1496 4.10007 16.6579 3.6084 16.0496 3.6084H3.94961C3.34128 3.6084 2.84961 4.10007 2.84961 4.7084V6.2334C2.84961 6.57507 2.56628 6.8584 2.22461 6.8584C1.88294 6.8584 1.59961 6.57507 1.59961 6.22507V4.7084C1.59961 3.4084 2.65794 2.3584 3.94961 2.3584H16.0496C17.3496 2.3584 18.3996 3.41673 18.3996 4.7084V6.2334C18.3996 6.57507 18.1246 6.85007 17.7746 6.85007Z" fill="#0C0C0C"/>
<path d="M10 18.1415C9.65833 18.1415 9.375 17.8581 9.375 17.5165V3.6748C9.375 3.33314 9.65833 3.0498 10 3.0498C10.3417 3.0498 10.625 3.33314 10.625 3.6748V17.5165C10.625 17.8665 10.3417 18.1415 10 18.1415Z" fill="#0C0C0C"/>
<path d="M13.2835 18.1416H6.7168C6.37513 18.1416 6.0918 17.8583 6.0918 17.5166C6.0918 17.1749 6.37513 16.8916 6.7168 16.8916H13.2835C13.6251 16.8916 13.9085 17.1749 13.9085 17.5166C13.9085 17.8583 13.6251 18.1416 13.2835 18.1416Z" fill="#0C0C0C"/>
</svg>
