<svg width="64" height="51" viewBox="0 0 64 51" fill="none" xmlns="http://www.w3.org/2000/svg">
<path d="M20.0513 49.3661L1.12191 30.3195C0.403515 29.595 0 28.6131 0 27.5894C0 26.5656 0.403515 25.5838 1.12191 24.8593L3.42167 22.5409C4.14123 21.8176 5.11644 21.4113 6.13323 21.4113C7.15002 21.4113 8.12527 21.8176 8.84483 22.5409L22.6049 36.386L55.011 1.71383C55.7083 0.968911 56.6707 0.533005 57.6869 0.501798C58.7031 0.470591 59.6901 0.846634 60.4312 1.54738L62.7929 3.79148C63.5337 4.49365 63.9672 5.46323 63.9982 6.48711C64.0292 7.51098 63.6552 8.50534 62.9583 9.25163L25.566 49.2799C25.2139 49.6577 24.79 49.9603 24.3194 50.1698C23.8488 50.3794 23.3412 50.4915 22.8268 50.4995C22.3123 50.5076 21.8015 50.4114 21.3247 50.2167C20.8479 50.0219 20.4148 49.7327 20.0513 49.3661Z" fill="#ECF0FF"/>
</svg>
