<svg width="33" height="33" viewBox="0 0 33 33" fill="none" xmlns="http://www.w3.org/2000/svg">
<path d="M7.33301 30.1263C6.34635 30.1263 5.37301 29.753 4.62635 29.0063C3.90635 28.2863 3.50635 27.3263 3.50635 26.2996C3.50635 25.273 3.90635 24.313 4.62635 23.593L21.9597 6.25965C23.453 4.76632 25.8797 4.76632 27.373 6.25965C28.093 6.97965 28.493 7.93965 28.493 8.96632C28.493 9.99298 28.093 10.953 27.373 11.673L10.0397 29.0063C9.29301 29.753 8.31968 30.1263 7.33301 30.1263ZM24.6663 7.13965C24.1997 7.13965 23.733 7.31298 23.373 7.67298L6.03968 25.0063C5.69301 25.353 5.50635 25.8063 5.50635 26.2996C5.50635 26.793 5.69301 27.2463 6.03968 27.593C6.74635 28.2997 7.91968 28.2997 8.62635 27.593L25.9597 10.2596C26.3063 9.91298 26.493 9.45965 26.493 8.96632C26.493 8.47298 26.3063 8.01965 25.9597 7.67298C25.5997 7.31298 25.133 7.13965 24.6663 7.13965Z" fill="#0C0C0C"/>
<path d="M24.6798 13.9532C24.4264 13.9532 24.1731 13.8599 23.9731 13.6599L19.9731 9.65988C19.5864 9.27321 19.5864 8.63321 19.9731 8.24654C20.3598 7.85988 20.9998 7.85988 21.3864 8.24654L25.3864 12.2465C25.7731 12.6332 25.7731 13.2732 25.3864 13.6599C25.1864 13.8599 24.9331 13.9532 24.6798 13.9532Z" fill="#0C0C0C"/>
<path d="M13.9999 8.29987C13.9332 8.29987 13.8799 8.28654 13.8132 8.27321L11.9999 7.73987L10.1866 8.27321C9.94657 8.33987 9.69324 8.27321 9.53324 8.09987C9.35991 7.92654 9.29324 7.68654 9.35991 7.44654L9.89324 5.63321L9.35991 3.81987C9.29324 3.57987 9.35991 3.32654 9.53324 3.16654C9.70657 2.99321 9.95991 2.92654 10.1866 2.99321L11.9999 3.52654L13.8132 2.99321C14.0532 2.92654 14.2932 2.99321 14.4666 3.16654C14.6399 3.33987 14.7066 3.59321 14.6399 3.81987L14.1066 5.63321L14.6399 7.44654C14.7066 7.68654 14.6399 7.93987 14.4666 8.09987C14.3466 8.23321 14.1732 8.29987 13.9999 8.29987ZM11.9999 6.37987C12.0666 6.37987 12.1199 6.39321 12.1866 6.40654L13.0132 6.64654L12.7732 5.81987C12.7332 5.69987 12.7332 5.56654 12.7732 5.44654L13.0132 4.61987L12.1866 4.85987C12.0666 4.89987 11.9332 4.89987 11.8132 4.85987L10.9866 4.61987L11.2266 5.44654C11.2666 5.56654 11.2666 5.69987 11.2266 5.81987L10.9866 6.64654L11.8132 6.40654C11.8799 6.39321 11.9332 6.37987 11.9999 6.37987Z" fill="#0C0C0C"/>
<path d="M8.66641 16.2999C8.59974 16.2999 8.54641 16.2865 8.47974 16.2732L6.66641 15.7399L4.85308 16.2732C4.61308 16.3399 4.37308 16.2732 4.19974 16.0999C4.02641 15.9265 3.95974 15.6732 4.02641 15.4465L4.55974 13.6332L4.02641 11.8199C3.95974 11.5799 4.02641 11.3265 4.19974 11.1665C4.37308 11.0065 4.62641 10.9265 4.85308 10.9932L6.66641 11.5265L8.47974 10.9932C8.70641 10.9265 8.95974 10.9932 9.13308 11.1665C9.30641 11.3399 9.37308 11.5932 9.30641 11.8199L8.77308 13.6332L9.30641 15.4465C9.37308 15.6865 9.30641 15.9399 9.13308 16.0999C9.01308 16.2332 8.83974 16.2999 8.66641 16.2999ZM6.66641 14.3799C6.73308 14.3799 6.78641 14.3932 6.85308 14.4065L7.67974 14.6465L7.43974 13.8199C7.39974 13.6999 7.39974 13.5665 7.43974 13.4465L7.67974 12.6199L6.85308 12.8599C6.73308 12.8999 6.59974 12.8999 6.47974 12.8599L5.65308 12.6199L5.89308 13.4465C5.93308 13.5665 5.93308 13.6999 5.89308 13.8199L5.65308 14.6465L6.47974 14.4065C6.54641 14.3932 6.59974 14.3799 6.66641 14.3799Z" fill="#0C0C0C"/>
<path d="M28.6664 22.9664C28.5997 22.9664 28.5464 22.953 28.4797 22.9397L26.6664 22.4064L24.8531 22.9397C24.6131 23.0064 24.3731 22.9397 24.1997 22.7664C24.0264 22.593 23.9597 22.3397 24.0264 22.113L24.5597 20.2997L24.0264 18.4864C23.9597 18.2464 24.0264 17.993 24.1997 17.833C24.3731 17.673 24.6264 17.593 24.8531 17.6597L26.6664 18.193L28.4797 17.6597C28.7064 17.593 28.9597 17.6597 29.1331 17.833C29.3064 18.0064 29.3731 18.2597 29.3064 18.4864L28.7731 20.2997L29.3064 22.113C29.3731 22.353 29.3064 22.6064 29.1331 22.7664C29.0131 22.8997 28.8397 22.9664 28.6664 22.9664ZM26.6664 21.0464C26.7331 21.0464 26.7864 21.0597 26.8531 21.073L27.6797 21.313L27.4397 20.4864C27.3997 20.3664 27.3997 20.233 27.4397 20.113L27.6797 19.2864L26.8531 19.5264C26.7331 19.5664 26.5997 19.5664 26.4797 19.5264L25.6531 19.2864L25.8931 20.113C25.9331 20.233 25.9331 20.3664 25.8931 20.4864L25.6531 21.313L26.4797 21.073C26.5464 21.0597 26.5997 21.0464 26.6664 21.0464Z" fill="#0C0C0C"/>
</svg>
