<svg width="20" height="21" viewBox="0 0 20 21" fill="none" xmlns="http://www.w3.org/2000/svg">
<path d="M17.4991 5.85839C17.4824 5.85839 17.4574 5.85839 17.4324 5.85839C13.0241 5.41673 8.62408 5.25006 4.26574 5.69173L2.56574 5.85839C2.21574 5.89173 1.90741 5.64173 1.87408 5.29173C1.84074 4.94173 2.09074 4.64173 2.43241 4.60839L4.13241 4.44173C8.56574 3.99173 13.0574 4.16673 17.5574 4.60839C17.8991 4.64173 18.1491 4.95006 18.1157 5.29173C18.0907 5.61673 17.8157 5.85839 17.4991 5.85839Z" fill="#0C0C0C"/>
<path d="M7.08265 5.01699C7.04932 5.01699 7.01598 5.01699 6.97432 5.00866C6.64098 4.95033 6.40765 4.62533 6.46598 4.29199L6.64932 3.20033C6.78265 2.40033 6.96598 1.29199 8.90765 1.29199H11.091C13.041 1.29199 13.2243 2.44199 13.3493 3.20866L13.5326 4.29199C13.591 4.63366 13.3576 4.95866 13.0243 5.00866C12.6826 5.06699 12.3576 4.83366 12.3076 4.50033L12.1243 3.41699C12.0076 2.69199 11.9826 2.55033 11.0993 2.55033H8.91598C8.03265 2.55033 8.01598 2.66699 7.89098 3.40866L7.69932 4.49199C7.64932 4.80033 7.38265 5.01699 7.08265 5.01699Z" fill="#0C0C0C"/>
<path d="M12.676 19.2086H7.32597C4.41764 19.2086 4.30097 17.6003 4.20931 16.3003L3.66764 7.90864C3.64264 7.56697 3.90931 7.26697 4.25097 7.24197C4.60097 7.22531 4.89264 7.48364 4.91764 7.82531L5.45931 16.217C5.55097 17.4836 5.58431 17.9586 7.32597 17.9586H12.676C14.426 17.9586 14.4593 17.4836 14.5426 16.217L15.0843 7.82531C15.1093 7.48364 15.4093 7.22531 15.751 7.24197C16.0926 7.26697 16.3593 7.55864 16.3343 7.90864L15.7926 16.3003C15.701 17.6003 15.5843 19.2086 12.676 19.2086Z" fill="#0C0C0C"/>
<path d="M11.3824 14.625H8.60742C8.26576 14.625 7.98242 14.3417 7.98242 14C7.98242 13.6583 8.26576 13.375 8.60742 13.375H11.3824C11.7241 13.375 12.0074 13.6583 12.0074 14C12.0074 14.3417 11.7241 14.625 11.3824 14.625Z" fill="#0C0C0C"/>
<path d="M12.0827 11.292H7.91602C7.57435 11.292 7.29102 11.0087 7.29102 10.667C7.29102 10.3253 7.57435 10.042 7.91602 10.042H12.0827C12.4243 10.042 12.7077 10.3253 12.7077 10.667C12.7077 11.0087 12.4243 11.292 12.0827 11.292Z" fill="#0C0C0C"/>
</svg>
