<svg width="20" height="20" viewBox="0 0 20 20" fill="none" xmlns="http://www.w3.org/2000/svg">
<path d="M12.6081 15.8831H5.94141C5.59974 15.8831 5.31641 15.5998 5.31641 15.2581C5.31641 14.9165 5.59974 14.6331 5.94141 14.6331H12.6081C14.5581 14.6331 16.1497 13.0415 16.1497 11.0915C16.1497 9.14147 14.5581 7.54981 12.6081 7.54981H3.44141C3.09974 7.54981 2.81641 7.26647 2.81641 6.92481C2.81641 6.58314 3.09974 6.2998 3.44141 6.2998H12.6081C15.2497 6.2998 17.3997 8.44981 17.3997 11.0915C17.3997 13.7331 15.2497 15.8831 12.6081 15.8831Z" fill="#0C0C0C"/>
<path d="M5.35781 9.63372C5.19948 9.63372 5.04115 9.57539 4.91615 9.45039L2.78281 7.31706C2.54115 7.07539 2.54115 6.67539 2.78281 6.43372L4.91615 4.30039C5.15781 4.05872 5.55781 4.05872 5.79948 4.30039C6.04115 4.54206 6.04115 4.94206 5.79948 5.18372L4.10781 6.87539L5.79948 8.56706C6.04115 8.80872 6.04115 9.20872 5.79948 9.45039C5.68281 9.57539 5.51615 9.63372 5.35781 9.63372Z" fill="#0C0C0C"/>
</svg>
