<svg width="20" height="21" viewBox="0 0 20 21" fill="none" xmlns="http://www.w3.org/2000/svg">
<path d="M9.99954 8.79206C9.65788 8.79206 9.37454 8.50873 9.37454 8.16706V3.84206L8.77454 4.44206C8.53288 4.68373 8.13288 4.68373 7.89121 4.44206C7.64954 4.2004 7.64954 3.8004 7.89121 3.55873L9.55788 1.89206C9.73288 1.71706 10.0079 1.65873 10.2412 1.75873C10.4745 1.8504 10.6245 2.08373 10.6245 2.33373V8.16706C10.6245 8.50873 10.3412 8.79206 9.99954 8.79206Z" fill="#0C0C0C"/>
<path d="M11.6665 4.62552C11.5082 4.62552 11.3499 4.56719 11.2249 4.44219L9.5582 2.77552C9.31654 2.53385 9.31654 2.13385 9.5582 1.89219C9.79987 1.65052 10.1999 1.65052 10.4415 1.89219L12.1082 3.55885C12.3499 3.80052 12.3499 4.20052 12.1082 4.44219C11.9832 4.56719 11.8249 4.62552 11.6665 4.62552Z" fill="#0C0C0C"/>
<path d="M11.4671 15.4583H8.52539C7.65039 15.4583 6.86706 14.975 6.47539 14.1917L5.50039 12.2417C5.46706 12.1667 5.39206 12.125 5.31706 12.125H1.65039C1.30872 12.125 1.02539 11.8417 1.02539 11.5C1.02539 11.1583 1.30872 10.875 1.65039 10.875H5.32539C5.88372 10.875 6.38372 11.1833 6.63372 11.6833L7.60872 13.6333C7.78372 13.9917 8.14206 14.2083 8.54206 14.2083H11.4837C11.8837 14.2083 12.2421 13.9917 12.4171 13.6333L13.3921 11.6833C13.6421 11.1833 14.1421 10.875 14.7004 10.875H18.3337C18.6754 10.875 18.9587 11.1583 18.9587 11.5C18.9587 11.8417 18.6754 12.125 18.3337 12.125H14.7004C14.6171 12.125 14.5504 12.1667 14.5171 12.2417L13.5421 14.1917C13.1254 14.975 12.3421 15.4583 11.4671 15.4583Z" fill="#0C0C0C"/>
<path d="M12.5003 19.6251H7.50033C2.97533 19.6251 1.04199 17.6918 1.04199 13.1668V10.6668C1.04199 6.75844 2.49199 4.8001 5.74199 4.3251C6.09199 4.2751 6.40033 4.50844 6.45033 4.8501C6.50033 5.19177 6.26699 5.50844 5.92533 5.55844C3.30866 5.94177 2.29199 7.3751 2.29199 10.6668V13.1668C2.29199 17.0084 3.65866 18.3751 7.50033 18.3751H12.5003C16.342 18.3751 17.7087 17.0084 17.7087 13.1668V10.6668C17.7087 7.3751 16.692 5.94177 14.0753 5.55844C13.7337 5.50844 13.5003 5.19177 13.5503 4.8501C13.6003 4.50844 13.917 4.2751 14.2587 4.3251C17.5087 4.8001 18.9587 6.75844 18.9587 10.6668V13.1668C18.9587 17.6918 17.0253 19.6251 12.5003 19.6251Z" fill="#0C0C0C"/>
</svg>
