<svg width="44" height="22" viewBox="0 0 44 22" fill="none" xmlns="http://www.w3.org/2000/svg">
<path fill-rule="evenodd" clip-rule="evenodd" d="M11.0005 21.8287H7.19254L4.33706 4.76171C4.20153 3.97663 3.91375 3.28258 3.49044 2.95546C2.43403 2.1334 1.26993 1.47917 0 1.1492V0.492126H6.13426C6.98088 0.492126 7.61584 1.47917 7.72167 2.6255L9.20325 14.9365L13.0093 0.492126H16.7114L11.0005 21.8287ZM18.828 21.8287H15.2317L18.193 0.492126H21.7893L18.828 21.8287ZM26.442 6.40296C26.5478 5.25378 27.1827 4.5967 27.9235 4.5967C29.0876 4.43172 30.3557 4.76169 31.414 5.5809L32.0489 0.98704C30.9907 0.329961 29.8266 0 28.7702 0C25.2797 0 22.7399 2.95543 22.7399 7.05719C22.7399 10.1776 24.5389 11.816 25.8088 12.8031C27.1827 13.7873 27.7119 14.4443 27.6061 15.4285C27.6061 16.9048 26.5478 17.5619 25.4914 17.5619C24.2214 17.5619 22.9515 17.0698 21.7893 16.2478L21.1543 20.8445C22.4242 21.6637 23.7981 21.9936 25.0681 21.9936C28.9818 22.1558 31.414 19.2032 31.414 14.7715C31.414 9.19057 26.442 8.86345 26.442 6.40296ZM44 21.8287L41.1445 0.492126H38.0774C37.4424 0.492126 36.8075 1.1492 36.5958 2.1334L31.3082 21.8287H35.0103L35.7492 18.7111H40.2979L40.7212 21.8287H44ZM38.6065 6.23806L39.6629 14.2795H36.7016L38.6065 6.23806Z" fill="#172B85"/>
</svg>
